<?xml version="1.0" encoding="UTF-8" standalone="no"?>
<svg width="100%" height="100%" viewBox="0 0 291 212" version="1.1" xmlns="http://www.w3.org/2000/svg" xmlns:xlink="http://www.w3.org/1999/xlink" xml:space="preserve" xmlns:serif="http://www.serif.com/">
  <path d="M289.211,85.678c2.462,-4.629 2.66,-11.428 -3.55,-14.779c-4.901,-2.645 -11.78,-1.703 -19.488,2.48c-3.676,1.414 -6.115,3.037 -9.566,6.555c-0.69,0.566 -1.384,1.164 -2.079,1.775c13.275,-25.287 15.079,-46.658 5.382,-56.574c-7.709,-7.887 -17.836,-4.66 -23.733,1.033c-5.499,5.315 -6.757,14.432 -0.87,20.432c5.756,5.871 14.964,4.652 16.412,-3.1c1.009,-5.416 -4.832,-7.91 -7.619,-4.222c-1.339,1.771 -5.375,-1.711 -3.547,-5.664c2.506,-5.42 13.808,-11.434 19.741,0.32c5.309,10.514 -1.948,30.267 -12.491,44.682c-12.067,-45.264 -53.329,-78.616 -102.396,-78.616c-49.067,0 -90.329,33.352 -102.396,78.616c-10.543,-14.415 -17.8,-34.168 -12.491,-44.682c5.933,-11.754 17.235,-5.74 19.741,-0.32c1.827,3.953 -2.208,7.435 -3.548,5.664c-2.786,-3.688 -8.627,-1.194 -7.618,4.222c1.447,7.752 10.656,8.971 16.412,3.1c5.887,-6 4.629,-15.117 -0.87,-20.432c-5.897,-5.693 -16.025,-8.92 -23.733,-1.033c-9.697,9.916 -7.894,31.287 5.382,56.574c-0.695,-0.611 -1.389,-1.209 -2.079,-1.775c-3.451,-3.518 -5.89,-5.141 -9.566,-6.555c-7.708,-4.183 -14.587,-5.125 -19.488,-2.48c-6.211,3.351 -6.013,10.15 -3.55,14.779c2.298,4.32 7.684,6.701 12.413,4.141c4.626,-2.506 5.5,-8.385 0.988,-10.643c-3.153,-1.576 -5.717,1.578 -3.941,3.941c0.853,1.137 -2,3.004 -4.11,1.184c-2.892,-2.498 -4.597,-10.51 3.679,-12.086c3.238,-0.617 7.139,0.561 11.09,2.83c9.631,7.602 15.109,17.377 16.571,30.938c-1.592,14.761 -7.951,25.035 -19.239,32.904c-3.015,1.344 -5.917,1.943 -8.422,1.465c-8.276,-1.576 -6.571,-9.588 -3.679,-12.086c2.11,-1.82 4.963,0.047 4.11,1.183c-1.776,2.366 0.788,5.518 3.941,3.942c4.512,-2.258 3.638,-8.137 -0.988,-10.641c-4.729,-2.562 -10.115,-0.181 -12.413,4.139c-2.463,4.631 -2.661,11.428 3.55,14.779c7.158,3.864 18.534,0.069 30.557,-10.312c-12.754,24.806 -14.363,45.701 -4.806,55.472c7.708,7.889 17.836,4.663 23.733,-1.033c5.499,-5.312 6.757,-14.429 0.87,-20.431c-5.756,-5.87 -14.965,-4.651 -16.412,3.101c-1.009,5.414 4.832,7.908 7.618,4.223c1.34,-1.774 5.375,1.709 3.548,5.664c-2.506,5.42 -13.808,11.433 -19.741,-0.32c-5.309,-10.514 1.948,-30.268 12.491,-44.684c12.067,45.266 53.329,78.617 102.396,78.617c49.067,0 90.329,-33.351 102.396,-78.617c10.543,14.416 17.8,34.17 12.491,44.684c-5.933,11.753 -17.235,5.74 -19.741,0.32c-1.828,-3.955 2.208,-7.438 3.547,-5.664c2.787,3.685 8.628,1.191 7.619,-4.223c-1.448,-7.752 -10.656,-8.971 -16.412,-3.101c-5.887,6.002 -4.629,15.119 0.87,20.431c5.897,5.696 16.024,8.922 23.733,1.033c9.556,-9.771 7.948,-30.666 -4.806,-55.472c12.023,10.381 23.398,14.176 30.557,10.312c6.21,-3.351 6.012,-10.148 3.55,-14.779c-2.298,-4.32 -7.684,-6.701 -12.413,-4.139c-4.626,2.504 -5.501,8.383 -0.988,10.641c3.153,1.576 5.717,-1.576 3.941,-3.942c-0.853,-1.136 2,-3.003 4.11,-1.183c2.891,2.498 4.596,10.51 -3.679,12.086c-2.505,0.478 -5.407,-0.121 -8.422,-1.465c-11.288,-7.869 -17.647,-18.143 -19.239,-32.904c1.462,-13.561 6.94,-23.336 16.571,-30.938c3.951,-2.269 7.852,-3.447 11.09,-2.83c8.275,1.576 6.57,9.588 3.679,12.086c-2.11,1.82 -4.963,-0.047 -4.11,-1.184c1.776,-2.363 -0.788,-5.517 -3.941,-3.941c-4.513,2.258 -3.638,8.137 0.988,10.643c4.729,2.56 10.115,0.179 12.413,-4.141" style="fill:#a72244;fill-rule:nonzero;" />
  <path d="M239.209,105.984c0,-51.807 -42,-93.803 -93.805,-93.803c-51.802,0 -93.799,41.996 -93.799,93.803c0,51.805 41.997,93.802 93.799,93.802c51.805,0 93.805,-41.997 93.805,-93.802m-6.8,0c0,48.048 -38.951,87.002 -87.005,87.002c-48.051,0 -87.005,-38.954 -87.005,-87.002c0,-48.052 38.954,-87.003 87.005,-87.003c48.054,0 87.005,38.951 87.005,87.003m-9.836,-18.931c-1.349,-4.317 -3.884,-5.553 -7.267,-4.518c-3.891,1.441 -8.641,3.136 -13.823,4.947c3.383,10.075 4.192,21.159 1.648,32.286c-0.749,3.258 -1.802,6.353 -3.028,9.345c4.938,2.019 9.471,3.874 13.229,5.405c2.559,0.735 7.104,0.329 8.438,-5.544c0.462,-1.53 0.879,-3.087 1.238,-4.666c2.909,-12.724 2.556,-25.412 -0.435,-37.255m-3.592,30.834c-0.654,2.876 -1.59,5.603 -2.664,8.251c-3.217,-1.654 -4.482,-2.34 -5.565,-3.254c0.902,-2.202 1.68,-4.487 2.233,-6.891c1.868,-8.194 1.276,-16.37 -1.219,-23.794c1.783,-1.207 2.755,-2.06 5.641,-3.22c3.096,9.01 3.851,18.941 1.574,28.908m-8.172,-57.649c-0.902,-1.315 -1.856,-2.61 -2.864,-3.879c-8.146,-10.206 -18.281,-17.836 -29.405,-22.891c-4.214,-1.635 -6.761,-0.423 -8.065,2.871c-1.291,3.938 -2.937,8.707 -4.759,13.889c10.002,3.638 19.161,9.919 26.272,18.843c2.088,2.611 3.851,5.37 5.426,8.192c4.658,-2.599 8.934,-4.986 12.471,-6.969c2.167,-1.542 4.684,-5.351 0.924,-10.056m-5.062,2.692c-3.292,1.481 -4.62,2.046 -6.009,2.322c-1.158,-2.081 -2.456,-4.114 -3.992,-6.039c-5.243,-6.576 -12.01,-11.206 -19.37,-13.889c0.175,-2.148 0.105,-3.439 1.011,-6.418c8.966,3.198 17.206,8.799 23.58,16.792c1.835,2.306 3.386,4.74 4.78,7.232m-42.488,-6.856c-3.018,8.475 -6.311,17.514 -9.256,25.535c4.267,1.581 8.185,4.274 11.224,8.092c0.896,1.127 1.657,2.323 2.342,3.544c7.473,-4.164 15.872,-8.848 23.719,-13.227c-1.4,-2.507 -2.955,-4.95 -4.802,-7.268c-6.296,-7.889 -14.396,-13.447 -23.227,-16.676m-8.07,-9.039c0.872,-5.264 1.666,-10.094 2.327,-14.093c0.148,-2.662 -1.262,-7.008 -7.286,-6.997c-1.594,-0.109 -3.196,-0.167 -4.826,-0.167c-13.053,0 -25.34,3.167 -36.223,8.72c-3.908,2.272 -4.545,5.016 -2.783,8.09c2.276,3.469 4.977,7.723 7.902,12.375c9.066,-5.542 19.693,-8.799 31.104,-8.799c3.344,0 6.595,0.341 9.785,0.871m-5.451,-15.261c-0.902,3.501 -1.286,4.891 -1.934,6.153c-2.352,-0.393 -4.745,-0.647 -7.214,-0.647c-8.414,0 -16.24,2.401 -22.928,6.488c-1.572,-1.471 -2.623,-2.229 -4.391,-4.79c8.091,-5.019 17.604,-7.969 27.826,-7.969c2.946,0 5.825,0.305 8.641,0.765m-44.501,29.429c-3.571,-3.959 -6.849,-7.595 -9.568,-10.605c-1.989,-1.773 -6.259,-3.384 -10.008,1.334c-1.083,1.177 -2.131,2.395 -3.144,3.665c-8.143,10.203 -13.325,21.79 -15.77,33.756c-0.661,4.479 1.095,6.685 4.587,7.225c4.135,0.383 9.145,0.921 14.608,1.541c1.319,-10.55 5.399,-20.887 12.513,-29.81c2.088,-2.609 4.382,-4.936 6.782,-7.106m-11.173,0.284c-1.766,1.601 -3.462,3.315 -4.998,5.239c-5.243,6.58 -8.252,14.199 -9.223,21.978c-2.131,0.314 -3.375,0.658 -6.483,0.45c1.116,-9.459 4.744,-18.736 11.118,-26.731c1.844,-2.308 3.869,-4.358 5.985,-6.275c2.182,2.885 3.027,4.053 3.601,5.339m-28.349,57.129c0.247,1.576 0.543,3.16 0.905,4.739c2.904,12.73 8.731,24.004 16.567,33.382c3.081,3.299 5.894,3.314 8.504,0.915c2.877,-2.99 6.417,-6.578 10.31,-10.458c-7.424,-7.613 -12.96,-17.248 -15.5,-28.373c-0.743,-3.258 -1.133,-6.504 -1.328,-9.734c-5.325,0.321 -10.217,0.622 -14.261,0.87c-2.623,0.45 -6.549,2.789 -5.197,8.659m6.848,-0.932c3.612,0.093 5.055,0.161 6.422,0.514c0.148,2.375 0.429,4.77 0.981,7.173c1.874,8.203 5.952,15.304 11.421,20.916c-1.078,1.86 -1.585,3.049 -3.686,5.345c-6.694,-6.771 -11.688,-15.393 -13.964,-25.362c-0.655,-2.87 -1.002,-5.739 -1.174,-8.586m29.321,48.643c-1.283,2.329 -1.908,6.854 3.528,9.46c1.391,0.793 2.813,1.543 4.276,2.249c11.759,5.662 24.205,8.139 36.416,7.86c4.503,-0.354 6.275,-2.547 6.021,-6.081c-0.537,-4.112 -1.135,-9.116 -1.744,-14.576c-10.578,1.054 -21.567,-0.623 -31.85,-5.579c-3.006,-1.444 -5.788,-3.167 -8.435,-5.023c-3.067,4.362 -5.88,8.369 -8.212,11.69m7.632,3.715c2.327,-2.764 3.272,-3.847 4.404,-4.699c1.946,1.371 3.999,2.64 6.217,3.708c7.581,3.649 15.679,4.888 23.48,4.108c0.773,2.005 1.395,3.146 1.872,6.218c-9.471,1.015 -19.319,-0.458 -28.527,-4.893c-2.656,-1.285 -5.119,-2.803 -7.446,-4.442m35.888,-81.311c-9.525,0 -17.254,7.723 -17.254,17.251c0,9.527 7.729,17.252 17.254,17.252c9.528,0 17.248,-7.725 17.248,-17.252c0,-9.528 -7.72,-17.251 -17.248,-17.251m0,-35.767c-10.089,0 -19.487,2.87 -27.516,7.765c4.742,7.645 9.755,15.847 14.191,23.152c3.894,-2.348 8.445,-3.727 13.325,-3.727c1.449,0 2.852,0.147 4.237,0.374c1.395,-8.442 2.97,-17.923 4.443,-26.793c-2.831,-0.465 -5.716,-0.771 -8.68,-0.771m-41.076,19.777c-6.293,7.894 -9.905,17.031 -11.085,26.356c8.933,1.059 18.476,2.252 26.957,3.344c0.58,-4.514 2.345,-8.929 5.39,-12.744c0.9,-1.13 1.893,-2.137 2.928,-3.078c-5.725,-6.354 -12.16,-13.499 -18.172,-20.176c-2.131,1.918 -4.171,3.986 -6.018,6.298m26.426,53.422c-4.922,6.997 -10.46,14.861 -15.633,22.213c2.348,1.646 4.82,3.175 7.482,4.461c9.096,4.374 18.808,5.868 28.164,4.945c-0.95,-8.95 -1.916,-18.512 -2.743,-27.021c-4.53,0.427 -9.22,-0.302 -13.618,-2.421c-1.306,-0.628 -2.508,-1.373 -3.652,-2.177m-22.879,16.125c6.398,-6.327 13.282,-13.039 19.412,-18.988c-3.154,-3.27 -5.508,-7.405 -6.598,-12.161c-0.32,-1.407 -0.489,-2.813 -0.573,-4.207c-8.542,0.513 -18.136,1.085 -27.115,1.628c0.178,2.861 0.525,5.742 1.187,8.63c2.242,9.838 7.131,18.36 13.687,25.098m48.527,-13.945c-1.304,0.625 -2.632,1.102 -3.981,1.493c2.4,8.215 5.097,17.439 7.621,26.071c2.752,-0.807 5.486,-1.783 8.152,-3.067c9.09,-4.381 16.318,-11.041 21.419,-18.935c-7.585,-4.831 -15.661,-10.046 -22.829,-14.705c-2.484,3.809 -5.984,7.026 -10.382,9.143m13.038,-31.015c1.431,4.32 1.763,9.059 0.682,13.82c-0.329,1.408 -0.784,2.745 -1.316,4.041c7.92,3.246 16.814,6.889 25.135,10.295c1.083,-2.655 2.022,-5.397 2.683,-8.286c2.245,-9.836 1.539,-19.637 -1.44,-28.552c-8.517,2.922 -17.625,5.981 -25.744,8.682m0.999,62.758c-3.009,1.45 -6.09,2.552 -9.19,3.461c1.497,5.118 2.87,9.817 4.014,13.709c1.026,2.456 4.177,5.763 9.597,3.14c1.491,-0.591 2.961,-1.236 4.428,-1.938c11.759,-5.664 21.453,-13.856 28.856,-23.574c2.532,-3.742 1.922,-6.492 -1.008,-8.499c-3.549,-2.141 -7.835,-4.798 -12.486,-7.723c-5.767,8.934 -13.928,16.473 -24.211,21.424m2.119,7.347c2.287,-0.673 4.56,-1.486 6.772,-2.554c7.582,-3.651 13.603,-9.208 17.852,-15.794c2.056,0.646 3.326,0.87 6.037,2.41c-5.116,8.034 -12.411,14.815 -21.622,19.255c-2.656,1.28 -5.372,2.252 -8.107,3.055c-0.715,-3.541 -0.969,-4.961 -0.932,-6.372" style="fill:#c37677;fill-rule:nonzero;" />
  <path d="M154.418,85.784c0.544,-1.454 1.089,-2.908 1.633,-4.362c-1.058,-1.765 -2.313,-4.253 -2.185,-5.95c0.116,-1.59 0.364,-5.636 0.364,-5.636l0.039,-0.63l0.369,-0.513c0.221,-0.307 1.423,-1.831 3.351,-1.639c0.97,0.096 2.335,0.672 3.334,2.87l0.247,0.543l-0.064,0.593c-0.193,1.8 -0.298,3.79 -0.225,4.257c0.041,0.118 0.224,0.474 0.477,0.931c1.497,-0.786 3.754,-2.353 5.226,-5.152c-0.743,-1.178 -1.828,-3.12 -2.262,-5.008c-0.653,-2.822 -0.263,-5.858 -0.246,-5.985l0.128,-0.969l0.807,-0.55c0.254,-0.173 1.603,-1.013 3.236,-0.575c0.774,0.208 1.85,0.773 2.581,2.29l0.259,0.538l-0.051,0.598c-0.088,1.027 -0.02,2.34 0.14,2.701c0.205,0.321 0.438,0.726 0.667,1.145c0.046,-0.137 0.09,-0.289 0.131,-0.458c0.965,-3.91 1.288,-4.34 1.502,-4.625l0.253,-0.336l0.36,-0.219c0.277,-0.168 1.74,-0.972 3.341,-0.312c0.77,0.318 1.779,1.068 2.219,2.839l0.105,0.422l-0.066,0.43c-0.057,0.378 -0.582,3.754 -1.383,5.794c-0.731,1.858 -2.325,2.765 -3.38,3.366c-0.264,0.151 -0.517,0.273 -0.689,0.423c0.051,-0.031 -0.062,0.18 -0.201,0.436c-0.699,1.285 -2,3.676 -4.296,6.053c-2.215,2.283 -5.65,4.001 -7.221,4.713l-2.086,4.625l-0.272,0.602l-0.56,0.351c-0.323,0.202 -2.021,1.172 -3.716,0.393c-0.619,-0.285 -1.699,-1.04 -1.98,-2.903l-0.085,-0.56l0.199,-0.531Z" style="fill:#a72244;fill-rule:nonzero;stroke:#a72244;stroke-width:4.37px;" />
  <path d="M153.299,84.513c0.113,0.314 0.43,1.434 -0.226,2.667c-0.379,0.714 -1.212,1.662 -3.024,2.121c-0.723,0.183 -1.49,-0.016 -2.033,-0.528c-1.829,-1.723 -3.658,-3.446 -5.487,-5.169c-2.32,0.545 -4.64,1.089 -6.96,1.634c-0.34,0.08 -0.693,0.077 -1.032,-0.008c-1.416,-0.357 -3.334,-1.955 -2.812,-4.899c0.154,-0.868 0.814,-1.558 1.674,-1.75c0.852,-0.19 1.704,-0.38 2.556,-0.57c-0.912,-0.761 -1.823,-1.522 -2.735,-2.283c-1.847,0.537 -3.198,0.945 -4.221,1.255c-2.82,0.854 -3.49,1.057 -5.172,1.021c-1.616,-0.039 -5.122,-0.509 -5.517,-0.562c-0.6,-0.082 -1.138,-0.408 -1.488,-0.902c-0.35,-0.493 -0.479,-1.11 -0.357,-1.702c0.073,-0.354 0.483,-2.186 1.414,-3.528c-0.571,0.823 -0.509,1.929 0.151,2.682c0.659,0.754 1.747,0.962 2.638,0.506l-0.557,0.285c0.884,-0.453 1.351,-1.446 1.136,-2.416c-0.215,-0.97 -1.057,-1.672 -2.05,-1.709c1.107,0.041 4.27,0.122 5.598,0.007c0.637,-0.054 1.66,-0.292 2.716,-0.584c-1.403,-1.997 -3.278,-5.161 -5.029,-9.696c-0.215,-0.558 -0.192,-1.18 0.064,-1.721c0.537,-1.133 1.666,-2.351 3.224,-2.37c0.942,-0.011 2.282,0.405 3.313,2.452c-0.055,-0.104 3.022,4.937 4.401,7.009c0.37,0.529 2.625,2.816 4.503,4.633c0.529,0.428 1.058,0.856 1.586,1.284c0.478,-1.113 1.035,-2.45 1.523,-3.728c0.488,-1.281 1.469,-2.095 2.69,-2.228c1.289,-0.14 2.637,0.555 3.435,1.77c0.66,1.007 0.781,2.152 0.343,3.117c-0.712,2.046 -1.425,4.092 -2.137,6.138c2.439,2.308 4.879,4.617 7.318,6.925c0.249,0.235 0.438,0.525 0.554,0.847" style="fill:#a72244;fill-rule:nonzero;" />
  <path d="M153.299,84.513c0.113,0.314 0.43,1.434 -0.226,2.667c-0.379,0.714 -1.212,1.662 -3.024,2.121c-0.723,0.183 -1.49,-0.016 -2.033,-0.528c-1.829,-1.723 -3.658,-3.446 -5.487,-5.169c-2.32,0.545 -4.64,1.089 -6.96,1.634c-0.34,0.08 -0.693,0.077 -1.032,-0.008c-1.416,-0.357 -3.334,-1.955 -2.812,-4.899c0.154,-0.868 0.814,-1.558 1.674,-1.75c0.852,-0.19 1.704,-0.38 2.556,-0.57c-0.912,-0.761 -1.823,-1.522 -2.735,-2.283c-1.847,0.537 -3.198,0.945 -4.221,1.255c-2.82,0.854 -3.49,1.057 -5.172,1.021c-1.616,-0.039 -5.122,-0.509 -5.517,-0.562c-0.6,-0.082 -1.138,-0.408 -1.488,-0.902c-0.35,-0.493 -0.479,-1.11 -0.357,-1.702c0.073,-0.354 0.483,-2.186 1.414,-3.528c-0.571,0.823 -0.509,1.929 0.151,2.682c0.659,0.754 1.747,0.962 2.638,0.506l-0.557,0.285c0.884,-0.453 1.351,-1.446 1.136,-2.416c-0.215,-0.97 -1.057,-1.672 -2.05,-1.709c1.107,0.041 4.27,0.122 5.598,0.007c0.637,-0.054 1.66,-0.292 2.716,-0.584c-1.403,-1.997 -3.278,-5.161 -5.029,-9.696c-0.215,-0.558 -0.192,-1.18 0.064,-1.721c0.537,-1.133 1.666,-2.351 3.224,-2.37c0.942,-0.011 2.282,0.405 3.313,2.452c-0.055,-0.104 3.022,4.937 4.401,7.009c0.37,0.529 2.625,2.816 4.503,4.633c0.529,0.428 1.058,0.856 1.586,1.284c0.478,-1.113 1.035,-2.45 1.523,-3.728c0.488,-1.281 1.469,-2.095 2.69,-2.228c1.289,-0.14 2.637,0.555 3.435,1.77c0.66,1.007 0.781,2.152 0.343,3.117c-0.712,2.046 -1.425,4.092 -2.137,6.138c2.439,2.308 4.879,4.617 7.318,6.925c0.249,0.235 0.438,0.525 0.554,0.847Z" style="fill:none;fill-rule:nonzero;stroke:#a72244;stroke-width:4.37px;stroke-linejoin:round;stroke-miterlimit:10;" />
  <path d="M173.073,175.253c0,0 -0.409,-1.865 -1.932,-3.326c-0.131,0.027 -0.308,0.108 -0.486,0.195c-0.135,0.077 -0.28,0.188 -0.426,0.322c-0.053,0.043 -0.103,0.107 -0.156,0.158c-0.348,0.371 -0.695,0.914 -0.956,1.751c0,0.001 -0.001,0.002 -0.001,0.004l3.957,0.896Zm-2.37,-78.048c-1.312,-2.857 -7.759,-6.832 -9.69,-7.977c-0.252,0.218 -0.55,0.378 -0.773,0.556c-0.679,0.54 -1.552,0.286 -2.116,0.123l-0.288,-0.082l-1.117,-0.444c-0.408,-0.194 -1.046,-0.5 -1.372,-0.497c-0.004,0.041 -0.014,0.082 -0.014,0.147c0.014,0.455 0.252,1.358 0.581,2.007c0.095,0.213 0.153,0.414 0.16,0.598c0.027,0.852 -0.897,1.405 -1.545,1.796l-0.656,0.417c0,0 -0.238,0.204 -0.329,0.285c0.108,0.143 0.418,0.449 1.345,1.036c0.672,0.431 1.015,0.904 1.035,1.409c0.004,0.075 -0.003,0.16 -0.02,0.242c-0.177,1.025 -1.667,1.379 -2.299,1.483c-3.454,1.42 -4.829,8.826 -4.629,14.558c0.024,0.632 0.068,1.25 0.133,1.834c0.261,2.54 0.832,3.81 1.491,5.281c0.726,1.616 1.548,3.449 1.989,7.236c0.044,0.343 0.065,0.696 0.075,1.049c0.248,6.944 -5.314,14.344 -5.539,14.683c2.337,-6.278 -2.267,-15.617 -7.001,-20.537c-4.063,-4.219 -5.887,-8.16 -6.722,-10.737c-1.842,2.485 -4.965,4.916 -9.28,1.952c-7.307,-5.009 4.778,-10.143 0.897,-14.975c0,0 -10.069,-10.507 -25.682,-16.45c-15.611,-5.942 -22.524,-8.163 -26.664,-12.048c0,0 1.48,5.545 2.554,7.678c1.531,3.059 3.888,5.145 7.06,5.956c2.833,0.731 5.233,1.564 6.595,2.063c0.213,0.07 0.385,0.132 0.52,0.187c0.421,0.158 0.671,0.257 0.671,0.257c0,0 -0.191,-0.062 -0.357,-0.114c0.194,0.105 0.224,0.161 0.224,0.161l0.177,0.92c0,0 -2.971,-1.209 -5.182,-1.304c-1.818,-0.189 -4.305,-0.642 -6.073,-1.628c-2.644,-0.075 -5.351,0.159 -7.649,1.125c0,0 6.241,6.925 12.255,7.627c0.325,0.038 0.541,0.064 0.821,0.096c0.386,0.019 0.742,0.051 1.166,0.054c4.54,0.024 4.76,0.465 4.76,0.465l0.354,0.917c0,0 -3.155,-0.632 -5.339,-0.282c-1.044,0.104 -2.326,0.144 -3.592,0.056l-0.011,0c-3.016,0.761 -6.522,2.206 -8.781,5.011c0,0 5.648,4.767 14.284,3.652c0.51,-0.132 0.899,-0.168 1.473,-0.355c4.343,-1.405 4.669,-1.059 4.669,-1.059l0.58,0.767c0,0 -3.185,0.39 -5.175,1.422c-0.534,0.236 -1.144,0.483 -1.787,0.711c-1.69,1.039 -3.303,2.264 -4.04,3.511c0,0 6.88,0.984 9.203,2.139c1.711,0.851 5.095,0.935 7.962,-0.606c0.981,-0.817 1.848,-1.533 2.33,-1.929c-1.31,-1.013 -2.558,-2.386 -3.541,-4.267l-0.649,-1.232l1.29,0.169c0.044,0.004 4.075,0.591 6.775,0.432c-4.041,-1.196 -8.693,-4.405 -9.752,-11.274l-0.116,-0.737l0.679,-0.092c0.316,-0.038 6.805,-1.348 13.091,4.961l-0.034,1.144c-4.67,-4.489 -10.167,-4.767 -12.113,-4.72c1.854,8.87 10.33,10.351 10.69,10.385l0.024,0.717c-2.252,0.831 -6.025,0.913 -7.984,0.743c3.776,5.695 9.641,5.094 9.902,5.063l0.302,0.856c-3.137,1.609 -4.512,6.106 -4.968,7.64c4.928,1.868 8.521,-0.393 8.684,-0.495l2.105,-1.41l-1.185,2.364c-0.581,1.148 -0.734,2.377 -0.696,3.467c0.037,1.046 0.241,1.922 0.417,2.523c0.863,-0.526 2.524,-1.321 5.617,-1.895c3.922,-0.723 3.929,-3.372 3.922,-3.484l0.975,0.289c0,0.037 0.234,3.773 -4.856,4.71c-4.289,0.791 -5.57,1.969 -5.58,1.983l-0.655,0.587l-0.363,-0.835c-0.051,-0.112 -0.757,-1.728 -0.792,-3.817c-0.034,-2.122 0.805,-2.557 1.009,-3.426c-3.076,1.46 -5.671,1.959 -9.658,0.591l-0.526,-0.231l0.132,-0.594c0.018,-0.088 0.134,-0.871 0.49,-1.949c-1.135,1.575 -3.42,4.01 -7.407,5.361l4.765,1.322c3.544,-1.035 3.915,-0.707 3.915,-0.707l0.682,0.869c0,0 -2.999,0.991 -4.59,1.41c-2.047,1.17 -5.052,3.563 -6.663,8.071c0,0 2.107,2.58 6.269,1.005c0.615,-0.723 1.265,-1.409 1.939,-2.066c0.225,-0.219 0.463,-0.417 0.695,-0.625c0.537,-0.481 1.099,-0.924 1.685,-1.337c0.251,-0.176 0.498,-0.355 0.76,-0.517c0.847,-0.525 1.732,-0.996 2.703,-1.333l0.571,0.652c-5.162,2.17 -7.274,4.9 -8.605,7.929c1.943,0.33 2.859,0.228 4.761,-0.254c3.121,-0.781 4.269,-2.608 5.606,-4.71l0.004,0c0.013,-0.024 0.02,-0.034 0.024,-0.058c0,0 0.23,0.136 0.383,0.221c0.415,0.17 -1.779,5.8 -2.659,8.384c2.812,0.289 7.658,0.214 7.662,-6.86l0.72,0.211c-0.011,8.425 -5.207,7.834 -8.073,7.536l-1.707,-0.167l0.217,-0.754c0.417,-1.28 0.937,-2.662 1.48,-4.027c-0.798,0.557 -1.711,1.056 -2.964,1.368c-1.74,0.442 -2.805,0.589 -4.36,0.426c-0.004,-0.001 -0.008,0 -0.012,-0.001c-0.504,-0.053 -1.104,-0.149 -1.759,-0.274c-0.002,0 -0.003,0 -0.006,-0.001c-1.826,3.388 -5.066,7.759 -10.007,8.509c-8.228,1.243 -2.998,-10.309 -3.012,-10.618c0,0 6.503,-7.892 1.528,-11.977c-5.572,-4.574 -10.347,-0.136 -11.695,5.8c0,0 -0.889,3.382 -3.365,3.64c-2.482,0.255 2.187,2.839 5.62,-2.842c3.365,-5.566 6.319,-0.245 4.771,6.455c-1.66,7.179 -2.312,15.947 8.194,12.724c7.403,-2.268 10.632,-8.028 10.632,-8.028c0,0 -2.088,5.689 1.593,13.017c0,0 -0.839,8.435 -0.031,15.257c0,0 -2.346,1.012 -2.642,4.112c0,0 0.856,-1.687 4.388,-1.82c2.564,-0.098 13.719,4.662 12.588,7.742l3.109,0.483c0.008,-0.059 0.026,-0.108 0.04,-0.184c0.028,-0.162 0.08,-0.347 0.157,-0.576c0.041,-0.122 0.092,-0.23 0.15,-0.365c0.089,-0.2 0.212,-0.402 0.352,-0.62c0.105,-0.17 0.199,-0.324 0.34,-0.497c0.278,-0.332 0.617,-0.663 1.06,-0.975c0.002,-0.001 0.002,-0.003 0.004,-0.004c-0.687,-0.623 -1.517,-1.227 -2.523,-1.727c0,0 -1.441,-1.825 -8.833,-4.654c-0.492,0.507 -0.709,0.97 -0.709,0.97c0.026,-0.449 0.178,-0.77 0.287,-1.138c-1.102,-0.414 -2.327,-0.848 -3.696,-1.3c0,0 -1.691,-7.4 -0.479,-13.672c0,0 1.534,-0.187 3.142,-0.895c1.099,-0.635 2.029,-1.352 2.807,-2.14c0.131,-0.184 0.279,-0.352 0.384,-0.561l0.006,0.174c0.142,-0.155 0.327,-0.295 0.458,-0.453c0.086,-0.112 0.167,-0.226 0.248,-0.339c0.278,-0.361 0.503,-0.729 0.733,-1.098c2.285,-3.886 2.26,-7.769 2.26,-7.769l0.112,0.02l0,-0.023l0.954,0.177c0,0.004 -0.001,0.008 -0.002,0.013l0.002,0c-0.016,0.189 -0.063,0.329 -0.082,0.513c-0.126,1.267 -0.303,2.457 -0.564,3.504c-0.134,0.542 -0.328,0.968 -0.49,1.46c-0.183,0.546 -0.339,1.151 -0.551,1.633c-0.861,2.012 -1.928,3.552 -2.995,4.704l0.108,3.087l0.055,9.879c0,0 -1.766,0.899 -2.41,3.086c0.156,0.059 0.271,0.111 0.422,0.168c1.181,-1.218 4.134,-2.716 10.837,1.153c0.795,0.458 1.144,0.849 1.481,1.603l1.571,0.328c0.316,-0.909 0.946,-1.814 1.995,-2.19c-0.451,-0.346 -0.941,-0.671 -1.543,-0.865c0,0 -3.456,-3.399 -9.229,-3.623c0,0 -0.445,-4.065 0.689,-11.943c0,0 11.329,-3.471 8.031,-16.107l4.873,0.741c0,0 6.092,2.889 9.152,8.686c3.056,5.797 2.305,6.194 2.305,6.194c0,0 -0.933,5.223 -0.862,10.072c0.071,4.856 -0.024,5.08 -0.024,5.08c0,0 -1.99,0.958 -2.193,3.726c0,0 1.144,-2.031 5.406,-1.532c4.855,0.57 8.574,5.192 8.326,6.636l2.478,0.485l0,-0.001c0.008,-0.072 0.028,-0.129 0.047,-0.232c0.027,-0.145 0.071,-0.303 0.137,-0.502c0.045,-0.146 0.104,-0.276 0.176,-0.44c0.068,-0.149 0.162,-0.298 0.258,-0.457c0.295,-0.517 0.724,-1.045 1.397,-1.542c-0.124,-0.105 -0.223,-0.251 -0.354,-0.341c-1.161,-0.799 -3.264,-2.334 -5.464,-3.679c-0.058,0.066 -0.121,0.141 -0.121,0.141c0.006,-0.069 0.04,-0.116 0.049,-0.183c-2.099,-1.277 -4.278,-2.374 -5.805,-2.469c0,0 -0.687,-1.396 -0.897,-5.369c-0.299,-5.725 1.08,-8.972 1.08,-8.972c0,0 3.25,-0.747 4.662,-3.844l0.263,0.522c4.038,-4.847 3.283,-9.653 3.283,-9.653l1.276,-0.268c0.644,4.534 -0.698,7.797 -2.083,9.886l0.82,-0.348c0,0 -1.671,6.571 -1.049,11.583c0.39,3.097 0.363,5.539 0.503,5.389c0.257,-0.31 -1.744,1.117 -2.053,3.543c0.024,0.014 0.048,0.028 0.072,0.042c0.589,-0.676 4.252,-4.168 12.888,1.964c0.261,0.184 0.574,0.646 0.842,0.846l1.595,0.361c0.051,-0.3 0.211,-0.741 0.453,-1.229c0.022,-0.043 0.041,-0.073 0.065,-0.116c0.274,-0.515 0.699,-1.045 1.347,-1.554c-0.345,-0.22 -0.621,-0.485 -1.049,-0.641c-3.264,-1.198 -5.498,-3.786 -10.347,-3.912c0,0 -1.362,-1.273 -1.389,-5.022c-0.037,-3.749 2.363,-10.245 2.363,-10.245c0,0 3.22,-3.637 4.632,-12.096c0,0 2.897,-4.873 1.6,-11.369c-0.995,-4.975 -2.35,-10.011 -6.296,-12.951c-10.099,-7.519 -3.959,-15.377 -3.959,-15.377c0,0 3.103,-1.056 4.821,-0.808c1.719,0.244 5.484,1.967 5.484,1.967c0,0 6.269,-0.238 4.728,-3.603m-6.918,-1.38c0,0 -2.832,1.725 -2.614,-1.674c0,0 2.587,-1.168 2.614,1.674m-61.431,11.83c-0.707,0.786 -1.478,1.46 -2.339,1.922c-0.115,0.096 -0.213,0.178 -0.332,0.277c0.827,-0.301 1.029,-0.255 1.029,-0.255l0.7,0.659c0,0 -3.091,0.944 -4.904,2.319c-0.272,0.181 -0.479,0.427 -0.653,0.703c-0.076,0.12 -0.129,0.261 -0.19,0.395c-0.079,0.167 -0.161,0.332 -0.221,0.514c-0.075,0.225 -0.138,0.458 -0.193,0.694c-0.019,0.079 -0.041,0.157 -0.059,0.236c-0.101,0.466 -0.193,0.917 -0.295,1.339l0,0.004c3.866,0.687 6.722,0.663 10.56,-1.868c0.657,-1.492 1.732,-3.226 3.534,-4.567c-1.644,0.063 -4.247,-0.529 -6.637,-2.372m57.17,-18.94c0.109,-0.094 0.746,-0.777 1.011,-1.282c0.009,-1.868 -0.527,-5.119 -4.119,-7.119c-5.233,-2.904 -16.754,-5.895 -22.979,3.684c-6.218,9.573 -0.21,20.86 1.905,24.209c0,0 -0.168,0.436 -0.483,1.074c0.294,1.929 1.519,7.252 6.596,12.397c3.551,3.597 6.263,8.875 6.905,14.205c0.18,-1.512 0.321,-3.37 0.236,-5.787c-0.092,-2.567 -1.158,-4.87 -2.394,-7.546c-1.664,-3.602 -3.552,-7.681 -3.763,-13.729c-0.227,-6.462 3.213,-11.559 3.376,-11.807l1.26,-0.149c-0.034,0.054 -3.64,5.895 -3.427,11.909c0.201,5.759 2.028,9.705 3.641,13.183c1.246,2.692 2.421,5.242 2.519,8.088c0.129,3.676 -0.586,6.138 -1.22,7.662c-0.003,0.506 -0.048,1.002 -0.08,1.497c1.399,-2.819 3.087,-7.04 2.95,-10.905c-0.01,-0.312 -0.033,-0.621 -0.071,-0.927c-0.417,-3.568 -1.154,-5.219 -1.874,-6.812c-0.683,-1.517 -1.328,-2.947 -1.613,-5.728c-0.058,-0.584 -0.109,-1.219 -0.133,-1.871c-0.214,-6.021 1.254,-14.188 5.525,-15.93c0.585,-0.109 1.067,-0.295 1.297,-0.452c-0.135,-0.112 -0.311,-0.267 -0.311,-0.267c-1.247,-0.795 -1.97,-1.407 -1.994,-2.171l0,-0.013c-0.017,-0.72 0.574,-1.138 0.927,-1.393l0.73,-0.458c0.299,-0.18 0.784,-0.472 0.89,-0.649c-0.231,-0.465 -0.666,-1.579 -0.7,-2.529c-0.01,-0.299 0.014,-0.575 0.109,-0.812c0.126,-0.34 0.363,-0.574 0.666,-0.673c0.695,-0.213 1.51,0.177 2.295,0.554l0.886,0.367l0.343,0.098c0.35,0.092 0.876,0.248 1.094,0.082m-35.052,89.001c-0.339,0.379 -0.673,0.921 -0.922,1.76l4.057,0.63c0,0 -0.619,-1.508 -2.039,-3.114c-0.003,0 -0.008,0.003 -0.01,0.003c-0.13,0.03 -0.293,0.099 -0.464,0.185c-0.127,0.072 -0.263,0.189 -0.4,0.31c-0.074,0.061 -0.147,0.148 -0.222,0.226m4.074,-5.34c-0.15,0.181 -0.303,0.357 -0.431,0.613l3.543,0.74c0,0 -0.506,-1.194 -1.513,-2.313c-0.001,0 -0.005,0.001 -0.006,0.001c-0.052,0.004 -0.175,0.025 -0.335,0.071c-0.152,0.042 -0.345,0.138 -0.539,0.241c-0.136,0.078 -0.277,0.193 -0.418,0.317c-0.105,0.087 -0.2,0.215 -0.301,0.33m29.488,4.802c-0.175,0.311 -0.331,0.702 -0.465,1.17l3.948,0.773c0,0 -0.73,-1.85 -1.939,-3.307c-0.226,0.052 -0.525,0.21 -0.831,0.475c-0.095,0.077 -0.187,0.183 -0.282,0.287c-0.147,0.172 -0.294,0.351 -0.431,0.602" style="fill:#a72244;fill-rule:nonzero;" />
  <path d="M173.073,175.253c0,0 -0.409,-1.865 -1.932,-3.326c-0.131,0.027 -0.308,0.108 -0.486,0.195c-0.135,0.077 -0.28,0.188 -0.426,0.322c-0.053,0.043 -0.103,0.107 -0.156,0.158c-0.348,0.371 -0.695,0.914 -0.956,1.751c0,0.001 -0.001,0.002 -0.001,0.004l3.957,0.896Zm-2.37,-78.048c-1.312,-2.857 -7.759,-6.832 -9.69,-7.977c-0.252,0.218 -0.55,0.378 -0.773,0.556c-0.679,0.54 -1.552,0.286 -2.116,0.123l-0.288,-0.082l-1.117,-0.444c-0.408,-0.194 -1.046,-0.5 -1.372,-0.497c-0.004,0.041 -0.014,0.082 -0.014,0.147c0.014,0.455 0.252,1.358 0.581,2.007c0.095,0.213 0.153,0.414 0.16,0.598c0.027,0.852 -0.897,1.405 -1.545,1.796l-0.656,0.417c0,0 -0.238,0.204 -0.329,0.285c0.108,0.143 0.418,0.449 1.345,1.036c0.672,0.431 1.015,0.904 1.035,1.409c0.004,0.075 -0.003,0.16 -0.02,0.242c-0.177,1.025 -1.667,1.379 -2.299,1.483c-3.454,1.42 -4.829,8.826 -4.629,14.558c0.024,0.632 0.068,1.25 0.133,1.834c0.261,2.54 0.832,3.81 1.491,5.281c0.726,1.616 1.548,3.449 1.989,7.236c0.044,0.343 0.065,0.696 0.075,1.049c0.248,6.944 -5.314,14.344 -5.539,14.683c2.337,-6.278 -2.267,-15.617 -7.001,-20.537c-4.063,-4.219 -5.887,-8.16 -6.722,-10.737c-1.842,2.485 -4.965,4.916 -9.28,1.952c-7.307,-5.009 4.778,-10.143 0.897,-14.975c0,0 -10.069,-10.507 -25.682,-16.45c-15.611,-5.942 -22.524,-8.163 -26.664,-12.048c0,0 1.48,5.545 2.554,7.678c1.531,3.059 3.888,5.145 7.06,5.956c2.833,0.731 5.233,1.564 6.595,2.063c0.213,0.07 0.385,0.132 0.52,0.187c0.421,0.158 0.671,0.257 0.671,0.257c0,0 -0.191,-0.062 -0.357,-0.114c0.194,0.105 0.224,0.161 0.224,0.161l0.177,0.92c0,0 -2.971,-1.209 -5.182,-1.304c-1.818,-0.189 -4.305,-0.642 -6.073,-1.628c-2.644,-0.075 -5.351,0.159 -7.649,1.125c0,0 6.241,6.925 12.255,7.627c0.325,0.038 0.541,0.064 0.821,0.096c0.386,0.019 0.742,0.051 1.166,0.054c4.54,0.024 4.76,0.465 4.76,0.465l0.354,0.917c0,0 -3.155,-0.632 -5.339,-0.282c-1.044,0.104 -2.326,0.144 -3.592,0.056l-0.011,0c-3.016,0.761 -6.522,2.206 -8.781,5.011c0,0 5.648,4.767 14.284,3.652c0.51,-0.132 0.899,-0.168 1.473,-0.355c4.343,-1.405 4.669,-1.059 4.669,-1.059l0.58,0.767c0,0 -3.185,0.39 -5.175,1.422c-0.534,0.236 -1.144,0.483 -1.787,0.711c-1.69,1.039 -3.303,2.264 -4.04,3.511c0,0 6.88,0.984 9.203,2.139c1.711,0.851 5.095,0.935 7.962,-0.606c0.981,-0.817 1.848,-1.533 2.33,-1.929c-1.31,-1.013 -2.558,-2.386 -3.541,-4.267l-0.649,-1.232l1.29,0.169c0.044,0.004 4.075,0.591 6.775,0.432c-4.041,-1.196 -8.693,-4.405 -9.752,-11.274l-0.116,-0.737l0.679,-0.092c0.316,-0.038 6.805,-1.348 13.091,4.961l-0.034,1.144c-4.67,-4.489 -10.167,-4.767 -12.113,-4.72c1.854,8.87 10.33,10.351 10.69,10.385l0.024,0.717c-2.252,0.831 -6.025,0.913 -7.984,0.743c3.776,5.695 9.641,5.094 9.902,5.063l0.302,0.856c-3.137,1.609 -4.512,6.106 -4.968,7.64c4.928,1.868 8.521,-0.393 8.684,-0.495l2.105,-1.41l-1.185,2.364c-0.581,1.148 -0.734,2.377 -0.696,3.467c0.037,1.046 0.241,1.922 0.417,2.523c0.863,-0.526 2.524,-1.321 5.617,-1.895c3.922,-0.723 3.929,-3.372 3.922,-3.484l0.975,0.289c0,0.037 0.234,3.773 -4.856,4.71c-4.289,0.791 -5.57,1.969 -5.58,1.983l-0.655,0.587l-0.363,-0.835c-0.051,-0.112 -0.757,-1.728 -0.792,-3.817c-0.034,-2.122 0.805,-2.557 1.009,-3.426c-3.076,1.46 -5.671,1.959 -9.658,0.591l-0.526,-0.231l0.132,-0.594c0.018,-0.088 0.134,-0.871 0.49,-1.949c-1.135,1.575 -3.42,4.01 -7.407,5.361l4.765,1.322c3.544,-1.035 3.915,-0.707 3.915,-0.707l0.682,0.869c0,0 -2.999,0.991 -4.59,1.41c-2.047,1.17 -5.052,3.563 -6.663,8.071c0,0 2.107,2.58 6.269,1.005c0.615,-0.723 1.265,-1.409 1.939,-2.066c0.225,-0.219 0.463,-0.417 0.695,-0.625c0.537,-0.481 1.099,-0.924 1.685,-1.337c0.251,-0.176 0.498,-0.355 0.76,-0.517c0.847,-0.525 1.732,-0.996 2.703,-1.333l0.571,0.652c-5.162,2.17 -7.274,4.9 -8.605,7.929c1.943,0.33 2.859,0.228 4.761,-0.254c3.121,-0.781 4.269,-2.608 5.606,-4.71l0.004,0c0.013,-0.024 0.02,-0.034 0.024,-0.058c0,0 0.23,0.136 0.383,0.221c0.415,0.17 -1.779,5.8 -2.659,8.384c2.812,0.289 7.658,0.214 7.662,-6.86l0.72,0.211c-0.011,8.425 -5.207,7.834 -8.073,7.536l-1.707,-0.167l0.217,-0.754c0.417,-1.28 0.937,-2.662 1.48,-4.027c-0.798,0.557 -1.711,1.056 -2.964,1.368c-1.74,0.442 -2.805,0.589 -4.36,0.426c-0.004,-0.001 -0.008,0 -0.012,-0.001c-0.504,-0.053 -1.104,-0.149 -1.759,-0.274c-0.002,0 -0.003,0 -0.006,-0.001c-1.826,3.388 -5.066,7.759 -10.007,8.509c-8.228,1.243 -2.998,-10.309 -3.012,-10.618c0,0 6.503,-7.892 1.528,-11.977c-5.572,-4.574 -10.347,-0.136 -11.695,5.8c0,0 -0.889,3.382 -3.365,3.64c-2.482,0.255 2.187,2.839 5.62,-2.842c3.365,-5.566 6.319,-0.245 4.771,6.455c-1.66,7.179 -2.312,15.947 8.194,12.724c7.403,-2.268 10.632,-8.028 10.632,-8.028c0,0 -2.088,5.689 1.593,13.017c0,0 -0.839,8.435 -0.031,15.257c0,0 -2.346,1.012 -2.642,4.112c0,0 0.856,-1.687 4.388,-1.82c2.564,-0.098 13.719,4.662 12.588,7.742l3.109,0.483c0.008,-0.059 0.026,-0.108 0.04,-0.184c0.028,-0.162 0.08,-0.347 0.157,-0.576c0.041,-0.122 0.092,-0.23 0.15,-0.365c0.089,-0.2 0.212,-0.402 0.352,-0.62c0.105,-0.17 0.199,-0.324 0.34,-0.497c0.278,-0.332 0.617,-0.663 1.06,-0.975c0.002,-0.001 0.002,-0.003 0.004,-0.004c-0.687,-0.623 -1.517,-1.227 -2.523,-1.727c0,0 -1.441,-1.825 -8.833,-4.654c-0.492,0.507 -0.709,0.97 -0.709,0.97c0.026,-0.449 0.178,-0.77 0.287,-1.138c-1.102,-0.414 -2.327,-0.848 -3.696,-1.3c0,0 -1.691,-7.4 -0.479,-13.672c0,0 1.534,-0.187 3.142,-0.895c1.099,-0.635 2.029,-1.352 2.807,-2.14c0.131,-0.184 0.279,-0.352 0.384,-0.561l0.006,0.174c0.142,-0.155 0.327,-0.295 0.458,-0.453c0.086,-0.112 0.167,-0.226 0.248,-0.339c0.278,-0.361 0.503,-0.729 0.733,-1.098c2.285,-3.886 2.26,-7.769 2.26,-7.769l0.112,0.02l0,-0.023l0.954,0.177c0,0.004 -0.001,0.008 -0.002,0.013l0.002,0c-0.016,0.189 -0.063,0.329 -0.082,0.513c-0.126,1.267 -0.303,2.457 -0.564,3.504c-0.134,0.542 -0.328,0.968 -0.49,1.46c-0.183,0.546 -0.339,1.151 -0.551,1.633c-0.861,2.012 -1.928,3.552 -2.995,4.704l0.108,3.087l0.055,9.879c0,0 -1.766,0.899 -2.41,3.086c0.156,0.059 0.271,0.111 0.422,0.168c1.181,-1.218 4.134,-2.716 10.837,1.153c0.795,0.458 1.144,0.849 1.481,1.603l1.571,0.328c0.316,-0.909 0.946,-1.814 1.995,-2.19c-0.451,-0.346 -0.941,-0.671 -1.543,-0.865c0,0 -3.456,-3.399 -9.229,-3.623c0,0 -0.445,-4.065 0.689,-11.943c0,0 11.329,-3.471 8.031,-16.107l4.873,0.741c0,0 6.092,2.889 9.152,8.686c3.056,5.797 2.305,6.194 2.305,6.194c0,0 -0.933,5.223 -0.862,10.072c0.071,4.856 -0.024,5.08 -0.024,5.08c0,0 -1.99,0.958 -2.193,3.726c0,0 1.144,-2.031 5.406,-1.532c4.855,0.57 8.574,5.192 8.326,6.636l2.478,0.485l0,-0.001c0.008,-0.072 0.028,-0.129 0.047,-0.232c0.027,-0.145 0.071,-0.303 0.137,-0.502c0.045,-0.146 0.104,-0.276 0.176,-0.44c0.068,-0.149 0.162,-0.298 0.258,-0.457c0.295,-0.517 0.724,-1.045 1.397,-1.542c-0.124,-0.105 -0.223,-0.251 -0.354,-0.341c-1.161,-0.799 -3.264,-2.334 -5.464,-3.679c-0.058,0.066 -0.121,0.141 -0.121,0.141c0.006,-0.069 0.04,-0.116 0.049,-0.183c-2.099,-1.277 -4.278,-2.374 -5.805,-2.469c0,0 -0.687,-1.396 -0.897,-5.369c-0.299,-5.725 1.08,-8.972 1.08,-8.972c0,0 3.25,-0.747 4.662,-3.844l0.263,0.522c4.038,-4.847 3.283,-9.653 3.283,-9.653l1.276,-0.268c0.644,4.534 -0.698,7.797 -2.083,9.886l0.82,-0.348c0,0 -1.671,6.571 -1.049,11.583c0.39,3.097 0.363,5.539 0.503,5.389c0.257,-0.31 -1.744,1.117 -2.053,3.543c0.024,0.014 0.048,0.028 0.072,0.042c0.589,-0.676 4.252,-4.168 12.888,1.964c0.261,0.184 0.574,0.646 0.842,0.846l1.595,0.361c0.051,-0.3 0.211,-0.741 0.453,-1.229c0.022,-0.043 0.041,-0.073 0.065,-0.116c0.274,-0.515 0.699,-1.045 1.347,-1.554c-0.345,-0.22 -0.621,-0.485 -1.049,-0.641c-3.264,-1.198 -5.498,-3.786 -10.347,-3.912c0,0 -1.362,-1.273 -1.389,-5.022c-0.037,-3.749 2.363,-10.245 2.363,-10.245c0,0 3.22,-3.637 4.632,-12.096c0,0 2.897,-4.873 1.6,-11.369c-0.995,-4.975 -2.35,-10.011 -6.296,-12.951c-10.099,-7.519 -3.959,-15.377 -3.959,-15.377c0,0 3.103,-1.056 4.821,-0.808c1.719,0.244 5.484,1.967 5.484,1.967c0,0 6.269,-0.238 4.728,-3.603Zm-6.918,-1.38c0,0 -2.832,1.725 -2.614,-1.674c0,0 2.587,-1.168 2.614,1.674Zm-61.431,11.83c-0.707,0.786 -1.478,1.46 -2.339,1.922c-0.115,0.096 -0.213,0.178 -0.332,0.277c0.827,-0.301 1.029,-0.255 1.029,-0.255l0.7,0.659c0,0 -3.091,0.944 -4.904,2.319c-0.272,0.181 -0.479,0.427 -0.653,0.703c-0.076,0.12 -0.129,0.261 -0.19,0.395c-0.079,0.167 -0.161,0.332 -0.221,0.514c-0.075,0.225 -0.138,0.458 -0.193,0.694c-0.019,0.079 -0.041,0.157 -0.059,0.236c-0.101,0.466 -0.193,0.917 -0.295,1.339l0,0.004c3.866,0.687 6.722,0.663 10.56,-1.868c0.657,-1.492 1.732,-3.226 3.534,-4.567c-1.644,0.063 -4.247,-0.529 -6.637,-2.372Zm57.17,-18.94c0.109,-0.094 0.746,-0.777 1.011,-1.282c0.009,-1.868 -0.527,-5.119 -4.119,-7.119c-5.233,-2.904 -16.754,-5.895 -22.979,3.684c-6.218,9.573 -0.21,20.86 1.905,24.209c0,0 -0.168,0.436 -0.483,1.074c0.294,1.929 1.519,7.252 6.596,12.397c3.551,3.597 6.263,8.875 6.905,14.205c0.18,-1.512 0.321,-3.37 0.236,-5.787c-0.092,-2.567 -1.158,-4.87 -2.394,-7.546c-1.664,-3.602 -3.552,-7.681 -3.763,-13.729c-0.227,-6.462 3.213,-11.559 3.376,-11.807l1.26,-0.149c-0.034,0.054 -3.64,5.895 -3.427,11.909c0.201,5.759 2.028,9.705 3.641,13.183c1.246,2.692 2.421,5.242 2.519,8.088c0.129,3.676 -0.586,6.138 -1.22,7.662c-0.003,0.506 -0.048,1.002 -0.08,1.497c1.399,-2.819 3.087,-7.04 2.95,-10.905c-0.01,-0.312 -0.033,-0.621 -0.071,-0.927c-0.417,-3.568 -1.154,-5.219 -1.874,-6.812c-0.683,-1.517 -1.328,-2.947 -1.613,-5.728c-0.058,-0.584 -0.109,-1.219 -0.133,-1.871c-0.214,-6.021 1.254,-14.188 5.525,-15.93c0.585,-0.109 1.067,-0.295 1.297,-0.452c-0.135,-0.112 -0.311,-0.267 -0.311,-0.267c-1.247,-0.795 -1.97,-1.407 -1.994,-2.171l0,-0.013c-0.017,-0.72 0.574,-1.138 0.927,-1.393l0.73,-0.458c0.299,-0.18 0.784,-0.472 0.89,-0.649c-0.231,-0.465 -0.666,-1.579 -0.7,-2.529c-0.01,-0.299 0.014,-0.575 0.109,-0.812c0.126,-0.34 0.363,-0.574 0.666,-0.673c0.695,-0.213 1.51,0.177 2.295,0.554l0.886,0.367l0.343,0.098c0.35,0.092 0.876,0.248 1.094,0.082Zm-35.052,89.001c-0.339,0.379 -0.673,0.921 -0.922,1.76l4.057,0.63c0,0 -0.619,-1.508 -2.039,-3.114c-0.003,0 -0.008,0.003 -0.01,0.003c-0.13,0.03 -0.293,0.099 -0.464,0.185c-0.127,0.072 -0.263,0.189 -0.4,0.31c-0.074,0.061 -0.147,0.148 -0.222,0.226Zm4.074,-5.34c-0.15,0.181 -0.303,0.357 -0.431,0.613l3.543,0.74c0,0 -0.506,-1.194 -1.513,-2.313c-0.001,0 -0.005,0.001 -0.006,0.001c-0.052,0.004 -0.175,0.025 -0.335,0.071c-0.152,0.042 -0.345,0.138 -0.539,0.241c-0.136,0.078 -0.277,0.193 -0.418,0.317c-0.105,0.087 -0.2,0.215 -0.301,0.33Zm29.488,4.802c-0.175,0.311 -0.331,0.702 -0.465,1.17l3.948,0.773c0,0 -0.73,-1.85 -1.939,-3.307c-0.226,0.052 -0.525,0.21 -0.831,0.475c-0.095,0.077 -0.187,0.183 -0.282,0.287c-0.147,0.172 -0.294,0.351 -0.431,0.602Z" style="fill:none;fill-rule:nonzero;stroke:#a72244;stroke-width:17.46px;stroke-linecap:round;stroke-linejoin:round;stroke-miterlimit:10;" />
  <path d="M173.297,31.502l2.941,0.241c0,0 4.37,5.546 7.172,7.79c0,0 8.201,-6.999 17.267,-1.908c9.067,5.097 13.706,17.614 14.558,20.412c0.863,2.798 4.486,8.476 4.486,8.476c0,0 -9.094,0.706 -9.824,0.526l-0.727,-0.18c0,0 3.44,-2.812 1.946,-5.521c-1.525,-2.799 -9.597,-3.838 -8.517,3.884c0,0 -10.214,0.561 -16.486,-8.486c-6.279,-9.05 -3.702,-15.773 -3.702,-15.773c0,0 -3.501,-4.102 -6.944,-7.41c-0.805,-0.778 -2.17,-2.051 -2.17,-2.051" style="fill:#a72244;fill-rule:nonzero;stroke:#a72244;stroke-width:17.46px;stroke-linecap:round;stroke-linejoin:round;stroke-miterlimit:10;" />
  <path d="M178.354,62.59c-0.212,-0.853 -0.612,-1.406 -1.19,-1.644c-0.855,-0.353 -1.732,0.168 -1.769,0.191c-0.328,0.384 -0.765,1.837 -1.323,4.097c-0.59,2.429 -1.847,2.784 -2.353,2.826c-0.296,-0.597 -1.079,-2.148 -1.649,-3.044c-0.505,-0.796 -0.441,-2.964 -0.374,-3.731l0.011,-0.12l-0.052,-0.108c-0.356,-0.739 -0.847,-1.197 -1.46,-1.361c-0.931,-0.25 -1.765,0.308 -1.8,0.332l-0.162,0.11l-0.025,0.193c-0.015,0.115 -0.366,2.847 0.217,5.366c0.499,2.172 2.071,4.553 2.56,5.258c-2.184,5.065 -6.721,7.062 -7.951,7.522c-0.464,-0.767 -1.278,-2.177 -1.454,-2.771c-0.175,-0.595 0.023,-3.28 0.19,-4.833l0.013,-0.118l-0.05,-0.109c-0.525,-1.157 -1.17,-1.781 -1.915,-1.855c-1.013,-0.1 -1.732,0.881 -1.763,0.923l-0.073,0.102l-0.008,0.126c0,0.001 -0.249,4.061 -0.366,5.663c-0.116,1.545 1.829,4.752 2.38,5.627l-0.045,0.12l0.211,0.396c0.857,0.572 1.472,1.557 1.687,2.702l0.256,1.365l0.571,-1.266c0.311,-0.69 0.622,-1.381 0.934,-2.071c0.873,-0.367 4.898,-2.141 7.281,-4.597c2.132,-2.207 3.313,-4.378 4.018,-5.675c0.155,-0.286 0.284,-0.523 0.391,-0.698c0.167,-0.273 0.654,-0.55 1.169,-0.844c0.942,-0.536 2.113,-1.203 2.618,-2.486c0.745,-1.895 1.261,-5.275 1.283,-5.418l0.013,-0.086l-0.021,-0.084Z" style="fill:#fff;fill-rule:nonzero;stroke:#a72244;stroke-width:0.87px;" />
  <path d="M173.073,175.253c0,0 -0.409,-1.865 -1.932,-3.326c-0.131,0.027 -0.308,0.108 -0.486,0.195c-0.135,0.077 -0.28,0.188 -0.426,0.322c-0.053,0.043 -0.103,0.107 -0.156,0.158c-0.348,0.371 -0.695,0.914 -0.956,1.751c0,0.001 -0.001,0.002 -0.001,0.004l3.957,0.896Zm-2.37,-78.048c-1.312,-2.857 -7.759,-6.832 -9.69,-7.977c-0.252,0.218 -0.55,0.378 -0.773,0.556c-0.679,0.54 -1.552,0.286 -2.116,0.123l-0.288,-0.082l-1.117,-0.444c-0.408,-0.194 -1.046,-0.5 -1.372,-0.497c-0.004,0.041 -0.014,0.082 -0.014,0.147c0.014,0.455 0.252,1.358 0.581,2.007c0.095,0.213 0.153,0.414 0.16,0.598c0.027,0.852 -0.897,1.405 -1.545,1.796l-0.656,0.417c0,0 -0.238,0.204 -0.329,0.285c0.108,0.143 0.418,0.449 1.345,1.036c0.672,0.431 1.015,0.904 1.035,1.409c0.004,0.075 -0.003,0.16 -0.02,0.242c-0.177,1.025 -1.667,1.379 -2.299,1.483c-3.454,1.42 -4.829,8.826 -4.629,14.558c0.024,0.632 0.068,1.25 0.133,1.834c0.261,2.54 0.832,3.81 1.491,5.281c0.726,1.616 1.548,3.449 1.989,7.236c0.044,0.343 0.065,0.696 0.075,1.049c0.248,6.944 -5.314,14.344 -5.539,14.683c2.337,-6.278 -2.267,-15.617 -7.001,-20.537c-4.063,-4.219 -5.887,-8.16 -6.722,-10.737c-1.842,2.485 -4.965,4.916 -9.28,1.952c-7.307,-5.009 4.778,-10.143 0.897,-14.975c0,0 -10.069,-10.507 -25.682,-16.45c-15.611,-5.942 -22.524,-8.163 -26.664,-12.048c0,0 1.48,5.545 2.554,7.678c1.531,3.059 3.888,5.145 7.06,5.956c2.833,0.731 5.233,1.564 6.595,2.063c0.213,0.07 0.385,0.132 0.52,0.187c0.421,0.158 0.671,0.257 0.671,0.257c0,0 -0.191,-0.062 -0.357,-0.114c0.194,0.105 0.224,0.161 0.224,0.161l0.177,0.92c0,0 -2.971,-1.209 -5.182,-1.304c-1.818,-0.189 -4.305,-0.642 -6.073,-1.628c-2.644,-0.075 -5.351,0.159 -7.649,1.125c0,0 6.241,6.925 12.255,7.627c0.325,0.038 0.541,0.064 0.821,0.096c0.386,0.019 0.742,0.051 1.166,0.054c4.54,0.024 4.76,0.465 4.76,0.465l0.354,0.917c0,0 -3.155,-0.632 -5.339,-0.282c-1.044,0.104 -2.326,0.144 -3.592,0.056l-0.011,0c-3.016,0.761 -6.522,2.206 -8.781,5.011c0,0 5.648,4.767 14.284,3.652c0.51,-0.132 0.899,-0.168 1.473,-0.355c4.343,-1.405 4.669,-1.059 4.669,-1.059l0.58,0.767c0,0 -3.185,0.39 -5.175,1.422c-0.534,0.236 -1.144,0.483 -1.787,0.711c-1.69,1.039 -3.303,2.264 -4.04,3.511c0,0 6.88,0.984 9.203,2.139c1.711,0.851 5.095,0.935 7.962,-0.606c0.981,-0.817 1.848,-1.533 2.33,-1.929c-1.31,-1.013 -2.558,-2.386 -3.541,-4.267l-0.649,-1.232l1.29,0.169c0.044,0.004 4.075,0.591 6.775,0.432c-4.041,-1.196 -8.693,-4.405 -9.752,-11.274l-0.116,-0.737l0.679,-0.092c0.316,-0.038 6.805,-1.348 13.091,4.961l-0.034,1.144c-4.67,-4.489 -10.167,-4.767 -12.113,-4.72c1.854,8.87 10.33,10.351 10.69,10.385l0.024,0.717c-2.252,0.831 -6.025,0.913 -7.984,0.743c3.776,5.695 9.641,5.094 9.902,5.063l0.302,0.856c-3.137,1.609 -4.512,6.106 -4.968,7.64c4.928,1.868 8.521,-0.393 8.684,-0.495l2.105,-1.41l-1.185,2.364c-0.581,1.148 -0.734,2.377 -0.696,3.467c0.037,1.046 0.241,1.922 0.417,2.523c0.863,-0.526 2.524,-1.321 5.617,-1.895c3.922,-0.723 3.929,-3.372 3.922,-3.484l0.975,0.289c0,0.037 0.234,3.773 -4.856,4.71c-4.289,0.791 -5.57,1.969 -5.58,1.983l-0.655,0.587l-0.363,-0.835c-0.051,-0.112 -0.757,-1.728 -0.792,-3.817c-0.034,-2.122 0.805,-2.557 1.009,-3.426c-3.076,1.46 -5.671,1.959 -9.658,0.591l-0.526,-0.231l0.132,-0.594c0.018,-0.088 0.134,-0.871 0.49,-1.949c-1.135,1.575 -3.42,4.01 -7.407,5.361l4.765,1.322c3.544,-1.035 3.915,-0.707 3.915,-0.707l0.682,0.869c0,0 -2.999,0.991 -4.59,1.41c-2.047,1.17 -5.052,3.563 -6.663,8.071c0,0 2.107,2.58 6.269,1.005c0.615,-0.723 1.265,-1.409 1.939,-2.066c0.225,-0.219 0.463,-0.417 0.695,-0.625c0.537,-0.481 1.099,-0.924 1.685,-1.337c0.251,-0.176 0.498,-0.355 0.76,-0.517c0.847,-0.525 1.732,-0.996 2.703,-1.333l0.571,0.652c-5.162,2.17 -7.274,4.9 -8.605,7.929c1.943,0.33 2.859,0.228 4.761,-0.254c3.121,-0.781 4.269,-2.608 5.606,-4.71l0.004,0c0.013,-0.024 0.02,-0.034 0.024,-0.058c0,0 0.23,0.136 0.383,0.221c0.415,0.17 -1.779,5.8 -2.659,8.384c2.812,0.289 7.658,0.214 7.662,-6.86l0.72,0.211c-0.011,8.425 -5.207,7.834 -8.073,7.536l-1.707,-0.167l0.217,-0.754c0.417,-1.28 0.937,-2.662 1.48,-4.027c-0.798,0.557 -1.711,1.056 -2.964,1.368c-1.74,0.442 -2.805,0.589 -4.36,0.426c-0.004,-0.001 -0.008,0 -0.012,-0.001c-0.504,-0.053 -1.104,-0.149 -1.759,-0.274c-0.002,0 -0.003,0 -0.006,-0.001c-1.826,3.388 -5.066,7.759 -10.007,8.509c-8.228,1.243 -2.998,-10.309 -3.012,-10.618c0,0 6.503,-7.892 1.528,-11.977c-5.572,-4.574 -10.347,-0.136 -11.695,5.8c0,0 -0.889,3.382 -3.365,3.64c-2.482,0.255 2.187,2.839 5.62,-2.842c3.365,-5.566 6.319,-0.245 4.771,6.455c-1.66,7.179 -2.312,15.947 8.194,12.724c7.403,-2.268 10.632,-8.028 10.632,-8.028c0,0 -2.088,5.689 1.593,13.017c0,0 -0.839,8.435 -0.031,15.257c0,0 -2.346,1.012 -2.642,4.112c0,0 0.856,-1.687 4.388,-1.82c2.564,-0.098 13.719,4.662 12.588,7.742l3.109,0.483c0.008,-0.059 0.026,-0.108 0.04,-0.184c0.028,-0.162 0.08,-0.347 0.157,-0.576c0.041,-0.122 0.092,-0.23 0.15,-0.365c0.089,-0.2 0.212,-0.402 0.352,-0.62c0.105,-0.17 0.199,-0.324 0.34,-0.497c0.278,-0.332 0.617,-0.663 1.06,-0.975c0.002,-0.001 0.002,-0.003 0.004,-0.004c-0.687,-0.623 -1.517,-1.227 -2.523,-1.727c0,0 -1.441,-1.825 -8.833,-4.654c-0.492,0.507 -0.709,0.97 -0.709,0.97c0.026,-0.449 0.178,-0.77 0.287,-1.138c-1.102,-0.414 -2.327,-0.848 -3.696,-1.3c0,0 -1.691,-7.4 -0.479,-13.672c0,0 1.534,-0.187 3.142,-0.895c1.099,-0.635 2.029,-1.352 2.807,-2.14c0.131,-0.184 0.279,-0.352 0.384,-0.561l0.006,0.174c0.142,-0.155 0.327,-0.295 0.458,-0.453c0.086,-0.112 0.167,-0.226 0.248,-0.339c0.278,-0.361 0.503,-0.729 0.733,-1.098c2.285,-3.886 2.26,-7.769 2.26,-7.769l0.112,0.02l0,-0.023l0.954,0.177c0,0.004 -0.001,0.008 -0.002,0.013l0.002,0c-0.016,0.189 -0.063,0.329 -0.082,0.513c-0.126,1.267 -0.303,2.457 -0.564,3.504c-0.134,0.542 -0.328,0.968 -0.49,1.46c-0.183,0.546 -0.339,1.151 -0.551,1.633c-0.861,2.012 -1.928,3.552 -2.995,4.704l0.108,3.087l0.055,9.879c0,0 -1.766,0.899 -2.41,3.086c0.156,0.059 0.271,0.111 0.422,0.168c1.181,-1.218 4.134,-2.716 10.837,1.153c0.795,0.458 1.144,0.849 1.481,1.603l1.571,0.328c0.316,-0.909 0.946,-1.814 1.995,-2.19c-0.451,-0.346 -0.941,-0.671 -1.543,-0.865c0,0 -3.456,-3.399 -9.229,-3.623c0,0 -0.445,-4.065 0.689,-11.943c0,0 11.329,-3.471 8.031,-16.107l4.873,0.741c0,0 6.092,2.889 9.152,8.686c3.056,5.797 2.305,6.194 2.305,6.194c0,0 -0.933,5.223 -0.862,10.072c0.071,4.856 -0.024,5.08 -0.024,5.08c0,0 -1.99,0.958 -2.193,3.726c0,0 1.144,-2.031 5.406,-1.532c4.855,0.57 8.574,5.192 8.326,6.636l2.478,0.485l0,-0.001c0.008,-0.072 0.028,-0.129 0.047,-0.232c0.027,-0.145 0.071,-0.303 0.137,-0.502c0.045,-0.146 0.104,-0.276 0.176,-0.44c0.068,-0.149 0.162,-0.298 0.258,-0.457c0.295,-0.517 0.724,-1.045 1.397,-1.542c-0.124,-0.105 -0.223,-0.251 -0.354,-0.341c-1.161,-0.799 -3.264,-2.334 -5.464,-3.679c-0.058,0.066 -0.121,0.141 -0.121,0.141c0.006,-0.069 0.04,-0.116 0.049,-0.183c-2.099,-1.277 -4.278,-2.374 -5.805,-2.469c0,0 -0.687,-1.396 -0.897,-5.369c-0.299,-5.725 1.08,-8.972 1.08,-8.972c0,0 3.25,-0.747 4.662,-3.844l0.263,0.522c4.038,-4.847 3.283,-9.653 3.283,-9.653l1.276,-0.268c0.644,4.534 -0.698,7.797 -2.083,9.886l0.82,-0.348c0,0 -1.671,6.571 -1.049,11.583c0.39,3.097 0.363,5.539 0.503,5.389c0.257,-0.31 -1.744,1.117 -2.053,3.543c0.024,0.014 0.048,0.028 0.072,0.042c0.589,-0.676 4.252,-4.168 12.888,1.964c0.261,0.184 0.574,0.646 0.842,0.846l1.595,0.361c0.051,-0.3 0.211,-0.741 0.453,-1.229c0.022,-0.043 0.041,-0.073 0.065,-0.116c0.274,-0.515 0.699,-1.045 1.347,-1.554c-0.345,-0.22 -0.621,-0.485 -1.049,-0.641c-3.264,-1.198 -5.498,-3.786 -10.347,-3.912c0,0 -1.362,-1.273 -1.389,-5.022c-0.037,-3.749 2.363,-10.245 2.363,-10.245c0,0 3.22,-3.637 4.632,-12.096c0,0 2.897,-4.873 1.6,-11.369c-0.995,-4.975 -2.35,-10.011 -6.296,-12.951c-10.099,-7.519 -3.959,-15.377 -3.959,-15.377c0,0 3.103,-1.056 4.821,-0.808c1.719,0.244 5.484,1.967 5.484,1.967c0,0 6.269,-0.238 4.728,-3.603m-6.918,-1.38c0,0 -2.832,1.725 -2.614,-1.674c0,0 2.587,-1.168 2.614,1.674m-61.431,11.83c-0.707,0.786 -1.478,1.46 -2.339,1.922c-0.115,0.096 -0.213,0.178 -0.332,0.277c0.827,-0.301 1.029,-0.255 1.029,-0.255l0.7,0.659c0,0 -3.091,0.944 -4.904,2.319c-0.272,0.181 -0.479,0.427 -0.653,0.703c-0.076,0.12 -0.129,0.261 -0.19,0.395c-0.079,0.167 -0.161,0.332 -0.221,0.514c-0.075,0.225 -0.138,0.458 -0.193,0.694c-0.019,0.079 -0.041,0.157 -0.059,0.236c-0.101,0.466 -0.193,0.917 -0.295,1.339l0,0.004c3.866,0.687 6.722,0.663 10.56,-1.868c0.657,-1.492 1.732,-3.226 3.534,-4.567c-1.644,0.063 -4.247,-0.529 -6.637,-2.372m57.17,-18.94c0.109,-0.094 0.746,-0.777 1.011,-1.282c0.009,-1.868 -0.527,-5.119 -4.119,-7.119c-5.233,-2.904 -16.754,-5.895 -22.979,3.684c-6.218,9.573 -0.21,20.86 1.905,24.209c0,0 -0.168,0.436 -0.483,1.074c0.294,1.929 1.519,7.252 6.596,12.397c3.551,3.597 6.263,8.875 6.905,14.205c0.18,-1.512 0.321,-3.37 0.236,-5.787c-0.092,-2.567 -1.158,-4.87 -2.394,-7.546c-1.664,-3.602 -3.552,-7.681 -3.763,-13.729c-0.227,-6.462 3.213,-11.559 3.376,-11.807l1.26,-0.149c-0.034,0.054 -3.64,5.895 -3.427,11.909c0.201,5.759 2.028,9.705 3.641,13.183c1.246,2.692 2.421,5.242 2.519,8.088c0.129,3.676 -0.586,6.138 -1.22,7.662c-0.003,0.506 -0.048,1.002 -0.08,1.497c1.399,-2.819 3.087,-7.04 2.95,-10.905c-0.01,-0.312 -0.033,-0.621 -0.071,-0.927c-0.417,-3.568 -1.154,-5.219 -1.874,-6.812c-0.683,-1.517 -1.328,-2.947 -1.613,-5.728c-0.058,-0.584 -0.109,-1.219 -0.133,-1.871c-0.214,-6.021 1.254,-14.188 5.525,-15.93c0.585,-0.109 1.067,-0.295 1.297,-0.452c-0.135,-0.112 -0.311,-0.267 -0.311,-0.267c-1.247,-0.795 -1.97,-1.407 -1.994,-2.171l0,-0.013c-0.017,-0.72 0.574,-1.138 0.927,-1.393l0.73,-0.458c0.299,-0.18 0.784,-0.472 0.89,-0.649c-0.231,-0.465 -0.666,-1.579 -0.7,-2.529c-0.01,-0.299 0.014,-0.575 0.109,-0.812c0.126,-0.34 0.363,-0.574 0.666,-0.673c0.695,-0.213 1.51,0.177 2.295,0.554l0.886,0.367l0.343,0.098c0.35,0.092 0.876,0.248 1.094,0.082m-35.052,89.001c-0.339,0.379 -0.673,0.921 -0.922,1.76l4.057,0.63c0,0 -0.619,-1.508 -2.039,-3.114c-0.003,0 -0.008,0.003 -0.01,0.003c-0.13,0.03 -0.293,0.099 -0.464,0.185c-0.127,0.072 -0.263,0.189 -0.4,0.31c-0.074,0.061 -0.147,0.148 -0.222,0.226m4.074,-5.34c-0.15,0.181 -0.303,0.357 -0.431,0.613l3.543,0.74c0,0 -0.506,-1.194 -1.513,-2.313c-0.001,0 -0.005,0.001 -0.006,0.001c-0.052,0.004 -0.175,0.025 -0.335,0.071c-0.152,0.042 -0.345,0.138 -0.539,0.241c-0.136,0.078 -0.277,0.193 -0.418,0.317c-0.105,0.087 -0.2,0.215 -0.301,0.33m29.488,4.802c-0.175,0.311 -0.331,0.702 -0.465,1.17l3.948,0.773c0,0 -0.73,-1.85 -1.939,-3.307c-0.226,0.052 -0.525,0.21 -0.831,0.475c-0.095,0.077 -0.187,0.183 -0.282,0.287c-0.147,0.172 -0.294,0.351 -0.431,0.602" style="fill:#fff;fill-rule:nonzero;" />
  <path d="M173.297,31.502l2.941,0.241c0,0 4.37,5.546 7.172,7.79c0,0 8.201,-6.999 17.267,-1.908c9.067,5.097 13.706,17.614 14.558,20.412c0.863,2.798 4.486,8.476 4.486,8.476c0,0 -9.094,0.706 -9.824,0.526l-0.727,-0.18c0,0 3.44,-2.812 1.946,-5.521c-1.525,-2.799 -9.597,-3.838 -8.517,3.884c0,0 -10.214,0.561 -16.486,-8.486c-6.279,-9.05 -3.702,-15.773 -3.702,-15.773c0,0 -3.501,-4.102 -6.944,-7.41c-0.805,-0.778 -2.17,-2.051 -2.17,-2.051" style="fill:#fff;fill-rule:nonzero;" />
  <path d="M200.13,40.691c-2.34,0.726 -4.292,1.394 -6.44,2.678c-1.071,0.636 -2.061,1.08 -3.302,1.112c0.641,0.407 0.645,1.079 0.704,1.809c0.202,2.263 -1.22,5.967 -0.467,9.424m16.562,-9.249c-1.611,-0.046 -3.389,0.071 -4.944,0.479c-0.963,0.247 -3.961,-0.014 -4.958,-0.243c1.38,0.883 1.328,4.13 1.011,5.256c-0.604,2.195 -0.697,5.924 -0.053,8.044m12.765,-7.558c-1.297,0 -2.381,0.229 -3.626,-0.211c-0.61,-0.215 -2.127,-0.34 -2.737,-0.601c0.882,1.663 1.039,7.905 1.343,9.628m-22.266,-20.561c3.259,3.379 5.418,3.196 8.27,4.048c2.479,0.732 4.121,1.662 7.96,3.246c7.782,3.214 7.859,9.857 13.176,13.757" style="fill:none;fill-rule:nonzero;stroke:#a72244;stroke-width:0.87px;stroke-linecap:round;" />
  <path d="M151.655,85.103c0.022,0.062 0.21,0.628 -0.124,1.256c-0.311,0.585 -0.954,1.005 -1.911,1.247c-0.145,0.037 -0.298,-0.003 -0.407,-0.105c-2.056,-1.938 -4.113,-3.875 -6.169,-5.812c-2.625,0.616 -5.25,1.232 -7.874,1.848c-0.88,-0.171 -2.063,-0.996 -1.725,-2.902c0.031,-0.174 0.163,-0.312 0.335,-0.35c2.006,-0.448 4.011,-0.895 6.017,-1.342c-2.057,-1.717 -4.113,-3.434 -6.17,-5.151c-2.324,0.668 -3.947,1.16 -5.134,1.519c-2.794,0.846 -3.224,0.976 -4.628,0.946c-1.543,-0.037 -5.166,-0.526 -5.32,-0.547c-0.12,-0.016 -0.227,-0.081 -0.297,-0.18c-0.07,-0.099 -0.096,-0.222 -0.072,-0.341c0.015,-0.07 0.352,-1.679 1.07,-2.782c0.673,0.023 4.153,0.132 5.701,-0.003c1.503,-0.127 4.251,-0.98 5.495,-1.387c-1.085,-1.23 -3.806,-4.723 -6.33,-11.261c-0.043,-0.111 -0.038,-0.236 0.013,-0.344c0.066,-0.139 0.672,-1.359 1.666,-1.371c0.648,-0.008 1.231,0.494 1.733,1.491c0.014,0.02 3.108,5.09 4.507,7.19c0.492,0.75 3.59,3.806 4.742,4.921c1.16,0.942 2.32,1.884 3.481,2.826c0.474,-1.057 1.583,-3.572 2.473,-5.901c0.338,-0.889 0.927,-1.081 1.247,-1.115c0.732,-0.08 1.425,0.44 1.786,0.991c0.348,0.53 0.41,1.103 0.165,1.531c-0.84,2.419 -1.679,4.838 -2.519,7.257c2.713,2.567 5.425,5.134 8.138,7.702c0.05,0.047 0.088,0.105 0.111,0.169" style="fill:#fff;fill-rule:nonzero;" />
  <path d="M151.655,85.103c0.022,0.062 0.21,0.628 -0.124,1.256c-0.311,0.585 -0.954,1.005 -1.911,1.247c-0.145,0.037 -0.298,-0.003 -0.407,-0.105c-2.056,-1.938 -4.113,-3.875 -6.169,-5.812c-2.625,0.616 -5.25,1.232 -7.874,1.848c-0.88,-0.171 -2.063,-0.996 -1.725,-2.902c0.031,-0.174 0.163,-0.312 0.335,-0.35c2.006,-0.448 4.011,-0.895 6.017,-1.342c-2.057,-1.717 -4.113,-3.434 -6.17,-5.151c-2.324,0.668 -3.947,1.16 -5.134,1.519c-2.794,0.846 -3.224,0.976 -4.628,0.946c-1.543,-0.037 -5.166,-0.526 -5.32,-0.547c-0.12,-0.016 -0.227,-0.081 -0.297,-0.18c-0.07,-0.099 -0.096,-0.222 -0.072,-0.341c0.015,-0.07 0.352,-1.679 1.07,-2.782c0.673,0.023 4.153,0.132 5.701,-0.003c1.503,-0.127 4.251,-0.98 5.495,-1.387c-1.085,-1.23 -3.806,-4.723 -6.33,-11.261c-0.043,-0.111 -0.038,-0.236 0.013,-0.344c0.066,-0.139 0.672,-1.359 1.666,-1.371c0.648,-0.008 1.231,0.494 1.733,1.491c0.014,0.02 3.108,5.09 4.507,7.19c0.492,0.75 3.59,3.806 4.742,4.921c1.16,0.942 2.32,1.884 3.481,2.826c0.474,-1.057 1.583,-3.572 2.473,-5.901c0.338,-0.889 0.927,-1.081 1.247,-1.115c0.732,-0.08 1.425,0.44 1.786,0.991c0.348,0.53 0.41,1.103 0.165,1.531c-0.84,2.419 -1.679,4.838 -2.519,7.257c2.713,2.567 5.425,5.134 8.138,7.702c0.05,0.047 0.088,0.105 0.111,0.169Z" style="fill:none;fill-rule:nonzero;stroke:#a72244;stroke-width:0.87px;stroke-linejoin:round;stroke-miterlimit:10;" />
</svg>
