<?xml version="1.0" encoding="UTF-8" standalone="no"?>
<svg width="100%" height="100%" viewBox="0 0 307 224" version="1.1" xmlns="http://www.w3.org/2000/svg" xmlns:xlink="http://www.w3.org/1999/xlink" xml:space="preserve" xmlns:serif="http://www.serif.com/" style="fill-rule:evenodd;clip-rule:evenodd;stroke-linecap:round;stroke-linejoin:round;stroke-miterlimit:10;">
  <path d="M304.838,90.309c2.596,-4.881 2.804,-12.047 -3.742,-15.578c-5.166,-2.787 -12.416,-1.795 -20.541,2.615c-3.875,1.49 -6.446,3.201 -10.083,6.908c-0.727,0.598 -1.459,1.227 -2.191,1.871c13.993,-26.654 15.894,-49.177 5.673,-59.63c-8.125,-8.313 -18.8,-4.913 -25.015,1.089c-5.797,5.6 -7.122,15.209 -0.918,21.536c6.067,6.187 15.773,4.902 17.299,-3.268c1.064,-5.709 -5.093,-8.336 -8.03,-4.451c-1.412,1.867 -5.665,-1.803 -3.739,-5.971c2.641,-5.713 14.554,-12.051 20.808,0.338c5.595,11.082 -2.054,31.902 -13.166,47.098c-12.72,-47.711 -56.211,-82.866 -107.929,-82.866c-51.719,0 -95.21,35.155 -107.929,82.866c-11.113,-15.196 -18.762,-36.016 -13.166,-47.098c6.254,-12.389 18.167,-6.051 20.808,-0.338c1.926,4.168 -2.327,7.838 -3.739,5.971c-2.938,-3.885 -9.094,-1.258 -8.031,4.451c1.526,8.17 11.232,9.455 17.3,3.268c6.204,-6.327 4.879,-15.936 -0.918,-21.536c-6.215,-6.002 -16.89,-9.402 -25.015,-1.089c-10.222,10.453 -8.32,32.976 5.673,59.63c-0.733,-0.644 -1.464,-1.273 -2.192,-1.871c-3.637,-3.707 -6.208,-5.418 -10.083,-6.908c-8.124,-4.41 -15.375,-5.402 -20.541,-2.615c-6.546,3.531 -6.337,10.697 -3.742,15.578c2.422,4.553 8.1,7.064 13.085,4.363c4.875,-2.64 5.797,-8.838 1.04,-11.217c-3.323,-1.66 -6.025,1.663 -4.154,4.155c0.9,1.197 -2.107,3.166 -4.331,1.246c-3.048,-2.631 -4.845,-11.076 3.878,-12.738c3.412,-0.651 7.524,0.591 11.689,2.984c10.151,8.012 15.925,18.316 17.466,32.607c-1.678,15.561 -8.381,26.389 -20.279,34.682c-3.177,1.418 -6.237,2.049 -8.876,1.547c-8.723,-1.662 -6.926,-10.108 -3.878,-12.74c2.224,-1.92 5.231,0.049 4.331,1.248c-1.871,2.492 0.831,5.814 4.154,4.154c4.757,-2.381 3.835,-8.576 -1.04,-11.217c-4.985,-2.701 -10.663,-0.191 -13.085,4.364c-2.595,4.88 -2.804,12.044 3.742,15.576c7.546,4.074 19.536,0.072 32.208,-10.869c-13.443,26.148 -15.138,48.171 -5.065,58.47c8.125,8.315 18.8,4.914 25.015,-1.088c5.797,-5.599 7.122,-15.211 0.918,-21.537c-6.068,-6.185 -15.774,-4.902 -17.3,3.27c-1.063,5.707 5.093,8.336 8.031,4.451c1.412,-1.869 5.665,1.801 3.739,5.969c-2.641,5.713 -14.554,12.052 -20.808,-0.338c-5.596,-11.082 2.053,-31.903 13.166,-47.096c12.719,47.711 56.21,82.863 107.929,82.863c51.718,0 95.209,-35.152 107.929,-82.863c11.112,15.193 18.761,36.014 13.166,47.096c-6.254,12.39 -18.167,6.051 -20.808,0.338c-1.926,-4.168 2.327,-7.838 3.739,-5.969c2.937,3.885 9.094,1.256 8.03,-4.451c-1.526,-8.172 -11.232,-9.455 -17.299,-3.27c-6.204,6.326 -4.879,15.938 0.918,21.537c6.215,6.002 16.89,9.403 25.015,1.088c10.072,-10.299 8.377,-32.322 -5.066,-58.47c12.673,10.941 24.663,14.943 32.208,10.869c6.546,-3.532 6.338,-10.696 3.742,-15.576c-2.422,-4.555 -8.099,-7.065 -13.084,-4.364c-4.876,2.641 -5.798,8.836 -1.041,11.217c3.323,1.66 6.026,-1.662 4.154,-4.154c-0.9,-1.199 2.108,-3.168 4.331,-1.248c3.049,2.632 4.846,11.078 -3.877,12.74c-2.64,0.502 -5.699,-0.129 -8.877,-1.547c-11.898,-8.293 -18.601,-19.121 -20.279,-34.682c1.541,-14.291 7.316,-24.595 17.466,-32.607c4.165,-2.393 8.277,-3.635 11.69,-2.984c8.723,1.662 6.926,10.107 3.877,12.738c-2.223,1.92 -5.231,-0.049 -4.331,-1.246c1.872,-2.492 -0.831,-5.815 -4.154,-4.155c-4.757,2.379 -3.835,8.577 1.041,11.217c4.985,2.701 10.662,0.19 13.084,-4.363" style="fill:#60995c;fill-rule:nonzero;" />
  <path d="M252.134,111.71c0,-54.606 -44.269,-98.872 -98.873,-98.872c-54.602,0 -98.868,44.266 -98.868,98.872c0,54.604 44.266,98.87 98.868,98.87c54.604,0 98.873,-44.266 98.873,-98.87m-7.167,0c0,50.644 -41.056,91.703 -91.706,91.703c-50.648,0 -91.707,-41.059 -91.707,-91.703c0,-50.649 41.059,-91.705 91.707,-91.705c50.65,0 91.706,41.056 91.706,91.705m-10.368,-19.954c-1.422,-4.551 -4.094,-5.853 -7.66,-4.762c-4.1,1.519 -9.108,3.305 -14.57,5.214c3.567,10.62 4.419,22.303 1.737,34.03c-0.789,3.434 -1.899,6.697 -3.191,9.85c5.205,2.129 9.983,4.084 13.944,5.698c2.697,0.775 7.488,0.347 8.894,-5.844c0.487,-1.613 0.926,-3.254 1.304,-4.918c3.067,-13.411 2.695,-26.785 -0.458,-39.268m-3.785,32.5c-0.691,3.032 -1.677,5.906 -2.809,8.697c-3.391,-1.743 -4.724,-2.467 -5.866,-3.43c0.951,-2.321 1.772,-4.729 2.354,-7.263c1.969,-8.637 1.345,-17.254 -1.285,-25.08c1.88,-1.272 2.904,-2.171 5.946,-3.394c3.263,9.497 4.059,19.965 1.66,30.47m-8.615,-60.764c-0.951,-1.386 -1.956,-2.75 -3.019,-4.088c-8.586,-10.757 -19.268,-18.801 -30.994,-24.128c-4.44,-1.724 -7.125,-0.446 -8.5,3.026c-1.361,4.151 -3.095,9.177 -5.016,14.639c10.542,3.835 20.197,10.455 27.692,19.862c2.201,2.752 4.059,5.659 5.719,8.634c4.909,-2.74 9.417,-5.256 13.145,-7.346c2.284,-1.625 4.937,-5.64 0.973,-10.599m-5.335,2.837c-3.47,1.562 -4.87,2.157 -6.333,2.448c-1.222,-2.193 -2.589,-4.336 -4.209,-6.366c-5.526,-6.931 -12.658,-11.811 -20.417,-14.639c0.185,-2.263 0.112,-3.625 1.066,-6.765c9.451,3.371 18.136,9.275 24.854,17.7c1.935,2.43 3.57,4.996 5.039,7.622m-44.784,-7.226c-3.181,8.933 -6.652,18.461 -9.756,26.914c4.498,1.667 8.627,4.506 11.83,8.531c0.945,1.188 1.747,2.448 2.469,3.734c7.877,-4.388 16.729,-9.325 25.001,-13.941c-1.476,-2.642 -3.115,-5.217 -5.062,-7.66c-6.635,-8.316 -15.174,-14.174 -24.482,-17.578m-8.506,-9.528c0.919,-5.547 1.756,-10.639 2.453,-14.854c0.155,-2.805 -1.33,-7.386 -7.68,-7.375c-1.679,-0.115 -3.368,-0.175 -5.086,-0.175c-13.759,0 -26.709,3.337 -38.181,9.19c-4.119,2.395 -4.79,5.287 -2.933,8.527c2.399,3.657 5.246,8.141 8.329,13.045c9.556,-5.843 20.756,-9.275 32.785,-9.275c3.524,0 6.95,0.359 10.313,0.917m-5.745,-16.085c-0.951,3.69 -1.355,5.155 -2.039,6.485c-2.479,-0.414 -5.001,-0.681 -7.603,-0.681c-8.869,0 -17.118,2.531 -24.167,6.838c-1.658,-1.551 -2.765,-2.349 -4.629,-5.048c8.529,-5.291 18.556,-8.4 29.33,-8.4c3.105,0 6.139,0.321 9.108,0.806m-46.906,31.019c-3.764,-4.173 -7.219,-8.005 -10.084,-11.178c-2.097,-1.869 -6.598,-3.566 -10.549,1.406c-1.142,1.241 -2.246,2.525 -3.315,3.863c-8.583,10.754 -14.045,22.968 -16.621,35.58c-0.697,4.721 1.154,7.046 4.835,7.616c4.358,0.404 9.639,0.97 15.396,1.624c1.39,-11.12 5.692,-22.015 13.19,-31.42c2.201,-2.75 4.619,-5.203 7.148,-7.491m-11.777,0.3c-1.861,1.687 -3.649,3.494 -5.268,5.522c-5.526,6.935 -8.697,14.966 -9.721,23.165c-2.247,0.331 -3.557,0.694 -6.834,0.474c1.177,-9.969 5.001,-19.748 11.72,-28.175c1.943,-2.432 4.078,-4.594 6.308,-6.614c2.3,3.041 3.191,4.273 3.795,5.628m-29.88,60.216c0.26,1.66 0.572,3.33 0.954,4.994c3.06,13.418 9.203,25.301 17.461,35.187c3.248,3.477 6.213,3.493 8.965,0.964c3.031,-3.151 6.763,-6.934 10.866,-11.023c-7.825,-8.024 -13.66,-18.18 -16.338,-29.906c-0.783,-3.434 -1.193,-6.855 -1.4,-10.261c-5.611,0.339 -10.768,0.657 -15.031,0.918c-2.764,0.474 -6.903,2.939 -5.477,9.127m7.218,-0.983c3.807,0.098 5.328,0.17 6.769,0.542c0.156,2.504 0.452,5.028 1.034,7.56c1.975,8.646 6.273,16.131 12.037,22.047c-1.135,1.96 -1.67,3.213 -3.884,5.634c-7.056,-7.137 -12.32,-16.226 -14.719,-26.733c-0.69,-3.025 -1.056,-6.049 -1.237,-9.05m30.904,51.272c-1.351,2.454 -2.01,7.224 3.719,9.971c1.467,0.835 2.965,1.626 4.508,2.37c12.394,5.968 25.513,8.579 38.384,8.285c4.746,-0.373 6.614,-2.684 6.346,-6.41c-0.566,-4.334 -1.196,-9.609 -1.839,-15.363c-11.15,1.11 -22.732,-0.657 -33.57,-5.88c-3.169,-1.523 -6.102,-3.339 -8.892,-5.295c-3.232,4.598 -6.197,8.821 -8.656,12.322m8.045,3.916c2.453,-2.914 3.449,-4.056 4.642,-4.953c2.052,1.444 4.215,2.782 6.553,3.907c7.991,3.847 16.526,5.153 24.749,4.33c0.815,2.114 1.47,3.317 1.973,6.555c-9.983,1.069 -20.363,-0.484 -30.069,-5.158c-2.799,-1.354 -5.395,-2.954 -7.848,-4.681m37.828,-85.705c-10.04,0 -18.187,8.141 -18.187,18.183c0,10.042 8.147,18.184 18.187,18.184c10.042,0 18.18,-8.142 18.18,-18.184c0,-10.042 -8.138,-18.183 -18.18,-18.183m0,-37.7c-10.635,0 -20.541,3.025 -29.003,8.185c4.998,8.058 10.282,16.703 14.958,24.403c4.104,-2.475 8.901,-3.929 14.045,-3.929c1.527,0 3.006,0.156 4.466,0.395c1.47,-8.898 3.13,-18.892 4.682,-28.241c-2.983,-0.49 -6.024,-0.813 -9.148,-0.813m-43.296,20.846c-6.633,8.321 -10.441,17.951 -11.684,27.779c9.416,1.117 19.475,2.375 28.414,3.525c0.611,-4.757 2.471,-9.411 5.681,-13.432c0.948,-1.192 1.995,-2.253 3.086,-3.245c-6.035,-6.696 -12.817,-14.228 -19.154,-21.266c-2.246,2.022 -4.396,4.202 -6.343,6.639m27.854,56.308c-5.188,7.376 -11.026,15.664 -16.478,23.413c2.475,1.736 5.08,3.347 7.886,4.702c9.588,4.611 19.825,6.186 29.686,5.212c-1.001,-9.433 -2.019,-19.511 -2.891,-28.481c-4.775,0.451 -9.719,-0.318 -14.354,-2.551c-1.377,-0.662 -2.643,-1.447 -3.849,-2.295m-24.116,16.997c6.744,-6.669 14,-13.744 20.461,-20.014c-3.324,-3.447 -5.806,-7.805 -6.954,-12.819c-0.337,-1.482 -0.515,-2.965 -0.604,-4.434c-9.003,0.541 -19.116,1.143 -28.58,1.716c0.188,3.016 0.554,6.052 1.251,9.097c2.363,10.369 7.517,19.352 14.426,26.454m51.15,-14.699c-1.375,0.659 -2.774,1.162 -4.197,1.574c2.53,8.658 5.374,18.382 8.033,27.48c2.901,-0.851 5.783,-1.88 8.592,-3.234c9.582,-4.617 17.201,-11.636 22.577,-19.957c-7.994,-5.093 -16.507,-10.59 -24.062,-15.5c-2.618,4.015 -6.308,7.406 -10.943,9.637m13.743,-32.691c1.507,4.554 1.857,9.549 0.718,14.567c-0.347,1.484 -0.827,2.893 -1.387,4.259c8.348,3.422 17.722,7.261 26.493,10.851c1.142,-2.797 2.131,-5.688 2.828,-8.733c2.367,-10.368 1.622,-20.699 -1.518,-30.094c-8.977,3.079 -18.578,6.303 -27.134,9.15m1.052,66.149c-3.171,1.529 -6.419,2.69 -9.686,3.649c1.578,5.394 3.025,10.347 4.23,14.449c1.082,2.589 4.404,6.074 10.117,3.309c1.571,-0.623 3.12,-1.302 4.666,-2.041c12.394,-5.972 22.612,-14.605 30.415,-24.848c2.669,-3.945 2.027,-6.843 -1.062,-8.959c-3.741,-2.257 -8.258,-5.058 -13.161,-8.14c-6.079,9.416 -14.68,17.363 -25.519,22.581m2.233,7.745c2.412,-0.71 4.807,-1.567 7.139,-2.693c7.991,-3.848 14.337,-9.706 18.817,-16.647c2.166,0.68 3.505,0.917 6.362,2.54c-5.392,8.468 -13.081,15.616 -22.79,20.296c-2.8,1.349 -5.663,2.373 -8.545,3.219c-0.753,-3.731 -1.021,-5.228 -0.983,-6.715" style="fill:#9ece84;fill-rule:nonzero;" />
  <path d="M209.229,40.374c-4.979,-8.296 -12.717,0.579 -17.068,6.928c3.201,-7.019 6.771,-18.169 -2.862,-18.169c-9.617,0 -6.061,11.135 -2.865,18.155c-4.231,-6.416 -11.765,-15.35 -16.881,-7.181c-5.128,8.187 6.259,11.073 13.905,12.082c0.465,-3.047 2.983,-5.427 6.155,-5.427c3.144,0 5.65,2.335 6.154,5.338c7.64,-0.944 18.291,-3.691 13.462,-11.726m-40.108,23.555c4.607,8.122 12.178,0.334 16.756,-5.826c-1.541,-1.158 -2.606,-2.914 -2.606,-4.99c0,-0.217 0.103,-0.401 0.124,-0.612c-7.681,0.687 -18.994,3.087 -14.274,11.428m-6.851,23.791c-3.174,-3.178 -4.167,-8.736 -10.926,-10.33c0,0 0.796,-4.77 -5.553,-8.736l-2.387,-1.194c0,0 -1.191,2.979 2.185,4.566l-1.984,-0.593c0,0 0.018,0.866 0.301,1.836c1.58,1.187 1.683,2.332 1.683,2.332c-0.947,-0.472 -1.424,-1.445 -1.683,-2.332c-0.883,-0.664 -2.215,-1.34 -4.282,-1.836c-5.759,-1.389 -6.346,-1.988 -6.346,-1.988c0,0 -0.592,4.174 4.364,5.567l-2.778,-0.402c0,0 -0.784,3.18 3.974,3.972l-2.576,0.197c0,0 0.987,3.573 5.56,3.775c0,0 -0.57,4.005 -5.143,6.082c-1.154,0.522 2.079,2.908 5.411,0.415c0.356,-0.275 -1.196,2.141 -3.332,4.991c-1.244,1.659 2.327,0.202 2.291,1.865c-0.05,1.824 -2.083,10.957 -2.291,11.423c-3.587,8.241 -6.46,13.269 -10.312,16.968c-1.567,-2.554 -2.545,-7.601 1.76,-17.229c0,0 1.989,-3.537 -1.417,-6.093c-2.742,-2.051 -33.196,-25.167 -55.646,-31.03c0,0 -7.656,-1.378 0.921,9.491c4.705,5.961 6.195,8.548 6.195,8.548l-9.236,-3.446c0,0 -3.157,-1.022 -1.37,2.508c1.791,3.533 3.753,9.173 9.827,11.602c6.083,2.415 3.548,5.534 3.548,5.534c0,0 -0.78,3.589 2.883,5.412c3.661,1.811 6.32,5.979 6.32,5.979c-10.401,0.359 -11.678,0.501 -14.365,0.345c-4.925,-0.25 1.493,4.607 2.436,5.893c0.953,1.298 -3.478,7.37 1.64,8.494c5.136,1.136 8.57,0.547 11.074,2.977c2.377,2.297 9.149,4.289 17.838,0.853c-8.66,4.46 -18.591,11.596 -17.582,20.972c0,0 1.239,5.818 5.602,7.266c1.754,0.582 1.025,1.793 1.246,2.705c0.135,0.56 -0.546,2.894 3.539,2.077c2.788,-0.562 6.675,-0.631 10.565,-0.315c0.905,-2.332 3.561,-3.631 3.561,-3.631c3.734,-16.413 -16.42,-13.707 -16.42,-13.707l1.252,-1.46c0,0 7.363,-2.213 13.498,2.284c5.701,4.18 3.603,11.926 3.198,13.234l0.165,0.037c3.15,-1.137 9.785,-1.049 13.865,-0.525c-0.244,-0.927 -1.192,-2.182 -4.011,-3.585c-2.474,0.504 -5.022,0.119 -4.286,-0.435c0.39,-0.291 0.912,-0.716 1.362,-1.088c-0.197,-0.154 -0.374,-0.322 -0.536,-0.504c-3.112,0.553 -4.214,-0.335 -3.317,-0.693c0.669,-0.266 1.802,-1.266 2.561,-1.974c0.139,-0.826 0.539,-1.752 1.379,-2.804c3.332,-4.152 4.995,-10.175 4.995,-10.175l3.116,-1.662c0,0.405 -1.02,3.926 -2.706,7.472c-1.793,3.794 -4.209,7.641 -2.284,9.143c3.19,2.487 6.812,2.737 6.377,7.005c0.451,0.715 -0.55,2.443 0.686,2.55c4.169,-0.694 7.96,-0.245 11.304,0.642c0.488,-1.029 1.744,-2.654 4.9,-2.509c0,0 -0.101,-1.483 1.669,-2.254c-2.347,-1.566 -5.477,-2.32 -7.911,-2.32c-1.629,0 -3.102,-4.151 -3.102,-4.151c0,0 3.183,-2.627 4.563,-5.404c3.536,-7.058 0.074,-10.419 1.456,-12.253c9.14,-12.043 1.398,-32.278 0.803,-36.653c-0.596,-4.368 -0.79,-9.461 -0.79,-9.461c1.773,0.99 5.754,-2.053 7.943,0.523c2.178,2.588 4.756,1.988 4.756,1.988c2.392,-1.19 3.189,-3.574 0,-6.751m-75.121,40.561l32.872,-20.151l-26.547,22.145c-2.538,-1 -5.072,-1.823 -6.325,-1.994m9.908,-9.613l-13.722,7.828c-0.67,-0.692 -1.082,-1.418 -0.744,-1.88c2.432,-3.368 -1.498,-5.739 -1.498,-5.739l15.964,-0.209Zm-8.488,-10.664l29.018,-1.044l-17.816,10.163c-0.113,-0.762 -0.958,-1.868 -3.505,-3.449c-3.483,-2.167 -5.993,-4.025 -7.697,-5.67m-4.036,-15.595c0.041,0.006 0.072,0 0.121,0.006l33.203,11.86l-31.702,0.604c-0.324,-0.767 -0.396,-1.475 -0.221,-2.137c0.688,-2.634 -1.145,-6.771 -5.152,-7.278c-4.012,-0.488 -6.271,-5.684 -6.271,-5.684c0,0 7,2.19 10.022,2.629m39.815,12.044l-38.316,-14.116l-10.263,-15.673c0,0 5.749,1.74 15.944,6.604c10.197,4.874 23.015,13.527 23.015,13.527c5.447,3.997 8.281,6.922 9.62,9.658m0.011,12.029c-0.596,3.315 -0.48,5.71 -0.099,7.517c-1.158,0.991 -3.008,2.342 -5.858,3.692c-2.392,1.135 -5.087,2.104 -8.544,3.471l10.624,-16.355l-1.441,1.044l-15.578,17.208c-1.963,0.313 -3.619,0.368 -4.404,-0.143c-0.521,-0.345 -1.29,-0.742 -2.14,-1.152l26.982,-25.028l0.612,-0.018l-0.337,-0.187l1.007,0.362c0.563,2.786 -0.118,5.662 -0.824,9.589m32.185,-29.239c0,0 -3.894,2.003 -3.441,-2.184c0,0 3.529,-1.301 3.441,2.184m-40.29,79.803c2.156,0.262 4.262,0.612 6.095,1.146c-0.122,-2.644 -1.57,-3.608 -2.607,-4.003c-1.817,0.776 -2.927,1.98 -3.488,2.857m-36.153,1.031c-1.253,11.445 9.376,16.484 19.601,17.358c15.896,1.348 23.295,-9.573 23.295,-9.573c0,0 -5.948,3.053 -11.71,3.726c-14.437,1.699 -19.672,-6.773 -19.672,-6.773l2.782,0.172c-6.751,-5.753 -1.745,-12.24 -1.745,-12.24c-2.384,-2.896 -2.912,-6.052 -2.912,-6.052l-1.301,0.35c0,0 -7.351,3.892 -8.338,13.032m74.367,-2.632l3.395,2.123c-0.041,-1.542 -0.664,-2.805 -1.579,-3.861c-0.819,0.258 -1.581,0.808 -1.816,1.738m-0.7,0.294c-0.969,0.09 -2.943,0.446 -3.921,1.798c1.889,0.632 3.655,1.343 5.116,2.108c0,0 0,-1.453 -0.627,-2.907c-0.184,-0.43 -0.375,-0.683 -0.568,-0.999m32.389,-107.447c-3.083,7.038 -6.051,17.35 3.249,17.334c9.183,-0.016 6.361,-10.076 3.298,-17.083c-0.929,0.53 -1.947,0.915 -3.091,0.915c-1.304,0 -2.447,-0.489 -3.456,-1.166m6.734,0.126c4.446,6.234 11.637,13.804 16.362,5.958c4.839,-8.017 -5.752,-10.782 -13.376,-11.738c0.013,0.165 0.096,0.306 0.096,0.475c0,2.279 -1.274,4.186 -3.082,5.305" style="fill:#60995c;fill-rule:nonzero;" />
  <path d="M209.229,40.374c-4.979,-8.296 -12.717,0.579 -17.068,6.928c3.201,-7.019 6.771,-18.169 -2.862,-18.169c-9.617,0 -6.061,11.135 -2.865,18.155c-4.231,-6.416 -11.765,-15.35 -16.881,-7.181c-5.128,8.187 6.259,11.073 13.905,12.082c0.465,-3.047 2.983,-5.427 6.155,-5.427c3.144,0 5.65,2.335 6.154,5.338c7.64,-0.944 18.291,-3.691 13.462,-11.726Zm-40.108,23.555c4.607,8.122 12.178,0.334 16.756,-5.826c-1.541,-1.158 -2.606,-2.914 -2.606,-4.99c0,-0.217 0.103,-0.401 0.124,-0.612c-7.681,0.687 -18.994,3.087 -14.274,11.428Zm-6.851,23.791c-3.174,-3.178 -4.167,-8.736 -10.926,-10.33c0,0 0.796,-4.77 -5.553,-8.736l-2.387,-1.194c0,0 -1.191,2.979 2.185,4.566l-1.984,-0.593c0,0 0.018,0.866 0.301,1.836c1.58,1.187 1.683,2.332 1.683,2.332c-0.947,-0.472 -1.424,-1.445 -1.683,-2.332c-0.883,-0.664 -2.215,-1.34 -4.282,-1.836c-5.759,-1.389 -6.346,-1.988 -6.346,-1.988c0,0 -0.592,4.174 4.364,5.567l-2.778,-0.402c0,0 -0.784,3.18 3.974,3.972l-2.576,0.197c0,0 0.987,3.573 5.56,3.775c0,0 -0.57,4.005 -5.143,6.082c-1.154,0.522 2.079,2.908 5.411,0.415c0.356,-0.275 -1.196,2.141 -3.332,4.991c-1.244,1.659 2.327,0.202 2.291,1.865c-0.05,1.824 -2.083,10.957 -2.291,11.423c-3.587,8.241 -6.46,13.269 -10.312,16.968c-1.567,-2.554 -2.545,-7.601 1.76,-17.229c0,0 1.989,-3.537 -1.417,-6.093c-2.742,-2.051 -33.196,-25.167 -55.646,-31.03c0,0 -7.656,-1.378 0.921,9.491c4.705,5.961 6.195,8.548 6.195,8.548l-9.236,-3.446c0,0 -3.157,-1.022 -1.37,2.508c1.791,3.533 3.753,9.173 9.827,11.602c6.083,2.415 3.548,5.534 3.548,5.534c0,0 -0.78,3.589 2.883,5.412c3.661,1.811 6.32,5.979 6.32,5.979c-10.401,0.359 -11.678,0.501 -14.365,0.345c-4.925,-0.25 1.493,4.607 2.436,5.893c0.953,1.298 -3.478,7.37 1.64,8.494c5.136,1.136 8.57,0.547 11.074,2.977c2.377,2.297 9.149,4.289 17.838,0.853c-8.66,4.46 -18.591,11.596 -17.582,20.972c0,0 1.239,5.818 5.602,7.266c1.754,0.582 1.025,1.793 1.246,2.705c0.135,0.56 -0.546,2.894 3.539,2.077c2.788,-0.562 6.675,-0.631 10.565,-0.315c0.905,-2.332 3.561,-3.631 3.561,-3.631c3.734,-16.413 -16.42,-13.707 -16.42,-13.707l1.252,-1.46c0,0 7.363,-2.213 13.498,2.284c5.701,4.18 3.603,11.926 3.198,13.234l0.165,0.037c3.15,-1.137 9.785,-1.049 13.865,-0.525c-0.244,-0.927 -1.192,-2.182 -4.011,-3.585c-2.474,0.504 -5.022,0.119 -4.286,-0.435c0.39,-0.291 0.912,-0.716 1.362,-1.088c-0.197,-0.154 -0.374,-0.322 -0.536,-0.504c-3.112,0.553 -4.214,-0.335 -3.317,-0.693c0.669,-0.266 1.802,-1.266 2.561,-1.974c0.139,-0.826 0.539,-1.752 1.379,-2.804c3.332,-4.152 4.995,-10.175 4.995,-10.175l3.116,-1.662c0,0.405 -1.02,3.926 -2.706,7.472c-1.793,3.794 -4.209,7.641 -2.284,9.143c3.19,2.487 6.812,2.737 6.377,7.005c0.451,0.715 -0.55,2.443 0.686,2.55c4.169,-0.694 7.96,-0.245 11.304,0.642c0.488,-1.029 1.744,-2.654 4.9,-2.509c0,0 -0.101,-1.483 1.669,-2.254c-2.347,-1.566 -5.477,-2.32 -7.911,-2.32c-1.629,0 -3.102,-4.151 -3.102,-4.151c0,0 3.183,-2.627 4.563,-5.404c3.536,-7.058 0.074,-10.419 1.456,-12.253c9.14,-12.043 1.398,-32.278 0.803,-36.653c-0.596,-4.368 -0.79,-9.461 -0.79,-9.461c1.773,0.99 5.754,-2.053 7.943,0.523c2.178,2.588 4.756,1.988 4.756,1.988c2.392,-1.19 3.189,-3.574 0,-6.751Zm-75.121,40.561l32.872,-20.151l-26.547,22.145c-2.538,-1 -5.072,-1.823 -6.325,-1.994Zm9.908,-9.613l-13.722,7.828c-0.67,-0.692 -1.082,-1.418 -0.744,-1.88c2.432,-3.368 -1.498,-5.739 -1.498,-5.739l15.964,-0.209Zm-8.488,-10.664l29.018,-1.044l-17.816,10.163c-0.113,-0.762 -0.958,-1.868 -3.505,-3.449c-3.483,-2.167 -5.993,-4.025 -7.697,-5.67Zm-4.036,-15.595c0.041,0.006 0.072,0 0.121,0.006l33.203,11.86l-31.702,0.604c-0.324,-0.767 -0.396,-1.475 -0.221,-2.137c0.688,-2.634 -1.145,-6.771 -5.152,-7.278c-4.012,-0.488 -6.271,-5.684 -6.271,-5.684c0,0 7,2.19 10.022,2.629Zm39.815,12.044l-38.316,-14.116l-10.263,-15.673c0,0 5.749,1.74 15.944,6.604c10.197,4.874 23.015,13.527 23.015,13.527c5.447,3.997 8.281,6.922 9.62,9.658Zm0.011,12.029c-0.596,3.315 -0.48,5.71 -0.099,7.517c-1.158,0.991 -3.008,2.342 -5.858,3.692c-2.392,1.135 -5.087,2.104 -8.544,3.471l10.624,-16.355l-1.441,1.044l-15.578,17.208c-1.963,0.313 -3.619,0.368 -4.404,-0.143c-0.521,-0.345 -1.29,-0.742 -2.14,-1.152l26.982,-25.028l0.612,-0.018l-0.337,-0.187l1.007,0.362c0.563,2.786 -0.118,5.662 -0.824,9.589Zm32.185,-29.239c0,0 -3.894,2.003 -3.441,-2.184c0,0 3.529,-1.301 3.441,2.184Zm-40.29,79.803c2.156,0.262 4.262,0.612 6.095,1.146c-0.122,-2.644 -1.57,-3.608 -2.607,-4.003c-1.817,0.776 -2.927,1.98 -3.488,2.857Zm-36.153,1.031c-1.253,11.445 9.376,16.484 19.601,17.358c15.896,1.348 23.295,-9.573 23.295,-9.573c0,0 -5.948,3.053 -11.71,3.726c-14.437,1.699 -19.672,-6.773 -19.672,-6.773l2.782,0.172c-6.751,-5.753 -1.745,-12.24 -1.745,-12.24c-2.384,-2.896 -2.912,-6.052 -2.912,-6.052l-1.301,0.35c0,0 -7.351,3.892 -8.338,13.032Zm74.367,-2.632l3.395,2.123c-0.041,-1.542 -0.664,-2.805 -1.579,-3.861c-0.819,0.258 -1.581,0.808 -1.816,1.738Zm-0.7,0.294c-0.969,0.09 -2.943,0.446 -3.921,1.798c1.889,0.632 3.655,1.343 5.116,2.108c0,0 0,-1.453 -0.627,-2.907c-0.184,-0.43 -0.375,-0.683 -0.568,-0.999Zm32.389,-107.447c-3.083,7.038 -6.051,17.35 3.249,17.334c9.183,-0.016 6.361,-10.076 3.298,-17.083c-0.929,0.53 -1.947,0.915 -3.091,0.915c-1.304,0 -2.447,-0.489 -3.456,-1.166Zm6.734,0.126c4.446,6.234 11.637,13.804 16.362,5.958c4.839,-8.017 -5.752,-10.782 -13.376,-11.738c0.013,0.165 0.096,0.306 0.096,0.475c0,2.279 -1.274,4.186 -3.082,5.305Z" style="fill:none;fill-rule:nonzero;stroke:#60995c;stroke-width:14.58px;" />
  <path d="M209.229,40.374c-4.979,-8.296 -12.717,0.579 -17.068,6.928c3.201,-7.019 6.771,-18.169 -2.862,-18.169c-9.617,0 -6.061,11.135 -2.865,18.155c-4.231,-6.416 -11.765,-15.35 -16.881,-7.181c-5.128,8.187 6.259,11.073 13.905,12.082c0.465,-3.047 2.983,-5.427 6.155,-5.427c3.144,0 5.65,2.335 6.154,5.338c7.64,-0.944 18.291,-3.691 13.462,-11.726m-40.108,23.555c4.607,8.122 12.178,0.334 16.756,-5.826c-1.541,-1.158 -2.606,-2.914 -2.606,-4.99c0,-0.217 0.103,-0.401 0.124,-0.612c-7.681,0.687 -18.994,3.087 -14.274,11.428m-6.851,23.791c-3.174,-3.178 -4.167,-8.736 -10.926,-10.33c0,0 0.796,-4.77 -5.553,-8.736l-2.387,-1.194c0,0 -1.191,2.979 2.185,4.566l-1.984,-0.593c0,0 0.018,0.866 0.301,1.836c1.58,1.187 1.683,2.332 1.683,2.332c-0.947,-0.472 -1.424,-1.445 -1.683,-2.332c-0.883,-0.664 -2.215,-1.34 -4.282,-1.836c-5.759,-1.389 -6.346,-1.988 -6.346,-1.988c0,0 -0.592,4.174 4.364,5.567l-2.778,-0.402c0,0 -0.784,3.18 3.974,3.972l-2.576,0.197c0,0 0.987,3.573 5.56,3.775c0,0 -0.57,4.005 -5.143,6.082c-1.154,0.522 2.079,2.908 5.411,0.415c0.356,-0.275 -1.196,2.141 -3.332,4.991c-1.244,1.659 2.327,0.202 2.291,1.865c-0.05,1.824 -2.083,10.957 -2.291,11.423c-3.587,8.241 -6.46,13.269 -10.312,16.968c-1.567,-2.554 -2.545,-7.601 1.76,-17.229c0,0 1.989,-3.537 -1.417,-6.093c-2.742,-2.051 -33.196,-25.167 -55.646,-31.03c0,0 -7.656,-1.378 0.921,9.491c4.705,5.961 6.195,8.548 6.195,8.548l-9.236,-3.446c0,0 -3.157,-1.022 -1.37,2.508c1.791,3.533 3.753,9.173 9.827,11.602c6.083,2.415 3.548,5.534 3.548,5.534c0,0 -0.78,3.589 2.883,5.412c3.661,1.811 6.32,5.979 6.32,5.979c-10.401,0.359 -11.678,0.501 -14.365,0.345c-4.925,-0.25 1.493,4.607 2.436,5.893c0.953,1.298 -3.478,7.37 1.64,8.494c5.136,1.136 8.57,0.547 11.074,2.977c2.377,2.297 9.149,4.289 17.838,0.853c-8.66,4.46 -18.591,11.596 -17.582,20.972c0,0 1.239,5.818 5.602,7.266c1.754,0.582 1.025,1.793 1.246,2.705c0.135,0.56 -0.546,2.894 3.539,2.077c2.788,-0.562 6.675,-0.631 10.565,-0.315c0.905,-2.332 3.561,-3.631 3.561,-3.631c3.734,-16.413 -16.42,-13.707 -16.42,-13.707l1.252,-1.46c0,0 7.363,-2.213 13.498,2.284c5.701,4.18 3.603,11.926 3.198,13.234l0.165,0.037c3.15,-1.137 9.785,-1.049 13.865,-0.525c-0.244,-0.927 -1.192,-2.182 -4.011,-3.585c-2.474,0.504 -5.022,0.119 -4.286,-0.435c0.39,-0.291 0.912,-0.716 1.362,-1.088c-0.197,-0.154 -0.374,-0.322 -0.536,-0.504c-3.112,0.553 -4.214,-0.335 -3.317,-0.693c0.669,-0.266 1.802,-1.266 2.561,-1.974c0.139,-0.826 0.539,-1.752 1.379,-2.804c3.332,-4.152 4.995,-10.175 4.995,-10.175l3.116,-1.662c0,0.405 -1.02,3.926 -2.706,7.472c-1.793,3.794 -4.209,7.641 -2.284,9.143c3.19,2.487 6.812,2.737 6.377,7.005c0.451,0.715 -0.55,2.443 0.686,2.55c4.169,-0.694 7.96,-0.245 11.304,0.642c0.488,-1.029 1.744,-2.654 4.9,-2.509c0,0 -0.101,-1.483 1.669,-2.254c-2.347,-1.566 -5.477,-2.32 -7.911,-2.32c-1.629,0 -3.102,-4.151 -3.102,-4.151c0,0 3.183,-2.627 4.563,-5.404c3.536,-7.058 0.074,-10.419 1.456,-12.253c9.14,-12.043 1.398,-32.278 0.803,-36.653c-0.596,-4.368 -0.79,-9.461 -0.79,-9.461c1.773,0.99 5.754,-2.053 7.943,0.523c2.178,2.588 4.756,1.988 4.756,1.988c2.392,-1.19 3.189,-3.574 0,-6.751m-75.121,40.561l32.872,-20.151l-26.547,22.145c-2.538,-1 -5.072,-1.823 -6.325,-1.994m9.908,-9.613l-13.722,7.828c-0.67,-0.692 -1.082,-1.418 -0.744,-1.88c2.432,-3.368 -1.498,-5.739 -1.498,-5.739l15.964,-0.209Zm-8.488,-10.664l29.018,-1.044l-17.816,10.163c-0.113,-0.762 -0.958,-1.868 -3.505,-3.449c-3.483,-2.167 -5.993,-4.025 -7.697,-5.67m-4.036,-15.595c0.041,0.006 0.072,0 0.121,0.006l33.203,11.86l-31.702,0.604c-0.324,-0.767 -0.396,-1.475 -0.221,-2.137c0.688,-2.634 -1.145,-6.771 -5.152,-7.278c-4.012,-0.488 -6.271,-5.684 -6.271,-5.684c0,0 7,2.19 10.022,2.629m39.815,12.044l-38.316,-14.116l-10.263,-15.673c0,0 5.749,1.74 15.944,6.604c10.197,4.874 23.015,13.527 23.015,13.527c5.447,3.997 8.281,6.922 9.62,9.658m0.011,12.029c-0.596,3.315 -0.48,5.71 -0.099,7.517c-1.158,0.991 -3.008,2.342 -5.858,3.692c-2.392,1.135 -5.087,2.104 -8.544,3.471l10.624,-16.355l-1.441,1.044l-15.578,17.208c-1.963,0.313 -3.619,0.368 -4.404,-0.143c-0.521,-0.345 -1.29,-0.742 -2.14,-1.152l26.982,-25.028l0.612,-0.018l-0.337,-0.187l1.007,0.362c0.563,2.786 -0.118,5.662 -0.824,9.589m32.185,-29.239c0,0 -3.894,2.003 -3.441,-2.184c0,0 3.529,-1.301 3.441,2.184m-40.29,79.803c2.156,0.262 4.262,0.612 6.095,1.146c-0.122,-2.644 -1.57,-3.608 -2.607,-4.003c-1.817,0.776 -2.927,1.98 -3.488,2.857m-36.153,1.031c-1.253,11.445 9.376,16.484 19.601,17.358c15.896,1.348 23.295,-9.573 23.295,-9.573c0,0 -5.948,3.053 -11.71,3.726c-14.437,1.699 -19.672,-6.773 -19.672,-6.773l2.782,0.172c-6.751,-5.753 -1.745,-12.24 -1.745,-12.24c-2.384,-2.896 -2.912,-6.052 -2.912,-6.052l-1.301,0.35c0,0 -7.351,3.892 -8.338,13.032m74.367,-2.632l3.395,2.123c-0.041,-1.542 -0.664,-2.805 -1.579,-3.861c-0.819,0.258 -1.581,0.808 -1.816,1.738m-0.7,0.294c-0.969,0.09 -2.943,0.446 -3.921,1.798c1.889,0.632 3.655,1.343 5.116,2.108c0,0 0,-1.453 -0.627,-2.907c-0.184,-0.43 -0.375,-0.683 -0.568,-0.999m32.389,-107.447c-3.083,7.038 -6.051,17.35 3.249,17.334c9.183,-0.016 6.361,-10.076 3.298,-17.083c-0.929,0.53 -1.947,0.915 -3.091,0.915c-1.304,0 -2.447,-0.489 -3.456,-1.166m6.734,0.126c4.446,6.234 11.637,13.804 16.362,5.958c4.839,-8.017 -5.752,-10.782 -13.376,-11.738c0.013,0.165 0.096,0.306 0.096,0.475c0,2.279 -1.274,4.186 -3.082,5.305" style="fill:#fff;fill-rule:nonzero;" />
</svg>
