<?xml version="1.0" encoding="UTF-8" standalone="no"?>
<svg width="100%" height="100%" viewBox="0 0 276 202" version="1.1" xmlns="http://www.w3.org/2000/svg" xmlns:xlink="http://www.w3.org/1999/xlink" xml:space="preserve" xmlns:serif="http://www.serif.com/" style="fill-rule:evenodd;clip-rule:evenodd;stroke-linecap:round;stroke-linejoin:round;stroke-miterlimit:10;">
  <path d="M274.354,81.277c2.336,-4.393 2.524,-10.842 -3.368,-14.02c-4.649,-2.509 -11.175,-1.616 -18.487,2.353c-3.487,1.341 -5.801,2.881 -9.074,6.217c-0.655,0.538 -1.313,1.105 -1.973,1.685c12.594,-23.989 14.305,-44.261 5.106,-53.668c-7.312,-7.482 -16.92,-4.421 -22.513,0.98c-5.218,5.04 -6.41,13.689 -0.826,19.383c5.46,5.568 14.196,4.412 15.569,-2.942c0.957,-5.137 -4.584,-7.503 -7.227,-4.006c-1.271,1.681 -5.099,-1.622 -3.365,-5.373c2.376,-5.142 13.098,-10.845 18.727,0.304c5.036,9.974 -1.849,28.712 -11.85,42.388c-11.447,-42.941 -50.589,-74.578 -97.136,-74.578c-46.546,0 -85.688,31.637 -97.136,74.578c-10.001,-13.676 -16.885,-32.414 -11.849,-42.388c5.628,-11.149 16.35,-5.446 18.727,-0.304c1.733,3.751 -2.095,7.054 -3.365,5.373c-2.644,-3.497 -8.185,-1.131 -7.228,4.006c1.374,7.354 10.109,8.51 15.57,2.942c5.584,-5.694 4.391,-14.343 -0.826,-19.383c-5.594,-5.401 -15.201,-8.462 -22.514,-0.98c-9.199,9.407 -7.488,29.679 5.106,53.668c-0.66,-0.58 -1.318,-1.147 -1.973,-1.685c-3.273,-3.336 -5.587,-4.876 -9.074,-6.217c-7.312,-3.969 -13.838,-4.862 -18.487,-2.353c-5.891,3.178 -5.704,9.627 -3.368,14.02c2.18,4.098 7.29,6.357 11.776,3.927c4.388,-2.377 5.218,-7.953 0.937,-10.095c-2.991,-1.495 -5.423,1.496 -3.739,3.738c0.81,1.078 -1.897,2.851 -3.898,1.122c-2.743,-2.368 -4.361,-9.968 3.49,-11.464c3.071,-0.585 6.772,0.532 10.52,2.685c9.136,7.211 14.333,16.484 15.72,29.348c-1.51,14.003 -7.543,23.749 -18.251,31.214c-2.86,1.275 -5.613,1.842 -7.989,1.39c-7.851,-1.496 -6.233,-9.095 -3.49,-11.465c2.001,-1.727 4.708,0.044 3.898,1.122c-1.684,2.243 0.748,5.234 3.739,3.739c4.281,-2.142 3.451,-7.718 -0.937,-10.095c-4.486,-2.43 -9.596,-0.171 -11.776,3.927c-2.336,4.392 -2.523,10.842 3.368,14.019c6.791,3.666 17.582,0.066 28.987,-9.781c-12.099,23.532 -13.624,43.354 -4.559,52.623c7.313,7.483 16.92,4.422 22.514,-0.98c5.217,-5.039 6.41,-13.69 0.826,-19.383c-5.461,-5.568 -14.196,-4.412 -15.57,2.941c-0.957,5.139 4.584,7.504 7.228,4.008c1.27,-1.682 5.098,1.621 3.365,5.371c-2.377,5.143 -13.099,10.848 -18.727,-0.303c-5.036,-9.974 1.848,-28.712 11.849,-42.387c11.448,42.94 50.59,74.579 97.136,74.579c46.547,0 85.689,-31.639 97.136,-74.579c10.001,13.675 16.886,32.413 11.85,42.387c-5.629,11.151 -16.351,5.446 -18.727,0.303c-1.734,-3.75 2.094,-7.053 3.365,-5.371c2.643,3.496 8.184,1.131 7.227,-4.008c-1.373,-7.353 -10.109,-8.509 -15.569,-2.941c-5.584,5.693 -4.392,14.344 0.826,19.383c5.593,5.402 15.201,8.463 22.513,0.98c9.066,-9.269 7.54,-29.091 -4.559,-52.623c11.405,9.847 22.197,13.447 28.987,9.781c5.892,-3.177 5.704,-9.627 3.368,-14.019c-2.18,-4.098 -7.289,-6.357 -11.776,-3.927c-4.388,2.377 -5.217,7.953 -0.936,10.095c2.99,1.495 5.423,-1.496 3.738,-3.739c-0.81,-1.078 1.897,-2.849 3.898,-1.122c2.744,2.37 4.361,9.969 -3.489,11.465c-2.376,0.452 -5.13,-0.115 -7.99,-1.39c-10.708,-7.465 -16.74,-17.211 -18.25,-31.214c1.387,-12.864 6.583,-22.137 15.719,-29.348c3.748,-2.153 7.449,-3.27 10.521,-2.685c7.85,1.496 6.233,9.096 3.489,11.464c-2.001,1.729 -4.708,-0.044 -3.898,-1.122c1.685,-2.242 -0.748,-5.233 -3.738,-3.738c-4.281,2.142 -3.452,7.718 0.936,10.095c4.487,2.43 9.596,0.171 11.776,-3.927" style="fill:#e86720;fill-rule:nonzero;" />
  <path d="M226.921,100.538c0,-49.145 -39.842,-88.985 -88.986,-88.985c-49.141,0 -88.98,39.84 -88.98,88.985c0,49.144 39.839,88.983 88.98,88.983c49.144,0 88.986,-39.839 88.986,-88.983m-6.45,0c0,45.579 -36.951,82.533 -82.536,82.533c-45.582,0 -82.536,-36.954 -82.536,-82.533c0,-45.584 36.954,-82.534 82.536,-82.534c45.585,0 82.536,36.95 82.536,82.534m-9.331,-17.959c-1.28,-4.095 -3.685,-5.267 -6.894,-4.285c-3.691,1.366 -8.197,2.974 -13.113,4.692c3.21,9.558 3.977,20.073 1.563,30.628c-0.71,3.09 -1.709,6.026 -2.872,8.864c4.684,1.916 8.985,3.676 12.549,5.128c2.428,0.698 6.74,0.312 8.005,-5.259c0.438,-1.452 0.834,-2.929 1.174,-4.426c2.76,-12.071 2.425,-24.107 -0.412,-35.342m-3.407,29.25c-0.622,2.729 -1.509,5.316 -2.528,7.828c-3.052,-1.569 -4.252,-2.22 -5.279,-3.087c0.855,-2.089 1.594,-4.257 2.118,-6.537c1.772,-7.773 1.211,-15.529 -1.157,-22.572c1.692,-1.145 2.614,-1.954 5.352,-3.055c2.937,8.548 3.653,17.969 1.494,27.423m-7.753,-54.687c-0.856,-1.247 -1.761,-2.476 -2.717,-3.679c-7.728,-9.682 -17.342,-16.921 -27.895,-21.715c-3.996,-1.552 -6.413,-0.402 -7.65,2.723c-1.225,3.736 -2.786,8.26 -4.515,13.175c9.488,3.452 18.177,9.41 24.923,17.876c1.981,2.476 3.653,5.093 5.148,7.77c4.417,-2.465 8.474,-4.73 11.83,-6.611c2.055,-1.463 4.443,-5.076 0.876,-9.539m-4.802,2.553c-3.123,1.406 -4.383,1.942 -5.7,2.203c-1.099,-1.974 -2.33,-3.902 -3.788,-5.729c-4.973,-6.238 -11.392,-10.63 -18.375,-13.175c0.166,-2.037 0.101,-3.263 0.96,-6.089c8.506,3.034 16.322,8.348 22.368,15.931c1.741,2.187 3.213,4.496 4.535,6.859m-40.305,-6.503c-2.863,8.039 -5.987,16.614 -8.781,24.223c4.048,1.5 7.764,4.055 10.647,7.677c0.851,1.069 1.572,2.203 2.222,3.361c7.089,-3.949 15.057,-8.393 22.501,-12.547c-1.329,-2.378 -2.804,-4.696 -4.556,-6.894c-5.972,-7.484 -13.656,-12.757 -22.033,-15.82m-7.656,-8.575c0.827,-4.993 1.58,-9.575 2.207,-13.369c0.141,-2.525 -1.196,-6.648 -6.911,-6.638c-1.512,-0.103 -3.032,-0.157 -4.578,-0.157c-12.383,0 -24.038,3.003 -34.362,8.271c-3.708,2.156 -4.312,4.759 -2.64,7.675c2.159,3.29 4.721,7.326 7.495,11.739c8.601,-5.258 18.682,-8.347 29.507,-8.347c3.172,0 6.256,0.323 9.282,0.826m-5.171,-14.477c-0.856,3.321 -1.219,4.639 -1.835,5.837c-2.23,-0.373 -4.501,-0.613 -6.843,-0.613c-7.982,0 -15.406,2.277 -21.75,6.154c-1.492,-1.396 -2.488,-2.114 -4.166,-4.544c7.676,-4.761 16.7,-7.559 26.397,-7.559c2.795,0 5.526,0.289 8.197,0.725m-42.215,27.917c-3.387,-3.756 -6.497,-7.204 -9.076,-10.06c-1.887,-1.682 -5.938,-3.21 -9.494,1.265c-1.028,1.117 -2.021,2.272 -2.983,3.477c-7.725,9.679 -12.64,20.671 -14.959,32.022c-0.627,4.249 1.039,6.342 4.351,6.854c3.923,0.364 8.675,0.874 13.857,1.462c1.251,-10.008 5.122,-19.814 11.871,-28.278c1.981,-2.475 4.157,-4.683 6.433,-6.742m-10.599,0.27c-1.675,1.518 -3.284,3.145 -4.741,4.97c-4.974,6.241 -7.828,13.469 -8.75,20.848c-2.021,0.298 -3.201,0.625 -6.15,0.427c1.06,-8.972 4.501,-17.773 10.548,-25.358c1.749,-2.188 3.67,-4.134 5.677,-5.952c2.07,2.737 2.872,3.845 3.416,5.065m-26.893,54.194c0.235,1.495 0.516,2.998 0.859,4.495c2.754,12.076 8.283,22.771 15.715,31.668c2.924,3.129 5.592,3.144 8.068,0.868c2.729,-2.836 6.087,-6.24 9.781,-9.921c-7.044,-7.222 -12.294,-16.362 -14.705,-26.915c-0.704,-3.091 -1.074,-6.17 -1.26,-9.235c-5.05,0.305 -9.691,0.591 -13.528,0.826c-2.487,0.427 -6.212,2.645 -4.93,8.214m6.497,-0.884c3.426,0.088 4.795,0.153 6.092,0.487c0.141,2.254 0.407,4.525 0.931,6.805c1.777,7.781 5.646,14.518 10.833,19.842c-1.022,1.764 -1.503,2.892 -3.496,5.07c-6.35,-6.423 -11.088,-14.603 -13.247,-24.059c-0.621,-2.723 -0.95,-5.444 -1.113,-8.145m27.814,46.144c-1.217,2.209 -1.809,6.502 3.347,8.975c1.32,0.751 2.668,1.463 4.057,2.133c11.154,5.37 22.961,7.721 34.545,7.456c4.272,-0.336 5.953,-2.416 5.712,-5.769c-0.51,-3.901 -1.077,-8.648 -1.655,-13.827c-10.035,1 -20.459,-0.591 -30.214,-5.292c-2.851,-1.37 -5.491,-3.005 -8.002,-4.766c-2.909,4.139 -5.577,7.939 -7.79,11.09m7.241,3.525c2.207,-2.623 3.103,-3.651 4.177,-4.458c1.846,1.3 3.793,2.504 5.897,3.517c7.193,3.462 14.874,4.637 22.275,3.897c0.733,1.902 1.323,2.985 1.775,5.899c-8.984,0.962 -18.326,-0.435 -27.061,-4.642c-2.52,-1.219 -4.856,-2.658 -7.063,-4.213m34.044,-77.135c-9.036,0 -16.368,7.327 -16.368,16.365c0,9.038 7.332,16.366 16.368,16.366c9.038,0 16.362,-7.328 16.362,-16.366c0,-9.038 -7.324,-16.365 -16.362,-16.365m0,-33.929c-9.571,0 -18.486,2.722 -26.102,7.366c4.497,7.252 9.253,15.033 13.462,21.963c3.693,-2.228 8.011,-3.536 12.64,-3.536c1.374,0 2.705,0.14 4.02,0.355c1.322,-8.008 2.817,-17.003 4.214,-25.417c-2.686,-0.441 -5.422,-0.731 -8.234,-0.731m-38.966,18.761c-5.969,7.488 -9.397,16.156 -10.516,25.001c8.475,1.005 17.528,2.137 25.573,3.173c0.55,-4.282 2.224,-8.47 5.113,-12.089c0.853,-1.073 1.795,-2.028 2.777,-2.921c-5.431,-6.026 -11.535,-12.805 -17.238,-19.139c-2.021,1.819 -3.957,3.782 -5.709,5.975m25.069,50.677c-4.67,6.638 -9.924,14.098 -14.831,21.072c2.228,1.562 4.573,3.012 7.098,4.232c8.629,4.15 17.842,5.567 26.718,4.691c-0.902,-8.491 -1.818,-17.561 -2.603,-25.633c-4.297,0.405 -8.747,-0.287 -12.918,-2.296c-1.24,-0.596 -2.379,-1.303 -3.464,-2.066m-21.705,15.297c6.07,-6.002 12.6,-12.369 18.415,-18.012c-2.992,-3.102 -5.225,-7.025 -6.258,-11.537c-0.304,-1.334 -0.464,-2.668 -0.544,-3.991c-8.103,0.487 -17.205,1.029 -25.722,1.544c0.169,2.715 0.498,5.447 1.125,8.187c2.127,9.332 6.766,17.418 12.984,23.809m46.035,-13.229c-1.237,0.593 -2.497,1.046 -3.777,1.417c2.277,7.792 4.836,16.543 7.23,24.732c2.611,-0.766 5.204,-1.692 7.733,-2.91c8.623,-4.156 15.48,-10.473 20.319,-17.962c-7.195,-4.583 -14.857,-9.531 -21.656,-13.95c-2.357,3.613 -5.678,6.665 -9.849,8.673m12.368,-29.421c1.357,4.098 1.672,8.593 0.647,13.11c-0.312,1.335 -0.744,2.604 -1.248,3.833c7.513,3.079 15.95,6.535 23.843,9.766c1.028,-2.518 1.918,-5.119 2.546,-7.86c2.13,-9.331 1.46,-18.629 -1.366,-27.085c-8.08,2.772 -16.72,5.673 -24.422,8.236m0.948,59.534c-2.855,1.375 -5.778,2.42 -8.718,3.283c1.42,4.855 2.723,9.313 3.808,13.005c0.973,2.33 3.962,5.466 9.104,2.978c1.414,-0.561 2.809,-1.172 4.2,-1.838c11.155,-5.373 20.351,-13.144 27.374,-22.363c2.402,-3.55 1.823,-6.158 -0.957,-8.062c-3.366,-2.032 -7.432,-4.552 -11.844,-7.327c-5.471,8.475 -13.213,15.627 -22.967,20.324m2.01,6.97c2.17,-0.639 4.325,-1.41 6.424,-2.424c7.192,-3.463 12.904,-8.735 16.935,-14.982c1.95,0.612 3.155,0.826 5.726,2.286c-4.853,7.621 -11.773,14.054 -20.51,18.266c-2.52,1.214 -5.097,2.136 -7.691,2.898c-0.678,-3.359 -0.919,-4.706 -0.884,-6.044" style="fill:#fbad18;fill-rule:nonzero;" />
  <path d="M210.888,52.503c-0.437,-2.426 -9.376,1.558 -9.376,1.558c0,0 9.73,0.42 9.376,-1.558m-17.982,-0.439c0,0 11.143,-2.88 9.631,-4.91c-1.862,-2.491 -9.631,4.91 -9.631,4.91m8.589,-14.761c-1.408,-1.431 -6.706,6.743 -6.706,6.743c0,0 8.431,-4.981 6.706,-6.743m-13.063,5.366c0,0 5.484,-8.054 3.617,-8.793c-2.293,-0.91 -3.617,8.793 -3.617,8.793m-2.613,10.989c0,0 8.294,-6.144 5.966,-6.919c-2.864,-0.955 -5.966,6.919 -5.966,6.919m-2.012,-4.601c0,0 2.812,-11.161 0.304,-10.803c-3.078,0.439 -0.304,10.803 -0.304,10.803m-1.181,7.344c0,0.641 0.526,1.162 1.167,1.162c0.639,0 1.161,-0.521 1.161,-1.162c0,-0.642 -0.522,-1.165 -1.161,-1.165c-0.641,0 -1.167,0.523 -1.167,1.165m1.21,5.949c0,0 -2.809,11.161 -0.301,10.804c3.081,-0.442 0.301,-10.804 0.301,-10.804m-1.807,-2.755c0,0 -7.876,3.101 -6.921,5.965c0.777,2.328 6.921,-5.965 6.921,-5.965m-0.452,-5.937c0,0 -3.098,-7.874 -5.964,-6.919c-2.331,0.775 5.964,6.919 5.964,6.919m-1.656,-10.989c0,0 -1.321,-9.703 -3.614,-8.793c-1.871,0.739 3.614,8.793 3.614,8.793m-4.983,9.395c0,0 -7.77,-7.401 -9.633,-4.91c-1.513,2.03 9.633,4.91 9.633,4.91m-1.373,-8.018c0,0 -5.299,-8.174 -6.703,-6.743c-1.728,1.762 6.703,6.743 6.703,6.743m-6.721,10.015c0,0 -8.946,-3.984 -9.377,-1.558c-0.353,1.978 9.377,1.558 9.377,1.558m-9.461,5.651c0.377,2.439 9.41,-1.336 9.41,-1.336c0,0 -9.72,-0.646 -9.41,1.336m-17.296,79.013c-0.022,-2.018 -0.023,-3.524 -0.023,-3.524l0.851,-7.032l-0.029,-0.959l-2.317,2.66c0,0 -1.92,6.611 -1.92,7.888c0,0.33 0.044,1.018 0.107,1.852c1.104,-0.408 2.217,-0.7 3.331,-0.885m12.127,-53.189c0.642,-2.129 -1.275,-3.41 -2.983,-4.903c-0.477,-0.412 -0.825,-1.152 -1.223,-2.003l-0.049,0.009c0,0 0.009,-0.03 0.016,-0.081c-0.268,-0.574 -0.554,-1.186 -0.933,-1.811c-0.026,-0.043 -0.064,-0.085 -0.092,-0.127c0.81,-0.845 1.561,-2.147 1.615,-4.198c0.098,-3.715 -1.684,-6.433 -2.345,-6.254c-1.071,0.292 0.098,2.738 -0.684,4.201c-0.278,0.52 -0.784,1.153 -1.286,1.871c-0.115,-1.284 -0.544,-2.794 -1.546,-4.509c-3.324,-5.666 -5.375,-4.492 -4.497,-3.028c0.865,1.442 1.442,3.261 0.9,5.462c-0.573,-1.27 -1.534,-2.594 -3.144,-3.8c-5.473,-4.104 -5.966,-2.638 -5.966,-2.638c0,0 -0.29,0.587 1.762,1.956c1.861,1.237 2.583,2.569 2.124,4.768c-0.521,-0.438 -1.064,-0.835 -1.636,-1.156c-4.011,-2.247 -8.893,-2.637 -8.893,-2.637c0,0 -1.367,0.291 -0.095,0.974c1.272,0.689 5.18,1.175 5.667,4.399c0.035,0.237 0.067,0.544 0.111,0.884c-0.881,-0.378 -1.883,-0.691 -3.045,-0.884c-6.448,-1.077 -11.042,-0.487 -10.842,0.487c0.194,0.979 4.882,-0.391 7.52,1.27c1.46,0.919 1.91,2.105 3.186,3.164c-1.181,-0.161 -2.485,-0.182 -3.869,0.062c-4.984,0.878 -8.34,3.743 -7.622,4.1c0.785,0.392 3.715,-1.363 5.667,-1.363c1.31,0 1.492,1.003 4.012,1.406c-1.81,0.248 -3.733,0.773 -5.282,1.817c-4.199,2.83 -4.397,5.86 -4.003,5.86c0.391,0 0.585,0.098 1.369,-1.17c0.774,-1.271 3.416,-2.249 4.786,-1.271c0.523,0.374 1.126,0.631 1.804,0.749c-2.086,0.571 -4.53,1.639 -6.105,3.647c-2.15,2.735 -2.542,6.839 -1.269,7.226c0.837,0.26 1.663,-3.807 3.517,-3.905c1.116,-0.058 2.235,0.729 3.436,0.628c0.022,0.234 0.02,0.53 0.045,0.753c-1.238,1.319 -2.662,2.833 -3.871,4.09c-1.921,1.993 -2.736,2.932 -1.76,3.223c0.668,0.2 4.165,-2.259 6.341,-3.857c1.228,4.066 2.969,4.727 -0.26,9.183c-4.11,5.677 -8.31,3.786 -14.801,11.166c-0.107,0.137 -0.242,0.327 -0.357,0.476c-2.158,-0.23 -5.313,-0.182 -9.119,1.13c-2.36,0.811 -4.956,2.108 -7.689,4.132c-1.074,0.795 -3.635,3.03 -4.349,3.631c-2.714,2.282 -1.359,1.695 -1.114,2.113c0.206,0.352 0.813,0.326 0.813,0.326c0,0 7.328,-5.148 14.934,-5.917c0.005,-0.009 0.009,-0.013 0.014,-0.022c0.993,-0.102 1.976,-0.122 2.963,-0.05c-0.04,0.069 -0.082,0.134 -0.122,0.204c-0.886,0.025 -1.938,0.14 -3.145,0.379c0.003,-0.006 0.006,-0.015 0.01,-0.021c-0.237,0.046 -0.506,0.139 -0.752,0.197c-0.478,0.114 -0.942,0.219 -1.451,0.381c-0.453,0.144 -0.929,0.354 -1.402,0.543c-0.423,0.17 -0.832,0.309 -1.267,0.519c-0.606,0.292 -1.228,0.681 -1.85,1.06c-0.332,0.203 -0.655,0.354 -0.99,0.584c-0.963,0.661 -1.934,1.429 -2.898,2.343c-0.96,0.911 -2.896,3.428 -3.661,4.44c-1.53,2.024 -1.529,2.542 -1.744,3.756c-0.108,0.607 -0.008,1.012 0.347,1.114c0.166,0.047 0.435,-0.109 0.756,-0.352c0.061,-0.048 0.143,-0.12 0.21,-0.177c1.952,-1.617 6.217,-6.823 12.441,-8.818c0.965,-0.311 1.955,-0.559 3.012,-0.684c-0.138,0.355 -0.266,0.71 -0.392,1.063c-2.584,0.987 -6.059,2.739 -9.149,5.7c-0.096,0.092 -0.186,0.195 -0.281,0.289c-0.5,0.495 -0.987,1.019 -1.457,1.582c-0.187,0.224 -0.364,0.462 -0.545,0.697c-0.368,0.477 -0.72,0.974 -1.058,1.499c-0.197,0.305 -0.387,0.616 -0.572,0.938c-0.3,0.52 -0.575,1.069 -0.84,1.634c-0.168,0.356 -0.337,0.706 -0.489,1.081c-0.257,0.632 -0.472,1.307 -0.68,1.993c-0.108,0.353 -0.232,0.687 -0.325,1.055c-0.274,1.08 -0.496,2.211 -0.634,3.422c0,0 0.157,1.704 1.281,-0.309c0.16,-0.288 0.34,-0.651 0.543,-1.106c0.003,-0.008 0.009,-0.018 0.012,-0.025c0.174,-0.39 0.424,-0.867 0.702,-1.37c0.129,-0.23 0.279,-0.479 0.428,-0.726c0.158,-0.266 0.333,-0.543 0.513,-0.826c0.249,-0.383 0.505,-0.772 0.791,-1.175c0.058,-0.083 0.124,-0.167 0.183,-0.25c1.935,-2.672 4.634,-5.577 7.621,-7.081c0.001,-0.02 0.007,-0.035 0.008,-0.055c0.844,-0.426 1.708,-0.709 2.586,-0.869c-0.014,0.182 -0.041,0.358 -0.049,0.543c-0.733,0.325 -1.61,0.818 -2.566,1.475l0,-0.025c-0.05,0.034 -0.105,0.093 -0.155,0.128c-0.512,0.36 -1.021,0.799 -1.552,1.277c-0.271,0.241 -0.529,0.46 -0.799,0.735c-0.456,0.465 -0.886,1.026 -1.326,1.593c-0.302,0.387 -0.604,0.731 -0.892,1.17c-0.431,0.657 -0.806,1.449 -1.19,2.231c-0.235,0.477 -0.495,0.883 -0.707,1.409c-0.558,1.384 -1.038,2.919 -1.383,4.671c0,0 -1.014,4.047 -0.204,8.498c0,0 0.811,-2.631 1.822,-3.846c0.14,-0.167 0.398,-0.499 0.719,-0.917c0.111,-0.145 0.259,-0.34 0.389,-0.51c0.244,-0.32 0.496,-0.652 0.795,-1.049c0.199,-0.264 0.417,-0.554 0.636,-0.846c0.294,-0.391 0.595,-0.792 0.916,-1.221c0.242,-0.323 0.484,-0.646 0.737,-0.984c0.446,-0.597 0.902,-1.206 1.367,-1.828c0.014,-0.019 0.028,-0.037 0.041,-0.056c0.416,-0.971 0.915,-1.751 1.407,-2.514c-0.01,-0.042 -0.01,-0.094 -0.02,-0.137c0.959,-1.454 1.935,-2.475 2.63,-3.118c0.024,0.102 0.054,0.209 0.079,0.312c-1.2,1.586 -2.648,3.522 -4.096,5.457l0,0.001c-0.355,0.832 -0.639,1.74 -0.859,2.721c-0.119,0.511 -0.214,1.037 -0.282,1.587c-0.037,0.319 -0.068,0.636 -0.086,0.967c-0.054,0.934 -0.056,1.903 0.078,2.947c1.213,9.508 2.021,5.868 2.227,5.055c0.19,-0.771 1.326,-5.211 4.067,-7.901c0.131,-0.128 0.245,-0.272 0.383,-0.391c0.099,-0.086 0.128,-0.162 0.219,-0.247c0.341,-1.384 0.793,-2.458 1.232,-3.218c0.185,0.324 0.37,0.596 0.556,0.898c-0.348,0.709 -0.883,1.482 -1.788,2.32c-0.381,1.553 -0.614,3.474 -0.421,5.911c0,0 -0.015,0.109 -0.034,0.279c-0.013,0.11 -0.017,0.198 -0.034,0.377c-0.012,0.131 -0.019,0.255 -0.029,0.409c-0.013,0.192 -0.021,0.356 -0.025,0.566c-0.005,0.31 0.001,0.624 0.032,0.909c0.037,0.327 0.122,0.57 0.239,0.751c-8.72,3.258 -18.003,3.991 -23.05,4.117l-4.354,-0.295c0,0 9.567,6.774 26.739,3.106c0,0 5.534,-0.638 5.009,-5.14c13.849,-4.66 24.082,-12.973 30.833,-16.866c11.087,-6.395 15.35,-4.69 17.053,-0.851c1.708,3.836 -6.605,6.18 -6.605,6.18l1.488,1.92l1.399,3.248c0,0 7.981,-1.545 10.326,-6.873c3.673,-8.333 -0.637,-14.281 -11.296,-14.281c-10.66,0 -24.731,11.723 -38.801,21.315c-2.562,1.746 -5.374,3.131 -8.255,4.242c0.108,-0.269 0.213,-0.642 0.328,-1.067c0.253,-0.936 0.555,-2.047 1.058,-2.452c0.837,-0.67 2.302,-1.58 2.809,-4.119c1.338,1.627 2.34,2.528 2.352,2.539c0.002,0.002 0.003,0.003 0.005,0.005c0,0 -0.112,0.246 -0.241,0.598c7.186,-4.945 13.177,-10.378 18.748,-14.506c0.275,-2.267 -0.002,-4.923 -1.266,-7.985c0,0 -4.934,-9.582 -14.948,-1.481l-0.805,-2.469c3.625,-2.346 7.768,-4.375 12.672,-2.03c4.906,2.345 5.664,6.344 6.302,9.967c0.14,0.797 0.182,1.629 0.201,2.475c1.743,-1.192 3.467,-2.271 5.171,-3.08c-0.02,-0.399 -0.041,-0.8 -0.041,-1.099c0,-3.197 1.579,-10.931 1.579,-10.931c5.758,-1.916 8.015,-17.416 2.043,-24.24c-5.967,-6.82 -6.608,-10.657 -6.183,-13.854c0.428,-3.197 5.976,-9.803 5.976,-9.803c0,0 1.488,3.622 4.047,4.474c2.558,0.854 3.625,0.43 5.332,1.066c1.702,0.64 4.047,1.707 4.688,-0.427m-5.34,-3.577c0,0 -2.693,1.382 -2.38,-1.512c0,0 2.441,-0.905 2.38,1.512m-41.326,-4.781c0.125,-0.612 1.236,-2.965 0.425,-4.042c0,0 -4.222,-5.241 -5.882,0.625c-1.592,-0.096 -4.394,1.231 -3.256,1.423c0.072,0.008 0.129,0.022 0.197,0.038c0.114,0.187 1.454,0.229 2.513,0.412c-0.087,0.295 -0.17,0.602 -0.263,0.848c-0.552,0.199 -1.135,0.36 -1.521,0.299c-1.227,-0.194 -6.144,-2.071 -10.184,1.971c-0.31,0.31 1.231,0.191 2.091,0.332c0.859,0.134 2.591,0.411 3.423,0.802c0.843,0.401 -2.819,3.072 -4.533,2.667c-1.713,-0.4 -6.115,-2.595 -9.947,2.141c-0.276,0.342 5.537,-0.455 6.864,0.114c-0.601,0.855 -1.477,1.853 -3.247,2.284c-1.21,0.294 -6.483,-0.217 -9.191,4.812c-0.209,0.393 1.234,-0.168 2.099,-0.28c0.863,-0.12 2.6,-0.351 3.51,-0.215c0.922,0.141 -1.671,3.64 -3.431,3.744c-1.755,0.105 -7.043,0.555 -9.055,5.023c-0.191,0.427 5.87,-2.36 6.866,-1.841c0.995,0.524 -1.645,3.073 -3.185,4.23c-0.571,0.427 -4.965,-0.144 -5.753,6.794c-0.147,1.272 1.382,-0.709 2.457,-1.643c1.088,-0.933 2.056,-1.193 2.31,0.083c0.252,1.276 -3.04,4.199 -3.802,5.476c-0.753,1.284 0.116,4.289 -0.171,6.027c-0.286,1.744 0.487,1.116 0.896,0.669c0.419,-0.446 4.126,-4.089 4.015,-5.914c-0.109,-1.821 -0.226,-3.636 0.892,-3.791c1.115,-0.147 0.725,1.741 0.742,3.049c0.008,1.311 -1.387,3.442 0.373,1.913c4.342,-3.77 2.082,-8.511 1.746,-9.513c-0.324,-1.004 0.714,-4.863 1.805,-5.136c1.08,-0.28 0.443,0.985 1.254,2.453c0.793,1.461 0.782,1.986 0.718,3.572c-0.058,1.576 -1.233,2.656 0.654,1.352c1.86,-1.275 2.293,-2.388 2.293,-2.388c1.616,-2.078 -0.312,-5.335 -0.977,-8.006c-0.662,-2.657 2.736,-5.322 3.046,-4.446c0.3,0.876 0.99,4.885 0.666,6.37c-0.337,1.49 2.548,-2.376 2.548,-2.376c0.672,-1.501 0.811,-3.155 0.041,-4.367c-0.964,-1.513 -0.366,-3.27 0.497,-4.293c0.436,-0.423 0.866,-0.745 1.211,-0.729c1.112,0.039 1.471,3.833 0.955,5.335c-0.509,1.495 -1.945,2.189 0.238,1.484c2.149,-0.69 2.843,-1.797 2.843,-1.797c0.927,-1.111 0.798,-4.105 0.927,-6.856c0.133,-2.731 3.828,-4.23 3.869,-3.305c0.041,0.926 -0.453,4.963 -1.193,6.295c-0.442,0.782 1.128,0.116 2.494,-0.562l0.606,4.467c-1.594,-0.029 -4.122,0.218 -5.94,2.553c-0.192,0.246 0.925,-0.014 1.572,-0.016c0.652,-0.007 1.951,-0.018 2.611,0.147c0.664,0.175 -1.972,2.357 -3.277,2.281c-1.303,-0.073 -4.098,-1.449 -6.779,2.633c-0.173,0.258 4.006,-0.948 5.046,-0.716c-0.34,0.647 -0.864,1.421 -2.114,1.914c-0.851,0.34 -4.781,0.601 -6.176,4.308c-0.104,0.289 0.892,-0.255 1.512,-0.428c0.619,-0.184 1.865,-0.537 2.548,-0.549c0.695,-0.012 -1.283,2.389 -2.562,2.658c-1.272,0.275 -4.261,0.088 -5.561,4.696c-0.084,0.309 4.025,-2.269 4.824,-2.033c0.794,0.239 -1.047,3.052 -2.044,4.008c-0.368,0.355 -3.457,-0.314 -3.212,4.462c0.041,0.872 0.927,-0.639 1.609,-1.392c0.686,-0.756 1.363,-1.044 1.704,-0.21c0.334,0.833 -1.738,3.18 -2.143,4.135c-0.4,0.952 0.592,2.879 0.586,4.088c0,1.209 0.491,0.695 0.742,0.342c0.248,-0.347 1.565,-1.868 1.27,-3.086c-0.298,-1.219 0.376,-3.792 1.179,-4.026c0.802,-0.225 0.736,1.091 0.907,1.976c0.158,0.88 -0.717,2.397 0.499,1.245c3.722,-3.493 0.557,-5.786 0.195,-6.422c-0.353,-0.642 -0.095,-3.564 0.676,-3.874c0.757,-0.313 0.442,0.617 1.209,1.51c0.76,0.895 0.809,1.251 0.951,2.331c0.144,1.071 -0.589,1.932 0.642,0.836c1.213,-1.075 1.395,-1.88 1.395,-1.88c0.316,-1.146 -0.729,-3.499 -1.537,-5.223c-0.799,-1.719 1.254,-3.971 1.581,-3.415c0.328,0.557 1.307,3.181 1.245,4.218c-0.072,1.049 1.588,-1.894 1.588,-1.894c0.318,-1.091 0.807,-3.041 0.095,-3.772c-0.522,-0.536 -0.706,-1.052 -0.743,-1.513c0.107,-0.618 0.345,-1.197 0.821,-1.252c0.822,-0.102 1.532,2.418 1.333,3.488c-0.198,1.069 -1.171,1.702 0.349,0.976c1.495,-0.713 1.924,-1.431 1.924,-1.431c1.074,-0.965 -0.369,-2.799 -0.595,-4.67c-0.2,-1.655 2.02,-3.024 2.629,-2.884l0.346,2.545c-0.021,0.743 -0.081,1.471 -0.24,1.878c-0.121,0.299 0.127,0.255 0.505,0.077l0.102,0.751c0,0 0.146,0.102 0.232,0.161c-0.49,0.445 -0.927,0.964 -1.211,1.601c0,0 1.174,-0.878 2.311,-0.832c0.223,0.156 0.468,0.33 0.735,0.519c-0.455,0.571 -2.538,1.426 -3.835,2.37c-1.738,1.262 -2.053,3.791 -2.053,3.791c0,0 3.022,-2.587 4.111,-2.369c1.581,0.316 0.093,3.172 -1.963,4.438c-2.057,1.261 -3.73,1.728 -2.467,4.888c0,0 3.48,-4.9 3.637,-3.162c0.157,1.739 -2.213,2.846 -2.056,6.482c0,0 4.269,-1.899 3.796,-5.691c0,0 0.473,-3.005 1.107,-0.633c0.634,2.374 -0.316,3.952 -0.316,3.952c0,0 1.592,-0.796 1.118,-3.8c-0.337,-2.124 -0.644,-1.836 -0.644,-4.736c0,-1.422 2.056,-0.157 2.373,1.896c0.3,1.958 1.294,-2.941 0.297,-5.187c2.92,2.146 6.346,4.784 8.231,6.668l4.199,-2.272c0,0 -17.063,-4.877 -11.367,-33.058m20.298,81.356c-2.542,1.6 -5.316,3.231 -8.327,4.8l7.873,0c0.289,-2.55 1.992,-4.084 3.105,-4.805c-0.537,-0.138 -1.134,-0.205 -1.864,-0.095c-0.29,0.043 -0.518,0.064 -0.787,0.1m0.991,4.8l4.909,0c0,0 -0.162,-2.634 -1.819,-4.059c-1.768,0.903 -2.712,2.965 -3.09,4.059m9.168,-11.326c-1.066,0.647 -2.211,1.374 -3.435,2.175c1.878,3.794 2.316,9.091 2.316,9.091l1.69,0c0.393,-3.186 3.039,-4.78 3.816,-5.17c-1.812,-3.208 -4.383,-6.064 -4.383,-6.064c0,0 -0.004,-0.031 -0.004,-0.032m2.03,11.266l4.101,0c0.016,-1.204 -0.451,-2.585 -1.112,-3.959c-1.687,0.908 -2.604,2.868 -2.989,3.959m-0.103,-12.299c0,0 5.966,6.391 6.179,12.359l0.766,0c0.259,-2.286 1.66,-3.777 2.758,-4.575c-0.97,-1.89 -2.502,-4.203 -5.018,-6.719c0,0 -1.005,-0.893 -1.703,-2.813c-0.919,0.483 -1.95,1.065 -2.993,1.656l0.011,0.092Zm10.339,9.106c-1.05,1.026 -1.662,2.421 -1.949,3.253l2.909,0c0,0 -0.112,-1.251 -0.96,-3.253m14.347,-87.955c1.365,2.054 7.981,-5.168 7.981,-5.168c0,0 -9.096,3.498 -7.981,5.168m4.489,4.912c1.926,1.543 6.05,-7.338 6.05,-7.338c0,0 -7.616,6.08 -6.05,7.338m6.533,-16.061c0,0 -10.705,0.796 -10.103,3.848c0.492,2.484 10.103,-3.848 10.103,-3.848m6.131,-4.917c0,0 -8.166,-2.227 -9.11,0.637c-0.777,2.331 9.11,-0.637 9.11,-0.637m-0.516,10.759c0,0 -7.037,8.105 -4.457,9.847c2.095,1.42 4.457,-9.847 4.457,-9.847m0.897,8.308c0,0 -3.717,9.001 -1.742,9.344c2.432,0.423 1.742,-9.344 1.742,-9.344m5.931,-16.009c0,0 6.145,8.295 6.921,5.965c0.956,-2.863 -6.921,-5.965 -6.921,-5.965m2.12,16.009c0,0 -0.695,9.767 1.741,9.344c1.977,-0.343 -1.741,-9.344 -1.741,-9.344m0.389,-8.308c0,0 2.359,11.267 4.458,9.847c2.572,-1.742 -4.458,-9.847 -4.458,-9.847m8.357,-10.122c-0.951,-2.864 -9.113,-0.637 -9.113,-0.637c0,0 9.885,2.968 9.113,0.637m-2.745,4.28c0,0 9.616,6.332 10.103,3.848c0.602,-3.052 -10.103,-3.848 -10.103,-3.848m0.996,8.723c0,0 4.12,8.881 6.043,7.338c1.566,-1.258 -6.043,-7.338 -6.043,-7.338m10.533,2.426c1.114,-1.67 -7.977,-5.168 -7.977,-5.168c0,0 6.611,7.222 7.977,5.168m-4.175,-13.75c0,0 9.033,3.775 9.412,1.336c0.307,-1.982 -9.412,-1.336 -9.412,-1.336" style="fill:#fbad18;fill-rule:nonzero;" />
  <path d="M210.888,52.503c-0.437,-2.426 -9.376,1.558 -9.376,1.558c0,0 9.73,0.42 9.376,-1.558Zm-17.982,-0.439c0,0 11.143,-2.88 9.631,-4.91c-1.862,-2.491 -9.631,4.91 -9.631,4.91Zm8.589,-14.761c-1.408,-1.431 -6.706,6.743 -6.706,6.743c0,0 8.431,-4.981 6.706,-6.743Zm-13.063,5.366c0,0 5.484,-8.054 3.617,-8.793c-2.293,-0.91 -3.617,8.793 -3.617,8.793Zm-2.613,10.989c0,0 8.294,-6.144 5.966,-6.919c-2.864,-0.955 -5.966,6.919 -5.966,6.919Zm-2.012,-4.601c0,0 2.812,-11.161 0.304,-10.803c-3.078,0.439 -0.304,10.803 -0.304,10.803Zm-1.181,7.344c0,0.641 0.526,1.162 1.167,1.162c0.639,0 1.161,-0.521 1.161,-1.162c0,-0.642 -0.522,-1.165 -1.161,-1.165c-0.641,0 -1.167,0.523 -1.167,1.165Zm1.21,5.949c0,0 -2.809,11.161 -0.301,10.804c3.081,-0.442 0.301,-10.804 0.301,-10.804Zm-1.807,-2.755c0,0 -7.876,3.101 -6.921,5.965c0.777,2.328 6.921,-5.965 6.921,-5.965Zm-0.452,-5.937c0,0 -3.098,-7.874 -5.964,-6.919c-2.331,0.775 5.964,6.919 5.964,6.919Zm-1.656,-10.989c0,0 -1.321,-9.703 -3.614,-8.793c-1.871,0.739 3.614,8.793 3.614,8.793Zm-4.983,9.395c0,0 -7.77,-7.401 -9.633,-4.91c-1.513,2.03 9.633,4.91 9.633,4.91Zm-1.373,-8.018c0,0 -5.299,-8.174 -6.703,-6.743c-1.728,1.762 6.703,6.743 6.703,6.743Zm-6.721,10.015c0,0 -8.946,-3.984 -9.377,-1.558c-0.353,1.978 9.377,1.558 9.377,1.558Zm-9.461,5.651c0.377,2.439 9.41,-1.336 9.41,-1.336c0,0 -9.72,-0.646 -9.41,1.336Zm-17.296,79.013c-0.022,-2.018 -0.023,-3.524 -0.023,-3.524l0.851,-7.032l-0.029,-0.959l-2.317,2.66c0,0 -1.92,6.611 -1.92,7.888c0,0.33 0.044,1.018 0.107,1.852c1.104,-0.408 2.217,-0.7 3.331,-0.885Zm12.127,-53.189c0.642,-2.129 -1.275,-3.41 -2.983,-4.903c-0.477,-0.412 -0.825,-1.152 -1.223,-2.003l-0.049,0.009c0,0 0.009,-0.03 0.016,-0.081c-0.268,-0.574 -0.554,-1.186 -0.933,-1.811c-0.026,-0.043 -0.064,-0.085 -0.092,-0.127c0.81,-0.845 1.561,-2.147 1.615,-4.198c0.098,-3.715 -1.684,-6.433 -2.345,-6.254c-1.071,0.292 0.098,2.738 -0.684,4.201c-0.278,0.52 -0.784,1.153 -1.286,1.871c-0.115,-1.284 -0.544,-2.794 -1.546,-4.509c-3.324,-5.666 -5.375,-4.492 -4.497,-3.028c0.865,1.442 1.442,3.261 0.9,5.462c-0.573,-1.27 -1.534,-2.594 -3.144,-3.8c-5.473,-4.104 -5.966,-2.638 -5.966,-2.638c0,0 -0.29,0.587 1.762,1.956c1.861,1.237 2.583,2.569 2.124,4.768c-0.521,-0.438 -1.064,-0.835 -1.636,-1.156c-4.011,-2.247 -8.893,-2.637 -8.893,-2.637c0,0 -1.367,0.291 -0.095,0.974c1.272,0.689 5.18,1.175 5.667,4.399c0.035,0.237 0.067,0.544 0.111,0.884c-0.881,-0.378 -1.883,-0.691 -3.045,-0.884c-6.448,-1.077 -11.042,-0.487 -10.842,0.487c0.194,0.979 4.882,-0.391 7.52,1.27c1.46,0.919 1.91,2.105 3.186,3.164c-1.181,-0.161 -2.485,-0.182 -3.869,0.062c-4.984,0.878 -8.34,3.743 -7.622,4.1c0.785,0.392 3.715,-1.363 5.667,-1.363c1.31,0 1.492,1.003 4.012,1.406c-1.81,0.248 -3.733,0.773 -5.282,1.817c-4.199,2.83 -4.397,5.86 -4.003,5.86c0.391,0 0.585,0.098 1.369,-1.17c0.774,-1.271 3.416,-2.249 4.786,-1.271c0.523,0.374 1.126,0.631 1.804,0.749c-2.086,0.571 -4.53,1.639 -6.105,3.647c-2.15,2.735 -2.542,6.839 -1.269,7.226c0.837,0.26 1.663,-3.807 3.517,-3.905c1.116,-0.058 2.235,0.729 3.436,0.628c0.022,0.234 0.02,0.53 0.045,0.753c-1.238,1.319 -2.662,2.833 -3.871,4.09c-1.921,1.993 -2.736,2.932 -1.76,3.223c0.668,0.2 4.165,-2.259 6.341,-3.857c1.228,4.066 2.969,4.727 -0.26,9.183c-4.11,5.677 -8.31,3.786 -14.801,11.166c-0.107,0.137 -0.242,0.327 -0.357,0.476c-2.158,-0.23 -5.313,-0.182 -9.119,1.13c-2.36,0.811 -4.956,2.108 -7.689,4.132c-1.074,0.795 -3.635,3.03 -4.349,3.631c-2.714,2.282 -1.359,1.695 -1.114,2.113c0.206,0.352 0.813,0.326 0.813,0.326c0,0 7.328,-5.148 14.934,-5.917c0.005,-0.009 0.009,-0.013 0.014,-0.022c0.993,-0.102 1.976,-0.122 2.963,-0.05c-0.04,0.069 -0.082,0.134 -0.122,0.204c-0.886,0.025 -1.938,0.14 -3.145,0.379c0.003,-0.006 0.006,-0.015 0.01,-0.021c-0.237,0.046 -0.506,0.139 -0.752,0.197c-0.478,0.114 -0.942,0.219 -1.451,0.381c-0.453,0.144 -0.929,0.354 -1.402,0.543c-0.423,0.17 -0.832,0.309 -1.267,0.519c-0.606,0.292 -1.228,0.681 -1.85,1.06c-0.332,0.203 -0.655,0.354 -0.99,0.584c-0.963,0.661 -1.934,1.429 -2.898,2.343c-0.96,0.911 -2.896,3.428 -3.661,4.44c-1.53,2.024 -1.529,2.542 -1.744,3.756c-0.108,0.607 -0.008,1.012 0.347,1.114c0.166,0.047 0.435,-0.109 0.756,-0.352c0.061,-0.048 0.143,-0.12 0.21,-0.177c1.952,-1.617 6.217,-6.823 12.441,-8.818c0.965,-0.311 1.955,-0.559 3.012,-0.684c-0.138,0.355 -0.266,0.71 -0.392,1.063c-2.584,0.987 -6.059,2.739 -9.149,5.7c-0.096,0.092 -0.186,0.195 -0.281,0.289c-0.5,0.495 -0.987,1.019 -1.457,1.582c-0.187,0.224 -0.364,0.462 -0.545,0.697c-0.368,0.477 -0.72,0.974 -1.058,1.499c-0.197,0.305 -0.387,0.616 -0.572,0.938c-0.3,0.52 -0.575,1.069 -0.84,1.634c-0.168,0.356 -0.337,0.706 -0.489,1.081c-0.257,0.632 -0.472,1.307 -0.68,1.993c-0.108,0.353 -0.232,0.687 -0.325,1.055c-0.274,1.08 -0.496,2.211 -0.634,3.422c0,0 0.157,1.704 1.281,-0.309c0.16,-0.288 0.34,-0.651 0.543,-1.106c0.003,-0.008 0.009,-0.018 0.012,-0.025c0.174,-0.39 0.424,-0.867 0.702,-1.37c0.129,-0.23 0.279,-0.479 0.428,-0.726c0.158,-0.266 0.333,-0.543 0.513,-0.826c0.249,-0.383 0.505,-0.772 0.791,-1.175c0.058,-0.083 0.124,-0.167 0.183,-0.25c1.935,-2.672 4.634,-5.577 7.621,-7.081c0.001,-0.02 0.007,-0.035 0.008,-0.055c0.844,-0.426 1.708,-0.709 2.586,-0.869c-0.014,0.182 -0.041,0.358 -0.049,0.543c-0.733,0.325 -1.61,0.818 -2.566,1.475l0,-0.025c-0.05,0.034 -0.105,0.093 -0.155,0.128c-0.512,0.36 -1.021,0.799 -1.552,1.277c-0.271,0.241 -0.529,0.46 -0.799,0.735c-0.456,0.465 -0.886,1.026 -1.326,1.593c-0.302,0.387 -0.604,0.731 -0.892,1.17c-0.431,0.657 -0.806,1.449 -1.19,2.231c-0.235,0.477 -0.495,0.883 -0.707,1.409c-0.558,1.384 -1.038,2.919 -1.383,4.671c0,0 -1.014,4.047 -0.204,8.498c0,0 0.811,-2.631 1.822,-3.846c0.14,-0.167 0.398,-0.499 0.719,-0.917c0.111,-0.145 0.259,-0.34 0.389,-0.51c0.244,-0.32 0.496,-0.652 0.795,-1.049c0.199,-0.264 0.417,-0.554 0.636,-0.846c0.294,-0.391 0.595,-0.792 0.916,-1.221c0.242,-0.323 0.484,-0.646 0.737,-0.984c0.446,-0.597 0.902,-1.206 1.367,-1.828c0.014,-0.019 0.028,-0.037 0.041,-0.056c0.416,-0.971 0.915,-1.751 1.407,-2.514c-0.01,-0.042 -0.01,-0.094 -0.02,-0.137c0.959,-1.454 1.935,-2.475 2.63,-3.118c0.024,0.102 0.054,0.209 0.079,0.312c-1.2,1.586 -2.648,3.522 -4.096,5.457l0,0.001c-0.355,0.832 -0.639,1.74 -0.859,2.721c-0.119,0.511 -0.214,1.037 -0.282,1.587c-0.037,0.319 -0.068,0.636 -0.086,0.967c-0.054,0.934 -0.056,1.903 0.078,2.947c1.213,9.508 2.021,5.868 2.227,5.055c0.19,-0.771 1.326,-5.211 4.067,-7.901c0.131,-0.128 0.245,-0.272 0.383,-0.391c0.099,-0.086 0.128,-0.162 0.219,-0.247c0.341,-1.384 0.793,-2.458 1.232,-3.218c0.185,0.324 0.37,0.596 0.556,0.898c-0.348,0.709 -0.883,1.482 -1.788,2.32c-0.381,1.553 -0.614,3.474 -0.421,5.911c0,0 -0.015,0.109 -0.034,0.279c-0.013,0.11 -0.017,0.198 -0.034,0.377c-0.012,0.131 -0.019,0.255 -0.029,0.409c-0.013,0.192 -0.021,0.356 -0.025,0.566c-0.005,0.31 0.001,0.624 0.032,0.909c0.037,0.327 0.122,0.57 0.239,0.751c-8.72,3.258 -18.003,3.991 -23.05,4.117l-4.354,-0.295c0,0 9.567,6.774 26.739,3.106c0,0 5.534,-0.638 5.009,-5.14c13.849,-4.66 24.082,-12.973 30.833,-16.866c11.087,-6.395 15.35,-4.69 17.053,-0.851c1.708,3.836 -6.605,6.18 -6.605,6.18l1.488,1.92l1.399,3.248c0,0 7.981,-1.545 10.326,-6.873c3.673,-8.333 -0.637,-14.281 -11.296,-14.281c-10.66,0 -24.731,11.723 -38.801,21.315c-2.562,1.746 -5.374,3.131 -8.255,4.242c0.108,-0.269 0.213,-0.642 0.328,-1.067c0.253,-0.936 0.555,-2.047 1.058,-2.452c0.837,-0.67 2.302,-1.58 2.809,-4.119c1.338,1.627 2.34,2.528 2.352,2.539c0.002,0.002 0.003,0.003 0.005,0.005c0,0 -0.112,0.246 -0.241,0.598c7.186,-4.945 13.177,-10.378 18.748,-14.506c0.275,-2.267 -0.002,-4.923 -1.266,-7.985c0,0 -4.934,-9.582 -14.948,-1.481l-0.805,-2.469c3.625,-2.346 7.768,-4.375 12.672,-2.03c4.906,2.345 5.664,6.344 6.302,9.967c0.14,0.797 0.182,1.629 0.201,2.475c1.743,-1.192 3.467,-2.271 5.171,-3.08c-0.02,-0.399 -0.041,-0.8 -0.041,-1.099c0,-3.197 1.579,-10.931 1.579,-10.931c5.758,-1.916 8.015,-17.416 2.043,-24.24c-5.967,-6.82 -6.608,-10.657 -6.183,-13.854c0.428,-3.197 5.976,-9.803 5.976,-9.803c0,0 1.488,3.622 4.047,4.474c2.558,0.854 3.625,0.43 5.332,1.066c1.702,0.64 4.047,1.707 4.688,-0.427Zm-5.34,-3.577c0,0 -2.693,1.382 -2.38,-1.512c0,0 2.441,-0.905 2.38,1.512Zm-41.326,-4.781c0.125,-0.612 1.236,-2.965 0.425,-4.042c0,0 -4.222,-5.241 -5.882,0.625c-1.592,-0.096 -4.394,1.231 -3.256,1.423c0.072,0.008 0.129,0.022 0.197,0.038c0.114,0.187 1.454,0.229 2.513,0.412c-0.087,0.295 -0.17,0.602 -0.263,0.848c-0.552,0.199 -1.135,0.36 -1.521,0.299c-1.227,-0.194 -6.144,-2.071 -10.184,1.971c-0.31,0.31 1.231,0.191 2.091,0.332c0.859,0.134 2.591,0.411 3.423,0.802c0.843,0.401 -2.819,3.072 -4.533,2.667c-1.713,-0.4 -6.115,-2.595 -9.947,2.141c-0.276,0.342 5.537,-0.455 6.864,0.114c-0.601,0.855 -1.477,1.853 -3.247,2.284c-1.21,0.294 -6.483,-0.217 -9.191,4.812c-0.209,0.393 1.234,-0.168 2.099,-0.28c0.863,-0.12 2.6,-0.351 3.51,-0.215c0.922,0.141 -1.671,3.64 -3.431,3.744c-1.755,0.105 -7.043,0.555 -9.055,5.023c-0.191,0.427 5.87,-2.36 6.866,-1.841c0.995,0.524 -1.645,3.073 -3.185,4.23c-0.571,0.427 -4.965,-0.144 -5.753,6.794c-0.147,1.272 1.382,-0.709 2.457,-1.643c1.088,-0.933 2.056,-1.193 2.31,0.083c0.252,1.276 -3.04,4.199 -3.802,5.476c-0.753,1.284 0.116,4.289 -0.171,6.027c-0.286,1.744 0.487,1.116 0.896,0.669c0.419,-0.446 4.126,-4.089 4.015,-5.914c-0.109,-1.821 -0.226,-3.636 0.892,-3.791c1.115,-0.147 0.725,1.741 0.742,3.049c0.008,1.311 -1.387,3.442 0.373,1.913c4.342,-3.77 2.082,-8.511 1.746,-9.513c-0.324,-1.004 0.714,-4.863 1.805,-5.136c1.08,-0.28 0.443,0.985 1.254,2.453c0.793,1.461 0.782,1.986 0.718,3.572c-0.058,1.576 -1.233,2.656 0.654,1.352c1.86,-1.275 2.293,-2.388 2.293,-2.388c1.616,-2.078 -0.312,-5.335 -0.977,-8.006c-0.662,-2.657 2.736,-5.322 3.046,-4.446c0.3,0.876 0.99,4.885 0.666,6.37c-0.337,1.49 2.548,-2.376 2.548,-2.376c0.672,-1.501 0.811,-3.155 0.041,-4.367c-0.964,-1.513 -0.366,-3.27 0.497,-4.293c0.436,-0.423 0.866,-0.745 1.211,-0.729c1.112,0.039 1.471,3.833 0.955,5.335c-0.509,1.495 -1.945,2.189 0.238,1.484c2.149,-0.69 2.843,-1.797 2.843,-1.797c0.927,-1.111 0.798,-4.105 0.927,-6.856c0.133,-2.731 3.828,-4.23 3.869,-3.305c0.041,0.926 -0.453,4.963 -1.193,6.295c-0.442,0.782 1.128,0.116 2.494,-0.562l0.606,4.467c-1.594,-0.029 -4.122,0.218 -5.94,2.553c-0.192,0.246 0.925,-0.014 1.572,-0.016c0.652,-0.007 1.951,-0.018 2.611,0.147c0.664,0.175 -1.972,2.357 -3.277,2.281c-1.303,-0.073 -4.098,-1.449 -6.779,2.633c-0.173,0.258 4.006,-0.948 5.046,-0.716c-0.34,0.647 -0.864,1.421 -2.114,1.914c-0.851,0.34 -4.781,0.601 -6.176,4.308c-0.104,0.289 0.892,-0.255 1.512,-0.428c0.619,-0.184 1.865,-0.537 2.548,-0.549c0.695,-0.012 -1.283,2.389 -2.562,2.658c-1.272,0.275 -4.261,0.088 -5.561,4.696c-0.084,0.309 4.025,-2.269 4.824,-2.033c0.794,0.239 -1.047,3.052 -2.044,4.008c-0.368,0.355 -3.457,-0.314 -3.212,4.462c0.041,0.872 0.927,-0.639 1.609,-1.392c0.686,-0.756 1.363,-1.044 1.704,-0.21c0.334,0.833 -1.738,3.18 -2.143,4.135c-0.4,0.952 0.592,2.879 0.586,4.088c0,1.209 0.491,0.695 0.742,0.342c0.248,-0.347 1.565,-1.868 1.27,-3.086c-0.298,-1.219 0.376,-3.792 1.179,-4.026c0.802,-0.225 0.736,1.091 0.907,1.976c0.158,0.88 -0.717,2.397 0.499,1.245c3.722,-3.493 0.557,-5.786 0.195,-6.422c-0.353,-0.642 -0.095,-3.564 0.676,-3.874c0.757,-0.313 0.442,0.617 1.209,1.51c0.76,0.895 0.809,1.251 0.951,2.331c0.144,1.071 -0.589,1.932 0.642,0.836c1.213,-1.075 1.395,-1.88 1.395,-1.88c0.316,-1.146 -0.729,-3.499 -1.537,-5.223c-0.799,-1.719 1.254,-3.971 1.581,-3.415c0.328,0.557 1.307,3.181 1.245,4.218c-0.072,1.049 1.588,-1.894 1.588,-1.894c0.318,-1.091 0.807,-3.041 0.095,-3.772c-0.522,-0.536 -0.706,-1.052 -0.743,-1.513c0.107,-0.618 0.345,-1.197 0.821,-1.252c0.822,-0.102 1.532,2.418 1.333,3.488c-0.198,1.069 -1.171,1.702 0.349,0.976c1.495,-0.713 1.924,-1.431 1.924,-1.431c1.074,-0.965 -0.369,-2.799 -0.595,-4.67c-0.2,-1.655 2.02,-3.024 2.629,-2.884l0.346,2.545c-0.021,0.743 -0.081,1.471 -0.24,1.878c-0.121,0.299 0.127,0.255 0.505,0.077l0.102,0.751c0,0 0.146,0.102 0.232,0.161c-0.49,0.445 -0.927,0.964 -1.211,1.601c0,0 1.174,-0.878 2.311,-0.832c0.223,0.156 0.468,0.33 0.735,0.519c-0.455,0.571 -2.538,1.426 -3.835,2.37c-1.738,1.262 -2.053,3.791 -2.053,3.791c0,0 3.022,-2.587 4.111,-2.369c1.581,0.316 0.093,3.172 -1.963,4.438c-2.057,1.261 -3.73,1.728 -2.467,4.888c0,0 3.48,-4.9 3.637,-3.162c0.157,1.739 -2.213,2.846 -2.056,6.482c0,0 4.269,-1.899 3.796,-5.691c0,0 0.473,-3.005 1.107,-0.633c0.634,2.374 -0.316,3.952 -0.316,3.952c0,0 1.592,-0.796 1.118,-3.8c-0.337,-2.124 -0.644,-1.836 -0.644,-4.736c0,-1.422 2.056,-0.157 2.373,1.896c0.3,1.958 1.294,-2.941 0.297,-5.187c2.92,2.146 6.346,4.784 8.231,6.668l4.199,-2.272c0,0 -17.063,-4.877 -11.367,-33.058Zm20.298,81.356c-2.542,1.6 -5.316,3.231 -8.327,4.8l7.873,0c0.289,-2.55 1.992,-4.084 3.105,-4.805c-0.537,-0.138 -1.134,-0.205 -1.864,-0.095c-0.29,0.043 -0.518,0.064 -0.787,0.1Zm0.991,4.8l4.909,0c0,0 -0.162,-2.634 -1.819,-4.059c-1.768,0.903 -2.712,2.965 -3.09,4.059Zm9.168,-11.326c-1.066,0.647 -2.211,1.374 -3.435,2.175c1.878,3.794 2.316,9.091 2.316,9.091l1.69,0c0.393,-3.186 3.039,-4.78 3.816,-5.17c-1.812,-3.208 -4.383,-6.064 -4.383,-6.064c0,0 -0.004,-0.031 -0.004,-0.032Zm2.03,11.266l4.101,0c0.016,-1.204 -0.451,-2.585 -1.112,-3.959c-1.687,0.908 -2.604,2.868 -2.989,3.959Zm-0.103,-12.299c0,0 5.966,6.391 6.179,12.359l0.766,0c0.259,-2.286 1.66,-3.777 2.758,-4.575c-0.97,-1.89 -2.502,-4.203 -5.018,-6.719c0,0 -1.005,-0.893 -1.703,-2.813c-0.919,0.483 -1.95,1.065 -2.993,1.656l0.011,0.092Zm10.339,9.106c-1.05,1.026 -1.662,2.421 -1.949,3.253l2.909,0c0,0 -0.112,-1.251 -0.96,-3.253Zm14.347,-87.955c1.365,2.054 7.981,-5.168 7.981,-5.168c0,0 -9.096,3.498 -7.981,5.168Zm4.489,4.912c1.926,1.543 6.05,-7.338 6.05,-7.338c0,0 -7.616,6.08 -6.05,7.338Zm6.533,-16.061c0,0 -10.705,0.796 -10.103,3.848c0.492,2.484 10.103,-3.848 10.103,-3.848Zm6.131,-4.917c0,0 -8.166,-2.227 -9.11,0.637c-0.777,2.331 9.11,-0.637 9.11,-0.637Zm-0.516,10.759c0,0 -7.037,8.105 -4.457,9.847c2.095,1.42 4.457,-9.847 4.457,-9.847Zm0.897,8.308c0,0 -3.717,9.001 -1.742,9.344c2.432,0.423 1.742,-9.344 1.742,-9.344Zm5.931,-16.009c0,0 6.145,8.295 6.921,5.965c0.956,-2.863 -6.921,-5.965 -6.921,-5.965Zm2.12,16.009c0,0 -0.695,9.767 1.741,9.344c1.977,-0.343 -1.741,-9.344 -1.741,-9.344Zm0.389,-8.308c0,0 2.359,11.267 4.458,9.847c2.572,-1.742 -4.458,-9.847 -4.458,-9.847Zm8.357,-10.122c-0.951,-2.864 -9.113,-0.637 -9.113,-0.637c0,0 9.885,2.968 9.113,0.637Zm-2.745,4.28c0,0 9.616,6.332 10.103,3.848c0.602,-3.052 -10.103,-3.848 -10.103,-3.848Zm0.996,8.723c0,0 4.12,8.881 6.043,7.338c1.566,-1.258 -6.043,-7.338 -6.043,-7.338Zm10.533,2.426c1.114,-1.67 -7.977,-5.168 -7.977,-5.168c0,0 6.611,7.222 7.977,5.168Zm-4.175,-13.75c0,0 9.033,3.775 9.412,1.336c0.307,-1.982 -9.412,-1.336 -9.412,-1.336Z" style="fill:none;fill-rule:nonzero;stroke:#e86720;stroke-width:14.58px;" />
  <path d="M211.114,52.338c-0.438,-2.434 -9.405,1.563 -9.405,1.563c0,0 9.76,0.422 9.405,-1.563m-18.037,-0.441c0,0 11.177,-2.889 9.66,-4.926c-1.867,-2.499 -9.66,4.926 -9.66,4.926m8.615,-14.808c-1.412,-1.436 -6.727,6.765 -6.727,6.765c0,0 8.458,-4.998 6.727,-6.765m-13.103,5.383c0,0 5.5,-8.08 3.628,-8.822c-2.3,-0.913 -3.628,8.822 -3.628,8.822m-2.621,11.024c0,0 8.32,-6.163 5.984,-6.941c-2.873,-0.958 -5.984,6.941 -5.984,6.941m-2.018,-4.615c0,0 2.821,-11.197 0.304,-10.839c-3.087,0.441 -0.304,10.839 -0.304,10.839m-1.185,7.368c0,0.642 0.528,1.166 1.171,1.166c0.64,0 1.164,-0.524 1.164,-1.166c0,-0.644 -0.524,-1.169 -1.164,-1.169c-0.643,0 -1.171,0.525 -1.171,1.169m1.214,5.968c0,0 -2.818,11.198 -0.302,10.839c3.09,-0.443 0.302,-10.839 0.302,-10.839m-1.812,-2.763c0,0 -7.901,3.111 -6.943,5.984c0.779,2.335 6.943,-5.984 6.943,-5.984m-0.454,-5.958c0,0 -3.108,-7.899 -5.983,-6.941c-2.338,0.778 5.983,6.941 5.983,6.941m-1.661,-11.024c0,0 -1.325,-9.735 -3.625,-8.822c-1.877,0.742 3.625,8.822 3.625,8.822m-4.999,9.425c0,0 -7.793,-7.425 -9.662,-4.926c-1.518,2.037 9.662,4.926 9.662,4.926m-1.377,-8.043c0,0 -5.315,-8.201 -6.724,-6.765c-1.732,1.767 6.724,6.765 6.724,6.765m-6.741,10.047c0,0 -8.974,-3.997 -9.407,-1.563c-0.354,1.985 9.407,1.563 9.407,1.563m-9.491,5.67c0.378,2.446 9.44,-1.341 9.44,-1.341c0,0 -9.751,-0.648 -9.44,1.341m-17.349,79.271c-0.022,-2.025 -0.023,-3.536 -0.023,-3.536l0.854,-7.055l-0.029,-0.962l-2.324,2.669c0,0 -1.926,6.632 -1.926,7.913c0,0.332 0.043,1.022 0.107,1.858c1.107,-0.409 2.224,-0.702 3.341,-0.887m12.164,-53.364c0.645,-2.135 -1.278,-3.42 -2.992,-4.918c-0.478,-0.413 -0.828,-1.156 -1.226,-2.01l-0.049,0.01c0,0 0.008,-0.031 0.015,-0.082c-0.268,-0.576 -0.555,-1.19 -0.935,-1.817c-0.026,-0.043 -0.065,-0.085 -0.093,-0.127c0.812,-0.848 1.566,-2.154 1.621,-4.212c0.098,-3.727 -1.69,-6.454 -2.353,-6.275c-1.074,0.294 0.098,2.748 -0.686,4.215c-0.279,0.522 -0.787,1.157 -1.29,1.877c-0.115,-1.288 -0.545,-2.803 -1.551,-4.523c-3.334,-5.685 -5.391,-4.507 -4.511,-3.038c0.868,1.447 1.447,3.271 0.903,5.48c-0.574,-1.274 -1.539,-2.602 -3.154,-3.813c-5.489,-4.117 -5.984,-2.646 -5.984,-2.646c0,0 -0.29,0.589 1.767,1.962c1.868,1.241 2.591,2.577 2.131,4.784c-0.522,-0.439 -1.068,-0.838 -1.64,-1.16c-4.024,-2.254 -8.921,-2.646 -8.921,-2.646c0,0 -1.371,0.292 -0.096,0.977c1.276,0.692 5.196,1.179 5.685,4.414c0.035,0.238 0.067,0.546 0.111,0.886c-0.884,-0.379 -1.888,-0.693 -3.054,-0.886c-6.468,-1.081 -11.076,-0.489 -10.876,0.488c0.195,0.982 4.898,-0.391 7.544,1.274c1.464,0.922 1.915,2.112 3.196,3.175c-1.186,-0.162 -2.493,-0.182 -3.881,0.062c-4.999,0.88 -8.366,3.755 -7.645,4.114c0.786,0.393 3.725,-1.368 5.684,-1.368c1.314,0 1.496,1.006 4.023,1.411c-1.815,0.248 -3.744,0.775 -5.297,1.822c-4.212,2.84 -4.41,5.88 -4.015,5.88c0.391,0 0.586,0.098 1.372,-1.174c0.777,-1.275 3.427,-2.256 4.801,-1.275c0.525,0.375 1.129,0.632 1.81,0.751c-2.093,0.573 -4.544,1.644 -6.124,3.659c-2.156,2.744 -2.55,6.861 -1.273,7.25c0.84,0.26 1.668,-3.82 3.527,-3.918c1.12,-0.058 2.243,0.731 3.448,0.63c0.022,0.235 0.019,0.532 0.045,0.756c-1.242,1.323 -2.671,2.842 -3.883,4.103c-1.928,1.999 -2.745,2.941 -1.766,3.234c0.67,0.2 4.178,-2.267 6.361,-3.87c1.232,4.079 2.978,4.742 -0.261,9.213c-4.123,5.695 -8.335,3.798 -14.847,11.203c-0.107,0.137 -0.243,0.327 -0.357,0.477c-2.165,-0.231 -5.329,-0.183 -9.148,1.134c-2.367,0.813 -4.971,2.115 -7.712,4.145c-1.077,0.798 -3.647,3.04 -4.363,3.643c-2.722,2.289 -1.363,1.701 -1.117,2.12c0.206,0.353 0.815,0.326 0.815,0.326c0,0 7.351,-5.164 14.981,-5.935c0.005,-0.009 0.009,-0.014 0.014,-0.023c0.996,-0.102 1.981,-0.122 2.971,-0.05c-0.039,0.07 -0.082,0.134 -0.122,0.205c-0.889,0.025 -1.944,0.14 -3.155,0.38c0.004,-0.006 0.006,-0.015 0.01,-0.021c-0.237,0.047 -0.508,0.14 -0.754,0.198c-0.479,0.114 -0.945,0.219 -1.455,0.382c-0.455,0.144 -0.933,0.355 -1.407,0.545c-0.424,0.17 -0.834,0.31 -1.271,0.521c-0.608,0.292 -1.231,0.682 -1.855,1.063c-0.333,0.203 -0.658,0.355 -0.993,0.585c-0.966,0.664 -1.94,1.434 -2.907,2.352c-0.963,0.914 -2.905,3.439 -3.673,4.454c-1.534,2.03 -1.533,2.55 -1.749,3.768c-0.108,0.609 -0.007,1.016 0.348,1.118c0.167,0.047 0.436,-0.109 0.758,-0.353c0.062,-0.048 0.144,-0.121 0.211,-0.178c1.958,-1.623 6.236,-6.845 12.479,-8.847c0.968,-0.312 1.962,-0.561 3.021,-0.686c-0.137,0.356 -0.266,0.712 -0.393,1.067c-2.592,0.989 -6.078,2.747 -9.177,5.718c-0.096,0.092 -0.186,0.195 -0.282,0.29c-0.501,0.497 -0.989,1.023 -1.461,1.588c-0.188,0.224 -0.365,0.463 -0.547,0.698c-0.369,0.479 -0.722,0.978 -1.061,1.504c-0.198,0.306 -0.388,0.618 -0.574,0.941c-0.301,0.522 -0.576,1.073 -0.842,1.64c-0.168,0.357 -0.338,0.708 -0.491,1.084c-0.257,0.634 -0.474,1.312 -0.682,2c-0.108,0.355 -0.233,0.689 -0.326,1.059c-0.274,1.083 -0.498,2.218 -0.636,3.432c0,0 0.158,1.71 1.285,-0.31c0.161,-0.288 0.342,-0.653 0.545,-1.109c0.003,-0.008 0.009,-0.018 0.012,-0.026c0.175,-0.391 0.425,-0.869 0.705,-1.374c0.128,-0.231 0.279,-0.48 0.428,-0.728c0.159,-0.267 0.334,-0.545 0.515,-0.829c0.249,-0.384 0.506,-0.774 0.793,-1.178c0.058,-0.084 0.124,-0.168 0.184,-0.252c1.941,-2.68 4.648,-5.595 7.644,-7.104c0.002,-0.02 0.007,-0.035 0.008,-0.054c0.847,-0.428 1.713,-0.712 2.594,-0.873c-0.013,0.183 -0.04,0.359 -0.048,0.546c-0.736,0.325 -1.616,0.82 -2.575,1.479c0.001,-0.008 0,-0.017 0.001,-0.025c-0.051,0.034 -0.106,0.093 -0.157,0.128c-0.512,0.362 -1.024,0.802 -1.556,1.282c-0.271,0.241 -0.531,0.462 -0.802,0.737c-0.456,0.466 -0.888,1.03 -1.33,1.598c-0.302,0.388 -0.605,0.734 -0.894,1.174c-0.432,0.66 -0.808,1.454 -1.194,2.238c-0.236,0.479 -0.497,0.886 -0.709,1.414c-0.56,1.388 -1.041,2.928 -1.387,4.686c0,0 -1.017,4.06 -0.205,8.526c0,0 0.814,-2.64 1.828,-3.858c0.14,-0.168 0.399,-0.501 0.721,-0.92c0.112,-0.146 0.26,-0.342 0.39,-0.512c0.245,-0.322 0.497,-0.655 0.797,-1.052c0.201,-0.266 0.418,-0.556 0.639,-0.849c0.294,-0.393 0.596,-0.795 0.919,-1.226c0.242,-0.323 0.485,-0.648 0.739,-0.987c0.447,-0.599 0.904,-1.21 1.371,-1.834c0.014,-0.019 0.027,-0.037 0.041,-0.055c0.417,-0.975 0.918,-1.758 1.411,-2.523c-0.01,-0.043 -0.01,-0.095 -0.02,-0.138c0.962,-1.458 1.941,-2.483 2.639,-3.128c0.024,0.103 0.053,0.21 0.079,0.313c-1.204,1.592 -2.657,3.534 -4.109,5.476l0,0.001c-0.356,0.834 -0.641,1.745 -0.862,2.729c-0.119,0.513 -0.215,1.04 -0.282,1.593c-0.037,0.319 -0.069,0.637 -0.087,0.97c-0.054,0.937 -0.056,1.908 0.078,2.956c1.217,9.539 2.027,5.887 2.234,5.072c0.19,-0.774 1.33,-5.228 4.08,-7.927c0.131,-0.129 0.246,-0.273 0.384,-0.393c0.099,-0.085 0.128,-0.162 0.22,-0.247c0.341,-1.389 0.795,-2.466 1.235,-3.229c0.186,0.325 0.371,0.598 0.558,0.901c-0.349,0.712 -0.885,1.487 -1.793,2.328c-0.383,1.558 -0.617,3.485 -0.423,5.93c0,0 -0.015,0.11 -0.033,0.28c-0.013,0.11 -0.018,0.198 -0.035,0.378c-0.012,0.131 -0.019,0.256 -0.029,0.41c-0.013,0.193 -0.021,0.358 -0.025,0.568c-0.005,0.312 0,0.626 0.032,0.912c0.037,0.328 0.122,0.572 0.24,0.754c-8.747,3.268 -18.059,4.004 -23.121,4.131l-4.367,-0.297c0,0 9.596,6.797 26.821,3.116c0,0 5.551,-0.639 5.024,-5.156c13.892,-4.676 24.156,-13.016 30.928,-16.922c11.121,-6.416 15.397,-4.705 17.105,-0.853c1.714,3.849 -6.625,6.2 -6.625,6.2l1.493,1.926l1.403,3.258c0,0 8.005,-1.549 10.358,-6.895c3.684,-8.36 -0.64,-14.327 -11.331,-14.327c-10.693,0 -24.807,11.761 -38.92,21.384c-2.57,1.752 -5.391,3.142 -8.281,4.256c0.109,-0.27 0.214,-0.644 0.329,-1.07c0.254,-0.939 0.557,-2.054 1.062,-2.461c0.839,-0.672 2.309,-1.584 2.817,-4.132c1.342,1.632 2.347,2.537 2.359,2.547c0.003,0.002 0.004,0.004 0.006,0.005c0,0 -0.113,0.247 -0.242,0.6c7.208,-4.961 13.217,-10.411 18.806,-14.553c0.275,-2.275 -0.003,-4.94 -1.27,-8.011c0,0 -4.95,-9.614 -14.994,-1.486l-0.808,-2.477c3.636,-2.354 7.791,-4.389 12.711,-2.037c4.921,2.353 5.681,6.366 6.321,10c0.141,0.8 0.183,1.634 0.202,2.483c1.748,-1.196 3.477,-2.279 5.187,-3.09c-0.02,-0.4 -0.041,-0.803 -0.041,-1.103c0,-3.207 1.583,-10.966 1.583,-10.966c5.777,-1.922 8.041,-17.474 2.05,-24.319c-5.986,-6.843 -6.628,-10.692 -6.202,-13.899c0.429,-3.209 5.994,-9.836 5.994,-9.836c0,0 1.493,3.634 4.06,4.489c2.565,0.856 3.636,0.431 5.348,1.069c1.707,0.642 4.06,1.713 4.702,-0.429m-5.356,-3.588c0,0 -2.701,1.387 -2.387,-1.517c0,0 2.448,-0.907 2.387,1.517m-41.453,-4.796c0.125,-0.614 1.24,-2.975 0.427,-4.055c0,0 -4.236,-5.259 -5.901,0.626c-1.597,-0.096 -4.407,1.236 -3.266,1.428c0.073,0.008 0.13,0.023 0.198,0.038c0.114,0.188 1.458,0.23 2.52,0.414c-0.087,0.295 -0.17,0.604 -0.264,0.85c-0.553,0.2 -1.137,0.361 -1.525,0.301c-1.231,-0.196 -6.163,-2.079 -10.215,1.976c-0.311,0.311 1.234,0.192 2.097,0.333c0.862,0.135 2.599,0.413 3.433,0.805c0.846,0.403 -2.827,3.082 -4.547,2.676c-1.718,-0.401 -6.133,-2.603 -9.977,2.149c-0.277,0.343 5.554,-0.458 6.885,0.114c-0.602,0.858 -1.481,1.858 -3.257,2.291c-1.213,0.295 -6.503,-0.218 -9.219,4.827c-0.209,0.395 1.237,-0.168 2.105,-0.28c0.866,-0.121 2.609,-0.353 3.521,-0.216c0.925,0.141 -1.676,3.652 -3.441,3.756c-1.761,0.105 -7.065,0.557 -9.083,5.04c-0.192,0.428 5.887,-2.368 6.887,-1.847c0.998,0.525 -1.65,3.083 -3.195,4.244c-0.573,0.428 -4.98,-0.144 -5.77,6.815c-0.148,1.277 1.386,-0.711 2.464,-1.648c1.091,-0.936 2.062,-1.196 2.317,0.084c0.253,1.28 -3.049,4.212 -3.814,5.494c-0.754,1.288 0.116,4.303 -0.171,6.047c-0.287,1.749 0.489,1.119 0.898,0.67c0.421,-0.447 4.139,-4.102 4.028,-5.933c-0.109,-1.827 -0.227,-3.648 0.895,-3.803c1.118,-0.148 0.726,1.746 0.744,3.059c0.008,1.315 -1.391,3.453 0.374,1.919c4.356,-3.782 2.088,-8.538 1.752,-9.544c-0.325,-1.007 0.715,-4.879 1.81,-5.153c1.084,-0.281 0.444,0.988 1.258,2.461c0.795,1.465 0.784,1.992 0.72,3.584c-0.058,1.581 -1.237,2.665 0.656,1.356c1.865,-1.279 2.3,-2.396 2.3,-2.396c1.622,-2.084 -0.312,-5.353 -0.98,-8.032c-0.664,-2.665 2.744,-5.339 3.055,-4.46c0.302,0.879 0.993,4.901 0.668,6.391c-0.338,1.494 2.556,-2.385 2.556,-2.385c0.674,-1.505 0.814,-3.165 0.041,-4.38c-0.967,-1.518 -0.367,-3.281 0.499,-4.307c0.437,-0.425 0.869,-0.748 1.215,-0.732c1.115,0.04 1.475,3.846 0.958,5.353c-0.511,1.499 -1.951,2.196 0.238,1.488c2.156,-0.692 2.853,-1.802 2.853,-1.802c0.929,-1.116 0.8,-4.119 0.929,-6.879c0.133,-2.74 3.84,-4.244 3.881,-3.316c0.041,0.929 -0.454,4.98 -1.196,6.316c-0.445,0.785 1.13,0.116 2.5,-0.564l0.609,4.481c-1.599,-0.029 -4.134,0.219 -5.959,2.562c-0.192,0.246 0.928,-0.014 1.577,-0.016c0.654,-0.008 1.958,-0.019 2.619,0.148c0.667,0.174 -1.978,2.364 -3.287,2.288c-1.307,-0.073 -4.11,-1.454 -6.799,2.641c-0.174,0.259 4.018,-0.951 5.061,-0.718c-0.341,0.649 -0.867,1.426 -2.12,1.921c-0.854,0.341 -4.796,0.603 -6.195,4.321c-0.105,0.291 0.894,-0.255 1.516,-0.429c0.621,-0.185 1.871,-0.538 2.556,-0.551c0.697,-0.011 -1.287,2.397 -2.57,2.667c-1.276,0.276 -4.274,0.089 -5.578,4.711c-0.084,0.31 4.038,-2.276 4.839,-2.04c0.796,0.24 -1.051,3.062 -2.05,4.022c-0.37,0.356 -3.468,-0.316 -3.222,4.476c0.041,0.875 0.929,-0.641 1.613,-1.396c0.689,-0.759 1.368,-1.048 1.71,-0.211c0.335,0.835 -1.743,3.19 -2.149,4.148c-0.402,0.955 0.593,2.889 0.587,4.101c0,1.214 0.493,0.698 0.744,0.345c0.249,-0.349 1.571,-1.875 1.274,-3.097c-0.298,-1.223 0.377,-3.805 1.183,-4.039c0.805,-0.226 0.738,1.094 0.91,1.983c0.158,0.882 -0.719,2.404 0.501,1.249c3.733,-3.505 0.558,-5.806 0.195,-6.443c-0.354,-0.644 -0.095,-3.576 0.677,-3.887c0.76,-0.315 0.445,0.618 1.214,1.515c0.762,0.898 0.811,1.254 0.954,2.338c0.144,1.075 -0.591,1.939 0.644,0.839c1.217,-1.078 1.399,-1.886 1.399,-1.886c0.317,-1.15 -0.731,-3.511 -1.542,-5.24c-0.801,-1.725 1.258,-3.984 1.586,-3.427c0.329,0.56 1.311,3.192 1.249,4.233c-0.073,1.052 1.593,-1.901 1.593,-1.901c0.319,-1.095 0.809,-3.051 0.095,-3.784c-0.524,-0.538 -0.708,-1.056 -0.746,-1.518c0.108,-0.62 0.347,-1.201 0.824,-1.256c0.825,-0.102 1.537,2.425 1.337,3.499c-0.198,1.073 -1.174,1.708 0.351,0.979c1.499,-0.715 1.929,-1.436 1.929,-1.436c1.077,-0.967 -0.37,-2.808 -0.596,-4.685c-0.201,-1.66 2.026,-3.034 2.637,-2.893l0.346,2.553c-0.021,0.746 -0.081,1.476 -0.241,1.884c-0.12,0.3 0.128,0.257 0.507,0.077l0.103,0.755c0,0 0.147,0.101 0.233,0.161c-0.492,0.446 -0.931,0.967 -1.215,1.606c0,0 1.177,-0.881 2.318,-0.835c0.224,0.157 0.469,0.331 0.737,0.521c-0.456,0.573 -2.546,1.431 -3.847,2.378c-1.744,1.266 -2.059,3.803 -2.059,3.803c0,0 3.032,-2.595 4.123,-2.377c1.586,0.317 0.094,3.183 -1.969,4.452c-2.062,1.266 -3.741,1.734 -2.474,4.905c0,0 3.491,-4.916 3.648,-3.173c0.157,1.746 -2.219,2.856 -2.062,6.503c0,0 4.282,-1.905 3.808,-5.709c0,0 0.474,-3.015 1.11,-0.635c0.636,2.381 -0.317,3.965 -0.317,3.965c0,0 1.597,-0.798 1.121,-3.813c-0.338,-2.13 -0.645,-1.842 -0.645,-4.751c0,-1.427 2.062,-0.157 2.379,1.902c0.301,1.965 1.299,-2.95 0.299,-5.203c2.929,2.152 6.365,4.799 8.256,6.689l4.212,-2.279c0,0 -17.115,-4.893 -11.402,-33.166m20.36,81.621c-2.549,1.606 -5.332,3.242 -8.352,4.816l7.897,0c0.289,-2.558 1.999,-4.097 3.115,-4.821c-0.539,-0.138 -1.138,-0.205 -1.871,-0.095c-0.29,0.043 -0.518,0.064 -0.789,0.1m0.994,4.816l4.925,0c0,0 -0.163,-2.642 -1.826,-4.072c-1.773,0.905 -2.72,2.974 -3.099,4.072m9.196,-11.363c-1.069,0.649 -2.217,1.378 -3.445,2.182c1.884,3.807 2.323,9.121 2.323,9.121l1.696,0c0.394,-3.197 3.048,-4.796 3.827,-5.187c-1.817,-3.219 -4.397,-6.083 -4.397,-6.083c0,0 -0.003,-0.032 -0.004,-0.033m2.037,11.303l4.113,0c0.016,-1.208 -0.451,-2.593 -1.115,-3.972c-1.692,0.911 -2.612,2.877 -2.998,3.972m-0.104,-12.339c0,0 5.985,6.412 6.199,12.399l0.768,0c0.26,-2.293 1.665,-3.789 2.767,-4.59c-0.973,-1.896 -2.51,-4.217 -5.034,-6.74c0,0 -1.008,-0.897 -1.708,-2.823c-0.922,0.485 -1.957,1.068 -3.003,1.661l0.011,0.093Zm10.371,9.135c-1.053,1.029 -1.666,2.43 -1.955,3.264l2.918,0c0,0 -0.112,-1.255 -0.963,-3.264m14.392,-88.242c1.369,2.061 8.005,-5.185 8.005,-5.185c0,0 -9.124,3.51 -8.005,5.185m4.502,4.928c1.932,1.548 6.068,-7.362 6.068,-7.362c0,0 -7.639,6.1 -6.068,7.362m6.554,-16.113c0,0 -10.739,0.798 -10.135,3.86c0.494,2.492 10.135,-3.86 10.135,-3.86m6.149,-4.934c0,0 -8.191,-2.234 -9.138,0.639c-0.779,2.339 9.138,-0.639 9.138,-0.639m-0.517,10.795c0,0 -7.058,8.131 -4.471,9.879c2.101,1.424 4.471,-9.879 4.471,-9.879m0.899,8.335c0,0 -3.728,9.03 -1.747,9.375c2.439,0.423 1.747,-9.375 1.747,-9.375m5.95,-16.062c0,0 6.164,8.323 6.942,5.985c0.959,-2.872 -6.942,-5.985 -6.942,-5.985m2.126,16.062c0,0 -0.697,9.798 1.747,9.375c1.983,-0.345 -1.747,-9.375 -1.747,-9.375m0.39,-8.335c0,0 2.367,11.303 4.473,9.879c2.579,-1.748 -4.473,-9.879 -4.473,-9.879m8.383,-10.156c-0.953,-2.873 -9.141,-0.639 -9.141,-0.639c0,0 9.915,2.978 9.141,0.639m-2.754,4.295c0,0 9.646,6.352 10.135,3.86c0.604,-3.062 -10.135,-3.86 -10.135,-3.86m1,8.751c0,0 4.132,8.91 6.062,7.362c1.57,-1.262 -6.062,-7.362 -6.062,-7.362m10.566,2.434c1.117,-1.675 -8.002,-5.185 -8.002,-5.185c0,0 6.631,7.246 8.002,5.185m-4.189,-13.795c0,0 9.061,3.787 9.442,1.341c0.307,-1.989 -9.442,-1.341 -9.442,-1.341" style="fill:#fff;fill-rule:nonzero;" />
</svg>
