<?xml version="1.0" encoding="UTF-8" standalone="no"?>
<svg width="100%" height="100%" viewBox="0 0 274 200" version="1.1" xmlns="http://www.w3.org/2000/svg" xmlns:xlink="http://www.w3.org/1999/xlink" xml:space="preserve" xmlns:serif="http://www.serif.com/" style="fill-rule:evenodd;clip-rule:evenodd;stroke-linecap:round;stroke-linejoin:round;">
  <path d="M271.611,80.465c2.313,-4.35 2.498,-10.733 -3.334,-13.88c-4.603,-2.484 -11.063,-1.599 -18.302,2.329c-3.452,1.327 -5.743,2.852 -8.984,6.155c-0.648,0.533 -1.3,1.094 -1.953,1.668c12.468,-23.75 14.162,-43.819 5.055,-53.131c-7.239,-7.407 -16.751,-4.377 -22.288,0.97c-5.165,4.99 -6.346,13.553 -0.818,19.189c5.406,5.513 14.054,4.368 15.414,-2.912c0.947,-5.086 -4.538,-7.428 -7.155,-3.966c-1.258,1.664 -5.048,-1.606 -3.332,-5.319c2.353,-5.091 12.968,-10.738 18.54,0.3c4.986,9.874 -1.83,28.426 -11.731,41.964c-11.333,-42.511 -50.084,-73.832 -96.165,-73.832c-46.081,0 -84.831,31.321 -96.164,73.832c-9.902,-13.538 -16.717,-32.09 -11.731,-41.964c5.572,-11.038 16.186,-5.391 18.539,-0.3c1.717,3.713 -2.073,6.983 -3.331,5.319c-2.617,-3.462 -8.103,-1.12 -7.155,3.966c1.36,7.28 10.008,8.425 15.414,2.912c5.528,-5.636 4.347,-14.199 -0.818,-19.189c-5.538,-5.347 -15.049,-8.377 -22.288,-0.97c-9.108,9.312 -7.414,29.381 5.054,53.131c-0.653,-0.574 -1.304,-1.135 -1.953,-1.668c-3.24,-3.303 -5.531,-4.828 -8.983,-6.155c-7.239,-3.928 -13.7,-4.813 -18.302,-2.329c-5.833,3.147 -5.647,9.53 -3.334,13.88c2.158,4.057 7.216,6.293 11.658,3.887c4.343,-2.353 5.165,-7.873 0.927,-9.994c-2.961,-1.48 -5.369,1.481 -3.701,3.702c0.801,1.067 -1.878,2.821 -3.859,1.11c-2.716,-2.345 -4.318,-9.869 3.454,-11.35c3.041,-0.58 6.705,0.527 10.416,2.659c9.044,7.138 14.189,16.319 15.562,29.053c-1.495,13.864 -7.467,23.512 -18.068,30.903c-2.832,1.261 -5.558,1.824 -7.91,1.376c-7.772,-1.481 -6.17,-9.005 -3.454,-11.35c1.981,-1.711 4.66,0.043 3.859,1.11c-1.668,2.221 0.74,5.182 3.701,3.702c4.238,-2.12 3.416,-7.641 -0.927,-9.994c-4.442,-2.406 -9.5,-0.169 -11.658,3.887c-2.313,4.35 -2.499,10.734 3.334,13.88c6.723,3.629 17.406,0.065 28.697,-9.684c-11.978,23.297 -13.488,42.919 -4.513,52.097c7.239,7.407 16.75,4.378 22.288,-0.97c5.165,-4.99 6.346,-13.552 0.818,-19.189c-5.406,-5.512 -14.054,-4.368 -15.414,2.912c-0.948,5.086 4.538,7.428 7.155,3.966c1.258,-1.664 5.048,1.606 3.331,5.319c-2.353,5.091 -12.967,10.739 -18.539,-0.301c-4.986,-9.874 1.829,-28.424 11.73,-41.963c11.334,42.51 50.084,73.833 96.165,73.833c46.081,0 84.832,-31.323 96.165,-73.833c9.901,13.539 16.717,32.089 11.731,41.963c-5.572,11.04 -16.187,5.392 -18.54,0.301c-1.716,-3.713 2.074,-6.983 3.332,-5.319c2.617,3.462 8.102,1.12 7.155,-3.966c-1.36,-7.28 -10.008,-8.424 -15.414,-2.912c-5.528,5.637 -4.347,14.199 0.818,19.189c5.537,5.348 15.049,8.377 22.288,0.97c8.975,-9.178 7.465,-28.8 -4.513,-52.097c11.291,9.749 21.974,13.313 28.697,9.684c5.832,-3.146 5.647,-9.53 3.334,-13.88c-2.158,-4.056 -7.216,-6.293 -11.658,-3.887c-4.344,2.353 -5.165,7.874 -0.927,9.994c2.961,1.48 5.369,-1.481 3.701,-3.702c-0.802,-1.067 1.878,-2.821 3.859,-1.11c2.716,2.345 4.317,9.869 -3.455,11.35c-2.352,0.448 -5.078,-0.115 -7.909,-1.376c-10.601,-7.391 -16.573,-17.039 -18.068,-30.903c1.373,-12.734 6.518,-21.915 15.562,-29.053c3.711,-2.132 7.375,-3.239 10.415,-2.659c7.772,1.481 6.171,9.005 3.455,11.35c-1.981,1.711 -4.661,-0.043 -3.859,-1.11c1.668,-2.221 -0.74,-5.182 -3.701,-3.702c-4.238,2.121 -3.417,7.641 0.927,9.994c4.442,2.406 9.5,0.17 11.658,-3.887" style="fill:#0095da;fill-rule:nonzero;" />
  <path d="M224.651,99.534c0,-48.654 -39.444,-88.095 -88.096,-88.095c-48.65,0 -88.091,39.441 -88.091,88.095c0,48.653 39.441,88.093 88.091,88.093c48.652,0 88.096,-39.44 88.096,-88.093m-6.386,0c0,45.124 -36.581,81.707 -81.71,81.707c-45.127,0 -81.71,-36.583 -81.71,-81.707c0,-45.128 36.583,-81.709 81.71,-81.709c45.129,0 81.71,36.581 81.71,81.709m-9.237,-17.779c-1.267,-4.055 -3.648,-5.215 -6.826,-4.243c-3.653,1.353 -8.115,2.945 -12.981,4.646c3.177,9.462 3.937,19.872 1.547,30.321c-0.703,3.059 -1.692,5.966 -2.843,8.776c4.638,1.897 8.895,3.638 12.424,5.077c2.403,0.69 6.672,0.309 7.925,-5.207c0.433,-1.437 0.825,-2.9 1.162,-4.382c2.732,-11.95 2.401,-23.866 -0.408,-34.988m-3.374,28.958c-0.614,2.701 -1.493,5.262 -2.502,7.749c-3.022,-1.553 -4.209,-2.198 -5.226,-3.057c0.847,-2.067 1.578,-4.213 2.097,-6.471c1.754,-7.695 1.199,-15.374 -1.145,-22.346c1.675,-1.134 2.588,-1.935 5.297,-3.024c2.909,8.462 3.617,17.788 1.479,27.149m-7.675,-54.141c-0.847,-1.235 -1.743,-2.451 -2.69,-3.643c-7.65,-9.585 -17.168,-16.751 -27.615,-21.498c-3.957,-1.535 -6.349,-0.397 -7.574,2.696c-1.213,3.699 -2.758,8.178 -4.47,13.044c9.394,3.417 17.996,9.316 24.674,17.697c1.961,2.452 3.617,5.042 5.096,7.692c4.374,-2.44 8.39,-4.682 11.712,-6.544c2.035,-1.449 4.399,-5.026 0.867,-9.444m-4.753,2.528c-3.092,1.391 -4.34,1.922 -5.644,2.181c-1.088,-1.954 -2.306,-3.863 -3.749,-5.672c-4.924,-6.176 -11.279,-10.524 -18.192,-13.044c0.165,-2.016 0.1,-3.229 0.95,-6.027c8.421,3.003 16.159,8.263 22.145,15.771c1.724,2.165 3.18,4.451 4.49,6.791m-39.903,-6.439c-2.834,7.959 -5.927,16.449 -8.693,23.981c4.008,1.485 7.687,4.015 10.541,7.6c0.842,1.059 1.556,2.182 2.2,3.328c7.018,-3.91 14.906,-8.309 22.275,-12.422c-1.315,-2.354 -2.775,-4.648 -4.509,-6.825c-5.913,-7.409 -13.52,-12.629 -21.814,-15.662m-7.579,-8.489c0.819,-4.943 1.564,-9.479 2.185,-13.235c0.139,-2.5 -1.184,-6.581 -6.842,-6.571c-1.497,-0.102 -3.002,-0.157 -4.532,-0.157c-12.259,0 -23.798,2.974 -34.019,8.189c-3.67,2.134 -4.268,4.711 -2.613,7.598c2.137,3.258 4.674,7.253 7.42,11.622c8.515,-5.205 18.495,-8.263 29.212,-8.263c3.14,0 6.193,0.32 9.189,0.817m-5.119,-14.332c-0.847,3.288 -1.207,4.593 -1.817,5.778c-2.208,-0.368 -4.456,-0.607 -6.774,-0.607c-7.902,0 -15.252,2.255 -21.533,6.093c-1.477,-1.382 -2.463,-2.093 -4.124,-4.498c7.599,-4.714 16.533,-7.484 26.133,-7.484c2.766,0 5.47,0.286 8.115,0.718m-41.793,27.638c-3.353,-3.718 -6.432,-7.132 -8.985,-9.96c-1.868,-1.665 -5.879,-3.177 -9.399,1.253c-1.018,1.105 -2.001,2.249 -2.954,3.442c-7.647,9.582 -12.514,20.465 -14.809,31.702c-0.621,4.206 1.028,6.278 4.308,6.786c3.883,0.359 8.588,0.864 13.718,1.446c1.239,-9.907 5.071,-19.615 11.752,-27.995c1.961,-2.45 4.115,-4.636 6.369,-6.674m-10.493,0.267c-1.659,1.503 -3.251,3.114 -4.694,4.92c-4.924,6.179 -7.749,13.335 -8.662,20.64c-2.001,0.295 -3.169,0.618 -6.088,0.423c1.048,-8.883 4.455,-17.596 10.442,-25.104c1.731,-2.167 3.633,-4.093 5.62,-5.893c2.049,2.709 2.843,3.807 3.382,5.014m-26.624,53.652c0.232,1.48 0.51,2.968 0.85,4.45c2.727,11.956 8.2,22.544 15.559,31.352c2.894,3.098 5.535,3.112 7.987,0.859c2.701,-2.808 6.026,-6.178 9.682,-9.822c-6.973,-7.149 -12.171,-16.198 -14.557,-26.646c-0.698,-3.06 -1.063,-6.108 -1.247,-9.142c-5,0.302 -9.595,0.585 -13.393,0.817c-2.463,0.423 -6.151,2.619 -4.881,8.132m6.431,-0.875c3.393,0.087 4.748,0.151 6.032,0.483c0.139,2.231 0.403,4.479 0.921,6.736c1.76,7.704 5.59,14.373 10.726,19.644c-1.012,1.746 -1.489,2.862 -3.461,5.019c-6.287,-6.359 -10.978,-14.457 -13.115,-23.819c-0.615,-2.695 -0.941,-5.389 -1.103,-8.063m27.537,45.683c-1.205,2.187 -1.792,6.437 3.313,8.885c1.307,0.743 2.642,1.448 4.016,2.111c11.043,5.317 22.732,7.644 34.2,7.382c4.229,-0.333 5.893,-2.392 5.655,-5.711c-0.505,-3.862 -1.066,-8.562 -1.638,-13.689c-9.935,0.989 -20.255,-0.585 -29.912,-5.239c-2.823,-1.357 -5.436,-2.975 -7.922,-4.718c-2.88,4.097 -5.521,7.86 -7.712,10.979m7.168,3.489c2.185,-2.596 3.072,-3.614 4.135,-4.413c1.828,1.287 3.756,2.479 5.839,3.482c7.12,3.427 14.725,4.591 22.052,3.858c0.725,1.883 1.309,2.955 1.757,5.84c-8.894,0.952 -18.143,-0.431 -26.791,-4.596c-2.494,-1.206 -4.807,-2.632 -6.992,-4.171m33.704,-76.363c-8.946,0 -16.205,7.253 -16.205,16.201c0,8.947 7.259,16.202 16.205,16.202c8.948,0 16.198,-7.255 16.198,-16.202c0,-8.948 -7.25,-16.201 -16.198,-16.201m0,-33.59c-9.475,0 -18.302,2.695 -25.842,7.292c4.453,7.18 9.161,14.883 13.328,21.743c3.657,-2.205 7.931,-3.5 12.514,-3.5c1.36,0 2.678,0.138 3.979,0.351c1.31,-7.928 2.789,-16.832 4.172,-25.162c-2.658,-0.437 -5.368,-0.724 -8.151,-0.724m-38.577,18.573c-5.909,7.414 -9.302,15.995 -10.41,24.752c8.39,0.995 17.352,2.115 25.317,3.14c0.544,-4.239 2.202,-8.385 5.062,-11.968c0.844,-1.062 1.777,-2.007 2.749,-2.891c-5.377,-5.966 -11.419,-12.677 -17.066,-18.948c-2.001,1.801 -3.917,3.744 -5.652,5.915m24.819,50.171c-4.623,6.571 -9.824,13.956 -14.683,20.861c2.206,1.546 4.527,2.982 7.027,4.189c8.543,4.109 17.664,5.512 26.45,4.645c-0.892,-8.406 -1.799,-17.385 -2.576,-25.377c-4.254,0.401 -8.659,-0.284 -12.789,-2.273c-1.227,-0.59 -2.355,-1.29 -3.429,-2.045m-21.488,15.144c6.009,-5.942 12.474,-12.246 18.231,-17.833c-2.962,-3.071 -5.173,-6.954 -6.196,-11.421c-0.301,-1.321 -0.459,-2.642 -0.539,-3.951c-8.021,0.482 -17.032,1.019 -25.464,1.529c0.167,2.687 0.493,5.393 1.114,8.105c2.106,9.239 6.698,17.243 12.854,23.571m45.574,-13.097c-1.224,0.587 -2.471,1.035 -3.738,1.402c2.253,7.715 4.787,16.379 7.157,24.485c2.585,-0.758 5.152,-1.675 7.655,-2.881c8.538,-4.114 15.326,-10.368 20.116,-17.782c-7.123,-4.537 -14.708,-9.435 -21.439,-13.81c-2.333,3.577 -5.621,6.598 -9.751,8.586m12.245,-29.127c1.344,4.057 1.655,8.507 0.641,12.979c-0.309,1.322 -0.737,2.578 -1.236,3.795c7.437,3.048 15.79,6.469 23.605,9.668c1.017,-2.493 1.899,-5.068 2.52,-7.782c2.108,-9.237 1.445,-18.442 -1.353,-26.813c-7.998,2.743 -16.552,5.616 -24.177,8.153m0.938,58.938c-2.826,1.362 -5.72,2.397 -8.631,3.251c1.406,4.806 2.696,9.219 3.77,12.874c0.964,2.308 3.923,5.413 9.014,2.949c1.4,-0.555 2.78,-1.16 4.158,-1.819c11.043,-5.32 20.147,-13.013 27.099,-22.14c2.378,-3.515 1.806,-6.096 -0.946,-7.981c-3.333,-2.011 -7.358,-4.507 -11.726,-7.254c-5.417,8.39 -13.081,15.471 -22.738,20.12m1.99,6.901c2.148,-0.632 4.282,-1.396 6.36,-2.399c7.121,-3.429 12.775,-8.648 16.766,-14.833c1.93,0.606 3.123,0.818 5.669,2.263c-4.805,7.546 -11.656,13.914 -20.306,18.084c-2.494,1.202 -5.045,2.114 -7.613,2.868c-0.672,-3.324 -0.91,-4.658 -0.876,-5.983" style="fill:#54b6e7;fill-rule:nonzero;" />
  <path d="M206.797,44.369l-7.417,4.148l0.816,-5.594l-1.357,-1.742l-1.722,1.26l-1.173,7.997l-5.594,3.129l-2.264,-1.306l0,-7.102l6.408,-4.427l0.364,-2.102l-2.162,-0.449l-4.61,3.19l0,-7.978l-1.505,-1.607l-1.611,1.607l0,8.198l-4.928,-3.41l-2.187,0.305l0.39,2.246l6.706,4.634l0.019,-0.004l0,6.959l-2,1.154l-6.16,-3.784l-0.369,-7.887l-1.698,-1.515l-1.416,1.693l0.272,5.736l-6.867,-4.218l-2.132,0.58l0.495,2.076l6.907,4.242l-5.372,2.323l-0.767,2.072l1.977,0.797l7.409,-3.197l5.655,3.473l0,2.983l-6.314,3.532l-7.147,-2.889l-2.089,0.909l0.945,1.99l4.801,1.941l-6.451,3.608l-0.531,2.144l2.053,0.578l7.23,-4.045l-0.15,6.35l1.557,1.564l1.558,-1.459l0.194,-8.152l-0.041,-0.046l5.442,-3.044l3.009,1.735l0,6.212l-0.019,-0.004l-6.706,4.637l-0.39,2.243l2.187,0.305l4.928,-3.406l0,8.138l1.611,1.505l1.505,-1.505l0,-7.918l4.61,3.186l2.162,-0.443l-0.364,-2.105l-6.408,-4.431l0,-6.354l2.811,-1.621l5.088,3.125l-0.009,7.812l1.623,1.597l1.499,-1.621l0.007,-5.872l7.141,4.387l2.161,-0.442l-0.528,-2.214l-6.915,-4.248l5.344,-2.009l0.863,-2.03l-1.935,-0.902l-7.634,2.873l-0.001,0.003l-5.347,-3.285l0,-3.105l5.169,-2.892l6.905,3.826l2.177,-0.65l-0.695,-2.095l-5.184,-2.872l7.693,-4.303l0.665,-2.098l-2.187,-0.62Zm-17.944,14.884l-2.272,1.318l-2.276,-1.318l0,-2.623l2.276,-1.312l2.272,1.312l0,2.623Zm-30.465,24.875c0,0 -0.859,0.959 -2.118,2.285c-0.286,-1.105 -1.233,-4.702 -1.4,-4.474c-0.512,0.69 -1.722,3.121 -2.638,5.018c-0.367,-0.498 -0.774,-1.153 -1.244,-2.329c-0.327,-0.816 0.059,-2 -0.255,-2.945c-0.479,-1.436 -1.722,-2.673 -2.742,-4.017c0,0 -0.69,-0.707 -1.912,-1.539c-2.647,-3.297 -9.527,-11.674 -10.228,-10.556c-0.283,0.452 -0.397,3.258 -0.429,6.306c-3.65,-3.126 -10.515,-8.777 -10.527,-7.059c-0.007,0.815 1.297,5.165 2.699,9.574c1.534,0.327 3.177,0.675 5.018,1.054l3.164,0.544l-1.348,1.24c-6.867,-1.322 -20.007,-3.04 -19.967,-2.758c0.091,0.675 4.777,4.319 8.441,6.467l7.525,4.495l-1.764,1.437l-4.023,-2.43c-0.77,-0.539 -1.666,-1.187 -2.597,-1.869c-5.646,1.208 -12.042,2.715 -11.672,3.286c0.46,0.682 11.76,3.715 13.727,4.138c0.189,0.041 0.355,0.08 0.525,0.121c0.926,-0.435 1.826,-0.857 2.941,-1.39l1.568,-0.787l-0.685,1.938c-5.89,3.02 -11.599,4.05 -11.458,5.325c0.046,0.443 5.807,0.594 8.129,0.567l3.112,-0.026l-0.377,1.037l-1.873,-0.052c-3.061,1.728 -10.097,5.763 -9.555,6.049c0.476,0.243 8.349,-0.721 9.69,-0.944c0.455,-0.075 0.85,-0.13 1.207,-0.177c0.038,4.026 -1.433,7.572 -7.519,10.382c0,0 -1.134,-0.225 -2.897,-0.157c1.213,5.832 4.71,10.28 4.71,10.28c-2.752,-1.666 -5.592,-6.748 -7.208,-9.997c-0.065,0.012 -0.115,0.011 -0.181,0.024c-0.244,-0.515 -0.503,-0.972 -0.737,-1.508c-1.154,-2.633 -2.174,-5.519 -2.843,-8.513c-2.669,-11.979 -0.033,-20.213 -2.709,-21.859c-3.971,-2.446 -5.942,3.354 -10.89,6.034c-10.198,5.515 -21.141,18.76 -32.566,40.232c0,0 0.135,-0.088 0.333,-0.219c9.897,-18.451 42.152,-52.313 41.225,-34.137c-0.971,19.039 9.476,28.838 9.476,28.838c-5.587,-3.073 -11.175,-14.557 -10.936,-20.997c0.62,-17.393 -9.962,-4.477 -15.064,-0.84c-6.816,4.863 -18.44,19.68 -23.505,26.346c1.767,-1.171 4.449,-2.962 4.551,-3.109c1.941,-2.801 1.089,7.286 1.456,6.44c0.646,-1.488 1.732,-3.169 2.914,-4.756l-0.002,-0.005c6.319,-15.117 20.905,-26.03 20.905,-26.03c-5.216,4.068 -12.522,16.71 -16.53,24.114l-2.67,7.235c0,0 2.528,-3.132 5.509,-5.909c0.994,-0.928 1.977,3.269 2.997,2.554c1.654,-1.166 4.101,-4.487 5.374,-4.474c3.111,-9.734 7.746,-21.845 7.746,-21.845l-6.023,24.419c1.527,-2.691 6.163,-9.792 11.234,-7.518c2.843,0.314 4.846,1.866 6.46,4.657c0,0 -3.847,-2.186 -7.071,-2.002c-2.487,3.37 -3.386,7.153 -5.575,11.465c3.549,1.608 6.609,3.578 9.055,5.33c1.447,-0.127 5.773,-0.101 9.877,3.674l12.317,-3.386l-9.748,6.455c0.043,0.062 0.084,0.132 0.127,0.195l15.291,-2.361l-11.198,5.684c0.497,0.26 1.027,0.543 1.503,0.79c1.089,-1.229 2.44,-2.495 4.32,-3.634c0,0 -1.18,1.931 -2.36,4.652c2.583,1.334 4.413,2.26 4.413,2.26c-0.125,-0.013 -0.337,-0.049 -0.578,-0.094c0.159,0.053 0.273,0.094 0.273,0.094c-1.016,-0.055 -3.404,0.243 -4.342,0.099c-0.217,-0.035 -0.411,-0.066 -0.626,-0.1c-0.036,0.101 -0.058,0.215 -0.094,0.317l1.517,7.522l-2.478,-4.148c-0.242,1.128 -0.417,2.279 -0.433,3.438c0.024,-0.003 0.076,-0.017 0.098,-0.018c0,0 -0.194,2.882 1.921,3.843c0,0 2.67,1.43 4.804,1.922c2.745,0.629 4.654,4.394 5.955,3.65c0.763,-0.441 0.046,-2.06 -0.661,-3.274c-0.079,-0.119 -0.106,-0.183 -0.106,-0.183c0.035,0.058 0.07,0.123 0.106,0.183c0.23,0.347 0.915,1.17 2.773,2.313c0.6,0.367 0.64,-1.073 0,-2.112c-0.137,-0.225 -0.364,-0.354 -0.561,-0.523c-0.39,-0.278 -0.736,-0.537 -0.984,-0.725c-0.161,-0.112 -0.301,-0.213 -0.376,-0.29c0,0 0.146,0.115 0.376,0.29c0.279,0.193 0.641,0.432 0.984,0.725c1.216,0.867 2.816,1.888 2.866,1.29c0.388,-4.417 -3.036,-4.119 -5.659,-6.722c0,0 0.507,-0.76 0.962,-1.594c0.42,-1.748 1.345,-4.925 2.847,-10.216c-0.223,-5.994 -4.871,-9.131 -4.871,-9.131c0,0 -2.342,-1.958 -1.155,-1.732c3.519,0.677 5.864,3.895 6.962,5.759c0.012,-2.929 -0.931,-5.502 -1.85,-7.271c-0.479,-0.924 -3.171,-6.345 -3.381,-13.087c-0.14,-4.484 1.783,-10.686 2.057,-11.548c-0.046,-1.947 -0.084,-3.793 -0.103,-5.572c-2.478,0.874 -4.223,0.813 -4.223,0.813c1.739,-1.056 3.079,-2.289 4.225,-3.558c0.061,-5.945 0.621,-10.586 2.839,-12.918l0.371,-0.379c-0.051,-0.042 -0.114,-0.136 -0.162,-0.167l0.173,0.156l0.034,-0.036l0.43,0.413l0.435,0.438l1.08,0.979c-0.023,0.012 -0.037,0.034 -0.055,0.052l2.485,2.499l-0.016,0.137l3.099,2.169c0.351,0.03 0.667,0.01 1.068,0.105c0.44,0.475 1.164,0.757 1.927,0.962c0.154,0.062 0.289,0.134 0.447,0.188c0.022,-0.026 0.03,-0.037 0.051,-0.062c1.252,0.249 2.52,0.238 2.94,0.023c0.818,-0.412 1.022,-1.458 0.544,-3.21l0.415,-0.235l-0.172,0.012c0,0 8.791,-4.846 10.411,-6.207c0.369,-0.314 -7.084,-1.612 -7.084,-1.612m-11.715,2.569c0,0 -3.26,-1.285 -1.45,-2.787c0,0 2.781,1.38 1.45,2.787m-35.918,59.505l1.319,5.476c0,0 0.331,-3.856 -0.165,-5.076c-0.491,-1.217 -1.154,-0.4 -1.154,-0.4m-40.944,-11.871c-6.686,6.912 -5.683,13.986 1.823,16.868c5.794,2.222 16.461,2.938 21.046,3.15c1.457,-0.174 2.841,-0.107 4.128,0.158c-0.313,-0.927 -0.578,-1.94 -0.639,-3.082c0,0 1.245,2.31 2.212,3.482c0.077,0.026 0.149,0.059 0.226,0.086c-0.397,-0.89 -0.983,-3.074 0.445,-6.643c0.072,-0.184 0.036,0.383 0.053,0.573c0.355,3.402 1.11,5.636 2.047,7.237c2.246,1.293 3.939,2.909 4.816,3.91c1.344,1.538 7.145,3.217 8.07,3.076c0.37,-0.063 3.649,2.111 4.227,1.918c0.692,-0.233 -1.827,-2.994 -1.154,-3.266c0.737,-0.299 2.416,1.731 3.075,1.348c0,0 -0.193,-1.247 -0.77,-2.309c-0.525,-0.964 -1.443,-1.751 -1.355,-1.774c0.223,-0.056 0.446,-0.115 0.67,-0.172c0.038,-0.06 0.221,-0.471 0.427,-1.056l-5.591,-9.588c-0.249,-0.058 -0.498,-0.144 -0.746,-0.204l0,7.386l-2.894,-8.192c-4.566,-1.319 -9.212,-3.109 -14.814,-6.092c-1.424,-0.758 -2.884,-1.333 -4.338,-1.755c-1.145,1.09 -2.411,2.198 -3.888,3.337l-0.24,0.1c-9.754,7.214 -19.221,1.216 -11.514,-4.082c7.575,-5.211 16.032,-2.66 24.784,2.495c2.175,1.282 5.651,2.761 9.468,4.119c2.043,-0.667 2.916,-0.101 3.245,0.275c0.525,-0.292 1.04,-0.566 1.476,-0.712c-0.769,-0.348 -1.694,-1.265 -2.295,-3.423c-3.302,-1.985 -7.029,-4.291 -11.363,-7.037c-14.202,-8.998 -26.984,-3.909 -30.637,-0.131m49.054,13.098c-0.335,-0.214 -0.684,-0.504 -1.006,-1.019l0.356,1.658c0.304,0.078 0.619,0.167 0.918,0.24c-0.076,-0.314 -0.188,-0.571 -0.268,-0.879m-2.79,-2.757c0.577,0.087 0.971,0.308 1.229,0.507c-0.048,-0.152 -0.08,-0.35 -0.119,-0.525c-0.188,-0.106 -0.388,-0.224 -0.58,-0.333l-0.53,0.351Zm3.377,4.77c-0.34,-0.061 -0.65,-0.138 -0.985,-0.2l1.239,5.771c0.149,-1.395 0.2,-3.048 -0.159,-5.234c-0.021,-0.128 -0.072,-0.211 -0.095,-0.337m-4.775,-2.748l3.876,8.434c0,0 -0.842,-6.346 -2,-8.156c-1.17,-1.813 -1.876,-0.278 -1.876,-0.278m-2.004,-5.913l1.649,-0.454c-2.055,-1.65 -4.281,-2.455 -6.02,-2.751c1.802,1.377 3.098,2.461 3.709,2.825c0.193,0.114 0.452,0.258 0.662,0.38m10.048,-1.892l-8.67,3.319c0,0 -0.564,1.59 1.531,1.111c2.096,-0.482 7.139,-4.43 7.139,-4.43m-2.174,7.185c2.135,-0.236 7.598,-3.578 7.598,-3.578l-8.998,2.299c0,0 -0.745,1.518 1.4,1.279m5.007,8.693c0,0 -0.439,-3.847 -1.164,-4.942c-0.718,-1.095 -1.206,-0.17 -1.206,-0.17l2.37,5.112Zm-3.295,-4.461l-0.256,-0.428c-0.012,-0.001 -0.024,-0.004 -0.037,-0.006c0.035,0.287 0.049,0.573 0.063,0.863c0.071,-0.138 0.154,-0.287 0.23,-0.429m2.985,-0.88c0.221,0.032 0.468,0.068 0.663,0.095c-0.003,0.008 -0.005,0.017 -0.008,0.025c0.67,0.067 1.303,0.143 1.828,0.229c-0.026,-0.008 -0.07,-0.018 -0.094,-0.025c-1.482,-0.46 -3.504,-1.377 -5.992,-2.664l-0.397,0.202c0.131,0.289 0.265,0.57 0.388,0.888c0.073,0.233 0.088,0.479 0.141,0.717c0.094,0.019 0.189,0.038 0.285,0.059c2.251,-1.089 3.09,-0.002 3.09,-0.002l0.096,0.476Zm-3.21,2.901c-0.16,2.388 -0.844,4.621 -1.393,6.072c0.489,-0.127 0.984,-0.256 1.421,-0.366l1.492,-5.558l-0.418,-0.7l-1.102,0.552Zm29.731,2.021l3.909,-7.084c1.204,-2.576 1.378,-5.146 1.13,-7.418c-2.497,0.619 -7.291,0.696 -9.023,-3.239c-1.738,-3.975 0.085,-7.421 0.452,-8.254c-1.452,0.111 -2.233,-0.643 -2.911,-1.955c-1.338,-0.193 -6.838,-1.662 -7.897,-13.044c-0.011,-0.12 -0.018,-0.235 -0.031,-0.353c-0.481,1.802 -1.128,5.003 -0.877,8.643c0.383,5.574 2.689,10.185 2.689,10.185c4.087,5.347 3.279,10.464 1.398,16.159c-0.19,1.827 -0.289,4.298 0.32,5.819l-1.568,-0.979c-0.191,0.919 -0.352,1.78 -0.49,2.551c-0.001,0.266 0.029,0.516 0.041,0.777c2.712,0.103 7.711,-0.051 12.858,-1.808m2.512,-18.692c0.03,0.301 0.089,0.593 0.193,0.869c0.449,1.186 1.445,1.721 2.116,1.931c-0.508,-2.612 -1.475,-4.653 -1.941,-5.496c-0.389,0.954 -0.434,1.844 -0.368,2.696m-10.487,-19.476c3.146,5.064 2.701,8.25 2.384,9.365l0.03,0.07c0.757,1.777 2.246,2.003 2.312,2.01l0.241,0.034c0.901,-1.294 2.34,-4.433 -1.149,-8.396c-2.438,-2.759 -5.166,-6.55 -6.538,-10.703c0.431,3.052 1.401,5.499 2.72,7.62m-6.015,-16.042c3.911,-4.781 4.313,-10.001 4.313,-10.001l0.255,0.178c-0.662,-0.791 -1.335,-1.589 -1.599,-1.844c-2.353,3.082 -2.988,6.983 -2.969,11.667m5.782,-8.211c-0.951,5.421 -5.961,10.097 -5.961,10.097c3.669,-1.289 8.526,-7.949 8.526,-7.949l-2.565,-2.148Zm2.729,18.394l1.092,0.324c2.198,3.233 5.649,4.322 8.591,7.836c-0.742,-2.933 -2.317,-5.34 -4.551,-7.091c-1.84,-1.434 -3.657,-2.63 -5.237,-4.234c-1.139,-1.145 -1.826,-3.255 -2.233,-5.312c2.159,-0.869 4.625,-3.319 6.288,-5.203c-0.528,-0.173 -1.13,-0.477 -1.69,-0.886c-1.627,3.253 -4.078,5.532 -4.616,6.012c-0.157,-0.808 -0.28,-1.604 -0.355,-2.33c-2.022,1.922 -4.009,3.176 -5.71,3.879c0.138,2.625 0.383,5.443 0.623,8.513c0.036,0.465 0.075,0.935 0.124,1.413c0.972,10.483 5.746,11.804 6.823,11.972c0.255,-1.054 0.55,-3.995 -2.32,-8.617c-1.899,-3.05 -3.448,-6.745 -2.912,-12.814c-0.003,-0.168 -0.036,-0.335 -0.033,-0.503l0.734,0.843c-0.085,5.892 4.254,10.893 7.641,14.651c5.33,5.927 1.065,9.476 0.38,10c-0.434,0.995 -0.98,2.565 -0.852,4.213c0.072,0.944 0.308,2.003 0.806,3.144c1.184,2.719 4.1,2.974 6.028,2.811c-0.627,-0.463 -1.217,-1.116 -1.551,-1.994c-0.122,-0.341 -0.22,-0.741 -0.259,-1.194c-0.109,-1.387 0.383,-3.299 2.459,-5.735c1.893,-2.214 2.354,-4.086 2.243,-5.515c-0.029,-0.369 -0.121,-0.684 -0.211,-0.997c-3.179,-7.637 -9.318,-9.431 -11.302,-13.186m7.839,43.555c-0.083,1.036 -0.062,2.143 0.05,3.18c1.466,0.552 3.921,1.084 5.778,2.246c1.568,0.978 2.558,2.286 3.076,2.112c1.007,-0.338 -0.19,-3.076 -0.767,-3.843c0,0 2.643,1.879 3.65,2.882c0.767,0.771 1.164,-1.207 -0.194,-3.456c0,0 1.971,1.928 2.499,2.496c0.679,0.724 1.118,-2.598 -1.538,-4.611c0,0 -2.604,-0.299 -4.994,-2.689c-4.037,-4.033 0.383,-4.778 0.383,-11.143c0,-4.804 -0.806,-9.09 -2.689,-11.719c-0.423,-0.592 -0.671,-1.25 -0.943,-1.953c-0.47,1.103 -1.278,2.334 -2.562,3.693c-0.276,0.291 -0.45,0.564 -0.643,0.841c0.908,1.563 4.765,8.864 1.456,15.86l-0.306,0.73c-0.322,1.644 -0.547,3.571 -0.199,4.894l-1.384,-1.123l-0.673,1.603Z" style="fill:#0095da;fill-rule:nonzero;" />
  <path d="M206.797,44.369l-7.417,4.148l0.816,-5.594l-1.357,-1.742l-1.722,1.26l-1.173,7.997l-5.594,3.129l-2.264,-1.306l0,-7.102l6.408,-4.427l0.364,-2.102l-2.162,-0.449l-4.61,3.19l0,-7.978l-1.505,-1.607l-1.611,1.607l0,8.198l-4.928,-3.41l-2.187,0.305l0.39,2.246l6.706,4.634l0.019,-0.004l0,6.959l-2,1.154l-6.16,-3.784l-0.369,-7.887l-1.698,-1.515l-1.416,1.693l0.272,5.736l-6.867,-4.218l-2.132,0.58l0.495,2.076l6.907,4.242l-5.372,2.323l-0.767,2.072l1.977,0.797l7.409,-3.197l5.655,3.473l0,2.983l-6.314,3.532l-7.147,-2.889l-2.089,0.909l0.945,1.99l4.801,1.941l-6.451,3.608l-0.531,2.144l2.053,0.578l7.23,-4.045l-0.15,6.35l1.557,1.564l1.558,-1.459l0.194,-8.152l-0.041,-0.046l5.442,-3.044l3.009,1.735l0,6.212l-0.019,-0.004l-6.706,4.637l-0.39,2.243l2.187,0.305l4.928,-3.406l0,8.138l1.611,1.505l1.505,-1.505l0,-7.918l4.61,3.186l2.162,-0.443l-0.364,-2.105l-6.408,-4.431l0,-6.354l2.811,-1.621l5.088,3.125l-0.009,7.812l1.623,1.597l1.499,-1.621l0.007,-5.872l7.141,4.387l2.161,-0.442l-0.528,-2.214l-6.915,-4.248l5.344,-2.009l0.863,-2.03l-1.935,-0.902l-7.634,2.873l-0.001,0.003l-5.347,-3.285l0,-3.105l5.169,-2.892l6.905,3.826l2.177,-0.65l-0.695,-2.095l-5.184,-2.872l7.693,-4.303l0.665,-2.098l-2.187,-0.62Zm-17.944,14.884l-2.272,1.318l-2.276,-1.318l0,-2.623l2.276,-1.312l2.272,1.312l0,2.623Zm-30.465,24.875c0,0 -0.859,0.959 -2.118,2.285c-0.286,-1.105 -1.233,-4.702 -1.4,-4.474c-0.512,0.69 -1.722,3.121 -2.638,5.018c-0.367,-0.498 -0.774,-1.153 -1.244,-2.329c-0.327,-0.816 0.059,-2 -0.255,-2.945c-0.479,-1.436 -1.722,-2.673 -2.742,-4.017c0,0 -0.69,-0.707 -1.912,-1.539c-2.647,-3.297 -9.527,-11.674 -10.228,-10.556c-0.283,0.452 -0.397,3.258 -0.429,6.306c-3.65,-3.126 -10.515,-8.777 -10.527,-7.059c-0.007,0.815 1.297,5.165 2.699,9.574c1.534,0.327 3.177,0.675 5.018,1.054l3.164,0.544l-1.348,1.24c-6.867,-1.322 -20.007,-3.04 -19.967,-2.758c0.091,0.675 4.777,4.319 8.441,6.467l7.525,4.495l-1.764,1.437l-4.023,-2.43c-0.77,-0.539 -1.666,-1.187 -2.597,-1.869c-5.646,1.208 -12.042,2.715 -11.672,3.286c0.46,0.682 11.76,3.715 13.727,4.138c0.189,0.041 0.355,0.08 0.525,0.121c0.926,-0.435 1.826,-0.857 2.941,-1.39l1.568,-0.787l-0.685,1.938c-5.89,3.02 -11.599,4.05 -11.458,5.325c0.046,0.443 5.807,0.594 8.129,0.567l3.112,-0.026l-0.377,1.037l-1.873,-0.052c-3.061,1.728 -10.097,5.763 -9.555,6.049c0.476,0.243 8.349,-0.721 9.69,-0.944c0.455,-0.075 0.85,-0.13 1.207,-0.177c0.038,4.026 -1.433,7.572 -7.519,10.382c0,0 -1.134,-0.225 -2.897,-0.157c1.213,5.832 4.71,10.28 4.71,10.28c-2.752,-1.666 -5.592,-6.748 -7.208,-9.997c-0.065,0.012 -0.115,0.011 -0.181,0.024c-0.244,-0.515 -0.503,-0.972 -0.737,-1.508c-1.154,-2.633 -2.174,-5.519 -2.843,-8.513c-2.669,-11.979 -0.033,-20.213 -2.709,-21.859c-3.971,-2.446 -5.942,3.354 -10.89,6.034c-10.198,5.515 -21.141,18.76 -32.566,40.232c0,0 0.135,-0.088 0.333,-0.219c9.897,-18.451 42.152,-52.313 41.225,-34.137c-0.971,19.039 9.476,28.838 9.476,28.838c-5.587,-3.073 -11.175,-14.557 -10.936,-20.997c0.62,-17.393 -9.962,-4.477 -15.064,-0.84c-6.816,4.863 -18.44,19.68 -23.505,26.346c1.767,-1.171 4.449,-2.962 4.551,-3.109c1.941,-2.801 1.089,7.286 1.456,6.44c0.646,-1.488 1.732,-3.169 2.914,-4.756l-0.002,-0.005c6.319,-15.117 20.905,-26.03 20.905,-26.03c-5.216,4.068 -12.522,16.71 -16.53,24.114l-2.67,7.235c0,0 2.528,-3.132 5.509,-5.909c0.994,-0.928 1.977,3.269 2.997,2.554c1.654,-1.166 4.101,-4.487 5.374,-4.474c3.111,-9.734 7.746,-21.845 7.746,-21.845l-6.023,24.419c1.527,-2.691 6.163,-9.792 11.234,-7.518c2.843,0.314 4.846,1.866 6.46,4.657c0,0 -3.847,-2.186 -7.071,-2.002c-2.487,3.37 -3.386,7.153 -5.575,11.465c3.549,1.608 6.609,3.578 9.055,5.33c1.447,-0.127 5.773,-0.101 9.877,3.674l12.317,-3.386l-9.748,6.455c0.043,0.062 0.084,0.132 0.127,0.195l15.291,-2.361l-11.198,5.684c0.497,0.26 1.027,0.543 1.503,0.79c1.089,-1.229 2.44,-2.495 4.32,-3.634c0,0 -1.18,1.931 -2.36,4.652c2.583,1.334 4.413,2.26 4.413,2.26c-0.125,-0.013 -0.337,-0.049 -0.578,-0.094c0.159,0.053 0.273,0.094 0.273,0.094c-1.016,-0.055 -3.404,0.243 -4.342,0.099c-0.217,-0.035 -0.411,-0.066 -0.626,-0.1c-0.036,0.101 -0.058,0.215 -0.094,0.317l1.517,7.522l-2.478,-4.148c-0.242,1.128 -0.417,2.279 -0.433,3.438c0.024,-0.003 0.076,-0.017 0.098,-0.018c0,0 -0.194,2.882 1.921,3.843c0,0 2.67,1.43 4.804,1.922c2.745,0.629 4.654,4.394 5.955,3.65c0.763,-0.441 0.046,-2.06 -0.661,-3.274c-0.079,-0.119 -0.106,-0.183 -0.106,-0.183c0.035,0.058 0.07,0.123 0.106,0.183c0.23,0.347 0.915,1.17 2.773,2.313c0.6,0.367 0.64,-1.073 0,-2.112c-0.137,-0.225 -0.364,-0.354 -0.561,-0.523c-0.39,-0.278 -0.736,-0.537 -0.984,-0.725c-0.161,-0.112 -0.301,-0.213 -0.376,-0.29c0,0 0.146,0.115 0.376,0.29c0.279,0.193 0.641,0.432 0.984,0.725c1.216,0.867 2.816,1.888 2.866,1.29c0.388,-4.417 -3.036,-4.119 -5.659,-6.722c0,0 0.507,-0.76 0.962,-1.594c0.42,-1.748 1.345,-4.925 2.847,-10.216c-0.223,-5.994 -4.871,-9.131 -4.871,-9.131c0,0 -2.342,-1.958 -1.155,-1.732c3.519,0.677 5.864,3.895 6.962,5.759c0.012,-2.929 -0.931,-5.502 -1.85,-7.271c-0.479,-0.924 -3.171,-6.345 -3.381,-13.087c-0.14,-4.484 1.783,-10.686 2.057,-11.548c-0.046,-1.947 -0.084,-3.793 -0.103,-5.572c-2.478,0.874 -4.223,0.813 -4.223,0.813c1.739,-1.056 3.079,-2.289 4.225,-3.558c0.061,-5.945 0.621,-10.586 2.839,-12.918l0.371,-0.379c-0.051,-0.042 -0.114,-0.136 -0.162,-0.167l0.173,0.156l0.034,-0.036l0.43,0.413l0.435,0.438l1.08,0.979c-0.023,0.012 -0.037,0.034 -0.055,0.052l2.485,2.499l-0.016,0.137l3.099,2.169c0.351,0.03 0.667,0.01 1.068,0.105c0.44,0.475 1.164,0.757 1.927,0.962c0.154,0.062 0.289,0.134 0.447,0.188c0.022,-0.026 0.03,-0.037 0.051,-0.062c1.252,0.249 2.52,0.238 2.94,0.023c0.818,-0.412 1.022,-1.458 0.544,-3.21l0.415,-0.235l-0.172,0.012c0,0 8.791,-4.846 10.411,-6.207c0.369,-0.314 -7.084,-1.612 -7.084,-1.612Zm-11.715,2.569c0,0 -3.26,-1.285 -1.45,-2.787c0,0 2.781,1.38 1.45,2.787Zm-35.918,59.505l1.319,5.476c0,0 0.331,-3.856 -0.165,-5.076c-0.491,-1.217 -1.154,-0.4 -1.154,-0.4Zm-40.944,-11.871c-6.686,6.912 -5.683,13.986 1.823,16.868c5.794,2.222 16.461,2.938 21.046,3.15c1.457,-0.174 2.841,-0.107 4.128,0.158c-0.313,-0.927 -0.578,-1.94 -0.639,-3.082c0,0 1.245,2.31 2.212,3.482c0.077,0.026 0.149,0.059 0.226,0.086c-0.397,-0.89 -0.983,-3.074 0.445,-6.643c0.072,-0.184 0.036,0.383 0.053,0.573c0.355,3.402 1.11,5.636 2.047,7.237c2.246,1.293 3.939,2.909 4.816,3.91c1.344,1.538 7.145,3.217 8.07,3.076c0.37,-0.063 3.649,2.111 4.227,1.918c0.692,-0.233 -1.827,-2.994 -1.154,-3.266c0.737,-0.299 2.416,1.731 3.075,1.348c0,0 -0.193,-1.247 -0.77,-2.309c-0.525,-0.964 -1.443,-1.751 -1.355,-1.774c0.223,-0.056 0.446,-0.115 0.67,-0.172c0.038,-0.06 0.221,-0.471 0.427,-1.056l-5.591,-9.588c-0.249,-0.058 -0.498,-0.144 -0.746,-0.204l0,7.386l-2.894,-8.192c-4.566,-1.319 -9.212,-3.109 -14.814,-6.092c-1.424,-0.758 -2.884,-1.333 -4.338,-1.755c-1.145,1.09 -2.411,2.198 -3.888,3.337l-0.24,0.1c-9.754,7.214 -19.221,1.216 -11.514,-4.082c7.575,-5.211 16.032,-2.66 24.784,2.495c2.175,1.282 5.651,2.761 9.468,4.119c2.043,-0.667 2.916,-0.101 3.245,0.275c0.525,-0.292 1.04,-0.566 1.476,-0.712c-0.769,-0.348 -1.694,-1.265 -2.295,-3.423c-3.302,-1.985 -7.029,-4.291 -11.363,-7.037c-14.202,-8.998 -26.984,-3.909 -30.637,-0.131Zm49.054,13.098c-0.335,-0.214 -0.684,-0.504 -1.006,-1.019l0.356,1.658c0.304,0.078 0.619,0.167 0.918,0.24c-0.076,-0.314 -0.188,-0.571 -0.268,-0.879Zm-2.79,-2.757c0.577,0.087 0.971,0.308 1.229,0.507c-0.048,-0.152 -0.08,-0.35 -0.119,-0.525c-0.188,-0.106 -0.388,-0.224 -0.58,-0.333l-0.53,0.351Zm3.377,4.77c-0.34,-0.061 -0.65,-0.138 -0.985,-0.2l1.239,5.771c0.149,-1.395 0.2,-3.048 -0.159,-5.234c-0.021,-0.128 -0.072,-0.211 -0.095,-0.337Zm-4.775,-2.748l3.876,8.434c0,0 -0.842,-6.346 -2,-8.156c-1.17,-1.813 -1.876,-0.278 -1.876,-0.278Zm-2.004,-5.913l1.649,-0.454c-2.055,-1.65 -4.281,-2.455 -6.02,-2.751c1.802,1.377 3.098,2.461 3.709,2.825c0.193,0.114 0.452,0.258 0.662,0.38Zm10.048,-1.892l-8.67,3.319c0,0 -0.564,1.59 1.531,1.111c2.096,-0.482 7.139,-4.43 7.139,-4.43Zm-2.174,7.185c2.135,-0.236 7.598,-3.578 7.598,-3.578l-8.998,2.299c0,0 -0.745,1.518 1.4,1.279Zm5.007,8.693c0,0 -0.439,-3.847 -1.164,-4.942c-0.718,-1.095 -1.206,-0.17 -1.206,-0.17l2.37,5.112Zm-3.295,-4.461l-0.256,-0.428c-0.012,-0.001 -0.024,-0.004 -0.037,-0.006c0.035,0.287 0.049,0.573 0.063,0.863c0.071,-0.138 0.154,-0.287 0.23,-0.429Zm2.985,-0.88c0.221,0.032 0.468,0.068 0.663,0.095c-0.003,0.008 -0.005,0.017 -0.008,0.025c0.67,0.067 1.303,0.143 1.828,0.229c-0.026,-0.008 -0.07,-0.018 -0.094,-0.025c-1.482,-0.46 -3.504,-1.377 -5.992,-2.664l-0.397,0.202c0.131,0.289 0.265,0.57 0.388,0.888c0.073,0.233 0.088,0.479 0.141,0.717c0.094,0.019 0.189,0.038 0.285,0.059c2.251,-1.089 3.09,-0.002 3.09,-0.002l0.096,0.476Zm-3.21,2.901c-0.16,2.388 -0.844,4.621 -1.393,6.072c0.489,-0.127 0.984,-0.256 1.421,-0.366l1.492,-5.558l-0.418,-0.7l-1.102,0.552Zm29.731,2.021l3.909,-7.084c1.204,-2.576 1.378,-5.146 1.13,-7.418c-2.497,0.619 -7.291,0.696 -9.023,-3.239c-1.738,-3.975 0.085,-7.421 0.452,-8.254c-1.452,0.111 -2.233,-0.643 -2.911,-1.955c-1.338,-0.193 -6.838,-1.662 -7.897,-13.044c-0.011,-0.12 -0.018,-0.235 -0.031,-0.353c-0.481,1.802 -1.128,5.003 -0.877,8.643c0.383,5.574 2.689,10.185 2.689,10.185c4.087,5.347 3.279,10.464 1.398,16.159c-0.19,1.827 -0.289,4.298 0.32,5.819l-1.568,-0.979c-0.191,0.919 -0.352,1.78 -0.49,2.551c-0.001,0.266 0.029,0.516 0.041,0.777c2.712,0.103 7.711,-0.051 12.858,-1.808Zm2.512,-18.692c0.03,0.301 0.089,0.593 0.193,0.869c0.449,1.186 1.445,1.721 2.116,1.931c-0.508,-2.612 -1.475,-4.653 -1.941,-5.496c-0.389,0.954 -0.434,1.844 -0.368,2.696Zm-10.487,-19.476c3.146,5.064 2.701,8.25 2.384,9.365l0.03,0.07c0.757,1.777 2.246,2.003 2.312,2.01l0.241,0.034c0.901,-1.294 2.34,-4.433 -1.149,-8.396c-2.438,-2.759 -5.166,-6.55 -6.538,-10.703c0.431,3.052 1.401,5.499 2.72,7.62Zm-6.015,-16.042c3.911,-4.781 4.313,-10.001 4.313,-10.001l0.255,0.178c-0.662,-0.791 -1.335,-1.589 -1.599,-1.844c-2.353,3.082 -2.988,6.983 -2.969,11.667Zm5.782,-8.211c-0.951,5.421 -5.961,10.097 -5.961,10.097c3.669,-1.289 8.526,-7.949 8.526,-7.949l-2.565,-2.148Zm2.729,18.394l1.092,0.324c2.198,3.233 5.649,4.322 8.591,7.836c-0.742,-2.933 -2.317,-5.34 -4.551,-7.091c-1.84,-1.434 -3.657,-2.63 -5.237,-4.234c-1.139,-1.145 -1.826,-3.255 -2.233,-5.312c2.159,-0.869 4.625,-3.319 6.288,-5.203c-0.528,-0.173 -1.13,-0.477 -1.69,-0.886c-1.627,3.253 -4.078,5.532 -4.616,6.012c-0.157,-0.808 -0.28,-1.604 -0.355,-2.33c-2.022,1.922 -4.009,3.176 -5.71,3.879c0.138,2.625 0.383,5.443 0.623,8.513c0.036,0.465 0.075,0.935 0.124,1.413c0.972,10.483 5.746,11.804 6.823,11.972c0.255,-1.054 0.55,-3.995 -2.32,-8.617c-1.899,-3.05 -3.448,-6.745 -2.912,-12.814c-0.003,-0.168 -0.036,-0.335 -0.033,-0.503l0.734,0.843c-0.085,5.892 4.254,10.893 7.641,14.651c5.33,5.927 1.065,9.476 0.38,10c-0.434,0.995 -0.98,2.565 -0.852,4.213c0.072,0.944 0.308,2.003 0.806,3.144c1.184,2.719 4.1,2.974 6.028,2.811c-0.627,-0.463 -1.217,-1.116 -1.551,-1.994c-0.122,-0.341 -0.22,-0.741 -0.259,-1.194c-0.109,-1.387 0.383,-3.299 2.459,-5.735c1.893,-2.214 2.354,-4.086 2.243,-5.515c-0.029,-0.369 -0.121,-0.684 -0.211,-0.997c-3.179,-7.637 -9.318,-9.431 -11.302,-13.186Zm7.839,43.555c-0.083,1.036 -0.062,2.143 0.05,3.18c1.466,0.552 3.921,1.084 5.778,2.246c1.568,0.978 2.558,2.286 3.076,2.112c1.007,-0.338 -0.19,-3.076 -0.767,-3.843c0,0 2.643,1.879 3.65,2.882c0.767,0.771 1.164,-1.207 -0.194,-3.456c0,0 1.971,1.928 2.499,2.496c0.679,0.724 1.118,-2.598 -1.538,-4.611c0,0 -2.604,-0.299 -4.994,-2.689c-4.037,-4.033 0.383,-4.778 0.383,-11.143c0,-4.804 -0.806,-9.09 -2.689,-11.719c-0.423,-0.592 -0.671,-1.25 -0.943,-1.953c-0.47,1.103 -1.278,2.334 -2.562,3.693c-0.276,0.291 -0.45,0.564 -0.643,0.841c0.908,1.563 4.765,8.864 1.456,15.86l-0.306,0.73c-0.322,1.644 -0.547,3.571 -0.199,4.894l-1.384,-1.123l-0.673,1.603Z" style="fill:none;fill-rule:nonzero;stroke:#0095da;stroke-width:14.43px;" />
  <path d="M206.797,44.369l-7.417,4.148l0.816,-5.594l-1.357,-1.742l-1.722,1.26l-1.173,7.997l-5.594,3.129l-2.264,-1.306l0,-7.102l6.408,-4.427l0.364,-2.102l-2.162,-0.449l-4.61,3.19l0,-7.978l-1.505,-1.607l-1.611,1.607l0,8.198l-4.928,-3.41l-2.187,0.305l0.39,2.246l6.706,4.634l0.019,-0.004l0,6.959l-2,1.154l-6.16,-3.784l-0.369,-7.887l-1.698,-1.515l-1.416,1.693l0.272,5.736l-6.867,-4.218l-2.132,0.58l0.495,2.076l6.907,4.242l-5.372,2.323l-0.767,2.072l1.977,0.797l7.409,-3.197l5.655,3.473l0,2.983l-6.314,3.532l-7.147,-2.889l-2.089,0.909l0.945,1.99l4.801,1.941l-6.451,3.608l-0.531,2.144l2.052,0.578l7.231,-4.045l-0.15,6.35l1.557,1.564l1.558,-1.459l0.194,-8.152l-0.041,-0.046l5.442,-3.044l3.009,1.735l0,6.212l-0.019,-0.004l-6.706,4.637l-0.39,2.243l2.187,0.305l4.928,-3.406l0,8.138l1.611,1.505l1.505,-1.505l0,-7.918l4.61,3.186l2.162,-0.443l-0.364,-2.105l-6.408,-4.431l0,-6.354l2.811,-1.621l5.088,3.125l-0.009,7.812l1.623,1.597l1.499,-1.621l0.007,-5.872l7.141,4.387l2.161,-0.442l-0.528,-2.214l-6.915,-4.248l5.344,-2.009l0.863,-2.03l-1.935,-0.902l-7.634,2.873l-0.001,0.003l-5.347,-3.285l0,-3.105l5.169,-2.892l6.905,3.826l2.177,-0.65l-0.695,-2.095l-5.184,-2.872l7.693,-4.303l0.665,-2.098l-2.187,-0.62Zm-17.944,14.884l-2.272,1.318l-2.276,-1.318l0,-2.623l2.276,-1.312l2.272,1.312l0,2.623Z" style="fill:#fff;fill-rule:nonzero;" />
  <path d="M166.679,154.881c0,0 -2.604,-0.298 -4.994,-2.689c-4.037,-4.033 0.383,-4.778 0.383,-11.143c0,-4.804 -0.806,-9.09 -2.689,-11.719c-0.423,-0.592 -0.671,-1.249 -0.943,-1.953c-0.471,1.103 -1.278,2.334 -2.562,3.694c-0.276,0.291 -0.45,0.564 -0.644,0.84c0.908,1.564 4.766,8.864 1.457,15.861l-0.306,0.729c-0.322,1.644 -0.547,3.571 -0.199,4.894l-1.384,-1.122l-0.673,1.602c-0.084,1.036 -0.062,2.143 0.049,3.18c1.467,0.553 3.921,1.084 5.779,2.246c1.568,0.978 2.558,2.286 3.076,2.112c1.007,-0.337 -0.19,-3.075 -0.767,-3.843c0,0 2.643,1.879 3.65,2.882c0.767,0.771 1.164,-1.206 -0.194,-3.456c0,0 1.971,1.929 2.499,2.496c0.679,0.724 1.118,-2.598 -1.538,-4.611m-11.123,-24.863c1.892,-2.213 2.354,-4.086 2.243,-5.515c-0.03,-0.369 -0.121,-0.683 -0.211,-0.997c-3.179,-7.636 -9.318,-9.431 -11.303,-13.186l1.092,0.324c2.199,3.233 5.65,4.322 8.592,7.836c-0.742,-2.933 -2.317,-5.34 -4.551,-7.091c-1.84,-1.433 -3.657,-2.63 -5.237,-4.234c-1.139,-1.145 -1.826,-3.255 -2.233,-5.312c2.158,-0.869 4.625,-3.319 6.288,-5.203c-0.528,-0.172 -1.131,-0.476 -1.69,-0.885c-1.627,3.252 -4.079,5.531 -4.616,6.011c-0.157,-0.807 -0.28,-1.603 -0.356,-2.33c-2.021,1.922 -4.009,3.177 -5.709,3.879c0.138,2.625 0.383,5.444 0.623,8.513c0.035,0.466 0.075,0.935 0.124,1.413c0.972,10.483 5.746,11.804 6.822,11.972c0.256,-1.054 0.551,-3.995 -2.32,-8.617c-1.899,-3.05 -3.448,-6.744 -2.911,-12.814c-0.004,-0.168 -0.036,-0.334 -0.033,-0.503l0.734,0.843c-0.085,5.893 4.253,10.894 7.641,14.652c5.33,5.927 1.065,9.475 0.38,9.999c-0.434,0.995 -0.98,2.565 -0.852,4.213c0.072,0.944 0.308,2.003 0.806,3.144c1.184,2.719 4.099,2.975 6.027,2.811c-0.626,-0.462 -1.216,-1.115 -1.551,-1.994c-0.121,-0.341 -0.219,-0.741 -0.258,-1.194c-0.109,-1.386 0.383,-3.299 2.459,-5.735m-1.283,-34.638c1.27,-0.64 1.086,-2.777 -0.878,-6.762c-0.643,-1.299 -1.38,-1.42 -2.407,-3.991c-0.328,-0.816 0.059,-2 -0.255,-2.945c-0.48,-1.436 -1.722,-2.672 -2.743,-4.017c0,0 -0.689,-0.706 -1.911,-1.538c-2.648,-3.298 -9.528,-11.674 -10.228,-10.556c-0.283,0.451 -0.397,3.257 -0.429,6.305c-3.65,-3.125 -10.515,-8.777 -10.527,-7.059c-0.007,0.816 1.296,5.165 2.699,9.574c1.534,0.328 3.177,0.675 5.017,1.054l3.165,0.545l-1.348,1.239c-6.867,-1.321 -20.007,-3.04 -19.967,-2.758c0.091,0.676 4.777,4.319 8.44,6.467l7.526,4.496l-1.764,1.436l-4.024,-2.43c-0.77,-0.539 -1.665,-1.186 -2.597,-1.869c-5.645,1.208 -12.041,2.715 -11.671,3.286c0.459,0.682 11.76,3.715 13.727,4.138c0.189,0.041 0.355,0.081 0.525,0.121c0.925,-0.435 1.826,-0.857 2.941,-1.39l1.568,-0.787l-0.686,1.938c-5.889,3.02 -11.598,4.05 -11.457,5.326c0.046,0.442 5.807,0.593 8.129,0.567l3.112,-0.026l-0.377,1.036l-1.873,-0.052c-3.061,1.728 -10.097,5.763 -9.555,6.049c0.475,0.243 8.349,-0.721 9.69,-0.944c0.455,-0.075 0.85,-0.13 1.207,-0.177c0.038,4.026 -1.433,7.572 -7.52,10.382c0,0 -1.133,-0.224 -2.896,-0.156c1.213,5.831 4.71,10.279 4.71,10.279c-2.752,-1.666 -5.593,-6.748 -7.208,-9.997c-0.065,0.012 -0.115,0.011 -0.181,0.024c-0.245,-0.514 -0.503,-0.971 -0.737,-1.508c-1.154,-2.633 -2.174,-5.518 -2.843,-8.512c-2.67,-11.979 -0.033,-20.213 -2.709,-21.859c-3.971,-2.447 -5.942,3.354 -10.89,6.033c-10.199,5.516 -21.141,18.76 -32.566,40.233c0,0 0.135,-0.089 0.333,-0.22c9.897,-18.451 42.152,-52.312 41.225,-34.137c-0.971,19.04 9.476,28.838 9.476,28.838c-5.587,-3.073 -11.175,-14.556 -10.936,-20.997c0.62,-17.393 -9.962,-4.476 -15.064,-0.839c-6.816,4.862 -18.441,19.68 -23.506,26.345c1.768,-1.171 4.45,-2.961 4.552,-3.109c1.941,-2.8 1.088,7.287 1.455,6.44c0.646,-1.488 1.732,-3.169 2.915,-4.755l-0.003,-0.006c6.32,-15.117 20.905,-26.03 20.905,-26.03c-5.216,4.068 -12.522,16.711 -16.529,24.114l-2.67,7.235c0,0 2.528,-3.132 5.509,-5.909c0.993,-0.928 1.977,3.269 2.997,2.554c1.654,-1.165 4.101,-4.487 5.374,-4.474c3.11,-9.734 7.746,-21.845 7.746,-21.845l-6.023,24.42c1.527,-2.691 6.163,-9.793 11.233,-7.519c2.844,0.314 4.847,1.867 6.461,4.657c0,0 -3.847,-2.185 -7.071,-2.001c-2.487,3.369 -3.386,7.153 -5.575,11.464c3.549,1.609 6.609,3.578 9.055,5.33c1.447,-0.127 5.773,-0.101 9.876,3.675l12.318,-3.387l-9.748,6.456c0.043,0.062 0.084,0.132 0.127,0.195l15.291,-2.361l-11.198,5.683c0.497,0.261 1.027,0.543 1.502,0.791c1.09,-1.23 2.44,-2.495 4.321,-3.635c0,0 -1.18,1.932 -2.36,4.652c2.583,1.334 4.413,2.261 4.413,2.261c-0.125,-0.014 -0.337,-0.05 -0.578,-0.094c0.159,0.052 0.273,0.094 0.273,0.094c-1.017,-0.056 -3.404,0.242 -4.342,0.098c-0.217,-0.034 -0.411,-0.066 -0.626,-0.1c-0.036,0.101 -0.058,0.216 -0.094,0.318l1.517,7.521l-2.478,-4.148c-0.242,1.128 -0.418,2.28 -0.433,3.438c0.024,-0.003 0.076,-0.016 0.098,-0.018c0,0 -0.194,2.882 1.921,3.843c0,0 2.669,1.43 4.804,1.922c2.745,0.63 4.653,4.394 5.955,3.65c0.8,-0.462 -0.029,-2.23 -0.767,-3.457c0,0 0.384,0.961 2.879,2.496c0.6,0.367 0.639,-1.072 0,-2.112c-0.137,-0.225 -0.364,-0.353 -0.561,-0.523c-0.753,-0.537 -1.36,-1.015 -1.36,-1.015c0.204,0.211 0.819,0.553 1.36,1.015c1.216,0.868 2.816,1.888 2.866,1.29c0.387,-4.417 -3.036,-4.118 -5.66,-6.722c0,0 0.508,-0.759 0.963,-1.593c0.42,-1.749 1.345,-4.926 2.847,-10.217c-0.224,-5.994 -4.872,-9.131 -4.872,-9.131c0,0 -2.341,-1.958 -1.154,-1.732c3.518,0.677 5.864,3.896 6.962,5.759c0.012,-2.929 -0.931,-5.502 -1.85,-7.27c-0.479,-0.925 -3.171,-6.346 -3.381,-13.088c-0.14,-4.484 1.783,-10.686 2.057,-11.547c-0.047,-1.948 -0.084,-3.794 -0.103,-5.573c-2.479,0.874 -4.223,0.813 -4.223,0.813c1.738,-1.055 3.079,-2.288 4.225,-3.558c0.061,-5.945 0.62,-10.586 2.838,-12.917l0.371,-0.38c-0.05,-0.042 -0.113,-0.136 -0.161,-0.167l0.172,0.156l0.035,-0.035l0.43,0.413l0.435,0.438l1.079,0.978c-0.022,0.013 -0.037,0.034 -0.054,0.052l2.484,2.5l-0.015,0.136l3.099,2.17c0.351,0.029 0.667,0.009 1.068,0.104c0.44,0.475 1.164,0.757 1.927,0.962c0.154,0.063 0.289,0.134 0.447,0.189c0.021,-0.026 0.03,-0.038 0.051,-0.063c1.252,0.249 2.519,0.238 2.939,0.024m-7.6,-8.684c0,0 -3.26,-1.285 -1.45,-2.787c0,0 2.781,1.38 1.45,2.787m-35.918,59.505l1.318,5.476c0,0 0.331,-3.856 -0.164,-5.076c-0.491,-1.217 -1.154,-0.4 -1.154,-0.4m-40.944,-11.871c-6.686,6.913 -5.683,13.986 1.823,16.868c5.794,2.222 16.461,2.938 21.046,3.15c1.457,-0.174 2.841,-0.107 4.128,0.158c-0.313,-0.927 -0.579,-1.94 -0.639,-3.081c0,0 1.245,2.31 2.211,3.481c0.078,0.026 0.15,0.059 0.226,0.086c-0.396,-0.89 -0.982,-3.074 0.445,-6.643c0.073,-0.184 0.037,0.384 0.053,0.574c0.356,3.401 1.111,5.636 2.047,7.236c2.247,1.294 3.94,2.909 4.816,3.91c1.345,1.538 7.146,3.217 8.07,3.076c0.371,-0.063 3.65,2.112 4.227,1.918c0.692,-0.233 -1.826,-2.993 -1.154,-3.266c0.738,-0.299 2.417,1.731 3.076,1.348c0,0 -0.193,-1.246 -0.77,-2.309c-0.525,-0.964 -1.443,-1.751 -1.355,-1.774c0.223,-0.056 0.446,-0.115 0.67,-0.172c0.037,-0.059 0.221,-0.471 0.427,-1.055l-5.591,-9.589c-0.249,-0.058 -0.498,-0.143 -0.746,-0.204l0,7.387l-2.894,-8.193c-4.566,-1.318 -9.212,-3.109 -14.814,-6.092c-1.425,-0.758 -2.885,-1.333 -4.338,-1.755c-1.145,1.09 -2.411,2.198 -3.888,3.337l-0.24,0.1c-9.755,7.214 -19.222,1.217 -11.514,-4.082c7.575,-5.211 16.032,-2.659 24.784,2.495c2.174,1.282 5.651,2.762 9.468,4.119c2.042,-0.667 2.916,-0.101 3.245,0.275c0.525,-0.292 1.039,-0.565 1.476,-0.712c-0.769,-0.348 -1.694,-1.265 -2.296,-3.422c-3.301,-1.986 -7.028,-4.292 -11.362,-7.038c-14.202,-8.998 -26.984,-3.909 -30.637,-0.131m49.054,13.098c-0.336,-0.213 -0.684,-0.504 -1.007,-1.019l0.356,1.659c0.305,0.078 0.62,0.166 0.919,0.24c-0.076,-0.315 -0.188,-0.572 -0.268,-0.88m-2.79,-2.757c0.577,0.088 0.971,0.308 1.229,0.508c-0.049,-0.152 -0.08,-0.351 -0.119,-0.526c-0.188,-0.106 -0.388,-0.223 -0.58,-0.333l-0.53,0.351Zm3.377,4.77c-0.34,-0.06 -0.65,-0.138 -0.985,-0.2l1.238,5.771c0.15,-1.395 0.201,-3.047 -0.159,-5.233c-0.021,-0.129 -0.071,-0.212 -0.094,-0.338m-4.775,-2.748l3.876,8.434c0,0 -0.842,-6.345 -2,-8.155c-1.171,-1.814 -1.876,-0.279 -1.876,-0.279m-2.004,-5.913l1.649,-0.453c-2.056,-1.651 -4.281,-2.456 -6.021,-2.751c1.803,1.376 3.099,2.461 3.71,2.824c0.193,0.115 0.452,0.258 0.662,0.38m10.048,-1.892l-8.67,3.319c0,0 -0.564,1.59 1.531,1.112c2.095,-0.483 7.139,-4.431 7.139,-4.431m-2.174,7.185c2.134,-0.236 7.598,-3.577 7.598,-3.577l-8.998,2.298c0,0 -0.745,1.519 1.4,1.279m5.007,8.693c0,0 -0.439,-3.846 -1.164,-4.941c-0.718,-1.096 -1.207,-0.171 -1.207,-0.171l2.371,5.112Zm-3.295,-4.461l-0.256,-0.427c-0.012,-0.002 -0.024,-0.005 -0.037,-0.007c0.035,0.288 0.049,0.573 0.063,0.863c0.071,-0.138 0.154,-0.287 0.23,-0.429m2.985,-0.879c0.221,0.031 0.468,0.067 0.663,0.094c-0.003,0.008 -0.005,0.018 -0.008,0.025c0.67,0.068 1.303,0.143 1.828,0.229c-0.026,-0.007 -0.07,-0.018 -0.094,-0.025c-1.482,-0.459 -3.504,-1.376 -5.992,-2.664l-0.397,0.202c0.131,0.289 0.265,0.57 0.388,0.888c0.072,0.233 0.088,0.48 0.141,0.717c0.094,0.019 0.189,0.038 0.285,0.059c2.251,-1.089 3.089,-0.002 3.089,-0.002l0.097,0.477Zm-3.211,2.9c-0.159,2.388 -0.844,4.621 -1.392,6.073c0.489,-0.127 0.984,-0.257 1.421,-0.367l1.492,-5.558l-0.418,-0.699l-1.103,0.551Zm15.742,-52.189c3.911,-4.78 4.313,-10.001 4.313,-10.001l0.255,0.178c-0.662,-0.791 -1.336,-1.589 -1.6,-1.843c-2.353,3.081 -2.987,6.982 -2.968,11.666m5.782,-8.21c-0.951,5.42 -5.962,10.096 -5.962,10.096c3.67,-1.289 8.526,-7.949 8.526,-7.949l-2.564,-2.147Zm0.233,24.253c3.146,5.063 2.701,8.249 2.383,9.364l0.03,0.07c0.758,1.777 2.247,2.004 2.312,2.01l0.242,0.034c0.901,-1.294 2.34,-4.433 -1.15,-8.396c-2.437,-2.759 -5.165,-6.55 -6.538,-10.703c0.432,3.052 1.401,5.499 2.721,7.621m10.68,20.344c0.449,1.186 1.445,1.721 2.116,1.931c-0.509,-2.611 -1.475,-4.653 -1.941,-5.496c-0.389,0.955 -0.435,1.844 -0.368,2.696c0.029,0.302 0.088,0.594 0.193,0.869m-15.563,19.632c2.712,0.102 7.71,-0.052 12.857,-1.808l3.91,-7.084c1.204,-2.577 1.377,-5.147 1.129,-7.419c-2.497,0.62 -7.29,0.696 -9.022,-3.239c-1.738,-3.974 0.085,-7.421 0.452,-8.254c-1.452,0.112 -2.233,-0.643 -2.911,-1.954c-1.339,-0.193 -6.838,-1.662 -7.897,-13.045c-0.012,-0.119 -0.018,-0.235 -0.031,-0.353c-0.481,1.802 -1.128,5.004 -0.877,8.643c0.383,5.574 2.688,10.185 2.688,10.185c4.088,5.347 3.279,10.464 1.398,16.159c-0.189,1.828 -0.288,4.298 0.321,5.819l-1.568,-0.979c-0.191,0.919 -0.352,1.781 -0.49,2.551c-0.001,0.266 0.029,0.516 0.041,0.778" style="fill:#fff;fill-rule:nonzero;" />
  <path d="M153.382,92.985c0,0 -3.123,-0.732 -1.832,-1.898c3.273,-2.98 6.838,-6.959 6.838,-6.959c0,0 7.453,1.297 7.084,1.611c-1.621,1.361 -10.411,6.208 -10.411,6.208l0.172,-0.012l-1.851,1.05Z" style="fill:#fff;fill-rule:nonzero;stroke:#0095da;stroke-width:0.72px;stroke-linecap:butt;stroke-linejoin:miter;" />
  <path d="M150.447,90.567c0,0 0.668,2.116 1.42,1.178c1.906,-2.378 4.487,-5.005 4.487,-5.005c0,0 -1.287,-5.071 -1.484,-4.801c-0.872,1.175 -3.784,7.428 -3.784,7.428l-0.004,-0.121l-0.635,1.321Z" style="fill:#fff;fill-rule:nonzero;stroke:#0095da;stroke-width:0.72px;stroke-linecap:butt;stroke-linejoin:miter;" />
</svg>
