<?xml version="1.0" encoding="UTF-8" standalone="no"?><!DOCTYPE svg PUBLIC "-//W3C//DTD SVG 1.1//EN" "http://www.w3.org/Graphics/SVG/1.1/DTD/svg11.dtd"><svg width="100%" height="100%" viewBox="0 0 1471 102" version="1.1" xmlns="http://www.w3.org/2000/svg" xmlns:xlink="http://www.w3.org/1999/xlink" xml:space="preserve" xmlns:serif="http://www.serif.com/" style="fill-rule:evenodd;clip-rule:evenodd;stroke-linejoin:round;stroke-miterlimit:2;"><path d="M1359.005,54.029c39.438,-3.392 70.258,22.125 108.721,21.346c-24.408,-20.167 -61.962,-23.971 -100.8,-24.092" style="fill:#9ddcf9;fill-rule:nonzero;"/><path d="M1358.804,51.67c2.529,-0.221 5.017,-0.317 7.479,-0.317c18.217,0.004 34.592,5.546 50.675,10.963c16.092,5.425 31.892,10.721 49.029,10.708c0.562,0 1.121,-0.004 1.692,-0.017l0.046,2.367l-1.508,1.825c-11.787,-9.75 -26.892,-15.629 -43.95,-19.071c-17.042,-3.438 -36.004,-4.421 -55.346,-4.479c-1.308,-0.004 -2.362,-1.067 -2.358,-2.371c0.004,-1.308 1.067,-2.362 2.371,-2.358c19.492,0.058 38.733,1.033 56.271,4.571c17.533,3.538 33.408,9.642 46.029,20.058c0.758,0.629 1.05,1.671 0.725,2.604c-0.325,0.929 -1.2,1.567 -2.183,1.583c-0.596,0.017 -1.192,0.021 -1.787,0.021c-18.133,-0.004 -34.458,-5.554 -50.542,-10.963c-16.092,-5.429 -31.933,-10.721 -49.162,-10.712c-2.333,0 -4.688,0.096 -7.071,0.3c-1.304,0.112 -2.45,-0.854 -2.562,-2.154c-0.112,-1.304 0.854,-2.446 2.154,-2.558" style="fill:#318baa;fill-rule:nonzero;"/><path d="M1294.952,45.064c29.667,18.558 107.362,4.492 143.483,-3.017c-16.633,-0.337 -38.412,-4.488 -59.062,-3.817c-26.938,0.883 -60.771,13.358 -85.304,7.642" style="fill:#9ddcf9;fill-rule:nonzero;"/><path d="M1296.207,43.058c10.046,6.337 26.908,8.858 45.912,8.829c33.225,0.004 72.929,-7.387 95.833,-12.154l0.479,2.317l-0.046,2.367c-15.688,-0.337 -35.413,-3.9 -54.371,-3.892c-1.529,0 -3.05,0.021 -4.567,0.071c-10.704,0.35 -22.737,2.604 -34.917,4.804c-12.183,2.192 -24.513,4.329 -35.979,4.333c-5.212,0 -10.254,-0.446 -15.025,-1.554c-1.271,-0.296 -2.067,-1.571 -1.767,-2.842c0.296,-1.275 1.571,-2.067 2.842,-1.771c4.321,1.008 9.004,1.433 13.95,1.433c10.875,0.004 22.987,-2.067 35.142,-4.258c12.158,-2.192 24.362,-4.5 35.604,-4.875c1.567,-0.05 3.146,-0.075 4.717,-0.075c19.504,0.008 39.379,3.596 54.467,3.896c1.208,0.021 2.2,0.946 2.308,2.142c0.108,1.204 -0.696,2.292 -1.875,2.538c-23.037,4.783 -62.908,12.246 -96.796,12.254c-19.408,-0.033 -36.871,-2.379 -48.421,-9.55c-1.108,-0.692 -1.446,-2.154 -0.754,-3.263c0.696,-1.108 2.154,-1.442 3.263,-0.75" style="fill:#318baa;fill-rule:nonzero;"/><path d="M1258.708,49.749c16.275,-4.417 24.871,-18.142 41.671,-25.167c29.879,-12.492 78.646,-17.954 113.833,-21.188c-49.846,15.571 -90.433,51.117 -153.267,46.125" style="fill:#9ddcf9;fill-rule:nonzero;"/><path d="M1258.088,47.467c7.625,-2.067 13.554,-6.346 19.812,-11.192c6.246,-4.825 12.792,-10.196 21.567,-13.871c30.45,-12.704 79.267,-18.108 114.525,-21.367c1.208,-0.108 2.3,0.704 2.537,1.892c0.238,1.192 -0.454,2.363 -1.612,2.725c-23.017,7.183 -44.229,18.779 -66.842,28.671c-22.6,9.887 -46.65,18.042 -75.217,18.042c-3.942,0 -7.975,-0.158 -12.1,-0.488c-1.304,-0.1 -2.275,-1.242 -2.171,-2.546c0.104,-1.3 1.242,-2.275 2.546,-2.171c4,0.321 7.904,0.471 11.725,0.471c27.646,0 50.958,-7.867 73.325,-17.642c22.358,-9.767 43.713,-21.475 67.321,-28.854l0.708,2.254l0.213,2.358c-35.108,3.204 -83.825,8.729 -113.129,21.017c-8.025,3.35 -14.183,8.354 -20.5,13.25c-6.312,4.871 -12.821,9.667 -21.467,12.017c-1.262,0.342 -2.558,-0.404 -2.904,-1.663c-0.342,-1.258 0.404,-2.558 1.662,-2.904" style="fill:#318baa;fill-rule:nonzero;"/><path d="M1184.233,49.223c34.646,-0.792 27.017,-1.646 60.962,4.704c57.254,10.717 88.971,38.329 155.542,38.567c-39.225,-5.429 -62.712,-34.117 -104.646,-42.242c-51.379,-9.954 -79.783,-7.771 -111.242,-3.646" style="fill:#9ddcf9;fill-rule:nonzero;"/><path d="M1184.18,46.859c11.725,-0.267 18.596,-0.546 23.975,-0.546c5.238,0 9.083,0.279 14.333,1.079c5.246,0.796 11.925,2.112 23.142,4.212c28.917,5.413 51.329,15.075 74.629,23.304c23.317,8.233 47.529,15.092 80.487,15.217l-0.008,2.367l-0.321,2.342c-20.133,-2.787 -36.112,-11.521 -52.133,-20.383c-16.033,-8.879 -32.117,-17.904 -52.646,-21.879c-26.933,-5.217 -47.446,-7.071 -65.387,-7.071c-16.142,0 -30.233,1.5 -45.096,3.45c-1.296,0.167 -2.483,-0.746 -2.654,-2.042c-0.171,-1.296 0.746,-2.479 2.042,-2.654c14.933,-1.95 29.267,-3.487 45.708,-3.487c18.279,0 39.125,1.896 66.287,7.158c21.408,4.15 38.038,13.533 54.037,22.388c16.021,8.871 31.388,17.192 50.488,19.833c1.229,0.171 2.125,1.275 2.033,2.512c-0.083,1.242 -1.125,2.2 -2.367,2.196c-33.612,-0.112 -58.546,-7.179 -82.046,-15.488c-23.508,-8.312 -45.587,-17.812 -73.925,-23.112c-11.229,-2.1 -17.908,-3.417 -22.987,-4.188c-5.079,-0.767 -8.529,-1.017 -13.617,-1.021c-5.212,0 -12.117,0.275 -23.867,0.542c-1.308,0.033 -2.392,-1.004 -2.421,-2.312c-0.029,-1.304 1.004,-2.383 2.312,-2.417" style="fill:#318baa;fill-rule:nonzero;"/><path d="M1109.951,57.057c43.537,-9.738 104.708,13.754 110.933,35.675c22.004,-47.796 -56.179,-46.35 -111.017,-38.046" style="fill:#9ddcf9;fill-rule:nonzero;"/><path d="M1109.437,54.748c7.158,-1.604 14.742,-2.321 22.454,-2.321c20.267,0.008 41.454,4.946 58.388,12.254c8.462,3.663 15.862,7.913 21.571,12.513c5.692,4.604 9.771,9.554 11.312,14.892l-2.279,0.65l-2.15,-0.987c2.508,-5.442 3.592,-10.088 3.592,-13.996c-0.017,-4.725 -1.513,-8.417 -4.3,-11.608c-4.163,-4.771 -11.546,-8.275 -21.029,-10.462c-9.475,-2.196 -20.963,-3.112 -33.171,-3.112c-17.612,0 -36.721,1.896 -53.604,4.458c-1.292,0.192 -2.5,-0.7 -2.696,-1.987c-0.192,-1.292 0.696,-2.5 1.987,-2.696c17.062,-2.579 36.367,-4.504 54.312,-4.504c16.6,0.008 32.017,1.621 43.604,6.05c5.796,2.225 10.663,5.175 14.15,9.129c3.496,3.946 5.496,8.954 5.479,14.733c0,4.787 -1.317,10.087 -4.025,15.967c-0.417,0.904 -1.342,1.45 -2.333,1.375c-0.987,-0.079 -1.821,-0.758 -2.092,-1.713c-1.075,-3.867 -4.454,-8.271 -9.725,-12.504c-15.788,-12.796 -47.763,-23.767 -76.992,-23.721c-7.421,0 -14.662,0.696 -21.421,2.204c-1.279,0.288 -2.542,-0.512 -2.829,-1.792c-0.287,-1.271 0.517,-2.533 1.796,-2.821" style="fill:#318baa;fill-rule:nonzero;"/><path d="M1126.228,57.808c20.208,-3.262 63.421,-11.05 84.108,-21.283c32.675,-16.167 83.625,-29.471 120.983,-10.967c-21.325,-22.438 -79.704,-19.063 -111.517,-8.179c-27.854,9.529 -42.771,23.987 -68.317,33.258c-7.975,2.9 -20.271,7.617 -29.571,6.683" style="fill:#9ddcf9;fill-rule:nonzero;"/><path d="M1125.853,55.471c10.071,-1.625 25.883,-4.383 41.725,-7.996c15.821,-3.604 31.717,-8.117 41.708,-13.071c21.671,-10.708 51.162,-20.183 79.817,-20.196c15.092,0 29.967,2.642 43.267,9.233l-1.05,2.117l-1.713,1.629c-5.296,-5.579 -13.287,-9.608 -22.854,-12.192c-9.562,-2.583 -20.65,-3.729 -31.975,-3.725c-19.533,-0.004 -39.787,3.404 -54.208,8.346c-13.704,4.683 -24.221,10.579 -34.617,16.542c-10.383,5.954 -20.65,11.983 -33.658,16.704c-7.279,2.621 -18.258,6.908 -27.858,6.942c-0.929,0 -1.85,-0.042 -2.754,-0.129c-1.3,-0.133 -2.25,-1.296 -2.117,-2.596c0.133,-1.3 1.292,-2.246 2.592,-2.112c0.729,0.071 1.488,0.108 2.279,0.108c8.217,0.029 18.975,-3.996 26.242,-6.663c12.537,-4.55 22.504,-10.383 32.925,-16.362c10.412,-5.971 21.279,-12.071 35.438,-16.908c15.046,-5.146 35.654,-8.596 55.737,-8.6c11.642,0 23.1,1.162 33.208,3.892c10.096,2.733 18.892,7.029 25.046,13.492c0.796,0.837 0.875,2.108 0.192,3.033c-0.683,0.929 -1.925,1.229 -2.954,0.721c-12.483,-6.188 -26.621,-8.742 -41.167,-8.742c-27.604,-0.008 -56.588,9.242 -77.717,19.708c-10.7,5.279 -26.754,9.779 -42.758,13.437c-15.992,3.654 -31.883,6.421 -42.021,8.058c-1.292,0.208 -2.504,-0.667 -2.717,-1.958c-0.204,-1.292 0.671,-2.508 1.963,-2.712" style="fill:#318baa;fill-rule:nonzero;"/><path d="M986.547,74.107c24.983,-33.838 167.258,-31.738 184.954,-65.933c11.883,14.421 -25.45,45.329 -57.692,53.571c-50.454,12.9 -80.237,1.987 -128.954,14.425" style="fill:#9ddcf9;fill-rule:nonzero;"/><path d="M984.644,72.7c3.454,-4.663 8.708,-8.492 15.212,-11.842c11.396,-5.85 26.746,-10.254 43.679,-14.146c25.388,-5.821 54.342,-10.421 78.283,-16.346c11.967,-2.954 22.679,-6.25 30.987,-10.121c8.325,-3.854 14.125,-8.317 16.596,-13.162c0.367,-0.704 1.058,-1.179 1.85,-1.263c0.796,-0.087 1.571,0.229 2.079,0.846c1.896,2.283 2.808,5.063 2.796,7.883c-0.025,4.742 -2.304,9.571 -5.892,14.404c-10.825,14.417 -34.2,29.496 -55.838,35.079c-25.496,6.521 -45.825,7.021 -65.667,7.463c-19.854,0.438 -39.208,0.821 -63.292,6.967c-1.271,0.321 -2.554,-0.442 -2.879,-1.708c-0.325,-1.267 0.438,-2.554 1.708,-2.875c24.633,-6.292 44.529,-6.679 64.362,-7.117c19.842,-0.438 39.633,-0.933 64.592,-7.312c13.621,-3.471 28.404,-11.225 39.625,-19.971c5.617,-4.367 10.342,-8.987 13.596,-13.354c3.271,-4.363 4.979,-8.467 4.95,-11.575c-0.013,-1.871 -0.521,-3.408 -1.712,-4.871l1.821,-1.504l2.104,1.083c-2.529,4.862 -7.062,8.804 -12.917,12.221c-10.258,5.962 -24.779,10.408 -41.229,14.329c-24.662,5.863 -53.65,10.458 -78.438,16.35c-12.388,2.938 -23.712,6.204 -32.862,10.058c-9.15,3.842 -16.058,8.308 -19.712,13.296c-0.775,1.05 -2.254,1.275 -3.308,0.496c-1.05,-0.775 -1.275,-2.254 -0.496,-3.308" style="fill:#318baa;fill-rule:nonzero;"/><path d="M906.797,61.743c79.325,-39.521 175.471,32.275 260.875,23.642c-51.013,3.825 -99.912,15.254 -152.638,3.5c-38.258,-8.533 -61.462,-31.671 -106.542,-28.171" style="fill:#9ddcf9;fill-rule:nonzero;"/><path d="M905.738,59.625c17.729,-8.833 36.288,-12.212 55.233,-12.212c31.35,0.013 63.825,9.183 96.229,18.254c32.408,9.096 64.742,18.092 95.6,18.083c4.917,0 9.796,-0.229 14.633,-0.721l0.238,2.354l0.179,2.358c-34.396,2.575 -68.042,8.671 -102.779,8.679c-16.542,0 -33.337,-1.392 -50.55,-5.229c-18.125,-4.046 -32.825,-11.271 -47.725,-17.358c-14.917,-6.1 -29.996,-11.108 -49.217,-11.112c-2.867,0 -5.833,0.112 -8.904,0.354c-1.304,0.096 -2.442,-0.879 -2.542,-2.175c-0.1,-1.308 0.871,-2.446 2.179,-2.542c3.188,-0.254 6.275,-0.367 9.267,-0.367c20.071,-0.004 35.917,5.283 51.004,11.458c15.108,6.192 29.492,13.233 46.967,17.125c16.808,3.746 33.242,5.117 49.521,5.117c34.179,0.004 67.704,-6.058 102.421,-8.667c1.292,-0.092 2.421,0.867 2.538,2.154c0.112,1.287 -0.838,2.429 -2.121,2.558c-5.008,0.513 -10.046,0.742 -15.108,0.742c-31.771,-0.008 -64.467,-9.179 -96.875,-18.254c-32.404,-9.092 -64.533,-18.092 -94.954,-18.079c-18.396,0 -36.146,3.262 -53.121,11.712c-1.171,0.587 -2.592,0.108 -3.171,-1.058c-0.583,-1.171 -0.108,-2.592 1.058,-3.175" style="fill:#318baa;fill-rule:nonzero;"/><path d="M866.069,69.984c77.717,-1.121 125.871,-49.354 208.471,-51.513c-150.775,-12.358 -143.625,37.304 -210.163,52.546" style="fill:#9ddcf9;fill-rule:nonzero;"/><path d="M866.033,67.621c38.362,-0.554 69.492,-12.729 101.583,-25.213c32.071,-12.458 65.1,-25.213 106.858,-26.304l0.062,2.367l-0.196,2.363c-16.354,-1.346 -30.829,-1.95 -43.721,-1.95c-52.817,0.029 -78.921,10.1 -99.529,21.842c-10.308,5.888 -19.279,12.275 -29.479,18.1c-10.204,5.825 -21.633,11.046 -36.708,14.496c-1.275,0.296 -2.542,-0.5 -2.833,-1.775c-0.296,-1.275 0.5,-2.546 1.779,-2.833c14.571,-3.342 25.475,-8.329 35.417,-13.996c14.896,-8.487 27.675,-18.663 46.817,-26.717c19.138,-8.054 44.508,-13.854 84.538,-13.85c13.042,0 27.646,0.617 44.108,1.962c1.25,0.104 2.208,1.167 2.171,2.421c-0.033,1.262 -1.046,2.271 -2.304,2.304c-40.833,1.067 -73.183,13.508 -105.263,25.987c-32.062,12.458 -63.871,24.954 -103.229,25.525c-1.308,0.021 -2.379,-1.025 -2.404,-2.329c-0.017,-1.308 1.029,-2.383 2.333,-2.4" style="fill:#318baa;fill-rule:nonzero;"/><path d="M806.678,69.984c53.454,-11.517 85.533,35.062 144.175,28.617c-43.346,-24.458 -73.379,-51.604 -137.383,-29.65" style="fill:#9ddcf9;fill-rule:nonzero;"/><path d="M806.183,67.675c6.087,-1.312 11.921,-1.896 17.55,-1.896c20.942,0.012 38.858,7.983 57.038,15.729c18.204,7.767 36.675,15.35 58.933,15.35c3.529,0 7.15,-0.196 10.892,-0.604l0.258,2.35l-1.163,2.062c-16.15,-9.121 -30.358,-18.529 -44.975,-25.596c-14.625,-7.071 -29.596,-11.821 -47.542,-11.833c-12.542,0.008 -26.567,2.337 -42.938,7.954c-1.237,0.425 -2.583,-0.233 -3.008,-1.471c-0.421,-1.233 0.233,-2.583 1.471,-3.004c16.775,-5.754 31.337,-8.208 44.475,-8.208c18.8,-0.004 34.604,5.042 49.604,12.308c15.008,7.263 29.267,16.717 45.238,25.729c0.896,0.504 1.362,1.525 1.154,2.533c-0.204,1.008 -1.037,1.767 -2.058,1.879c-3.913,0.429 -7.708,0.629 -11.408,0.629c-23.367,-0.004 -42.571,-7.962 -60.788,-15.729c-18.242,-7.792 -35.5,-15.354 -55.183,-15.346c-5.304,0 -10.792,0.546 -16.554,1.788c-1.279,0.275 -2.537,-0.538 -2.812,-1.817c-0.275,-1.275 0.538,-2.537 1.817,-2.808" style="fill:#318baa;fill-rule:nonzero;"/><path d="M728.621,89.558c36.133,-5.625 30.775,-23.467 45.821,-32.967c42.417,-26.779 81.446,-8.238 123.871,-36.054c-6.788,32.967 -106.904,64.904 -161.204,67.992" style="fill:#9ddcf9;fill-rule:nonzero;"/><path d="M111.084,54.029c-39.433,-3.392 -70.25,22.125 -108.721,21.346c24.408,-20.167 61.967,-23.971 100.808,-24.092" style="fill:#9ddcf9;fill-rule:nonzero;"/><path d="M110.879,56.383c-2.383,-0.204 -4.737,-0.3 -7.071,-0.3c-17.229,-0.008 -33.067,5.283 -49.163,10.712c-16.079,5.408 -32.408,10.958 -50.546,10.963c-0.592,0 -1.187,-0.004 -1.787,-0.021c-0.979,-0.017 -1.858,-0.654 -2.183,-1.583c-0.321,-0.933 -0.029,-1.975 0.729,-2.604c12.617,-10.417 28.496,-16.521 46.029,-20.058c17.542,-3.538 36.779,-4.513 56.279,-4.571c1.308,-0.004 2.367,1.05 2.371,2.358c0.004,1.304 -1.05,2.367 -2.358,2.371c-19.346,0.058 -38.308,1.042 -55.358,4.479c-17.054,3.442 -32.158,9.321 -43.946,19.071l-1.513,-1.825l0.05,-2.367c0.567,0.013 1.125,0.017 1.687,0.017c17.146,0.013 32.946,-5.283 49.038,-10.708c16.079,-5.417 32.454,-10.958 50.671,-10.962c2.463,0 4.954,0.096 7.479,0.317c1.3,0.112 2.263,1.258 2.15,2.558c-0.112,1.3 -1.254,2.267 -2.558,2.154" style="fill:#318baa;fill-rule:nonzero;"/><path d="M175.151,45.064c-29.671,18.558 -107.375,4.492 -143.496,-3.017c16.638,-0.337 38.425,-4.488 59.071,-3.817c26.929,0.883 60.771,13.358 85.296,7.642" style="fill:#9ddcf9;fill-rule:nonzero;"/><path d="M176.402,47.069c-11.55,7.175 -29.017,9.521 -48.425,9.55c-33.887,-0.008 -73.762,-7.467 -96.804,-12.254c-1.179,-0.242 -1.983,-1.333 -1.871,-2.533c0.108,-1.2 1.1,-2.125 2.304,-2.146c15.1,-0.3 34.971,-3.888 54.479,-3.896c1.575,0 3.146,0.029 4.717,0.075c11.237,0.375 23.442,2.688 35.6,4.875c12.154,2.192 24.258,4.267 35.137,4.262c4.946,0 9.629,-0.425 13.946,-1.433c1.275,-0.296 2.546,0.496 2.842,1.767c0.3,1.275 -0.492,2.542 -1.763,2.842c-4.771,1.112 -9.812,1.554 -15.025,1.554c-11.467,-0.004 -23.792,-2.142 -35.979,-4.333c-12.175,-2.196 -24.208,-4.454 -34.913,-4.8c-1.512,-0.05 -3.038,-0.071 -4.562,-0.071c-18.958,-0.012 -38.683,3.554 -54.379,3.888l-0.05,-2.367l0.483,-2.312c22.9,4.767 62.608,12.158 95.838,12.154c19.008,0.025 35.875,-2.492 45.921,-8.833c1.104,-0.692 2.562,-0.354 3.254,0.75c0.696,1.108 0.358,2.571 -0.75,3.263" style="fill:#318baa;fill-rule:nonzero;"/><path d="M211.386,49.749c-16.275,-4.417 -24.871,-18.142 -41.667,-25.167c-29.892,-12.492 -78.646,-17.954 -113.833,-21.188c49.842,15.571 90.429,51.117 153.267,46.125" style="fill:#9ddcf9;fill-rule:nonzero;"/><path d="M210.765,52.032c-8.654,-2.35 -15.158,-7.142 -21.467,-12.017c-6.317,-4.896 -12.471,-9.896 -20.492,-13.246c-29.317,-12.292 -78.025,-17.817 -113.142,-21.017l0.221,-2.358l0.704,-2.258c23.608,7.379 44.967,19.088 67.321,28.858c22.371,9.771 45.683,17.638 73.329,17.638c3.817,0 7.721,-0.146 11.725,-0.471c1.3,-0.1 2.438,0.871 2.546,2.171c0.104,1.304 -0.871,2.446 -2.171,2.55c-4.129,0.329 -8.154,0.483 -12.1,0.483c-28.567,0 -52.621,-8.154 -75.221,-18.042c-22.612,-9.892 -43.825,-21.488 -66.842,-28.671c-1.163,-0.363 -1.854,-1.533 -1.617,-2.725c0.242,-1.188 1.333,-2 2.538,-1.887c35.267,3.254 84.075,8.658 114.533,21.362c8.779,3.679 15.317,9.046 21.567,13.871c6.258,4.846 12.179,9.125 19.804,11.192c1.262,0.346 2.004,1.646 1.667,2.904c-0.346,1.263 -1.646,2.008 -2.904,1.663" style="fill:#318baa;fill-rule:nonzero;"/><path d="M285.86,49.223c-34.646,-0.792 -27.017,-1.646 -60.963,4.704c-57.258,10.717 -88.971,38.329 -155.538,38.567c39.225,-5.429 62.713,-34.117 104.646,-42.242c51.379,-9.954 79.779,-7.771 111.242,-3.646" style="fill:#9ddcf9;fill-rule:nonzero;"/><path d="M285.807,51.59c-11.754,-0.267 -18.654,-0.546 -23.867,-0.542c-5.087,0 -8.542,0.25 -13.617,1.021c-5.079,0.771 -11.758,2.083 -22.987,4.183c-28.342,5.304 -50.417,14.804 -73.929,23.117c-23.496,8.308 -48.425,15.375 -82.038,15.488c-1.242,0.004 -2.283,-0.958 -2.367,-2.2c-0.092,-1.238 0.804,-2.342 2.029,-2.508c19.1,-2.642 34.471,-10.962 50.492,-19.833c16,-8.854 32.625,-18.237 54.033,-22.387c27.162,-5.263 48.012,-7.163 66.292,-7.163c16.438,0 30.771,1.538 45.704,3.496c1.296,0.171 2.212,1.354 2.042,2.646c-0.171,1.296 -1.358,2.213 -2.654,2.042c-14.867,-1.946 -28.954,-3.446 -45.092,-3.446c-17.95,0 -38.458,1.854 -65.396,7.071c-20.525,3.975 -36.608,12.996 -52.637,21.879c-16.017,8.862 -32,17.592 -52.129,20.379l-0.325,-2.337l-0.008,-2.371c32.954,-0.125 57.162,-6.979 80.479,-15.212c23.3,-8.233 45.708,-17.892 74.633,-23.308c11.217,-2.1 17.887,-3.413 23.142,-4.212c5.25,-0.8 9.096,-1.075 14.333,-1.075c5.379,0 12.25,0.275 23.975,0.546c1.308,0.029 2.337,1.112 2.312,2.421c-0.029,1.304 -1.113,2.338 -2.421,2.308" style="fill:#318baa;fill-rule:nonzero;"/><path d="M360.143,57.057c-43.542,-9.738 -104.708,13.754 -110.942,35.675c-21.992,-47.796 56.188,-46.35 111.021,-38.046" style="fill:#9ddcf9;fill-rule:nonzero;"/><path d="M359.629,59.362c-6.762,-1.508 -14.008,-2.208 -21.433,-2.208c-19.488,-0.004 -40.183,4.817 -56.504,11.875c-8.158,3.525 -15.225,7.608 -20.483,11.85c-5.271,4.229 -8.658,8.633 -9.729,12.504c-0.271,0.954 -1.104,1.633 -2.096,1.708c-0.992,0.075 -1.917,-0.467 -2.329,-1.371c-2.708,-5.883 -4.017,-11.175 -4.021,-15.963c-0.017,-5.787 1.983,-10.787 5.475,-14.737c5.254,-5.933 13.533,-9.617 23.521,-11.946c10.004,-2.317 21.796,-3.237 34.242,-3.237c17.946,0 37.246,1.925 54.308,4.508c1.292,0.196 2.183,1.4 1.983,2.692c-0.196,1.292 -1.4,2.179 -2.692,1.988c-16.879,-2.558 -35.988,-4.458 -53.6,-4.458c-16.275,-0.008 -31.288,1.65 -41.917,5.742c-5.317,2.038 -9.504,4.663 -12.292,7.837c-2.783,3.192 -4.283,6.883 -4.3,11.612c0,3.908 1.088,8.554 3.588,13.988l-2.15,0.987l-2.271,-0.646c1.542,-5.342 5.617,-10.287 11.312,-14.892c17.108,-13.729 49.55,-24.725 79.954,-24.771c7.721,0 15.3,0.721 22.467,2.325c1.271,0.283 2.075,1.55 1.792,2.821c-0.287,1.279 -1.55,2.079 -2.825,1.792" style="fill:#318baa;fill-rule:nonzero;"/><path d="M343.866,57.808c-20.212,-3.262 -63.421,-11.05 -84.104,-21.283c-32.675,-16.167 -83.629,-29.471 -120.983,-10.967c21.325,-22.438 79.696,-19.063 111.508,-8.179c27.858,9.529 42.779,23.987 68.317,33.258c7.975,2.9 20.275,7.617 29.562,6.683" style="fill:#9ddcf9;fill-rule:nonzero;"/><path d="M343.491,60.143c-10.133,-1.638 -26.033,-4.404 -42.029,-8.058c-16.004,-3.658 -32.054,-8.158 -42.75,-13.442c-21.129,-10.463 -50.117,-19.717 -77.717,-19.704c-14.546,0 -28.687,2.554 -41.167,8.742c-1.033,0.508 -2.275,0.208 -2.954,-0.721c-0.683,-0.925 -0.6,-2.2 0.188,-3.033c6.162,-6.462 14.95,-10.758 25.046,-13.496c10.108,-2.729 21.567,-3.888 33.208,-3.888c20.079,0.004 40.692,3.45 55.738,8.596c14.158,4.838 25.025,10.942 35.438,16.913c10.421,5.975 20.387,11.808 32.921,16.363c7.271,2.667 18.025,6.692 26.242,6.658c0.787,0 1.55,-0.033 2.279,-0.104c1.3,-0.138 2.458,0.812 2.587,2.112c0.138,1.3 -0.812,2.458 -2.112,2.587c-0.904,0.096 -1.825,0.138 -2.754,0.138c-9.6,-0.033 -20.579,-4.321 -27.858,-6.942c-13.004,-4.721 -23.271,-10.754 -33.654,-16.708c-10.396,-5.958 -20.917,-11.854 -34.617,-16.542c-14.421,-4.938 -34.675,-8.346 -54.208,-8.342c-11.325,-0.004 -22.412,1.137 -31.971,3.725c-9.567,2.583 -17.562,6.613 -22.85,12.192l-1.717,-1.633l-1.05,-2.117c13.296,-6.587 28.175,-9.233 43.267,-9.233c28.65,0.017 58.142,9.488 79.817,20.2c9.988,4.954 25.883,9.467 41.704,13.071c15.842,3.613 31.654,6.367 41.729,7.996c1.288,0.204 2.167,1.421 1.958,2.708c-0.208,1.292 -1.421,2.167 -2.712,1.958" style="fill:#318baa;fill-rule:nonzero;"/><path d="M483.547,74.107c-24.992,-33.838 -167.258,-31.738 -184.954,-65.933c-11.883,14.421 25.45,45.329 57.692,53.571c50.454,12.9 80.233,1.987 128.954,14.425" style="fill:#9ddcf9;fill-rule:nonzero;"/><path d="M481.644,75.514c-2.792,-3.796 -7.446,-7.308 -13.575,-10.446c-10.717,-5.521 -25.8,-9.904 -42.571,-13.746c-25.171,-5.771 -54.129,-10.371 -78.362,-16.362c-12.121,-3 -23.067,-6.342 -31.842,-10.425c-8.754,-4.092 -15.471,-8.9 -18.808,-15.275l2.104,-1.087l1.829,1.504c-1.2,1.467 -1.708,3.004 -1.721,4.875c-0.025,3.108 1.679,7.208 4.954,11.575c9.75,13.183 32.779,28.158 53.217,33.325c24.967,6.379 44.75,6.875 64.596,7.313c19.825,0.438 39.721,0.821 64.358,7.117c1.271,0.321 2.033,1.608 1.708,2.875c-0.321,1.263 -1.608,2.029 -2.875,1.708c-24.087,-6.15 -43.446,-6.533 -63.296,-6.971c-19.842,-0.438 -40.171,-0.938 -65.667,-7.458c-14.429,-3.7 -29.617,-11.692 -41.358,-20.821c-5.871,-4.575 -10.871,-9.429 -14.475,-14.263c-3.587,-4.833 -5.871,-9.662 -5.892,-14.4c-0.017,-2.825 0.896,-5.6 2.796,-7.883c0.508,-0.617 1.279,-0.933 2.075,-0.85c0.792,0.088 1.483,0.558 1.85,1.267c1.9,3.688 5.683,7.162 11.096,10.308c9.454,5.521 23.679,9.95 39.938,13.808c24.408,5.808 53.4,10.404 78.438,16.35c12.521,2.975 24.058,6.283 33.604,10.304c9.533,4.029 17.142,8.729 21.683,14.846c0.779,1.054 0.554,2.529 -0.496,3.308c-1.05,0.779 -2.529,0.554 -3.308,-0.496" style="fill:#318baa;fill-rule:nonzero;"/><path d="M563.301,61.743c-79.333,-39.521 -175.475,32.275 -260.883,23.642c51.008,3.825 99.917,15.254 152.642,3.5c38.254,-8.533 61.462,-31.671 106.546,-28.171" style="fill:#9ddcf9;fill-rule:nonzero;"/><path d="M562.243,63.86c-16.975,-8.45 -34.725,-11.713 -53.125,-11.713c-30.421,-0.012 -62.546,8.988 -94.954,18.079c-32.408,9.075 -65.1,18.246 -96.875,18.254c-5.062,0 -10.1,-0.233 -15.108,-0.742c-1.283,-0.129 -2.233,-1.271 -2.117,-2.558c0.113,-1.287 1.242,-2.246 2.533,-2.154c34.712,2.608 68.242,8.671 102.425,8.667c16.279,0 32.713,-1.371 49.521,-5.121c17.475,-3.888 31.858,-10.929 46.967,-17.121c15.087,-6.175 30.942,-11.467 51.008,-11.463c2.992,0 6.079,0.117 9.271,0.367c1.304,0.1 2.275,1.237 2.175,2.542c-0.1,1.3 -1.237,2.275 -2.538,2.175c-3.075,-0.242 -6.042,-0.35 -8.908,-0.35c-19.225,0.004 -34.304,5.008 -49.217,11.112c-14.904,6.088 -29.604,13.308 -47.729,17.358c-17.212,3.838 -34.004,5.229 -50.55,5.229c-34.742,-0.008 -68.392,-6.104 -102.779,-8.679l0.175,-2.358l0.238,-2.354c4.837,0.492 9.717,0.721 14.633,0.721c30.858,0.008 63.196,-8.987 95.6,-18.083c32.408,-9.071 64.879,-18.242 96.229,-18.254c18.95,0 37.508,3.375 55.237,12.213c1.171,0.583 1.646,2.004 1.062,3.175c-0.583,1.167 -2.004,1.642 -3.171,1.058" style="fill:#318baa;fill-rule:nonzero;"/><path d="M604.025,69.984c-77.721,-1.121 -125.871,-49.354 -208.475,-51.513c150.779,-12.358 143.621,37.304 210.171,52.546" style="fill:#9ddcf9;fill-rule:nonzero;"/><path d="M603.994,72.351c-39.367,-0.571 -71.175,-13.071 -103.233,-25.529c-32.083,-12.475 -64.429,-24.917 -105.267,-25.988c-1.258,-0.029 -2.271,-1.037 -2.304,-2.3c-0.038,-1.254 0.921,-2.317 2.171,-2.421c16.462,-1.35 31.071,-1.967 44.108,-1.967c53.354,-0.025 80.729,10.367 101.875,22.475c10.567,6.038 19.546,12.425 29.483,18.096c9.946,5.667 20.846,10.65 35.425,13.992c1.275,0.292 2.071,1.558 1.779,2.833c-0.296,1.279 -1.562,2.071 -2.837,1.779c-15.079,-3.45 -26.508,-8.671 -36.713,-14.496c-15.312,-8.75 -27.812,-18.704 -46.304,-26.467c-18.496,-7.767 -43.108,-13.471 -82.708,-13.475c-12.892,0 -27.367,0.604 -43.721,1.946l-0.196,-2.358l0.063,-2.367c41.762,1.092 74.792,13.842 106.863,26.304c32.096,12.479 63.217,24.658 101.583,25.212c1.304,0.017 2.35,1.088 2.333,2.396c-0.021,1.304 -1.096,2.35 -2.4,2.333" style="fill:#318baa;fill-rule:nonzero;"/><path d="M663.415,69.984c-53.458,-11.517 -85.533,35.062 -144.175,28.617c43.346,-24.458 73.379,-51.604 137.388,-29.65" style="fill:#9ddcf9;fill-rule:nonzero;"/><path d="M662.92,72.298c-5.767,-1.242 -11.258,-1.788 -16.562,-1.788c-19.679,-0.008 -36.942,7.554 -55.179,15.35c-18.221,7.767 -37.421,15.721 -60.788,15.725c-3.7,0 -7.496,-0.2 -11.408,-0.629c-1.025,-0.112 -1.854,-0.871 -2.058,-1.875c-0.208,-1.008 0.258,-2.033 1.154,-2.537c15.971,-9.008 30.229,-18.467 45.242,-25.729c15,-7.263 30.8,-12.308 49.6,-12.304c13.138,0 27.7,2.45 44.475,8.204c1.237,0.425 1.892,1.775 1.471,3.004c-0.425,1.237 -1.771,1.896 -3.008,1.471c-16.371,-5.612 -30.396,-7.946 -42.938,-7.95c-17.946,0.008 -32.917,4.763 -47.542,11.833c-14.617,7.067 -28.825,16.471 -44.975,25.592l-1.163,-2.062l0.258,-2.35c3.742,0.412 7.362,0.604 10.892,0.604c22.258,0 40.729,-7.579 58.929,-15.346c18.179,-7.746 36.096,-15.721 57.038,-15.729c5.629,0 11.467,0.579 17.558,1.892c1.275,0.275 2.088,1.533 1.812,2.812c-0.275,1.275 -1.533,2.087 -2.808,1.812" style="fill:#318baa;fill-rule:nonzero;"/><path d="M727.893,89.558c-36.138,-5.625 -17.204,-23.467 -32.237,-32.967c-42.421,-26.779 -81.45,-8.238 -123.871,-36.054c6.783,32.967 93.329,64.904 147.625,67.992" style="fill:#9ddcf9;fill-rule:nonzero;"/><path d="M728.26,87.221c8.842,-1.375 15.008,-3.479 19.525,-5.933c6.754,-3.683 9.954,-8.104 13.1,-12.871c3.108,-4.729 6.117,-9.925 12.292,-13.825c21.717,-13.717 42.621,-15.808 62.946,-17.992c20.379,-2.196 40.179,-4.471 60.892,-18.042c0.8,-0.529 1.838,-0.521 2.629,0.021c0.792,0.538 1.183,1.496 0.983,2.433c-1.975,9.312 -10.004,17.717 -21.387,25.571c-17.138,11.746 -42.3,22.171 -68.367,30.029c-26.071,7.854 -52.987,13.1 -73.625,14.275c-1.304,0.075 -2.425,-0.921 -2.496,-2.225c-0.079,-1.304 0.917,-2.425 2.225,-2.496c26.796,-1.513 65.287,-10.233 97.708,-22.642c16.213,-6.196 30.921,-13.325 41.871,-20.842c10.996,-7.504 18.029,-15.454 19.442,-22.625l2.317,0.479l1.296,1.979c-21.712,14.238 -42.633,16.596 -62.983,18.788c-20.4,2.192 -40.221,4.225 -60.925,17.287c-3.413,2.163 -5.65,4.75 -7.75,7.729c-3.138,4.429 -5.838,9.812 -11.367,14.625c-5.542,4.812 -13.771,8.808 -27.596,10.95c-1.292,0.204 -2.504,-0.683 -2.704,-1.971c-0.2,-1.292 0.683,-2.504 1.975,-2.704" style="fill:#318baa;fill-rule:nonzero;"/><path d="M727.532,91.898c-9.242,-1.446 -15.196,-3.675 -19.212,-6.625c-3,-2.2 -4.825,-4.85 -5.883,-7.508c-1.583,-3.992 -1.692,-7.875 -2.479,-11.092c-0.812,-3.242 -1.917,-5.721 -5.562,-8.079c-20.704,-13.067 -40.529,-15.096 -60.929,-17.292c-20.346,-2.188 -41.267,-4.546 -62.975,-18.788l1.296,-1.979l2.317,-0.475c1.471,7.325 7.712,15.213 17.425,22.704c14.521,11.254 36.496,21.6 59.846,29.342c23.346,7.75 48.1,12.921 68.171,14.062c1.304,0.071 2.304,1.192 2.229,2.496c-0.075,1.304 -1.192,2.3 -2.496,2.225c-27.525,-1.575 -62.887,-10.383 -92.425,-22.979c-14.771,-6.3 -28.071,-13.55 -38.225,-21.408c-10.121,-7.867 -17.237,-16.329 -19.163,-25.492c-0.192,-0.933 0.196,-1.896 0.988,-2.429c0.792,-0.542 1.829,-0.55 2.625,-0.025c20.712,13.571 40.517,15.85 60.896,18.042c20.325,2.188 41.229,4.275 62.946,17.992c4.258,2.65 6.337,6.254 7.304,9.704c0.75,2.596 1.017,5.108 1.442,7.408c0.658,3.479 1.517,6.304 4.4,8.904c2.9,2.6 8.263,5.075 18.196,6.617c1.292,0.2 2.175,1.408 1.975,2.7c-0.204,1.292 -1.413,2.175 -2.704,1.975" style="fill:#318baa;fill-rule:nonzero;"/><path d="M708.425,58.46c-16.513,-5.233 -19.142,-24.171 -15.729,-39.196c11.675,-2.354 53.671,12.467 36.212,28.021" style="fill:#318baa;fill-rule:nonzero;"/><path d="M707.71,60.711c-6.825,-2.146 -11.633,-6.575 -14.562,-11.979c-2.938,-5.404 -4.117,-11.729 -4.121,-18.033c0.004,-4.062 0.496,-8.129 1.367,-11.958c0.204,-0.908 0.921,-1.613 1.833,-1.796c1.042,-0.208 2.167,-0.292 3.383,-0.292c6.471,0.025 15.954,2.408 24.183,6.271c4.104,1.942 7.871,4.25 10.737,6.963c2.837,2.692 4.917,5.921 4.938,9.692c0.008,3.333 -1.729,6.6 -4.983,9.471c-0.975,0.871 -2.475,0.783 -3.342,-0.192c-0.871,-0.975 -0.779,-2.471 0.196,-3.342c2.617,-2.354 3.383,-4.279 3.392,-5.938c0.021,-1.875 -1.113,-4.037 -3.458,-6.258c-3.475,-3.317 -9.367,-6.408 -15.404,-8.542c-6.025,-2.163 -12.267,-3.404 -16.258,-3.396c-0.987,0 -1.829,0.075 -2.446,0.2l-0.467,-2.317l2.308,0.521c-0.796,3.504 -1.246,7.233 -1.246,10.913c-0.004,5.713 1.092,11.288 3.542,15.767c2.471,4.487 6.175,7.925 11.837,9.737c1.246,0.396 1.933,1.725 1.542,2.971c-0.4,1.242 -1.725,1.933 -2.971,1.538" style="fill:#9ddcf9;fill-rule:nonzero;"/><path d="M718.426,73.99c-17.808,-1.625 -30.133,-19.492 -45.646,-15.675c5.092,-15.092 24.896,-23.917 40.346,-12.242c9.188,6.954 9.612,17.45 15.787,23.704" style="fill:#318baa;fill-rule:nonzero;"/><path d="M718.212,76.349c-8.733,-0.812 -15.958,-5.121 -22.567,-8.975c-6.617,-3.9 -12.6,-7.263 -18.471,-7.225c-1.258,0 -2.521,0.146 -3.825,0.462c-0.838,0.208 -1.725,-0.062 -2.312,-0.696c-0.579,-0.629 -0.771,-1.542 -0.5,-2.354c3.833,-11.271 14.912,-19.208 27.025,-19.233c5.712,-0.004 11.646,1.812 16.987,5.854c5.054,3.825 7.675,8.642 9.738,12.996c2.058,4.383 3.667,8.296 6.312,10.938c0.917,0.929 0.904,2.429 -0.025,3.346c-0.929,0.921 -2.429,0.912 -3.346,-0.021c-3.533,-3.604 -5.221,-8.071 -7.217,-12.242c-1.992,-4.196 -4.179,-8.108 -8.317,-11.242c-4.55,-3.433 -9.408,-4.892 -14.133,-4.896c-10.013,-0.025 -19.45,6.763 -22.538,16.008l-2.246,-0.754l-0.562,-2.296c1.675,-0.412 3.333,-0.604 4.958,-0.604c7.671,0.042 14.258,4.046 20.863,7.875c6.608,3.888 13.237,7.683 20.608,8.346c1.3,0.117 2.254,1.267 2.138,2.567c-0.117,1.304 -1.267,2.263 -2.571,2.146" style="fill:#9ddcf9;fill-rule:nonzero;"/><path d="M753.343,58.46c16.508,-5.233 19.138,-24.171 15.725,-39.196c-11.675,-2.354 -53.667,12.467 -36.212,28.021" style="fill:#318baa;fill-rule:nonzero;"/><path d="M752.628,56.204c5.658,-1.812 9.367,-5.254 11.833,-9.738c2.45,-4.479 3.55,-10.054 3.546,-15.767c0,-3.683 -0.45,-7.413 -1.246,-10.912l2.304,-0.525l-0.462,2.321c-0.621,-0.125 -1.462,-0.2 -2.45,-0.2c-5.337,-0.025 -14.596,2.221 -22.163,5.817c-3.792,1.788 -7.183,3.913 -9.5,6.121c-2.346,2.221 -3.479,4.383 -3.458,6.258c0.008,1.658 0.779,3.583 3.4,5.938c0.971,0.871 1.058,2.367 0.192,3.342c-0.871,0.971 -2.371,1.062 -3.342,0.192c-3.254,-2.875 -4.992,-6.138 -4.983,-9.471c0.021,-3.771 2.096,-7 4.938,-9.692c4.296,-4.058 10.621,-7.258 17.071,-9.571c6.467,-2.292 12.979,-3.654 17.846,-3.667c1.221,0 2.346,0.087 3.383,0.296c0.913,0.183 1.633,0.883 1.838,1.796c0.867,3.829 1.362,7.892 1.362,11.958c-0.004,6.296 -1.179,12.625 -4.121,18.033c-2.925,5.404 -7.737,9.833 -14.558,11.979c-1.246,0.396 -2.575,-0.296 -2.971,-1.538c-0.396,-1.246 0.296,-2.579 1.542,-2.971" style="fill:#9ddcf9;fill-rule:nonzero;"/><path d="M743.338,73.99c17.812,-1.625 30.133,-19.492 45.642,-15.675c-5.083,-15.092 -24.887,-23.917 -40.333,-12.242c-9.192,6.954 -9.617,17.45 -15.792,23.704" style="fill:#318baa;fill-rule:nonzero;"/><path d="M743.123,71.637c7.371,-0.662 13.996,-4.458 20.604,-8.346c6.604,-3.829 13.192,-7.833 20.863,-7.875c1.621,0 3.275,0.192 4.958,0.604l-0.571,2.296l-2.237,0.754c-3.083,-9.246 -12.521,-16.033 -22.538,-16.008c-4.721,0.004 -9.579,1.462 -14.133,4.896c-4.133,3.133 -6.321,7.046 -8.312,11.246c-1.996,4.167 -3.683,8.633 -7.217,12.238c-0.921,0.933 -2.417,0.942 -3.346,0.021c-0.929,-0.917 -0.942,-2.417 -0.025,-3.346c2.646,-2.642 4.254,-6.554 6.312,-10.938c2.058,-4.354 4.675,-9.171 9.733,-12.992c5.342,-4.046 11.279,-5.862 16.987,-5.858c12.117,0.025 23.192,7.962 27.021,19.233c0.275,0.812 0.083,1.725 -0.5,2.354c-0.583,0.633 -1.471,0.904 -2.308,0.696c-1.304,-0.317 -2.567,-0.462 -3.825,-0.462c-5.871,-0.038 -11.858,3.321 -18.467,7.225c-6.608,3.854 -13.837,8.163 -22.571,8.975c-1.3,0.117 -2.454,-0.842 -2.567,-2.146c-0.121,-1.296 0.838,-2.45 2.138,-2.567" style="fill:#9ddcf9;fill-rule:nonzero;"/><path d="M732.854,66.268c27.408,-22.962 10.908,-41.875 -1.971,-63.904c-12.879,22.029 -29.383,40.942 -1.971,63.904" style="fill:#318baa;fill-rule:nonzero;"/><path d="M731.335,64.454c5.283,-4.425 8.788,-8.621 10.958,-12.596c2.171,-3.979 3.046,-7.742 3.05,-11.517c0.008,-5.704 -2.079,-11.533 -5.242,-17.642c-3.15,-6.104 -7.337,-12.438 -11.262,-19.142l2.046,-1.196l2.042,1.196c-3.929,6.704 -8.113,13.033 -11.267,19.142c-3.158,6.104 -5.25,11.937 -5.238,17.637c0.004,3.775 0.879,7.538 3.05,11.521c2.171,3.975 5.675,8.171 10.958,12.596c1.004,0.842 1.138,2.333 0.296,3.333c-0.837,1 -2.329,1.133 -3.329,0.292c-5.621,-4.704 -9.546,-9.325 -12.075,-13.954c-2.533,-4.621 -3.637,-9.258 -3.633,-13.788c0.004,-6.871 2.458,-13.392 5.767,-19.808c3.325,-6.429 7.55,-12.8 11.383,-19.363c0.425,-0.721 1.204,-1.167 2.046,-1.167c0.833,0 1.617,0.446 2.042,1.167c3.829,6.563 8.058,12.938 11.379,19.363c3.317,6.417 5.763,12.942 5.771,19.812c0.004,4.525 -1.096,9.163 -3.629,13.783c-2.533,4.629 -6.454,9.25 -12.075,13.954c-1,0.842 -2.492,0.708 -3.333,-0.292c-0.837,-1 -0.704,-2.492 0.296,-3.333" style="fill:#9ddcf9;fill-rule:nonzero;"/><path d="M730.884,56.008c5.788,5.333 13.279,10.283 8.55,16.871c4.754,-5.537 6.604,-3.104 11.138,-3.117c-1.925,7.633 -11.017,14.646 -19.688,10.146c-8.675,4.5 -17.763,-2.513 -19.696,-10.146c4.538,0.013 6.388,-2.421 11.15,3.117c-4.733,-6.588 2.754,-11.537 8.546,-16.871" style="fill:#9ddcf9;fill-rule:nonzero;"/><path d="M730.884,56.008l1.6,-1.737c2.175,2.004 4.721,4.038 6.837,6.292c1.058,1.133 2.021,2.329 2.746,3.671c0.729,1.333 1.225,2.85 1.225,4.487c0.008,1.867 -0.667,3.779 -1.938,5.538l-1.921,-1.379l-1.796,-1.542c1.375,-1.6 2.617,-2.704 3.921,-3.442c1.296,-0.746 2.671,-1.033 3.85,-1.021c2.079,0.042 3.442,0.546 5.138,0.525l0,1.796l-0.083,-1.796l0.083,0l0,1.796l-0.083,-1.796c0.75,-0.038 1.467,0.283 1.942,0.867c0.475,0.579 0.646,1.346 0.467,2.075c-0.9,3.525 -3.008,6.775 -5.85,9.233c-2.846,2.442 -6.496,4.108 -10.492,4.112c-2.221,0.004 -4.525,-0.525 -6.738,-1.675l1.092,-2.104l1.083,2.104c-2.208,1.15 -4.513,1.679 -6.729,1.675c-4.004,-0.004 -7.65,-1.671 -10.492,-4.112c-2.846,-2.458 -4.95,-5.708 -5.85,-9.233c-0.179,-0.708 -0.017,-1.471 0.442,-2.046c0.454,-0.575 1.154,-0.912 1.892,-0.896l-0.012,0.725l0,-0.725l0.012,0l-0.012,0.725l0,-0.725c1.696,0.021 3.058,-0.483 5.142,-0.525c1.175,-0.013 2.55,0.275 3.846,1.017c1.304,0.742 2.546,1.842 3.925,3.446l-1.792,1.542l-1.925,1.379c-1.271,-1.758 -1.946,-3.671 -1.938,-5.538c0,-1.638 0.496,-3.154 1.221,-4.487c2.217,-3.967 6.329,-6.917 9.583,-9.962c0.904,-0.829 2.3,-0.829 3.204,0l-1.6,1.737l1.6,1.742c-2.333,2.146 -4.812,4.146 -6.583,6.05c-0.892,0.946 -1.596,1.862 -2.046,2.688c-0.454,0.833 -0.65,1.55 -0.65,2.233c0.008,0.771 0.233,1.621 1.054,2.783c0.737,1.021 0.533,2.454 -0.458,3.238c-0.992,0.783 -2.438,0.637 -3.258,-0.317c-1.154,-1.354 -2.042,-2.062 -2.658,-2.412c-0.629,-0.333 -0.971,-0.392 -1.525,-0.408c-0.942,-0.038 -2.638,0.504 -5.142,0.525l-0.062,0l0.033,-2.367l2.296,-0.579c0.608,2.45 2.208,4.975 4.35,6.804c2.137,1.846 4.754,2.975 7.404,2.971c1.479,-0.004 2.992,-0.337 4.554,-1.146c0.679,-0.354 1.5,-0.354 2.175,0c1.567,0.808 3.079,1.142 4.562,1.146c2.646,0.004 5.262,-1.125 7.404,-2.971c2.142,-1.829 3.738,-4.354 4.342,-6.804l2.296,0.579l0.112,2.362l-0.137,0.004c-2.504,-0.021 -4.2,-0.562 -5.138,-0.525c-0.554,0.017 -0.9,0.071 -1.525,0.408c-0.621,0.35 -1.504,1.058 -2.658,2.408c-0.825,0.958 -2.263,1.104 -3.258,0.321c-0.992,-0.783 -1.196,-2.217 -0.458,-3.242c0.821,-1.158 1.046,-2.008 1.054,-2.779c0,-0.683 -0.196,-1.396 -0.65,-2.229c-1.321,-2.546 -5.125,-5.562 -8.633,-8.742l1.604,-1.742l1.6,1.742l-1.6,-1.742Z" style="fill:#318baa;fill-rule:nonzero;"/></svg>