<?xml version="1.0" encoding="UTF-8" standalone="no"?><!DOCTYPE svg PUBLIC "-//W3C//DTD SVG 1.1//EN" "http://www.w3.org/Graphics/SVG/1.1/DTD/svg11.dtd"><svg width="100%" height="100%" viewBox="0 0 160 48" version="1.1" xmlns="http://www.w3.org/2000/svg" xmlns:xlink="http://www.w3.org/1999/xlink" xml:space="preserve" xmlns:serif="http://www.serif.com/" style="fill-rule:evenodd;clip-rule:evenodd;stroke-linecap:round;stroke-linejoin:round;"><path d="M74.805,15.863c0,0 0.053,0.164 -0.21,0.694c-0.264,0.529 -0.756,0.631 -1.102,0.566c-0.371,-0.066 -0.502,-0.228 -0.399,-0.25c0.102,-0.021 0.267,-0.252 0.267,-0.252c0.178,-0.258 0.222,-0.619 0.541,-0.931c0.319,-0.313 0.648,-0.141 0.855,0.091c0.015,0.018 0.048,0.082 0.048,0.082" style="fill:#8dc973;fill-rule:nonzero;"/><path d="M76.212,20.111c0,0 0.134,-0.027 0.572,0.36c0.438,0.385 0.53,0.945 0.485,1.314c-0.046,0.395 -0.178,0.51 -0.198,0.393c-0.019,-0.115 -0.21,-0.342 -0.21,-0.342c-0.216,-0.24 -0.513,-0.353 -0.776,-0.76c-0.261,-0.406 -0.126,-0.736 0.06,-0.926c0.012,-0.013 0.067,-0.039 0.067,-0.039" style="fill:#8dc973;fill-rule:nonzero;"/><path d="M77.667,23.342c0,0 0.132,-0.035 0.536,0.336c0.406,0.371 0.459,0.937 0.39,1.316c-0.075,0.405 -0.214,0.528 -0.223,0.41c-0.012,-0.117 -0.185,-0.336 -0.185,-0.336c-0.194,-0.234 -0.48,-0.337 -0.709,-0.738c-0.231,-0.4 -0.073,-0.746 0.122,-0.941c0.013,-0.02 0.069,-0.047 0.069,-0.047" style="fill:#8dc973;fill-rule:nonzero;"/><path d="M76.636,22.209c0,0 0.134,0.029 0.405,0.561c0.268,0.533 0.155,1.086 -0.018,1.404c-0.188,0.346 -0.352,0.394 -0.327,0.279c0.024,-0.115 -0.074,-0.398 -0.074,-0.398c-0.114,-0.309 -0.351,-0.533 -0.448,-1.012c-0.099,-0.478 0.145,-0.728 0.385,-0.824c0.019,-0.008 0.077,-0.01 0.077,-0.01" style="fill:#8dc973;fill-rule:nonzero;"/><path d="M75.165,18.322c0,0 0.124,0.121 0.169,0.864c0.047,0.744 -0.305,1.252 -0.621,1.474c-0.334,0.239 -0.522,0.184 -0.449,0.078c0.074,-0.105 0.095,-0.47 0.095,-0.47c0.018,-0.405 -0.125,-0.803 -0.02,-1.375c0.107,-0.571 0.459,-0.67 0.745,-0.612c0.02,0.006 0.081,0.041 0.081,0.041" style="fill:#8dc973;fill-rule:nonzero;"/><path d="M77.074,24.705c0,0 0.137,-0.01 0.497,0.428c0.361,0.435 0.353,1.008 0.243,1.369c-0.118,0.389 -0.268,0.486 -0.264,0.367c0.001,-0.117 -0.147,-0.363 -0.147,-0.363c-0.169,-0.266 -0.439,-0.418 -0.624,-0.854c-0.185,-0.435 0.007,-0.75 0.222,-0.916c0.017,-0.009 0.073,-0.031 0.073,-0.031" style="fill:#8dc973;fill-rule:nonzero;"/><path d="M78.372,25.875c0,0 0.121,-0.082 0.592,0.127c0.472,0.213 0.653,0.734 0.67,1.123c0.02,0.412 -0.084,0.58 -0.12,0.473c-0.037,-0.11 -0.253,-0.258 -0.253,-0.258c-0.24,-0.152 -0.537,-0.15 -0.846,-0.449c-0.312,-0.303 -0.24,-0.688 -0.098,-0.951c0.01,-0.02 0.055,-0.065 0.055,-0.065" style="fill:#8dc973;fill-rule:nonzero;"/><path d="M80.261,26.527c0,0 0.132,-0.041 0.548,0.307c0.417,0.348 0.492,0.912 0.434,1.291c-0.059,0.408 -0.193,0.539 -0.207,0.424c-0.015,-0.117 -0.195,-0.324 -0.195,-0.324c-0.205,-0.225 -0.493,-0.313 -0.738,-0.7c-0.244,-0.386 -0.098,-0.738 0.089,-0.951c0.013,-0.015 0.069,-0.047 0.069,-0.047" style="fill:#8dc973;fill-rule:nonzero;"/><path d="M73.787,19.285c0,0 0.117,0.096 0.197,0.719c0.079,0.623 -0.199,1.072 -0.459,1.279c-0.279,0.221 -0.444,0.186 -0.385,0.094c0.056,-0.094 0.056,-0.402 0.056,-0.402c-0.01,-0.34 -0.152,-0.668 -0.094,-1.155c0.06,-0.492 0.363,-0.595 0.613,-0.564c0.02,0.002 0.072,0.029 0.072,0.029" style="fill:#8dc973;fill-rule:nonzero;"/><path d="M74.074,17.58c0,0 0.069,0.153 -0.088,0.76c-0.155,0.607 -0.569,0.85 -0.882,0.883c-0.331,0.037 -0.466,-0.09 -0.381,-0.143c0.086,-0.049 0.199,-0.326 0.199,-0.326c0.117,-0.311 0.107,-0.689 0.341,-1.094c0.232,-0.406 0.542,-0.324 0.755,-0.146c0.017,0.011 0.056,0.066 0.056,0.066" style="fill:#8dc973;fill-rule:nonzero;"/><path d="M79.158,24.641c0,0 0.101,-0.041 0.401,0.232c0.3,0.274 0.339,0.744 0.288,1.067c-0.059,0.347 -0.161,0.464 -0.167,0.367c-0.008,-0.098 -0.137,-0.266 -0.137,-0.266c-0.145,-0.178 -0.358,-0.236 -0.528,-0.549c-0.172,-0.316 -0.054,-0.619 0.091,-0.806c0.011,-0.014 0.052,-0.045 0.052,-0.045" style="fill:#8dc973;fill-rule:nonzero;"/><path d="M74.581,22.807c0,0 0.103,-0.033 0.385,0.269c0.285,0.301 0.293,0.772 0.218,1.092c-0.075,0.338 -0.184,0.445 -0.187,0.348c-0.002,-0.096 -0.119,-0.278 -0.119,-0.278c-0.135,-0.191 -0.342,-0.269 -0.493,-0.601c-0.151,-0.33 -0.016,-0.621 0.144,-0.793c0.009,-0.014 0.052,-0.037 0.052,-0.037" style="fill:#8dc973;fill-rule:nonzero;"/><path d="M75.77,24.059c0,0 0.101,-0.043 0.403,0.228c0.303,0.272 0.343,0.74 0.29,1.067c-0.056,0.347 -0.158,0.464 -0.165,0.367c-0.01,-0.096 -0.139,-0.264 -0.139,-0.264c-0.144,-0.178 -0.358,-0.236 -0.53,-0.547c-0.171,-0.314 -0.055,-0.619 0.09,-0.808c0.011,-0.014 0.051,-0.043 0.051,-0.043" style="fill:#8dc973;fill-rule:nonzero;"/><path d="M73.922,21.285c0,0 0.107,0.012 0.302,0.41c0.193,0.399 0.084,0.852 -0.066,1.123c-0.156,0.293 -0.288,0.352 -0.266,0.258c0.023,-0.093 -0.044,-0.31 -0.044,-0.31c-0.08,-0.237 -0.257,-0.395 -0.319,-0.768c-0.059,-0.375 0.141,-0.596 0.333,-0.697c0.015,-0.006 0.06,-0.016 0.06,-0.016" style="fill:#8dc973;fill-rule:nonzero;"/><path d="M76.342,16.352c0,0 0.056,0.16 -0.227,0.74c-0.283,0.578 -0.814,0.758 -1.184,0.742c-0.399,-0.012 -0.54,-0.162 -0.431,-0.197c0.109,-0.037 0.289,-0.295 0.289,-0.295c0.188,-0.293 0.236,-0.67 0.578,-1.037c0.341,-0.365 0.698,-0.237 0.921,-0.03c0.016,0.014 0.054,0.077 0.054,0.077" style="fill:#8dc973;fill-rule:nonzero;"/><path d="M80.837,18.166c0,0 -0.193,0.031 -0.79,-0.496c-0.594,-0.527 -0.692,-1.271 -0.606,-1.754c0.093,-0.517 0.286,-0.662 0.307,-0.508c0.02,0.153 0.277,0.457 0.277,0.457c0.288,0.326 0.702,0.491 1.048,1.037c0.346,0.545 0.132,0.977 -0.14,1.213c-0.021,0.02 -0.096,0.051 -0.096,0.051" style="fill:#8dc973;fill-rule:nonzero;"/><path d="M75.183,20.725c0,0 0.163,-0.026 0.541,0.519c0.377,0.543 0.302,1.276 0.132,1.744c-0.184,0.5 -0.371,0.633 -0.356,0.481c0.017,-0.151 -0.131,-0.457 -0.131,-0.457c-0.169,-0.334 -0.472,-0.516 -0.643,-1.065c-0.167,-0.548 0.094,-0.961 0.367,-1.179c0.02,-0.018 0.09,-0.043 0.09,-0.043" style="fill:#8dc973;fill-rule:nonzero;"/><path d="M79.101,15.711c0,0 -0.044,0.176 -0.534,0.322c-0.492,0.143 -0.938,-0.263 -1.18,-0.652c-0.258,-0.414 -0.277,-0.672 -0.184,-0.586c0.093,0.086 0.347,0.074 0.347,0.074c0.277,-0.025 0.504,-0.258 0.925,-0.183c0.417,0.074 0.588,0.531 0.63,0.914c0.004,0.029 -0.004,0.111 -0.004,0.111" style="fill:#8dc973;fill-rule:nonzero;"/><path d="M76.642,15.086c0,0 -0.036,0.201 -0.553,0.557c-0.522,0.359 -1.037,0.136 -1.327,-0.157c-0.312,-0.31 -0.349,-0.562 -0.244,-0.515c0.106,0.047 0.381,-0.076 0.381,-0.076c0.298,-0.143 0.528,-0.477 0.987,-0.58c0.46,-0.108 0.678,0.285 0.752,0.658c0.007,0.025 0.004,0.113 0.004,0.113" style="fill:#8dc973;fill-rule:nonzero;"/><path d="M89.934,16.094c0,0 -0.066,0.164 0.266,0.693c0.334,0.528 0.955,0.631 1.391,0.569c0.468,-0.069 0.632,-0.233 0.503,-0.252c-0.128,-0.024 -0.339,-0.252 -0.339,-0.252c-0.222,-0.258 -0.279,-0.621 -0.679,-0.934c-0.4,-0.312 -0.817,-0.139 -1.08,0.094c-0.02,0.017 -0.062,0.082 -0.062,0.082" style="fill:#8dc973;fill-rule:nonzero;"/><path d="M86.968,20.783c0,0 -0.173,0.01 -0.567,0.502c-0.397,0.49 -0.314,1.057 -0.129,1.399c0.198,0.365 0.397,0.439 0.38,0.324c-0.019,-0.119 0.135,-0.389 0.135,-0.389c0.175,-0.291 0.496,-0.484 0.671,-0.947c0.177,-0.463 -0.106,-0.742 -0.398,-0.871c-0.02,-0.01 -0.092,-0.018 -0.092,-0.018" style="fill:#8dc973;fill-rule:nonzero;"/><path d="M86.324,23.572c0,0 -0.168,-0.035 -0.679,0.336c-0.51,0.371 -0.579,0.938 -0.492,1.317c0.096,0.404 0.27,0.527 0.284,0.41c0.011,-0.117 0.23,-0.336 0.23,-0.336c0.247,-0.236 0.606,-0.338 0.896,-0.738c0.291,-0.403 0.095,-0.746 -0.152,-0.946c-0.018,-0.013 -0.087,-0.043 -0.087,-0.043" style="fill:#8dc973;fill-rule:nonzero;"/><path d="M87.625,22.44c0,0 -0.17,0.029 -0.51,0.558c-0.342,0.535 -0.197,1.086 0.022,1.404c0.235,0.344 0.442,0.397 0.412,0.282c-0.031,-0.114 0.093,-0.397 0.093,-0.397c0.144,-0.31 0.442,-0.537 0.567,-1.013c0.124,-0.481 -0.185,-0.729 -0.488,-0.825c-0.024,-0.008 -0.096,-0.009 -0.096,-0.009" style="fill:#8dc973;fill-rule:nonzero;"/><path d="M85.969,18.705c0,0 -0.109,0.135 -0.002,0.758c0.105,0.621 0.583,0.937 0.961,1.023c0.403,0.096 0.59,-0.005 0.492,-0.07c-0.099,-0.06 -0.197,-0.355 -0.197,-0.355c-0.102,-0.325 -0.033,-0.694 -0.264,-1.131c-0.232,-0.44 -0.624,-0.414 -0.914,-0.281c-0.023,0.009 -0.076,0.056 -0.076,0.056" style="fill:#8dc973;fill-rule:nonzero;"/><path d="M89.751,18.922c0,0 -0.138,0.105 -0.198,0.732c-0.06,0.629 0.321,1.055 0.662,1.239c0.365,0.199 0.572,0.148 0.494,0.06c-0.081,-0.088 -0.099,-0.396 -0.099,-0.396c-0.012,-0.34 0.149,-0.68 0.039,-1.16c-0.107,-0.483 -0.496,-0.565 -0.808,-0.51c-0.025,0.004 -0.09,0.035 -0.09,0.035" style="fill:#8dc973;fill-rule:nonzero;"/><path d="M87.072,24.936c0,0 -0.174,-0.012 -0.628,0.425c-0.455,0.438 -0.444,1.008 -0.306,1.372c0.146,0.386 0.338,0.486 0.335,0.369c-0.003,-0.119 0.184,-0.366 0.184,-0.366c0.212,-0.267 0.554,-0.418 0.786,-0.853c0.234,-0.438 -0.008,-0.75 -0.278,-0.914c-0.022,-0.014 -0.093,-0.033 -0.093,-0.033" style="fill:#8dc973;fill-rule:nonzero;"/><path d="M85.724,26.106c0,0 -0.153,-0.084 -0.748,0.127c-0.595,0.208 -0.823,0.734 -0.844,1.121c-0.028,0.414 0.104,0.582 0.151,0.474c0.046,-0.109 0.317,-0.258 0.317,-0.258c0.304,-0.152 0.678,-0.148 1.072,-0.451c0.392,-0.299 0.3,-0.687 0.122,-0.947c-0.013,-0.02 -0.07,-0.066 -0.07,-0.066" style="fill:#8dc973;fill-rule:nonzero;"/><path d="M83.343,26.76c0,0 -0.169,-0.045 -0.696,0.303c-0.525,0.349 -0.62,0.912 -0.547,1.293c0.075,0.41 0.242,0.541 0.262,0.423c0.02,-0.117 0.245,-0.326 0.245,-0.326c0.259,-0.222 0.624,-0.31 0.93,-0.697c0.309,-0.387 0.128,-0.74 -0.11,-0.951c-0.017,-0.014 -0.084,-0.045 -0.084,-0.045" style="fill:#8dc973;fill-rule:nonzero;"/><path d="M74.476,34.108c-0.001,0 -0.073,-0.118 -0.073,-0.118c0,0 -0.047,0.035 -0.091,0.071c0.037,-0.043 0.073,-0.088 0.073,-0.088c-0.04,-0.039 -0.232,-0.162 -0.937,-0.186c-0.766,-0.027 -1.226,0.379 -1.4,0.77c-0.133,0.297 -0.135,0.549 -0.002,0.644c0.071,0.051 0.166,0.043 0.234,-0.019c0.031,-0.026 0.197,-0.063 0.346,-0.076c-0.002,0 0.416,0.011 0.416,0.011c0.26,0.022 0.557,0.047 0.904,-0.037c0.252,-0.062 0.427,-0.181 0.521,-0.357c0.092,-0.172 0.094,-0.391 0.009,-0.615" style="fill:#483317;fill-rule:nonzero;"/><path d="M91.218,19.518c0,0 -0.143,0.091 -0.246,0.715c-0.101,0.625 0.249,1.074 0.579,1.281c0.35,0.222 0.561,0.185 0.487,0.092c-0.072,-0.092 -0.072,-0.403 -0.072,-0.403c0.01,-0.34 0.193,-0.666 0.117,-1.154c-0.074,-0.488 -0.457,-0.594 -0.774,-0.561c-0.024,0 -0.091,0.03 -0.091,0.03" style="fill:#8dc973;fill-rule:nonzero;"/><path d="M90.857,17.811c0,0 -0.086,0.152 0.111,0.759c0.198,0.608 0.721,0.85 1.112,0.885c0.416,0.033 0.59,-0.096 0.482,-0.142c-0.108,-0.049 -0.25,-0.33 -0.25,-0.33c-0.149,-0.309 -0.135,-0.688 -0.429,-1.092c-0.293,-0.407 -0.686,-0.325 -0.956,-0.149c-0.02,0.014 -0.07,0.069 -0.07,0.069" style="fill:#8dc973;fill-rule:nonzero;"/><path d="M86.657,16.518c0,0 0.012,0.131 0.416,0.367c0.404,0.236 0.854,0.09 1.123,-0.104c0.289,-0.207 0.342,-0.371 0.248,-0.341c-0.092,0.031 -0.31,-0.049 -0.31,-0.049c-0.238,-0.094 -0.401,-0.317 -0.776,-0.387c-0.374,-0.066 -0.591,0.191 -0.685,0.436c-0.009,0.019 -0.016,0.078 -0.016,0.078" style="fill:#8dc973;fill-rule:nonzero;"/><path d="M84.443,24.873c0,0 -0.129,-0.041 -0.508,0.231c-0.38,0.271 -0.431,0.742 -0.362,1.068c0.07,0.346 0.201,0.463 0.209,0.365c0.011,-0.096 0.173,-0.263 0.173,-0.263c0.184,-0.18 0.454,-0.237 0.667,-0.553c0.218,-0.315 0.068,-0.617 -0.117,-0.805c-0.013,-0.014 -0.062,-0.043 -0.062,-0.043" style="fill:#8dc973;fill-rule:nonzero;"/><path d="M90.218,23.035c0,0 -0.128,-0.031 -0.488,0.27c-0.358,0.303 -0.369,0.775 -0.278,1.092c0.099,0.339 0.238,0.449 0.239,0.349c0.003,-0.096 0.152,-0.277 0.152,-0.277c0.171,-0.192 0.43,-0.272 0.622,-0.602c0.19,-0.33 0.02,-0.621 -0.18,-0.791c-0.015,-0.015 -0.067,-0.041 -0.067,-0.041" style="fill:#8dc973;fill-rule:nonzero;"/><path d="M88.715,24.289c0,0 -0.124,-0.043 -0.506,0.231c-0.383,0.269 -0.432,0.74 -0.366,1.064c0.07,0.35 0.199,0.465 0.209,0.367c0.01,-0.099 0.173,-0.263 0.173,-0.263c0.183,-0.178 0.454,-0.235 0.668,-0.547c0.217,-0.317 0.07,-0.619 -0.114,-0.809c-0.012,-0.014 -0.064,-0.043 -0.064,-0.043" style="fill:#8dc973;fill-rule:nonzero;"/><path d="M91.047,21.518c0,0 -0.132,0.007 -0.377,0.406c-0.244,0.398 -0.108,0.853 0.082,1.125c0.197,0.293 0.364,0.35 0.333,0.256c-0.026,-0.092 0.058,-0.309 0.058,-0.309c0.101,-0.238 0.324,-0.396 0.399,-0.767c0.08,-0.373 -0.176,-0.596 -0.418,-0.696c-0.018,-0.009 -0.077,-0.015 -0.077,-0.015" style="fill:#8dc973;fill-rule:nonzero;"/><path d="M88.746,16.77c0,0 -0.122,0.14 0.035,0.775c0.155,0.633 0.747,0.941 1.203,1.021c0.49,0.092 0.711,-0.017 0.59,-0.078c-0.124,-0.064 -0.257,-0.363 -0.257,-0.363c-0.135,-0.328 -0.071,-0.707 -0.368,-1.148c-0.297,-0.444 -0.772,-0.411 -1.112,-0.268c-0.026,0.012 -0.091,0.061 -0.091,0.061" style="fill:#8dc973;fill-rule:nonzero;"/><path d="M82.87,18.697c0,0 0.24,0.032 0.992,-0.496c0.751,-0.525 0.875,-1.269 0.766,-1.754c-0.115,-0.515 -0.361,-0.662 -0.386,-0.506c-0.024,0.153 -0.349,0.458 -0.349,0.458c-0.366,0.326 -0.888,0.49 -1.324,1.035c-0.437,0.549 -0.169,0.978 0.178,1.215c0.026,0.017 0.123,0.048 0.123,0.048" style="fill:#8dc973;fill-rule:nonzero;"/><path d="M89.46,20.953c0,0 -0.206,-0.021 -0.683,0.522c-0.475,0.545 -0.382,1.275 -0.167,1.742c0.232,0.502 0.468,0.635 0.449,0.482c-0.022,-0.15 0.164,-0.459 0.164,-0.459c0.212,-0.332 0.596,-0.513 0.809,-1.062c0.211,-0.551 -0.116,-0.963 -0.462,-1.182c-0.026,-0.015 -0.11,-0.043 -0.11,-0.043" style="fill:#8dc973;fill-rule:nonzero;"/><path d="M84.829,17.459c0,0 0.018,0.205 0.641,0.572c0.622,0.364 1.322,0.137 1.741,-0.164c0.45,-0.32 0.535,-0.578 0.392,-0.531c-0.146,0.049 -0.485,-0.076 -0.485,-0.076c-0.365,-0.145 -0.616,-0.49 -1.195,-0.594c-0.58,-0.107 -0.921,0.293 -1.072,0.676c-0.011,0.027 -0.022,0.117 -0.022,0.117" style="fill:#8dc973;fill-rule:nonzero;"/><path d="M84.37,15.738c0,0 0.073,0.227 0.856,0.409c0.788,0.183 1.505,-0.334 1.892,-0.827c0.417,-0.529 0.444,-0.851 0.298,-0.744c-0.15,0.108 -0.557,0.092 -0.557,0.092c-0.444,-0.031 -0.811,-0.326 -1.48,-0.23c-0.672,0.093 -0.944,0.671 -1.014,1.158c-0.007,0.037 0.005,0.142 0.005,0.142" style="fill:#8dc973;fill-rule:nonzero;"/><path d="M87.616,15.316c0,0 0.045,0.2 0.699,0.557c0.66,0.356 1.307,0.135 1.674,-0.156c0.396,-0.313 0.443,-0.563 0.309,-0.518c-0.135,0.049 -0.482,-0.072 -0.482,-0.072c-0.376,-0.144 -0.667,-0.478 -1.244,-0.584c-0.581,-0.103 -0.857,0.287 -0.952,0.658c-0.006,0.03 -0.004,0.115 -0.004,0.115" style="fill:#8dc973;fill-rule:nonzero;"/><path d="M87.915,18.213c0,0 -0.191,0.119 -0.335,0.918c-0.144,0.799 0.302,1.389 0.722,1.662c0.45,0.299 0.722,0.26 0.63,0.137c-0.09,-0.121 -0.084,-0.52 -0.084,-0.52c0.019,-0.435 0.264,-0.851 0.175,-1.482c-0.089,-0.633 -0.579,-0.779 -0.989,-0.748c-0.03,0.002 -0.119,0.033 -0.119,0.033" style="fill:#8dc973;fill-rule:nonzero;"/><path d="M79.662,16.291c0.029,-0.016 0.057,-0.039 0.086,-0.06c-0.005,-0.012 -0.086,0.06 -0.086,0.06" style="fill:#255141;fill-rule:nonzero;"/><path d="M80.417,16.969c-0.302,0.494 -0.254,2.9 -0.999,3.17c-0.865,0.308 -0.036,0.344 -0.036,0.344l1.573,-0.325" style="fill:#255141;fill-rule:nonzero;"/><path d="M84.436,18.822c-0.056,-1.496 -1.092,-3.566 -1.092,-3.566c-0.29,-0.75 -1.807,-2.289 -1.813,-2.293c-0.521,-0.455 -0.85,-0.734 -1.358,-1.119l-0.142,-0.164c0.059,0.002 0.121,0.002 0.177,-0.01c0.393,-0.066 0.461,-0.277 0.678,-0.369c0,0 0.208,-0.078 0.331,-0.049c0.122,0.029 -0.029,-0.129 -0.47,-0.32c-0.221,-0.1 -0.496,-0.18 -0.755,-0.201c0.201,-0.174 0.216,-0.352 0.362,-0.489c0,0 0.166,-0.146 0.29,-0.164c0.126,-0.015 -0.072,-0.111 -0.55,-0.133c-0.129,-0.005 -0.27,-0.002 -0.41,0.012c0.133,-0.178 0.137,-0.338 0.25,-0.478c0,0 0.145,-0.168 0.265,-0.202c0.123,-0.033 -0.085,-0.099 -0.564,-0.056c-0.111,0.008 -0.229,0.027 -0.349,0.053c0.017,-0.026 0.035,-0.053 0.05,-0.081c0.178,-0.353 0.05,-0.533 0.104,-0.761c0,0 0.062,-0.213 0.159,-0.295c0.095,-0.082 -0.121,-0.055 -0.54,0.183c-0.154,0.09 -0.317,0.207 -0.464,0.34c0,-0.017 0.002,-0.033 0.002,-0.051c-0.014,-0.351 -0.184,-0.777 -0.288,-0.955c-0.044,-0.082 -0.079,-0.113 -0.079,-0.068c-0.004,0.98 -2.09,2.928 -2.646,3.828c-0.6,0.879 -1.188,1.104 -0.9,1.795c0,0 0.533,0.406 1.027,0.191c0.293,-0.125 0.087,-0.226 0.635,-0.445c0.352,-0.144 0.892,-0.041 1.655,-0.283c0,0 -0.34,-0.32 0.071,-0.363c0.351,-0.035 0.95,0.515 1.446,1.056l0.253,0.311c0.246,0.334 0.33,0.592 0.419,0.838c0.261,0.744 0.018,1.4 -0.442,1.717c0.006,0.009 -0.034,0.068 -0.197,0.255c0,0 0.546,0.623 0.575,1.227c0,0 0.158,0.1 0.1,0.396l-0.737,2.209c0,0 -0.747,1.264 -0.747,3.395c0,0.248 -0.014,0.5 -0.036,0.752c-0.813,-0.324 -1.809,-0.195 -2.611,0.801c-0.617,0.763 -0.634,1.726 -0.174,2.531c0.317,0.553 0.544,0.826 0.693,0.965c-0.432,-0.231 -1.395,-0.569 -1.968,0.549c-0.113,0.259 -0.1,0.65 0.077,0.492c0.646,-0.596 1.388,-0.379 1.76,-0.205c-0.141,0.388 -0.37,0.849 -1.61,1.564c-0.86,0.496 -1.698,1.85 -1.926,4.25c-0.188,1.987 -0.906,2.358 -1.586,2.434c-0.679,0.076 -0.906,-0.983 -0.906,-0.983c-0.15,1.399 0.942,1.475 0.942,1.475c1.022,0.057 1.42,-0.613 1.719,-1.287c0.455,-1.018 0.519,-3.992 2.031,-4.803c3.422,-1.836 2.928,-1.478 5.702,-4.342c1.284,-0.966 1.875,-2.111 2.609,-3.504c0.869,-1.752 1.039,-4.027 0.978,-5.58" style="fill:#255141;fill-rule:nonzero;"/><path d="M32.157,19.66c-0.018,0.414 -0.144,4.055 1.451,4.397c0.576,0.125 1.185,-0.311 1.489,-0.803c0.022,-0.039 0.586,-0.963 0.289,-1.443c-0.106,-0.168 -0.289,-0.262 -0.488,-0.243c-0.236,0.018 -0.401,0.194 -0.627,0.434c-0.067,0.07 -0.141,0.15 -0.215,0.223c-0.001,-0.035 -0.002,-0.065 -0.002,-0.098c0,-0.045 0.001,-0.311 0.001,-0.311l0.064,-2.173c0.04,-1.141 0.069,-1.967 0.069,-2.373c0,-0.082 0,-0.149 -0.004,-0.194l-0.006,-0.306c-0.004,-0.463 -0.009,-1.239 -0.69,-1.239c-1.049,0 -1.329,4.088 -1.331,4.129" style="fill:#255141;fill-rule:nonzero;"/><path d="M38.235,15.496l-0.182,0.018l-0.147,0.168c-0.184,0.24 -0.137,0.586 -0.014,1.345l0.08,0.547l0.044,0.362c0.109,0.822 0.308,2.353 0.073,4.261c-0.171,1.405 -0.648,2.567 -2.408,3.678c-0.519,0.328 -0.932,0.514 -1.206,0.635c-0.358,0.158 -0.615,0.273 -0.671,0.578c-0.024,0.127 -0.011,0.318 0.181,0.508c0.645,0.644 3.207,-0.731 3.234,-0.748c1.369,-0.836 2.954,-2.235 3.078,-5.649c0.106,-2.902 -0.825,-4.883 -1.436,-5.449c-0.204,-0.191 -0.416,-0.277 -0.626,-0.254" style="fill:#255141;fill-rule:nonzero;"/><path d="M50.086,24.969c0.024,-0.238 0.037,-0.477 0.037,-0.711c0,-0.244 -0.02,-0.506 -0.051,-0.768c0.172,0.028 0.318,0.078 0.423,0.162c0.257,0.207 0.27,0.551 0.27,0.618c0,0.123 -0.197,0.48 -0.679,0.699m-2.031,-0.194l-0.023,-0.046c-0.079,-0.155 -0.206,-0.237 -0.348,-0.28c0.278,-0.252 0.577,-0.478 0.886,-0.648c0.019,0.193 0.029,0.346 0.027,0.426l-0.007,0.394c-0.002,0.166 -0.005,0.32 -0.011,0.471c-0.407,-0.078 -0.484,-0.229 -0.524,-0.317m3.088,-2.453c-0.446,-0.187 -0.908,-0.269 -1.368,-0.257c-0.315,-1.045 -0.802,-1.895 -1.287,-1.895l-0.218,0l-0.158,0.188c-0.171,0.226 -0.096,0.476 0.027,0.892l0.148,0.565c0.038,0.191 0.072,0.396 0.105,0.601c-0.343,0.168 -0.677,0.389 -0.992,0.67c-0.568,0.514 -0.942,0.922 -1.197,1.217c0.005,-0.084 0.01,-0.174 0.01,-0.256c0,-0.92 -0.275,-2.356 -1.002,-2.465c-0.026,-0.004 -0.053,-0.008 -0.078,-0.008c-0.002,0 -0.006,-0.002 -0.008,-0.002l0.002,0.002c-0.112,-0.008 -0.231,0.026 -0.319,0.1c-0.273,0.221 -0.171,0.594 -0.134,0.732c0.08,0.289 0.225,1.276 0.225,2.024c0,0.564 -0.016,1.189 -0.138,1.551c-0.319,0.953 0.068,1.252 0.328,1.343l0.494,-0.033c0.256,-0.129 0.455,-0.441 0.598,-0.924c0.057,-0.172 0.393,-0.699 0.872,-1.258c0.012,0.096 0.023,0.19 0.075,0.295c0.148,0.295 0.585,0.702 1.27,0.914c-0.009,0.041 -0.019,0.081 -0.032,0.123c-0.105,0.393 -0.218,0.674 -0.379,0.944c-0.07,0.119 -0.204,0.275 -0.258,0.308c-0.218,0.135 -0.298,0.397 -0.195,0.623c0.11,0.237 0.386,0.344 0.653,0.256c0.731,-0.244 1.28,-1.103 1.604,-2.14c0.313,-0.037 0.649,-0.112 1.011,-0.241c0.969,-0.343 1.542,-1.035 1.567,-1.894c0.025,-0.832 -0.489,-1.66 -1.226,-1.975" style="fill:#255141;fill-rule:nonzero;"/><path d="M57.585,15.727c-0.069,0.14 -0.067,0.3 0.007,0.437c0.151,0.291 0.476,0.342 1.262,0.469c0.639,0.103 1.516,0.242 2.191,0.535l1.181,0.588c0.436,0.238 0.782,0.428 1.301,0.533c0.591,0.117 1.15,-0.152 1.304,-0.625c0.091,-0.283 0.147,-1.012 -1.302,-1.674c-1.408,-0.636 -5.511,-1.175 -5.944,-0.263" style="fill:#255141;fill-rule:nonzero;"/><path d="M62.542,18.641c-1.959,0.074 -5.369,0.994 -6.07,2.119c-0.171,0.273 -0.199,0.57 -0.079,0.836c0.11,0.246 0.437,0.494 1.031,0.455c0.633,-0.041 2.152,-0.488 3.25,-0.955c1.892,-0.809 2.75,-0.729 3.139,-0.522c0.265,0.141 0.431,0.407 0.506,0.815c0.188,0.972 -1.214,2.547 -2.628,3.535c-1.085,0.76 -2.061,1.098 -2.646,1.299c-0.524,0.181 -0.81,0.283 -0.904,0.593c-0.05,0.163 -0.015,0.336 0.096,0.479c0.312,0.408 0.949,0.334 1.406,0.242c2.006,-0.406 6.052,-2.539 6.643,-4.81c0.33,-1.27 0.209,-2.272 -0.362,-2.983c-0.634,-0.791 -1.772,-1.162 -3.382,-1.103" style="fill:#255141;fill-rule:nonzero;"/><path d="M107.968,19.621l-0.11,0.006c-0.316,0.014 -4.248,0.664 -4.756,1.373l-0.008,0.012l-0.011,0.015c-0.073,0.122 -0.112,0.319 -0.007,0.514c0.183,0.34 0.661,0.402 1.105,0.418c1.489,0.045 3.094,-0.334 4.297,-1.012c0.335,-0.191 0.839,-0.474 0.707,-0.927c-0.129,-0.448 -0.658,-0.424 -1.217,-0.399" style="fill:#255141;fill-rule:nonzero;"/><path d="M109.579,16.615c-0.116,-0.484 -0.623,-0.506 -2.301,-0.326c-0.36,0.037 -2.02,0.336 -3.794,0.723c0.059,-0.287 0.112,-0.571 0.161,-0.854c0.14,-0.832 0.202,-1.435 -0.275,-1.586c-0.474,-0.146 -0.76,0.272 -1.435,1.7c-0.18,0.386 -0.36,0.8 -0.531,1.226c-1.313,0.334 -2.413,0.684 -2.728,0.961c-0.12,0.098 -0.196,0.234 -0.196,0.379c0,0.055 0.01,0.107 0.029,0.16c0.135,0.371 0.512,0.43 1.828,0.287c0.119,-0.011 0.266,-0.031 0.427,-0.049c-0.968,2.848 -1.655,5.911 -1.716,7.043c-0.017,0.266 -0.042,0.758 0.384,0.866c0.45,0.111 0.7,-0.329 1.208,-1.434c0.439,-0.957 1.588,-3.795 2.395,-6.814c1.834,-0.305 4.041,-0.752 5.357,-1.258c0.767,-0.297 1.303,-0.543 1.187,-1.024" style="fill:#255141;fill-rule:nonzero;"/><path d="M102.549,22.973c-0.144,0.092 -0.227,0.246 -0.227,0.422c0,0.011 0.001,0.027 0.001,0.039c0.048,0.617 1.503,1.888 2.832,2.476c1.79,0.791 3.882,0.369 4.378,0.016c0.368,-0.26 0.357,-0.539 0.318,-0.682c-0.125,-0.461 -0.73,-0.511 -1.368,-0.566l-0.274,-0.028c-0.669,-0.111 -1.397,-0.337 -2.318,-0.628l-0.153,-0.051c-0.468,-0.145 -0.994,-0.383 -1.458,-0.594c-0.92,-0.418 -1.38,-0.627 -1.731,-0.404" style="fill:#255141;fill-rule:nonzero;"/><path d="M122.184,25c-0.381,0.344 -0.923,0.5 -1.453,0.42c-0.649,-0.08 -1.065,-0.621 -1.082,-1.078c-0.015,-0.354 0.204,-0.59 0.631,-0.676c0.697,-0.142 1.594,0.014 2.482,0.275c-0.108,0.44 -0.294,0.803 -0.578,1.059m5.02,-0.875c-0.621,-0.562 -1.525,-1.041 -2.506,-1.416c0.042,-0.549 0.069,-1.101 0.069,-1.643c0,-0.376 -0.01,-0.738 -0.023,-1.085c1.21,-0.364 2.211,-0.836 2.982,-1.415c0.455,-0.341 0.625,-0.679 0.491,-0.974c-0.082,-0.178 -0.288,-0.342 -0.626,-0.27l-0.715,0.203c-0.602,0.178 -1.481,0.434 -2.253,0.627c-0.036,-0.378 -0.082,-0.793 -0.141,-1.203c0.941,-0.355 2.471,-0.984 2.679,-1.377l0.14,-0.263l-0.103,-0.104l-0.242,-0.283c-0.407,-0.215 -1.938,0.068 -2.841,0.271c-0.169,-0.525 -0.386,-0.884 -0.652,-0.902l-0.195,-0.014l-0.161,0.147c-0.122,0.119 -0.204,0.541 -0.258,1.135c-3.288,1.07 -3.708,1.558 -3.708,1.886c0,0.059 0.013,0.112 0.027,0.161c0,0.002 0.243,0.32 0.243,0.32c0.449,0.258 2.218,-0.139 3.353,-0.436c-0.003,0.284 -0.007,0.576 -0.007,0.869c0,0.051 0.001,0.102 0.001,0.155c-0.812,0.111 -1.644,0.191 -2.349,0.258c-2.048,0.199 -2.666,0.257 -2.666,0.851c0,0.098 0.028,0.283 0.229,0.44c0.533,0.418 2.817,0.591 4.811,0.341c0.014,0.692 0.035,1.307 0.05,1.748c-0.946,-0.209 -1.857,-0.308 -2.557,-0.252c-1.071,0.084 -2.008,0.723 -2.382,1.629c-0.349,0.838 -0.166,1.774 0.506,2.561c0.693,0.816 1.852,1.197 3.098,1.014c1.222,-0.178 2.263,-0.858 2.648,-1.733c0.111,-0.248 0.197,-0.533 0.273,-0.834c0.656,0.278 1.209,0.547 1.536,0.709l0.216,0.104c1.069,0.515 1.593,0.675 1.866,0.275c0.062,-0.092 0.088,-0.184 0.088,-0.275c0,-0.356 -0.393,-0.744 -0.921,-1.225" style="fill:#255141;fill-rule:nonzero;"/><path d="M38.119,33.332c-0.15,0 -0.259,0.098 -0.382,0.344c-0.13,0.25 -0.366,0.959 -0.58,1.922c-0.026,0.111 -0.058,0.308 0.013,0.394c0.038,0.053 0.105,0.125 0.208,0.125c0.123,0 0.211,-0.125 0.288,-0.258c0.102,-0.189 0.483,-0.83 1.168,-1.445c-0.039,0.137 -0.2,0.697 -0.2,0.697c-0.033,0.153 -0.049,0.295 -0.049,0.426c0,0.235 0.052,0.428 0.16,0.561c0.093,0.113 0.223,0.177 0.364,0.177c0.336,0 0.89,-0.242 1.617,-1.388c0.089,-0.133 0.116,-0.246 0.074,-0.328l-0.022,-0.045l-0.073,-0.033c-0.034,-0.006 -0.101,-0.002 -0.166,0.084c-0.548,0.709 -1.058,1.185 -1.274,1.185c-0.042,0 -0.075,-0.014 -0.098,-0.045c-0.031,-0.041 -0.095,-0.174 -0.007,-0.543c0.067,-0.275 0.199,-0.644 0.328,-0.922c0,-0.002 0.139,-0.244 0.139,-0.244l0.068,-0.109c0.055,-0.127 0.094,-0.264 -0.019,-0.389c-0.036,-0.049 -0.104,-0.125 -0.212,-0.125c-0.103,0 -0.172,0.09 -0.212,0.147c-0.006,0.011 -0.095,0.095 -0.095,0.095c-0.002,0 -0.348,0.231 -0.348,0.231c-0.165,0.127 -0.585,0.525 -0.867,0.855c0.074,-0.256 0.174,-0.549 0.242,-0.676c0.052,-0.093 0.085,-0.136 0.12,-0.142c0.125,-0.024 0.137,-0.123 0.137,-0.164c0,-0.133 -0.122,-0.387 -0.315,-0.387l-0.007,0Z" style="fill:#483317;fill-rule:nonzero;"/><path d="M43.05,34.088l-0.03,0.209c-0.001,0.002 -0.041,0.078 -0.041,0.078l-0.21,0.377c0.001,-0.002 -0.517,0.629 -0.517,0.629c-0.173,0.154 -0.224,0.17 -0.234,0.17c0.003,-0.002 -0.003,-0.047 0.018,-0.115c0.077,-0.282 0.277,-0.733 0.589,-1.096c0.255,-0.313 0.35,-0.328 0.365,-0.328l0.009,0c0.01,0 0.039,0 0.051,0.076m1.748,0.385c-0.07,-0.018 -0.143,0.019 -0.188,0.093c-0.45,0.618 -0.905,1.055 -1.103,1.055c-0.074,0 -0.116,-0.16 -0.116,-0.453c0,-0.348 0.1,-0.719 0.336,-1.24c0.067,-0.129 0.032,-0.248 -0.1,-0.328c-0.046,-0.03 -0.118,-0.041 -0.203,-0.002c-0.038,-0.067 -0.121,-0.16 -0.229,-0.16l-0.008,0c-0.099,0 -0.321,0.041 -0.629,0.322c-0.388,0.332 -0.718,0.836 -0.884,1.166c-0.185,0.346 -0.279,0.623 -0.279,0.814c0,0.315 0.279,0.442 0.395,0.442c0.136,0 0.289,-0.074 0.472,-0.235c0.151,-0.129 0.427,-0.425 0.591,-0.619c0.006,0.125 0.013,0.258 0.013,0.258c0.031,0.318 0.265,0.596 0.5,0.596c0.436,0 1.206,-0.787 1.455,-1.282c0.003,-0.005 0.075,-0.292 0.075,-0.292c0,-0.065 -0.039,-0.12 -0.098,-0.135" style="fill:#483317;fill-rule:nonzero;"/><path d="M46.588,32.867c0,0.002 -0.214,0.576 -0.214,0.576l-0.115,0.315c-0.008,0.021 -0.012,0.027 -0.051,0.035c0.009,0 -0.366,0.055 -0.366,0.055c-0.002,0.002 -0.245,0.131 -0.245,0.131c0,0.007 -0.068,0.173 -0.068,0.173l0.065,0.135c0.001,0 0.22,0.065 0.22,0.065c0,0 0.192,-0.022 0.244,-0.028c-0.05,0.149 -0.217,0.633 -0.217,0.633l-0.128,0.385c0,-0.002 -0.091,0.377 -0.091,0.377c0,0.299 0.291,0.463 0.493,0.463l0.29,-0.057c0.571,-0.219 0.899,-0.492 1.044,-0.635c0.074,-0.084 0.087,-0.193 0.032,-0.257c-0.039,-0.045 -0.12,-0.071 -0.214,-0.004c-0.144,0.095 -0.588,0.386 -0.869,0.386l-0.007,0c-0.042,0 -0.072,-0.009 -0.085,-0.023c-0.012,-0.016 -0.037,-0.067 -0.012,-0.217c0.04,-0.238 0.214,-0.771 0.343,-1.09c0.005,-0.023 0.054,-0.033 0.054,-0.033c0.819,-0.102 1.167,-0.184 1.28,-0.215c0.106,-0.025 0.213,-0.115 0.202,-0.221c-0.003,-0.019 -0.023,-0.123 -0.179,-0.123l-0.893,0.034c0,0 -0.179,0.009 -0.251,0.013c0.002,-0.006 0.305,-0.691 0.305,-0.691c0.029,-0.061 0.044,-0.119 0.044,-0.174c0,-0.059 -0.015,-0.113 -0.047,-0.166c-0.039,-0.082 -0.106,-0.127 -0.197,-0.127c-0.152,0 -0.318,0.152 -0.367,0.285" style="fill:#483317;fill-rule:nonzero;"/><path d="M51.108,33.69c0.001,0 -0.039,0.06 -0.039,0.06c-0.138,0.217 -0.426,0.668 -0.735,1.029c-0.385,0.428 -0.625,0.688 -0.77,0.688c-0.011,-0.012 -0.028,-0.106 0.057,-0.33c0.001,-0.002 0.247,-0.668 0.247,-0.668l0.146,-0.209c0.004,-0.006 0.24,-0.35 0.24,-0.5c0,-0.166 -0.142,-0.309 -0.309,-0.309c-0.066,0 -0.158,0.03 -0.233,0.164c-0.112,0.168 -0.377,0.69 -0.543,1.174c-0.155,0.406 -0.232,0.694 -0.232,0.873c0,0.272 0.142,0.5 0.308,0.5c0.123,0 0.222,-0.045 0.353,-0.119c0.298,-0.185 0.738,-0.56 1.098,-0.99c-0.04,0.164 -0.082,0.34 -0.082,0.34c-0.023,0.117 -0.035,0.22 -0.035,0.316c0,0.16 0.033,0.285 0.103,0.367c0.054,0.067 0.132,0.106 0.218,0.106c0.094,0 0.259,-0.028 0.498,-0.16c0.207,-0.122 0.748,-0.481 1.323,-1.206c0.087,-0.101 0.131,-0.218 0.12,-0.31c-0.011,-0.092 -0.069,-0.121 -0.094,-0.129c-0.039,-0.016 -0.102,-0.018 -0.176,0.057c-0.592,0.638 -1.222,1.152 -1.41,1.152l-0.006,0c-0.002,0 -0.013,-0.016 -0.013,-0.08c0,-0.045 0.005,-0.113 0.03,-0.219c0.057,-0.271 0.182,-0.795 0.401,-1.238c-0.001,0.004 0.105,-0.238 0.105,-0.238c0.031,-0.077 0.018,-0.174 -0.036,-0.258c-0.058,-0.084 -0.145,-0.135 -0.225,-0.135c-0.119,0 -0.2,0.094 -0.309,0.272" style="fill:#483317;fill-rule:nonzero;"/><path d="M55.587,33.424c-0.168,0 -0.337,0.098 -0.563,0.326c-0.224,0.211 -0.468,0.533 -0.641,0.772c0.052,-0.2 0.119,-0.426 0.179,-0.539c0.012,-0.026 0.075,-0.231 0.075,-0.231c-0.001,0.012 -0.09,-0.246 -0.09,-0.246l-0.161,-0.076c-0.084,0 -0.179,0.064 -0.314,0.217c-0.083,0.082 -0.113,0.212 -0.15,0.466c-0.051,0.311 -0.23,1.27 -0.354,1.577c-0.04,0.099 -0.074,0.228 0.013,0.343c0.053,0.08 0.147,0.135 0.238,0.135c0.077,0 0.182,-0.031 0.251,-0.193c0.22,-0.473 0.528,-1.084 0.941,-1.573c0.07,-0.084 0.264,-0.31 0.328,-0.31l0.108,0.047c0.065,0.051 0.187,0.062 0.29,-0.051c0.06,-0.063 0.137,-0.189 0.156,-0.305c0.016,-0.093 -0.008,-0.187 -0.066,-0.256c-0.056,-0.066 -0.139,-0.103 -0.234,-0.103l-0.006,0Z" style="fill:#483317;fill-rule:nonzero;"/><path d="M58.423,34.088c0,0 -0.029,0.209 -0.029,0.211c-0.001,0 -0.043,0.082 -0.043,0.082l-0.208,0.371c0.002,-0.002 -0.517,0.629 -0.517,0.629c-0.172,0.152 -0.226,0.17 -0.234,0.17c0.003,-0.002 -0.004,-0.047 0.019,-0.115c0.077,-0.282 0.278,-0.735 0.589,-1.096c0.253,-0.313 0.348,-0.328 0.365,-0.328l0.007,0c0.013,0 0.04,0 0.051,0.076m1.749,0.385c-0.069,-0.018 -0.143,0.019 -0.185,0.095c-0.453,0.616 -0.908,1.053 -1.106,1.053c-0.075,0 -0.116,-0.16 -0.116,-0.453c0,-0.348 0.1,-0.719 0.337,-1.24c0.066,-0.131 0.031,-0.248 -0.102,-0.328c-0.063,-0.041 -0.133,-0.035 -0.203,-0.002c-0.036,-0.067 -0.117,-0.16 -0.229,-0.16l-0.007,0c-0.102,0 -0.319,0.041 -0.628,0.322c-0.389,0.334 -0.72,0.836 -0.885,1.166c-0.186,0.346 -0.28,0.621 -0.28,0.814c0,0.315 0.279,0.442 0.394,0.442c0.137,0 0.291,-0.074 0.473,-0.235c0.153,-0.129 0.428,-0.425 0.591,-0.619c0.009,0.125 0.014,0.258 0.014,0.258c0.031,0.318 0.263,0.596 0.499,0.596c0.438,0 1.205,-0.787 1.457,-1.282c0.002,-0.005 0.075,-0.292 0.075,-0.292c0,-0.065 -0.039,-0.12 -0.099,-0.135" style="fill:#483317;fill-rule:nonzero;"/><path d="M62.475,31.826c-0.055,0.069 -0.275,0.401 -0.864,1.856c-0.462,1.121 -0.565,1.797 -0.565,1.945l0,0.006c0,0.324 0.141,0.549 0.343,0.549c0.561,0 1.588,-0.975 1.853,-1.369c0.001,-0.002 0.103,-0.295 0.103,-0.295c0,-0.069 -0.034,-0.123 -0.089,-0.147c-0.058,-0.019 -0.119,0 -0.167,0.055c-0.497,0.582 -1.264,1.174 -1.452,1.174c0,0.002 -0.055,-0.063 0.043,-0.428c0.162,-0.604 0.559,-1.697 1.151,-2.801c0.094,-0.166 0.18,-0.359 0.005,-0.566c-0.044,-0.057 -0.12,-0.078 -0.174,-0.078c-0.065,0 -0.135,0.035 -0.187,0.099" style="fill:#483317;fill-rule:nonzero;"/><path d="M76.696,34.088c0,0 -0.028,0.209 -0.028,0.211c-0.003,0 -0.043,0.078 -0.043,0.078l-0.209,0.375c0.002,-0.002 -0.518,0.629 -0.518,0.629c-0.169,0.15 -0.221,0.168 -0.233,0.17c0.001,-0.004 -0.006,-0.047 0.018,-0.115c0.078,-0.282 0.279,-0.737 0.588,-1.096c0.253,-0.313 0.349,-0.328 0.365,-0.328l0.007,0c0.014,0 0.041,0 0.053,0.076m1.749,0.385c-0.069,-0.018 -0.143,0.019 -0.188,0.093c-0.451,0.618 -0.908,1.055 -1.105,1.055c-0.075,0 -0.115,-0.16 -0.115,-0.453c0,-0.35 0.101,-0.719 0.339,-1.24c0.064,-0.129 0.028,-0.248 -0.105,-0.328c-0.061,-0.041 -0.133,-0.035 -0.203,-0.002c-0.036,-0.067 -0.12,-0.16 -0.228,-0.16l-0.007,0c-0.103,0 -0.319,0.041 -0.629,0.322c-0.387,0.33 -0.718,0.836 -0.886,1.166c-0.182,0.346 -0.278,0.623 -0.278,0.814c0,0.315 0.278,0.442 0.394,0.442c0.136,0 0.292,-0.074 0.473,-0.235c0.15,-0.129 0.426,-0.425 0.593,-0.619c0.005,0.125 0.011,0.258 0.011,0.258c0.031,0.318 0.264,0.596 0.5,0.596c0.438,0 1.206,-0.787 1.457,-1.282c0.005,-0.005 0.074,-0.292 0.074,-0.292c0,-0.065 -0.038,-0.12 -0.097,-0.135" style="fill:#483317;fill-rule:nonzero;"/><path d="M81.414,35.943c-0.1,0 -0.19,-0.043 -0.25,-0.119c-0.063,-0.08 -0.094,-0.191 -0.094,-0.338c0,-0.105 0.018,-0.23 0.051,-0.369c0.071,-0.287 0.209,-0.672 0.339,-0.955l0.156,-0.275c0,0 0.056,-0.088 0.057,-0.088c0.022,-0.053 0.032,-0.088 0.032,-0.113c0,-0.03 -0.012,-0.047 -0.03,-0.065c-0.039,-0.055 -0.058,-0.055 -0.058,-0.055c0,0 -0.061,0.069 -0.055,0.057c0,0 -0.178,0.17 -0.177,0.17c0,0 -0.306,0.207 -0.306,0.209c-0.199,0.148 -0.772,0.701 -1.001,1.02c-0.078,0.099 -0.154,0.072 -0.176,0.064c-0.021,-0.01 -0.091,-0.051 -0.065,-0.174c0.059,-0.263 0.218,-0.775 0.326,-0.978c0.064,-0.112 0.131,-0.215 0.234,-0.215c0,-0.07 -0.076,-0.194 -0.122,-0.194l-0.006,0c-0.033,0 -0.093,0 -0.21,0.239c-0.124,0.236 -0.351,0.924 -0.564,1.877c-0.028,0.119 -0.03,0.213 -0.023,0.232c0.03,0.041 0.049,0.051 0.049,0.055c0.013,-0.006 0.048,-0.029 0.125,-0.162c0.108,-0.2 0.514,-0.893 1.249,-1.539c0.064,-0.057 0.194,-0.178 0.29,-0.082c0.068,0.066 0.039,0.15 -0.005,0.277c0,0 -0.208,0.728 -0.208,0.73c-0.081,0.37 -0.054,0.668 0.072,0.823c0.057,0.07 0.129,0.107 0.216,0.107c0.199,0 0.602,-0.16 1.16,-0.898c-0.332,0.371 -0.735,0.759 -1.006,0.759" style="fill:#483317;fill-rule:nonzero;"/><path d="M82.93,34.514l-0.079,-0.033c-0.033,-0.006 -0.1,0 -0.165,0.084c-0.544,0.709 -1.057,1.185 -1.272,1.185c-0.043,0 -0.075,-0.014 -0.097,-0.045c-0.031,-0.041 -0.096,-0.174 -0.008,-0.543c0.069,-0.275 0.2,-0.644 0.327,-0.922c0.002,-0.002 0.141,-0.248 0.141,-0.248l0.066,-0.105c0.057,-0.129 0.095,-0.264 -0.02,-0.389c-0.034,-0.049 -0.102,-0.125 -0.21,-0.125c-0.104,0 -0.172,0.09 -0.211,0.147c-0.008,0.011 -0.096,0.095 -0.096,0.095c-0.001,0 -0.347,0.231 -0.347,0.231c-0.166,0.127 -0.585,0.525 -0.869,0.855c0.073,-0.256 0.175,-0.549 0.243,-0.676c0.055,-0.093 0.089,-0.136 0.118,-0.142c0.127,-0.024 0.139,-0.123 0.139,-0.164c0,-0.133 -0.121,-0.387 -0.315,-0.387l-0.006,0c-0.152,0 -0.258,0.098 -0.381,0.344c-0.128,0.244 -0.365,0.951 -0.582,1.922c-0.028,0.111 -0.059,0.308 0.012,0.394c0.02,0.028 0.093,0.125 0.207,0.125c0.128,0 0.217,-0.133 0.289,-0.258c0.104,-0.189 0.486,-0.834 1.168,-1.445c-0.038,0.135 -0.201,0.697 -0.201,0.697c-0.032,0.155 -0.048,0.297 -0.048,0.426c0,0.237 0.053,0.428 0.16,0.561c0.092,0.113 0.222,0.177 0.367,0.177c0.336,0 0.886,-0.242 1.614,-1.388c0.092,-0.131 0.115,-0.242 0.077,-0.326l-0.021,-0.047Z" style="fill:#483317;fill-rule:nonzero;"/><path d="M85.781,33.897c-0.263,0.009 -0.614,0.021 -0.614,0.021c0,0 -0.306,0.016 -0.31,0.016c-0.048,0 -0.116,0 -0.154,-0.055l-0.025,-0.09l0.048,-0.119l0.314,-0.709c0.038,-0.076 0.023,-0.119 0.002,-0.154l-0.028,-0.028l-0.002,-0.004c-0.058,0 -0.159,0.086 -0.188,0.165l-0.211,0.568l-0.121,0.326c-0.035,0.084 -0.094,0.129 -0.198,0.15l-0.356,0.053c0,0 -0.139,0.071 -0.166,0.102l0.078,0.021l0.127,-0.013c0,0 0.194,-0.024 0.19,-0.024c0.029,-0.002 0.098,-0.01 0.142,0.043c0.043,0.055 0.023,0.119 0.006,0.164l-0.233,0.682l-0.131,0.394l-0.08,0.313c0,0.18 0.194,0.271 0.301,0.271c0,0 0.218,-0.043 0.22,-0.043c0.244,-0.093 0.431,-0.197 0.584,-0.295c-0.18,0.088 -0.361,0.157 -0.522,0.157l-0.007,0c-0.1,0 -0.179,-0.034 -0.231,-0.094c-0.045,-0.057 -0.07,-0.127 -0.07,-0.225c0,-0.043 0.005,-0.093 0.015,-0.148c0.044,-0.252 0.222,-0.803 0.353,-1.129c0.045,-0.115 0.105,-0.133 0.205,-0.152c0.55,-0.071 0.871,-0.127 1.062,-0.164" style="fill:#483317;fill-rule:nonzero;"/><path d="M83.653,33.979l0,0" style="fill:none;fill-rule:nonzero;stroke:#483317;stroke-width:0.1px;"/><path d="M86.051,33.693l-0.894,0.034c0,0 -0.178,0.009 -0.25,0.013c0.001,-0.004 0.304,-0.691 0.304,-0.691c0.03,-0.061 0.045,-0.119 0.045,-0.174c0,-0.059 -0.016,-0.113 -0.047,-0.168c-0.042,-0.08 -0.108,-0.125 -0.197,-0.125c-0.151,0 -0.319,0.151 -0.365,0.285c0,0.002 -0.217,0.576 -0.217,0.576l-0.115,0.315c-0.006,0.019 -0.009,0.027 -0.051,0.035c0.01,0 -0.366,0.055 -0.366,0.055c-0.001,0.002 -0.245,0.131 -0.245,0.131c0,0.005 -0.067,0.171 -0.067,0.171l0.063,0.137l0.221,0.065c0,0 0.191,-0.022 0.245,-0.028c-0.051,0.147 -0.217,0.627 -0.217,0.627l-0.13,0.391c0,-0.002 -0.09,0.377 -0.09,0.377c0,0.299 0.291,0.463 0.494,0.463l0.289,-0.057c0.599,-0.226 0.929,-0.519 1.045,-0.635c0.075,-0.084 0.088,-0.193 0.03,-0.257c-0.039,-0.045 -0.118,-0.071 -0.212,-0.004c-0.148,0.099 -0.593,0.386 -0.87,0.386l-0.007,0c-0.043,0 -0.069,-0.009 -0.084,-0.023c-0.012,-0.018 -0.038,-0.067 -0.012,-0.217c0.042,-0.238 0.213,-0.773 0.341,-1.09c0.008,-0.023 0.055,-0.033 0.055,-0.033c0.822,-0.102 1.17,-0.184 1.281,-0.215c0.104,-0.025 0.212,-0.117 0.2,-0.221c-0.002,-0.019 -0.022,-0.123 -0.177,-0.123" style="fill:#483317;fill-rule:nonzero;"/><path d="M88.494,34.088l-0.03,0.211c-0.001,0 -0.046,0.084 -0.046,0.084l-0.205,0.369c0,-0.002 -0.518,0.629 -0.518,0.629c-0.175,0.156 -0.226,0.17 -0.233,0.17c0.002,-0.004 -0.005,-0.047 0.016,-0.115c0.08,-0.282 0.281,-0.737 0.589,-1.096c0.26,-0.318 0.358,-0.328 0.367,-0.328l0.007,0c0.013,0 0.04,0 0.053,0.076m1.747,0.385c-0.068,-0.018 -0.142,0.019 -0.187,0.093c-0.442,0.61 -0.91,1.055 -1.105,1.055c-0.074,0 -0.116,-0.16 -0.116,-0.453c0,-0.35 0.101,-0.719 0.338,-1.24c0.066,-0.131 0.03,-0.248 -0.102,-0.328c-0.045,-0.028 -0.118,-0.043 -0.203,-0.002c-0.041,-0.071 -0.122,-0.16 -0.229,-0.16l-0.005,0c-0.102,0 -0.323,0.041 -0.63,0.322c-0.391,0.334 -0.721,0.838 -0.884,1.166c-0.184,0.346 -0.28,0.621 -0.28,0.814c0,0.315 0.278,0.442 0.395,0.442c0.135,0 0.288,-0.074 0.473,-0.235c0.154,-0.132 0.428,-0.427 0.591,-0.619c0.005,0.125 0.012,0.258 0.012,0.258c0.032,0.322 0.26,0.596 0.5,0.596c0.436,0 1.207,-0.787 1.457,-1.282c0.003,-0.005 0.074,-0.292 0.074,-0.292c0,-0.065 -0.038,-0.12 -0.099,-0.135" style="fill:#483317;fill-rule:nonzero;"/><path d="M95.127,33.66l-0.057,0.104c0,0 -0.124,0.213 -0.119,0.207c0,0 -0.025,0.166 -0.024,0.176c0.008,0.086 0.006,0.191 -0.154,0.466c-0.263,0.485 -0.632,1.061 -0.89,1.061l-0.133,-0.063c-0.052,-0.056 -0.11,-0.175 -0.091,-0.414c0,0 0.106,-1.033 0.106,-1.019l0.057,-0.201l0.071,-0.196c0,-0.043 -0.068,-0.164 -0.136,-0.164c-0.013,0 -0.074,0.012 -0.171,0.231c0,0 -0.03,0.177 -0.03,0.195l0,0.002c0,0 -0.038,0.156 -0.049,0.174l-0.085,0.09l-0.246,0.259c-0.304,0.319 -0.689,0.639 -0.935,0.776l-0.099,0.033l-0.189,-0.451c0,0 -0.093,-0.192 -0.09,-0.188c-0.08,-0.144 -0.112,-0.257 -0.112,-0.382c0,-0.303 0.429,-0.586 0.88,-0.586c0.089,0 0.133,-0.03 0.138,-0.03c0,-0.027 -0.123,-0.095 -0.278,-0.095l-0.007,0c-0.167,0 -0.394,0.093 -0.579,0.236c-0.208,0.154 -0.337,0.404 -0.337,0.516c0,0 0.056,0.283 0.065,0.304c0,0 0.178,0.364 0.176,0.36c0,0 0.12,0.326 0.122,0.339c0,0.086 -0.061,0.161 -0.176,0.211c0,0 -0.333,0.131 -0.332,0.131c-0.075,0.037 -0.206,0.116 -0.239,0.231c0.006,0.013 0.055,0.039 0.113,0.039c0.185,0 0.519,-0.149 0.656,-0.244l0.116,-0.118c0,0 0.101,-0.103 0.102,-0.105c0.186,-0.145 0.824,-0.65 1.207,-1.104l0.186,-0.218l-0.015,0.285l-0.042,0.775c-0.008,0.389 0.041,0.496 0.08,0.53l0.122,-0.028l0.287,-0.027l-0.543,0.699c0,0 -0.387,0.498 -0.385,0.496c-0.225,0.281 -0.431,0.617 -0.464,0.682c0,0 -0.16,0.144 -0.167,0.148c-0.026,0.008 -0.112,0.039 -0.244,0.219l-0.188,0.34c-0.01,0.023 -0.008,0.039 -0.002,0.047c0.003,0.006 0.018,0.013 0.042,0.013c0.068,0 0.128,-0.056 0.229,-0.216c0.052,-0.088 0.116,-0.159 0.246,-0.211l0.062,-0.035c0.329,-0.178 0.393,-0.252 0.4,-0.272l-0.057,-0.025l-0.07,-0.034l-0.014,-0.037c-0.03,-0.066 0.015,-0.132 0.045,-0.179l1.409,-1.807c0.305,-0.379 0.744,-1.158 0.858,-1.42c0.082,-0.187 0.118,-0.363 0.118,-0.414c0,-0.074 -0.059,-0.16 -0.072,-0.172c-0.012,0 -0.033,0 -0.072,0.08" style="fill:#483317;fill-rule:nonzero;"/><path d="M95.199,33.387c-0.153,0 -0.22,0.138 -0.243,0.181c0.002,-0.003 -0.057,0.104 -0.057,0.104l-0.113,0.197c-0.006,0.008 -0.051,0.307 -0.051,0.307c0.004,0.031 0.012,0.099 -0.13,0.344c-0.424,0.779 -0.67,0.959 -0.722,0.963c-0.001,-0.006 -0.046,-0.081 -0.031,-0.272c0,-0.002 0.105,-1.02 0.105,-1.02c0,-0.013 0.026,-0.109 0.026,-0.109l0.102,-0.301c0,-0.121 -0.128,-0.357 -0.328,-0.357c-0.199,0 -0.309,0.258 -0.345,0.342l0.001,0c0,0.013 -0.051,0.279 -0.051,0.279c0,0.008 -0.004,0.049 -0.004,0.049c-0.006,0.004 -0.079,0.086 -0.079,0.086l-0.24,0.254c-0.265,0.277 -0.573,0.531 -0.802,0.677c-0.049,-0.121 -0.112,-0.273 -0.112,-0.273l-0.089,-0.184c-0.068,-0.123 -0.092,-0.207 -0.092,-0.298c0,-0.155 0.296,-0.393 0.687,-0.393c0.192,0 0.332,-0.094 0.332,-0.223c0,-0.199 -0.278,-0.289 -0.472,-0.289l-0.007,0c-0.253,0 -0.524,0.145 -0.694,0.276c-0.227,0.17 -0.415,0.468 -0.415,0.67l0.074,0.365c0.01,0.021 0.193,0.394 0.193,0.394c0.001,0.006 0.096,0.26 0.097,0.26c-0.001,-0.021 -0.058,0.018 -0.057,0.018c0.004,-0.004 -0.341,0.132 -0.341,0.132c-0.13,0.063 -0.294,0.174 -0.344,0.364c-0.016,0.053 -0.004,0.111 0.033,0.16c0.06,0.078 0.177,0.115 0.267,0.115c0.258,0 0.635,-0.185 0.769,-0.281c0.001,0 0.152,-0.152 0.152,-0.152l0.071,-0.077c0.163,-0.127 0.661,-0.525 1.054,-0.935c-0.014,0.23 -0.028,0.515 -0.028,0.515c-0.002,0.03 -0.002,0.055 -0.002,0.083c0,0.326 0.038,0.5 0.121,0.585c0,0 0.101,0.041 0.132,0.055c-0.113,0.145 -0.647,0.832 -0.647,0.832c-0.239,0.299 -0.452,0.649 -0.487,0.719l-0.063,0.053c-0.111,0.041 -0.218,0.134 -0.329,0.287l-0.222,0.396c-0.025,0.08 -0.014,0.16 0.029,0.219c0.042,0.059 0.112,0.09 0.198,0.09c0.182,0 0.289,-0.147 0.392,-0.309c0.032,-0.051 0.065,-0.095 0.167,-0.138c0.012,-0.004 0.07,-0.036 0.07,-0.036c0.317,-0.171 0.5,-0.296 0.5,-0.449c0,-0.043 -0.036,-0.111 -0.126,-0.16c0.018,-0.025 1.398,-1.793 1.398,-1.793c0.314,-0.393 0.767,-1.195 0.885,-1.465c0.086,-0.197 0.133,-0.4 0.133,-0.492c0,-0.16 -0.125,-0.365 -0.265,-0.365" style="fill:#483317;fill-rule:nonzero;"/><path d="M105.29,33.522l0,-0.004" style="fill:none;fill-rule:nonzero;stroke:#483317;stroke-width:0.1px;"/><path d="M104.709,33.565c0,0.109 -0.224,0.347 -0.522,0.498c-0.177,0.089 -0.298,0.128 -0.384,0.154c0.101,-0.289 0.317,-0.844 0.396,-1c0.258,-0.026 0.51,0.117 0.51,0.34l0,0.008Zm1.146,2.121c-0.022,-0.016 -0.094,-0.057 -0.185,0.037c-0.07,0.056 -0.213,0.117 -0.285,0.117c-0.087,0 -0.206,-0.02 -0.362,-0.182c-0.12,-0.119 -0.617,-0.804 -0.809,-1.101c0.72,-0.307 1.076,-0.655 1.076,-1.03l0,-0.005l-0.075,-0.334c-0.145,-0.272 -0.473,-0.442 -0.858,-0.469c0,0 0.003,-0.002 0.003,-0.004c0,-0.051 -0.035,-0.115 -0.093,-0.166c-0.006,-0.004 -0.241,-0.086 -0.241,-0.086c-0.164,0 -0.232,0.172 -0.258,0.238c-0.013,0.026 -0.042,0.032 -0.042,0.032c-0.356,0.046 -0.588,0.117 -0.731,0.222c-0.125,0.088 -0.174,0.209 -0.133,0.319c0.002,0 0.12,0.158 0.12,0.158c0.058,0.058 0.142,0.078 0.232,0.054c0.008,-0.003 0.187,-0.152 0.187,-0.152c0.029,-0.039 0.085,-0.072 0.174,-0.101c-0.067,0.185 -0.209,0.572 -0.209,0.572l-0.164,0.426c-0.001,0.003 -0.03,0.062 -0.03,0.062c-0.002,0 -0.144,0.152 -0.144,0.152l0.003,0.227c-0.002,-0.01 0,0.049 0,0.049c-0.001,0.002 -0.169,0.492 -0.169,0.492l-0.122,0.353c0.002,-0.003 -0.019,0.047 -0.019,0.047c-0.006,-0.004 -0.249,0.098 -0.249,0.098c-0.033,0.023 -0.132,0.113 -0.041,0.273c0.069,0.129 0.289,0.233 0.424,0.233l0.207,-0.068c-0.015,0.007 0.088,-0.016 0.088,-0.016c0.085,-0.004 0.32,-0.024 0.454,-0.106c0.049,-0.027 0.108,-0.066 0.115,-0.136c0.001,-0.002 0.001,-0.008 0.001,-0.014c0,-0.041 -0.022,-0.078 -0.062,-0.111c0,-0.002 -0.366,-0.125 -0.369,-0.125c0.004,-0.002 0.292,-0.826 0.292,-0.826c0.001,-0.008 0.014,-0.04 0.015,-0.043c0.002,0.011 0.072,0.039 0.072,0.039c0.004,0.004 0.217,0.3 0.217,0.3l0.408,0.563c0.357,0.453 0.604,0.621 0.906,0.621c0.253,0 0.541,-0.158 0.664,-0.371c0.057,-0.106 0.053,-0.195 -0.008,-0.238" style="fill:#483317;fill-rule:nonzero;"/><path d="M107.626,35.383c-0.22,0 -0.443,0.277 -0.443,0.476c0,0.168 0.159,0.338 0.315,0.338c0.227,0 0.52,-0.207 0.52,-0.429c0,-0.164 -0.191,-0.385 -0.386,-0.385l-0.006,0Z" style="fill:#483317;fill-rule:nonzero;"/><path d="M111.285,33.838l0.236,-0.6c0.014,-0.029 0.014,-0.029 0.055,-0.029c0.022,0 0.59,0.02 0.59,0.402c0,0.323 -0.351,0.495 -0.66,0.645l-0.129,0.062c0,0 -0.232,0.143 -0.337,0.207c0.048,-0.142 0.084,-0.246 0.084,-0.246l0.077,-0.218c0,0.002 0.084,-0.223 0.084,-0.223m-0.256,-1.07c-0.255,0.105 -0.44,0.193 -0.631,0.345c-0.14,0.118 -0.122,0.243 -0.061,0.313c0.037,0.06 0.114,0.099 0.2,0.099c0.056,0 0.14,-0.048 0.315,-0.148c-0.096,0.297 -0.337,1.023 -0.337,1.023l-0.368,1.116c-0.032,0.095 -0.063,0.105 -0.079,0.111c-0.141,0.047 -0.218,0.102 -0.25,0.18c-0.009,0.023 -0.012,0.047 -0.012,0.07c0,0.037 0.01,0.074 0.03,0.115c0.069,0.123 0.222,0.248 0.419,0.248l0.243,-0.091c0.002,-0.002 0.145,-0.032 0.145,-0.032c0.282,0 0.507,-0.052 0.622,-0.148c0.084,-0.051 0.1,-0.111 0.1,-0.151c0,-0.013 -0.002,-0.023 -0.003,-0.033c-0.008,-0.031 -0.039,-0.105 -0.169,-0.113l-0.136,-0.012l-0.336,-0.041l-0.046,-0.017c0.011,-0.016 0.148,-0.424 0.268,-0.786c0.045,0.063 0.129,0.102 0.201,0.102l0.168,-0.025c0.257,-0.082 0.556,-0.221 0.807,-0.371c0.224,-0.137 0.635,-0.541 0.635,-0.887l0,-0.01c0,-0.146 -0.02,-0.307 -0.154,-0.48c-0.178,-0.243 -0.675,-0.436 -0.968,-0.436c-0.12,-0.146 -0.217,-0.219 -0.316,-0.219c-0.133,0 -0.23,0.151 -0.287,0.278" style="fill:#483317;fill-rule:nonzero;"/><path d="M114.292,35.383c-0.222,0 -0.443,0.277 -0.443,0.476c0,0.168 0.157,0.338 0.315,0.338c0.228,0 0.519,-0.207 0.519,-0.429c0,-0.164 -0.189,-0.385 -0.385,-0.385l-0.006,0Z" style="fill:#483317;fill-rule:nonzero;"/><path d="M121.241,35.383c-0.219,0 -0.442,0.277 -0.442,0.476c0,0.168 0.16,0.338 0.315,0.338c0.228,0 0.521,-0.207 0.521,-0.429c0,-0.164 -0.191,-0.385 -0.387,-0.385l-0.007,0Z" style="fill:#483317;fill-rule:nonzero;"/><path d="M118.027,32.986c-0.894,0.579 -1.452,1.45 -1.452,2.272l0,0.008c0,0.117 0.014,0.252 0.108,0.451c0.116,0.228 0.334,0.474 0.542,0.474c0.14,0 0.366,-0.039 0.579,-0.146c0.167,-0.082 0.485,-0.301 0.723,-0.494c-0.092,0.344 -0.178,0.586 -0.233,0.65c-0.001,0.004 -0.22,0.287 -0.22,0.287c-0.041,0.053 -0.062,0.11 -0.062,0.164c0,0.028 0.005,0.051 0.015,0.077c0.027,0.06 0.085,0.099 0.158,0.103c0.117,0 0.301,-0.047 0.397,-0.117c0.105,-0.078 0.169,-0.174 0.192,-0.293c-0.001,0.008 0.093,-0.371 0.093,-0.371c-0.003,0.004 0.147,-0.414 0.147,-0.414l0.162,-0.446c0.072,-0.242 0.143,-0.453 0.306,-0.64c0.123,-0.145 0.066,-0.242 0.036,-0.281c-0.061,-0.079 -0.151,-0.123 -0.245,-0.123c-0.163,0 -0.315,0.127 -0.392,0.205l-0.15,0.261c-0.015,0.086 -0.129,0.262 -0.318,0.426c-0.396,0.34 -0.837,0.598 -1.026,0.598c-0.117,0 -0.189,-0.164 -0.189,-0.428c0,-0.404 0.239,-0.943 0.594,-1.34c0.45,-0.511 0.821,-0.683 0.922,-0.683l0.163,0.052c0.055,0.039 0.167,0.08 0.336,0.036c0.001,0 0.283,-0.165 0.283,-0.165c0,-0.003 0.067,-0.152 0.067,-0.152l-0.085,-0.174c-0.083,-0.074 -0.253,-0.15 -0.415,-0.15c-0.146,0 -0.534,0.035 -1.036,0.353" style="fill:#483317;fill-rule:nonzero;"/><path d="M79.214,22.483c0.191,-1.168 0.161,-0.799 0.161,-0.799c0,0 0,-0.039 0.38,-0.166c0.076,-0.026 0.474,-0.024 0.735,-0.096c0.401,-0.072 0.709,-0.164 0.901,-0.307c0.641,-0.216 1.108,-0.584 1.131,-0.572c-0.17,1.525 -0.666,3.857 -2.119,5.109l-1.228,-0.949c0,0 -0.157,-1.004 0.039,-2.22" style="fill:#fff;fill-rule:nonzero;"/><path d="M80.619,15.318c-0.143,-0.984 -0.705,-1.794 -1.418,-2.546c-0.122,-0.129 -0.103,-0.17 0,-0.131c0.076,0.029 0.233,0.125 0.25,0.142c0.336,0.268 0.967,0.883 1.472,1.688c0.645,1.031 1.136,2.242 1.102,2.787c-0.158,2.572 -2.237,3.246 -2.237,3.246c0,0 1.13,-3.148 0.831,-5.186" style="fill:#fff;fill-rule:nonzero;"/><path d="M79.205,21.768l-0.142,0.289c0.08,0.039 2.038,0.98 4.004,-0.166l-0.162,-0.278c-1.815,1.061 -3.682,0.162 -3.7,0.155" style="fill:#255141;fill-rule:nonzero;"/><path d="M78.831,23.873c0.021,0.035 0.548,0.899 2.727,0.899l-0,-0.323c-1.97,0 -2.447,-0.732 -2.45,-0.74l-0.277,0.164Z" style="fill:#255141;fill-rule:nonzero;"/><path d="M80.323,17.947l-0.16,0.28c0.044,0.025 1.087,0.601 2.426,-0.592l-0.215,-0.24c-1.157,1.031 -2.014,0.574 -2.051,0.552" style="fill:#255141;fill-rule:nonzero;"/><path d="M80.493,15.791l0.016,0.32c0.05,-0.003 1.222,-0.076 1.59,-1.136l-0.303,-0.106c-0.297,0.852 -1.264,0.92 -1.303,0.922" style="fill:#255141;fill-rule:nonzero;"/><path d="M79.948,13.742l0.117,0.301c0.025,-0.012 0.628,-0.254 0.77,-0.764l-0.31,-0.084c-0.096,0.352 -0.573,0.545 -0.577,0.547" style="fill:#255141;fill-rule:nonzero;"/><path d="M74.749,29.555c0.034,-0.461 0.364,-0.604 0.364,-0.604l0.134,0.346l-0.498,0.258Z" style="fill:#fff;fill-rule:nonzero;"/><path d="M76.192,14.186c0.845,-0.403 2.344,0.255 3.733,2.582c1.53,2.433 1.016,3.756 -0.822,4.636c-1.835,0.873 -4.599,-0.904 -3.949,-4.675c0,0 0.041,-2.077 1.038,-2.543" style="fill:#fff;fill-rule:nonzero;"/><path d="M75.217,17.748c-0.059,2.752 2.201,4.108 3.528,3.57c1.325,-0.533 2.106,-1.755 1.507,-3.24c-0.6,-1.482 -2.575,-4.133 -4.059,-3.535c-0.625,0.252 -0.947,1.924 -0.976,3.205m-0.358,-1.599c0.367,-2.69 2.595,-3.307 5.164,0.58c2.385,3.607 -0.952,6.279 -3.348,4.925c-2.755,-1.554 -1.816,-5.505 -1.816,-5.505" style="fill:#255141;fill-rule:nonzero;"/><path d="M75.618,17.233c-0.118,-0.213 -0.129,-0.514 0.029,-0.508c0.156,0.008 -0.029,0.508 -0.029,0.508" style="fill:#255141;fill-rule:nonzero;"/><path d="M75.995,17.217c-0.149,-0.192 -0.207,-0.488 -0.051,-0.508c0.157,-0.018 0.051,0.508 0.051,0.508" style="fill:#255141;fill-rule:nonzero;"/><path d="M80.643,19.838c-0.04,-0.377 -0.294,-0.772 -0.49,-0.623c-0.196,0.144 0.306,0.475 0.298,0.814c-0.003,0.338 0.192,-0.191 0.192,-0.191" style="fill:#255141;fill-rule:nonzero;"/><path d="M80.336,20.436c0,0 -0.09,-0.838 -0.337,-0.766c-0.248,0.068 0.221,0.865 0.206,1.119c-0.015,0.258 0.131,-0.353 0.131,-0.353" style="fill:#255141;fill-rule:nonzero;"/><path d="M74.975,19.475c0,0 0.737,-0.141 0.987,-0.047l-0.443,0.447l0.522,-0.088l-0.11,0.434l0.36,-0.092l-0.092,0.469c0,0 -0.135,0.668 -0.832,0.131c-0.698,-0.536 -0.681,-1.19 -0.392,-1.254" style="fill:#255141;fill-rule:nonzero;"/><path d="M81.47,19.494c-0.751,0.852 -1.84,1.03 -1.84,1.03l-0.474,-0.256l-0.04,0.433l-0.377,-0.236l0,0.473l-0.298,-0.137c-0.038,0.119 0.021,0.75 1.248,0.715c2.019,-0.063 3.445,-1.487 3.445,-1.487l-0.357,-1.623l-1.307,1.088Z" style="fill:#255141;fill-rule:nonzero;"/><path d="M76.738,12.096c0,0 0.325,0.115 0.745,-0.133c0.348,-0.207 0.479,-0.559 0.479,-0.559l0.208,0.032c0,0 -0.208,0.511 -0.61,0.711c-0.322,0.16 -0.753,0.175 -0.911,0.109l0.089,-0.16Z" style="fill:#fff;fill-rule:nonzero;"/><path d="M51.315,3.842c0,0 -0.794,-1.037 0.076,-1.752c0.667,-0.551 1.802,-0.699 1.952,-0.486c0.15,0.212 0.174,0.912 -0.276,1.441c-0.338,0.398 -1.377,0.967 -1.752,0.797" style="fill:#255141;fill-rule:nonzero;"/><path d="M50.325,2.881c0.318,0.008 -1.276,0.918 -2.096,0.35c-0.819,-0.571 -0.638,-1.295 -0.638,-1.295c0,0 1.053,-0.403 1.657,-0.028c0.604,0.375 0.835,0.963 1.077,0.973" style="fill:#255141;fill-rule:nonzero;"/><path d="M107.426,3.764c0,0 0.793,-1.035 -0.077,-1.752c-0.667,-0.551 -1.803,-0.697 -1.952,-0.485c-0.151,0.211 -0.173,0.913 0.275,1.442c0.339,0.396 1.377,0.965 1.754,0.795" style="fill:#255141;fill-rule:nonzero;"/><path d="M108.412,2.803c-0.314,0.01 1.278,0.92 2.097,0.351c0.817,-0.568 0.641,-1.296 0.641,-1.296c0,0 -1.056,-0.401 -1.66,-0.028c-0.602,0.377 -0.834,0.965 -1.078,0.973" style="fill:#255141;fill-rule:nonzero;"/><path d="M33.429,8.9c0,0 -0.458,-1.167 0.599,-1.681c0.815,-0.395 1.958,-0.303 2.038,-0.067c0.081,0.239 -0.104,0.918 -0.702,1.34c-0.446,0.313 -1.623,0.653 -1.935,0.408" style="fill:#255141;fill-rule:nonzero;"/><path d="M32.761,7.766c0.302,0.072 -1.515,0.625 -2.136,-0.094c-0.621,-0.721 -0.229,-1.387 -0.229,-1.387c0,0 1.143,-0.17 1.613,0.317c0.473,0.488 0.518,1.103 0.752,1.164" style="fill:#255141;fill-rule:nonzero;"/><path d="M33.429,38.645c0,0 -0.458,1.164 0.599,1.677c0.815,0.397 1.958,0.305 2.038,0.069c0.081,-0.237 -0.104,-0.92 -0.702,-1.34c-0.446,-0.313 -1.623,-0.651 -1.935,-0.406" style="fill:#255141;fill-rule:nonzero;"/><path d="M32.761,39.777c0.302,-0.072 -1.515,-0.627 -2.136,0.092c-0.621,0.721 -0.229,1.389 -0.229,1.389c0,0 1.143,0.17 1.613,-0.317c0.473,-0.488 0.518,-1.105 0.752,-1.164" style="fill:#255141;fill-rule:nonzero;"/><path d="M108.091,43.709c0,0 0.794,1.035 -0.074,1.75c-0.668,0.551 -1.806,0.701 -1.956,0.486c-0.148,-0.212 -0.173,-0.912 0.278,-1.443c0.336,-0.394 1.375,-0.963 1.752,-0.793" style="fill:#255141;fill-rule:nonzero;"/><path d="M109.079,44.67c-0.315,-0.008 1.278,-0.922 2.096,-0.352c0.819,0.569 0.641,1.297 0.641,1.297c0,0 -1.057,0.401 -1.659,0.024c-0.604,-0.371 -0.836,-0.963 -1.078,-0.969" style="fill:#255141;fill-rule:nonzero;"/><path d="M51.979,43.785c0,0 -0.793,1.037 0.077,1.75c0.668,0.553 1.802,0.699 1.953,0.487c0.15,-0.213 0.174,-0.913 -0.278,-1.442c-0.336,-0.396 -1.376,-0.965 -1.752,-0.795" style="fill:#255141;fill-rule:nonzero;"/><path d="M50.993,44.746c0.315,-0.01 -1.279,-0.92 -2.099,-0.351c-0.817,0.57 -0.639,1.296 -0.639,1.296c0,0 1.057,0.401 1.658,0.028c0.604,-0.375 0.836,-0.965 1.08,-0.973" style="fill:#255141;fill-rule:nonzero;"/><path d="M140.57,13.324c-0.992,-2.14 -3.512,-3.287 -5.444,-4.162c0.15,-0.461 0.492,-1.584 0.299,-1.76c-0.244,-0.22 -0.65,-0.13 -0.658,0.266c-0.012,0.32 0.066,0.953 -0.028,1.326c-1.96,-0.842 -3.546,-1.209 -3.546,-1.209c-1.204,-0.369 -1.596,0.852 -0.737,0.865c0.858,0.01 5.461,1.536 7.002,2.741c1.924,1.506 1.688,2.461 1.825,2.816c0,0 1.717,0.043 1.287,-0.883" style="fill:#483317;fill-rule:nonzero;"/><path d="M134.876,9.029c0.07,-0.273 0.056,-0.652 0.04,-0.986l-0.008,-0.371c0.003,-0.113 0.048,-0.193 0.129,-0.229c0.09,-0.037 0.208,-0.011 0.292,0.065c0.009,0.016 0.016,0.049 0.016,0.103c0,0.192 -0.074,0.645 -0.355,1.508l-0.041,0.121l0.118,0.053c1.857,0.838 4.4,1.988 5.374,4.09c0.043,0.09 0.057,0.162 0.057,0.217c0,0.078 -0.029,0.123 -0.043,0.142c-0.162,0.25 -0.755,0.313 -1.058,0.319c-0.011,-0.061 -0.025,-0.127 -0.025,-0.127c-0.072,-0.485 -0.206,-1.387 -1.828,-2.657c-1.593,-1.246 -6.234,-2.759 -7.086,-2.769c-0.158,-0.002 -0.266,-0.053 -0.307,-0.143c-0.008,-0.023 -0.015,-0.05 -0.015,-0.08c0,-0.072 0.035,-0.156 0.097,-0.226c0.071,-0.078 0.341,-0.317 0.916,-0.139c0.027,0.006 1.609,0.377 3.534,1.205l0.153,0.065l0.04,-0.161Zm0.05,-1.845c-0.184,0.076 -0.296,0.256 -0.302,0.48l0.009,0.391c0.005,0.131 0.01,0.277 0.01,0.42c0,0.117 -0.015,0.213 -0.029,0.316c-1.864,-0.785 -3.375,-1.142 -3.389,-1.146c-0.49,-0.151 -0.945,-0.067 -1.204,0.226c-0.164,0.184 -0.213,0.416 -0.128,0.61c0.083,0.193 0.289,0.308 0.561,0.31c0.81,0.01 5.399,1.525 6.916,2.711c1.531,1.199 1.654,2.029 1.72,2.473l0.084,0.392l0.106,-0.019c0.113,0.004 1.109,0.015 1.412,-0.451c0.049,-0.071 0.089,-0.168 0.089,-0.297c0,-0.096 -0.022,-0.207 -0.081,-0.336c-1.001,-2.155 -3.516,-3.324 -5.403,-4.178c0.251,-0.785 0.328,-1.225 0.328,-1.463c0,-0.23 -0.065,-0.291 -0.105,-0.326c-0.167,-0.152 -0.4,-0.197 -0.594,-0.113" style="fill:#483317;fill-rule:nonzero;"/><path d="M135.998,7.813c0,0 0.49,-1.301 1.918,-1.231c1.097,0.053 2.126,0.719 2.017,0.979c-0.113,0.257 -0.834,0.787 -1.747,0.869c-0.676,0.06 -2.08,-0.233 -2.188,-0.617" style="fill:#255141;fill-rule:nonzero;"/><path d="M135.508,6.826c-0.084,0.266 -1.042,-1.322 -0.033,-1.869c1.006,-0.551 2.018,-0.207 2.018,-0.207c0,0 0.344,1 -0.337,1.414c-0.677,0.416 -1.582,0.459 -1.648,0.662" style="fill:#255141;fill-rule:nonzero;"/><path d="M134.705,6.908c0,0 -0.73,-1.578 -2.318,-1.517c-0.983,0.039 -1.712,0.424 -1.588,0.656c0.128,0.236 2.045,0.977 2.62,1.066c0.575,0.088 1.031,-0.031 1.286,-0.205" style="fill:#255141;fill-rule:nonzero;"/><path d="M141.048,13.016c0,0 1.366,1.258 2.594,0.773c0.946,-0.371 1.406,-1.271 1.126,-1.471c-0.274,-0.197 -1.282,-0.457 -2.153,-0.259c-0.646,0.146 -1.455,0.754 -1.567,0.957" style="fill:#255141;fill-rule:nonzero;"/><path d="M138.527,15.797c0,0 0.666,-0.953 2.096,-0.877c1.097,0.057 2.123,0.729 2.009,0.988c-0.114,0.256 -0.952,0.666 -1.882,0.612c-1.51,-0.09 -1.984,-0.577 -2.223,-0.723" style="fill:#255141;fill-rule:nonzero;"/><path d="M138.715,16.752c0,0 1.115,0.121 1.621,0.945c0.39,0.633 0.2,1.387 -0.075,1.391c-0.276,0.006 -0.978,-0.355 -1.3,-0.895c-0.528,-0.875 -0.284,-1.269 -0.246,-1.441" style="fill:#255141;fill-rule:nonzero;"/><path d="M144.999,18.553c-0.147,-0.42 -0.454,-0.953 -1.637,-1.082c-0.851,-0.09 -2.154,0.242 -2.164,0.515c-0.015,0.43 1.368,1.123 2.283,1.09c0.623,-0.021 1.518,-0.523 1.518,-0.523" style="fill:#255141;fill-rule:nonzero;"/><path d="M135.634,11.543c-0.075,0.27 -0.056,2.145 0.445,2.467c0.497,0.318 1.835,2.838 2.106,2.496c0.274,-0.34 -1.252,-2.488 -1.447,-2.848c-0.192,-0.357 -0.541,-1.554 -0.475,-2.041c0.063,-0.486 -0.517,-0.47 -0.629,-0.074" style="fill:#483317;fill-rule:nonzero;"/><path d="M136.031,11.393c0.075,0.017 0.095,0.084 0.095,0.152c0,0.02 -0.001,0.037 -0.003,0.055c-0.005,0.047 -0.01,0.097 -0.01,0.154c0,0.58 0.313,1.627 0.501,1.971l0.289,0.463c0.297,0.457 1.159,1.795 1.175,2.168c-0.19,-0.123 -0.628,-0.76 -0.934,-1.206c-0.404,-0.593 -0.752,-1.107 -0.989,-1.259c-0.311,-0.201 -0.412,-1.276 -0.412,-1.897c0,-0.199 0.01,-0.351 0.028,-0.412c0.039,-0.141 0.166,-0.207 0.26,-0.189m-0.535,0.111c-0.083,0.303 -0.083,2.246 0.507,2.625c0.186,0.121 0.568,0.684 0.907,1.18c0.644,0.947 0.952,1.363 1.201,1.371c0.074,0.004 0.139,-0.026 0.184,-0.084c0.237,-0.295 -0.203,-1.094 -1.153,-2.565l-0.278,-0.441c-0.18,-0.332 -0.52,-1.494 -0.46,-1.955c0.043,-0.326 -0.144,-0.486 -0.317,-0.52c-0.223,-0.045 -0.504,0.088 -0.591,0.389" style="fill:#483317;fill-rule:nonzero;"/><path d="M126.495,8.9c0,0 0.456,-1.167 -0.601,-1.681c-0.813,-0.395 -1.956,-0.301 -2.037,-0.067c-0.082,0.239 0.105,0.918 0.702,1.34c0.447,0.313 1.625,0.653 1.936,0.408" style="fill:#255141;fill-rule:nonzero;"/><path d="M127.162,7.766c-0.302,0.072 1.517,0.625 2.137,-0.094c0.62,-0.721 0.229,-1.387 0.229,-1.387c0,0 -1.144,-0.17 -1.615,0.319c-0.474,0.486 -0.519,1.101 -0.751,1.162" style="fill:#255141;fill-rule:nonzero;"/><path d="M140.293,34.654c-1.612,1.776 -3.235,2.852 -5.167,3.725c0.15,0.463 0.492,1.586 0.299,1.76c-0.244,0.222 -0.65,0.133 -0.658,-0.264c-0.012,-0.32 0.066,-0.953 -0.028,-1.326c-1.96,0.844 -3.546,1.209 -3.546,1.209c-1.204,0.371 -2.206,-1.68 -0.768,-1.42c0.843,0.154 5.492,-0.98 7.033,-2.186c1.924,-1.505 1.856,-1.753 1.993,-2.109c0,0 1.161,0.258 0.842,0.611" style="fill:#483317;fill-rule:nonzero;"/><path d="M137.544,36.266c1.729,-1.354 1.882,-1.719 1.997,-2.051c0.365,0.1 0.656,0.244 0.664,0.316l-0.017,0.028c-1.489,1.638 -3.02,2.742 -5.121,3.691l-0.118,0.053l0.041,0.121c0.278,0.85 0.351,1.303 0.351,1.5c0,0.062 -0.007,0.1 -0.016,0.115c-0.08,0.074 -0.198,0.098 -0.288,0.059c-0.081,-0.033 -0.126,-0.114 -0.129,-0.227l0.008,-0.371c0.016,-0.334 0.03,-0.711 -0.04,-0.986l-0.04,-0.162l-0.153,0.066c-1.925,0.828 -3.507,1.197 -3.522,1.201c-0.466,0.143 -0.87,-0.115 -1.096,-0.406c-0.182,-0.232 -0.256,-0.502 -0.172,-0.637c0.065,-0.109 0.245,-0.142 0.507,-0.095c0.912,0.166 5.606,-1.014 7.144,-2.215m1.737,-2.168c-0.097,0.285 -0.207,0.607 -1.911,1.941c-1.534,1.201 -6.162,2.299 -6.919,2.162c-0.495,-0.092 -0.71,0.073 -0.803,0.229c-0.148,0.242 -0.071,0.621 0.193,0.959c0.271,0.347 0.799,0.689 1.394,0.506c0.004,-0.002 1.515,-0.358 3.379,-1.141c0.014,0.102 0.029,0.197 0.029,0.316c0,0.141 -0.005,0.288 -0.01,0.418l-0.009,0.391c0.006,0.223 0.118,0.402 0.302,0.48c0.194,0.082 0.427,0.038 0.594,-0.115c0.04,-0.035 0.105,-0.092 0.105,-0.322c0,-0.24 -0.077,-0.682 -0.329,-1.471c2.078,-0.953 3.612,-2.064 5.101,-3.701c0.072,-0.08 0.093,-0.156 0.093,-0.219c0,-0.037 -0.007,-0.066 -0.013,-0.086c-0.101,-0.32 -0.788,-0.494 -0.995,-0.541l-0.122,-0.029l-0.079,0.223Z" style="fill:#483317;fill-rule:nonzero;"/><path d="M135.998,39.729c0,0 0.49,1.3 1.918,1.232c1.097,-0.053 2.126,-0.721 2.017,-0.98c-0.113,-0.256 -0.834,-0.786 -1.747,-0.868c-0.676,-0.058 -2.08,0.233 -2.188,0.616" style="fill:#255141;fill-rule:nonzero;"/><path d="M135.508,40.715c-0.084,-0.266 -1.042,1.326 -0.033,1.873c1.006,0.547 2.018,0.205 2.018,0.205c0,0 0.344,-1.002 -0.337,-1.416c-0.677,-0.414 -1.582,-0.457 -1.648,-0.662" style="fill:#255141;fill-rule:nonzero;"/><path d="M134.705,40.635c0,0 -0.73,1.578 -2.318,1.515c-0.983,-0.037 -1.712,-0.419 -1.588,-0.654c0.128,-0.234 2.045,-0.976 2.62,-1.066c0.575,-0.09 1.031,0.031 1.286,0.205" style="fill:#255141;fill-rule:nonzero;"/><path d="M141.048,34.529c0,0 1.366,-1.261 2.594,-0.777c0.946,0.373 1.406,1.273 1.126,1.471c-0.274,0.197 -1.282,0.459 -2.153,0.26c-0.646,-0.147 -1.455,-0.752 -1.567,-0.954" style="fill:#255141;fill-rule:nonzero;"/><path d="M138.527,31.748c0,0 0.666,0.951 2.096,0.875c1.097,-0.058 2.123,-0.73 2.009,-0.988c-0.114,-0.258 -0.952,-0.668 -1.882,-0.611c-1.51,0.089 -1.984,0.576 -2.223,0.724" style="fill:#255141;fill-rule:nonzero;"/><path d="M138.715,30.791c0,0 1.115,-0.123 1.621,-0.943c0.39,-0.637 0.2,-1.389 -0.075,-1.395c-0.276,-0.004 -0.978,0.36 -1.3,0.897c-0.528,0.875 -0.284,1.267 -0.246,1.441" style="fill:#255141;fill-rule:nonzero;"/><path d="M144.999,28.988c-0.147,0.422 -0.454,0.957 -1.637,1.082c-0.851,0.092 -2.154,-0.242 -2.164,-0.515c-0.015,-0.428 1.368,-1.123 2.283,-1.09c0.623,0.023 1.518,0.523 1.518,0.523" style="fill:#255141;fill-rule:nonzero;"/><path d="M136.275,35.961c-0.112,-0.256 -0.353,-2.119 0.101,-2.5c0.45,-0.377 1.426,-3.037 1.744,-2.734c0.317,0.306 -0.898,2.625 -1.041,3.002c-0.143,0.379 -0.321,1.607 -0.189,2.082c0.128,0.474 -0.449,0.531 -0.615,0.15" style="fill:#483317;fill-rule:nonzero;"/><path d="M136.253,34.551c0,-0.44 0.054,-0.846 0.213,-0.981c0.215,-0.179 0.489,-0.732 0.808,-1.371c0.242,-0.48 0.586,-1.166 0.759,-1.31c0.001,0.011 0.006,0.019 0.006,0.031c0,0.41 -0.646,1.785 -0.869,2.264l-0.225,0.496c-0.112,0.299 -0.244,1.078 -0.244,1.664c0,0.201 0.015,0.377 0.052,0.504c0.008,0.031 0.013,0.062 0.013,0.093c0,0.053 -0.018,0.098 -0.072,0.12c-0.08,0.027 -0.226,-0.012 -0.287,-0.157c-0.061,-0.136 -0.154,-0.773 -0.154,-1.353m1.77,-3.986c-0.249,0.043 -0.496,0.494 -1.003,1.507c-0.264,0.534 -0.567,1.139 -0.736,1.282c-0.524,0.439 -0.263,2.384 -0.14,2.664c0.129,0.293 0.427,0.388 0.645,0.31c0.162,-0.056 0.323,-0.238 0.234,-0.554c-0.12,-0.446 0.056,-1.641 0.189,-1.995c0.001,0 0.216,-0.476 0.216,-0.476c0.738,-1.569 1.062,-2.416 0.789,-2.68c-0.052,-0.051 -0.122,-0.072 -0.194,-0.058" style="fill:#483317;fill-rule:nonzero;"/><path d="M126.495,38.645c0,0 0.456,1.164 -0.601,1.677c-0.813,0.397 -1.956,0.305 -2.037,0.069c-0.082,-0.237 0.105,-0.92 0.702,-1.34c0.447,-0.313 1.625,-0.651 1.936,-0.406" style="fill:#255141;fill-rule:nonzero;"/><path d="M127.162,39.777c-0.302,-0.072 1.517,-0.627 2.137,0.092c0.62,0.721 0.229,1.389 0.229,1.389c0,0 -1.144,0.17 -1.615,-0.317c-0.474,-0.488 -0.519,-1.105 -0.751,-1.164" style="fill:#255141;fill-rule:nonzero;"/><path d="M149.629,21.033c0.683,2.098 0.212,4.221 -0.474,5.873c0.557,0.256 1.882,0.889 1.898,1.119c0.015,0.291 -0.383,0.436 -0.764,0.155c-0.311,-0.227 -0.851,-0.727 -1.271,-0.947c-1.012,2.207 -2.505,4.058 -2.505,4.058c-0.688,1.256 -3.053,-0.398 -2.172,-0.662c2.008,-0.553 4.434,-4.881 4.53,-6.568c0.135,-2.346 -0.391,-3.485 -1.422,-5.192c-1.108,-1.838 -3.014,-2.56 -3.014,-2.56c0,0 -0.836,-1.362 0.649,-1.407c0.637,-0.019 3.112,1.723 4.545,6.131" style="fill:#483317;fill-rule:nonzero;"/><path d="M144.344,15.559c0,-0.086 0.013,-0.166 0.051,-0.235c0.095,-0.175 0.328,-0.267 0.693,-0.279c0.584,-0.016 3.018,1.764 4.405,6.031c0.562,1.725 0.403,3.666 -0.469,5.776l-0.051,0.127l0.124,0.056c1.341,0.619 1.775,0.932 1.818,1.018c-0.001,0.035 -0.027,0.078 -0.079,0.107c-0.097,0.051 -0.277,0.043 -0.463,-0.094l-0.342,-0.273c-0.287,-0.234 -0.646,-0.529 -0.948,-0.687l-0.133,-0.069l-0.061,0.137c-0.993,2.162 -2.473,4.01 -2.489,4.027c-0.253,0.459 -0.709,0.451 -1.05,0.369c-0.57,-0.136 -1.057,-0.55 -1.062,-0.736c0,-0.012 0.005,-0.041 0.093,-0.068c2.106,-0.578 4.537,-5.01 4.633,-6.698c0.015,-0.242 0.02,-0.472 0.02,-0.691c0,-2.002 -0.568,-3.102 -1.462,-4.582c-1.054,-1.746 -2.76,-2.486 -3.031,-2.598c-0.076,-0.132 -0.197,-0.396 -0.197,-0.638m0.734,-0.799c-0.473,0.015 -0.786,0.158 -0.933,0.43c-0.261,0.482 0.153,1.164 0.17,1.193l0.026,0.043l0.046,0.015c0.016,0.006 1.87,0.729 2.94,2.5c0.964,1.596 1.539,2.737 1.402,5.112c-0.089,1.58 -2.458,5.898 -4.426,6.439c-0.277,0.082 -0.3,0.272 -0.299,0.35c0.011,0.394 0.694,0.863 1.279,1.004c0.61,0.148 1.103,-0.03 1.353,-0.487c0.003,0 1.432,-1.789 2.437,-3.919c0.255,0.154 0.538,0.376 0.778,0.574l0.352,0.279c0.254,0.19 0.555,0.232 0.77,0.115c0.139,-0.074 0.222,-0.209 0.222,-0.367c0,-0.008 0,-0.016 -0.001,-0.025c-0.006,-0.108 -0.033,-0.33 -1.86,-1.182c0.511,-1.273 0.773,-2.492 0.773,-3.641c0,-0.765 -0.115,-1.502 -0.342,-2.205c-1.44,-4.427 -3.936,-6.25 -4.687,-6.228" style="fill:#483317;fill-rule:nonzero;"/><path d="M151.112,27.426c0,0 1.608,0.683 2.658,-0.119c0.805,-0.617 0.979,-1.645 0.648,-1.776c-0.332,-0.127 -1.395,-0.129 -2.18,0.291c-0.588,0.317 -1.405,1.266 -1.126,1.604" style="fill:#255141;fill-rule:nonzero;"/><path d="M151.661,28.397c-0.317,-0.147 0.438,1.511 1.741,1.377c1.301,-0.135 1.77,-0.918 1.77,-0.918c0,0 -0.68,-0.907 -1.601,-0.846c-0.921,0.055 -1.667,0.502 -1.91,0.387" style="fill:#255141;fill-rule:nonzero;"/><path d="M150.958,28.762c0,0 0.919,1.531 -0.378,2.324c-0.801,0.488 -1.734,0.596 -1.856,0.361c-0.123,-0.238 0.674,-1.787 1.037,-2.152c0.364,-0.371 0.834,-0.525 1.197,-0.533" style="fill:#255141;fill-rule:nonzero;"/><path d="M151.078,17.695c0,0 1.994,0.42 1.955,1.586c-0.029,0.897 -0.863,1.686 -1.201,1.573c-0.341,-0.112 -1.053,-0.748 -1.189,-1.502c-0.102,-0.565 0.251,-1.473 0.435,-1.657" style="fill:#255141;fill-rule:nonzero;"/><path d="M150.897,12.172c0,0 -1.241,0.615 -1.157,1.781c0.065,0.897 0.927,1.69 1.262,1.578c0.334,-0.113 0.872,-0.828 0.811,-1.588c-0.101,-1.232 -0.727,-1.587 -0.916,-1.771" style="fill:#255141;fill-rule:nonzero;"/><path d="M147.504,14.465c0,0 -0.029,0.912 0.954,1.391c0.757,0.371 1.767,0.283 1.818,0.062c0.053,-0.223 -0.299,-0.822 -0.942,-1.129c-1.048,-0.504 -1.599,-0.34 -1.83,-0.324" style="fill:#255141;fill-rule:nonzero;"/><path d="M155.976,14.791c-0.349,-0.09 1.684,-0.746 2.43,0.127c0.743,0.873 0.336,1.676 0.336,1.676c0,0 -1.289,0.199 -1.851,-0.397c-0.563,-0.591 -0.648,-1.338 -0.915,-1.406" style="fill:#255141;fill-rule:nonzero;"/><path d="M154.768,18.41c0,0 2.026,-0.47 1.89,-1.779c-0.084,-0.809 -1.221,-1.42 -1.221,-1.42c-0.299,0.084 -0.881,1.66 -0.977,2.121c-0.097,0.467 0.073,0.85 0.308,1.078" style="fill:#255141;fill-rule:nonzero;"/><path d="M155.483,14.664c-0.512,-0.178 -1.132,-0.5 -1.03,-1.465c0.071,-0.689 0.792,-1.683 1.148,-1.652c0.559,0.051 1.144,1.256 0.896,1.982c-0.167,0.493 -1.014,1.135 -1.014,1.135" style="fill:#255141;fill-rule:nonzero;"/><path d="M149.165,17.387c0.13,-0.27 3.33,-2.59 3.974,-2.625c0.64,-0.031 1.786,-0.266 1.771,0.16c-0.017,0.43 -1.619,0.418 -2.034,0.635c-0.418,0.215 -2.745,2.25 -2.969,2.918c-0.28,0.828 -0.933,-0.692 -0.742,-1.088" style="fill:#483317;fill-rule:nonzero;"/><path d="M153.145,14.906l0.474,-0.043c0.399,-0.041 1.005,-0.103 1.137,0.02c0.006,0.185 -0.757,0.303 -1.083,0.351c-0.369,0.057 -0.688,0.104 -0.864,0.196c-0.416,0.217 -2.791,2.271 -3.037,3c-0.044,0.127 -0.081,0.148 -0.082,0.148c-0.008,-0.004 -0.085,-0.045 -0.186,-0.22c-0.148,-0.258 -0.233,-0.588 -0.233,-0.784c0,-0.052 0.007,-0.095 0.023,-0.125c0.208,-0.324 3.306,-2.517 3.851,-2.543m0.447,-0.326l-0.463,0.039c-0.671,0.037 -3.931,2.367 -4.093,2.705l-0.002,0c-0.149,0.317 0.084,1.004 0.313,1.313c0.128,0.168 0.258,0.24 0.392,0.221c0.134,-0.022 0.235,-0.135 0.302,-0.336c0.21,-0.622 2.48,-2.622 2.9,-2.84c0.135,-0.069 0.461,-0.117 0.774,-0.168c0.679,-0.104 1.323,-0.199 1.337,-0.586l-0.103,-0.252c-0.21,-0.197 -0.674,-0.166 -1.357,-0.096" style="fill:#483317;fill-rule:nonzero;"/><path d="M23.911,7.82c-0.04,0.036 -0.104,0.094 -0.104,0.325c0,0.238 0.079,0.677 0.328,1.464c-1.886,0.854 -4.402,2.022 -5.402,4.178c-0.061,0.127 -0.083,0.238 -0.083,0.334c0,0.129 0.04,0.229 0.089,0.301c0.304,0.463 1.301,0.451 1.413,0.449l0.112,-0.002l0.016,-0.09l0.06,-0.281c0.067,-0.445 0.191,-1.275 1.721,-2.473c1.52,-1.187 6.107,-2.701 6.917,-2.71c0.273,-0.004 0.478,-0.118 0.561,-0.311c0.086,-0.193 0.036,-0.428 -0.128,-0.611c-0.261,-0.291 -0.714,-0.375 -1.214,-0.221c-0.005,0 -1.516,0.355 -3.379,1.141c-0.013,-0.102 -0.029,-0.2 -0.029,-0.315c0,-0.142 0.005,-0.289 0.011,-0.42l0.008,-0.392c-0.006,-0.227 -0.117,-0.401 -0.302,-0.481c-0.194,-0.082 -0.426,-0.037 -0.595,0.115" style="fill:#483317;fill-rule:nonzero;"/><path d="M23.434,8.336c0,0 -0.49,-1.299 -1.917,-1.228c-1.097,0.048 -2.128,0.718 -2.018,0.976c0.112,0.26 0.834,0.789 1.746,0.867c0.678,0.061 2.081,-0.23 2.189,-0.615" style="fill:#255141;fill-rule:nonzero;"/><path d="M23.925,7.35c0.084,0.263 1.042,-1.325 0.032,-1.871c-1.007,-0.549 -2.021,-0.207 -2.021,-0.207c0,0 -0.34,1.002 0.339,1.416c0.678,0.414 1.583,0.459 1.65,0.662" style="fill:#255141;fill-rule:nonzero;"/><path d="M24.726,7.43c0,0 0.732,-1.576 2.318,-1.514c0.983,0.035 1.715,0.422 1.59,0.652c-0.128,0.237 -2.045,0.979 -2.622,1.069c-0.575,0.09 -1.031,-0.031 -1.286,-0.207" style="fill:#255141;fill-rule:nonzero;"/><path d="M18.382,13.537c0,0 -1.363,1.258 -2.591,0.774c-0.945,-0.37 -1.405,-1.27 -1.128,-1.469c0.275,-0.197 1.282,-0.459 2.153,-0.26c0.648,0.149 1.455,0.754 1.566,0.955" style="fill:#255141;fill-rule:nonzero;"/><path d="M20.904,16.318c0,0 -0.665,-0.951 -2.095,-0.875c-1.097,0.057 -2.122,0.729 -2.009,0.987c0.114,0.258 0.953,0.67 1.882,0.611c1.511,-0.088 1.982,-0.574 2.222,-0.723" style="fill:#255141;fill-rule:nonzero;"/><path d="M20.718,17.275c0,0 -1.117,0.122 -1.622,0.946c-0.389,0.633 -0.201,1.387 0.076,1.39c0.274,0.006 0.976,-0.357 1.3,-0.894c0.527,-0.877 0.284,-1.27 0.246,-1.442" style="fill:#255141;fill-rule:nonzero;"/><path d="M14.434,19.076c0.146,-0.422 0.453,-0.955 1.636,-1.082c0.85,-0.092 2.154,0.242 2.163,0.516c0.016,0.43 -1.368,1.121 -2.283,1.088c-0.623,-0.02 -1.516,-0.522 -1.516,-0.522" style="fill:#255141;fill-rule:nonzero;"/><path d="M23.345,11.641c-0.173,0.033 -0.361,0.189 -0.317,0.517c0.061,0.459 -0.28,1.621 -0.461,1.957l-0.277,0.44c-0.95,1.47 -1.388,2.271 -1.152,2.564c0.045,0.057 0.11,0.088 0.183,0.086c0.249,-0.012 0.558,-0.426 1.2,-1.371c0.339,-0.496 0.721,-1.06 0.91,-1.184c0.577,-0.367 0.586,-2.332 0.505,-2.623c-0.087,-0.302 -0.37,-0.435 -0.591,-0.386" style="fill:#483317;fill-rule:nonzero;"/><path d="M19.95,34.428c-0.208,0.045 -0.894,0.222 -0.995,0.539c-0.005,0.021 -0.014,0.051 -0.014,0.086c0,0.062 0.022,0.14 0.094,0.219c1.488,1.636 3.024,2.75 5.101,3.703c-0.25,0.787 -0.329,1.228 -0.329,1.47c0,0.229 0.064,0.288 0.105,0.325c0.166,0.15 0.4,0.195 0.594,0.113c0.184,-0.078 0.296,-0.258 0.302,-0.481l-0.008,-0.392c-0.006,-0.131 -0.011,-0.279 -0.011,-0.418c0,-0.117 0.016,-0.215 0.029,-0.317c1.863,0.784 3.375,1.139 3.389,1.143c0.585,0.182 1.112,-0.16 1.385,-0.508c0.263,-0.338 0.34,-0.715 0.191,-0.959c-0.092,-0.154 -0.307,-0.318 -0.803,-0.228c-0.757,0.138 -5.383,-0.961 -6.919,-2.158c-1.704,-1.338 -1.813,-1.659 -1.91,-1.944l-0.08,-0.224l-0.121,0.031Z" style="fill:#483317;fill-rule:nonzero;"/><path d="M23.434,40.252c0,0 -0.49,1.301 -1.917,1.231c-1.097,-0.051 -2.128,-0.721 -2.018,-0.977c0.112,-0.26 0.834,-0.789 1.746,-0.869c0.678,-0.061 2.081,0.23 2.189,0.615" style="fill:#255141;fill-rule:nonzero;"/><path d="M23.925,41.238c0.084,-0.265 1.042,1.325 0.032,1.873c-1.007,0.547 -2.021,0.205 -2.021,0.205c0,0 -0.34,-1 0.339,-1.416c0.678,-0.414 1.583,-0.459 1.65,-0.662" style="fill:#255141;fill-rule:nonzero;"/><path d="M24.726,41.158c0,0 0.732,1.576 2.318,1.516c0.983,-0.039 1.715,-0.422 1.59,-0.654c-0.128,-0.237 -2.045,-0.977 -2.622,-1.067c-0.575,-0.092 -1.031,0.03 -1.286,0.205" style="fill:#255141;fill-rule:nonzero;"/><path d="M18.382,35.051c0,0 -1.363,-1.258 -2.591,-0.776c-0.945,0.372 -1.405,1.274 -1.128,1.469c0.275,0.199 1.282,0.461 2.153,0.262c0.648,-0.147 1.455,-0.754 1.566,-0.955" style="fill:#255141;fill-rule:nonzero;"/><path d="M20.904,32.27c0,0 -0.665,0.953 -2.095,0.877c-1.097,-0.059 -2.122,-0.733 -2.009,-0.989c0.114,-0.258 0.953,-0.668 1.882,-0.613c1.511,0.09 1.982,0.576 2.222,0.725" style="fill:#255141;fill-rule:nonzero;"/><path d="M20.718,31.313c0,0 -1.117,-0.12 -1.622,-0.944c-0.389,-0.635 -0.201,-1.388 0.076,-1.394c0.274,-0.004 0.976,0.361 1.3,0.896c0.527,0.875 0.284,1.268 0.246,1.442" style="fill:#255141;fill-rule:nonzero;"/><path d="M14.434,29.514c0.146,0.42 0.453,0.953 1.636,1.078c0.85,0.094 2.154,-0.24 2.163,-0.516c0.016,-0.426 -1.368,-1.121 -2.283,-1.088c-0.623,0.022 -1.516,0.526 -1.516,0.526" style="fill:#255141;fill-rule:nonzero;"/><path d="M21.215,31.149c-0.272,0.259 0.069,1.142 0.791,2.679l0.214,0.473c0.133,0.353 0.309,1.549 0.185,1.994c-0.086,0.318 0.075,0.498 0.238,0.557c0.218,0.076 0.516,-0.02 0.644,-0.311c0.066,-0.154 0.176,-0.801 0.176,-1.43c0,-0.523 -0.077,-1.035 -0.314,-1.236c-0.171,-0.141 -0.472,-0.748 -0.739,-1.281c-0.506,-1.014 -0.753,-1.463 -0.999,-1.506c-0.075,-0.014 -0.144,0.008 -0.196,0.061" style="fill:#483317;fill-rule:nonzero;"/><path d="M9.667,21.512c-0.228,0.701 -0.342,1.437 -0.342,2.203c0,1.15 0.262,2.367 0.774,3.641c-1.829,0.851 -1.855,1.076 -1.862,1.183l0,0.024c0,0.158 0.082,0.293 0.223,0.369c0.219,0.117 0.512,0.074 0.766,-0.114l0.352,-0.279c0.241,-0.197 0.526,-0.422 0.781,-0.576c1.006,2.131 2.437,3.922 2.45,3.941c0.237,0.436 0.729,0.614 1.34,0.465c0.584,-0.14 1.269,-0.611 1.279,-1.002c0.002,-0.08 -0.023,-0.271 -0.295,-0.351c-1.972,-0.543 -4.342,-4.86 -4.43,-6.442c-0.138,-2.375 0.438,-3.513 1.399,-5.111c1.074,-1.77 2.927,-2.492 2.944,-2.5l0.045,-0.018l0.025,-0.041c0.02,-0.027 0.431,-0.709 0.17,-1.193c-0.145,-0.27 -0.458,-0.412 -0.933,-0.428c-0.751,-0.021 -3.247,1.799 -4.686,6.229" style="fill:#483317;fill-rule:nonzero;"/><path d="M8.319,27.947c0,0 -1.607,0.686 -2.657,-0.119c-0.807,-0.617 -0.977,-1.642 -0.647,-1.773c0.331,-0.127 1.394,-0.129 2.179,0.291c0.587,0.314 1.405,1.267 1.125,1.601" style="fill:#255141;fill-rule:nonzero;"/><path d="M7.771,28.922c0.318,-0.148 -0.437,1.51 -1.74,1.375c-1.303,-0.137 -1.77,-0.918 -1.77,-0.918c0,0 0.679,-0.906 1.599,-0.848c0.921,0.057 1.667,0.502 1.911,0.391" style="fill:#255141;fill-rule:nonzero;"/><path d="M8.474,29.283c0,0 -0.92,1.532 0.377,2.325c0.801,0.488 1.736,0.597 1.857,0.361c0.122,-0.235 -0.674,-1.787 -1.035,-2.153c-0.365,-0.371 -0.835,-0.521 -1.199,-0.533" style="fill:#255141;fill-rule:nonzero;"/><path d="M8.353,18.217c0,0 -1.993,0.42 -1.954,1.586c0.03,0.896 0.864,1.687 1.202,1.572c0.339,-0.111 1.053,-0.748 1.188,-1.502c0.103,-0.564 -0.252,-1.473 -0.436,-1.656" style="fill:#255141;fill-rule:nonzero;"/><path d="M8.534,12.693c0,0 1.242,0.614 1.157,1.782c-0.064,0.896 -0.926,1.689 -1.26,1.578c-0.334,-0.112 -0.872,-0.828 -0.812,-1.586c0.101,-1.234 0.728,-1.586 0.915,-1.774" style="fill:#255141;fill-rule:nonzero;"/><path d="M11.929,14.986c0,0 0.028,0.914 -0.954,1.395c-0.756,0.367 -1.768,0.283 -1.819,0.059c-0.055,-0.221 0.298,-0.821 0.943,-1.129c1.047,-0.5 1.597,-0.338 1.83,-0.325" style="fill:#255141;fill-rule:nonzero;"/><path d="M3.458,15.313c0.348,-0.09 -1.687,-0.745 -2.433,0.128c-0.743,0.874 -0.335,1.676 -0.335,1.676c0,0 1.29,0.198 1.851,-0.394c0.562,-0.594 0.648,-1.34 0.917,-1.41" style="fill:#255141;fill-rule:nonzero;"/><path d="M4.664,18.932c0,0 -2.024,-0.471 -1.89,-1.778c0.083,-0.81 1.22,-1.42 1.22,-1.42c0.3,0.086 0.883,1.661 0.981,2.124c0.093,0.462 -0.077,0.847 -0.311,1.074" style="fill:#255141;fill-rule:nonzero;"/><path d="M3.949,15.186c0.513,-0.176 1.133,-0.498 1.03,-1.463c-0.071,-0.69 -0.793,-1.682 -1.148,-1.651c-0.559,0.049 -1.145,1.252 -0.897,1.981c0.167,0.492 1.015,1.133 1.015,1.133" style="fill:#255141;fill-rule:nonzero;"/><path d="M4.482,15.197l-0.102,0.254c0.015,0.387 0.657,0.483 1.337,0.586c0.314,0.049 0.638,0.1 0.774,0.17c0.42,0.219 2.691,2.217 2.9,2.836c0.067,0.201 0.17,0.315 0.302,0.338c0.134,0.021 0.265,-0.055 0.392,-0.221c0.229,-0.308 0.462,-0.994 0.31,-1.314c-0.162,-0.338 -3.421,-2.666 -4.092,-2.701l-0.463,-0.043c-0.683,-0.069 -1.147,-0.098 -1.358,0.095" style="fill:#483317;fill-rule:nonzero;"/><path d="M55.827,1.539c-0.469,0.063 -0.796,0.492 -0.733,0.959c0.064,0.467 0.495,0.797 0.961,0.733c7.504,-1.012 15.429,-1.526 23.557,-1.526c7.948,0 15.713,0.492 23.08,1.461c0.466,0.061 0.896,-0.267 0.956,-0.736c0.063,-0.467 -0.266,-0.897 -0.735,-0.955c-7.437,-0.979 -15.276,-1.475 -23.301,-1.475c-8.203,0 -16.208,0.518 -23.785,1.539" style="fill:#483317;fill-rule:nonzero;"/><path d="M55.288,44.738c-0.063,0.469 0.265,0.897 0.73,0.959c7.583,1.024 15.584,1.541 23.789,1.541c8.019,0 15.86,-0.498 23.3,-1.476c0.468,-0.061 0.796,-0.49 0.735,-0.957c-0.061,-0.467 -0.491,-0.795 -0.956,-0.735c-7.368,0.971 -15.133,1.461 -23.079,1.461c-8.128,0 -16.056,-0.513 -23.559,-1.525c-0.468,-0.063 -0.897,0.266 -0.96,0.732" style="fill:#483317;fill-rule:nonzero;"/><path d="M45.977,3.365c-2.842,0.571 -5.592,1.239 -8.171,1.979c-0.453,0.131 -0.715,0.605 -0.583,1.056c0.13,0.454 0.602,0.715 1.056,0.584c2.532,-0.728 5.238,-1.386 8.036,-1.947c0.46,-0.092 0.761,-0.543 0.666,-1.004c-0.092,-0.461 -0.543,-0.761 -1.004,-0.668" style="fill:#483317;fill-rule:nonzero;"/><path d="M37.397,40.836c-0.129,0.453 0.131,0.926 0.584,1.055c2.573,0.742 5.322,1.408 8.171,1.98c0.461,0.094 0.912,-0.207 1.006,-0.666c0.093,-0.463 -0.208,-0.914 -0.669,-1.006c-2.805,-0.564 -5.507,-1.216 -8.035,-1.947c-0.453,-0.131 -0.926,0.129 -1.057,0.584" style="fill:#483317;fill-rule:nonzero;"/><path d="M112.575,4.033c-0.093,0.461 0.206,0.912 0.669,1.004c2.799,0.563 5.5,1.219 8.033,1.947c0.453,0.131 0.926,-0.13 1.058,-0.584c0.131,-0.451 -0.132,-0.925 -0.583,-1.056c-2.579,-0.74 -5.328,-1.408 -8.171,-1.979c-0.464,-0.093 -0.912,0.207 -1.006,0.668" style="fill:#483317;fill-rule:nonzero;"/><path d="M121.104,40.252c-2.528,0.729 -5.231,1.383 -8.035,1.947c-0.462,0.092 -0.76,0.543 -0.669,1.006c0.094,0.461 0.542,0.76 1.005,0.666c2.851,-0.572 5.599,-1.238 8.172,-1.98c0.451,-0.129 0.713,-0.602 0.582,-1.055c-0.131,-0.455 -0.602,-0.715 -1.055,-0.584" style="fill:#483317;fill-rule:nonzero;"/></svg>