<?xml version="1.0" encoding="UTF-8" standalone="no"?>
<svg width="100%" height="100%" viewBox="0 0 92 92" version="1.1" xmlns="http://www.w3.org/2000/svg">
  <path d="M91.271,77.012c0,7.875 -6.383,14.258 -14.258,14.258l-62.754,0c-7.871,0 -14.258,-6.383 -14.258,-14.258l0,-62.75c0,-7.875 6.387,-14.262 14.258,-14.262l62.754,0c7.875,0 14.258,6.387 14.258,14.262l0,62.75Z" />
  <path d="M55.692,29.249c0,0 7.45,-8.567 18.433,-10.05l-0,2.233l2.425,-0.375c0,0 1.3,10.983 -2.608,20.3" style="fill:#fff;" />
  <path d="M35.58,29.249c0,0 -7.446,-8.567 -18.433,-10.05l0,2.233l-2.421,-0.375c0,0 -1.304,10.983 2.604,20.3" style="fill:#fff;" />
  <path d="M45.638,72.076c-22.721,0 -32.775,-11.354 -32.775,-11.354l1.679,-1.117l-2.054,-1.675c0.375,-12.288 7.825,-21.417 7.825,-21.417c0,0 8.567,-9.125 25.325,-9.125c16.754,0 25.325,9.125 25.325,9.125c0,0 7.45,9.129 7.821,21.417l-2.05,1.675l1.679,1.117c0,0 -10.058,11.354 -32.775,11.354" style="fill:#fff;" />
  <path d="M34.232,52.467c0,1.404 -1.137,2.542 -2.542,2.542c-1.408,0 -2.542,-1.138 -2.542,-2.542c0,-1.404 1.133,-2.542 2.542,-2.542c1.404,0 2.542,1.138 2.542,2.542" />
  <path d="M62.122,52.467c0,1.404 -1.133,2.542 -2.542,2.542c-1.408,0 -2.542,-1.138 -2.542,-2.542c0,-1.404 1.133,-2.542 2.542,-2.542c1.408,0 2.542,1.138 2.542,2.542" />
  <path d="M67.46,36.32l-5.604,-5.017c0,0 3.396,-3.833 8.262,-4.942l-4.208,5.087l4.062,0.15l-3.25,2.062l0.737,2.658Z" />
  <path d="M23.81,36.32l5.604,-5.017c0,0 -3.396,-3.833 -8.258,-4.942l4.204,5.087l-4.058,0.15l3.246,2.062l-0.738,2.658Z" />
</svg>
