<?xml version="1.0" encoding="UTF-8" standalone="no"?>
<svg width="100%" height="100%" viewBox="0 0 115 115" version="1.1" xmlns="http://www.w3.org/2000/svg">
  <!-- BG -->
  <rect x="0" y="0" width="100%" height="100%" />
  <path d="M63.225,19.603c0,0 0.125,6.958 7.742,11.996l2.642,-2.35c0,0 -7.246,-4.742 -7.583,-12.083l-2.8,2.438Z" style="fill:#fff;" />
  <path d="M59.262,22.203c0,0 -0.738,6.7 7.742,11.996l2.642,-1.525c0,0 -7.15,-3.663 -7.583,-12.088l-2.8,1.617Z" style="fill:#fff;" />
  <path d="M74.205,56.637c-0.188,-9.562 -6.883,-15.683 -6.692,-18.367c0.192,-2.675 -3.829,-3.817 -3.829,-3.817c-2.867,-3.829 -6.117,-7.463 -6.117,-7.463c0.958,-3.062 -0.383,-4.4 -0.383,-4.4c0,0 -7.075,-0.571 -16.067,7.271c-8.992,7.837 -16.067,18.171 -18.171,30.217c-2.104,12.05 -3.825,29.842 7.458,38.446c11.283,8.608 29.267,1.529 33.092,1.529c3.825,0 17.025,4.4 22.571,-1.146c0,0 11.283,-4.592 4.779,-22.763c-6.5,-18.171 -16.642,-19.508 -16.642,-19.508" style="fill:#fff;" />
  <path d="M45.322,104.075c0,0 -5.929,-3.062 -8.604,-12.625c-2.679,-9.562 -4.592,-31.558 0.571,-42.654c5.163,-11.096 17.217,-20.658 20.658,-22.571l0.958,1.342c2.417,-0.858 -6.888,5.146 -10.908,9.562c-7.646,8.413 -11.317,16.829 -11.475,29.454c-0.379,31.179 10.904,37.679 10.904,37.679l-2.104,-0.188Z" />
  <path d="M51.062,67.924l1.721,-0.192c0,0 3.825,20.467 22.379,20.271c0,0 11.288,-0.758 7.842,-11.475l1.146,0c0,0 4.787,9.371 -4.588,12.433c-9.371,3.062 -18.171,-0.692 -23.717,-9.375c-4.4,-6.879 -4.783,-11.662 -4.783,-11.662" />
  <path d="M67.512,15.894c0.308,5.542 2.104,5.55 2.871,5.929c0.763,0.388 0.958,3.638 4.592,6.508c0,0 2.487,1.912 8.029,0.954l-0.188,-1.721c0,0 -2.267,0.308 -2.679,-4.208c-0.383,-4.208 -3.638,-4.783 -4.017,-9.758c-0.5,-6.479 7.787,3.996 6.696,7.458c-1.15,3.637 1.333,5.358 1.333,5.358l0.383,2.3c0,0 1.917,0.188 0.962,-6.125c-0.962,-6.308 -5.358,-13.008 -9.183,-12.621c-3.825,0.379 -8.987,2.483 -8.8,5.925" style="fill:#fff;" />
  <path d="M72.035,32.319l1.875,-1.404c0,0 27.417,26.013 15.467,36.792l-1.171,-2.342c0,0 4.688,-4.225 -2.342,-16.408c-6.117,-10.6 -13.829,-16.638 -13.829,-16.638" style="fill:#fff;" />
  <path d="M71.648,33.725l2.575,2.579c0,0 4.608,16.483 9.296,23.746l-4.687,-4.058c0,0 -6.329,-14.762 -7.183,-22.267" style="fill:#fff;" />
</svg>
