<?xml version="1.0" encoding="UTF-8" standalone="no"?>
<svg width="100%" height="100%" viewBox="0 0 95 95" version="1.1" xmlns="http://www.w3.org/2000/svg">
  <path d="M94.196,79.483c0,8.129 -6.579,14.721 -14.717,14.721l-64.763,0c-8.129,0 -14.717,-6.592 -14.717,-14.721l0,-64.763c0,-8.125 6.588,-14.721 14.717,-14.721l64.763,0c8.138,0 14.717,6.596 14.717,14.721l0,64.763Z" />
  <path d="M14.36,12.07l3.413,4.875l6.367,39.4l-3.033,0.617l-7.933,-38.833l1.188,-6.058Z" style="fill:#fff;" />
  <path d="M25.662,54.34l0.663,3.254l-6.513,1.333l-0.567,-2.792c0,0 -3.117,1.354 -2.546,4.154c0.808,3.95 14.112,1.479 13.254,-2.712c-0.571,-2.792 -4.292,-3.238 -4.292,-3.238" style="fill:#fff;" />
  <path d="M22.627,63.797l1.362,6.632l2.955,-0.607l-1.362,-6.632l-2.955,0.607Z" style="fill:#fff;" />
  <path d="M49.284,16.755l0,1.95c0,0 2.829,-1.767 7.604,-1.767c4.783,0 7.258,1.238 7.258,1.238l0,-1.771c0,0 -3.533,-1.6 -7.429,-1.6c-3.896,0 -7.433,1.95 -7.433,1.95" />
  <path d="M51.067,16.349l4.471,-7.462c0,0 5.692,-0.346 8.608,2.229l-0.092,9.242c0,0 -6.312,2.212 -12.987,-4.008" style="fill:#fff;" />
  <path d="M49.134,17.493c0,0 6.129,6.679 15.4,5.129c0,0 9.737,4.083 9.346,5.238c-0.383,1.154 -11.708,2.258 -20.771,-1.562c-9.071,-3.821 -16.196,-9.413 -15.633,-10.5c0.558,-1.088 11.658,1.696 11.658,1.696" style="fill:#fff;" />
  <path d="M46.197,40.653c0,0 -3.15,-4.062 -6.717,-3.85c0,0 3.008,-5.779 12.517,-3.875c9.521,1.896 5.738,-5.263 14.604,0.921l-4.783,6.296c0,0 29.483,14.967 21.221,43.779c0,0 -7.525,-5.404 -15.983,-0.871c-8.458,4.525 -18.717,5.129 -30.192,0.221c0,0 -2.325,-1.429 -5.092,0.967c0,0 -0.983,-13.967 9.604,-26.742c8.763,-10.592 4.821,-16.846 4.821,-16.846" style="fill:#fff;" />
  <path d="M70.626,52.981c4.025,6.104 9.383,18.1 3.129,31.108c-0.304,0.642 -4.25,1.838 -4.25,1.838c0,0 10.054,-11.796 -1.333,-33.758c-3.862,-7.45 2.454,0.813 2.454,0.813" />
  <path d="M63.381,39.004c0,0 -1.983,-1.987 -4.438,-1.092c-2.454,0.896 -3.521,0.896 -5.533,1.342c-2.004,0.45 -2.312,2.458 -2.312,2.458c0,0 4.487,-1.525 6.504,-1.625c3.683,-0.163 6.45,0.425 8.463,2.067l-2.683,-3.15Z" />
</svg>
