<?xml version="1.0" encoding="UTF-8"?>
<svg xmlns="http://www.w3.org/2000/svg" viewBox="0 0 28.35 28.35">

  <g fill="var(--ryuutama-color-statuses-mind, #0089bd)">
    <!-- BG -->
    <rect rx="20%" x="0" y="0" width="100%" height="100%" />

    <!-- PERSON -->
    <g fill="#fff">
      <path d="M16.54,5.91c0,.93-.75,1.68-1.68,1.68s-1.68-.75-1.68-1.68.75-1.68,1.68-1.68,1.68.75,1.68,1.68Z"/>
      <path d="M15.26,16.8c0,.52-.42.94-.94.94h0c-.52,0-.94-.42-.94-.94v-6.28c0-.52.42-.94.94-.94h0c.52,0,.94.42.94.94v6.28Z"/>
      <path d="M17.85,19.58c-.04.52-.49.91-1,.87h0c-.52-.04-.91-.49-.87-1.01l.44-6.27c.04-.52.49-.91,1.01-.87h0c.52.04.91.49.87,1l-.44,6.27Z"/>
      <path d="M18.58,24.2c.08.51-.28,1-.79,1.07h0c-.52.08-1-.27-1.08-.79,0,0-.78-3.79-.74-4.82.03-.72.29-1.05.81-1.13h0c.51-.08.99.27,1.07.79l.72,4.87Z"/>
      <path d="M21.34,18.77c.14.5-.16,1.02-.66,1.16h0c-.5.13-.88.08-1.16-.66l-1.64-6.06c-.14-.5.16-1.02.66-1.16h0c.5-.14,1.02.16,1.15.66l1.65,6.06Z"/>
      <path d="M24.15,22.52c.31.42.22,1.01-.2,1.32h0c-.42.31-1.01.22-1.32-.2l-2.91-3.97c-.31-.42-.22-1.01.2-1.32h0c.42-.31,1.01-.22,1.32.2l2.91,3.97Z"/>
      <path d="M15.28,6.42s4.06-.23,4.06,3.25c0,2.88-.6,3.15-.6,3.15l.71,3.99-2.42.5-.67-3.69s-.27-3.19-1.24-2.48c-.97.7-1.74-.23-1.74-.23,0,0-.04-2.46.74-3.66.44-.67,1.17-.84,1.17-.84Z"/>
      <path d="M19.31,16.53c0,.52-.42.94-.94.94h0c-.52,0-.94-.42-.94-.94v-7.09c0-.52.42-.94.94-.94h0c.52,0,.94.42.94.94v7.09Z"/>
      <path d="M19.6,9.23l.03,7.39c0,.66-.54.97-1.06.97,0,0-.83-.18-.83-.92v-5.96"/>

      <!-- BREATH -->
      <path d="M12.31,8.29l-2.44,1.24s-.74-.85-1.33.08c0,0-.92-.27-.92.74,0,0-1,.81.18,1.09,0,0,.44.85,1.07-.04,0,0,1.29-.08.92-.89l2.51-2.21Z"/>

      <!-- ARROW -->
      <path d="M6.73,17.18c-1.1,0-2,.9-2,2v3.87h1v-3.87c0-.55.45-1,1-1h3.87v-1h-3.87Z"/>
      <polygon points="6.57 22.27 5.26 24.55 3.94 22.27 6.57 22.27"/>
    </g>

    <path d="M19.33,9.23l.03,7.39c0,.55-.49.7-.79.7,0,0-.56-.15-.56-.66v-5.96h-.54v5.96c0,.76.68,1.11,1.04,1.19.71,0,1.38-.42,1.38-1.23,0,0-.03-7.39-.03-7.39h-.54Z"/>
  </g>

</svg>
