<?xml version="1.0" encoding="UTF-8"?>
<svg xmlns="http://www.w3.org/2000/svg" xmlns:xlink="http://www.w3.org/1999/xlink" viewBox="0 0 28.35 28.35">
  <defs>
    <style>
      .cls-bg {
        fill: #b8006d;
      }

      .cls-subject {
        fill: #fff;
      }
    </style>
    <mask id="maskpath">
      <path class="cls-subject" d="M28.11,1.04c-1.46-.26-2.2.34-3.69.75-1.77.5-4.11,4.88-5.11,6.41-1.44,2.18-2.74,4.5-4.04,6.75-.69,1.19-.83,1.98-2.14,2.75.09,0-1.12.46-1.13.38-1.75-.34-2.92-.18-4.37-.41-1.04-.16-2.08-.28-2.83-.62-.85-.39-1.73-.18-1.01.91.4.6.92.64,1.43.91.55.29.3.54.57,1.06.27.53,1.04,1.25,2.08,1.25,1.34,0,2.3.26,2.83.66.56.42.98.93,1.16,1.25.65,1.19,1.77,1.39,2.53,1.28,1.13-.17,1.52-1.38,1.84-2.91.58-2.82,2.79-5.2,4.88-7.22,1.64-1.59,5.03-6.66,7.25-6.4" />
      <rect x="20.61" y="7.3" width=".37" height="6.55" transform="translate(-2.19 14.55) rotate(-36.77)"/>
      <rect x="19.42" y="9.89" width=".37" height="6.12" transform="translate(-3.33 18.06) rotate(-46)"/>
      <polygon points="16.89 10.55 20.34 16.3 20.65 16.11 17.2 10.36 16.89 10.55"/>
      <polygon points="15.82 12.29 18.55 17.17 18.87 16.99 16.14 12.11 15.82 12.29"/>
      <polygon points="14.33 14.73 18.85 17.73 19.05 17.42 14.53 14.42 14.33 14.73"/>
      <rect x="15.38" y="14" width=".37" height="5.77" transform="translate(-7.01 12.65) rotate(-36.71)" />
      <polygon points="12.66 17.74 16.71 20.48 16.91 20.18 12.86 17.44 12.66 17.74"/>
      <polygon points="19.42 7.34 24.18 11.47 24.42 11.19 19.66 7.06 19.42 7.34"/>
      <rect x="22.93" y="3.89" width=".37" height="6.75" transform="translate(-.58 12.34) rotate(-29.55)"/>
    </mask>
  </defs>

  <rect class="cls-bg" rx="5" x="0" y="0" width="100%" height="100%" />
  <rect class="cls-subject" rx="5" x="0" y="0" width="100%" height="100%" mask="url(#maskpath)" />
</svg>
