<?xml version="1.0" encoding="UTF-8"?>
<svg xmlns="http://www.w3.org/2000/svg" viewBox="0 0 28.35 28.35">

  <g fill="var(--ryuutama-color-statuses-mind, #0089bd)">
    <!-- BG -->
    <rect rx="20%" x="0" y="0" width="100%" height="100%" />

    <g fill="#fff">
      <!-- ARROW -->
      <path d="M23.14,5.39v3.88c0,.55-.45,1-1,1h-3.87v1h3.87c1.1,0,2-.9,2-2v-3.88h-1Z"/>
      <polygon points="22.31 6.17 23.62 3.9 24.94 6.17 22.31 6.17"/>

      <!-- PERSON -->
      <path d="M11.66,10.35c-.07.78-.76,1.36-1.54,1.29-.78-.07-1.36-.76-1.29-1.54.07-.78.76-1.36,1.54-1.29.78.07,1.36.76,1.29,1.54"/>
      <path d="M6.69,13.05c.02.44-.32.81-.76.84-.44.02-.81-.32-.84-.76l-.28-4.01c-.02-.44.32-.81.76-.84.44-.02.81.32.84.76l.28,4.01Z"/>
      <path d="M6,13.92c-.44.02-.81-.32-.84-.76-.02-.44.32-.82.76-.84l8.93-.66c.44-.02.81.32.84.76.02.44-.32.81-.76.84l-8.94.66Z"/>
      <path d="M15.86,12.37c.02.44-.32.81-.76.84-.44.02-.81-.32-.84-.76l-.1-4.06c-.02-.44.32-.82.76-.84.44-.02.81.32.84.76l.1,4.06Z"/>
      <path d="M15.22,24.92c-.04.44-.43.76-.87.71-.44-.04-.76-.44-.71-.87l.52-4.03c.04-.44.44-.76.87-.71.44.04.76.44.71.87l-.52,4.03Z"/>
      <path d="M10.94,19.72c-.4-.19-.57-.66-.39-1.06.18-.4.66-.58,1.06-.39l3.64,1.8c.4.19.57.66.39,1.06-.18.4-.66.57-1.06.39l-3.64-1.8Z"/>
      <path d="M3.77,22.92c-.43-.08-.72-.5-.64-.93.08-.44.5-.72.93-.64l3.97.85c.43.08.72.5.64.93-.08.43-.5.72-.93.64l-3.97-.85Z"/>
      <path d="M9.3,19.08c.22-.38.7-.52,1.09-.3.38.22.52.7.3,1.09l-2.1,3.48c-.22.38-.71.52-1.09.3-.38-.22-.52-.7-.3-1.09l2.1-3.48Z"/>
      <path d="M12.85,19.12c.03.73-.38.8-1.08.83l-1.64.08c-.7.03-1.22,1.64-1.29.25l-.28-6.63c-.03-.73.51-1.35,1.21-1.38l1.64-.08c.7-.03,1.3.53,1.33,1.26l.11,5.67Z"/>

      <!-- FLOWER -->
      <path d="M8.44,5.16s1.78,2.36,1.48,4.41l.25.04c.32-2.15-1.45-4.49-1.52-4.59l-.2.15Z"/>
      <path d="M8.11,4.32s-1.76-2.98,0-2.98,0,2.98,0,2.98"/>
      <path d="M8.05,4.29s1.64-3.05,2.55-1.53c.91,1.51-2.55,1.53-2.55,1.53"/>
      <path d="M8.06,4.23s3.46.03,2.55,1.54c-.91,1.51-2.55-1.54-2.55-1.54"/>
      <path d="M8.11,4.2s1.77,2.98,0,2.98c-1.76,0,0-2.98,0-2.98"/>
      <path d="M8.17,4.24s-1.72,3-2.59,1.47c-.87-1.53,2.59-1.47,2.59-1.47"/>
      <path d="M8.15,4.3s-3.46-.09-2.52-1.58c.94-1.49,2.52,1.58,2.52,1.58"/>
      <path d="M10.02,9s-.3-1.46,1.37-1.59c0,0,.04,1.63-1.37,1.72"/>
      <path d="M10.21,8.86s-.45-1.42-1.98-.72c0,0,.76,1.45,2.04.83"/>
    </g>

    <path d="M8.94,4.35c0,.44-.36.8-.8.8s-.8-.36-.8-.8.36-.8.8-.8.8.36.8.8"/>
  </g>

</svg>
