<?xml version="1.0" encoding="UTF-8"?>
<svg xmlns="http://www.w3.org/2000/svg" xmlns:xlink="http://www.w3.org/1999/xlink" viewBox="0 0 28.35 28.35">

  <g fill="var(--ryuutama-color-statuses-body, #b8006d)">
    <rect rx="20%" x="0" y="0" width="100%" height="100%" />

    <g fill="#fff">
      <!-- SNAKE -->
      <path d="M10.55,12.09c-1.23-.99-3.19-1.38-3.31-3.1-.11-1.72,2.37-4.56,6.97-4.86,4.6-.3,7.85,2.01,7.98,4.03.13,2.01-1.78,2.31-2.88,3.44-1.96,2-.65,3.29-1.56,4.86-.72,1.25-3.01,2-2.9,3.65.11,1.65,6.29,1.21,5.46-.86-.32-.8-4.77-.74-6.54.97-1.15,1.11-.07-1.42-.8-1.17,0,0,7.42-4.09,9.75-.46,1.21,1.88-.79,4.46-3.62,5.29-5.39,1.59-9.56-1.24-9.6-3.34-.03-1.59.5-2.34,1.25-4.12.75-1.78.78-3.51-.21-4.32Z"/>
      <path d="M10.43,19.13s-2.33,2.95-4.95,1.08c0,0,.49,1.91,2.83,1.94,2.45.03,4.25-1.16,4.25-1.16l-2.14-1.87Z"/>
    </g>

    <!-- LINES -->
    <path d="M12.28,12.88c.63,2.28-.51,4.53-1.03,5.39-.47.78-.63,2.14.05,3.44.53.99,1.99,2.68,5.85,2.89l.02-.32c-2.75-.15-4.73-1.11-5.58-2.72-.63-1.18-.48-2.42-.06-3.12.54-.9,1.73-3.25,1.06-5.64-.54-1.96-.04-3.05-.04-3.06l-.29-.14s-.56,1.2.02,3.29Z"/>
    <path d="M17.01,9.64s.07,2.8-.33,4.23c-.39,1.42-1.67,3.73-2.31,4.53-.53.67-.91,1.81-.51,2.75.24.55.84,1.25,2.4,1.4,2.22.22,4.1-.2,5.28-1.18.87-.72,1.36-1.73,1.46-3.01l-.32-.03c-.09,1.18-.55,2.12-1.34,2.78-1.11.93-2.9,1.32-5.04,1.11-1.1-.11-1.84-.53-2.13-1.21-.35-.82,0-1.83.47-2.42.65-.83,1.96-3.19,2.36-4.65.41-1.48.34-4.21.34-4.33h-.32Z"/>
    <path d="M14.86,19.76l.32.03s.17-1.29,2.48-2.61l-.16-.28c-2.48,1.41-2.64,2.8-2.65,2.85Z"/>
    <path d="M14.84,10.96c-2.9.19-3.42-4.62-3.43-4.67l-.32.03c.02.21.56,5.17,3.77,4.96,3.19-.21,3.57-4.87,3.58-5.06l-.32-.02s-.37,4.57-3.28,4.76Z"/>
    <path d="M14.34,10.54c-.03.08-.22.08-.43,0-.2-.08-.34-.22-.3-.3.03-.08.23-.08.43,0s.34.22.3.3Z"/>
    <path d="M15.79,10.29c-.06-.08-.25-.08-.43,0-.18.08-.27.21-.21.29.06.08.25.09.43,0,.18-.08.27-.21.21-.29Z"/>
    <path d="M13.39,8.12c.02.24-.16.44-.4.46-.24.02-.44-.16-.46-.4-.01-.24.17-.44.4-.46.24-.02.44.16.46.4Z"/>
    <path d="M16.89,8.07c.02.24-.16.44-.4.46-.24.02-.44-.16-.46-.4-.02-.24.16-.44.4-.46.24-.02.44.16.46.4Z"/>
    <path d="M14.38,11.08s.03,1.59.35,2.03l.22-.52.39.37s-.27-1.42-.08-1.83l-.87-.05Z"/>
    <path d="M12.3,11.42l-.18.27c.08.05,2,1.32,5.06.02l-.13-.3c-2.89,1.23-4.74.02-4.75.01Z"/>
    <path d="M12.54,13.84c.11.04,2.61.97,4.43,0l-.15-.29c-1.69.9-4.14,0-4.16-.02l-.12.3Z"/>
    <path d="M12.54,15.67c.07.03,1.65.85,3.67.25l-.09-.31c-1.89.56-3.42-.22-3.43-.23l-.15.29Z"/>
    <path d="M11.91,17.4c.06.04,1.41,1,3.27.4l-.1-.31c-1.7.55-2.97-.34-2.98-.35l-.19.26Z"/>
    <path d="M11,19.01c.05.04,1.34.97,3.13.3l-.11-.3c-1.62.61-2.77-.22-2.82-.25l-.19.26Z"/>
    <path d="M11.3,20.96l-.11.3c.07.03,1.78.63,2.88-.2l-.19-.25c-.96.73-2.56.16-2.58.16Z"/>
    <path d="M12.33,22.65l-.06.31c.07.01,1.75.33,2.73-.8l-.24-.21c-.87.99-2.42.7-2.44.7Z"/>
    <path d="M14.87,23.92l.06.31c.07-.01,1.62-.35,2.11-1.67l-.3-.11c-.42,1.16-1.86,1.47-1.87,1.47Z"/>
    <path d="M19,22.4c.07,1.61-1.51,1.99-1.58,2.01l.07.31s1.9-.46,1.82-2.33h-.32Z"/>
    <path d="M20.8,21.67s.31,1.18-.14,1.79l.26.19c.53-.73.2-2,.19-2.06l-.31.08Z"/>
    <path d="M22.16,20.28c.15.28.5,1.12.32,1.58l.29.12c.27-.69-.31-1.79-.34-1.84l-.28.15Z"/>
    <path d="M10.29,22.65l.21-.23c-1.16-1.08-.91-3.43-.91-3.45l-.31-.04c-.01.1-.27,2.53,1.01,3.71Z"/>
    <path d="M5.03,20.6s1.69,1.69,4.6.47l-.12-.29c-2.7,1.14-4.19-.33-4.25-.4l-.23.22Z"/>
    <path d="M8.36,21.29s.04,1.13.59,1.53l.19-.25c-.35-.26-.45-1.02-.46-1.29h-.32Z"/>
    <path d="M7.06,22.68l.27-.17c-.17-.27-.15-.9-.13-1.12l-.31-.03c0,.09-.09.9.17,1.32Z"/>
  </g>

</svg>
