<?xml version="1.0" encoding="UTF-8"?>
<svg xmlns="http://www.w3.org/2000/svg" viewBox="0 0 28.35 28.35">

  <g fill="var(--ryuutama-color-statuses-mind, #0089bd)">
    <!-- BG -->
    <rect rx="20%" x="0" y="0" width="100%" height="100%" />

    <g fill="#fff">
      <path d="M11.73,16.41l2.23-2.56-2.64-2.6.98-2.13c-.5-.8-1.84-2.75-3.66-2.58-4.48.42-4.15,5.17-4.15,5.17.5,6.75,8.28,10.15,8.28,10.15,0,0,.05-.03.14-.07l1.59-3.85-2.78-1.53Z"/>
      <path d="M24.06,13.14s.7-4.25-3.06-5.02c-2.3-.47-4.43,1.74-4.43,1.74,0,0,.43,0,.33-.26l-1.8,1.71,2.16,3.15-2.62,2,2.47,2.13-2.21,3.41c1.09-.3,8.21-2.49,9.16-8.87"/>
    </g>

    <path d="M21.02,14.08l.04.46c.04.33.09.78-.03.94-.09.13-.6.32-.88.41l-.37.14c-.48.22-.85.4-1.26.44l.04.37c.47-.05.9-.25,1.3-.44.08-.04.41-.16.41-.16.51-.18.91-.34,1.06-.55.2-.28.14-.77.09-1.2l-.04-.42h-.37Z"/>
    <path d="M22.35,9.73c-.31.3-.64.62-.86.7h-.71l-.42-.03v.37s.38.03.38.03l.89-.02c.29-.11.63-.44.98-.78.34-.33.72-.7,1-.8l-.12-.35c-.35.12-.75.51-1.13.88Z"/>
    <path d="M21.2,11.32l-.42.83.29.24.49-.93c.14-.37.27-.71.56-.99l-.26-.27c-.35.34-.51.74-.65,1.12Z"/>
    <path d="M21.14,15.76c.35.44,1.05.99,1.67,1.13l.08-.37c-.46-.1-1.1-.54-1.46-1l-.29.23Z"/>
    <path d="M17.23,19.66c.05.71.65.94,1.17,1.14l.2.08.14-.35-.2-.08c-.56-.22-.9-.38-.93-.82l-.37.03Z"/>
    <path d="M5.24,7.14l.07.36c.03.26.07.55.3.77l.56.23.35.11c.87.49.86.85.83,1.71v.46s.37,0,.37,0v-.45c.03-.9.05-1.44-1.01-2.04l-.84-.28c-.14-.13-.16-.33-.19-.55l-.08-.42-.36.12Z"/>
    <path d="M7.03,8.95c.36.22.93.16,1.43.1l.4-.04-.02-.37-.43.04c-.42.04-.94.1-1.2-.05l-.19.32Z"/>
    <path d="M5.17,13.04c-.07.28-.14.54-.31.63-.13.07-.34.04-.63-.07l-.14.35c.4.16.7.18.94.06.32-.16.42-.54.5-.87l.21-.56-.29-.23-.29.7Z"/>
    <polygon points="5.07 13.96 5.77 14.13 6.25 14.27 6.33 13.9 5.88 13.77 5.14 13.59 5.07 13.96"/>
    <path d="M5.88,16.52l-.04.37c.9.11,1.37-.11,2.18-.59l-.19-.32c-.75.45-1.16.63-1.94.54Z"/>
    <path d="M9.74,17.38l-.04.4-.23.26-.32.29-.33.64-.47.83.28.25.54-.93.29-.57s.21-.18.21-.18l.38-.44.07-.55c0-.19,0-.36.08-.46l-.28-.25c-.19.21-.19.48-.18.72Z"/>
  </g>

</svg>
