<?xml version="1.0" encoding="UTF-8"?>
<svg xmlns="http://www.w3.org/2000/svg" xmlns:xlink="http://www.w3.org/1999/xlink" viewBox="0 0 28.35 28.35">
  <defs>
    <style>
      .cls-bg-sickness {
        fill: #b8006d;
      }

      .cls-subject-sickness {
        fill: #fff;
      }
    </style>
    <mask id="ryuutama-maskpath-sickness">
      <!-- BED -->
      <path class="cls-subject-sickness" d="M9.11,23.28c0,.2-.17.36-.38.36h0c-.21,0-.38-.16-.38-.36v-4.59c0-.2.17-.36.38-.36h0c.21,0,.38.16.38.36v4.59Z"/>
      <path class="cls-subject-sickness" d="M16.15,25.77c0,.2-.17.36-.38.36h0c-.21,0-.38-.16-.38-.36v-5.35c0-.2.17-.36.38-.36h0c.21,0,.38.16.38.36v5.35Z"/>
      <path class="cls-subject-sickness" d="M24.94,19.02c0,.2-.17.36-.38.36h0c-.21,0-.38-.16-.38-.36v-5.35c0-.2.17-.36.38-.36h0c.21,0,.38.16.38.36v5.35Z"/>
      <path class="cls-subject-sickness" d="M24.94,15.44c0,.2-.17.36-.38.36h0c-.21,0-.38-.16-.38-.36v-5.52c0-.2.16-.07.37-.07h0c.35.09.4.35.4.54v5.04Z"/>
      <path class="cls-subject-sickness" d="M17.62,13.96c0,.2-.17.36-.38.36h0c-.21,0-.38-.16-.38-.36v-5.35c0-.2.17-.36.38-.36h0c.21,0,.38.16.38.36v5.35Z"/>
      <path class="cls-subject-sickness" d="M17.2,8.93c-.19-.05-.31-.25-.26-.46h0c.05-.2.25-.33.44-.29l7.25,1.67c.19.05.31.25.26.46h0c-.05.21-.25.33-.44.29l-7.25-1.67Z"/>
      <path class="cls-subject-sickness" d="M8.55,20.57c-.18-.07-.27-.29-.19-.49h0c.08-.2.29-.29.47-.22l6.93,2.81c.18.07.27.29.19.49h0c-.08.2-.29.29-.47.22l-6.93-2.81Z"/>
      <path class="cls-subject-sickness" d="M15.82,23.4l8.71-6.27v-3.41l-7.39-1.93-8.33,5.54s-.62.36-.62,1.29c0,1.25.02,1.77.02,1.77l7.61,3.01Z"/>

      <path d="M13.83,13.59c3.14.91,7.9,2.32,8.19,2.47.05.04.21.27.21.27.08.19.14,1.73.14,3.11h.37c0-.89-.02-3-.19-3.29l-.27-.34c-.22-.19-4.66-1.5-8.36-2.57l-.1.36Z"/>
      <polygon class="cls-subject-sickness" points="24.4 14.2 17.05 12.37 17.05 11.22 24.4 13.06 24.4 14.2"/>
      <path d="M17.68,13.21c-.05.07-.08.15-.08.23,0,.09.03.18.1.26.4.53,2.35.93,2.69.8.28-.1.91-.57,1.07-.98v-.37c-.22-.45-1.78-.86-2.42-.86-.77,0-1.32.86-1.36.92ZM18.12,13.58c-.11-.08-.14-.13-.14-.14v-.02s.49-.75,1.06-.75c.73,0,1.99.45,2.09.65-.12.33-.63.75-.87.83-.21.06-1.61-.21-2.14-.57ZM17.67,13.22s0-.01,0-.01h0Z"/>
      <path d="M15.73,20.36c-.71.09-3.75-1.18-4.87-1.67l-.15.34c.42.19,4.12,1.83,5.07,1.7.95-.12,4.33-2.68,4.71-2.97l-.23-.3c-1.02.77-3.81,2.8-4.53,2.9Z"/>

      <!-- BOTTLE -->
      <rect class="cls-subject-sickness" x="5.76" y="4" width="2.47" height=".74"/>
      <polygon class="cls-subject-sickness" points="7.57 6.56 6.41 6.56 6.15 5.16 7.84 5.16 7.57 6.56"/>
      <polygon class="cls-subject-sickness" points="6.39 6.95 7.54 6.95 8.5 8.79 5.49 8.79 6.39 6.95"/>
      <path class="cls-subject-sickness" d="M9.27,13.81c0,.35-.26.63-.59.63h-3.35c-.33,0-.59-.28-.59-.63v-3.98c0-.35.26-.63.59-.63h3.35c.33,0,.59.28.59.63v3.98Z"/>

      <!-- PLUS -->
      <rect x="6.67" y="10.58" width=".66" height="2.12"/>
      <rect x="5.94" y="11.31" width="2.12" height=".66"/>
    </mask>
  </defs>

  <rect class="cls-bg-sickness" rx="5" x="0" y="0" width="100%" height="100%" />
  <rect class="cls-subject-sickness" rx="5" x="0" y="0" width="100%" height="100%" mask="url(#ryuutama-maskpath-sickness)" />

</svg>
