<?xml version="1.0" encoding="UTF-8" standalone="no"?>
<svg width="100%" height="100%" viewBox="0 0 92 92" version="1.1" xmlns="http://www.w3.org/2000/svg">
  <path d="M91.267,77.012c0,7.875 -6.383,14.258 -14.254,14.258l-62.754,0c-7.871,0 -14.258,-6.383 -14.258,-14.258l0,-62.75c0,-7.875 6.387,-14.262 14.258,-14.262l62.754,0c7.871,0 14.254,6.387 14.254,14.262l0,62.75Z" />
  <path d="M47.272,13.973c0,1.992 -0.733,2.688 -1.633,2.688c-0.908,0 -1.642,-0.696 -1.642,-2.688c0,-1.988 1.642,-4.913 1.642,-4.913c0,0 1.633,2.925 1.633,4.913" style="fill:#fff;" />
  <path d="M77.691,16.665c0,0.504 -0.408,0.917 -0.912,0.917l-62.288,0c-0.504,0 -0.917,-0.413 -0.917,-0.917c0,-0.508 0.413,-0.917 0.917,-0.917l62.288,0c0.504,0 0.912,0.408 0.912,0.917" style="fill:#fff;" />
  <path d="M16.715,18.138c-0.9,0 -1.633,0.738 -1.633,1.642c0,0.9 0.733,1.637 1.633,1.637c0.904,0 1.646,-0.738 1.646,-1.637c0,-0.904 -0.742,-1.642 -1.646,-1.642m2.688,1.642c0,1.483 -1.2,2.683 -2.688,2.683c-1.479,0 -2.688,-1.2 -2.688,-2.683c0,-1.488 1.208,-2.688 2.688,-2.688c1.488,0 2.688,1.2 2.688,2.688" style="fill:#fff;" />
  <path d="M16.591,55.92l0.083,-33.538l10.621,33.667" style="fill:none;stroke:#fff;stroke-width:1.61px;" />
  <path d="M16.554,22.261l-11.225,33.05" style="fill:none;stroke:#fff;stroke-width:1.61px;" />
  <path d="M16.33,61.623c5.754,0 10.583,-2.829 12.283,-6.712l-24.571,0c1.696,3.883 6.525,6.712 12.288,6.712" style="fill:#fff;" />
  <path d="M75.325,18.138c-0.904,0 -1.633,0.738 -1.633,1.642c0,0.9 0.729,1.637 1.633,1.637c0.908,0 1.642,-0.738 1.642,-1.637c0,-0.904 -0.733,-1.642 -1.642,-1.642m2.688,1.642c0,1.483 -1.204,2.683 -2.688,2.683c-1.479,0 -2.683,-1.2 -2.683,-2.683c0,-1.488 1.204,-2.688 2.683,-2.688c1.483,0 2.688,1.2 2.688,2.688" style="fill:#fff;" />
  <path d="M75.205,55.92l0.083,-33.538l10.617,33.667" style="fill:none;stroke:#fff;stroke-width:1.61px;" />
  <path d="M75.167,22.864l-11.225,33.05" style="fill:none;stroke:#fff;stroke-width:1.61px;" />
  <path d="M74.94,62.222c5.763,0 10.592,-2.825 12.287,-6.712l-24.571,0c1.7,3.888 6.525,6.712 12.283,6.712" style="fill:#fff;" />
  <path d="M49.108,24.795c0,0.508 -0.413,0.913 -0.917,0.913l-5.113,0c-0.508,0 -0.917,-0.404 -0.917,-0.913c0,-0.512 0.408,-0.921 0.917,-0.921l5.113,0c0.504,0 0.917,0.408 0.917,0.921" style="fill:#fff;" />
  <path d="M49.108,29.512c0,0.508 -0.413,0.917 -0.917,0.917l-5.113,0c-0.508,0 -0.917,-0.408 -0.917,-0.917c0,-0.504 0.408,-0.917 0.917,-0.917l5.113,0c0.504,0 0.917,0.413 0.917,0.917" style="fill:#fff;" />
  <path d="M49.108,50.9c0,0.513 -0.413,0.921 -0.917,0.921l-5.113,0c-0.508,0 -0.917,-0.408 -0.917,-0.921c0,-0.504 0.408,-0.913 0.917,-0.913l5.113,0c0.504,0 0.917,0.408 0.917,0.913" style="fill:#fff;" />
  <path d="M53.732,72.441c0,0.508 -0.413,0.917 -0.917,0.917l-14.363,0c-0.504,0 -0.917,-0.408 -0.917,-0.917c0,-0.508 0.413,-0.917 0.917,-0.917l14.363,0c0.504,0 0.917,0.408 0.917,0.917" style="fill:#fff;" />
  <path d="M48.36,26.84c0,1.358 -1.225,2.458 -2.721,2.458c-1.508,0 -2.729,-1.1 -2.729,-2.458c0,-1.358 1.221,-2.454 2.729,-2.454c1.496,0 2.721,1.096 2.721,2.454" style="fill:#fff;" />
  <rect x="44.109" y="28.467" width="3.05" height="22.567" style="fill:#fff;" />
  <path d="M44.474,16.982l-1.125,7.867l4.571,0l-1.179,-7.721l-2.267,-0.146Z" style="fill:#fff;" />
  <path d="M52.054,72.231l-12.842,0l3.217,-14.163l3.208,-14.163l6.417,28.325Z" style="fill:#fff;" />
  <path d="M53.555,74.292c0,0.921 -0.758,1.675 -1.675,1.675l-12.488,0c-0.921,0 -1.671,-0.754 -1.671,-1.675c0,-0.921 0.75,-1.675 1.671,-1.675l12.488,0c0.917,0 1.675,0.754 1.675,1.675" style="fill:#fff;" />
  <path d="M60.039,76.912c0,0.925 -0.671,1.675 -1.5,1.675l-25.804,0c-0.833,0 -1.504,-0.75 -1.504,-1.675c0,-0.921 0.671,-1.671 1.504,-1.671l25.804,0c0.829,0 1.5,0.75 1.5,1.671" style="fill:#fff;" />
  <path d="M46.37,14.016c0,0.421 -0.337,0.763 -0.763,0.763c-0.417,0 -0.758,-0.342 -0.758,-0.763l0,-0.45c0,-0.425 0.342,-0.762 0.758,-0.762c0.425,0 0.763,0.337 0.763,0.762l0,0.45Z" />
  <rect x="42.246" y="25.684" width="6.983" height="0.592" />
  <rect x="42.246" y="23.405" width="6.983" height="0.592" />
  <rect x="42.246" y="17.547" width="6.983" height="0.592" />
  <rect x="42.3" y="28.076" width="6.983" height="0.592" />
  <rect x="42.246" y="30.405" width="6.983" height="0.592" />
  <rect x="42.246" y="49.409" width="6.983" height="0.592" />
  <rect x="42.246" y="51.684" width="6.983" height="0.592" />
  <rect x="37.98" y="70.972" width="15.521" height="0.596" />
  <rect x="37.009" y="74.613" width="17.454" height="0.592" />
  <rect x="37.009" y="72.963" width="17.454" height="0.592" />
</svg>
