<?xml version="1.0" encoding="UTF-8" standalone="no"?>
<svg width="100%" height="100%" viewBox="0 0 92 92" version="1.1" xmlns="http://www.w3.org/2000/svg">
  <defs>
    <!-- MASK -->
    <mask id="__1__">
      <rect width="100%" height="100%" fill="black" />

      <!-- SHOW -->
      <use href="#__2__" fill="white" />

      <!-- SUBTRACT -->
      <use href="#__3__" fill="black" />
    </mask>

    <!-- GEOMETRY -->
    <g id="__2__">
      <path d="M79.067,60.651c-8.092,18.558 -29.683,27.046 -48.242,18.962c-18.563,-8.092 -27.046,-29.683 -18.963,-48.242c8.088,-18.563 29.688,-27.046 48.246,-18.958c18.554,8.083 27.046,29.679 18.958,48.237" style="fill:#fff;" />
    </g>

    <!-- CUT -->
    <g id="__3__">
      <!-- PIPS -->
      <path d="M50.195,16.702l2.104,0.434l0.438,-2.122l-2.104,-0.434l-0.438,2.122Z" />
      <path d="M55.681,18.146l1.99,0.806l0.806,-1.989l-1.99,-0.806l-0.806,1.989Z" />
      <path d="M60.826,20.618l1.788,1.172l1.182,-1.805l-1.788,-1.172l-1.182,1.805Z" />
      <path d="M65.38,23.988l1.538,1.496l1.5,-1.542l-1.538,-1.496l-1.5,1.542Z" />
      <path d="M69.205,28.166l1.233,1.756l1.758,-1.235l-1.233,-1.756l-1.758,1.235Z" />
      <path d="M72.193,33.022l0.881,1.949l1.944,-0.879l-0.881,-1.949l-1.944,0.879Z" />
      <path d="M74.206,38.324l0.494,2.095l2.081,-0.491l-0.494,-2.095l-2.081,0.491Z" />
      <path d="M75.175,43.923l0.083,2.138l2.159,-0.084l-0.083,-2.138l-2.159,0.084Z" />
      <path d="M75.065,49.617l-0.322,2.133l2.13,0.322l0.322,-2.133l-2.13,-0.322Z" />
      <path d="M73.871,55.215l-0.714,2.021l2.018,0.713l0.714,-2.021l-2.018,-0.713Z" />
      <path d="M71.647,60.44l-1.088,1.847l1.859,1.094l1.088,-1.847l-1.859,-1.094Z" />
      <path d="M68.499,65.145l-1.425,1.604l1.613,1.433l1.425,-1.604l-1.613,-1.433Z" />
      <path d="M64.49,69.179l-1.698,1.316l1.318,1.701l1.698,-1.316l-1.318,-1.701Z" />
      <path d="M59.785,72.391l-1.922,0.969l0.967,1.918l1.922,-0.969l-0.967,-1.918Z" />
      <path d="M54.557,74.645l-2.063,0.578l0.584,2.084l2.063,-0.578l-0.584,-2.084Z" />
      <path d="M49.04,75.884l-2.133,0.178l0.179,2.147l2.133,-0.178l-0.179,-2.147Z" />
      <path d="M43.355,76.047l-2.129,-0.232l-0.233,2.144l2.129,0.232l0.233,-2.144Z" />
      <path d="M37.719,75.113l-2.048,-0.633l-0.64,2.07l2.048,0.633l0.64,-2.07Z" />
      <path d="M32.39,73.139l-1.908,-1l-0.996,1.9l1.908,1l0.996,-1.9Z" />
      <path d="M27.499,70.191l-1.677,-1.34l-1.34,1.677l1.677,1.34l1.34,-1.677Z" />
      <path d="M23.293,66.4l-1.381,-1.635l-1.64,1.385l1.381,1.635l1.64,-1.385Z" />
      <path d="M19.884,61.871l-1.045,-1.87l-1.884,1.053l1.045,1.87l1.884,-1.053Z" />
      <path d="M17.391,56.758l-0.682,-2.033l-2.048,0.687l0.682,2.033l2.048,-0.687Z" />
      <path d="M15.892,51.264l-0.284,-2.127l-2.137,0.285l0.284,2.127l2.137,-0.285Z" />
      <path d="M15.463,45.575l0.124,-2.141l-2.162,-0.125l-0.124,2.141l2.162,0.125Z" />
      <path d="M16.12,39.937l0.534,-2.074l-2.092,-0.539l-0.534,2.074l2.092,0.539Z" />
      <path d="M17.832,34.545l0.905,-1.958l-1.947,-0.901l-0.905,1.958l1.947,0.901Z" />
      <path d="M20.541,29.525l1.267,-1.728l-1.746,-1.28l-1.267,1.728l1.746,1.28Z" />
      <path d="M24.144,25.127l1.571,-1.471l-1.471,-1.571l-1.571,1.471l1.471,1.571Z" />
      <path d="M28.528,21.495l1.814,-1.135l-1.143,-1.828l-1.814,1.135l1.143,1.828Z" />
      <path d="M33.508,18.759l2.004,-0.785l-0.783,-1.999l-2.004,0.785l0.783,1.999Z" />
      <path d="M38.933,17.008l2.108,-0.391l-0.392,-2.113l-2.108,0.391l0.392,2.113Z" />
      <path d="M44.529,16.315l2.158,0l0,-2.142l-2.158,0l0,2.142Z" />

      <!-- DRAGON -->
      <path d="M56.496,64.684c1.6,3.117 5.171,0.933 5.171,0.933l-0.279,0.733c0,0 0.733,-0.237 1.204,-0.629c0.913,-0.754 -0.067,-2.492 -2.275,-1.583c-2.383,0.971 -2.308,-1.333 -2.308,-1.333c0.162,-0.225 0.587,-1.067 0.587,-1.067c1.462,2.758 4.996,0.629 4.996,0.629l-0.279,0.729c0,0 0.738,-0.242 1.208,-0.629c0.908,-0.758 -0.171,-2.692 -2.279,-1.592c-2.413,1.262 -2.288,-1.642 -2.288,-1.642c0.675,-1.462 -0.842,-6.913 -1.087,-8.496c-0.121,-0.783 1.425,0.129 1.425,0.129c1.188,0.817 3.342,0.629 4.7,-0.142c0.775,-0.442 1.404,-0.921 1.404,-0.921c-2.779,0.554 -4.617,-1.133 -4.617,-1.133c2.646,0.533 3.746,-2.212 4.746,-2.067c1,0.15 1.471,1.912 1.471,1.912c0.754,-0.883 0.383,-2.175 0.383,-2.175c0,0 0.525,-0.925 -0.704,-2.3c-1.221,-1.375 -2.804,0.3 -2.804,0.3c-3.35,2.612 -5.625,0.904 -6.854,0.612c0,0 -0.796,-2.671 2.329,-2.458c0,0 -1.663,-1.963 -3.712,-0.263c0,0 -1.025,1.242 -0.533,2.013c0,0 -2.617,-4.104 3.5,-5.329c0,0 -5.633,-3.146 -7.517,3.95c0,0 -6.117,-2.117 -10.262,5.413c0,0 5.783,-5.254 11.487,-1.379c0,0 1.025,2.008 1.6,3.533c0.954,2.533 0.254,6.85 -2.638,7.379c-4.242,0.783 -6.387,1.212 -8.775,2.475c-3.658,1.938 -11.675,-2.608 -11.675,-10.921c0,-15.633 10.65,-20.125 15.158,-20.125c7.783,0 13.612,4.129 15.554,8.079c0,0 -0.421,-10.746 -13.138,-13.271c-10.529,-2.096 -20.963,5.379 -23.108,17.113c-3.388,18.558 6.167,26.417 17.921,27.492c7.05,0.646 12.288,-3.971 12.288,-3.971" />
      <path d="M27.815,54.294c0,0 -1.733,0.929 -3.738,-1.971c-1.371,-1.979 -3.771,-1.013 -3.771,-1.013c0,0 2.712,-4.446 5.879,-1.154" />
      <path d="M27.227,49.011c0,0 -1.704,0.537 -2.875,-2.146c-0.967,-2.217 -3.121,-1.9 -3.121,-1.9c0,0 2.642,-3.208 5.496,0.308" />
      <path d="M54.283,45.335c0,0 -2.142,1.558 -0.658,5.279c0,0 0.492,-2.504 1.479,-2.854" />
      <path d="M54.741,57.425c0,0 -3.45,0.35 -4.112,-1.729c0,0 -0.242,2.25 0.829,3.112" />
      <path d="M51.626,58.39c0,0 -3.483,-0.133 -3.817,-2.283c0,0 -0.587,2.192 0.333,3.192" />
      <path d="M48.373,59.211c0,0 -3.487,0.05 -3.929,-2.071c0,0 -0.483,2.217 0.496,3.167" />
      <path d="M45.347,59.787c0,0 -3.317,1.071 -4.362,-0.825c0,0 0.196,2.258 1.408,2.879" />
    </g>
  </defs>

  <!-- BACKGROUND -->
  <g fill="var(--ryuutama-color-icon-gold, #000)">
    <rect width="100%" height="100%" />
  </g>

  <!-- RENDER -->
  <g mask="url(#__1__)" fill="white">
    <use href="#__2__" />
  </g>
</svg>
