<?xml version="1.0" encoding="UTF-8" standalone="no"?><!DOCTYPE svg PUBLIC "-//W3C//DTD SVG 1.1//EN" "http://www.w3.org/Graphics/SVG/1.1/DTD/svg11.dtd"><svg width="100%" height="100%" viewBox="0 0 1117 157" version="1.1" xmlns="http://www.w3.org/2000/svg" xmlns:xlink="http://www.w3.org/1999/xlink" xml:space="preserve" xmlns:serif="http://www.serif.com/" style="fill-rule:evenodd;clip-rule:evenodd;stroke-linejoin:round;stroke-miterlimit:2;"><path d="M41.496,22.129c0,0 89.75,-7.542 138.025,-7.542c48.275,0 228.912,-4.525 254.558,-4.525c25.642,0 283.967,6.788 317.158,6.788c33.183,0 230.792,3.017 263.975,4.525c33.192,1.508 69.392,4.525 69.392,4.525l-9.046,123.317c-21.492,-4.525 -45.342,-11.754 -82.212,-13.196c-38.467,-1.504 -340.921,-12.825 -417.846,-12.825c-51.217,0 -296.833,4.25 -352.983,5.658c-30.171,0.754 -175.742,14.704 -175.742,14.704l-5.279,-121.429Z" style="fill-rule:nonzero;"/><path d="M43.005,34.196c0,0 90.508,-8.296 110.117,-9.05c10.667,-0.408 244.821,-7.162 266.25,-7.162c18.6,0 259.342,5.029 266.242,5.654c8.3,0.754 202.137,2.258 217.979,3.017c15.837,0.754 173.475,8.296 173.475,8.296l-1.421,97.296c0,0 -144.904,-9.8 -178.842,-10.558c-33.942,-0.754 -174.983,-3.771 -196.104,-3.771c-21.117,0 -176.496,-4.904 -215.708,-4.904c-39.221,0 -267.754,6.792 -298.683,9.808c-30.921,3.017 -129.538,11.125 -129.538,11.125l-3.208,-4.713l-10.558,-95.038Z" style="fill:#fff;fill-rule:nonzero;"/><path d="M2.275,25.145c0,0 4.717,-17.346 26.213,-19.046c21.496,-1.696 31.679,7.358 31.679,7.358c0,0 -4.529,16.404 -0.567,27.15c3.958,10.746 10.183,41.858 5.088,64.488c-5.088,22.629 10.754,35.071 10.754,35.071c0,0 -24.138,18.104 -59.588,3.021c0,0 4.758,-12.283 5.654,-21.875c1.129,-12.067 2.775,-45.858 -1.504,-62.979c-4.529,-18.1 -18.104,-31.3 -17.729,-33.188" style="fill:#fff;fill-rule:nonzero;"/><path d="M28.665,8.359c17.038,-1.35 24.642,6.642 27.258,8.492c-0.65,2.742 -1.979,9.558 -1.979,16.121c0,3.942 3.496,15.954 4.808,19.517c3.025,8.217 5.087,14.004 5.087,31.679c0,6.633 -0.638,13.575 -1.975,19.512c-0.758,3.354 -1.7,10.092 -1.7,13.012c0,13.258 7.933,19.329 11.583,23.121c-6.517,3.713 -26.383,12.346 -52.958,1.933c1.429,-4.054 4.292,-10.758 4.983,-18.171c0.521,-5.579 3.771,-15.538 3.771,-28.288c0,-12.025 -0.846,-25.246 -3.017,-33.938c-3.233,-12.921 -10.408,-26.254 -14.554,-31.925c0,0 -2.075,-3.025 -2.421,-3.525c0.971,-2.813 3.362,-16.142 21.112,-17.542m-1.025,-8.196c-22.821,1.8 -27.492,24.2 -27.546,24.388l-0.038,0.15c-0.308,1.562 0.617,2.829 3.375,6.6c4.25,5.804 11.358,15.517 14.375,27.579c4.325,17.296 2.446,51.575 1.446,62.225c-0.854,9.154 -8.633,22.267 -8.679,22.383l-0.788,2.046l2.013,0.854c35.921,24.892 67.621,-2.842 68.646,-3.612l2.346,-1.763l-2.3,-1.825c-0.6,-0.471 -18.296,-12.704 -13.596,-33.596c5.108,-22.688 -0.842,-54.029 -5.171,-65.767c-3.654,-9.929 0.579,-25.612 0.617,-25.767l0.379,-1.358l-1.05,-0.933c-0.45,-0.396 -11.825,-13.358 -34.029,-11.604" style="fill-rule:nonzero;"/><path d="M1114.583,31.924c0,0 -4.717,-16.429 -26.208,-18.037c-21.492,-1.604 -31.679,6.967 -31.679,6.967c0,0 4.525,15.533 0.567,25.704c-3.958,10.179 -10.183,39.638 -5.087,61.063c5.087,21.425 -10.75,33.204 -10.75,33.204c0,0 24.138,17.142 59.583,2.854c0,0 -4.758,-11.625 -5.662,-20.708c-1.125,-11.421 -2.767,-43.417 1.513,-59.629c4.525,-17.133 18.108,-29.633 17.725,-31.417" style="fill:#fff;fill-rule:nonzero;"/><path d="M1109.307,32.634c-0.346,0.479 -2.412,3.342 -2.412,3.342c-4.154,5.371 -11.329,17.983 -14.562,30.221c-2.171,8.233 -3.017,20.75 -3.017,32.138c0,12.071 3.246,21.496 3.771,26.779c0.696,7.021 3.55,13.371 4.979,17.208c-26.575,9.858 -46.433,1.683 -52.958,-1.833c3.65,-3.588 11.588,-9.338 11.588,-21.892c0,-2.767 -0.942,-9.142 -1.696,-12.321c-1.333,-5.625 -1.979,-12.192 -1.979,-18.475c0,-16.733 2.067,-22.213 5.087,-29.996c1.317,-3.371 4.817,-14.742 4.817,-18.475c0,-6.208 -1.342,-12.671 -1.987,-15.267c2.621,-1.746 10.225,-9.313 27.263,-8.042c17.746,1.329 20.133,13.95 21.108,16.613m-54.112,-13.383l-1.058,0.888l0.375,1.279c0.046,0.15 4.283,15 0.629,24.4c-4.329,11.117 -10.279,40.788 -5.179,62.271c4.7,19.779 -12.996,31.362 -13.592,31.812l-2.304,1.729l2.35,1.662c1.025,0.733 35.367,23.271 68.646,3.425l2.017,-0.812l-0.792,-1.933c-0.05,-0.113 -7.829,-12.525 -8.683,-21.196c-1,-10.083 -2.871,-42.538 1.446,-58.917c3.021,-11.417 10.133,-20.621 14.379,-26.112c2.758,-3.567 3.688,-4.767 3.371,-6.246l-0.037,-0.142c-0.046,-0.179 -5.183,-21.104 -28,-22.804c-22.204,-1.658 -33.125,10.321 -33.567,10.696" style="fill-rule:nonzero;"/><path d="M16.984,142.05c0,0 19.613,-18.85 47.513,-7.167c0,0 4.908,5.662 -6.404,7.925c-11.317,2.258 -32.433,0.75 -26.775,-2.646c5.654,-3.392 20.367,-2.258 20.367,-2.258" style="fill:#fff;fill-rule:nonzero;"/><path d="M16.61,136.772l0.525,6.629c0.413,-0.392 8.521,-10.588 24.079,-11.154c6.358,-0.238 11.979,0.383 15.558,1.7c3.571,1.317 5.096,3.621 5.058,3.721c-0.283,0.796 -1.908,1.904 -5.6,2.642c-7.092,1.412 -20.675,2.404 -24.633,-0.992c5.154,-1.246 11.046,-2.779 14.142,-2.546l4.696,-1.404c-1.579,-0.125 -15.596,-1.079 -21.696,2.575c-2.583,1.546 -1.317,2.508 -1.1,3.071c1.992,5.175 22.038,3.288 28.567,1.979c5.1,-1.017 8.1,-2.613 9.05,-5.375c1.062,-3.113 -9.05,-7.254 -9.05,-7.254c-31.233,-7.625 -39.392,6.212 -39.596,6.408" style="fill-rule:nonzero;"/><path d="M1099.874,142.05c0,0 -19.608,-18.85 -47.513,-7.167c0,0 -4.9,5.662 6.413,7.925c11.312,2.258 32.425,0.75 26.771,-2.646c-5.65,-3.392 -20.367,-2.258 -20.367,-2.258" style="fill:#fff;fill-rule:nonzero;"/><path d="M1100.255,136.772l-0.533,6.629c-0.408,-0.392 -8.521,-10.588 -24.075,-11.154c-6.362,-0.238 -11.979,0.383 -15.558,1.7c-3.579,1.317 -5.096,3.621 -5.054,3.721c0.283,0.796 1.9,1.904 5.596,2.642c7.088,1.412 20.671,2.404 24.633,-0.992c-5.154,-1.246 -11.05,-2.779 -14.146,-2.546l-4.7,-1.404c1.588,-0.125 15.604,-1.079 21.708,2.575c2.575,1.546 1.312,2.508 1.096,3.071c-2,5.175 -22.033,3.288 -28.567,1.979c-5.108,-1.017 -8.104,-2.613 -9.046,-5.375c-1.075,-3.113 9.046,-7.254 9.046,-7.254c31.233,-7.625 39.383,6.212 39.6,6.408" style="fill-rule:nonzero;"/><path d="M1103.275,45.619c0,0 -6.571,-5.163 -17.713,-3.792c0,0 11.896,4.246 14.808,7.312l2.904,-3.521Z" style="fill-rule:nonzero;"/><path d="M1095.608,115.128c0,0 -7.567,-3.929 -18.125,0.15c0,0 12.562,1.717 16.079,4.283l2.046,-4.433Z" style="fill-rule:nonzero;"/><path d="M1049.202,90.806c0,0 7.562,-3.933 18.121,0.146c0,0 -12.558,1.717 -16.079,4.283l-2.042,-4.429Z" style="fill-rule:nonzero;"/><path d="M14.574,43.919c0,0 6.571,-5.158 17.713,-3.792c0,0 -11.896,4.246 -14.808,7.308l-2.904,-3.517Z" style="fill-rule:nonzero;"/><path d="M96.135,23.433c0,0 -0.179,8.358 7.608,16.442c0,0 -3.754,-12.067 -3.054,-16.238l-4.554,-0.204Z" style="fill-rule:nonzero;"/><path d="M112.577,132.87c0,0 -2.875,-7.85 1.875,-18.021c0,0 0.354,12.629 2.375,16.35l-4.25,1.671Z" style="fill-rule:nonzero;"/><path d="M215.152,126.836c0,0 -2.875,-7.846 1.879,-18.021c0,0 0.354,12.629 2.371,16.35l-4.25,1.671Z" style="fill-rule:nonzero;"/><path d="M971.261,126.84c0,0 2.879,-7.846 -1.875,-18.021c0,0 -0.354,12.629 -2.367,16.35l4.242,1.671Z" style="fill-rule:nonzero;"/><path d="M170.405,22.058c0,0 3.171,11.396 6.504,18.796c0,0 0.275,-11.329 -1.946,-18.788l-4.558,-0.008Z" style="fill-rule:nonzero;"/><path d="M1028.188,29.465c0,0 0.175,8.358 -7.608,16.442c0,0 3.754,-12.067 3.05,-16.233l4.558,-0.208Z" style="fill-rule:nonzero;"/><path d="M953.52,27.957c0,0 -2.688,11.517 -5.704,19.058c0,0 -0.754,-11.312 1.142,-18.854l4.562,-0.204Z" style="fill-rule:nonzero;"/><path d="M22.248,113.434c0,0 7.562,-3.933 18.121,0.146c0,0 -12.563,1.717 -16.075,4.283l-2.046,-4.429Z" style="fill-rule:nonzero;"/><path d="M68.648,89.113c0,0 -7.562,-3.933 -18.117,0.146c0,0 12.558,1.713 16.075,4.279l2.042,-4.425Z" style="fill-rule:nonzero;"/></svg>