<?xml version="1.0" encoding="UTF-8" standalone="no"?>
<svg width="100%" height="100%" viewBox="0 0 92 96" version="1.1" xmlns="http://www.w3.org/2000/svg" fill="#89874f">
  <path d="M64.268,2.802c-7.962,-1.275 -12.604,-0.638 -19.271,5.721c0.262,-1.496 -1.604,-5.479 -2.858,-6.383c-5.146,8.229 -4.025,14.5 -3.388,22.175c-4.708,-5.762 -3.925,-7.308 -5.65,-10.358c-3.896,-6.887 -10.342,-3.212 -10.829,-0.883c-7.279,-4.112 -9.892,-4.887 -12.896,-1.883c-3.008,3.004 -2.225,5.613 1.888,12.896c-2.329,0.487 -6.004,6.929 0.879,10.825c3.054,1.725 4.6,0.942 10.362,5.654c-7.679,-0.642 -13.946,-1.763 -22.179,3.383c0.904,1.258 4.887,3.125 6.383,2.862c-6.354,6.667 -6.996,11.304 -5.721,19.271c6.163,-8.621 14.033,-10.383 21.163,-11.921c6.329,-1.371 11.421,-5.808 13.546,-13.067c-4.946,-2.154 -11.658,-6.908 -14.467,-17.525c0,0 13.833,0.875 18.825,13.708c6.788,-2.271 10.971,-7.217 12.296,-13.312c1.538,-7.129 3.3,-15.004 11.917,-21.163" />
  <path d="M14.158,67.988c0,0 -25.554,4.683 -8,27.025c0,0 0.312,-20.479 8,-27.025" />
  <path d="M91.469,5.496c0,0 -19.188,-17.513 -26.358,9.983c0,0 16.5,-12.142 26.358,-9.983" />
</svg>
