<?xml version="1.0" encoding="UTF-8" standalone="no"?>
<svg width="100%" height="100%" viewBox="0 0 92 96" version="1.1" xmlns="http://www.w3.org/2000/svg" fill="#f4b669">
  <path d="M80.204,24.085c4.112,-7.279 4.896,-9.892 1.888,-12.896c-3,-3.004 -5.617,-2.229 -12.896,1.887c-0.488,-2.333 -6.933,-6.004 -10.825,0.879c-1.725,3.05 -0.946,4.596 -5.654,10.358c0.642,-7.675 1.758,-13.946 -3.388,-22.175c-1.254,0.904 -3.121,4.888 -2.858,6.383c-6.663,-6.358 -11.308,-6.996 -19.271,-5.721c8.621,6.158 10.383,14.033 11.921,21.162c1.321,6.1 5.504,11.046 12.296,13.312c4.992,-12.833 18.821,-13.708 18.821,-13.708c-2.808,10.621 -9.517,15.375 -14.467,17.525c2.125,7.258 7.217,11.7 13.546,13.067c7.133,1.538 15,3.3 21.163,11.921c1.279,-7.967 0.633,-12.604 -5.721,-19.271c1.496,0.263 5.479,-1.604 6.383,-2.858c-8.233,-5.15 -14.496,-4.029 -22.175,-3.387c5.763,-4.713 7.308,-3.929 10.358,-5.654c6.883,-3.896 3.212,-10.338 0.879,-10.825" />
  <path d="M77.311,67.988c0,0 25.554,4.683 8,27.025c0,0 -0.312,-20.479 -8,-27.025" />
  <path d="M0,5.496c0,0 19.188,-17.513 26.358,9.983c0,0 -16.5,-12.142 -26.358,-9.983" />
</svg>
