<?xml version="1.0" encoding="UTF-8" standalone="no"?>
<svg width="100%" height="100%" viewBox="0 0 96 92" version="1.1" xmlns="http://www.w3.org/2000/svg" fill="#89874f">
  <path d="M86.49,46.472c6.358,-6.667 7,-11.308 5.721,-19.271c-6.158,8.617 -14.029,10.379 -21.158,11.917c-6.1,1.325 -11.046,5.508 -13.312,12.296c12.829,4.996 13.704,18.825 13.704,18.825c-10.617,-2.808 -15.371,-9.517 -17.525,-14.467c-7.254,2.125 -11.696,7.217 -13.063,13.542c-1.537,7.133 -3.3,15.004 -11.925,21.163c7.967,1.279 12.608,0.637 19.271,-5.721c-0.263,1.5 1.608,5.483 2.862,6.388c5.146,-8.233 4.029,-14.5 3.388,-22.179c4.708,5.763 3.929,7.308 5.654,10.362c3.896,6.883 10.333,3.208 10.825,0.879c7.283,4.112 9.892,4.896 12.892,1.887c3.008,-3.004 2.229,-5.617 -1.883,-12.896c2.333,-0.487 6.008,-6.933 -0.879,-10.829c-3.05,-1.725 -4.596,-0.942 -10.358,-5.65c7.675,0.638 13.946,1.758 22.171,-3.392c-0.904,-1.25 -4.888,-3.121 -6.383,-2.854" />
  <path d="M27.025,77.311c0,0 -4.679,25.554 -27.025,8c0,0 20.483,-0.312 27.025,-8" />
  <path d="M89.517,0c0,0 17.513,19.188 -9.979,26.358c0,0 12.142,-16.5 9.979,-26.358" />
</svg>
