<?xml version="1.0" encoding="UTF-8" standalone="no"?>
<svg width="100%" height="100%" viewBox="0 0 96 92" version="1.1" xmlns="http://www.w3.org/2000/svg" fill="#f4b669">
  <path d="M66.081,90.478c-8.621,-6.158 -10.383,-14.029 -11.921,-21.163c-1.371,-6.325 -5.808,-11.417 -13.067,-13.546c-2.15,4.95 -6.904,11.658 -17.521,14.471c0,0 0.871,-13.833 13.7,-18.825c-2.263,-6.792 -7.212,-10.975 -13.308,-12.296c-7.129,-1.538 -15.004,-3.3 -21.163,-11.917c-1.275,7.962 -0.638,12.604 5.721,19.271c-1.496,-0.267 -5.479,1.6 -6.383,2.854c8.229,5.146 14.5,4.029 22.175,3.388c-5.763,4.712 -7.308,3.929 -10.363,5.654c-6.883,3.896 -3.208,10.342 -0.879,10.829c-4.113,7.279 -4.892,9.892 -1.883,12.892c3.004,3.008 5.612,2.229 12.896,-1.888c0.487,2.333 6.929,6.008 10.825,-0.879c1.725,-3.05 0.942,-4.596 5.654,-10.358c-0.642,7.679 -1.763,13.946 3.383,22.175c1.254,-0.9 3.125,-4.887 2.863,-6.383c6.667,6.354 11.308,7 19.271,5.721" />
  <path d="M67.989,77.311c0,0 4.679,25.554 27.025,8c0,0 -20.483,-0.312 -27.025,-8" />
  <path d="M5.498,0c0,0 -17.513,19.188 9.975,26.358c0,0 -12.137,-16.5 -9.975,-26.358" />
</svg>
