<?xml version="1.0" encoding="UTF-8" standalone="no"?>
<!DOCTYPE svg PUBLIC "-//W3C//DTD SVG 1.1//EN" "http://www.w3.org/Graphics/SVG/1.1/DTD/svg11.dtd">
<svg width="100%" height="100%" viewBox="0 0 301 251" version="1.1" xmlns="http://www.w3.org/2000/svg" xmlns:xlink="http://www.w3.org/1999/xlink" xml:space="preserve" xmlns:serif="http://www.serif.com/" style="fill-rule:evenodd;clip-rule:evenodd;stroke-linejoin:round;stroke-miterlimit:2;">
    <g transform="matrix(1,0,0,1,-1691.808333,-190.310833)">
        <g transform="matrix(0.014104,-4.166643,-4.166643,-0.014104,1874.333308,192.710756)">
            <path d="M-27.916,-27.821C-43.333,-27.821 -55.831,-15.318 -55.833,0.096C-55.833,15.515 -43.333,28.011 -27.916,28.014C-12.498,28.012 0,15.513 -0,0.097C-0.001,-15.321 -12.497,-27.821 -27.916,-27.821" style="fill:rgb(245,244,185);fill-rule:nonzero;"/>
        </g>
        <g transform="matrix(4.166667,0,0,4.166667,1989.858333,308.631667)">
            <path d="M-0.575,0.187L0.575,0.191C0.521,15.894 -12.227,28.586 -27.916,28.586L-28.018,28.586L-28.014,28.586C-43.717,28.533 -56.408,15.785 -56.41,0.093L-56.41,-0.003C-56.354,-15.704 -43.609,-28.397 -27.922,-28.397L-27.822,-28.397C-12.118,-28.343 0.574,-15.601 0.575,0.091L0.575,0.189L0,0.189L-0.575,0.188L-0.575,0.091C-0.575,-14.966 -12.755,-27.194 -27.825,-27.246L-27.823,-27.246L-27.922,-27.246C-42.975,-27.246 -55.207,-15.066 -55.258,0.003L-55.259,0.093C-55.259,15.152 -43.079,27.385 -28.01,27.435L-28.001,27.435L-28.006,27.435L-27.916,27.435C-12.861,27.436 -0.626,15.255 -0.575,0.187Z" style="fill:rgb(138,135,79);fill-rule:nonzero;"/>
        </g>
        <g transform="matrix(4.166667,0,0,4.166667,1829.504167,244.725)">
            <path d="M0,-4.034C-1.389,-5.077 -2.848,-6.075 -4.338,-7.017C-4.08,-7.013 -3.823,-6.996 -3.567,-6.966C-2.486,-6.196 -1.359,-5.187 0,-4.034M3.668,-2.56C3.111,-2.977 2.567,-3.401 2.035,-3.832C1.574,-4.205 1.14,-4.568 0.725,-4.92C1.278,-4.505 1.82,-4.082 2.352,-3.653C2.816,-3.277 3.253,-2.912 3.668,-2.56M3.701,-1.026C3.454,-1.238 3.202,-1.454 2.942,-1.674C3.206,-1.476 3.47,-1.28 3.739,-1.086L3.701,-1.026ZM10.037,2.983C9.705,2.901 9.383,2.8 9.069,2.682C8.932,2.508 8.791,2.334 8.649,2.164C9.11,2.442 9.574,2.716 10.037,2.983" style="fill:rgb(247,247,208);fill-rule:nonzero;"/>
        </g>
        <g transform="matrix(4.166667,0,0,4.166667,1814.641667,213.540417)">
            <path d="M0,0.518C-0.256,0.488 -0.513,0.471 -0.771,0.468C-0.821,0.466 -0.869,0.465 -0.919,0.465C-1.112,0.465 -1.305,0.472 -1.5,0.484C-1.264,0.319 -1.024,0.158 -0.783,0C-0.584,0.122 -0.383,0.252 -0.182,0.391C-0.121,0.433 -0.061,0.475 0,0.518" style="fill:rgb(247,247,208);fill-rule:nonzero;"/>
        </g>
        <g transform="matrix(1.078154,4.02476,4.02476,-1.078154,1800.434929,208.576216)">
            <path d="M1.831,-0.956C1.504,-0.229 1.21,0.51 0.944,1.262C1.209,1.598 1.504,1.918 1.831,2.229C1.921,1.955 2.014,1.682 2.113,1.411C1.956,0.642 1.882,-0.156 1.831,-0.956" style="fill:rgb(170,165,124);fill-rule:nonzero;"/>
        </g>
        <g transform="matrix(4.166667,0,0,4.166667,1829.366667,210.1575)">
            <path d="M0,2.727C-1.094,1.789 -2.068,0.951 -3.065,0.26C-3.122,0.221 -3.18,0.182 -3.237,0.142C-3.156,0.095 -3.073,0.047 -2.991,0C-2.014,1.002 -0.958,1.879 0.111,2.55L0,2.727Z" style="fill:rgb(247,247,208);fill-rule:nonzero;"/>
        </g>
        <g transform="matrix(3.653877,-2.002571,-2.002571,-3.653877,1816.665631,209.618426)">
            <path d="M-0.296,-0.148C-0.499,0.243 -0.717,0.618 -0.956,0.977C-0.735,0.988 -0.516,0.998 -0.296,1.003C-0.212,0.618 -0.117,0.235 -0.012,-0.141C-0.106,-0.142 -0.203,-0.145 -0.296,-0.148" style="fill:rgb(170,165,124);fill-rule:nonzero;"/>
        </g>
        <g transform="matrix(4.166667,0,0,4.166667,1949.6625,248.315)">
            <path d="M0,8.832C-0.846,8.832 -1.706,8.775 -2.575,8.655C-7.924,6.304 -13.668,4.553 -16.493,3.327C-16.88,3.09 -17.303,2.881 -17.77,2.703C-18.112,2.514 -18.457,2.319 -18.801,2.121C-19.264,1.854 -19.728,1.58 -20.189,1.302C-20.566,0.851 -20.959,0.416 -21.367,0L-20.476,0.447C-18.392,1.838 -15.157,3.472 -11.786,4.428C-9.295,5.55 -6.933,6.429 -4.885,7.005C-3.226,7.471 -1.586,7.687 0,7.687L0.002,7.687C2.79,7.687 5.409,7.016 7.655,5.86C7.778,6.226 7.893,6.595 8.002,6.968C5.633,8.153 2.899,8.832 0,8.832" style="fill:rgb(247,247,208);fill-rule:nonzero;"/>
        </g>
        <g transform="matrix(3.869128,1.546273,1.546273,-3.869128,1981.804261,276.567018)">
            <path d="M0.337,-0.067C0.097,0.239 -0.146,0.539 -0.396,0.833C-0.14,1.131 0.105,1.434 0.337,1.746C0.593,1.449 0.842,1.147 1.087,0.839C0.849,0.53 0.599,0.227 0.337,-0.067" style="fill:rgb(170,165,124);fill-rule:nonzero;"/>
        </g>
        <g transform="matrix(2.02718,-3.640282,-3.640282,-2.02718,1882.797522,259.713901)">
            <path d="M-0.781,-0.476C-0.798,0.12 -0.807,0.722 -0.809,1.329L-0.781,0.682C-0.771,0.501 -0.753,0.308 -0.734,0.101C-0.742,-0.093 -0.758,-0.285 -0.781,-0.476" style="fill:rgb(247,247,208);fill-rule:nonzero;"/>
        </g>
        <g transform="matrix(4.166667,0,0,4.166667,1862.854167,210.750417)">
            <path d="M0,8.574C-0.362,8.568 -0.722,8.538 -1.079,8.479C-1.946,7.658 -2.864,6.931 -3.806,6.337L-4.265,7.068C-4.534,6.873 -4.798,6.678 -5.062,6.48C-5.615,6.064 -6.158,5.642 -6.689,5.213C-7.153,4.837 -7.589,4.472 -8.004,4.12C-9.363,2.967 -10.49,1.957 -11.571,1.188C-11.632,1.145 -11.692,1.103 -11.753,1.06C-11.954,0.922 -12.155,0.792 -12.354,0.67C-11.999,0.439 -11.64,0.215 -11.274,0C-11.217,0.039 -11.159,0.078 -11.102,0.118C-10.105,0.808 -9.131,1.647 -8.037,2.585C-7.791,2.796 -7.539,3.013 -7.279,3.234C-6.864,3.586 -6.43,3.949 -5.969,4.322C-5.437,4.753 -4.893,5.177 -4.336,5.594C-2.947,6.636 -1.489,7.634 0,8.574" style="fill:rgb(247,247,208);fill-rule:nonzero;"/>
        </g>
        <g transform="matrix(4.164898,-0.121398,-0.121398,-4.164898,1811.460309,213.535029)">
            <path d="M-0.02,-0.001C-0.397,0.245 -0.776,0.458 -1.164,0.639C-0.789,0.88 -0.407,1.114 -0.02,1.338C0.357,1.128 0.722,0.893 1.08,0.637C0.707,0.432 0.342,0.22 -0.02,-0.001" style="fill:rgb(170,165,124);fill-rule:nonzero;"/>
        </g>
        <g transform="matrix(4.166667,0,0,4.166667,1956.0875,210.97)">
            <path d="M0,7.313C-1.343,7.311 -2.768,6.844 -3.905,5.937C-5.041,5.034 -5.879,3.652 -5.938,1.915C-5.945,1.726 -5.948,1.54 -5.948,1.357C-5.948,0.888 -5.927,0.435 -5.884,0C-5.732,0.091 -5.581,0.182 -5.431,0.275C-5.511,3.661 -3.275,6.549 -0.774,6.549C-0.19,6.549 0.408,6.391 0.994,6.046C1.052,6.031 1.11,6.015 1.166,5.997C1.423,6.304 1.674,6.617 1.918,6.936C1.33,7.193 0.672,7.312 0,7.313" style="fill:rgb(247,247,208);fill-rule:nonzero;"/>
        </g>
        <g transform="matrix(4.166667,0,0,4.166667,1933.458333,233.622083)">
            <path d="M0,-5.161C-0.15,-5.254 -0.301,-5.345 -0.453,-5.436C-0.412,-5.861 -0.351,-6.269 -0.27,-6.66C-0.133,-6.582 0.004,-6.503 0.138,-6.422C0.056,-5.998 0.011,-5.575 0,-5.161M7.349,1.499C7.105,1.18 6.854,0.868 6.597,0.56C6.926,0.456 7.218,0.304 7.456,0.109C7.508,0.067 7.558,0.022 7.606,-0.026C7.849,0.27 8.089,0.572 8.321,0.877C8.274,0.919 8.226,0.959 8.176,1C7.923,1.203 7.644,1.369 7.349,1.499" style="fill:rgb(170,165,124);fill-rule:nonzero;"/>
        </g>
        <g transform="matrix(4.166667,0,0,4.166667,1922.4375,241.27375)">
            <path d="M0,6.934C-1.692,6.934 -3.491,6.619 -5.252,6.118C-8.623,5.162 -11.858,3.528 -13.942,2.137L-14.833,1.69C-15.013,1.507 -15.195,1.328 -15.379,1.153C-15.022,1.213 -14.662,1.243 -14.3,1.248C-14.25,1.25 -14.201,1.25 -14.151,1.25C-12.108,1.25 -10.003,0.536 -8.031,0.276C-8.951,1.018 -8.999,1.62 -10.63,2.17C-10.547,2.179 -10.459,2.185 -10.368,2.185C-9.391,2.185 -7.985,1.639 -6.567,1.092C-5.151,0.546 -3.723,0 -2.703,0C-2.287,0 -1.938,0.091 -1.685,0.311C0.449,2.162 -3.506,3.696 -5.732,3.696C-5.882,3.696 -6.025,3.689 -6.156,3.674C-5.216,3.842 -4.296,3.91 -3.388,3.91C-0.022,3.91 3.176,2.979 6.586,2.764L7.004,3.559C5.447,6.024 2.878,6.934 0,6.934" style="fill:rgb(247,247,208);fill-rule:nonzero;"/>
        </g>
        <g transform="matrix(4.166667,0,0,4.166667,1933.770833,262.1775)">
            <path d="M0,17.379C-4.071,15.194 -5.043,9.909 -7.063,7.286C-8.864,4.947 -9.796,2.068 -12.198,0.322C-12.353,0.21 -12.513,0.102 -12.679,0C-9.854,1.226 -4.11,2.977 1.239,5.328C6.513,7.645 11.402,10.543 12.738,14.096C12.624,15.192 12.446,16.269 12.208,17.322C9.136,17.22 6.628,14.659 5.273,13.568C1.505,10.549 2.715,9.207 -2.439,8.028C0.035,10.026 -0.102,14.196 0,17.379" style="fill:rgb(247,247,208);fill-rule:nonzero;"/>
        </g>
        <g transform="matrix(4.143342,0.440262,0.440262,-4.143342,1984.713419,334.184308)">
            <path d="M0.172,-0.024C0.11,-0.031 0.048,-0.037 -0.014,-0.042C0.112,1.03 0.175,2.12 0.172,3.222C0.658,2.255 0.863,1.203 0.712,0.059C0.531,0.022 0.351,-0.005 0.172,-0.024" style="fill:rgb(170,165,124);fill-rule:nonzero;"/>
        </g>
        <g transform="matrix(4.166667,0,0,4.166667,1880.941667,259.473333)">
            <path d="M0,0.649C-0.19,0.566 -0.367,0.487 -0.53,0.409L-1.109,0.119L-1.343,0C-1.321,0.009 -1.298,0.017 -1.277,0.025C-0.81,0.203 -0.387,0.412 0,0.649" style="fill:rgb(247,247,208);fill-rule:nonzero;"/>
        </g>
        <g transform="matrix(4.166667,0,0,4.166667,1850.116667,237.155833)">
            <path d="M0,18.633C-0.603,18.386 -1.123,18.001 -1.531,17.533C-2.263,16.699 -2.666,15.608 -2.668,14.503C-2.678,13.046 -1.921,11.533 -0.29,10.734C0.23,10.476 0.757,10.356 1.255,10.356L1.257,10.356C2.091,10.356 2.829,10.684 3.359,11.179C3.887,11.672 4.226,12.342 4.23,13.061C4.231,13.189 4.219,13.318 4.196,13.446C4.081,12.426 3.146,11.291 2.101,10.905C1.873,10.822 1.626,10.782 1.369,10.782C-0.185,10.782 -2.057,12.247 -1.889,14.27C-1.671,16.884 0.241,18.065 2.241,18.065C3.998,18.065 5.823,17.151 6.617,15.499L6.696,14.715C6.623,14.861 6.545,14.999 6.464,15.129C6.654,14.624 6.746,14.056 6.747,13.426C6.753,11.465 5.805,8.989 4.296,6.698C2.794,4.403 0.743,2.287 -1.359,0.969L-1.246,0.79L-1.208,0.73L-0.749,0C0.193,0.594 1.111,1.321 1.978,2.141C2.162,2.316 2.344,2.496 2.524,2.679C2.932,3.094 3.325,3.529 3.702,3.98C3.844,4.15 3.985,4.324 4.122,4.499C4.523,5.009 4.902,5.535 5.254,6.07C6.838,8.492 7.887,11.111 7.892,13.426C7.896,14.866 7.464,16.217 6.448,17.212C5.869,17.78 5.12,18.22 4.198,18.515C3.62,18.417 3.03,18.368 2.437,18.368C1.627,18.37 0.808,18.459 0,18.633" style="fill:rgb(247,247,208);fill-rule:nonzero;"/>
        </g>
        <g transform="matrix(1.228435,3.981464,3.981464,-1.228435,1936.219978,234.671527)">
            <path d="M2,3.563C1.263,1.173 -2.156,-0.112 -5.367,0.962C-3.167,2.88 -0.676,4.43 2,5.561C2.015,5.507 2.029,5.454 2.041,5.401C2.198,4.739 2.172,4.121 2,3.563" style="fill:rgb(247,247,208);fill-rule:nonzero;"/>
        </g>
        <g transform="matrix(4.166667,0,0,4.166667,1960.816667,206.865417)">
            <path d="M0,6.945C-1.869,4.721 -4.085,2.798 -6.566,1.261C-6.555,0.846 -6.51,0.424 -6.428,0C-4.859,0.929 -3.39,2.005 -2.034,3.209C-1.82,3.463 -1.574,3.692 -1.299,3.885C-0.528,4.618 0.202,5.396 0.886,6.211C0.596,6.509 0.301,6.752 0,6.945" style="fill:rgb(170,165,124);fill-rule:nonzero;"/>
        </g>
        <g transform="matrix(4.166667,0,0,4.166667,1859.454167,282.07875)">
            <path d="M0,7.283C-2,7.283 -3.912,6.102 -4.13,3.488C-4.298,1.465 -2.426,0 -0.872,0C-0.615,0 -0.368,0.041 -0.14,0.123C0.905,0.509 1.84,1.645 1.955,2.664C2.053,3.534 1.555,4.319 0.019,4.481C0.13,3.974 0.308,2.25 -0.795,2.25C-0.882,2.25 -0.978,2.26 -1.082,2.283C-2.492,2.597 -2.31,4.8 -1.033,5.606C-0.456,5.97 0.28,6.201 1.045,6.2C2.186,6.2 3.389,5.689 4.223,4.348C4.304,4.218 4.382,4.08 4.455,3.933L4.376,4.717C3.582,6.369 1.757,7.283 0,7.283" style="fill:rgb(247,247,208);fill-rule:nonzero;"/>
        </g>
        <g transform="matrix(4.166667,0,0,4.166667,1879.483333,398.114167)">
            <path d="M0,5.781C-4.015,5.781 -7.711,4.481 -10.558,2.337C-10.293,2.061 -10.045,1.771 -9.811,1.466C-7.174,3.431 -3.74,4.637 0,4.636C1.585,4.636 3.225,4.42 4.886,3.954C6.933,3.377 9.295,2.497 11.785,1.376C13.103,1.002 14.4,0.525 15.615,0C15.036,0.461 14.439,0.9 13.823,1.314C10.769,2.431 6.562,3.85 2.574,5.604C1.705,5.723 0.846,5.781 0,5.781" style="fill:rgb(247,247,208);fill-rule:nonzero;"/>
        </g>
        <g transform="matrix(4.166667,0,0,4.166667,1946.225,393.133333)">
            <path d="M0,1.789C0.155,1.676 0.317,1.568 0.486,1.465C0.672,1.384 0.845,1.306 1.004,1.23L1.573,0.946C1.048,1.236 0.523,1.516 0,1.789M-2.195,2.509C-1.579,2.095 -0.982,1.657 -0.403,1.195C0.987,0.593 2.272,-0.073 3.358,-0.72C2.861,-0.188 2.345,0.323 1.808,0.816C1.787,0.827 1.766,0.839 1.744,0.851C1.285,1.025 0.868,1.232 0.486,1.465C-0.234,1.778 -1.147,2.126 -2.195,2.509" style="fill:rgb(170,165,124);fill-rule:nonzero;"/>
        </g>
        <g transform="matrix(4.166667,0,0,4.166667,1827.891667,335.333333)">
            <path d="M0,14.073C-0.012,14.055 -0.026,14.035 -0.04,14.016C-0.025,14.034 -0.011,14.052 0.004,14.07C0.003,14.071 0.001,14.072 0,14.073M-0.805,14.891C-2.685,12.597 -3.806,9.79 -3.806,6.775C-3.806,4.753 -3.301,2.646 -2.202,0.557C-1.944,0.07 -1.649,-0.389 -1.321,-0.818C-1.079,-0.638 -0.843,-0.451 -0.614,-0.258C-1.397,0.604 -2.021,1.586 -2.421,2.664C-3.423,5.369 -3.05,8.081 -1.984,10.582C-1.634,11.539 -1.157,12.451 -0.568,13.303C-0.452,13.633 -0.322,13.958 -0.177,14.273C-0.376,14.49 -0.585,14.697 -0.805,14.891" style="fill:rgb(247,247,208);fill-rule:nonzero;"/>
        </g>
        <g transform="matrix(4.166667,0,0,4.166667,1873.0625,313.689583)">
            <path d="M0,15.56C-1.01,15.56 -1.991,15.293 -2.747,14.683C-3.504,14.078 -3.986,13.111 -3.978,11.924C-3.978,11.719 -3.965,11.508 -3.938,11.29C-3.902,11 -3.656,10.788 -3.37,10.788C-3.347,10.788 -3.323,10.789 -3.299,10.793C-2.986,10.832 -2.763,11.117 -2.802,11.431C-2.813,11.528 -2.823,11.621 -2.827,11.711C-3.004,11.673 -3.186,11.625 -3.37,11.563C-3.177,11.93 -2.976,12.261 -2.769,12.56C-2.653,13.106 -2.389,13.495 -2.026,13.794C-1.748,14.02 -1.397,14.19 -0.999,14.293C-0.411,14.639 0.189,14.798 0.773,14.798C3.865,14.798 6.55,10.388 4.957,6.079C3.655,2.554 0.629,1.059 -2.616,1.059C-3.639,1.059 -4.683,1.207 -5.704,1.487C-6.362,1.658 -7.008,1.893 -7.627,2.187C-8.725,2.687 -9.75,3.343 -10.637,4.13C-10.889,3.915 -11.149,3.706 -11.415,3.505C-9.826,1.846 -7.712,0.74 -5.507,0.265C-4.699,0.091 -3.88,0.002 -3.07,0C-2.477,0 -1.887,0.049 -1.309,0.146C0.358,0.43 1.926,1.133 3.182,2.313C4.874,3.9 5.949,6.338 5.944,9.604C5.944,9.788 5.941,9.973 5.934,10.162C5.877,11.9 5.04,13.282 3.904,14.185C2.767,15.092 1.343,15.558 0,15.56" style="fill:rgb(247,247,208);fill-rule:nonzero;"/>
        </g>
        <g transform="matrix(4.166667,0,0,4.166667,1906.704167,378.350833)">
            <path d="M0,6.934C-2.876,6.934 -5.447,6.024 -7.004,3.56L-6.588,2.766C-3.178,2.981 0.021,3.911 3.389,3.911C4.301,3.911 5.222,3.843 6.165,3.675C6.031,3.69 5.887,3.697 5.736,3.697C3.507,3.697 -0.447,2.164 1.686,0.312C1.938,0.092 2.288,0 2.705,0C3.725,0 5.153,0.547 6.57,1.093C7.986,1.641 9.392,2.187 10.368,2.187C10.459,2.187 10.547,2.183 10.631,2.172C9.001,1.622 8.952,1.018 8.036,0.278C9.571,0.481 11.188,0.96 12.794,1.161C11.672,2.468 10.429,3.667 9.082,4.743C7.867,5.268 6.57,5.745 5.252,6.119C3.492,6.62 1.693,6.934 0,6.934" style="fill:rgb(247,247,208);fill-rule:nonzero;"/>
        </g>
        <g transform="matrix(4.166667,0,0,4.166667,1944.545833,383.188333)">
            <path d="M0,3.582C1.347,2.506 2.59,1.307 3.712,0C4.166,0.057 4.62,0.092 5.071,0.092L5.133,0.092C4.695,0.634 4.238,1.159 3.761,1.667C2.675,2.314 1.39,2.98 0,3.582" style="fill:rgb(170,165,124);fill-rule:nonzero;"/>
        </g>
        <g transform="matrix(4.166667,0,0,4.166667,1889.291667,403.59125)">
            <path d="M0,4.386C0.074,4.354 0.146,4.322 0.22,4.289C4.208,2.536 8.415,1.117 11.469,0C8.102,2.266 4.202,3.804 0,4.386" style="fill:rgb(247,247,208);fill-rule:nonzero;"/>
        </g>
        <g transform="matrix(4.166667,0,0,4.166667,1877.045833,399.2375)">
            <path d="M0,6.829C0.95,6.341 1.937,5.875 2.939,5.431C7.141,4.849 11.041,3.311 14.408,1.044C15.456,0.661 16.369,0.313 17.089,0C16.92,0.103 16.758,0.211 16.603,0.324C15.86,0.863 15.259,1.508 14.729,2.212C10.472,4.996 5.425,6.671 0,6.829" style="fill:rgb(170,165,124);fill-rule:nonzero;"/>
        </g>
        <g transform="matrix(4.166667,0,0,4.166667,1953.629167,396.563333)">
            <path d="M0,0.02C0.004,0.016 0.007,0.014 0.011,0.012C0.02,0.007 0.03,0.004 0.041,0L0,0.02Z" style="fill:rgb(220,207,151);fill-rule:nonzero;"/>
        </g>
        <g transform="matrix(4.166667,0,0,4.166667,1948.25,396.614583)">
            <path d="M0,0.629C0.382,0.397 0.799,0.189 1.258,0.016C1.273,0.01 1.287,0.004 1.302,0C1.298,0.002 1.295,0.004 1.291,0.008L0.518,0.394C0.359,0.47 0.186,0.548 0,0.629" style="fill:rgb(170,165,124);fill-rule:nonzero;"/>
        </g>
        <g transform="matrix(4.166667,0,0,4.166667,1876.283333,337.56125)">
            <path d="M0,9.069C-0.584,9.069 -1.184,8.91 -1.772,8.564C-2.384,8.203 -2.985,7.636 -3.542,6.831C-3.749,6.532 -3.95,6.2 -4.143,5.833C-3.959,5.895 -3.777,5.944 -3.6,5.982C-3.295,6.046 -3.001,6.076 -2.718,6.076C1.737,6.076 3.273,-1.449 -3.743,-1.696C-3.864,-1.7 -3.981,-1.702 -4.1,-1.702C-6.345,-1.702 -8.169,-0.942 -9.561,0.286C-10.097,-0.368 -10.695,-0.981 -11.348,-1.545C-11.369,-1.563 -11.389,-1.582 -11.41,-1.599C-10.523,-2.386 -9.498,-3.042 -8.4,-3.543C-7.777,-3.828 -7.133,-4.062 -6.477,-4.242C-5.456,-4.522 -4.412,-4.67 -3.389,-4.67C-0.144,-4.67 2.882,-3.176 4.184,0.35C5.777,4.658 3.092,9.069 0,9.069M-12.239,12.605C-12.759,11.785 -13.221,10.93 -13.598,10.047C-14.664,7.547 -15.037,4.834 -14.035,2.129C-13.636,1.051 -13.011,0.069 -12.228,-0.792C-12.184,-0.754 -12.141,-0.718 -12.097,-0.68C-11.462,-0.129 -10.883,0.47 -10.37,1.107C-12.888,4.036 -13.54,8.73 -12.239,12.605M-11.791,13.739C-11.936,13.423 -12.066,13.099 -12.182,12.768C-12.202,12.714 -12.22,12.66 -12.239,12.605C-12.051,12.902 -11.855,13.194 -11.654,13.481C-11.64,13.5 -11.626,13.52 -11.614,13.538C-11.671,13.606 -11.731,13.673 -11.791,13.739" style="fill:rgb(247,247,208);fill-rule:nonzero;"/>
        </g>
        <g transform="matrix(3.811842,1.682548,1.682548,-3.811842,1772.747582,411.019752)">
            <path d="M0.146,-0.034C0.048,0.007 -0.048,0.05 -0.143,0.095C-0.043,0.29 0.053,0.486 0.146,0.684C0.244,0.644 0.346,0.607 0.445,0.573C0.35,0.368 0.249,0.167 0.146,-0.034" style="fill:rgb(170,165,124);fill-rule:nonzero;"/>
        </g>
        <g transform="matrix(4.166667,0,0,4.166667,1801.975,350.18375)">
            <path d="M0,6.554C-0.025,6.554 -0.049,6.553 -0.072,6.549C-0.386,6.51 -0.609,6.225 -0.57,5.911C-0.557,5.815 -0.549,5.721 -0.544,5.631C-0.366,5.668 -0.186,5.717 -0.002,5.778C-0.195,5.413 -0.395,5.081 -0.602,4.782C-0.717,4.235 -0.982,3.847 -1.344,3.548C-1.622,3.322 -1.973,3.153 -2.372,3.049C-2.959,2.703 -3.558,2.545 -4.143,2.545C-5.042,2.545 -5.906,2.918 -6.641,3.553C-6.756,3.349 -6.869,3.144 -6.978,2.937C-5.895,2.176 -4.597,1.784 -3.368,1.782C-2.358,1.783 -1.378,2.05 -0.624,2.659C0.133,3.263 0.614,4.23 0.607,5.415C0.607,5.621 0.593,5.834 0.567,6.052C0.53,6.342 0.284,6.554 0,6.554M6.384,15.251C5.974,15.075 5.571,14.89 5.173,14.695C7.31,13.502 9.074,11.696 9.892,9.485C10.898,6.768 10.519,4.044 9.441,1.535C9.094,0.592 8.622,-0.309 8.041,-1.15C7.565,-2.503 6.85,-3.75 5.889,-4.781L5.683,-4.172C6.323,-3.448 6.945,-2.671 7.519,-1.854C7.501,-1.877 7.483,-1.9 7.464,-1.922C6.951,-2.56 6.372,-3.158 5.737,-3.709C5.693,-3.747 5.65,-3.784 5.606,-3.822C5.377,-4.015 5.141,-4.202 4.899,-4.382C2.263,-6.348 -1.17,-7.553 -4.907,-7.553C-6.493,-7.553 -8.135,-7.336 -9.795,-6.868C-9.862,-6.849 -9.929,-6.831 -9.995,-6.811C-10.02,-7.022 -10.04,-7.231 -10.059,-7.443C-9.203,-7.786 -8.343,-8.145 -7.493,-8.518C-6.62,-8.639 -5.756,-8.697 -4.907,-8.697C-0.893,-8.696 2.799,-7.397 5.646,-5.253C5.912,-5.053 6.172,-4.844 6.424,-4.628C6.445,-4.611 6.465,-4.593 6.486,-4.574C7.139,-4.01 7.737,-3.397 8.273,-2.744C10.156,-0.448 11.276,2.36 11.276,5.376C11.278,7.399 10.771,9.506 9.672,11.593C9.415,12.081 9.119,12.54 8.791,12.969C8.557,13.274 8.309,13.564 8.044,13.84C7.539,14.367 6.981,14.838 6.384,15.251" style="fill:rgb(247,247,208);fill-rule:nonzero;"/>
        </g>
        <g transform="matrix(4.166667,0,0,4.166667,1755.6625,414.530833)">
            <path d="M0,-21.914C-0.022,-22.091 -0.041,-22.268 -0.059,-22.447C-0.04,-22.268 -0.021,-22.091 0,-21.914M3.653,-11.002C3.513,-11.242 3.376,-11.486 3.243,-11.733C3.243,-11.733 3.244,-11.734 3.245,-11.735C3.378,-11.49 3.515,-11.246 3.656,-11.005C3.655,-11.004 3.653,-11.003 3.653,-11.002M16.3,0.533C15.859,0.327 15.423,0.11 14.994,-0.116C15.094,-0.159 15.194,-0.203 15.293,-0.248C15.632,-0.401 15.964,-0.567 16.288,-0.748C16.686,-0.554 17.089,-0.368 17.499,-0.192C17.114,0.073 16.713,0.315 16.3,0.533" style="fill:rgb(170,165,124);fill-rule:nonzero;"/>
        </g>
        <g transform="matrix(2.66245,-3.205069,-3.205069,-2.66245,1784.873166,336.065405)">
            <path d="M-2.361,-0.983C-3.161,0.111 -3.85,1.251 -4.527,2.389C-3.88,3.416 -3.157,4.406 -2.361,5.352C-1.219,3.482 -0.767,1.41 -1.486,-0.798L-2.361,-0.983Z" style="fill:rgb(247,247,208);fill-rule:nonzero;"/>
        </g>
        <g transform="matrix(-4.166667,0,0,4.166667,1756.483333,328.9325)">
            <path d="M-0.814,3.466L-0.812,3.466C-0.472,2.338 -0.2,1.182 0,0L-0.001,0C-0.201,1.182 -0.474,2.338 -0.814,3.466" style="fill:rgb(170,165,124);fill-rule:nonzero;"/>
        </g>
        <g transform="matrix(4.166667,0,0,4.166667,1760.15,285.920833)">
            <path d="M0,2.886C0.198,0.83 0.625,-1.159 1.253,-3.055C1.176,-0.961 0.97,1.254 0,2.886M-0.021,7.98C-0.092,7.179 -0.128,6.367 -0.128,5.548L-0.128,5.453C-0.126,4.945 -0.11,4.438 -0.082,3.937C3.876,2.815 3.097,1.457 6.587,-1.338C7.969,-2.45 10.553,-5.094 13.709,-5.094C13.889,-5.094 14.071,-5.086 14.255,-5.068C15.477,-0.015 9.325,3.926 2.545,6.906C1.695,7.278 0.835,7.637 -0.021,7.98" style="fill:rgb(247,247,208);fill-rule:nonzero;"/>
        </g>
        <g transform="matrix(4.166667,0,0,4.166667,1759.616667,278.518333)">
            <path d="M0,7.232L-0.575,7.228L0,7.23L0,7.232ZM-1.008,10.196C-1.102,9.251 -1.152,8.291 -1.152,7.321L-1.152,7.224C-1.139,3.633 -0.462,0.198 0.762,-2.963C0.763,-2.963 0.763,-2.964 0.764,-2.964C-0.461,0.197 -1.138,3.631 -1.15,7.223L-1.15,7.324C-1.15,8.293 -1.102,9.251 -1.008,10.196" style="fill:rgb(170,165,124);fill-rule:nonzero;"/>
        </g>
        <g transform="matrix(4.166667,0,0,4.166667,1774.454167,368.69)">
            <path d="M0,9.592C-0.717,8.864 -1.309,7.946 -1.724,6.821C-2.667,4.271 -2.11,1.686 -0.857,0C-0.115,1.272 0.721,2.482 1.644,3.619C1.196,4.813 1.307,6.206 2.181,7.256C1.533,8.105 0.802,8.889 0,9.592" style="fill:rgb(248,242,199);fill-rule:nonzero;"/>
        </g>
        <g transform="matrix(3.312872,2.527052,2.527052,-3.312872,1773.000163,406.051841)">
            <path d="M0.974,-0.324C0.869,-0.313 0.762,-0.301 0.657,-0.286C0.868,0.76 0.974,1.826 0.974,2.895C1.074,2.872 1.175,2.853 1.281,2.839C1.289,1.776 1.186,0.716 0.974,-0.324" style="fill:rgb(170,165,124);fill-rule:nonzero;"/>
        </g>
        <g transform="matrix(4.166667,0,0,4.166667,1783.845833,378.23625)">
            <path d="M0,0.239C-0.846,-0.839 -1.612,-1.981 -2.29,-3.18C-1.555,-3.815 -0.691,-4.188 0.208,-4.188C0.793,-4.188 1.392,-4.03 1.979,-3.684C2.591,-3.322 3.192,-2.756 3.749,-1.951C3.956,-1.652 4.156,-1.32 4.349,-0.954C4.165,-1.015 3.985,-1.065 3.807,-1.101C3.503,-1.166 3.208,-1.197 2.925,-1.197C1.682,-1.197 0.666,-0.611 0,0.239M9.524,7.963C8.509,7.466 7.529,6.907 6.59,6.294C7.821,5.966 8.881,5.376 9.766,4.594C9.986,4.4 10.195,4.193 10.394,3.977C10.454,3.911 10.514,3.844 10.571,3.776C10.572,3.775 10.574,3.774 10.575,3.773C13.094,0.845 13.746,-3.848 12.447,-7.724C12.96,-6.914 13.418,-6.068 13.792,-5.198C14.87,-2.688 15.249,0.035 14.243,2.752C13.425,4.964 11.661,6.769 9.524,7.963" style="fill:rgb(247,247,208);fill-rule:nonzero;"/>
        </g>
        <g transform="matrix(4.166667,0,0,4.166667,1781.304167,398.951667)">
            <path d="M0,-3.644C-0.923,-4.781 -1.759,-5.99 -2.501,-7.263C-2.501,-7.264 -2.499,-7.265 -2.498,-7.266C-1.757,-5.995 -0.921,-4.785 0.002,-3.649C0.001,-3.647 0,-3.645 0,-3.644M8.836,3.622C7.695,3.017 6.598,2.338 5.556,1.591C6.134,1.552 6.682,1.46 7.2,1.322C8.139,1.936 9.119,2.494 10.134,2.991C9.81,3.172 9.478,3.338 9.139,3.491C9.039,3.535 8.937,3.579 8.836,3.622" style="fill:rgb(170,165,124);fill-rule:nonzero;"/>
        </g>
        <g transform="matrix(4.166667,0,0,4.166667,1835.708333,330.262917)">
            <path d="M0,3.79C-0.186,3.498 -0.379,3.21 -0.577,2.927C-1.151,2.11 -1.773,1.333 -2.413,0.609L-2.207,0C-1.246,1.031 -0.531,2.278 -0.055,3.631C-0.037,3.684 -0.018,3.737 0,3.79" style="fill:rgb(247,247,208);fill-rule:nonzero;"/>
        </g>
        <g transform="matrix(4.166667,0,0,4.166667,1828.191667,322.852083)">
            <path d="M0,-0.933L0.141,-0.376L-5.823,1.143L-6.265,-1.164L0.361,-2.076L0.563,-1.045L0.669,-0.509L0.141,-0.376L0,-0.933L-0.565,-0.822L-0.663,-1.321L-0.098,-1.431L-0.02,-0.862L-4.907,-0.19L-4.808,0.327L-5.373,0.435L-5.516,-0.123L-0.143,-1.491L0,-0.933L-0.565,-0.822L0,-0.933Z" style="fill:rgb(138,135,79);fill-rule:nonzero;"/>
        </g>
        <g transform="matrix(4.166667,0,0,4.166667,1828.191667,322.589583)">
            <path d="M0,-0.87L-5.373,0.498L-5.586,-0.613L-0.098,-1.368" style="fill:rgb(125,110,176);fill-rule:nonzero;"/>
        </g>
        <g transform="matrix(4.166667,0,0,4.166667,1918.9125,295.201667)">
            <path d="M0,0.93L-0.143,0.373L5.812,-1.145L6.263,1.163L-0.372,2.075L-0.566,1.036L-0.665,0.505L-0.143,0.373L0,0.93L0.565,0.825L0.658,1.325L0.093,1.429L0.015,0.86L4.9,0.188L4.8,-0.327L5.365,-0.437L5.506,0.121L0.142,1.488L0,0.93L0.565,0.825L0,0.93Z" style="fill:rgb(138,135,79);fill-rule:nonzero;"/>
        </g>
        <g transform="matrix(4.166667,0,0,4.166667,1918.9125,295.46)">
            <path d="M0,0.868L5.365,-0.499L5.582,0.613L0.093,1.367" style="fill:rgb(125,110,176);fill-rule:nonzero;"/>
        </g>
        <g transform="matrix(4.166667,0,0,4.166667,1816.525,345.15625)">
            <path d="M0,-2.69L0.496,-1.651L-7.307,2.074L-8.805,-1.581L0.388,-4.764L1.481,-2.122L0.496,-1.651L0,-2.69L-1.063,-2.25L-1.324,-2.882L-0.261,-3.322L0.115,-2.234L-5.752,-0.202L-5.64,0.075L-6.704,0.511L-7.2,-0.527L-0.496,-3.728L0,-2.69L-1.063,-2.25L0,-2.69Z" style="fill:rgb(138,135,79);fill-rule:nonzero;"/>
        </g>
        <g transform="matrix(4.166667,0,0,4.166667,1816.525,344.652083)">
            <path d="M0,-2.569L-6.704,0.632L-7.279,-0.771L-0.261,-3.201" style="fill:rgb(205,81,66);fill-rule:nonzero;"/>
        </g>
        <g transform="matrix(4.166667,0,0,4.166667,1930.575,272.886667)">
            <path d="M0,2.692L-0.496,1.654L7.304,-2.076L8.799,1.584L-0.407,4.768L-1.47,2.119L-0.496,1.654L0,2.692L1.067,2.263L1.321,2.893L0.253,3.323L-0.123,2.235L5.75,0.203L5.636,-0.076L6.7,-0.511L7.197,0.526L0.497,3.73L0,2.692L1.067,2.263L0,2.692Z" style="fill:rgb(138,135,79);fill-rule:nonzero;"/>
        </g>
        <g transform="matrix(4.166667,0,0,4.166667,1930.575,273.386667)">
            <path d="M0,2.572L6.7,-0.631L7.274,0.773L0.253,3.203" style="fill:rgb(205,81,66);fill-rule:nonzero;"/>
        </g>
        <g transform="matrix(4.166667,0,0,4.166667,1835.4375,347.85125)">
            <path d="M0,-2.949L0.346,-2.489L-4.578,1.196L-5.88,-0.761L-0.096,-4.145L0.481,-3.265L0.779,-2.813L0.346,-2.489L0,-2.949L-0.479,-2.634L-0.758,-3.057L-0.278,-3.373L0.013,-2.876L-4.247,-0.384L-3.957,0.052L-4.437,0.371L-4.781,-0.091L-0.344,-3.41L0,-2.949L-0.479,-2.634L0,-2.949Z" style="fill:rgb(138,135,79);fill-rule:nonzero;"/>
        </g>
        <g transform="matrix(4.166667,0,0,4.166667,1835.4375,347.630417)">
            <path d="M0,-2.896L-4.437,0.424L-5.064,-0.52L-0.278,-3.32" style="fill:rgb(125,110,176);fill-rule:nonzero;"/>
        </g>
        <g transform="matrix(4.166667,0,0,4.166667,1911.645833,270.18375)">
            <path d="M0,2.953L-0.344,2.492L4.579,-1.193L5.879,0.766L0.102,4.146L-0.479,3.272L-0.781,2.818L-0.344,2.492L0,2.953L0.478,2.634L0.759,3.057L0.28,3.375L-0.01,2.878L4.247,0.387L3.957,-0.049L4.437,-0.367L4.782,0.093L0.345,3.413L0,2.953L0.478,2.634L0,2.953Z" style="fill:rgb(138,135,79);fill-rule:nonzero;"/>
        </g>
        <g transform="matrix(4.166667,0,0,4.166667,1911.645833,270.412917)">
            <path d="M0,2.898L4.437,-0.422L5.063,0.522L0.28,3.32" style="fill:rgb(125,110,176);fill-rule:nonzero;"/>
        </g>
        <g transform="matrix(4.166667,0,0,4.166667,1848.5,366.954167)">
            <path d="M0,-4.52L0.495,-4.227L-2.643,1.063L-4.597,-0.25L-0.552,-5.583L0.321,-4.999L0.773,-4.695L0.495,-4.227L0,-4.52L-0.32,-4.042L-0.742,-4.326L-0.422,-4.803L0.037,-4.456L-2.945,-0.526L-2.506,-0.231L-2.827,0.246L-3.322,-0.047L-0.495,-4.813L0,-4.52L-0.32,-4.042L0,-4.52Z" style="fill:rgb(138,135,79);fill-rule:nonzero;"/>
        </g>
        <g transform="matrix(4.166667,0,0,4.166667,1848.5,366.8)">
            <path d="M0,-4.483L-2.827,0.283L-3.771,-0.351L-0.422,-4.766" style="fill:rgb(125,110,176);fill-rule:nonzero;"/>
        </g>
        <g transform="matrix(4.166667,0,0,4.166667,1898.575,251.112917)">
            <path d="M0,4.514L-0.494,4.219L2.649,-1.068L4.597,0.247L0.55,5.582L-0.322,4.99L-0.771,4.685L-0.494,4.219L0,4.514L0.323,4.038L0.744,4.323L0.421,4.799L-0.037,4.452L2.946,0.52L2.511,0.226L2.832,-0.25L3.327,0.043L0.495,4.807L0,4.514L0.323,4.038L0,4.514Z" style="fill:rgb(138,135,79);fill-rule:nonzero;"/>
        </g>
        <g transform="matrix(4.166667,0,0,4.166667,1898.575,251.25875)">
            <path d="M0,4.479L2.832,-0.285L3.771,0.349L0.421,4.764" style="fill:rgb(125,110,176);fill-rule:nonzero;"/>
        </g>
        <g transform="matrix(4.166667,0,0,4.166667,1850.845833,395.259167)">
            <path d="M0,-6.791L1.085,-6.408L-1.795,1.746L-5.44,0.218L-1.189,-8.537L1.447,-7.433L1.085,-6.408L0,-6.791L-0.445,-5.73L-1.074,-5.994L-0.63,-7.055L0.406,-6.552L-2.307,-0.965L-2.029,-0.848L-2.474,0.213L-3.559,-0.17L-1.085,-7.174L0,-6.791L-0.445,-5.73L0,-6.791Z" style="fill:rgb(138,135,79);fill-rule:nonzero;"/>
        </g>
        <g transform="matrix(4.166667,0,0,4.166667,1850.845833,395.046667)">
            <path d="M0,-6.74L-2.474,0.264L-3.874,-0.323L-0.63,-7.004" style="fill:rgb(205,81,66);fill-rule:nonzero;"/>
        </g>
        <g transform="matrix(4.166667,0,0,4.166667,1896.2375,222.79125)">
            <path d="M0,6.79L-1.085,6.407L1.793,-1.746L5.441,-0.22L1.188,8.536L-1.446,7.431L-1.085,6.407L0,6.79L0.446,5.729L1.074,5.993L0.629,7.053L-0.406,6.551L2.308,0.964L2.029,0.848L2.473,-0.214L3.558,0.169L1.086,7.173L0,6.79L0.446,5.729L0,6.79Z" style="fill:rgb(138,135,79);fill-rule:nonzero;"/>
        </g>
        <g transform="matrix(4.166667,0,0,4.166667,1896.2375,222.995417)">
            <path d="M0,6.741L2.473,-0.263L3.874,0.322L0.629,7.004" style="fill:rgb(205,81,66);fill-rule:nonzero;"/>
        </g>
        <g transform="matrix(4.166667,0,0,4.166667,1865.366667,377.215)">
            <path d="M0,-5.397L0.57,-5.315L-0.307,0.773L-2.614,0.306L-0.915,-6.17L0.115,-5.961L0.647,-5.852L0.57,-5.315L0,-5.397L-0.115,-4.833L-0.611,-4.934L-0.496,-5.498L0.06,-5.352L-1.192,-0.58L-0.675,-0.475L-0.789,0.088L-1.359,0.007L-0.569,-5.479L0,-5.397L-0.115,-4.833L0,-5.397Z" style="fill:rgb(138,135,79);fill-rule:nonzero;"/>
        </g>
        <g transform="matrix(4.166667,0,0,4.166667,1865.366667,377.160833)">
            <path d="M0,-5.384L-0.789,0.101L-1.903,-0.124L-0.496,-5.485" style="fill:rgb(125,110,176);fill-rule:nonzero;"/>
        </g>
        <g transform="matrix(4.166667,0,0,4.166667,1881.720833,240.839583)">
            <path d="M0,5.395L-0.569,5.312L0.31,-0.776L2.611,-0.308L0.917,6.171L-0.116,5.959L-0.647,5.85L-0.569,5.312L0,5.395L0.116,4.831L0.615,4.934L0.498,5.497L-0.058,5.351L1.19,0.578L0.677,0.473L0.792,-0.09L1.361,-0.009L0.57,5.477L0,5.395L0.116,4.831L0,5.395Z" style="fill:rgb(138,135,79);fill-rule:nonzero;"/>
        </g>
        <g transform="matrix(4.166667,0,0,4.166667,1881.720833,240.889583)">
            <path d="M0,5.383L0.792,-0.102L1.901,0.123L0.498,5.485" style="fill:rgb(125,110,176);fill-rule:nonzero;"/>
        </g>
        <g transform="matrix(4.166667,0,0,4.166667,1883.479167,377.714167)">
            <path d="M0,-5.602L0.559,-5.743L2.076,0.216L-0.229,0.669L-1.144,-5.963L0.424,-6.271L0.559,-5.743L0,-5.602L0.111,-5.037L-0.39,-4.939L-0.5,-5.504L0.07,-5.582L0.745,-0.694L1.257,-0.796L1.369,-0.23L0.812,-0.089L-0.556,-5.459L0,-5.602L0.111,-5.037L0,-5.602Z" style="fill:rgb(138,135,79);fill-rule:nonzero;"/>
        </g>
        <g transform="matrix(4.166667,0,0,4.166667,1883.479167,377.664167)">
            <path d="M0,-5.59L1.369,-0.218L0.258,0L-0.5,-5.492" style="fill:rgb(125,110,176);fill-rule:nonzero;"/>
        </g>
        <g transform="matrix(4.166667,0,0,4.166667,1863.608333,240.344167)">
            <path d="M0,5.598L-0.557,5.741L-2.078,-0.22L0.228,-0.669L1.141,5.963L-0.422,6.267L-0.557,5.741L0,5.598L-0.11,5.034L0.388,4.938L0.497,5.502L-0.073,5.581L-0.747,0.693L-1.26,0.793L-1.371,0.228L-0.813,0.086L0.558,5.456L0,5.598L-0.11,5.034L0,5.598Z" style="fill:rgb(138,135,79);fill-rule:nonzero;"/>
        </g>
        <g transform="matrix(4.166667,0,0,4.166667,1863.608333,240.398333)">
            <path d="M0,5.585L-1.371,0.215L-0.26,0L0.497,5.489" style="fill:rgb(125,110,176);fill-rule:nonzero;"/>
        </g>
        <g transform="matrix(4.166667,0,0,4.166667,1898.470833,396.572083)">
            <path d="M0,-7.326L1.037,-7.823L4.766,-0.021L1.105,1.476L-2.076,-7.722L0.57,-8.802L1.037,-7.823L0,-7.326L0.435,-6.262L-0.197,-6.004L-0.632,-7.068L0.455,-7.444L2.485,-1.575L2.766,-1.69L3.202,-0.624L2.164,-0.128L-1.038,-6.83L0,-7.326L0.435,-6.262L0,-7.326Z" style="fill:rgb(138,135,79);fill-rule:nonzero;"/>
        </g>
        <g transform="matrix(4.166667,0,0,4.166667,1898.470833,396.367917)">
            <path d="M0,-7.277L3.202,-0.575L1.796,0L-0.632,-7.019" style="fill:rgb(205,81,66);fill-rule:nonzero;"/>
        </g>
        <g transform="matrix(4.166667,0,0,4.166667,1848.608333,221.47125)">
            <path d="M0,7.329L-1.039,7.824L-4.76,0.025L-1.108,-1.478L2.076,7.72L-0.57,8.807L-1.039,7.824L0,7.329L-0.437,6.265L0.196,6.005L0.633,7.069L-0.454,7.445L-2.485,1.578L-2.76,1.691L-3.197,0.626L-2.159,0.13L1.038,6.833L0,7.329L-0.437,6.265L0,7.329Z" style="fill:rgb(138,135,79);fill-rule:nonzero;"/>
        </g>
        <g transform="matrix(4.166667,0,0,4.166667,1848.608333,221.679583)">
            <path d="M0,7.279L-3.197,0.576L-1.796,0L0.633,7.019" style="fill:rgb(205,81,66);fill-rule:nonzero;"/>
        </g>
        <g transform="matrix(4.166667,0,0,4.166667,1900.079167,368.373333)">
            <path d="M0,-5.1L0.46,-5.444L4.146,-0.52L2.188,0.78L-1.193,-4.998L-0.319,-5.579L0.135,-5.88L0.46,-5.444L0,-5.1L0.319,-4.62L-0.103,-4.339L-0.422,-4.819L0.075,-5.109L2.565,-0.852L3.002,-1.142L3.321,-0.663L2.861,-0.318L-0.46,-4.755L0,-5.1L0.319,-4.62L0,-5.1Z" style="fill:rgb(138,135,79);fill-rule:nonzero;"/>
        </g>
        <g transform="matrix(4.166667,0,0,4.166667,1900.079167,368.223333)">
            <path d="M0,-5.064L3.321,-0.627L2.376,0L-0.422,-4.783" style="fill:rgb(125,110,176);fill-rule:nonzero;"/>
        </g>
        <g transform="matrix(4.166667,0,0,4.166667,1847.016667,249.680833)">
            <path d="M0,5.097L-0.461,5.442L-4.15,0.518L-2.187,-0.78L1.194,4.997L-0.135,5.877L-0.461,5.442L0,5.097L-0.317,4.617L0.105,4.338L0.423,4.817L-0.074,5.108L-2.566,0.85L-3.006,1.141L-3.323,0.661L-2.863,0.316L0.461,4.752L0,5.097L-0.317,4.617L0,5.097Z" style="fill:rgb(138,135,79);fill-rule:nonzero;"/>
        </g>
        <g transform="matrix(4.166667,0,0,4.166667,1847.016667,249.826667)">
            <path d="M0,5.062L-3.323,0.626L-2.376,0L0.423,4.782" style="fill:rgb(125,110,176);fill-rule:nonzero;"/>
        </g>
        <g transform="matrix(4.166667,0,0,4.166667,1912.645833,350)">
            <path d="M0,-3.825L0.295,-4.32L5.579,-1.178L4.27,0.772L-1.069,-3.274L-0.476,-4.148L-0.171,-4.597L0.295,-4.32L0,-3.825L0.477,-3.503L0.19,-3.08L-0.286,-3.403L0.061,-3.862L3.994,-0.882L4.285,-1.315L4.763,-0.994L4.469,-0.499L-0.293,-3.33L0,-3.825L0.477,-3.503L0,-3.825Z" style="fill:rgb(138,135,79);fill-rule:nonzero;"/>
        </g>
        <g transform="matrix(4.166667,0,0,4.166667,1912.645833,349.775)">
            <path d="M0,-3.771L4.763,-0.94L4.132,0L-0.286,-3.349" style="fill:rgb(125,110,176);fill-rule:nonzero;"/>
        </g>
        <g transform="matrix(4.166667,0,0,4.166667,1834.445833,268.042083)">
            <path d="M0,3.826L-0.293,4.321L-5.578,1.183L-4.273,-0.773L1.062,3.275L0.479,4.146L0.175,4.599L-0.293,4.321L0,3.826L-0.477,3.506L-0.195,3.085L0.282,3.405L-0.065,3.864L-3.995,0.882L-4.285,1.317L-4.764,0.998L-4.469,0.503L0.295,3.331L0,3.826L-0.477,3.506L0,3.826Z" style="fill:rgb(138,135,79);fill-rule:nonzero;"/>
        </g>
        <g transform="matrix(4.166667,0,0,4.166667,1834.445833,268.267083)">
            <path d="M0,3.772L-4.764,0.944L-4.134,0L0.282,3.351" style="fill:rgb(125,110,176);fill-rule:nonzero;"/>
        </g>
        <g transform="matrix(4.166667,0,0,4.166667,1931.479167,348.36)">
            <path d="M0,-3.994L0.383,-5.079L8.538,-2.198L7.009,1.448L-1.741,-2.804L-0.644,-5.442L0.383,-5.079L0,-3.994L1.062,-3.552L0.801,-2.924L-0.261,-3.366L0.242,-4.4L5.827,-1.686L5.945,-1.963L7.006,-1.519L6.622,-0.434L-0.383,-2.909L0,-3.994L1.062,-3.552L0,-3.994Z" style="fill:rgb(138,135,79);fill-rule:nonzero;"/>
        </g>
        <g transform="matrix(4.166667,0,0,4.166667,1931.479167,347.86)">
            <path d="M0,-3.874L7.006,-1.399L6.419,0L-0.261,-3.246" style="fill:rgb(205,81,66);fill-rule:nonzero;"/>
        </g>
        <g transform="matrix(4.166667,0,0,4.166667,1815.6,269.690833)">
            <path d="M0,3.993L-0.383,5.078L-8.536,2.2L-7.011,-1.449L1.735,2.804L0.647,5.442L-0.383,5.078L0,3.993L-1.063,3.555L-0.804,2.927L0.259,3.366L-0.244,4.4L-5.827,1.686L-5.943,1.964L-7.004,1.52L-6.621,0.435L0.383,2.908L0,3.993L-1.063,3.555L0,3.993Z" style="fill:rgb(138,135,79);fill-rule:nonzero;"/>
        </g>
        <g transform="matrix(4.166667,0,0,4.166667,1815.6,270.1825)">
            <path d="M0,3.875L-7.004,1.402L-6.419,0L0.259,3.248" style="fill:rgb(205,81,66);fill-rule:nonzero;"/>
        </g>
        <g transform="matrix(4.166667,0,0,4.166667,1919.25,325.39625)">
            <path d="M0,-1.967L0.081,-2.536L6.169,-1.657L5.701,0.646L-0.776,-1.05L-0.564,-2.083L-0.455,-2.613L0.081,-2.536L0,-1.967L0.564,-1.851L0.461,-1.352L-0.103,-1.469L0.043,-2.026L4.815,-0.776L4.92,-1.289L5.484,-1.175L5.401,-0.606L-0.083,-1.397L0,-1.967L0.564,-1.851L0,-1.967Z" style="fill:rgb(138,135,79);fill-rule:nonzero;"/>
        </g>
        <g transform="matrix(4.166667,0,0,4.166667,1919.25,325.125417)">
            <path d="M0,-1.902L5.484,-1.11L5.258,0L-0.103,-1.404" style="fill:rgb(125,110,176);fill-rule:nonzero;"/>
        </g>
        <g transform="matrix(4.166667,0,0,4.166667,1827.829167,292.6625)">
            <path d="M0,1.964L-0.083,2.534L-6.166,1.656L-5.703,-0.647L0.774,1.049L0.564,2.079L0.455,2.611L-0.083,2.534L0,1.964L-0.564,1.849L-0.462,1.353L0.102,1.468L-0.045,2.025L-4.815,0.775L-4.918,1.287L-5.482,1.174L-5.4,0.604L0.082,1.394L0,1.964L-0.564,1.849L0,1.964Z" style="fill:rgb(138,135,79);fill-rule:nonzero;"/>
        </g>
        <g transform="matrix(4.166667,0,0,4.166667,1827.829167,292.929167)">
            <path d="M0,1.9L-5.482,1.11L-5.258,0L0.102,1.404" style="fill:rgb(125,110,176);fill-rule:nonzero;"/>
        </g>
        <g transform="matrix(4.166667,0,0,4.166667,1836.845833,347.8725)">
            <path d="M0,1.208L-0.405,1.129L-0.181,0L0.224,0.08" style="fill:rgb(138,135,79);fill-rule:nonzero;"/>
        </g>
        <g transform="matrix(0.013662,-4.166644,-4.166644,-0.013662,1873.712513,283.602903)">
            <path d="M-6.1,-6.081C-9.471,-6.081 -12.202,-3.351 -12.201,0.022C-12.201,3.393 -9.47,6.121 -6.1,6.118C-2.73,6.119 0.001,3.389 0,0.02C0,-3.35 -2.733,-6.082 -6.1,-6.081" style="fill:rgb(212,107,138);fill-rule:nonzero;"/>
        </g>
        <g transform="matrix(4.166667,0,0,4.166667,1898.966667,308.94)">
            <path d="M0,0.039L0.576,0.04C0.563,3.722 -2.422,6.696 -6.102,6.696L-6.146,6.695L-6.123,6.12L-6.125,6.696C-9.805,6.683 -12.775,3.699 -12.776,0.024L-12.775,-0.013L-12.199,-0.001L-12.775,-0.004C-12.763,-3.682 -9.78,-6.657 -6.103,-6.657L-6.08,-6.657C-2.399,-6.644 0.574,-3.657 0.576,0.017L0.576,0.04L0,0.039L-0.575,0.045L-0.575,0.017C-0.575,-3.023 -3.038,-5.497 -6.084,-5.506L-6.081,-6.081L-6.071,-5.506L-6.103,-5.506C-9.146,-5.507 -11.616,-3.045 -11.624,-0L-11.624,0.004L-11.625,0.01L-11.625,0.024C-11.625,3.065 -9.167,5.535 -6.121,5.545L-6.1,5.545L-6.102,5.588L-6.102,5.545L-6.1,5.545L-6.102,5.588L-6.102,5.545C-3.056,5.545 -0.585,3.084 -0.575,0.037L0,0.039L-0.575,0.045L0,0.039Z" style="fill:rgb(138,135,79);fill-rule:nonzero;"/>
        </g>
        <g transform="matrix(4.166667,0,0,4.166667,1823.183333,304.712917)">
            <path d="M0,1.928L0.079,2.498L-8.789,3.713L-8.771,-1.785L0.586,-0.441L0.573,2.43L0.079,2.498L0,1.928L-0.575,1.926L-0.569,0.555L-7.625,-0.457L-7.633,2.393L-0.078,1.357L0,1.928L-0.575,1.926L0,1.928Z" style="fill:rgb(138,135,79);fill-rule:nonzero;"/>
        </g>
        <g transform="matrix(4.166667,0,0,4.166667,1823.183333,304.729583)">
            <path d="M0,1.924L-8.211,3.049L-8.198,-1.125L0.008,0.053" style="fill:rgb(191,64,99);fill-rule:nonzero;"/>
        </g>
        <g transform="matrix(4.166667,0,0,4.166667,1923.9,313.332917)">
            <path d="M0,-1.929L-0.078,-2.499L8.791,-3.713L8.771,1.784L-0.581,0.439L-0.574,-2.431L-0.078,-2.499L0,-1.929L0.575,-1.928L0.572,-0.557L7.626,0.458L7.636,-2.393L0.077,-1.358L0,-1.929L0.575,-1.928L0,-1.929Z" style="fill:rgb(138,135,79);fill-rule:nonzero;"/>
        </g>
        <g transform="matrix(4.166667,0,0,4.166667,1923.9,313.31625)">
            <path d="M0,-1.925L8.214,-3.049L8.199,1.124L-0.005,-0.055" style="fill:rgb(191,64,99);fill-rule:nonzero;"/>
        </g>
        <g transform="matrix(4.166667,0,0,4.166667,1840.575,369.725417)">
            <path d="M0,-5.39L0.458,-5.042L-4.957,2.087L-8.828,-1.812L-1.264,-7.477L0.761,-5.44L0.458,-5.042L0,-5.39L-0.409,-4.985L-1.374,-5.957L-7.079,-1.685L-5.074,0.337L-0.458,-5.739L0,-5.39L-0.409,-4.985L0,-5.39Z" style="fill:rgb(138,135,79);fill-rule:nonzero;"/>
        </g>
        <g transform="matrix(4.166667,0,0,4.166667,1840.575,369.250417)">
            <path d="M0,-5.276L-5.015,1.327L-7.954,-1.634L-1.319,-6.603" style="fill:rgb(191,64,99);fill-rule:nonzero;"/>
        </g>
        <g transform="matrix(4.166667,0,0,4.166667,1906.508333,248.317083)">
            <path d="M0,5.391L-0.458,5.044L4.955,-2.085L8.832,1.812L1.264,7.476L-0.761,5.443L-0.458,5.044L0,5.391L0.408,4.986L1.374,5.956L7.082,1.685L5.071,-0.336L0.458,5.74L0,5.391L0.408,4.986L0,5.391Z" style="fill:rgb(138,135,79);fill-rule:nonzero;"/>
        </g>
        <g transform="matrix(4.166667,0,0,4.166667,1906.508333,248.787917)">
            <path d="M0,5.278L5.014,-1.324L7.957,1.635L1.319,6.602" style="fill:rgb(191,64,99);fill-rule:nonzero;"/>
        </g>
        <g transform="matrix(4.166667,0,0,4.166667,1877.266667,393.578333)">
            <path d="M0,-8.207L0.571,-8.284L1.783,0.583L-3.714,0.565L-2.367,-8.79L0.503,-8.78L0.571,-8.284L0,-8.207L-0.002,-7.632L-1.37,-7.636L-2.386,-0.581L0.464,-0.571L-0.569,-8.129L0,-8.207L-0.002,-7.632L0,-8.207Z" style="fill:rgb(138,135,79);fill-rule:nonzero;"/>
        </g>
        <g transform="matrix(4.166667,0,0,4.166667,1877.266667,393.574167)">
            <path d="M0,-8.206L1.123,0.007L-3.05,-0.007L-1.869,-8.213" style="fill:rgb(191,64,99);fill-rule:nonzero;"/>
        </g>
        <g transform="matrix(4.166667,0,0,4.166667,1869.816667,224.464167)">
            <path d="M0,8.21L-0.57,8.288L-1.786,-0.58L3.71,-0.565L2.369,8.79L-0.502,8.784L-0.57,8.288L0,8.21L0.001,7.635L1.372,7.637L2.383,0.582L-0.466,0.574L0.571,8.132L0,8.21L0.001,7.635L0,8.21Z" style="fill:rgb(138,135,79);fill-rule:nonzero;"/>
        </g>
        <g transform="matrix(4.166667,0,0,4.166667,1869.816667,224.4725)">
            <path d="M0,8.208L-1.127,-0.004L3.046,0.007L1.87,8.212" style="fill:rgb(191,64,99);fill-rule:nonzero;"/>
        </g>
        <g transform="matrix(4.166667,0,0,4.166667,1911.779167,375.614167)">
            <path d="M0,-8.069L0.349,-8.527L7.475,-3.113L3.58,0.761L-2.083,-6.804L-0.051,-8.83L0.349,-8.527L0,-8.069L0.406,-7.66L-0.563,-6.695L3.707,-0.989L5.726,-2.997L-0.348,-7.61L0,-8.069L0.406,-7.66L0,-8.069Z" style="fill:rgb(138,135,79);fill-rule:nonzero;"/>
        </g>
        <g transform="matrix(4.166667,0,0,4.166667,1911.779167,375.143333)">
            <path d="M0,-7.956L6.6,-2.941L3.643,0L-1.323,-6.636" style="fill:rgb(191,64,99);fill-rule:nonzero;"/>
        </g>
        <g transform="matrix(4.166667,0,0,4.166667,1835.3,242.440833)">
            <path d="M0,8.067L-0.347,8.526L-7.476,3.11L-3.577,-0.762L2.087,6.805L0.051,8.829L-0.347,8.526L0,8.067L-0.405,7.66L0.566,6.693L-3.706,0.987L-5.727,2.994L0.349,7.609L0,8.067L-0.405,7.66L0,8.067Z" style="fill:rgb(138,135,79);fill-rule:nonzero;"/>
        </g>
        <g transform="matrix(4.166667,0,0,4.166667,1835.3,242.903333)">
            <path d="M0,7.956L-6.601,2.94L-3.642,0L1.327,6.637" style="fill:rgb(191,64,99);fill-rule:nonzero;"/>
        </g>
        <g transform="matrix(4.166667,0,0,4.166667,1793.8125,227.682083)">
            <path d="M0,39.044C4.914,43.859 11.622,46.838 19.042,46.863L19.135,46.863C34.19,46.863 46.425,34.684 46.475,19.615L46.475,19.519C46.476,4.462 34.294,-7.766 19.227,-7.818L19.136,-7.818C11.558,-7.818 4.7,-4.732 -0.258,0.253L-1.073,-0.558C4.089,-5.75 11.241,-8.97 19.136,-8.969L19.229,-8.969C34.933,-8.915 47.625,3.827 47.625,19.519L47.625,19.618C47.572,35.323 34.824,48.014 19.135,48.014L19.037,48.014C11.309,47.988 4.311,44.88 -0.805,39.866L0,39.044Z" style="fill:rgb(138,135,79);fill-rule:nonzero;"/>
        </g>
        <g transform="matrix(4.166667,0,0,4.166667,1792.733333,390.415)">
            <path d="M0,-38.803C-4.89,-33.879 -7.921,-27.114 -7.948,-19.626L-7.948,-19.531C-7.948,-11.886 -4.806,-4.977 0.259,-0.012L-0.546,0.81C-5.823,-4.36 -9.1,-11.567 -9.098,-19.531L-9.098,-19.63C-9.072,-27.429 -5.91,-34.487 -0.816,-39.613L0,-38.803Z" style="fill:rgb(138,135,79);fill-rule:nonzero;"/>
        </g>
        <g transform="matrix(0,4.166667,4.166667,0,1764.122917,347.537917)">
            <path d="M9.483,-9.484C4.245,-9.484 0,-5.239 0,-0C0,5.238 4.245,9.483 9.483,9.483C14.72,9.483 18.967,5.238 18.967,-0C18.967,-5.239 14.72,-9.484 9.483,-9.484" style="fill:rgb(248,181,191);fill-rule:nonzero;"/>
        </g>
        <g transform="matrix(4.166667,0,0,4.166667,1724.604167,387.056667)">
            <path d="M0.575,-0.001L-0.576,-0.001C-0.574,-5.557 3.927,-10.058 9.484,-10.059C15.039,-10.058 19.543,-5.557 19.543,-0.001C19.543,5.555 15.041,10.058 9.484,10.058C3.927,10.058 -0.574,5.555 -0.576,-0.001L0.575,-0.001C0.576,2.46 1.572,4.685 3.185,6.298C4.798,7.911 7.021,8.908 9.484,8.908C11.946,8.908 14.169,7.911 15.784,6.298C17.397,4.685 18.393,2.46 18.393,-0.001C18.393,-2.462 17.397,-4.685 15.784,-6.3C14.169,-7.912 11.946,-8.907 9.484,-8.909C7.021,-8.907 4.798,-7.912 3.184,-6.3C1.572,-4.685 0.576,-2.462 0.575,-0.001Z" style="fill:rgb(138,135,79);fill-rule:nonzero;"/>
        </g>
        <g transform="matrix(0,4.166667,4.166667,0,1718.514583,390.083333)">
            <path d="M5.839,-5.834C2.616,-5.834 0.001,-3.22 0.001,0.003C0.001,3.225 2.616,5.839 5.839,5.839C9.062,5.839 11.672,3.225 11.672,0.003C11.672,-3.22 9.062,-5.834 5.839,-5.834" style="fill:rgb(209,117,156);fill-rule:nonzero;"/>
        </g>
        <g transform="matrix(4.166667,0,0,4.166667,1694.204167,414.39375)">
            <path d="M0.576,0.004L-0.575,0.004C-0.574,-3.538 2.296,-6.408 5.837,-6.409C9.377,-6.408 12.248,-3.538 12.248,0.004C12.248,3.545 9.377,6.412 5.837,6.413C2.296,6.412 -0.574,3.545 -0.575,0.004L0.576,0.004C0.577,1.458 1.164,2.769 2.117,3.722C3.07,4.675 4.382,5.262 5.837,5.263C7.291,5.262 8.603,4.675 9.557,3.722C10.51,2.769 11.098,1.458 11.098,0.004C11.098,-1.45 10.51,-2.762 9.557,-3.716C8.603,-4.669 7.291,-5.257 5.837,-5.257C4.382,-5.257 3.072,-4.669 2.118,-3.716C1.164,-2.762 0.577,-1.45 0.576,0.004Z" style="fill:rgb(138,135,79);fill-rule:nonzero;"/>
        </g>
    </g>
</svg>
