<?xml version="1.0" encoding="UTF-8" standalone="no"?>
<!DOCTYPE svg PUBLIC "-//W3C//DTD SVG 1.1//EN" "http://www.w3.org/Graphics/SVG/1.1/DTD/svg11.dtd">
<svg width="100%" height="100%" viewBox="0 0 344 251" version="1.1" xmlns="http://www.w3.org/2000/svg" xmlns:xlink="http://www.w3.org/1999/xlink" xml:space="preserve" xmlns:serif="http://www.serif.com/" style="fill-rule:evenodd;clip-rule:evenodd;stroke-linejoin:round;stroke-miterlimit:2;">
    <g transform="matrix(1,0,0,1,-183.794583,-171.8975)">
        <g transform="matrix(4.166667,0,0,4.166667,418.834583,303.59625)">
            <path d="M-0.575,0.186L0.575,0.19C0.521,15.891 -12.222,28.584 -27.913,28.584L-28.016,28.584L-28.013,28.584C-43.714,28.53 -56.408,15.787 -56.408,0.096L-56.408,-0.004C-56.355,-15.705 -43.61,-28.396 -27.918,-28.396L-27.821,-28.396L-27.841,-28.396L-27.818,-28.396C-12.116,-28.344 0.575,-15.597 0.575,0.093L0.575,0.189L-0.575,0.187L-0.575,0.093C-0.575,-14.963 -12.754,-27.195 -27.823,-27.246L-27.801,-27.246L-27.918,-27.246C-42.975,-27.246 -55.207,-15.067 -55.258,0L-55.258,0.096C-55.258,15.153 -43.075,27.383 -28.008,27.433L-27.999,27.433L-28.005,27.433L-27.913,27.433C-12.857,27.434 -0.627,15.252 -0.575,0.186Z" style="fill:rgb(138,135,79);fill-rule:nonzero;"/>
        </g>
        <g transform="matrix(4.166667,0,0,4.166667,390.37375,376.502917)">
            <path d="M0,-34.806C-4.997,-40.853 -12.537,-44.715 -20.991,-44.742L-21.088,-44.742C-36.145,-44.743 -48.376,-32.563 -48.428,-17.497L-48.428,-17.402C-48.428,-2.346 -36.245,9.885 -21.177,9.936L-21.083,9.936C-13.162,9.936 -6.031,6.566 -1.033,1.176L-0.19,1.959C-5.393,7.573 -12.831,11.087 -21.083,11.087L-21.182,11.087L-21.181,11.087C-36.883,11.033 -49.578,-1.711 -49.579,-17.402L-49.579,-17.502C-49.524,-33.202 -36.779,-45.893 -21.088,-45.893L-20.988,-45.893C-12.18,-45.865 -4.316,-41.838 0.887,-35.539L0,-34.806Z" style="fill:rgb(138,135,79);fill-rule:nonzero;"/>
        </g>
        <g transform="matrix(0.014179,-4.166643,-4.166643,-0.014179,303.303336,187.667013)">
            <path d="M-27.916,-27.823C-43.333,-27.822 -55.832,-15.326 -55.832,0.093C-55.831,15.51 -43.335,28.011 -27.916,28.011C-12.499,28.011 -0.002,15.513 -0.002,0.093C-0.002,-15.325 -12.499,-27.822 -27.916,-27.823" style="fill:rgb(245,244,185);fill-rule:nonzero;"/>
        </g>
        <g transform="matrix(4.166667,0,0,4.166667,286.144583,186.1325)">
            <path d="M0,0.293C0.002,0.217 0.005,0.14 0.007,0.063C0.171,0.04 0.336,0.019 0.501,0C0.339,0.102 0.173,0.201 0,0.293" style="fill:rgb(170,165,124);fill-rule:nonzero;"/>
        </g>
        <g transform="matrix(3.477757,-2.294846,-2.294846,-3.477757,220.551722,221.045669)">
            <path d="M-0.145,-0.041C-0.193,0.127 -0.241,0.294 -0.287,0.457C-0.239,0.467 -0.193,0.477 -0.145,0.487C-0.084,0.338 -0.02,0.19 0.046,0.045L-0.145,-0.041Z" style="fill:rgb(170,165,124);fill-rule:nonzero;"/>
        </g>
        <g transform="matrix(4.166667,0,0,4.166667,273.750417,269.905833)">
            <path d="M0,-1.529C-0.535,-1.808 -1.071,-2.095 -1.607,-2.391L-1.018,-2.095C-0.854,-2.016 -0.675,-1.935 -0.483,-1.852C-0.315,-1.749 -0.155,-1.642 0,-1.529M16.004,3.65C15.158,3.65 14.299,3.593 13.43,3.473C8.084,1.123 2.344,-0.627 -0.483,-1.852C-0.873,-2.091 -1.298,-2.302 -1.767,-2.48C-2.11,-2.671 -2.453,-2.864 -2.796,-3.061C-3.259,-3.328 -3.722,-3.6 -4.183,-3.879C-4.559,-4.329 -4.951,-4.764 -5.359,-5.179L-4.472,-4.735C-2.388,-3.345 0.846,-1.711 4.216,-0.753C6.708,0.367 9.071,1.248 11.119,1.823C12.779,2.289 14.419,2.505 16.004,2.505L16.007,2.505C19.746,2.505 23.18,1.3 25.816,-0.666C26.048,-0.36 26.298,-0.07 26.562,0.205C23.715,2.35 20.02,3.65 16.004,3.65" style="fill:rgb(247,247,208);fill-rule:nonzero;"/>
        </g>
        <g transform="matrix(4.166667,0,0,4.166667,402.877917,194.84125)">
            <path d="M0,4.022C-0.054,3.843 -0.115,3.663 -0.182,3.484C-0.581,2.404 -1.205,1.421 -1.987,0.56C-1.759,0.367 -1.525,0.18 -1.282,0C-0.955,0.43 -0.659,0.887 -0.403,1.374C-0.024,2.092 0.283,2.813 0.525,3.531C0.345,3.691 0.171,3.854 0,4.022" style="fill:rgb(220,207,151);fill-rule:nonzero;"/>
        </g>
        <g transform="matrix(4.166667,0,0,4.166667,404.84875,216.279583)">
            <path d="M0,6.598C-0.242,6.188 -0.494,5.786 -0.755,5.39C-0.212,3.855 0.049,2.252 -0.119,0.629C0.076,0.414 0.277,0.204 0.483,0C0.649,0.825 0.729,1.643 0.729,2.447C0.729,3.889 0.473,5.284 0,6.598" style="fill:rgb(248,242,199);fill-rule:nonzero;"/>
        </g>
        <g transform="matrix(3.693708,1.928116,1.928116,-3.693708,403.521006,218.135372)">
            <path d="M0.263,-0.071C0.186,0.045 0.107,0.16 0.025,0.272C0.096,0.536 0.177,0.798 0.263,1.058C0.345,0.962 0.427,0.864 0.505,0.766C0.417,0.49 0.335,0.21 0.263,-0.071" style="fill:rgb(170,165,124);fill-rule:nonzero;"/>
        </g>
        <g transform="matrix(4.166667,0,0,4.166667,395.384167,244.26875)">
            <path d="M0,3.846C-0.221,3.651 -0.43,3.446 -0.628,3.229C-0.483,2.913 -0.352,2.588 -0.236,2.257C0.257,1.543 0.671,0.789 0.998,0C1.243,0.398 1.479,0.802 1.703,1.213C1.243,2.146 0.67,3.029 0,3.846" style="fill:rgb(247,247,208);fill-rule:nonzero;"/>
        </g>
        <g transform="matrix(3.53546,-2.204911,-2.204911,-3.53546,405.938969,242.56412)">
            <path d="M-0.377,-0.108C-0.366,0.367 -0.367,0.842 -0.378,1.315L-0.377,1.317C-0.365,0.843 -0.363,0.368 -0.376,-0.107C-0.376,-0.107 -0.377,-0.108 -0.377,-0.108" style="fill:rgb(170,165,124);fill-rule:nonzero;"/>
        </g>
        <g transform="matrix(4.166667,0,0,4.166667,392.022917,256.659167)">
            <path d="M0,0.054C-0.001,0.053 -0.002,0.053 -0.002,0.052C0.01,0.035 0.024,0.017 0.038,0C0.025,0.018 0.013,0.037 0,0.054" style="fill:rgb(247,247,208);fill-rule:nonzero;"/>
        </g>
        <g transform="matrix(4.166667,0,0,4.166667,346.862917,192.9575)">
            <path d="M0,11.636C-1.343,11.634 -2.767,11.167 -3.904,10.26C-5.039,9.357 -5.877,7.975 -5.935,6.238C-5.942,6.048 -5.946,5.862 -5.946,5.678C-5.949,3.369 -5.412,1.474 -4.499,0C-4.296,0.047 -4.091,0.097 -3.888,0.147C-4.315,0.725 -4.678,1.391 -4.959,2.153C-6.552,6.461 -3.864,10.872 -0.773,10.872C-0.189,10.872 0.41,10.714 0.995,10.369C1.395,10.265 1.747,10.095 2.024,9.869C2.387,9.569 2.651,9.182 2.768,8.635C2.973,8.336 3.175,8.004 3.368,7.637C3.184,7.698 3.003,7.748 2.825,7.785C2.82,7.695 2.812,7.602 2.8,7.505C2.762,7.191 2.984,6.906 3.298,6.867C3.322,6.863 3.345,6.862 3.368,6.862C3.654,6.862 3.9,7.075 3.937,7.365C3.963,7.582 3.977,7.794 3.977,7.999C3.984,9.186 3.503,10.153 2.746,10.758C1.991,11.368 1.01,11.635 0,11.636" style="fill:rgb(247,247,208);fill-rule:nonzero;"/>
        </g>
        <g transform="matrix(4.166667,0,0,4.166667,313.219583,241.27375)">
            <path d="M0,6.934C-1.694,6.934 -3.493,6.619 -5.256,6.118C-8.627,5.161 -11.859,3.527 -13.943,2.137L-14.83,1.693C-15.011,1.51 -15.194,1.329 -15.379,1.154C-15.022,1.213 -14.662,1.243 -14.3,1.248C-14.251,1.25 -14.203,1.25 -14.155,1.25C-12.111,1.25 -10.005,0.536 -8.033,0.276C-8.953,1.018 -9,1.62 -10.631,2.17C-10.547,2.179 -10.459,2.185 -10.368,2.185C-9.391,2.185 -7.986,1.639 -6.569,1.092C-5.153,0.546 -3.725,0 -2.703,0C-2.285,0 -1.937,0.091 -1.682,0.311C0.449,2.162 -3.505,3.696 -5.733,3.696C-5.885,3.696 -6.027,3.689 -6.161,3.674C-5.22,3.842 -4.299,3.91 -3.39,3.91C-0.024,3.91 3.176,2.979 6.587,2.764L7.004,3.559C5.446,6.024 2.878,6.934 0,6.934" style="fill:rgb(247,247,208);fill-rule:nonzero;"/>
        </g>
        <g transform="matrix(4.166667,0,0,4.166667,271.737083,331.879167)">
            <path d="M0,-16.726C-0.192,-16.809 -0.371,-16.89 -0.535,-16.969L-1.124,-17.265L-1.347,-17.377C-1.327,-17.369 -1.305,-17.361 -1.284,-17.353C-0.815,-17.176 -0.39,-16.964 0,-16.726M12.676,0.651C8.605,-1.535 7.633,-6.82 5.611,-9.442C3.813,-11.779 2.881,-14.656 0.483,-16.403C0.328,-16.515 0.168,-16.623 0,-16.726C2.827,-15.5 8.567,-13.75 13.913,-11.4C20.691,-8.423 26.835,-4.483 25.613,0.569C25.43,0.587 25.249,0.595 25.068,0.595C21.913,0.595 19.332,-2.048 17.946,-3.16C14.18,-6.18 15.389,-7.522 10.237,-8.7C12.709,-6.702 12.571,-2.532 12.676,0.651" style="fill:rgb(247,247,208);fill-rule:nonzero;"/>
        </g>
        <g transform="matrix(4.166667,0,0,4.166667,240.888333,237.155833)">
            <path d="M0,18.633C-0.603,18.386 -1.123,18.001 -1.53,17.533C-2.261,16.699 -2.665,15.608 -2.667,14.502C-2.678,13.046 -1.92,11.533 -0.29,10.734C0.23,10.476 0.758,10.356 1.256,10.356L1.259,10.356C2.092,10.356 2.83,10.684 3.359,11.178C3.887,11.672 4.228,12.341 4.23,13.06C4.231,13.188 4.221,13.316 4.198,13.442C4.082,12.424 3.148,11.289 2.104,10.905C1.875,10.822 1.627,10.782 1.371,10.782C-0.184,10.782 -2.055,12.247 -1.887,14.27C-1.67,16.884 0.244,18.065 2.243,18.065C4.001,18.065 5.825,17.151 6.62,15.499L6.698,14.715C6.624,14.864 6.544,15.004 6.462,15.136C6.655,14.629 6.747,14.058 6.748,13.425C6.755,11.464 5.805,8.988 4.298,6.697C2.795,4.403 0.745,2.287 -1.357,0.969L-1.244,0.79L-1.206,0.73L-0.747,0C0.196,0.594 1.114,1.321 1.98,2.142C2.166,2.317 2.348,2.498 2.528,2.681C2.936,3.096 3.328,3.531 3.704,3.981C3.847,4.151 3.986,4.324 4.124,4.499C4.525,5.008 4.903,5.534 5.255,6.07C6.839,8.492 7.887,11.111 7.893,13.425C7.896,14.865 7.465,16.215 6.449,17.211C5.87,17.78 5.121,18.22 4.198,18.515C3.62,18.417 3.03,18.368 2.438,18.368C1.627,18.37 0.808,18.459 0,18.633" style="fill:rgb(247,247,208);fill-rule:nonzero;"/>
        </g>
        <g transform="matrix(4.166667,0,0,4.166667,392.76625,252.99)">
            <path d="M0,1.136C-0.06,1.07 -0.121,1.003 -0.178,0.935C-0.166,0.917 -0.153,0.899 -0.14,0.881C0.062,0.593 0.259,0.299 0.448,0C0.43,0.056 0.411,0.11 0.392,0.164C0.276,0.495 0.145,0.82 0,1.136" style="fill:rgb(247,247,208);fill-rule:nonzero;"/>
        </g>
        <g transform="matrix(4.166667,0,0,4.166667,395.13,197.174583)">
            <path d="M0,5.631C-0.419,4.24 -1.083,2.956 -1.99,1.902C-1.475,1.263 -0.896,0.665 -0.259,0.112C-0.216,0.074 -0.173,0.037 -0.128,0C0.655,0.861 1.278,1.844 1.678,2.924C1.744,3.103 1.806,3.283 1.859,3.462C1.179,4.128 0.556,4.854 0,5.631" style="fill:rgb(220,207,151);fill-rule:nonzero;"/>
        </g>
        <g transform="matrix(3.744031,-1.82848,-1.82848,-3.744031,405.980944,237.410313)">
            <path d="M-1.062,0.164C-1.142,0.781 -1.241,1.393 -1.359,2C-1.252,2.262 -1.152,2.529 -1.062,2.796C-0.219,3.336 0.673,3.793 1.598,4.162C1.037,2.631 0.099,1.305 -1.062,0.164" style="fill:rgb(248,242,199);fill-rule:nonzero;"/>
        </g>
        <g transform="matrix(3.542503,2.193578,2.193578,-3.542503,394.346259,226.114575)">
            <path d="M0.869,-0.244C0.775,-0.129 0.68,-0.016 0.582,0.094C0.58,1.093 0.676,2.087 0.869,3.061C0.959,2.955 1.047,2.847 1.131,2.737C0.951,1.756 0.862,0.757 0.869,-0.244" style="fill:rgb(170,165,124);fill-rule:nonzero;"/>
        </g>
        <g transform="matrix(4.166667,0,0,4.166667,394.63125,240.57875)">
            <path d="M0,2.979C0.321,2.023 0.523,1.017 0.608,0C0.798,0.283 0.984,0.572 1.163,0.863C0.826,1.589 0.434,2.297 0,2.979" style="fill:rgb(247,247,208);fill-rule:nonzero;"/>
        </g>
        <g transform="matrix(3.405769,-2.400384,-2.400384,-3.405769,403.120985,236.880982)">
            <path d="M-0.536,-0.17C-0.517,0.451 -0.518,1.07 -0.538,1.688L-0.536,1.691C-0.516,1.074 -0.515,0.453 -0.535,-0.168L-0.536,-0.17" style="fill:rgb(170,165,124);fill-rule:nonzero;"/>
        </g>
        <g transform="matrix(4.166667,0,0,4.166667,343.640833,193.574167)">
            <path d="M0,10.724C-3.091,10.724 -5.779,6.313 -4.186,2.005C-3.904,1.244 -3.543,0.577 -3.115,0C-1.973,0.29 -0.861,0.652 0.219,1.08C-2.423,3.236 -0.725,7.732 2.717,7.732C3,7.732 3.294,7.701 3.598,7.637C3.777,7.6 3.957,7.55 4.141,7.49C3.948,7.857 3.747,8.188 3.541,8.487C2.983,9.294 2.382,9.86 1.769,10.221C1.183,10.567 0.585,10.724 0,10.724" style="fill:rgb(247,247,208);fill-rule:nonzero;"/>
        </g>
        <g transform="matrix(4.166667,0,0,4.166667,250.237917,282.07875)">
            <path d="M0,7.283C-1.999,7.283 -3.912,6.102 -4.13,3.488C-4.298,1.465 -2.428,0 -0.872,0C-0.616,0 -0.368,0.041 -0.139,0.123C0.905,0.508 1.838,1.642 1.954,2.661C2.054,3.532 1.556,4.319 0.02,4.481C0.129,3.974 0.304,2.25 -0.796,2.25C-0.884,2.25 -0.979,2.26 -1.083,2.283C-2.492,2.597 -2.309,4.8 -1.036,5.606C-0.458,5.97 0.278,6.201 1.044,6.2C2.182,6.2 3.384,5.692 4.218,4.355C4.301,4.222 4.381,4.082 4.455,3.933L4.376,4.717C3.582,6.369 1.758,7.283 0,7.283" style="fill:rgb(247,247,208);fill-rule:nonzero;"/>
        </g>
        <g transform="matrix(4.166667,0,0,4.166667,414.888333,215.983333)">
            <path d="M0,16.602C-0.053,16.596 -0.106,16.592 -0.16,16.586C-0.822,16.349 -1.578,16.19 -2.431,16.116C-4.258,15.55 -5.97,14.546 -7.311,13.146C-7.575,12.871 -7.825,12.582 -8.057,12.275C-8.385,11.847 -8.68,11.388 -8.937,10.903C-10.036,8.814 -10.543,6.706 -10.542,4.684C-10.542,3.045 -10.211,1.467 -9.606,0C-9.294,0.258 -8.988,0.521 -8.688,0.791C-8.695,0.811 -8.702,0.831 -8.71,0.85C-9.784,3.356 -10.163,6.078 -9.159,8.793C-8.221,11.327 -6.041,13.327 -3.482,14.484C-2.885,14.764 -2.262,14.989 -1.628,15.156C-1.161,15.286 -0.689,15.387 -0.215,15.459C-0.136,15.838 -0.063,16.218 0,16.602" style="fill:rgb(247,247,208);fill-rule:nonzero;"/>
        </g>
        <g transform="matrix(4.166667,0,0,4.166667,378.689167,277.580417)">
            <path d="M0,-13.992C-0.3,-14.262 -0.606,-14.526 -0.918,-14.784C-0.769,-15.148 -0.601,-15.507 -0.417,-15.858C-0.112,-15.612 0.188,-15.361 0.482,-15.102C0.303,-14.74 0.142,-14.369 0,-13.992M9.861,1.866C9.805,1.507 9.742,1.151 9.672,0.797C9.742,1.151 9.805,1.507 9.861,1.866" style="fill:rgb(170,165,124);fill-rule:nonzero;"/>
        </g>
        <g transform="matrix(4.166667,0,0,4.166667,473.92875,191.814167)">
            <path d="M0,0.132L-3.797,0.132C-3.214,0.041 -2.611,0 -1.992,0C-1.342,0 -0.674,0.046 0,0.132" style="fill:rgb(220,207,151);fill-rule:nonzero;"/>
        </g>
        <g transform="matrix(4.166667,0,0,4.166667,444.063333,197.16125)">
            <path d="M0,0.149C0.047,0.116 0.095,0.082 0.145,0.05C0.547,0.017 0.953,0 1.362,0L2.161,0C1.428,0 0.707,0.051 0,0.149" style="fill:rgb(170,165,124);fill-rule:nonzero;"/>
        </g>
        <g transform="matrix(4.166667,0,0,4.166667,512.726667,199.799167)">
            <path d="M0,0.647C-0.02,0.64 -0.039,0.633 -0.059,0.625C-0.527,0.448 -0.952,0.238 -1.341,0C-1.151,0.083 -0.975,0.163 -0.814,0.24L-0.201,0.547L0,0.647Z" style="fill:rgb(248,242,199);fill-rule:nonzero;"/>
        </g>
        <g transform="matrix(2.433794,-3.381975,-3.381975,-2.433794,506.844817,196.58061)">
            <path d="M-0.586,-0.509C-0.69,-0.025 -0.83,0.529 -0.993,1.143L-0.586,0.576C-0.598,0.414 -0.604,0.249 -0.605,0.082C-0.607,-0.111 -0.6,-0.31 -0.586,-0.509" style="fill:rgb(248,242,199);fill-rule:nonzero;"/>
        </g>
        <g transform="matrix(4.166667,0,0,4.166667,382.37625,208.967083)">
            <path d="M0,1.724C-0.121,1.615 -0.243,1.505 -0.366,1.397C-0.117,0.922 0.154,0.456 0.442,0C0.254,0.56 0.107,1.137 0,1.724" style="fill:rgb(220,207,151);fill-rule:nonzero;"/>
        </g>
        <g transform="matrix(4.166667,0,0,4.166667,413.991667,219.28875)">
            <path d="M0,14.666C-0.474,14.593 -0.946,14.492 -1.413,14.362C-2.045,14.187 -2.666,13.963 -3.267,13.69C-5.826,12.534 -8.005,10.534 -8.944,8C-9.948,5.284 -9.569,2.563 -8.494,0.057C-8.486,0.037 -8.478,0.019 -8.47,0C-8.231,0.215 -7.996,0.434 -7.765,0.657C-7.984,3.714 -7.141,6.852 -5.275,9.021C-5.275,9.022 -5.274,9.022 -5.273,9.023C-5.215,9.091 -5.154,9.159 -5.094,9.224C-4.896,9.441 -4.687,9.647 -4.466,9.841C-3.471,10.72 -2.253,11.359 -0.819,11.651C-0.49,12.633 -0.216,13.64 0,14.666" style="fill:rgb(247,247,208);fill-rule:nonzero;"/>
        </g>
        <g transform="matrix(4.166667,0,0,4.166667,381.637917,273.66125)">
            <path d="M0,-12.392C-0.231,-12.615 -0.466,-12.834 -0.705,-13.049C-0.547,-13.415 -0.374,-13.774 -0.189,-14.129C-0.066,-14.021 0.056,-13.912 0.177,-13.803C0.093,-13.337 0.033,-12.865 0,-12.392M8.964,1.737C8.765,0.726 8.512,-0.266 8.208,-1.236L8.209,-1.235C8.512,-0.265 8.765,0.726 8.964,1.737" style="fill:rgb(170,165,124);fill-rule:nonzero;"/>
        </g>
        <g transform="matrix(4.166667,0,0,4.166667,384.2175,193.18)">
            <path d="M0,3.789C0.018,3.736 0.037,3.683 0.055,3.63C0.53,2.277 1.246,1.031 2.207,0L2.408,0.61C1.77,1.335 1.147,2.112 0.573,2.931C0.376,3.213 0.184,3.499 0,3.789" style="fill:rgb(220,207,151);fill-rule:nonzero;"/>
        </g>
        <g transform="matrix(4.166667,0,0,4.166667,390.349583,381.9425)">
            <path d="M0,-4.053C1.368,-5.213 2.499,-6.227 3.585,-6.999C3.602,-7.001 3.618,-7.002 3.635,-7.005C3.536,-6.799 3.436,-6.594 3.334,-6.391C2.193,-5.642 1.076,-4.861 0,-4.053M-3.641,-2.6C-3.229,-2.948 -2.795,-3.311 -2.335,-3.684C-1.809,-4.109 -1.271,-4.528 -0.724,-4.94C-1.135,-4.591 -1.564,-4.231 -2.019,-3.863C-2.548,-3.436 -3.088,-3.014 -3.641,-2.6M-3.685,-1.057L-3.722,-1.117C-3.451,-1.316 -3.182,-1.514 -2.914,-1.715C-3.178,-1.492 -3.435,-1.272 -3.685,-1.057M-10.024,2.952C-9.56,2.686 -9.097,2.413 -8.636,2.134C-8.778,2.305 -8.918,2.477 -9.056,2.652C-9.369,2.771 -9.691,2.871 -10.024,2.952" style="fill:rgb(247,247,208);fill-rule:nonzero;"/>
        </g>
        <g transform="matrix(4.166667,0,0,4.166667,405.285,352.577083)">
            <path d="M0,0.049C0.024,0.032 0.047,0.016 0.071,0C0.064,0.013 0.057,0.028 0.051,0.043C0.033,0.045 0.017,0.047 0,0.049" style="fill:rgb(247,247,208);fill-rule:nonzero;"/>
        </g>
        <g transform="matrix(-4.166667,0,0,4.166667,412.622083,348.440833)">
            <path d="M0.425,0.999L0.426,0.999C0.278,0.67 0.136,0.336 0,0L-0.001,0C0.135,0.336 0.277,0.67 0.425,0.999" style="fill:rgb(170,165,124);fill-rule:nonzero;"/>
        </g>
        <g transform="matrix(4.166667,0,0,4.166667,400.979583,322.8575)">
            <path d="M0,-0.986C-0.498,-0.986 -1.027,-1.106 -1.549,-1.365C-1.565,-1.373 -1.582,-1.381 -1.598,-1.389L-1.605,-1.392L-1.598,-1.389C-3.193,-2.194 -3.934,-3.691 -3.924,-5.132C-3.923,-6.237 -3.519,-7.329 -2.787,-8.163C-2.061,-8.995 -0.982,-9.566 0.297,-9.566L0.305,-9.566L0.567,-9.558C0.682,-9.551 0.795,-9.543 0.907,-9.533C1.76,-9.46 2.516,-9.301 3.178,-9.064C3.235,-9.044 3.291,-9.022 3.346,-9.002C3.397,-8.689 3.444,-8.375 3.484,-8.059C2.721,-8.476 1.846,-8.693 0.986,-8.693C-1.013,-8.693 -2.927,-7.514 -3.146,-4.9C-3.313,-2.879 -1.444,-1.413 0.112,-1.413C0.368,-1.413 0.618,-1.453 0.847,-1.537C1.892,-1.922 2.826,-3.058 2.94,-4.078C2.964,-3.95 2.976,-3.82 2.973,-3.691C2.971,-2.972 2.63,-2.302 2.102,-1.809C1.573,-1.315 0.834,-0.987 0,-0.986M-2.502,8.58L-2.614,8.401C-0.737,7.223 1.101,5.407 2.543,3.398C2.428,3.78 2.304,4.158 2.172,4.532C2.08,4.793 1.985,5.053 1.886,5.31C1.433,5.544 0.994,5.815 0.563,6.114C-0.434,6.803 -1.408,7.642 -2.502,8.58" style="fill:rgb(247,247,208);fill-rule:nonzero;"/>
        </g>
        <g transform="matrix(4.166667,0,0,4.166667,420.225,341.458333)">
            <path d="M0,-12.726C-0.003,-12.748 -0.007,-12.77 -0.009,-12.793C-0.007,-12.771 -0.003,-12.748 0,-12.726M0.009,-12.649C0.006,-12.674 0.003,-12.7 0,-12.725C0.002,-12.701 0.006,-12.674 0.009,-12.649M0.018,-12.574C0.016,-12.597 0.013,-12.621 0.01,-12.644C0.013,-12.621 0.016,-12.597 0.018,-12.574M0.028,-12.506C0.025,-12.525 0.023,-12.545 0.02,-12.565C0.023,-12.544 0.025,-12.526 0.028,-12.506M0.037,-12.429C0.035,-12.446 0.032,-12.465 0.03,-12.482C0.032,-12.465 0.035,-12.446 0.037,-12.429M0.044,-12.369C0.043,-12.377 0.041,-12.387 0.04,-12.395C0.041,-12.385 0.043,-12.379 0.044,-12.369M0.053,-12.293C0.052,-12.298 0.052,-12.303 0.051,-12.307C0.052,-12.303 0.052,-12.298 0.053,-12.293M-1.024,-0.571C-1.01,-0.614 -0.998,-0.656 -0.985,-0.699C-0.998,-0.656 -1.01,-0.614 -1.024,-0.571M-2.446,0.067C-2.315,-0.307 -2.191,-0.684 -2.076,-1.066L-2.076,-1.067C-2.191,-0.685 -2.315,-0.307 -2.446,0.067" style="fill:rgb(170,165,124);fill-rule:nonzero;"/>
        </g>
        <g transform="matrix(4.166667,0,0,4.166667,401.444583,286.636667)">
            <path d="M0,7.28C-1.556,7.28 -3.424,5.814 -3.258,3.793C-3.039,1.179 -1.124,0 0.874,0C1.734,0 2.61,0.217 3.373,0.634C3.406,0.896 3.436,1.158 3.462,1.423C2.962,1.184 2.434,1.079 1.918,1.079C1.153,1.079 0.416,1.31 -0.16,1.675C-1.436,2.482 -1.62,4.685 -0.207,4.998C-0.105,5.02 -0.01,5.032 0.076,5.032C1.177,5.032 1.001,3.308 0.891,2.799C2.427,2.96 2.926,3.745 2.828,4.615C2.714,5.635 1.78,6.771 0.735,7.156C0.506,7.24 0.257,7.28 0,7.28" style="fill:rgb(247,247,208);fill-rule:nonzero;"/>
        </g>
        <g transform="matrix(4.166667,0,0,4.166667,263.840417,352.477083)">
            <path d="M0,6.251C-1.012,6.251 -1.992,5.984 -2.747,5.374C-3.504,4.769 -3.985,3.803 -3.978,2.615C-3.978,2.411 -3.965,2.2 -3.938,1.981C-3.902,1.692 -3.655,1.479 -3.371,1.479C-3.347,1.479 -3.323,1.48 -3.299,1.484C-2.986,1.523 -2.763,1.808 -2.802,2.122C-2.813,2.218 -2.822,2.312 -2.827,2.402C-3.004,2.364 -3.185,2.316 -3.369,2.254C-3.176,2.621 -2.976,2.952 -2.769,3.251C-2.652,3.798 -2.389,4.186 -2.026,4.485C-1.748,4.711 -1.397,4.881 -0.999,4.984C-0.411,5.332 0.189,5.489 0.773,5.489C3.864,5.489 6.551,1.079 4.958,-3.23C3.653,-6.755 0.628,-8.25 -2.618,-8.25C-3.651,-8.25 -4.706,-8.098 -5.736,-7.813C-6.369,-7.646 -6.992,-7.421 -7.589,-7.142C-10.148,-5.983 -12.326,-3.984 -13.265,-1.45C-13.826,0.065 -13.956,1.583 -13.774,3.064C-14.066,2.607 -14.345,2.141 -14.609,1.667C-14.47,-0.047 -13.965,-1.81 -13.046,-3.557C-11.499,-6.479 -8.595,-8.379 -5.509,-9.044C-4.701,-9.218 -3.881,-9.307 -3.07,-9.309C-2.479,-9.309 -1.888,-9.26 -1.311,-9.163C0.357,-8.879 1.926,-8.176 3.182,-6.997C4.874,-5.409 5.949,-2.972 5.946,0.294C5.946,0.478 5.942,0.665 5.935,0.853C5.875,2.591 5.038,3.973 3.903,4.876C2.766,5.783 1.342,6.249 0,6.251M6.483,15.56C5.868,15.498 5.258,15.415 4.656,15.312C5.243,15.208 5.833,15.073 6.425,14.907C8.475,14.33 10.838,13.45 13.331,12.328C16.701,11.371 19.933,9.738 22.017,8.346L22.906,7.902C22.498,8.318 22.104,8.755 21.726,9.206C21.265,9.485 20.802,9.757 20.338,10.024C19.996,10.222 19.652,10.416 19.309,10.606C18.845,10.782 18.425,10.99 18.041,11.225C15.63,12.272 11.089,13.702 6.483,15.56" style="fill:rgb(247,247,208);fill-rule:nonzero;"/>
        </g>
        <g transform="matrix(2.02718,3.640282,3.640282,-2.02718,337.129228,396.792678)">
            <path d="M0.782,-0.476C0.758,-0.285 0.742,-0.091 0.735,0.108C0.755,0.312 0.77,0.502 0.782,0.681L0.809,1.33C0.808,0.724 0.798,0.121 0.782,-0.476" style="fill:rgb(247,247,208);fill-rule:nonzero;"/>
        </g>
        <g transform="matrix(4.166667,0,0,4.166667,357.06125,344.979167)">
            <path d="M0,9.261C1.494,8.317 2.955,7.318 4.348,6.271C4.901,5.857 5.442,5.435 5.97,5.008C6.425,4.64 6.855,4.28 7.265,3.931C7.531,3.707 7.788,3.486 8.039,3.27C9.132,2.333 10.106,1.494 11.103,0.805C11.535,0.505 11.973,0.235 12.426,0C12.187,0.619 11.926,1.227 11.645,1.823C11.621,1.839 11.598,1.855 11.574,1.872C10.489,2.644 9.357,3.658 7.989,4.818C7.58,5.166 7.148,5.527 6.69,5.898C6.163,6.323 5.625,6.743 5.076,7.156C4.808,7.357 4.538,7.556 4.267,7.754L3.806,7.023C2.863,7.617 1.943,8.345 1.077,9.165C0.72,9.225 0.361,9.255 0,9.261" style="fill:rgb(247,247,208);fill-rule:nonzero;"/>
        </g>
        <g transform="matrix(4.166667,0,0,4.166667,412.620833,342.491667)">
            <path d="M0,1.428C0.191,0.959 0.368,0.482 0.534,0C0.369,0.482 0.191,0.959 0.001,1.428L0,1.428" style="fill:rgb(170,165,124);fill-rule:nonzero;"/>
        </g>
        <g transform="matrix(4.166667,0,0,4.166667,297.47875,378.350833)">
            <path d="M0,6.934C-2.878,6.934 -5.447,6.024 -7.003,3.56L-6.588,2.766C-3.177,2.981 0.022,3.911 3.389,3.911C4.299,3.911 5.221,3.843 6.163,3.675C6.03,3.69 5.887,3.697 5.735,3.697C3.507,3.697 -0.446,2.164 1.687,0.312C1.939,0.092 2.289,0 2.707,0C3.727,0 5.154,0.547 6.57,1.093C7.987,1.641 9.392,2.187 10.368,2.187C10.459,2.187 10.546,2.183 10.63,2.172C9.002,1.622 8.955,1.018 8.036,0.278C10.006,0.538 12.111,1.253 14.154,1.253C14.202,1.253 14.251,1.253 14.3,1.252C14.661,1.246 15.02,1.216 15.377,1.156C15.194,1.331 15.012,1.51 14.833,1.693L13.944,2.137C11.86,3.528 8.628,5.161 5.258,6.118C3.495,6.619 1.695,6.934 0,6.934" style="fill:rgb(247,247,208);fill-rule:nonzero;"/>
        </g>
        <g transform="matrix(4.166667,0,0,4.166667,302.5325,399.250417)">
            <path d="M0,4.476L-0.092,4.476L-0.086,4.476L-0.096,4.476C-1.01,4.474 -1.913,4.426 -2.803,4.335C1.803,2.476 6.344,1.046 8.754,0C8.585,0.102 8.423,0.212 8.268,0.324C6.94,1.289 6.061,2.601 5.236,3.976C3.542,4.305 1.79,4.476 0,4.476" style="fill:rgb(247,247,208);fill-rule:nonzero;"/>
        </g>
        <g transform="matrix(4.166667,0,0,4.166667,339.009583,396.56625)">
            <path d="M0,0.644C0.384,0.408 0.804,0.2 1.268,0.025C1.29,0.016 1.313,0.008 1.336,0L1.105,0.115L0.525,0.406C0.362,0.483 0.189,0.562 0,0.644" style="fill:rgb(247,247,208);fill-rule:nonzero;"/>
        </g>
        <g transform="matrix(4.166667,0,0,4.166667,341.579583,374.2425)">
            <path d="M0,8.829C0.415,7.899 0.931,6.969 1.52,6.069C1.871,5.534 2.248,5.009 2.649,4.5C2.787,4.325 2.927,4.153 3.069,3.982C3.446,3.531 3.841,3.094 4.248,2.679C4.428,2.496 4.61,2.317 4.793,2.142C5.659,1.322 6.578,0.593 7.522,0L7.982,0.73L8.02,0.791L8.132,0.969C6.031,2.287 3.98,4.402 2.477,6.696C2.153,7.189 1.855,7.69 1.586,8.194C1.065,8.42 0.536,8.633 0,8.829" style="fill:rgb(247,247,208);fill-rule:nonzero;"/>
        </g>
        <g transform="matrix(4.166667,0,0,4.166667,267.062083,318.102917)">
            <path d="M0,13.739C-0.584,13.739 -1.184,13.581 -1.772,13.234C-2.384,12.873 -2.985,12.306 -3.542,11.501C-3.748,11.202 -3.949,10.87 -4.142,10.503C-3.958,10.565 -3.778,10.614 -3.6,10.652C-3.296,10.716 -3.001,10.746 -2.718,10.746C1.735,10.746 3.27,3.221 -3.74,2.974C-3.861,2.97 -3.979,2.968 -4.098,2.968C-10.07,2.968 -13.06,8.339 -12.884,13.638C-13.477,12.895 -14.033,12.118 -14.547,11.313C-14.729,9.832 -14.599,8.315 -14.037,6.799C-13.099,4.265 -10.921,2.267 -8.362,1.108C-7.761,0.836 -7.14,0.611 -6.509,0.437C-5.48,0.152 -4.424,0 -3.391,0C-0.145,0 2.88,1.494 4.185,5.02C5.778,9.328 3.091,13.739 0,13.739" style="fill:rgb(247,247,208);fill-rule:nonzero;"/>
        </g>
        <g transform="matrix(4.166667,0,0,4.166667,290.48375,307.85875)">
            <path d="M0,-3.775L0.337,-3.309L-1.617,-1.895L-0.188,-0.845L0.419,-1.889L-0.499,-3.488L0,-3.775L0.337,-3.309L0,-3.775L0.499,-4.062L1.748,-1.886L0.164,0.841L-3.571,-1.902L0.181,-4.616L0.499,-4.062L0,-3.775Z" style="fill:rgb(138,135,79);fill-rule:nonzero;"/>
        </g>
        <g transform="matrix(4.166667,0,0,4.166667,290.48375,307.850417)">
            <path d="M0,-3.773L-2.594,-1.896L-0.012,0L1.084,-1.885" style="fill:rgb(113,186,191);fill-rule:nonzero;"/>
        </g>
        <g transform="matrix(4.166667,0,0,4.166667,353.599583,308.064583)">
            <path d="M0,-3.775L0.497,-3.484L-0.433,-1.89L0.167,-0.843L1.603,-1.883L-0.341,-3.31L0,-3.775L0.497,-3.484L0,-3.775L0.341,-4.239L3.557,-1.877L-0.196,0.841L-1.762,-1.896L-0.175,-4.616L0.341,-4.239L0,-3.775Z" style="fill:rgb(138,135,79);fill-rule:nonzero;"/>
        </g>
        <g transform="matrix(4.166667,0,0,4.166667,353.599583,308.060417)">
            <path d="M0,-3.774L-1.098,-1.893L-0.015,0L2.58,-1.879" style="fill:rgb(113,186,191);fill-rule:nonzero;"/>
        </g>
        <g transform="matrix(4.166667,0,0,4.166667,299.34875,337.80125)">
            <path d="M0,-3.454L0.572,-3.514L0.822,-1.111L2.445,-1.826L1.846,-2.873L-0.002,-2.879L0,-3.454L0.572,-3.514L0,-3.454L0.002,-4.029L2.513,-4.021L4.079,-1.287L-0.161,0.578L-0.639,-4.032L0.002,-4.029L0,-3.454Z" style="fill:rgb(138,135,79);fill-rule:nonzero;"/>
        </g>
        <g transform="matrix(4.166667,0,0,4.166667,299.34875,336.692917)">
            <path d="M0,-3.188L0.33,0L3.262,-1.291L2.179,-3.181" style="fill:rgb(113,186,191);fill-rule:nonzero;"/>
        </g>
        <g transform="matrix(4.166667,0,0,4.166667,331.084167,270.287917)">
            <path d="M0,-0.34L0.499,-0.625L1.416,0.974L2.625,0.979L2.442,-0.785L0.232,0.187L0,-0.34L0.499,-0.625L0,-0.34L-0.231,-0.866L3.424,-2.473L3.901,2.133L0.749,2.124L-0.817,-0.608L-0.231,-0.866L0,-0.34Z" style="fill:rgb(138,135,79);fill-rule:nonzero;"/>
        </g>
        <g transform="matrix(4.166667,0,0,4.166667,331.084167,271.392083)">
            <path d="M0,-0.605L1.083,1.283L3.262,1.29L2.933,-1.895" style="fill:rgb(113,186,191);fill-rule:nonzero;"/>
        </g>
        <g transform="matrix(4.166667,0,0,4.166667,330.872917,330.107917)">
            <path d="M0,0.306L0.235,-0.22L2.439,0.765L2.633,-0.996L1.428,-1.001L0.497,0.596L0,0.306L0.235,-0.22L0,0.306L-0.497,0.016L0.769,-2.154L3.917,-2.143L3.411,2.46L-0.82,0.569L-0.497,0.016L0,0.306Z" style="fill:rgb(138,135,79);fill-rule:nonzero;"/>
        </g>
        <g transform="matrix(4.166667,0,0,4.166667,330.872917,328.97875)">
            <path d="M0,0.577L2.925,1.884L3.275,-1.299L1.099,-1.307" style="fill:rgb(113,186,191);fill-rule:nonzero;"/>
        </g>
        <g transform="matrix(4.166667,0,0,4.166667,299.507083,262.25625)">
            <path d="M0,3.447L0.002,2.872L1.85,2.879L2.457,1.835L0.836,1.11L0.572,3.51L0,3.447L0.002,2.872L0,3.447L-0.572,3.384L-0.135,-0.585L4.095,1.308L2.511,4.032L-0.642,4.02L-0.572,3.384L0,3.447Z" style="fill:rgb(138,135,79);fill-rule:nonzero;"/>
        </g>
        <g transform="matrix(4.166667,0,0,4.166667,299.507083,263.38125)">
            <path d="M0,3.177L2.181,3.185L3.276,1.302L0.351,-0.008" style="fill:rgb(113,186,191);fill-rule:nonzero;"/>
        </g>
        <g transform="matrix(4.166667,0,0,4.166667,290.775833,298.925833)">
            <path d="M0,4.693L0.002,4.118L3.792,4.132L2.403,1.706L0.497,4.983L0,4.693L0.002,4.118L0,4.693L-0.497,4.404L2.41,-0.596L5.781,5.289L-0.998,5.265L-0.497,4.404L0,4.693Z" style="fill:rgb(138,135,79);fill-rule:nonzero;"/>
        </g>
        <g transform="matrix(4.166667,0,0,4.166667,290.775833,301.309167)">
            <path d="M0,4.121L4.787,4.138L2.406,-0.017" style="fill:rgb(220,214,114);fill-rule:nonzero;"/>
        </g>
        <g transform="matrix(4.166667,0,0,4.166667,321.98875,277.950417)">
            <path d="M0,-3.171L0.497,-2.882L-1.173,-0.017L1.149,-0.008L-0.499,-2.886L0,-3.171L0.497,-2.882L0,-3.171L0.499,-3.457L3.14,1.151L-3.17,1.126L0.005,-4.322L0.499,-3.457L0,-3.171Z" style="fill:rgb(138,135,79);fill-rule:nonzero;"/>
        </g>
        <g transform="matrix(4.166667,0,0,4.166667,321.98875,280.33375)">
            <path d="M0,-3.743L-2.171,-0.017L2.145,0" style="fill:rgb(220,214,114);fill-rule:nonzero;"/>
        </g>
        <g transform="matrix(4.166667,0,0,4.166667,342.931667,316.302917)">
            <path d="M0,-3.582L0.497,-3.292L-1.409,-0.015L1.385,-0.006L-0.5,-3.296L0,-3.582L0.497,-3.292L0,-3.582L0.499,-3.867L3.374,1.151L-3.406,1.13L0.003,-4.733L0.499,-3.867L0,-3.582Z" style="fill:rgb(138,135,79);fill-rule:nonzero;"/>
        </g>
        <g transform="matrix(4.166667,0,0,4.166667,342.931667,318.68625)">
            <path d="M0,-4.154L-2.407,-0.015L2.38,0" style="fill:rgb(220,214,114);fill-rule:nonzero;"/>
        </g>
        <g transform="matrix(4.166667,0,0,4.166667,321.744167,322.767083)">
            <path d="M0,3.169L-0.497,2.879L1.17,0.015L-1.148,0.007L0.499,2.883L0,3.169L-0.497,2.879L0,3.169L-0.499,3.454L-3.137,-1.15L3.168,-1.129L-0.003,4.319L-0.499,3.454L0,3.169Z" style="fill:rgb(138,135,79);fill-rule:nonzero;"/>
        </g>
        <g transform="matrix(4.166667,0,0,4.166667,321.744167,320.387917)">
            <path d="M0,3.74L2.169,0.014L-2.143,0" style="fill:rgb(69,97,158);fill-rule:nonzero;"/>
        </g>
        <g transform="matrix(4.166667,0,0,4.166667,290.895833,301.705)">
            <path d="M0,-4.726L0.499,-5.012L2.384,-1.723L3.789,-4.137L-0.002,-4.151L0,-4.726L0.499,-5.012L0,-4.726L0.002,-5.301L5.785,-5.281L2.377,0.579L-0.995,-5.305L0.002,-5.301L0,-4.726Z" style="fill:rgb(138,135,79);fill-rule:nonzero;"/>
        </g>
        <g transform="matrix(4.166667,0,0,4.166667,290.895833,299.321667)">
            <path d="M0,-4.154L2.381,0L4.787,-4.137" style="fill:rgb(69,97,158);fill-rule:nonzero;"/>
        </g>
        <g transform="matrix(4.166667,0,0,4.166667,352.966667,301.779167)">
            <path d="M0,-4.692L-0.002,-4.117L-3.792,-4.131L-2.403,-1.705L-0.497,-4.981L0,-4.692L-0.002,-4.117L0,-4.692L0.497,-4.402L-2.411,0.596L-5.781,-5.288L0.999,-5.264L0.497,-4.402L0,-4.692Z" style="fill:rgb(138,135,79);fill-rule:nonzero;"/>
        </g>
        <g transform="matrix(4.166667,0,0,4.166667,352.966667,299.4)">
            <path d="M0,-4.121L-4.787,-4.138L-2.407,0.017" style="fill:rgb(69,97,158);fill-rule:nonzero;"/>
        </g>
        <g transform="matrix(4.166667,0,0,4.166667,335.23625,300.315833)">
            <path d="M0,0.019L0.575,0.021C0.568,2.109 -1.127,3.793 -3.212,3.793L-3.262,3.792L-3.22,3.218L-3.222,3.793C-5.305,3.785 -6.992,2.096 -6.992,0.011L-6.992,-0.009L-6.992,-0.003C-6.985,-2.089 -5.292,-3.774 -3.209,-3.774L-3.204,-3.774L-3.204,-3.393L-3.216,-3.774L-3.204,-3.774L-3.204,-3.393L-3.216,-3.774L-3.194,-3.774C-1.109,-3.767 0.575,-2.075 0.575,0.009L0.575,0.021L0,0.019L-0.575,0.023L-0.575,0.009C-0.575,-1.441 -1.747,-2.618 -3.199,-2.623L-3.197,-3.198L-3.178,-2.623L-3.209,-2.623C-4.659,-2.623 -5.836,-1.452 -5.841,0.001L-5.841,0.011C-5.841,1.461 -4.667,2.638 -3.217,2.643L-3.197,2.643L-3.177,2.645L-3.215,3.156L-3.212,2.643L-3.177,2.645L-3.215,3.156L-3.212,2.643C-1.759,2.643 -0.58,1.47 -0.575,0.018L-0.575,0.023L0,0.019Z" style="fill:rgb(138,135,79);fill-rule:nonzero;"/>
        </g>
        <g transform="matrix(0.013638,-4.166644,-4.166644,-0.013638,321.952923,286.984791)">
            <path d="M-3.208,-3.199C-4.981,-3.198 -6.417,-1.761 -6.418,0.011C-6.416,1.782 -4.982,3.219 -3.208,3.218C-1.435,3.217 -0,1.781 -0.001,0.009C-0.001,-1.763 -1.436,-3.199 -3.208,-3.199" style="fill:rgb(192,181,83);fill-rule:nonzero;"/>
        </g>
        <g transform="matrix(4.166667,0,0,4.166667,259.750417,360.094583)">
            <path d="M0,-2.83C0.582,-5.966 1.405,-9.221 0.909,-10.905L0.926,-10.915C1.396,-9.212 2.16,-7.596 3.159,-6.157L2.939,-5.991C2.907,3.563 15.753,6.552 18.44,5.905C14.195,7.674 9.352,8.085 4.59,6.735C3.142,6.319 1.778,5.776 0.504,5.093L0.674,4.75C-0.996,3.673 -0.627,0.484 -0.01,-2.83" style="fill:rgb(197,189,96);fill-rule:nonzero;"/>
        </g>
        <g transform="matrix(4.166667,0,0,4.166667,336.583333,316.410833)">
            <path d="M0,16.389C-2.687,17.036 -15.533,14.047 -15.501,4.493L-15.281,4.329L-15.272,4.329C-13.285,7.209 -10.317,9.434 -6.687,10.463C1.64,12.827 10.31,8 12.678,-0.337C12.703,-0.442 12.722,-0.541 12.753,-0.647C12.619,0.482 12.403,1.626 12.08,2.754C10.306,8.99 5.9,13.76 0.41,16.2C0.277,16.268 0.138,16.325 0,16.389" style="fill:rgb(222,220,140);fill-rule:nonzero;"/>
        </g>
        <g transform="matrix(4.166667,0,0,4.166667,263.537917,246.029583)">
            <path d="M0,16.47C0.496,18.155 -0.327,21.41 -0.909,24.546L-0.919,24.546L-1.114,24.506L-1.013,23.805L-0.838,22.602C-1.147,19.959 -2.647,18.364 -4.393,17.06L-4.36,17.003C-8.356,11.311 -8.782,1.223 -2.525,-3.309L-2.54,-3.334C2.437,-6.795 8.87,-8.076 15.154,-6.284C19.541,-5.034 23.208,-2.478 25.845,0.842C24.077,-0.815 21.907,-2.099 19.411,-2.811C11.085,-5.178 2.415,-0.342 0.047,7.987C-0.773,10.863 -0.736,13.775 0.017,16.461" style="fill:rgb(222,220,140);fill-rule:nonzero;"/>
        </g>
        <g transform="matrix(4.166667,0,0,4.166667,225.94875,311.5)">
            <path d="M0,8.087L0.091,8.351L0.071,8.357C-1.61,5.333 -2.542,1.887 -2.56,-1.664L-2.421,-1.664C-2.429,1.133 4.599,2.771 4.389,6.868C4.37,7.292 4.268,7.743 4.081,8.222C3.462,9.751 1.149,9.016 0,8.087" style="fill:rgb(197,189,96);fill-rule:nonzero;"/>
        </g>
        <g transform="matrix(4.166667,0,0,4.166667,262.56,347.721667)">
            <path d="M0,7.719L-0.172,8.062C-3.845,6.128 -6.78,3.172 -8.717,-0.336L-8.697,-0.343C-7.749,1.819 -2.308,4.193 -0.879,0.1L-0.685,0.139C-1.301,3.453 -1.672,6.642 0,7.719" style="fill:rgb(107,148,171);fill-rule:nonzero;"/>
        </g>
        <g transform="matrix(4.166667,0,0,4.166667,215.860833,322.282917)">
            <path d="M0,-4.252L-0.139,-4.252C-0.151,-6.068 0.077,-7.917 0.565,-9.755C0.058,-4.962 3.946,-3.55 7.049,-1.242C8.796,0.063 10.295,1.657 10.605,4.301L10.429,5.503L10.371,5.494C10.599,3.284 8.329,2.132 6.924,4.287L6.81,4.28C7.02,0.183 -0.008,-1.455 0,-4.252" style="fill:rgb(135,196,186);fill-rule:nonzero;"/>
        </g>
        <g transform="matrix(4.166667,0,0,4.166667,259.074167,351.185)">
            <path d="M0,-1.442L0.059,-1.434L-0.043,-0.731C-1.472,3.361 -6.911,0.987 -7.859,-1.175L-7.95,-1.437C-6.801,-0.509 -4.487,0.227 -3.869,-1.303C-3.682,-1.781 -3.58,-2.234 -3.561,-2.656L-3.448,-2.648C-2.042,-4.803 0.228,-3.651 0,-1.442" style="fill:rgb(222,220,140);fill-rule:nonzero;"/>
        </g>
        <g transform="matrix(4.166667,0,0,4.166667,252.95625,317.11)">
            <path d="M0,-20.394L0.015,-20.37C-6.243,-15.836 -5.817,-5.748 -1.82,-0.058L-1.854,0C-4.957,-2.309 -8.845,-3.72 -8.338,-8.513C-8.303,-8.636 -8.271,-8.767 -8.238,-8.888C-6.855,-13.76 -3.863,-17.732 0,-20.394" style="fill:rgb(107,148,171);fill-rule:nonzero;"/>
        </g>
        <g transform="matrix(4.166667,0,0,4.166667,338.290417,224.062083)">
            <path d="M0,38.364L-0.234,37.838C5.108,35.462 9.391,30.826 11.117,24.759C11.431,23.665 11.64,22.551 11.773,21.448L12.344,21.515L12.896,21.678C12.874,21.752 12.857,21.838 12.83,21.954L12.827,21.969L12.822,21.984C10.789,29.14 4.279,33.803 -2.802,33.803C-4.274,33.803 -5.77,33.601 -7.253,33.179C-11.014,32.114 -14.095,29.805 -16.155,26.818L-15.682,26.491L-15.682,27.066L-15.991,27.066L-16.164,26.819C-17.198,25.327 -17.99,23.653 -18.479,21.885L-18.478,21.89L-18.478,21.887C-18.869,20.493 -19.074,19.038 -19.074,17.558C-19.074,16.085 -18.871,14.587 -18.447,13.102C-16.414,5.951 -9.903,1.284 -2.82,1.284C-1.35,1.284 0.145,1.485 1.628,1.907L1.689,1.924L1.629,1.907C4.215,2.645 6.468,3.978 8.298,5.695L7.904,6.115L7.454,6.472C4.889,3.241 1.326,0.757 -2.945,-0.459C-4.81,-0.991 -6.688,-1.244 -8.534,-1.244C-12.74,-1.244 -16.787,0.07 -20.151,2.411L-20.153,2.412C-23.91,5.001 -26.818,8.86 -28.164,13.601L-28.163,13.599L-28.163,13.596C-28.193,13.707 -28.225,13.838 -28.263,13.974L-28.818,13.819L-28.262,13.966C-28.724,15.709 -28.947,17.458 -28.947,19.178L-28.947,19.317C-28.93,22.771 -28.024,26.122 -26.389,29.063L-26.395,29.053L-26.388,29.064C-24.504,32.477 -21.649,35.351 -18.079,37.232L-18.071,37.236L-18.075,37.233C-16.838,37.896 -15.513,38.423 -14.101,38.83L-14.103,38.829C-12.241,39.357 -10.368,39.608 -8.524,39.608C-5.78,39.608 -3.102,39.051 -0.631,38.022L-0.41,38.553L-0.652,38.032C-0.497,37.959 -0.364,37.905 -0.262,37.852L-0.247,37.845L-0.234,37.838L0,38.364L0.264,38.876C0.1,38.959 -0.046,39.018 -0.166,39.074L-0.177,39.08L-0.188,39.084C-2.796,40.171 -5.625,40.759 -8.524,40.759C-10.472,40.759 -12.452,40.493 -14.417,39.936L-14.433,39.931L-14.419,39.936C-15.902,39.509 -17.304,38.952 -18.618,38.248L-18.61,38.252L-18.615,38.249C-22.39,36.262 -25.406,33.224 -27.396,29.621L-27.395,29.622C-29.122,26.515 -30.079,22.975 -30.098,19.325L-30.098,19.178C-30.098,17.359 -29.862,15.51 -29.374,13.671L-29.372,13.663C-29.34,13.553 -29.308,13.423 -29.273,13.29L-29.271,13.289L-29.271,13.287C-27.852,8.282 -24.775,4.198 -20.806,1.464L-20.808,1.466C-17.256,-1.006 -12.981,-2.395 -8.534,-2.395C-6.582,-2.395 -4.598,-2.127 -2.629,-1.566C1.877,-0.283 5.648,2.344 8.355,5.757L7.511,6.535C5.806,4.935 3.717,3.699 1.313,3.014L1.252,2.996L1.314,3.014C-0.067,2.621 -1.454,2.435 -2.82,2.435C-9.398,2.435 -15.453,6.772 -17.34,13.417C-17.735,14.801 -17.923,16.191 -17.923,17.558C-17.923,18.931 -17.733,20.281 -17.37,21.576L-17.37,21.579C-16.916,23.219 -16.18,24.777 -15.218,26.163L-15.691,26.491L-15.691,25.916L-15.379,25.916L-15.208,26.164C-13.293,28.94 -10.439,31.08 -6.939,32.072C-5.558,32.465 -4.169,32.651 -2.802,32.651C3.775,32.651 9.828,28.32 11.715,21.669L12.269,21.826L11.708,21.698C11.73,21.603 11.752,21.49 11.791,21.353L12.915,21.583C12.777,22.74 12.556,23.914 12.224,25.076C10.402,31.479 5.873,36.382 0.234,38.89L0,38.364L0.264,38.876L0,38.364Z" style="fill:rgb(138,135,79);fill-rule:nonzero;"/>
        </g>
        <g transform="matrix(4.166667,0,0,4.166667,265.839583,383.962083)">
            <path d="M0,-16.796C0.129,-16.356 0.175,-15.871 0.176,-15.343C0.171,-13.433 -0.444,-10.9 -0.895,-8.453L-0.983,-7.983L-1.472,-7.983L-1.472,-8.558L-0.906,-8.453C-1.191,-6.926 -1.417,-5.438 -1.415,-4.22C-1.417,-3.518 -1.339,-2.909 -1.181,-2.446C-1.018,-1.978 -0.793,-1.669 -0.475,-1.462L-0.787,-0.979L-0.491,-1.472C-0.322,-1.372 -0.143,-1.295 0.079,-1.241L0.076,-1.242C0.33,-1.182 0.548,-1.158 0.728,-1.158C1.204,-1.165 1.418,-1.301 1.575,-1.482C1.732,-1.668 1.827,-1.971 1.827,-2.331C1.83,-2.75 1.691,-3.223 1.49,-3.543C1.39,-3.705 1.278,-3.826 1.179,-3.895L0.939,-3.986C0.881,-3.985 0.81,-3.973 0.697,-3.903C0.587,-3.832 0.441,-3.699 0.281,-3.477L-0.652,-4.151C-0.428,-4.461 -0.189,-4.702 0.079,-4.872C0.344,-5.043 0.644,-5.138 0.939,-5.137C1.283,-5.138 1.598,-5.013 1.849,-4.831C2.229,-4.557 2.495,-4.167 2.685,-3.734C2.871,-3.301 2.977,-2.819 2.978,-2.331C2.977,-1.783 2.841,-1.212 2.464,-0.751C2.087,-0.286 1.464,0 0.728,-0.007C0.444,-0.007 0.14,-0.045 -0.185,-0.121L-0.189,-0.122C-0.524,-0.202 -0.82,-0.328 -1.083,-0.485L-1.092,-0.49L-1.098,-0.495C-1.675,-0.866 -2.053,-1.434 -2.269,-2.073C-2.488,-2.715 -2.566,-3.439 -2.566,-4.22C-2.565,-5.574 -2.326,-7.112 -2.037,-8.664L-1.949,-9.133L-1.461,-9.133L-1.461,-8.558L-2.026,-8.663C-1.564,-11.137 -0.97,-13.671 -0.975,-15.343C-0.975,-15.8 -1.018,-16.186 -1.103,-16.471L0,-16.796Z" style="fill:rgb(138,135,79);fill-rule:nonzero;"/>
        </g>
        <g transform="matrix(4.166667,0,0,4.166667,274.392917,387.425)">
            <path d="M0,-12.548L0,-12.514C0.001,-10.457 0.626,-8.75 1.631,-7.304C3.134,-5.14 5.529,-3.583 7.916,-2.584C10.294,-1.583 12.673,-1.142 14.022,-1.146C14.358,-1.145 14.628,-1.173 14.791,-1.214L14.799,-1.216L14.808,-1.218L14.93,-1.254L14.942,-1.26L15.015,-1.15L14.92,-1.241L14.942,-1.26L15.015,-1.15L14.92,-1.241L15.751,-0.445C15.537,-0.23 15.296,-0.148 15.043,-0.092L14.926,-0.654L15.06,-0.095C14.762,-0.024 14.419,0.005 14.022,0.005C11.935,-0.002 8.245,-0.827 4.968,-2.784C3.335,-3.765 1.81,-5.034 0.686,-6.646C-0.438,-8.257 -1.153,-10.219 -1.151,-12.514L-1.151,-12.553L0,-12.548Z" style="fill:rgb(138,135,79);fill-rule:nonzero;"/>
        </g>
        <g transform="matrix(4.166667,0,0,4.166667,220.6125,359.6975)">
            <path d="M0,-18.757L0,-18.703L-0.004,-18.673C-0.031,-18.406 -0.045,-18.152 -0.045,-17.91C-0.035,-16.016 0.739,-14.838 1.933,-13.755C3.128,-12.682 4.748,-11.796 6.252,-10.683L6.225,-10.702L6.253,-10.681C8.048,-9.351 9.71,-7.592 10.036,-4.746L10.044,-4.67L9.859,-3.393L9.758,-2.691L9.75,-2.636L9.731,-2.583C9.415,-1.67 8.89,-0.993 8.241,-0.566C7.594,-0.136 6.848,0.037 6.108,0.036C4.988,0.034 3.866,-0.345 2.925,-0.894C1.985,-1.449 1.215,-2.162 0.845,-2.987L0.835,-3.007L0.736,-3.293L1.825,-3.669L1.916,-3.405L1.372,-3.217L1.899,-3.448C2.099,-2.972 2.712,-2.345 3.506,-1.887C4.297,-1.422 5.258,-1.112 6.108,-1.114C6.674,-1.114 7.183,-1.243 7.606,-1.524C8.029,-1.807 8.392,-2.246 8.645,-2.963L9.188,-2.773L8.619,-2.856L8.72,-3.559L8.895,-4.761L9.464,-4.678L8.893,-4.611C8.6,-7.052 7.263,-8.48 5.565,-9.76L5.593,-9.738L5.566,-9.759C4.152,-10.814 2.507,-11.703 1.167,-12.898C-0.174,-14.081 -1.206,-15.663 -1.196,-17.91C-1.196,-18.194 -1.18,-18.489 -1.147,-18.794L-0.575,-18.733L-1.151,-18.733L-1.151,-18.757L0,-18.757Z" style="fill:rgb(138,135,79);fill-rule:nonzero;"/>
        </g>
        <g transform="matrix(4.166667,0,0,4.166667,218.257917,351.826667)">
            <path d="M0,-11.415L0,-11.338C0.001,-11.114 0.066,-10.895 0.213,-10.644C0.467,-10.206 0.987,-9.714 1.64,-9.21C2.618,-8.448 3.871,-7.65 4.912,-6.681C5.432,-6.194 5.902,-5.661 6.249,-5.052C6.596,-4.443 6.816,-3.749 6.814,-2.988L6.809,-2.78L6.81,-2.784C6.788,-2.286 6.668,-1.774 6.464,-1.249L6.462,-1.245L6.46,-1.242C6.29,-0.812 5.987,-0.474 5.626,-0.275C5.266,-0.074 4.867,0 4.475,0C3.381,-0.011 2.26,-0.529 1.484,-1.144L2.207,-2.039C2.771,-1.572 3.78,-1.138 4.475,-1.151C4.724,-1.151 4.922,-1.199 5.063,-1.278C5.203,-1.36 5.306,-1.464 5.395,-1.673L5.927,-1.457L5.391,-1.666C5.559,-2.098 5.644,-2.487 5.659,-2.834L5.66,-2.837L5.66,-2.839L5.664,-2.988C5.663,-3.808 5.321,-4.513 4.735,-5.207C3.862,-6.244 2.458,-7.159 1.236,-8.072C0.624,-8.531 0.055,-8.994 -0.385,-9.513C-0.823,-10.028 -1.15,-10.635 -1.151,-11.338L-1.151,-11.415L0,-11.415Z" style="fill:rgb(138,135,79);fill-rule:nonzero;"/>
        </g>
        <g transform="matrix(4.166667,0,0,4.166667,254.42375,314.369583)">
            <path d="M0,-19.245C-3.156,-16.962 -4.541,-13.149 -4.543,-9.196C-4.546,-5.763 -3.484,-2.262 -1.702,0.271L-2.643,0.932C-4.581,-1.831 -5.691,-5.53 -5.694,-9.196C-5.696,-13.401 -4.21,-17.613 -0.676,-20.177L0,-19.245Z" style="fill:rgb(138,135,79);fill-rule:nonzero;"/>
        </g>
        <g transform="matrix(4.166667,0,0,4.166667,242.700833,341.11)">
            <path d="M0,-0.544C0.594,-1.465 1.419,-1.956 2.242,-1.954C2.877,-1.955 3.466,-1.661 3.873,-1.187C4.283,-0.713 4.521,-0.062 4.521,0.671C4.521,0.79 4.514,0.912 4.501,1.035L4.503,1.031L4.503,1.03C4.493,1.118 4.487,1.25 4.448,1.412L3.329,1.144C3.341,1.096 3.347,1.03 3.357,0.922L3.357,0.92L3.358,0.916L3.37,0.671C3.369,0.184 3.215,-0.19 3.002,-0.435C2.787,-0.681 2.525,-0.802 2.242,-0.803C1.884,-0.801 1.419,-0.605 0.964,0.084L0,-0.544Z" style="fill:rgb(138,135,79);fill-rule:nonzero;"/>
        </g>
        <g transform="matrix(0,-4.166667,-4.166667,0,411.937917,186.439583)">
            <path d="M-9.482,-9.484C-14.722,-9.484 -18.968,-5.237 -18.968,-0C-18.968,5.236 -14.722,9.482 -9.482,9.482C-4.245,9.482 0.001,5.236 0.001,-0C0.001,-5.237 -4.245,-9.484 -9.482,-9.484" style="fill:rgb(146,201,207);fill-rule:nonzero;"/>
        </g>
        <g transform="matrix(4.166667,0,0,4.166667,451.456667,225.9625)">
            <path d="M-0.575,-0.003L0.575,-0.003C0.574,5.555 -3.93,10.058 -9.484,10.058C-15.04,10.058 -19.542,5.555 -19.542,-0.003C-19.542,-5.557 -15.04,-10.06 -9.484,-10.061C-3.93,-10.06 0.574,-5.557 0.575,-0.003L-0.575,-0.003C-0.575,-2.464 -1.572,-4.688 -3.185,-6.301C-4.8,-7.914 -7.023,-8.909 -9.484,-8.91C-11.945,-8.909 -14.169,-7.914 -15.783,-6.301C-17.396,-4.688 -18.392,-2.464 -18.392,-0.003C-18.392,2.459 -17.395,4.684 -15.783,6.298C-14.169,7.912 -11.945,8.907 -9.484,8.907C-7.023,8.907 -4.8,7.912 -3.185,6.298C-1.572,4.684 -0.575,2.459 -0.575,-0.003Z" style="fill:rgb(138,135,79);fill-rule:nonzero;"/>
        </g>
        <g transform="matrix(0,-4.166667,-4.166667,0,457.519583,174.289167)">
            <path d="M-5.835,-5.838C-9.059,-5.838 -11.672,-3.225 -11.672,-0.002C-11.672,3.221 -9.059,5.835 -5.835,5.835C-2.613,5.835 -0.001,3.221 -0.001,-0.002C-0.001,-3.225 -2.613,-5.838 -5.835,-5.838" style="fill:rgb(112,130,163);fill-rule:nonzero;"/>
        </g>
        <g transform="matrix(4.166667,0,0,4.166667,481.844583,198.618333)">
            <path d="M-0.575,-0.004L0.575,-0.004C0.575,3.538 -2.295,6.408 -5.836,6.409C-9.377,6.408 -12.248,3.538 -12.248,-0.004C-12.247,-3.544 -9.377,-6.413 -5.836,-6.413C-2.296,-6.413 0.575,-3.544 0.575,-0.004L-0.575,-0.004C-0.575,-1.457 -1.163,-2.769 -2.116,-3.722C-3.07,-4.675 -4.382,-5.263 -5.836,-5.263C-7.291,-5.263 -8.603,-4.675 -9.557,-3.722C-10.509,-2.769 -11.097,-1.457 -11.097,-0.004C-11.097,1.452 -10.509,2.762 -9.557,3.716C-8.603,4.67 -7.291,5.257 -5.836,5.258C-4.382,5.257 -3.07,4.67 -2.116,3.716C-1.163,2.762 -0.575,1.452 -0.575,-0.004Z" style="fill:rgb(138,135,79);fill-rule:nonzero;"/>
        </g>
        <g transform="matrix(0,-4.166667,-4.166667,0,512.2325,183.41375)">
            <path d="M-2.916,-2.921C-4.527,-2.921 -5.837,-1.616 -5.837,-0.003C-5.837,1.608 -4.527,2.916 -2.916,2.916C-1.305,2.916 0,1.608 0,-0.003C0,-1.616 -1.305,-2.921 -2.916,-2.921" style="fill:rgb(212,201,129);fill-rule:nonzero;"/>
        </g>
        <g transform="matrix(4.166667,0,0,4.166667,524.40125,195.5825)">
            <path d="M-0.575,-0.005L0.575,-0.005C0.575,1.925 -0.987,3.491 -2.918,3.491C-4.848,3.49 -6.412,1.925 -6.412,-0.005C-6.412,-1.935 -4.847,-3.496 -2.918,-3.496C-0.988,-3.496 0.575,-1.934 0.575,-0.005L-0.575,-0.005C-0.578,-1.298 -1.622,-2.343 -2.918,-2.345C-4.212,-2.343 -5.259,-1.297 -5.261,-0.005C-5.259,1.29 -4.21,2.338 -2.918,2.34C-1.624,2.338 -0.578,1.29 -0.575,-0.005Z" style="fill:rgb(138,135,79);fill-rule:nonzero;"/>
        </g>
    </g>
</svg>
