<svg width="100%" height="100%" viewBox="0 0 1539 581" version="1.1" xmlns="http://www.w3.org/2000/svg" preserveAspectRatio="none">
    <g transform="matrix(1,0,0,1,-253.272083,-1432.503219)">
        <g transform="matrix(4.166667,0,0,4.166667,264.9325,1479.39875)">
            <path d="M0,117.666C0,117.666 4.489,104.642 4.041,103.295C3.594,101.945 5.389,96.558 4.94,95.21C4.489,93.863 4.94,87.574 4.94,86.228C4.94,84.881 1.346,69.61 0.897,68.263C0.448,66.917 0.897,55.24 0.897,53.443C0.897,51.647 2.692,41.767 2.692,40.42C2.692,39.072 1.797,27.395 1.797,27.395L0.897,22.006L1.797,13.024L-0.451,-7.185L17.064,-5.389L30.989,-6.737L40.418,-6.737C40.418,-6.737 46.256,-8.533 47.604,-7.635C48.951,-6.737 51.196,-3.593 52.545,-7.185C53.891,-10.778 57.485,-7.635 57.485,-7.635L61.526,-5.838C61.526,-5.838 72.754,-4.042 79.041,-6.737C85.329,-9.431 91.617,-7.635 91.617,-7.635C91.617,-7.635 94.76,-4.941 97.455,-4.941C100.15,-4.941 109.132,-8.084 110.479,-8.084C111.827,-8.084 115.868,-8.982 119.011,-7.635C122.154,-6.287 123.951,-3.593 128.443,-6.287C132.934,-8.982 137.425,-6.737 137.425,-6.737C137.425,-6.737 139.671,-6.287 142.365,-6.287C145.06,-6.287 154.041,-6.737 155.838,-6.737C157.635,-6.737 198.954,-4.941 200.301,-4.491C201.647,-4.042 226.797,-6.737 228.594,-7.185C230.391,-7.635 240.72,-6.287 240.72,-6.287C240.72,-6.287 245.661,-5.389 247.906,-5.389C250.152,-5.389 255.988,-8.533 259.133,-8.533C262.276,-8.533 268.564,-6.287 270.361,-6.287C272.157,-6.287 273.505,-5.838 278.445,-5.838C283.386,-5.838 286.977,-6.737 294.165,-6.737C301.349,-6.737 310.781,-3.145 316.169,-4.941C321.56,-6.737 322.907,-8.533 324.703,-8.533C326.499,-8.533 333.236,-7.635 334.582,-7.635C335.93,-7.635 340.421,-7.635 341.77,-7.185C343.116,-6.737 352.996,-3.145 360.182,-7.185C367.368,-11.228 366.022,-5.838 366.022,-5.838C366.022,-5.838 364.225,-3.593 364.672,-1.349C365.123,0.898 365.123,4.491 365.123,4.491L363.774,6.737C363.774,6.737 361.529,8.533 362.876,11.677C364.225,14.82 366.022,20.21 366.022,20.21C366.022,20.21 363.774,25.15 363.774,26.946C363.774,28.743 361.08,30.089 362.428,33.235C363.774,36.377 364.672,39.971 364.672,42.664C364.672,45.36 362.428,47.605 363.774,53.443C365.123,59.283 363.774,70.059 364.225,71.857C364.672,73.653 366.918,83.084 364.672,88.473C362.428,93.863 363.326,100.599 363.326,100.599C363.326,100.599 367.368,104.642 366.022,109.581C364.672,114.523 366.469,121.708 366.469,121.708L366.469,126.199L362.876,125.75C362.876,125.75 345.362,123.952 337.727,125.75C330.093,127.546 329.642,124.852 329.642,124.852L322.007,126.648L312.127,127.995C312.127,127.995 286.529,124.852 277.097,124.403C267.665,123.952 236.678,123.055 236.678,123.055L222.306,125.75C222.306,125.75 179.641,122.606 169.312,125.75C158.981,128.894 145.06,124.852 145.06,124.852L127.994,125.302L101.496,125.302L50.748,124.403C50.748,124.403 39.071,126.199 37.725,126.648C36.376,127.096 15.267,126.199 15.267,126.199L7.184,127.546L-0.451,123.952L0,117.666Z" style="fill:rgb(170,165,124);fill-rule:nonzero;"/>
        </g>
        <g transform="matrix(4.166667,0,0,4.166667,255.15125,1469.617917)">
            <path d="M0,117.666C0,117.666 4.489,104.642 4.041,103.295C3.594,101.945 5.389,96.558 4.94,95.21C4.489,93.863 4.94,87.574 4.94,86.228C4.94,84.881 1.346,69.61 0.897,68.263C0.448,66.917 0.897,55.24 0.897,53.443C0.897,51.647 2.692,41.767 2.692,40.42C2.692,39.072 1.797,27.395 1.797,27.395L0.897,22.006L1.797,13.024L-0.451,-7.185L17.064,-5.389L30.989,-6.737L40.418,-6.737C40.418,-6.737 46.256,-8.533 47.604,-7.635C48.951,-6.737 51.196,-3.593 52.545,-7.185C53.891,-10.778 57.485,-7.635 57.485,-7.635L61.526,-5.838C61.526,-5.838 72.754,-4.042 79.041,-6.737C85.329,-9.431 91.617,-7.635 91.617,-7.635C91.617,-7.635 94.76,-4.941 97.455,-4.941C100.15,-4.941 109.132,-8.084 110.479,-8.084C111.827,-8.084 115.868,-8.982 119.011,-7.635C122.154,-6.287 123.951,-3.593 128.443,-6.287C132.934,-8.982 137.425,-6.737 137.425,-6.737C137.425,-6.737 139.671,-6.287 142.365,-6.287C145.06,-6.287 154.041,-6.737 155.838,-6.737C157.635,-6.737 198.954,-4.941 200.301,-4.491C201.647,-4.042 226.797,-6.737 228.594,-7.185C230.391,-7.635 240.72,-6.287 240.72,-6.287C240.72,-6.287 245.661,-5.389 247.906,-5.389C250.152,-5.389 255.989,-8.533 259.133,-8.533C262.276,-8.533 268.564,-6.287 270.361,-6.287C272.157,-6.287 273.505,-5.838 278.445,-5.838C283.386,-5.838 286.977,-6.737 294.165,-6.737C301.349,-6.737 310.781,-3.145 316.169,-4.941C321.56,-6.737 322.907,-8.533 324.703,-8.533C326.499,-8.533 333.236,-7.635 334.582,-7.635C335.93,-7.635 340.421,-7.635 341.77,-7.185C343.116,-6.737 352.996,-3.145 360.182,-7.185C367.368,-11.228 366.022,-5.838 366.022,-5.838C366.022,-5.838 364.225,-3.593 364.672,-1.349C365.123,0.898 365.123,4.491 365.123,4.491L363.774,6.737C363.774,6.737 361.529,8.533 362.876,11.677C364.225,14.82 366.022,20.21 366.022,20.21C366.022,20.21 363.774,25.15 363.774,26.946C363.774,28.743 361.08,30.089 362.428,33.235C363.774,36.377 364.672,39.971 364.672,42.664C364.672,45.36 362.428,47.605 363.774,53.443C365.123,59.283 363.774,70.059 364.225,71.857C364.672,73.653 366.918,83.084 364.672,88.473C362.428,93.863 363.326,100.599 363.326,100.599C363.326,100.599 367.368,104.642 366.022,109.581C364.672,114.523 366.469,121.708 366.469,121.708L366.469,126.199L362.876,125.75C362.876,125.75 345.362,123.952 337.727,125.75C330.093,127.546 329.642,124.852 329.642,124.852L322.007,126.648L312.127,127.995C312.127,127.995 286.529,124.852 277.097,124.403C267.665,123.952 236.678,123.055 236.678,123.055L222.306,125.75C222.306,125.75 179.641,122.606 169.312,125.75C158.981,128.894 145.06,124.852 145.06,124.852L127.994,125.302L101.496,125.302L50.748,124.403C50.748,124.403 39.071,126.199 37.725,126.648C36.376,127.096 15.267,126.199 15.267,126.199L7.184,127.546L-0.451,123.952L0,117.666Z" style="fill:rgb(244,237,172);fill-rule:nonzero;"/>
        </g>
    </g>
</svg>
