<?xml version="1.0" encoding="UTF-8" standalone="no"?>
<!DOCTYPE svg PUBLIC "-//W3C//DTD SVG 1.1//EN" "http://www.w3.org/Graphics/SVG/1.1/DTD/svg11.dtd">
<svg width="100%" height="100%" viewBox="0 0 1310 1358" version="1.1" xmlns="http://www.w3.org/2000/svg" xmlns:xlink="http://www.w3.org/1999/xlink" xml:space="preserve" xmlns:serif="http://www.serif.com/" style="fill-rule:evenodd;clip-rule:evenodd;stroke-linejoin:round;stroke-miterlimit:2;">
    <g transform="matrix(1,0,0,1,-349.200963,-317.644583)">
        <g transform="matrix(4.166667,0,0,4.166667,1512.077083,403.92375)">
            <path d="M0,284.325L0.349,282.773C2.989,271.149 3.76,259.066 4.505,247.38C4.807,242.672 5.114,237.808 5.541,233.074C6.338,213.268 5.364,194.832 2.583,176.719C2.021,172.693 2.135,160.002 2.265,147.425C2.635,144.545 2.563,141.675 2.359,138.795C2.448,129.655 2.469,121.766 2.141,118.99C2.823,109.517 3.385,98.856 3.203,87.998C3,75.488 2.146,63.171 0.667,51.396C0.417,49.381 0.125,47.272 -0.214,45.043C1.156,45.137 3.64,45.397 6.489,45.715C7.484,45.824 8.364,45.928 9.25,46.033C14.624,46.767 20.04,47.574 20.144,47.585C21.029,47.741 21.857,47.751 22.691,47.595C23.258,47.48 23.748,47.34 24.243,47.126C29.112,45.033 33.044,37.46 34.518,27.368C37.278,8.494 32.435,-11.817 23.738,-17.915C21.946,-19.17 20.092,-19.899 18.228,-20.103C17.509,-20.181 16.821,-20.181 16.14,-20.118L0.682,-20.149C-0.12,-20.202 -0.667,-20.186 -1.198,-20.159L-14.571,-20.191C-15.217,-20.227 -15.676,-20.212 -16.134,-20.202L-29.82,-20.227C-30.31,-20.253 -30.685,-20.243 -31.049,-20.233L-45.361,-20.264C-45.559,-20.28 -45.704,-20.274 -45.85,-20.274L-219.615,-20.707C-220.125,-20.707 -220.583,-20.628 -221.083,-20.603C-221.447,-20.701 -221.875,-20.634 -222.291,-20.514C-232.988,-19.587 -239.81,-13.067 -243.549,-0.047L-243.914,1.552C-246.081,11.14 -247.123,19.05 -247.185,26.446C-247.258,33.471 -246.237,40.486 -245.258,47.272L-244.643,51.631C-243.238,61.88 -242.852,72.124 -242.581,81.733C-242.185,95.804 -241.967,110.964 -243.018,127.723C-243.018,130.952 -243.997,135.994 -244.258,142.577C-244.341,143.456 -244.383,144.712 -244.404,146.17C-244.675,152.992 -244.904,159.513 -244.633,161.69C-242.706,176.782 -240.727,192.379 -239.905,207.914C-239.706,214.612 -239.654,220.674 -239.748,226.444C-239.821,230.986 -239.967,235.319 -240.165,239.474C-243.643,239.277 -265.267,236.683 -266.496,236.912C-267.058,237.027 -267.558,237.168 -268.048,237.376C-272.902,239.474 -276.849,247.047 -278.318,257.14C-281.067,276.003 -276.245,296.313 -267.537,302.417C-265.902,303.573 -263.413,304.276 -261.632,304.547C-261.215,304.604 -260.798,304.635 -260.392,304.646C-260.038,304.651 -172.454,304.792 -172.454,304.792L-35.914,305.011C-35.466,305.032 -35.117,305.026 -34.778,305.021L-23.946,305.032C-11.671,305.032 -4.062,298.464 0,284.325" style="fill:white;fill-rule:nonzero;"/>
        </g>
        <g transform="matrix(4.166667,0,0,4.166667,1512.077083,403.92375)">
            <path d="M0,284.325L0.349,282.773C2.989,271.149 3.76,259.066 4.505,247.38C4.807,242.672 5.114,237.808 5.541,233.074C6.338,213.268 5.364,194.832 2.583,176.719C2.021,172.693 2.135,160.002 2.265,147.425C2.635,144.545 2.563,141.675 2.359,138.795C2.448,129.655 2.469,121.766 2.141,118.99C2.823,109.517 3.385,98.856 3.203,87.998C3,75.488 2.146,63.171 0.667,51.396C0.417,49.381 0.125,47.272 -0.214,45.043C1.156,45.137 3.64,45.397 6.489,45.715C7.484,45.824 8.364,45.928 9.25,46.033C14.624,46.767 20.04,47.574 20.144,47.585C21.029,47.741 21.857,47.751 22.691,47.595C23.258,47.48 23.748,47.34 24.243,47.126C29.112,45.033 33.044,37.46 34.518,27.368C37.278,8.494 32.435,-11.817 23.738,-17.915C21.946,-19.17 20.092,-19.899 18.228,-20.103C17.509,-20.181 16.821,-20.181 16.14,-20.118L0.682,-20.149C-0.12,-20.202 -0.667,-20.186 -1.198,-20.159L-14.571,-20.191C-15.217,-20.227 -15.676,-20.212 -16.134,-20.202L-29.82,-20.227C-30.31,-20.253 -30.685,-20.243 -31.049,-20.233L-45.361,-20.264C-45.559,-20.28 -45.704,-20.274 -45.85,-20.274L-219.615,-20.707C-220.125,-20.707 -220.583,-20.628 -221.083,-20.603C-221.447,-20.701 -221.875,-20.634 -222.291,-20.514C-232.988,-19.587 -239.81,-13.067 -243.549,-0.047L-243.914,1.552C-246.081,11.14 -247.123,19.05 -247.185,26.446C-247.258,33.471 -246.237,40.486 -245.258,47.272L-244.643,51.631C-243.238,61.88 -242.852,72.124 -242.581,81.733C-242.185,95.804 -241.967,110.964 -243.018,127.723C-243.018,130.952 -243.997,135.994 -244.258,142.577C-244.341,143.456 -244.383,144.712 -244.404,146.17C-244.675,152.992 -244.904,159.513 -244.633,161.69C-242.706,176.782 -240.727,192.379 -239.905,207.914C-239.706,214.612 -239.654,220.674 -239.748,226.444C-239.821,230.986 -239.967,235.319 -240.165,239.474C-243.643,239.277 -265.267,236.683 -266.496,236.912C-267.058,237.027 -267.558,237.168 -268.048,237.376C-272.902,239.474 -276.849,247.047 -278.318,257.14C-281.067,276.003 -276.245,296.313 -267.537,302.417C-265.902,303.573 -263.413,304.276 -261.632,304.547C-261.215,304.604 -260.798,304.635 -260.392,304.646C-260.038,304.651 -172.454,304.792 -172.454,304.792L-35.914,305.011C-35.466,305.032 -35.117,305.026 -34.778,305.021L-23.946,305.032C-11.671,305.032 -4.062,298.464 0,284.325M13.197,44.98C12.583,44.897 11.551,44.397 11.275,44.137C6.525,39.736 4.979,27.799 5.041,16.66C3,17.941 4.843,37.742 8.708,43.356C9.015,43.804 8.708,44.46 8.275,44.397C7.77,44.335 6.109,43.58 5.75,43.199C1.292,38.455 -1.792,26.826 0.005,16.233C-3.083,26.357 -0.256,36.929 3.468,42.632C3.771,43.085 3.088,43.73 2.495,43.657C1.687,43.564 -0.104,42.908 -0.25,42.371C-0.369,41.934 -0.542,41.335 -0.943,40.439C-1.042,39.861 -1.135,39.273 -1.239,38.679C-2.708,30.081 -2.755,20.936 -1.375,11.494C-1.146,9.9 -0.87,8.348 -0.562,6.848C-0.469,6.4 0.411,5.651 0.781,5.713C4.187,6.255 8.728,6.119 12.353,5.848C13.186,5.786 13.65,6.838 13.186,7.577C11.739,9.89 10.645,13.129 10.082,16.993C9.458,21.248 9.442,25.617 9.921,29.669C10.666,35.679 12.41,40.866 14.884,44.054C15.249,44.527 14.869,45.194 14.207,45.105C13.853,45.064 13.499,45.022 13.197,44.98M4.968,3.046C4.64,1.495 4.26,-0.006 3.838,-1.443C3.64,-2.12 3.083,-5.172 3.354,-5.776C3.563,-6.245 3.781,-6.703 3.994,-7.151C4.166,-7.494 4.917,-7.38 5.114,-6.963C6.655,-3.755 7.9,0.12 8.76,4.421C7.729,4.442 5.062,3.489 4.968,3.046M2.479,4.119C1.776,4.015 0.364,2.869 0.474,2.463C0.693,1.656 0.921,0.87 1.162,0.099C1.427,-0.75 2.375,-1.161 2.557,-0.531C2.864,0.557 3.151,1.687 3.406,2.849C3.51,3.317 2.874,4.177 2.479,4.119M9.009,-10.832C11.27,-7 13.035,-1.838 14.093,4.114C13.254,4.187 12.322,4.26 11.332,4.317C10.978,4.338 10.082,3.515 9.988,3.093C9.109,-0.984 7.885,-4.682 6.385,-7.765C6.094,-8.369 6.124,-10.963 6.531,-11.567C6.874,-12.062 8.551,-11.608 9.009,-10.832M9.76,-12.421C9.374,-13.035 9.218,-14.858 9.551,-15.181C9.78,-15.395 11.483,-15.004 11.864,-14.556C14.145,-11.921 15.718,-8.755 16.821,-5.473C17.332,-3.942 17.707,-2.401 18.082,-0.833C18.717,1.859 19.988,3.442 16.451,3.864C16.186,3.895 15.384,2.932 15.28,2.421C14.082,-3.526 12.176,-8.655 9.76,-12.421M20.326,1.781C19.946,-0.547 19.28,-2.828 18.561,-5.068C17.394,-8.672 15.66,-12.306 13.238,-15.238C12.733,-15.848 14.051,-17.165 14.436,-16.894C14.603,-16.78 14.759,-16.66 14.92,-16.535C20.373,-12.286 24.117,-1.942 25.107,9.921C24.623,8.577 23.993,7.302 23.113,6.172C22.592,5.505 21.769,5.187 21.238,4.536C20.603,3.745 20.488,2.765 20.326,1.781M18.665,5.765C21.878,8.015 23.706,16.045 22.644,23.3C22.586,23.706 22.863,24.082 23.269,24.139C23.675,24.201 24.05,23.92 24.102,23.514C24.873,18.238 24.258,12.827 22.68,8.999C22.253,7.968 22.55,7.827 23.092,8.963C24.8,12.535 25.55,18.212 24.779,23.493C24.425,25.951 24.107,28.925 21.561,30.2C21.217,30.372 20.904,30.471 20.603,30.503C17.946,30.784 16.926,26.024 16.743,24.128C17.04,24.076 17.296,23.837 17.342,23.514C17.644,21.446 17.738,19.316 17.603,17.129C17.91,16.879 18.738,16.525 19.451,16.285C19.654,18.603 19.592,21.035 19.259,23.3C19.201,23.711 19.477,24.082 19.884,24.139C20.29,24.201 20.665,23.92 20.722,23.514C21.071,21.128 21.185,15.16 21.082,14.806C20.987,14.483 20.842,14.223 20.654,14.015C20.061,10.364 18.848,7.359 17.259,5.572C17.597,5.411 17.79,5.359 17.983,5.307C18.118,5.432 18.665,5.765 18.665,5.765M12.686,18.659C12.108,22.608 12.739,26.685 14.15,29.19C12.118,27.743 10.999,22.717 11.666,18.171C11.697,17.947 11.624,17.743 11.499,17.587C11.515,17.462 11.53,17.337 11.54,17.212C11.634,16.618 11.733,16.045 11.843,15.488C13.244,16.113 15.129,15.998 16.696,15.717C16.634,15.811 16.571,15.9 16.519,16.004C15.967,16.993 15.551,18.139 15.374,19.337C14.806,23.243 15.415,27.274 16.801,29.784C16.665,29.758 16.54,29.726 16.41,29.69C14.54,28.128 13.499,23.284 14.15,18.873C14.207,18.472 13.926,18.098 13.525,18.035C13.118,17.972 12.743,18.259 12.686,18.659M11.895,28.846C11.676,28.82 11.478,28.805 11.291,28.794C11.239,28.357 11.207,27.909 11.176,27.461C11.39,27.966 11.63,28.43 11.895,28.846M14.879,10.468C15.27,11.598 15.582,12.853 15.801,14.192C15.093,14.275 14.457,14.285 13.916,14.233C13.811,13.567 13.686,12.91 13.551,12.285C13.447,11.812 14.671,9.859 14.879,10.468M15.811,8.765C15.598,8.27 16.675,7.197 16.978,7.682C17.879,9.129 18.597,11.129 19.051,13.478C18.702,13.588 18.051,13.78 17.259,13.952C16.941,12.01 16.446,10.254 15.811,8.765M19.467,-16.936C27.81,-11.077 32.976,7.213 30.295,25.576C30.237,25.972 30.18,27.732 30.404,28.07C30.862,28.753 31.596,28.701 31.653,28.3C34.122,11.421 30.008,-7.729 22.998,-15.712C22.201,-16.618 22.092,-17.264 22.883,-16.702C31.174,-10.89 35.737,8.78 33.054,27.149C31.83,35.544 28.919,42.054 25.269,44.819C19.675,49.053 13.207,36.283 11.999,32.612C11.76,31.893 12.395,30.617 12.92,30.701C14.79,31.018 17.16,31.554 18.759,31.94C19.441,32.325 20.149,32.481 20.858,32.393C21.165,32.357 21.477,32.273 21.779,32.143C23.185,31.534 24.8,29.68 25.644,27.482C28.123,10.473 24.862,-8.026 17.733,-15.91C16.957,-16.769 18.051,-17.931 19.467,-16.936M-257.486,239.307C-256.892,239.37 -255.028,239.995 -254.715,240.287C-250.102,244.734 -247.685,256.369 -249.289,267.3C-249.341,267.701 -249.57,270.888 -249.164,270.951C-248.758,271.008 -244.997,254.317 -251.58,241.974C-252.091,241.141 -249.279,241.089 -248.716,241.792C-244.748,246.839 -242.769,257.588 -244.248,267.728C-244.383,268.832 -244.716,270.951 -244.289,271.81C-244.102,272.17 -242.862,268.347 -242.79,267.951C-243.071,270.107 -243.362,272.248 -243.716,274.362C-243.966,275.909 -246.477,278.627 -247.518,278.533C-249.966,278.325 -252.663,278.372 -255.038,278.513C-256.278,278.586 -257.017,277.086 -256.424,275.961C-255.257,273.753 -254.371,270.867 -253.882,267.514C-253.268,263.254 -253.247,258.889 -253.726,254.838C-254.424,249.161 -256.017,244.235 -258.267,241.016C-258.788,240.261 -258.34,239.219 -257.486,239.307M-245.695,240.49C-245.206,240.537 -243.185,241.527 -242.675,242.13C-241.904,243.063 -241.175,244.235 -240.529,245.609C-240.841,250.317 -241.248,254.838 -241.748,259.171L-241.987,261.222C-242.185,262.978 -242.383,264.707 -242.592,266.42C-241.571,257.306 -243.227,247.89 -246.56,242.375C-247.039,241.589 -246.456,240.422 -245.695,240.49M-248.581,280.971C-248.268,282.46 -247.914,283.903 -247.518,285.288C-247.31,286.033 -247.477,289.345 -247.831,290.272C-248.008,290.757 -249.528,289.408 -250.018,288.106C-250.81,285.981 -251.487,283.648 -252.038,281.153C-252.132,280.737 -251.507,279.877 -251.102,279.877C-250.58,279.877 -250.059,279.888 -249.539,279.904C-249.289,279.908 -248.643,280.627 -248.581,280.971M-247.247,280.044C-246.414,280.127 -245.622,283.476 -246.06,285.002C-246.518,283.419 -246.914,281.763 -247.247,280.044M-253.143,294.095C-254.924,290.762 -256.361,286.564 -257.34,281.804C-257.444,281.278 -257.028,280.148 -256.705,280.122C-256.049,280.07 -255.351,280.023 -254.622,279.981C-254.351,279.966 -253.653,280.69 -253.57,281.065C-252.747,284.919 -251.622,288.418 -250.247,291.408C-249.904,292.137 -252.549,295.22 -253.143,294.095M-253.247,296.839C-252.882,297.396 -252.695,299.11 -252.986,299.438C-253.289,299.766 -255.173,299.178 -255.768,298.449C-258.08,295.595 -260.017,291.502 -261.423,286.523C-261.934,284.71 -262.371,282.783 -262.736,280.752C-262.298,280.773 -261.86,280.737 -261.423,280.633C-261.402,280.627 -261.08,280.586 -260.517,280.513C-260.153,280.471 -258.976,281.148 -258.892,281.544C-257.694,287.689 -257.09,293.126 -253.247,296.839M-264.027,281.898C-263.673,283.752 -263.246,285.528 -262.767,287.21C-261.288,292.319 -259.246,296.547 -256.809,299.511C-256.257,300.188 -259.683,299.834 -260.475,298.928C-263.496,295.454 -264.767,291.173 -266.204,284.674C-266.517,283.283 -267.871,280.633 -268.1,279.159C-268.277,277.95 -267.902,276.878 -267.516,277.482C-266.912,278.45 -266.214,279.226 -265.454,279.763C-265.069,280.034 -264.121,281.403 -264.027,281.898M-261.662,278.888L-262.204,278.554C-265.423,276.294 -267.256,268.264 -266.193,261.009C-266.131,260.608 -266.413,260.228 -266.819,260.171C-267.225,260.113 -267.6,260.39 -267.652,260.795C-268.714,268.071 -267.141,275.602 -264.037,278.888C-264.225,278.794 -264.413,278.69 -264.6,278.554C-267.131,276.784 -268.788,271.435 -268.881,265.712C-268.829,264.139 -268.735,262.566 -268.579,260.983C-268.037,257.275 -266.631,254.426 -264.996,253.723C-264.694,253.588 -264.391,253.546 -264.09,253.583C-263.986,253.609 -263.798,253.661 -263.538,253.729C-263.381,253.796 -263.236,253.88 -263.08,253.984C-261.767,254.906 -260.85,257.395 -260.548,260.29C-260.725,260.4 -260.86,260.577 -260.892,260.795C-261.173,262.785 -261.278,264.837 -261.173,266.894C-261.257,267.107 -261.35,267.316 -261.444,267.514C-262.007,267.534 -262.548,267.608 -263.017,267.701C-263.183,265.478 -263.121,263.175 -262.809,261.009C-262.746,260.608 -263.027,260.228 -263.434,260.171C-263.839,260.113 -264.214,260.39 -264.267,260.795C-264.611,263.15 -264.683,265.655 -264.475,268.066C-264.996,268.248 -265.193,268.649 -265.08,269.024C-264.839,269.816 -264.496,270.284 -264.152,270.566C-263.538,274.123 -262.329,277.044 -260.767,278.784C-260.903,278.867 -261.048,278.945 -261.205,279.002C-261.506,279.013 -261.579,278.94 -261.662,278.888M-256.237,265.655C-255.653,261.702 -256.288,257.629 -257.704,255.129C-255.663,256.572 -254.548,261.597 -255.215,266.15C-255.226,266.337 -255.247,266.514 -255.268,266.67C-255.288,266.894 -255.32,267.097 -255.351,267.3C-255.435,267.889 -256.725,268.66 -256.851,268.66C-257.33,268.581 -257.861,268.55 -258.434,268.566C-259.017,268.587 -259.924,267.852 -259.736,267.347C-259.465,266.628 -259.278,265.889 -259.173,265.17C-258.684,261.827 -259.069,258.39 -260.048,255.895C-260.267,255.359 -259.319,255.281 -259.038,255.749C-257.768,257.9 -257.173,261.817 -257.694,265.441C-257.757,265.847 -257.476,266.222 -257.069,266.285C-256.663,266.337 -256.288,266.061 -256.237,265.655M-262.455,269.097C-262.559,269.191 -262.652,269.274 -262.736,269.337C-262.903,269.383 -263.037,269.42 -263.131,269.456C-263.204,269.43 -263.267,269.368 -263.34,269.274C-263.08,269.212 -262.788,269.149 -262.455,269.097M-259.35,270.118C-258.642,270.035 -258.007,270.024 -257.455,270.086C-257.288,271.159 -257.08,272.195 -256.809,273.164C-257.101,273.977 -257.444,274.722 -257.809,275.388C-258.486,273.93 -259.017,272.112 -259.35,270.118M-258.725,276.857C-258.996,277.232 -259.288,277.571 -259.59,277.867C-260.924,276.45 -261.986,273.982 -262.59,270.888C-262.434,270.847 -262.288,270.779 -262.152,270.701C-261.788,270.597 -261.329,270.477 -260.809,270.368C-260.392,272.899 -259.673,275.128 -258.725,276.857M-263.08,301.209C-267.923,297.814 -271.485,289.668 -273.079,279.82C-274.214,272.831 -274.953,267.254 -273.995,259.603C-273.808,258.082 -273.203,255.015 -273.61,254.952C-274.016,254.89 -274.641,256.733 -274.703,257.14C-275.818,264.826 -275.682,272.748 -274.537,279.851C-273.297,287.564 -270.87,294.319 -267.569,298.751C-266.454,300.261 -268.11,300.094 -268.767,299.386C-275.714,291.986 -279.307,274.128 -276.849,257.353C-276.203,252.911 -275.433,247.88 -273.172,243.943C-272.057,241.995 -270.464,240.428 -268.225,239.902C-266.517,239.506 -262.402,239.433 -260.924,240.516C-257.392,243.141 -256.33,247.12 -255.695,251.172C-255.548,252.109 -257.861,253.583 -259.309,253.249C-259.455,253.151 -259.632,253.119 -259.798,253.14C-261.101,252.828 -262.309,252.52 -263.037,252.328C-263.881,251.989 -264.746,251.999 -265.579,252.369C-266.954,252.952 -268.443,254.733 -269.287,256.833C-269.454,258.046 -269.933,259.577 -270.047,260.791C-270.318,262.597 -270.412,264.41 -270.37,266.181C-270.516,272.566 -269.86,278.836 -268.558,284.382C-266.954,291.21 -264.36,296.949 -261.048,300.48C-260.34,301.23 -261.829,302.079 -263.08,301.209M-26.8,303.552C-19.655,300.897 -14.822,294.626 -11.869,284.367C-11.759,283.976 -11.989,283.565 -12.379,283.45C-12.769,283.341 -13.556,286.148 -13.676,286.544C-17.457,299.699 -24.071,303.344 -35.278,303.537L-42.038,303.521C-34.862,300.88 -30.008,294.605 -27.055,284.325C-26.945,283.929 -27.165,283.523 -27.56,283.408C-27.951,283.294 -28.362,283.523 -28.477,283.919C-32.321,297.282 -39.476,303.511 -50.996,303.511L-57.261,303.5C-50.063,300.834 -45.84,294.063 -42.882,283.648C-46.725,297.157 -54.657,303.485 -66.182,303.485L-72.306,303.474C-65.135,300.834 -59.006,292.251 -56.047,281.96C-55.938,281.565 -58.854,284.903 -58.964,285.294C-62.808,298.662 -69.744,303.458 -81.274,303.458L-83.488,303.454C-83.488,303.454 -85.014,302.396 -83.884,301.693C-78.691,298.469 -76.66,293.965 -74.254,285.575C-74.14,285.179 -72.754,282.627 -73.14,282.513C-73.535,282.408 -74.275,282.117 -74.389,282.513C-79.41,299.969 -89.211,303.438 -96.424,303.438L-99.132,303.433C-99.132,303.433 -100.554,302.688 -99.658,301.969C-88.143,292.798 -89.092,283.565 -89.201,283.96C-94.2,301.328 -110.61,303.407 -111.866,303.407L-114.782,303.401C-114.782,303.401 -115.865,302.459 -114.834,301.849C-109.428,298.647 -105.605,292.845 -103.127,284.2C-103.012,283.815 -103.241,283.398 -103.637,283.283C-104.022,283.174 -104.439,283.403 -104.548,283.794C-108.392,297.162 -115.548,303.386 -127.072,303.386C-127.072,303.386 -130.781,302.386 -129.703,301.729C-124.375,298.506 -120.604,292.73 -118.146,284.179C-118.037,283.783 -118.266,283.377 -118.657,283.262C-119.052,283.148 -119.459,283.377 -119.573,283.768C-123.411,297.136 -130.567,303.36 -142.092,303.36C-142.092,303.36 -142.123,301.23 -141.233,300.631C-136.822,297.678 -135.791,292.709 -133.333,284.153C-133.218,283.762 -133.447,283.351 -133.843,283.241C-134.228,283.127 -134.64,283.351 -134.759,283.742C-138.592,297.11 -145.748,303.339 -157.273,303.339C-157.273,303.339 -159.263,301.844 -157.934,300.938C-153.07,297.626 -148.008,288.637 -149.154,283.684C-152.998,297.053 -160.934,303.313 -172.454,303.313L-174.569,303.307C-174.569,303.307 -176.136,302.344 -175.089,301.719C-169.704,298.501 -164.507,291.199 -162.033,282.596C-161.919,282.2 -163.549,283.304 -163.934,283.19C-164.33,283.075 -166.616,285.892 -166.778,286.262C-171.746,297.48 -175.85,303.287 -187.377,303.287L-189.909,303.287C-189.909,303.287 -191.117,302.24 -190.002,301.552C-186.086,299.136 -183.11,295.277 -181.183,291.173C-180.401,289.523 -178.985,287.741 -179.016,285.793C-179.094,281.533 -183.255,288.741 -183.703,289.991C-184.755,292.928 -185.795,295.366 -188.044,297.563C-192.21,301.625 -196.689,303.266 -202.532,303.266L-205.251,303.261C-205.251,303.261 -206.969,302.386 -206,301.834C-202.553,299.839 -199.856,296.865 -197.939,293.402C-197.397,292.397 -191.981,283.002 -195.606,283.283C-197.147,283.408 -199.012,288.751 -199.47,289.861C-200.616,292.605 -201.657,295.413 -203.699,297.647C-207.365,301.672 -212.687,303.24 -218.01,303.24L-220.916,303.235C-220.916,303.235 -222.468,302.511 -221.645,302.063C-215.875,298.954 -212.479,292.585 -209.886,283.585C-213.729,296.959 -221.666,303.214 -233.196,303.214L-235.436,303.209C-235.436,303.209 -237.04,302.198 -235.947,301.542C-230.634,298.313 -227.52,292.105 -225.072,283.565C-228.916,296.928 -236.842,303.188 -248.372,303.188C-248.372,303.188 -251.747,302.725 -251.945,302.12C-252.132,301.521 -252.195,300.771 -251.695,300.198C-249.174,297.319 -247.549,293.668 -246.445,290.803C-245.154,287.413 -244.029,283.544 -243.248,280.044C-241.956,274.003 -241.082,266.368 -240.393,260.369C-239.883,255.963 -239.352,250.333 -239.029,245.432C-238.633,239.485 -235.957,237.537 -235.842,230.788C-235.749,224.997 -238.227,214.591 -238.425,207.852C-239.248,192.307 -236.3,178.938 -238.227,163.877C-238.633,158.471 -239.581,149.612 -239.529,144.607C-237.113,121.786 -240.592,99.825 -241.102,81.696C-241.372,72.041 -241.008,59.834 -242.436,49.511C-243.404,42.783 -245.779,33.372 -245.706,26.461C-245.643,19.171 -244.612,11.358 -242.466,1.88L-242.123,0.323C-238.831,-11.103 -233.071,-17.264 -224.249,-18.795C-223.874,-18.4 -223.895,-18.046 -224.01,-17.707C-229.593,-14.546 -233.529,-8.713 -236.06,0.099C-236.175,0.489 -236.675,5.161 -236.28,5.276C-235.883,5.39 -234.749,0.896 -234.644,0.505C-230.801,-12.869 -223.645,-19.087 -212.115,-19.087C-211.979,-19.087 -211.854,-19.139 -211.74,-19.207L-209.042,-19.202C-208.542,-18.91 -208.094,-18.514 -207.959,-18.15C-214.011,-15.118 -218.218,-9.13 -220.885,0.14C-220.989,0.536 -220.708,2.911 -220.312,3.026C-219.916,3.135 -218.395,-1.833 -218.281,-2.224C-214.438,-15.593 -208.459,-19.046 -196.939,-19.046C-196.794,-19.046 -196.668,-19.097 -196.543,-19.17L-192.086,-19.16C-191.887,-18.873 -191.96,-18.618 -192.107,-18.389C-198.512,-15.442 -202.949,-9.312 -205.699,0.38C-205.813,0.771 -205.272,1.682 -205.418,2.057C-206.063,3.666 -205.209,4.703 -205.095,4.307C-201.262,-9.203 -193.273,-19.019 -181.755,-19.019C-180.777,-18.426 -179.61,-18.702 -178.589,-18.816C-178.146,-18.868 -176.975,-19.035 -176.969,-18.41C-182.839,-15.743 -187.034,-10.421 -189.825,-2.187C-189.866,-2.089 -189.919,-2.005 -189.95,-1.906C-190.158,-1.339 -190.388,-0.651 -190.565,0.057C-190.898,1.463 -190.96,2.765 -190.096,3.682C-189.356,3.317 -189.335,1.63 -189.273,0.703C-185.346,-12.77 -178.193,-18.993 -166.668,-18.993C-166.538,-18.993 -166.423,-19.035 -166.319,-19.097L-160.19,-19.082C-167.455,-16.504 -172.36,-10.244 -175.329,0.099C-175.444,0.489 -175.475,4.15 -175.089,4.265C-174.694,4.374 -174.021,0.896 -173.912,0.505C-168.892,-16.952 -158.721,-18.972 -151.508,-18.972C-151.388,-18.972 -151.279,-19.004 -151.185,-19.056L-144.91,-19.046C-152.258,-16.457 -157.19,-10.207 -160.154,0.099C-160.263,0.489 -159.841,4.651 -159.445,4.76C-159.049,4.869 -158.841,0.896 -158.732,0.505C-153.716,-16.931 -143.394,-18.946 -136.067,-18.946C-135.958,-18.946 -135.853,-18.972 -135.759,-19.014L-129.646,-19.004C-136.915,-16.4 -141.311,-8.765 -144.29,1.609C-140.447,-11.754 -132.384,-18.92 -120.865,-18.92C-120.766,-18.92 -120.667,-18.941 -120.579,-18.983L-117.807,-18.972C-117.636,-18.863 -117.438,-18.769 -117.339,-18.618C-117.5,-18.186 -117.61,-17.775 -117.907,-17.41C-123.115,-14.369 -126.249,-9.062 -128.739,-0.391C-128.854,-0.006 -130.218,3.203 -130.156,3.609C-129.708,6.515 -127.187,-1 -127.072,-1.39C-123.229,-14.76 -117.365,-18.894 -105.845,-18.894C-105.72,-18.92 -103.887,-18.931 -102.215,-18.931C-101.741,-18.785 -101.309,-18.629 -101.325,-18.118C-107.559,-15.144 -111.886,-9.119 -114.605,0.312C-114.715,0.703 -115.719,3.078 -115.324,3.192C-114.933,3.302 -113.022,1.25 -112.907,0.859C-110.074,-9.39 -102.184,-18.873 -90.659,-18.873C-90.576,-18.889 -88.451,-18.894 -86.691,-18.889C-86.555,-18.691 -86.477,-18.467 -86.576,-18.223C-86.639,-18.05 -86.785,-17.899 -86.919,-17.749C-92.013,-15.046 -95.752,-10.14 -98.356,-2.911C-98.976,-2.38 -99.429,-0.766 -99.512,-0.151C-99.591,0.495 -99.575,1.114 -99.486,1.713C-99.56,2.317 -99.564,2.984 -99.273,3.479C-98.794,4.276 -98.383,3.854 -98.2,3.119C-98.013,2.37 -98.054,1.568 -97.997,0.745C-94.159,-12.624 -87.003,-18.848 -75.389,-18.868L-69.484,-18.848C-76.681,-16.212 -80.899,-9.937 -83.863,0.359C-83.972,0.755 -84.253,1.167 -83.863,1.276C-83.467,1.391 -83.972,1.161 -83.863,0.771C-80.019,-12.598 -72.082,-18.822 -60.542,-18.832L-56.37,-18.816C-56.37,-18.816 -55.527,-18.347 -56.074,-18.077C-62.224,-15.046 -65.994,-8.609 -68.703,0.828C-64.89,-12.442 -57.026,-18.702 -45.642,-18.795L-42.147,-18.78C-42.147,-18.78 -40.215,-18.248 -40.83,-17.936C-46.84,-14.858 -50.548,-8.468 -53.23,0.854C-49.449,-12.275 -41.694,-18.535 -30.529,-18.754L-23.784,-18.733C-30.92,-16.077 -35.101,-9.369 -38.049,0.88C-34.31,-12.109 -27.446,-17.608 -16.488,-17.952L-11.259,-18.702C-11.259,-18.702 -10.332,-17.999 -11.124,-17.566C-16.894,-14.452 -20.279,-8.088 -22.863,0.901C-19.17,-11.932 -11.635,-18.202 -0.896,-18.675C0.687,-18.671 2.271,-18.702 3.854,-18.645C5.312,-18.598 7.062,-19.358 8.353,-18.223C10.155,-16.645 7.301,-14.619 6.416,-13.436C5.333,-11.988 4.02,-10.504 3.187,-8.89C1.062,-4.786 -0.469,-0.11 -1.542,4.432C-2.052,6.619 -2.489,8.9 -2.844,11.285C-4.239,20.879 -4.192,30.18 -2.698,38.929C-1.896,43.626 -1.276,47.767 -0.797,51.584C0.677,63.302 1.52,75.561 1.719,88.019C1.896,98.867 1.339,109.527 0.651,119.016C0.52,120.797 0.552,134.077 0.875,138.973C0.854,141.748 0.823,144.639 0.792,147.535C0.656,160.137 0.552,172.866 1.114,176.928C3.89,194.968 4.859,213.305 4.067,232.975C3.64,237.699 3.333,242.573 3.031,247.286C2.286,258.921 1.52,270.941 -1.094,282.45L-1.432,283.96C-5.276,297.324 -12.432,303.552 -23.946,303.552L-26.8,303.552Z" style="fill:rgb(197,189,96);fill-rule:nonzero;"/>
        </g>
    </g>
</svg>
