<?xml version="1.0" encoding="UTF-8"?>
<svg xmlns="http://www.w3.org/2000/svg" viewBox="0 0 56.69 56.69">

  <g style="--color: var(--ryuutama-color-check-critical, #45619e)">
    <g fill="var(--color)">
      <!-- BG -->
      <rect x="0" y="0" width="100%" height="100%" />

      <g fill="#fff">
        <path d="M15.61,26.93c-.89.69-2.17.54-2.86-.35l-6.78-8.66c-.7-.88-.54-2.16.35-2.86l8.65-6.78c.89-.7,2.17-.54,2.86.35l6.78,8.66c.69.89.54,2.16-.35,2.86l-8.66,6.78Z"/>
        <path d="M45.62,30.2c-.62.94-1.88,1.2-2.82.58l-9.18-6.06c-.94-.62-1.2-1.88-.58-2.82l6.05-9.18c.62-.94,1.88-1.2,2.82-.58l9.18,6.06c.94.62,1.2,1.88.58,2.82l-6.06,9.18Z"/>
        <polygon points="16.33 48.29 39.58 48.29 42.58 36.29 37.58 38.79 35.83 33.04 31.83 37.54 27.83 28.79 24.33 37.79 20.08 33.29 18.58 39.54 13.58 36.54 16.33 48.29"/>

        <!-- STARS -->
        <polygon points="8.04 30.57 9.15 28.82 8.7 30.84 10.72 30.39 8.97 31.49 10.72 32.6 8.7 32.15 9.15 34.17 8.04 32.42 6.93 34.17 7.39 32.15 5.37 32.6 7.11 31.49 5.37 30.39 7.39 30.84 6.93 28.82 8.04 30.57"/>
        <polygon points="28.71 12.07 29.82 10.32 29.36 12.34 31.38 11.89 29.64 12.99 31.38 14.1 29.36 13.65 29.82 15.67 28.71 13.92 27.6 15.67 28.05 13.65 26.03 14.1 27.78 12.99 26.03 11.89 28.05 12.34 27.6 10.32 28.71 12.07"/>
        <polygon points="49.04 41.82 50.15 40.07 49.7 42.09 51.72 41.64 49.97 42.74 51.72 43.85 49.7 43.4 50.15 45.42 49.04 43.67 47.93 45.42 48.39 43.4 46.37 43.85 48.11 42.74 46.37 41.64 48.39 42.09 47.93 40.07 49.04 41.82"/>
      </g>

      <circle cx="22.83" cy="42.54" r=".87"/>
      <circle cx="15.21" cy="43.16" r=".87"/>
      <circle cx="33.96" cy="42.66" r=".87"/>
      <circle cx="40.71" cy="43.29" r=".87"/>

      <polygon points="12.83 37.41 18.93 41.16 20.59 36.04 24.53 39.16 27.96 31.41 31.52 38.91 35.2 35.29 36.98 40.29 43.21 37.54 42.96 38.79 36.6 41.66 35.08 37.41 31.64 40.79 28.21 34.29 24.91 40.66 20.97 37.79 19.57 42.66 12.96 38.91 12.83 37.41"/>

      <path d="M29.4,41.93c0,1.39-.63,2.52-1.41,2.52s-1.41-1.13-1.41-2.52.63-2.52,1.41-2.52,1.41,1.13,1.41,2.52Z"/>
      <path fill="#fff" d="M29.51,41.06c0,.4-.32.72-.72.72s-.72-.32-.72-.72.32-.72.72-.72.72.32.72.72Z"/>

      <!-- DIE PIPS -->
      <path d="M11.9,15.82c.48.61.36,1.5-.26,1.98-.62.47-1.5.36-1.98-.25-.48-.62-.36-1.51.25-1.98.62-.47,1.5-.36,1.98.26Z"/>
      <path d="M16.76,12.07c.48.62.36,1.5-.25,1.98-.62.47-1.5.36-1.98-.26-.48-.61-.36-1.5.26-1.98.61-.47,1.5-.36,1.98.26Z"/>
      <path d="M14.33,18.97c.47.62.36,1.51-.26,1.98-.61.48-1.5.36-1.97-.25-.47-.62-.37-1.5.25-1.98.62-.48,1.5-.36,1.98.25Z"/>
      <path d="M19.19,15.22c.48.62.36,1.5-.25,1.98-.62.48-1.5.36-1.98-.26-.48-.61-.36-1.5.25-1.98.62-.47,1.5-.36,1.98.26Z"/>
      <path d="M16.76,22.13c.48.62.36,1.5-.25,1.98-.62.48-1.5.36-1.98-.25-.48-.62-.36-1.5.26-1.98.62-.48,1.5-.36,1.98.26Z"/>
      <path d="M21.62,18.38c.48.61.36,1.5-.25,1.98-.62.48-1.5.36-1.98-.26-.48-.62-.36-1.5.25-1.98.61-.47,1.5-.36,1.98.26Z"/>
      <path d="M43.03,17.38c-.44.64-1.32.81-1.96.37-.64-.44-.81-1.31-.37-1.96.44-.64,1.31-.81,1.96-.38.64.44.81,1.32.37,1.96Z"/>
      <path d="M48.11,20.83c-.44.64-1.31.81-1.96.38-.64-.44-.82-1.32-.38-1.96.44-.65,1.32-.81,1.96-.37.64.44.81,1.31.37,1.96Z"/>
      <path d="M40.79,20.67c-.44.65-1.32.82-1.96.38-.64-.44-.81-1.31-.38-1.96.44-.64,1.32-.81,1.96-.37.65.44.81,1.31.38,1.96Z"/>
      <path d="M45.87,24.12c-.44.64-1.32.81-1.96.38-.65-.44-.81-1.32-.38-1.96.44-.64,1.31-.81,1.96-.37.64.44.81,1.31.37,1.96Z"/>
      <path d="M38.55,23.96c-.44.64-1.32.81-1.96.38-.64-.44-.81-1.32-.38-1.96.44-.64,1.32-.81,1.96-.37.64.44.81,1.31.37,1.96Z"/>
      <path d="M43.63,27.41c-.44.64-1.31.81-1.96.37-.65-.44-.81-1.31-.38-1.96.43-.64,1.32-.81,1.96-.37.65.43.82,1.31.38,1.96Z"/>

      <g fill="#fff">
        <!-- BALL TIPS -->
        <circle cx="27.96" cy="29.29" r="1.37"/>
        <circle cx="13.46" cy="35.91" r="1.37"/>
        <circle cx="20.08" cy="33.04" r="1.37"/>
        <circle cx="35.83" cy="32.91" r="1.37"/>
        <circle cx="42.71" cy="36.41" r="1.37"/>
      </g>

      <line stroke="var(--color)" x1="12.83" y1="46.29" x2="44.58" y2="46.29"/>
    </g>
  </g>

</svg>
