<?xml version="1.0" encoding="UTF-8"?>
<svg xmlns="http://www.w3.org/2000/svg" viewBox="0 0 56.69 56.69">
  <defs>
    <!-- MASK -->
    <mask id="__1__">
      <rect width="100%" height="100%" fill="black" />

      <!-- SHOW -->
      <use href="#__2__" fill="white" />

      <!-- SUBTRACT -->
      <use href="#__3__" fill="black" />
    </mask>

    <!-- GEOMETRY -->
    <g id="__2__">
      <!-- SKULL -->
      <path d="M38.51,40.8c0-4.58-4.41-8.28-9.85-8.28s-9.85,3.71-9.85,8.28c0,3.29,2.28,6.12,5.58,7.46,0,0-.5,3.11,2.45,3.11,0,0,.99.03,1.71.03s1.87-.03,1.87-.03c3.23,0,2.45-3.08,2.45-3.08,3.33-1.33,5.63-4.17,5.63-7.48Z"/>

      <!-- STREAKS -->
      <path d="M27.07,5.61s-.88,9.36.29,17.71c0,0,.69-8.85-.29-17.71Z"/>
      <path d="M29.32,5.61s-.88,9.36.29,17.71c0,0,.69-8.85-.29-17.71Z"/>
      <path stroke="#fff" stroke-width=".52px" fill="none" d="M22.29,30.49s-2.15-3.65-4.61-1.82c-4.19,2.81,1.31,6.43,1.5,3,.11-1.93-6.12-4.18-5.26,2.47"/>

      <!-- DICE -->
      <path d="M15.3,26.62c-.89.69-2.17.54-2.86-.35l-6.78-8.66c-.7-.88-.54-2.16.35-2.86l8.65-6.78c.89-.7,2.16-.54,2.86.35l6.78,8.66c.69.89.54,2.16-.35,2.86l-8.66,6.78Z"/>
      <path d="M45.31,29.88c-.62.94-1.88,1.2-2.82.58l-9.18-6.06c-.94-.62-1.2-1.88-.58-2.82l6.05-9.18c.62-.94,1.88-1.2,2.82-.58l9.18,6.06c.94.62,1.2,1.88.58,2.82l-6.06,9.18Z"/>

      <!-- PAN -->
      <path stroke="black" fill="white" stroke-width=".57px" d="M13.86,49.75l2.72-2.65s.77-2.18-3.08-8.3c-3.84-6.12-5.77-5.43-5.76-5.4.01.03-3.26.96-3.26.96"/>
      <path stroke="black" fill="white" stroke-width=".61px" d="M2.66,33.12c.97-.54,4.31,3.24,7.45,8.44,3.15,5.2,4.91,9.85,3.94,10.38-.97.54-4.3-3.24-7.45-8.44-3.15-5.2-4.91-9.84-3.94-10.38Z"/>
      <path stroke="black" fill="white" stroke-width=".57px" d="M3.69,34.84c.49-.27,2.98,2.95,5.55,7.19,2.58,4.24,4.27,7.9,3.78,8.17-.49.27-2.97-2.95-5.55-7.19-2.58-4.24-4.27-7.9-3.78-8.17Z"/>
    </g>

    <!-- CUT -->
    <g id="__3__">
      <!-- SKULL DETAILS -->
      <path d="M29,45.09l.09,1.68s1.03.1,1.03-.4-1.12-1.29-1.12-1.29Z"/>
      <path d="M28.33,45.09l-.09,1.68s-1.03.1-1.03-.4,1.12-1.29,1.12-1.29Z"/>
      <path d="M35.47,42.71c-.21,1.45-1.2,2.52-3.52,2.26-1.68-.19-2.1-1.58-2-3.47.11-1.89,1.17-3.03,3.17-2.58h0c2.84.89,2.35,3.79,2.35,3.79Z"/>
      <path d="M21.85,42.71c.21,1.45,1.21,2.52,3.52,2.26,1.68-.19,2.1-1.58,2-3.47-.11-1.89-1.17-3.03-3.17-2.58h0c-2.84.89-2.35,3.79-2.35,3.79Z"/>
      <polygon points="25.57 51.48 25.57 48.75 26.27 48.75 26.27 51.77 25.57 51.48"/>
      <polygon points="27.41 51.48 27.41 48.75 28.11 48.75 28.11 51.77 27.41 51.48"/>
      <polygon points="29.25 51.48 29.25 48.75 29.96 48.75 29.96 51.77 29.25 51.48"/>
      <polygon points="31.09 51.48 31.09 48.75 31.8 48.75 31.8 51.77 31.09 51.48"/>

      <!-- DIE PIPS -->
      <path d="M17.69,17.56c0,1.47-1.19,2.67-2.67,2.67s-2.67-1.19-2.67-2.67,1.19-2.67,2.67-2.67,2.67,1.19,2.67,2.67Z"/>
      <path d="M44.69,21.22c0,1.47-1.19,2.67-2.67,2.67s-2.67-1.19-2.67-2.67,1.19-2.67,2.67-2.67,2.67,1.19,2.67,2.67Z"/>

      <!-- PAN DETAILS -->
      <polygon points="12.65 45.92 16.23 43.5 16.02 43.21 12.46 45.35 12.65 45.92"/>
      <polygon points="5.83 35.12 9.32 33.85 9.95 34.37 6.21 35.97 5.83 35.12"/>
      <polygon points="13.1 47.25 16.65 44.58 16.19 44.05 12.67 46.43 13.1 47.25"/>
      <polygon points="6.71 36.34 10.26 34.63 10.61 34.97 6.86 36.82 6.71 36.34"/>
      <polygon points="8.6 44.79 10.34 44.01 10.55 44.24 9 45.23 8.6 44.79"/>
      <polygon points="8.83 45.67 10.71 44.5 11.06 45.1 9.5 46.09 8.83 45.67"/>
    </g>
  </defs>

  <!-- BACKGROUND -->
  <g fill="var(--ryuutama-color-check-fumble, #c4151c)">
    <rect width="100%" height="100%" />
  </g>

  <!-- RENDER -->
  <g mask="url(#__1__)" fill="white">
    <use href="#__2__" />
  </g>
</svg>
