<svg width="100%" height="100%" viewBox="0 0 750 750" version="1.1" xmlns="http://www.w3.org/2000/svg" style="stroke-linecap:round;stroke-linejoin:round;">
  <!-- BG -->
  <rect x="0" y="0" width="100%" height="100%" fill="rgb(0 174 239)" />
  <g transform="matrix(4.166667,0,0,4.166667,-1454.125,-2591.454167)">
    <path d="M381.719,682C381.719,682 391.162,681.636 408.594,694.709C421.108,704.095 437.547,718.547 444.067,721.707C452.059,725.582 464.398,727.226 471.186,716.621C477.973,706.017 471.897,692.488 460.049,692.41C451.564,692.353 443.825,699.672 447.215,708.39C450.766,717.519 462.688,716.515 463.923,709.841C465.133,703.306 458.353,701.127 455.691,703.793" style="fill:none;fill-rule:nonzero;stroke:white;stroke-width:3.05px;" />
  </g>
  <g transform="matrix(4.166667,0,0,4.166667,-1454.125,-2434.375)">
    <path d="M366.56,658.754C366.56,658.754 391.525,655.437 419.16,680.809C440.593,700.486 466.585,715.726 499.759,712.822" style="fill:none;fill-rule:nonzero;stroke:white;stroke-width:3.05px;" />
  </g>
  <g transform="matrix(4.166667,0,0,4.166667,-1454.125,-2337)">
    <path d="M359.321,652.647C359.321,652.647 384.745,641.997 417.462,670.589C446.744,696.181 476.426,705.796 501.878,701.554" style="fill:none;fill-rule:nonzero;stroke:white;stroke-width:3.05px;" />
  </g>
  <g transform="matrix(4.166667,0,0,4.166667,-1454.125,-2688.679167)">
    <path d="M484.741,712.295C484.741,712.295 492.197,703.644 513.207,709.273C513.207,709.273 501.342,710.668 505.746,722.56C505.746,722.56 497.521,719.369 497.209,728.552C497.209,728.552 488.685,723.877 483.028,727.621C483.028,727.621 489.839,720.015 484.741,712.295Z" style="fill:white;fill-rule:nonzero;stroke:rgb(0,174,239);stroke-width:2.99px;" />
  </g>
  <g transform="matrix(-3.76413,-1.786739,-1.786739,3.76413,3750.370651,-1515.026876)">
    <path d="M483.263,716.778C495.279,709.767 505.84,716.778 505.84,716.778" style="fill:none;fill-rule:nonzero;stroke:rgb(0,174,239);stroke-width:2.99px;" />
  </g>
  <g transform="matrix(2.506548,3.328412,3.328412,-2.506548,-3008.316161,463.710389)">
    <path d="M481.067,711.736C481.067,711.736 490.459,716.263 500.499,711.736" style="fill:none;fill-rule:nonzero;stroke:rgb(0,174,239);stroke-width:2.99px;" />
  </g>
  <g transform="matrix(4.166667,0,0,4.166667,-1454.125,-2693.520833)">
    <path d="M482.539,712.289C482.539,712.289 495.511,702.548 513.988,709.349C513.988,709.349 503.741,714.994 506.981,722.953C506.981,722.953 504.41,722.968 500.967,725.295C498.788,726.769 497.368,730.81 497.368,730.81C497.368,730.81 486.174,726.802 481.228,729.582C481.228,729.582 488.43,718.898 482.539,712.289Z" style="fill:none;fill-rule:nonzero;stroke:white;stroke-width:1.6px;" />
  </g>
  <g transform="matrix(4.166667,0,0,4.166667,-1454.125,-3071.466667)">
    <path d="M432.609,758.711L436.324,755.388L440.037,758.711L440.037,765.355L436.324,768.677L432.609,765.355L432.609,758.711Z" style="fill:white;fill-rule:nonzero;stroke:white;stroke-width:3.18px;" />
  </g>
  <g transform="matrix(0,4.166667,4.166667,0,-2811.90625,-1715.010417)">
    <path d="M429.838,762.192L442.809,762.192" style="fill:none;fill-rule:nonzero;stroke:white;stroke-width:3.18px;" />
  </g>
  <g transform="matrix(4.166667,0,0,4.166667,-1454.125,-2806.35)">
    <path d="M432.609,726.893L436.324,723.575L440.037,726.893L440.037,733.541L436.324,736.862L432.609,733.541L432.609,726.893Z" style="fill:white;fill-rule:nonzero;stroke:white;stroke-width:3.18px;" />
  </g>
  <g transform="matrix(0,4.166667,4.166667,0,-2679.354167,-1582.458333)">
    <path d="M429.841,730.379L442.807,730.379" style="fill:none;fill-rule:nonzero;stroke:white;stroke-width:3.18px;" />
  </g>
  <g transform="matrix(4.166667,0,0,4.166667,-1454.125,-3005.2125)">
    <path d="M417.811,755.64L416.795,750.763L421.526,749.204L427.28,752.528L428.301,757.405L423.565,758.96L417.811,755.64Z" style="fill:white;fill-rule:nonzero;stroke:white;stroke-width:3.18px;" />
  </g>
  <g transform="matrix(3.608507,2.083216,2.083216,-3.608507,-2789.431228,1977.893649)">
    <path d="M415.927,754.16L428.891,754.16" style="fill:none;fill-rule:nonzero;stroke:white;stroke-width:3.18px;" />
  </g>
  <g transform="matrix(4.166667,0,0,4.166667,-1454.125,-2872.654167)">
    <path d="M445.359,739.728L444.344,734.853L449.075,733.298L454.832,736.622L455.852,741.497L451.115,743.052L445.359,739.728Z" style="fill:white;fill-rule:nonzero;stroke:white;stroke-width:3.18px;" />
  </g>
  <g transform="matrix(3.60847,2.08328,2.08328,-3.60847,-2740.951024,1929.320945)">
    <path d="M443.475,738.255L456.444,738.255" style="fill:none;fill-rule:nonzero;stroke:white;stroke-width:3.18px;" />
  </g>
  <g transform="matrix(4.166667,0,0,4.166667,-1454.125,-2872.645833)">
    <path d="M421.523,743.05L416.79,741.494L417.81,736.62L423.563,733.298L428.299,734.851L427.277,739.73L421.523,743.05Z" style="fill:white;fill-rule:nonzero;stroke:white;stroke-width:3.18px;" />
  </g>
  <g transform="matrix(3.60877,-2.082761,-2.082761,-3.60877,318.810804,3746.794606)">
    <path d="M415.922,738.095L428.891,738.095" style="fill:none;fill-rule:nonzero;stroke:white;stroke-width:3.18px;" />
  </g>
  <g transform="matrix(4.166667,0,0,4.166667,-1454.125,-3005.195833)">
    <path d="M449.072,758.96L444.342,757.401L445.357,752.524L451.114,749.2L455.851,750.759L454.829,755.636L449.072,758.96Z" style="fill:white;fill-rule:nonzero;stroke:white;stroke-width:3.03px;" />
  </g>
  <g transform="matrix(3.608229,-2.083698,-2.083698,-3.608229,368.257467,3795.31373)">
    <path d="M443.473,754.001L456.439,754.001" style="fill:none;fill-rule:nonzero;stroke:white;stroke-width:3.18px;" />
  </g>
  <g transform="matrix(4.166667,0,0,4.166667,-1454.125,-2940.066667)">
    <path d="M428.738,741.878L436.33,737.501L443.923,741.878L443.923,750.649L436.33,755.028L428.738,750.649L428.738,741.878Z" style="fill:white;fill-rule:nonzero;stroke:white;stroke-width:3.18px;" />
  </g>
  <g transform="matrix(0,4.166667,4.166667,0,-2745.058333,-1648.2125)">
    <path d="M427.456,746.154L445.204,746.154" style="fill:none;fill-rule:nonzero;stroke:white;stroke-width:3.18px;" />
  </g>
  <g transform="matrix(0,4.166667,4.166667,0,-2745.058333,-1648.2125)">
    <path d="M427.456,746.154L445.204,746.154" style="fill:none;fill-rule:nonzero;stroke:white;stroke-width:3.18px;" />
  </g>
  <g transform="matrix(3.608207,2.083735,2.083735,-3.608207,-2765.24273,1952.910515)">
    <path d="M427.457,746.156L445.203,746.156" style="fill:none;fill-rule:nonzero;stroke:white;stroke-width:3.18px;" />
  </g>
  <g transform="matrix(3.608207,2.083735,2.083735,-3.608207,-2765.24273,1952.910515)">
    <path d="M427.457,746.156L445.203,746.156" style="fill:none;fill-rule:nonzero;stroke:white;stroke-width:3.18px;" />
  </g>
  <g transform="matrix(3.608614,-2.083031,-2.083031,-3.608614,343.639051,3771.297687)">
    <path d="M427.458,746.158L445.202,746.158" style="fill:none;fill-rule:nonzero;stroke:white;stroke-width:3.18px;" />
  </g>
  <g transform="matrix(4.166667,0,0,4.166667,-1454.125,-3071.466667)">
    <path d="M432.609,758.711L436.324,755.388L440.037,758.711L440.037,765.355L436.324,768.677L432.609,765.355L432.609,758.711Z" style="fill:none;fill-rule:nonzero;stroke:rgb(0,174,239);stroke-width:1.3px;stroke-linecap:butt;stroke-linejoin:miter;" />
  </g>
  <g transform="matrix(0,4.166667,4.166667,0,-2811.90625,-1715.010417)">
    <path d="M429.838,762.192L442.809,762.192" style="fill:none;fill-rule:nonzero;stroke:rgb(0,174,239);stroke-width:1.3px;stroke-linecap:butt;stroke-linejoin:miter;" />
  </g>
  <g transform="matrix(4.166667,0,0,4.166667,-1454.125,-2806.35)">
    <path d="M432.609,726.893L436.324,723.575L440.037,726.893L440.037,733.541L436.324,736.862L432.609,733.541L432.609,726.893Z" style="fill:none;fill-rule:nonzero;stroke:rgb(0,174,239);stroke-width:1.3px;stroke-linecap:butt;stroke-linejoin:miter;" />
  </g>
  <g transform="matrix(0,4.166667,4.166667,0,-2679.354167,-1582.458333)">
    <path d="M429.841,730.379L442.807,730.379" style="fill:none;fill-rule:nonzero;stroke:rgb(0,174,239);stroke-width:1.3px;stroke-linecap:butt;stroke-linejoin:miter;" />
  </g>
  <g transform="matrix(4.166667,0,0,4.166667,-1454.125,-3005.2125)">
    <path d="M417.811,755.64L416.795,750.763L421.526,749.204L427.28,752.528L428.301,757.405L423.565,758.96L417.811,755.64Z" style="fill:none;fill-rule:nonzero;stroke:rgb(0,174,239);stroke-width:1.3px;stroke-linecap:butt;stroke-linejoin:miter;" />
  </g>
  <g transform="matrix(3.608507,2.083216,2.083216,-3.608507,-2789.431228,1977.893649)">
    <path d="M415.927,754.16L428.891,754.16" style="fill:none;fill-rule:nonzero;stroke:rgb(0,174,239);stroke-width:1.3px;stroke-linecap:butt;stroke-linejoin:miter;" />
  </g>
  <g transform="matrix(4.166667,0,0,4.166667,-1454.125,-2872.654167)">
    <path d="M445.359,739.728L444.344,734.853L449.075,733.298L454.832,736.622L455.852,741.497L451.115,743.052L445.359,739.728Z" style="fill:none;fill-rule:nonzero;stroke:rgb(0,174,239);stroke-width:1.3px;stroke-linecap:butt;stroke-linejoin:miter;" />
  </g>
  <g transform="matrix(3.60847,2.08328,2.08328,-3.60847,-2740.951024,1929.320945)">
    <path d="M443.475,738.255L456.444,738.255" style="fill:none;fill-rule:nonzero;stroke:rgb(0,174,239);stroke-width:1.3px;stroke-linecap:butt;stroke-linejoin:miter;" />
  </g>
  <g transform="matrix(4.166667,0,0,4.166667,-1454.125,-2872.645833)">
    <path d="M421.523,743.05L416.79,741.494L417.81,736.62L423.563,733.298L428.299,734.851L427.277,739.73L421.523,743.05Z" style="fill:none;fill-rule:nonzero;stroke:rgb(0,174,239);stroke-width:1.3px;stroke-linecap:butt;stroke-linejoin:miter;" />
  </g>
  <g transform="matrix(3.60877,-2.082761,-2.082761,-3.60877,318.810804,3746.794606)">
    <path d="M415.922,738.095L428.891,738.095" style="fill:none;fill-rule:nonzero;stroke:rgb(0,174,239);stroke-width:1.3px;stroke-linecap:butt;stroke-linejoin:miter;" />
  </g>
  <g transform="matrix(4.166667,0,0,4.166667,-1454.125,-3005.195833)">
    <path d="M449.072,758.96L444.342,757.401L445.357,752.524L451.114,749.2L455.851,750.759L454.829,755.636L449.072,758.96Z" style="fill:none;fill-rule:nonzero;stroke:rgb(0,174,239);stroke-width:1.3px;stroke-linecap:butt;stroke-linejoin:miter;" />
  </g>
  <g transform="matrix(3.608229,-2.083698,-2.083698,-3.608229,368.257467,3795.31373)">
    <path d="M443.473,754.001L456.439,754.001" style="fill:none;fill-rule:nonzero;stroke:rgb(0,174,239);stroke-width:1.3px;stroke-linecap:butt;stroke-linejoin:miter;" />
  </g>
  <g transform="matrix(4.166667,0,0,4.166667,-1454.125,-2940.066667)">
    <path d="M428.738,741.878L436.33,737.501L443.923,741.878L443.923,750.649L436.33,755.028L428.738,750.649L428.738,741.878Z" style="fill:none;fill-rule:nonzero;stroke:rgb(0,174,239);stroke-width:1.3px;stroke-linecap:butt;stroke-linejoin:miter;" />
  </g>
  <g transform="matrix(0,4.166667,4.166667,0,-2745.058333,-1648.2125)">
    <path d="M427.456,746.154L445.204,746.154" style="fill:none;fill-rule:nonzero;stroke:rgb(35,31,32);stroke-width:1.3px;stroke-linecap:butt;stroke-linejoin:miter;" />
  </g>
  <g transform="matrix(0,4.166667,4.166667,0,-2745.058333,-1648.2125)">
    <path d="M427.456,746.154L445.204,746.154" style="fill:none;fill-rule:nonzero;stroke:rgb(0,174,239);stroke-width:1.3px;stroke-linecap:butt;stroke-linejoin:miter;" />
  </g>
  <g transform="matrix(3.608207,2.083735,2.083735,-3.608207,-2765.24273,1952.910515)">
    <path d="M427.457,746.156L445.203,746.156" style="fill:none;fill-rule:nonzero;stroke:rgb(35,31,32);stroke-width:1.29px;stroke-linecap:butt;stroke-linejoin:miter;" />
  </g>
  <g transform="matrix(3.608207,2.083735,2.083735,-3.608207,-2765.24273,1952.910515)">
    <path d="M427.457,746.156L445.203,746.156" style="fill:none;fill-rule:nonzero;stroke:rgb(0,174,239);stroke-width:1.29px;stroke-linecap:butt;stroke-linejoin:miter;" />
  </g>
  <g transform="matrix(3.608614,-2.083031,-2.083031,-3.608614,343.639051,3771.297687)">
    <path d="M427.458,746.158L445.202,746.158" style="fill:none;fill-rule:nonzero;stroke:rgb(0,174,239);stroke-width:1.3px;stroke-linecap:butt;stroke-linejoin:miter;" />
  </g>
  <g transform="matrix(4.166667,0,0,4.166667,-1454.125,-2292.933333)">
    <path d="M379.985,665.286L383.701,661.964L387.414,665.286L387.414,671.931L383.701,675.253L379.985,671.931L379.985,665.286Z" style="fill:white;fill-rule:nonzero;stroke:white;stroke-width:3.18px;" />
  </g>
  <g transform="matrix(0,4.166667,4.166667,0,-2641.910417,-1106.489583)">
    <path d="M377.218,668.77L390.185,668.77" style="fill:none;fill-rule:nonzero;stroke:white;stroke-width:3.18px;" />
  </g>
  <g transform="matrix(4.166667,0,0,4.166667,-1454.125,-2027.841667)">
    <path d="M379.985,633.475L383.701,630.153L387.414,633.475L387.414,640.121L383.701,643.442L379.985,640.121L379.985,633.475Z" style="fill:white;fill-rule:nonzero;stroke:white;stroke-width:3.18px;" />
  </g>
  <g transform="matrix(0,4.166667,4.166667,0,-2509.358333,-973.9375)">
    <path d="M377.216,636.957L390.186,636.957" style="fill:none;fill-rule:nonzero;stroke:white;stroke-width:3.18px;" />
  </g>
  <g transform="matrix(4.166667,0,0,4.166667,-1454.125,-2226.679167)">
    <path d="M365.188,662.215L364.172,657.337L368.904,655.78L374.657,659.102L375.678,663.979L370.943,665.536L365.188,662.215Z" style="fill:white;fill-rule:nonzero;stroke:white;stroke-width:3.18px;" />
  </g>
  <g transform="matrix(3.60839,2.083419,2.083419,-3.60839,-2624.27357,2139.508491)">
    <path d="M363.303,660.737L376.271,660.737" style="fill:none;fill-rule:nonzero;stroke:white;stroke-width:3.18px;" />
  </g>
  <g transform="matrix(4.166667,0,0,4.166667,-1454.125,-2094.145833)">
    <path d="M392.737,646.31L391.721,641.435L396.452,639.876L402.209,643.2L403.229,648.077L398.494,649.632L392.737,646.31Z" style="fill:white;fill-rule:nonzero;stroke:white;stroke-width:3.18px;" />
  </g>
  <g transform="matrix(3.608748,2.082798,2.082798,-3.608748,-2575.498473,2091.468743)">
    <path d="M390.853,644.832L403.82,644.832" style="fill:none;fill-rule:nonzero;stroke:white;stroke-width:3.18px;" />
  </g>
  <g transform="matrix(4.166667,0,0,4.166667,-1454.125,-2094.129167)">
    <path d="M368.9,649.628L364.168,648.073L365.187,643.196L370.939,639.876L375.676,641.427L374.656,646.306L368.9,649.628Z" style="fill:white;fill-rule:nonzero;stroke:white;stroke-width:3.18px;" />
  </g>
  <g transform="matrix(3.608989,-2.082381,-2.082381,-3.608989,94.548476,3689.318148)">
    <path d="M363.3,644.672L376.27,644.672" style="fill:none;fill-rule:nonzero;stroke:white;stroke-width:3.18px;" />
  </g>
  <g transform="matrix(4.166667,0,0,4.166667,-1454.125,-2226.679167)">
    <path d="M396.449,665.536L391.719,663.979L392.734,659.104L398.491,655.78L403.228,657.337L402.207,662.215L396.449,665.536Z" style="fill:white;fill-rule:nonzero;stroke:white;stroke-width:3.03px;" />
  </g>
  <g transform="matrix(3.608507,-2.083216,-2.083216,-3.608507,143.776506,3737.826574)">
    <path d="M390.851,660.578L403.815,660.578" style="fill:none;fill-rule:nonzero;stroke:white;stroke-width:3.18px;" />
  </g>
  <g transform="matrix(4.166667,0,0,4.166667,-1454.125,-2161.55)">
    <path d="M376.115,648.457L383.709,644.079L391.301,648.457L391.301,657.227L383.709,661.606L376.115,657.227L376.115,648.457Z" style="fill:white;fill-rule:nonzero;stroke:white;stroke-width:3.18px;" />
  </g>
  <g transform="matrix(0,4.166667,4.166667,0,-2575.054167,-1039.7)">
    <path d="M374.835,652.732L392.583,652.732" style="fill:none;fill-rule:nonzero;stroke:white;stroke-width:3.18px;" />
  </g>
  <g transform="matrix(0,4.166667,4.166667,0,-2575.054167,-1039.7)">
    <path d="M374.835,652.732L392.583,652.732" style="fill:none;fill-rule:nonzero;stroke:white;stroke-width:3.18px;" />
  </g>
  <g transform="matrix(3.608469,2.083281,2.083281,-3.608469,-2599.76108,2115.079035)">
    <path d="M374.835,652.731L392.582,652.731" style="fill:none;fill-rule:nonzero;stroke:white;stroke-width:3.18px;" />
  </g>
  <g transform="matrix(3.608469,2.083281,2.083281,-3.608469,-2599.76108,2115.079035)">
    <path d="M374.835,652.731L392.582,652.731" style="fill:none;fill-rule:nonzero;stroke:white;stroke-width:3.18px;" />
  </g>
  <g transform="matrix(3.608876,-2.082577,-2.082577,-3.608876,119.269514,3713.818399)">
    <path d="M374.836,652.733L392.581,652.733" style="fill:none;fill-rule:nonzero;stroke:white;stroke-width:3.18px;" />
  </g>
  <g transform="matrix(4.166667,0,0,4.166667,-1454.125,-2292.933333)">
    <path d="M379.985,665.286L383.701,661.964L387.414,665.286L387.414,671.931L383.701,675.253L379.985,671.931L379.985,665.286Z" style="fill:none;fill-rule:nonzero;stroke:rgb(0,174,239);stroke-width:1.3px;stroke-linecap:butt;stroke-linejoin:miter;" />
  </g>
  <g transform="matrix(0,4.166667,4.166667,0,-2641.910417,-1106.489583)">
    <path d="M377.218,668.77L390.185,668.77" style="fill:none;fill-rule:nonzero;stroke:rgb(0,174,239);stroke-width:1.3px;stroke-linecap:butt;stroke-linejoin:miter;" />
  </g>
  <g transform="matrix(4.166667,0,0,4.166667,-1454.125,-2027.841667)">
    <path d="M379.985,633.475L383.701,630.153L387.414,633.475L387.414,640.121L383.701,643.442L379.985,640.121L379.985,633.475Z" style="fill:none;fill-rule:nonzero;stroke:rgb(0,174,239);stroke-width:1.3px;stroke-linecap:butt;stroke-linejoin:miter;" />
  </g>
  <g transform="matrix(0,4.166667,4.166667,0,-2509.358333,-973.9375)">
    <path d="M377.216,636.957L390.186,636.957" style="fill:none;fill-rule:nonzero;stroke:rgb(0,174,239);stroke-width:1.3px;stroke-linecap:butt;stroke-linejoin:miter;" />
  </g>
  <g transform="matrix(4.166667,0,0,4.166667,-1454.125,-2226.679167)">
    <path d="M365.188,662.215L364.172,657.337L368.904,655.78L374.657,659.102L375.678,663.979L370.943,665.536L365.188,662.215Z" style="fill:none;fill-rule:nonzero;stroke:rgb(0,174,239);stroke-width:1.3px;stroke-linecap:butt;stroke-linejoin:miter;" />
  </g>
  <g transform="matrix(3.60839,2.083419,2.083419,-3.60839,-2624.27357,2139.508491)">
    <path d="M363.303,660.737L376.271,660.737" style="fill:none;fill-rule:nonzero;stroke:rgb(0,174,239);stroke-width:1.29px;stroke-linecap:butt;stroke-linejoin:miter;" />
  </g>
  <g transform="matrix(4.166667,0,0,4.166667,-1454.125,-2094.145833)">
    <path d="M392.737,646.31L391.721,641.435L396.452,639.876L402.209,643.2L403.229,648.077L398.494,649.632L392.737,646.31Z" style="fill:none;fill-rule:nonzero;stroke:rgb(0,174,239);stroke-width:1.3px;stroke-linecap:butt;stroke-linejoin:miter;" />
  </g>
  <g transform="matrix(3.608748,2.082798,2.082798,-3.608748,-2575.498473,2091.468743)">
    <path d="M390.853,644.832L403.82,644.832" style="fill:none;fill-rule:nonzero;stroke:rgb(0,174,239);stroke-width:1.29px;stroke-linecap:butt;stroke-linejoin:miter;" />
  </g>
  <g transform="matrix(4.166667,0,0,4.166667,-1454.125,-2094.129167)">
    <path d="M368.9,649.628L364.168,648.073L365.187,643.196L370.939,639.876L375.676,641.427L374.656,646.306L368.9,649.628Z" style="fill:none;fill-rule:nonzero;stroke:rgb(0,174,239);stroke-width:1.3px;stroke-linecap:butt;stroke-linejoin:miter;" />
  </g>
  <g transform="matrix(3.608989,-2.082381,-2.082381,-3.608989,94.548476,3689.318148)">
    <path d="M363.3,644.672L376.27,644.672" style="fill:none;fill-rule:nonzero;stroke:rgb(0,174,239);stroke-width:1.3px;stroke-linecap:butt;stroke-linejoin:miter;" />
  </g>
  <g transform="matrix(4.166667,0,0,4.166667,-1454.125,-2226.679167)">
    <path d="M396.449,665.536L391.719,663.979L392.734,659.104L398.491,655.78L403.228,657.337L402.207,662.215L396.449,665.536Z" style="fill:none;fill-rule:nonzero;stroke:rgb(0,174,239);stroke-width:1.3px;stroke-linecap:butt;stroke-linejoin:miter;" />
  </g>
  <g transform="matrix(3.608507,-2.083216,-2.083216,-3.608507,143.776506,3737.826574)">
    <path d="M390.851,660.578L403.815,660.578" style="fill:none;fill-rule:nonzero;stroke:rgb(0,174,239);stroke-width:1.3px;stroke-linecap:butt;stroke-linejoin:miter;" />
  </g>
  <g transform="matrix(4.166667,0,0,4.166667,-1454.125,-2161.55)">
    <path d="M376.115,648.457L383.709,644.079L391.301,648.457L391.301,657.227L383.709,661.606L376.115,657.227L376.115,648.457Z" style="fill:none;fill-rule:nonzero;stroke:rgb(0,174,239);stroke-width:1.3px;stroke-linecap:butt;stroke-linejoin:miter;" />
  </g>
  <g transform="matrix(0,4.166667,4.166667,0,-2575.054167,-1039.7)">
    <path d="M374.835,652.732L392.583,652.732" style="fill:none;fill-rule:nonzero;stroke:rgb(35,31,32);stroke-width:1.3px;stroke-linecap:butt;stroke-linejoin:miter;" />
  </g>
  <g transform="matrix(0,4.166667,4.166667,0,-2575.054167,-1039.7)">
    <path d="M374.835,652.732L392.583,652.732" style="fill:none;fill-rule:nonzero;stroke:rgb(0,174,239);stroke-width:1.3px;stroke-linecap:butt;stroke-linejoin:miter;" />
  </g>
  <g transform="matrix(3.608469,2.083281,2.083281,-3.608469,-2599.76108,2115.079035)">
    <path d="M374.835,652.731L392.582,652.731" style="fill:none;fill-rule:nonzero;stroke:rgb(35,31,32);stroke-width:1.3px;stroke-linecap:butt;stroke-linejoin:miter;" />
  </g>
  <g transform="matrix(3.608469,2.083281,2.083281,-3.608469,-2599.76108,2115.079035)">
    <path d="M374.835,652.731L392.582,652.731" style="fill:none;fill-rule:nonzero;stroke:rgb(0,174,239);stroke-width:1.3px;stroke-linecap:butt;stroke-linejoin:miter;" />
  </g>
  <g transform="matrix(3.608876,-2.082577,-2.082577,-3.608876,119.269514,3713.818399)">
    <path d="M374.836,652.733L392.581,652.733" style="fill:none;fill-rule:nonzero;stroke:rgb(0,174,239);stroke-width:1.3px;stroke-linecap:butt;stroke-linejoin:miter;" />
  </g>
</svg>
