<svg width="100%" height="100%" viewBox="0 0 750 750" version="1.1" xmlns="http://www.w3.org/2000/svg" xmlns:xlink="http://www.w3.org/1999/xlink" style="stroke-linecap:round;stroke-linejoin:round;">
  <g transform="matrix(4.166667,0,0,4.166667,-276.2,-2528.804167)">
    <path d="M246.288,758.786C246.288,774.323 233.695,786.913 218.162,786.913L94.416,786.913C78.883,786.913 66.288,774.323 66.288,758.786L66.288,635.041C66.288,619.513 78.883,606.913 94.416,606.913L218.162,606.913C233.695,606.913 246.288,619.513 246.288,635.041L246.288,758.786Z" style="fill:rgb(247,147,29);fill-rule:nonzero;" />
  </g>
  <g transform="matrix(4.166667,0,0,4.166667,-276.2,-2732.183333)">
    <path d="M208.885,713.443C208.885,713.443 219.913,707.743 238.821,721.939C238.821,721.939 226.286,718.532 225.905,732.319C225.905,732.319 218.9,725.761 214.866,734.894C214.866,734.894 208.164,726.721 200.939,728.205C200.939,728.205 210.894,723.299 208.885,713.443Z" style="fill:white;fill-rule:nonzero;stroke:rgb(247,147,29);stroke-width:3.24px;" />
  </g>
  <g transform="matrix(-2.825561,-3.062241,-3.062241,2.825561,3447.906015,-1091.693021)">
    <path d="M204.936,720.176C218.001,712.557 229.476,720.176 229.476,720.176" style="fill:none;fill-rule:nonzero;stroke:rgb(247,147,29);stroke-width:3.24px;" />
  </g>
  <g transform="matrix(1.082749,4.023527,4.023527,-1.082749,-2511.423701,207.493864)">
    <path d="M201.811,717.584C201.811,717.584 212.017,722.504 222.937,717.584" style="fill:none;fill-rule:nonzero;stroke:rgb(247,147,29);stroke-width:3.24px;" />
  </g>
  <g transform="matrix(4.166667,0,0,4.166667,-276.2,-2731.191667)">
    <path d="M207.137,711.133C207.137,711.133 224.171,706.572 240.049,720.921C240.049,720.921 227.421,722.463 227.46,731.802C227.46,731.802 224.864,730.774 220.445,731.723C217.653,732.326 214.58,735.827 214.58,735.827C214.58,735.827 204.915,727.246 198.802,728.043C198.802,728.043 210.394,720.187 207.137,711.133Z" style="fill:none;fill-rule:nonzero;stroke:white;stroke-width:1.73px;" />
  </g>
  <g transform="matrix(4.166667,0,0,4.166667,-276.2,-2732.183333)">
    <path d="M103.688,713.443C103.688,713.443 92.661,707.743 73.756,721.939C73.756,721.939 86.287,718.532 86.67,732.319C86.67,732.319 93.673,725.761 97.71,734.894C97.71,734.894 104.406,726.721 111.634,728.205C111.634,728.205 101.68,723.299 103.688,713.443Z" style="fill:white;fill-rule:nonzero;stroke:rgb(247,147,29);stroke-width:3.24px;stroke-linecap:butt;stroke-linejoin:miter;" />
  </g>
  <g transform="matrix(2.825102,-3.062664,-3.062664,-2.825102,2057.401376,2604.726185)">
    <path d="M83.101,720.176C96.162,727.799 107.638,720.176 107.638,720.176" style="fill:none;fill-rule:nonzero;stroke:rgb(247,147,29);stroke-width:3.24px;" />
  </g>
  <g transform="matrix(-1.082749,4.023527,4.023527,1.082749,-2642.452289,-895.093794)">
    <path d="M89.139,719.431C89.139,719.431 99.345,714.511 110.265,719.431" style="fill:none;fill-rule:nonzero;stroke:rgb(247,147,29);stroke-width:3.24px;" />
  </g>
  <g transform="matrix(4.166667,0,0,4.166667,-276.2,-2731.191667)">
    <path d="M105.438,711.133C105.438,711.133 88.403,706.572 72.527,720.921C72.527,720.921 85.155,722.463 85.113,731.802C85.113,731.802 87.71,730.774 92.127,731.723C94.924,732.326 97.996,735.827 97.996,735.827C97.996,735.827 107.658,727.246 113.774,728.043C113.774,728.043 102.178,720.187 105.438,711.133Z" style="fill:none;fill-rule:nonzero;stroke:white;stroke-width:1.73px;" />
  </g>
  <g transform="matrix(0,-4.166667,-4.166667,0,3279.125,1026.5375)">
    <path d="M156.368,664.856C138.664,664.856 124.31,679.208 124.31,696.912C124.31,714.612 138.664,728.966 156.368,728.966C174.071,728.966 188.424,714.612 188.424,696.912C188.424,679.208 174.071,664.856 156.368,664.856" style="fill:white;fill-rule:nonzero;" />
  </g>
  <g transform="matrix(4.166667,0,0,4.166667,-276.2,-2414.5625)">
    <path d="M136.617,680.81L141.552,685.598L146.488,680.81L151.423,685.598L156.36,680.81L161.294,685.598L166.233,680.81L171.175,685.598L176.117,680.81" style="fill:white;fill-rule:nonzero;stroke:rgb(247,147,29);stroke-width:2.39px;stroke-linejoin:miter;" />
  </g>
  <g transform="matrix(0,-4.166667,-4.166667,0,3213.925,947.3875)">
    <path d="M139.046,695.833C137.523,695.833 136.293,697.067 136.293,698.585C136.293,700.106 137.523,701.337 139.046,701.337C140.565,701.337 141.797,700.106 141.797,698.585C141.797,697.067 140.565,695.833 139.046,695.833" style="fill:rgb(247,147,29);fill-rule:nonzero;" />
  </g>
  <g transform="matrix(0,-4.166667,-4.166667,0,3358.285417,1091.747917)">
    <path d="M173.693,695.832C172.17,695.832 170.94,697.064 170.94,698.586C170.94,700.106 172.17,701.337 173.693,701.337C175.212,701.337 176.443,700.106 176.443,698.586C176.443,697.064 175.212,695.832 173.693,695.832" style="fill:rgb(247,147,29);fill-rule:nonzero;" />
  </g>
  <g transform="matrix(4.166667,0,0,4.166667,-276.2,-2945.2375)">
    <path d="M156.136,757.138C154.946,757.138 153.978,738.113 153.978,738.113C153.978,737.296 154.946,736.632 156.136,736.632C157.33,736.632 158.298,737.296 158.298,738.113C158.298,738.113 157.33,757.138 156.136,757.138" style="fill:white;fill-rule:nonzero;" />
  </g>
  <g transform="matrix(-4.166667,0,0,4.166667,1024.95,-2112.354167)">
    <path d="M156.14,636.688C154.946,636.688 153.978,655.714 153.978,655.714C153.978,656.531 154.946,657.19 156.14,657.19C157.33,657.19 158.298,656.531 158.298,655.714C158.298,655.714 157.33,636.688 156.14,636.688" style="fill:white;fill-rule:nonzero;" />
  </g>
  <g transform="matrix(0,4.166667,4.166667,0,-2321.204167,-483.7875)">
    <path d="M206.11,686.657C204.918,686.657 203.952,705.686 203.952,705.686C203.952,706.502 204.918,707.166 206.11,707.166C207.303,707.166 208.269,706.502 208.269,705.686C208.269,705.686 207.303,686.657 206.11,686.657" style="fill:white;fill-rule:nonzero;" />
  </g>
  <g transform="matrix(0,-4.166667,-4.166667,0,3069.952083,817.360417)">
    <path d="M106.165,686.657C104.972,686.657 104.006,705.687 104.006,705.687C104.006,706.502 104.972,707.167 106.165,707.167C107.357,707.167 108.323,706.502 108.323,705.687C108.323,705.687 107.357,686.657 106.165,686.657" style="fill:white;fill-rule:nonzero;" />
  </g>
  <g transform="matrix(2.946583,2.945973,2.945973,-2.946583,-2200.935822,1818.50324)">
    <path d="M192.151,722.522C190.958,722.521 189.993,741.545 189.993,741.545C189.994,742.364 190.959,743.026 192.151,743.027C193.342,743.026 194.31,742.362 194.31,741.546C194.31,741.546 193.343,722.52 192.151,722.522" style="fill:white;fill-rule:nonzero;" />
  </g>
  <g transform="matrix(-2.946583,-2.945973,-2.945973,2.946583,2525.271266,-1068.433184)">
    <path d="M120.126,650.493C118.934,650.49 117.974,669.519 117.974,669.519C117.969,670.337 118.936,670.997 120.126,671.001C121.321,670.996 122.286,670.335 122.288,669.516C122.288,669.516 121.319,650.493 120.126,650.493" style="fill:white;fill-rule:nonzero;" />
  </g>
  <g transform="matrix(-2.946685,2.945872,2.945872,2.946685,-856.280303,-1988.440573)">
    <path d="M192.151,650.494C190.959,650.492 189.989,669.516 189.989,669.516C189.992,670.334 190.956,670.996 192.151,671C193.34,670.997 194.308,670.336 194.306,669.516C194.306,669.516 193.34,650.49 192.151,650.494" style="fill:white;fill-rule:nonzero;" />
  </g>
  <g transform="matrix(2.946583,-2.945973,-2.945973,-2.946583,2029.539878,2738.462988)">
    <path d="M120.127,722.521C118.934,722.52 117.967,741.546 117.967,741.546C117.966,742.363 118.934,743.027 120.127,743.027C121.318,743.026 122.283,742.364 122.281,741.549C122.281,741.549 121.318,722.518 120.127,722.521" style="fill:white;fill-rule:nonzero;" />
  </g>
</svg>
