<?xml version="1.0" encoding="UTF-8" standalone="no"?>
<!DOCTYPE svg PUBLIC "-//W3C//DTD SVG 1.1//EN" "http://www.w3.org/Graphics/SVG/1.1/DTD/svg11.dtd">
<svg width="100%" height="100%" viewBox="0 0 750 750" version="1.1" xmlns="http://www.w3.org/2000/svg" xmlns:xlink="http://www.w3.org/1999/xlink" xml:space="preserve" xmlns:serif="http://www.serif.com/" style="fill-rule:evenodd;clip-rule:evenodd;stroke-linecap:round;stroke-linejoin:round;">
    <g transform="matrix(4.166667,0,0,4.166667,-1454.125,-2528.804167)">
        <path d="M528.99,758.786C528.99,774.322 516.398,786.913 500.867,786.913L377.117,786.913C361.586,786.913 348.99,774.322 348.99,758.786L348.99,635.04C348.99,619.511 361.586,606.913 377.117,606.913L500.867,606.913C516.398,606.913 528.99,619.511 528.99,635.04L528.99,758.786Z" style="fill:rgb(99,100,102);fill-rule:nonzero;"/>
    </g>
    <g transform="matrix(4.166667,0,0,4.166667,-1454.125,-2461.475)">
        <path d="M490.073,688.477C490.073,680.471 483.797,673.949 475.9,673.516C474.646,666.193 468.282,660.615 460.602,660.615C457.685,660.615 454.965,661.433 452.633,662.831C449.925,658.096 444.836,654.898 438.99,654.898C432.866,654.898 427.572,658.409 424.979,663.521C422.495,661.702 419.442,660.615 416.128,660.615C408.54,660.615 402.284,666.253 401.281,673.566C393.763,674.379 387.908,680.742 387.908,688.477C387.908,696.178 393.713,702.516 401.185,703.373C401.154,703.764 401.125,704.154 401.125,704.553C401.125,712.839 407.843,719.555 416.128,719.555C419.911,719.555 423.358,718.145 425.997,715.834C428.663,720 433.32,722.769 438.633,722.769C443.946,722.769 448.604,720 451.27,715.834C453.909,718.145 457.355,719.555 461.138,719.555C469.424,719.555 476.141,712.839 476.141,704.553C476.141,704.173 476.111,703.801 476.084,703.429C483.895,702.905 490.073,696.421 490.073,688.477" style="fill:white;fill-rule:nonzero;"/>
    </g>
    <g transform="matrix(4.166667,0,0,4.166667,-1454.125,-2764.866667)">
        <path d="M491.588,717.363C491.588,717.363 502.615,711.664 521.521,725.86C521.521,725.86 508.991,722.454 508.607,736.239C508.607,736.239 501.605,729.683 497.569,738.817C497.569,738.817 490.868,730.643 483.642,732.127C483.642,732.127 493.597,727.219 491.588,717.363Z" style="fill:white;fill-rule:nonzero;stroke:rgb(99,100,102);stroke-width:3.25px;"/>
    </g>
    <g transform="matrix(-2.825469,-3.062325,-3.062325,2.825469,4258.7328,-253.318693)">
        <path d="M487.638,724.1C500.697,716.479 512.179,724.1 512.179,724.1" style="fill:none;fill-rule:nonzero;stroke:rgb(99,100,102);stroke-width:3.24px;"/>
    </g>
    <g transform="matrix(1.083166,4.023414,4.023414,-1.083166,-2833.427764,-941.711807)">
        <path d="M484.514,721.507C484.514,721.507 494.722,726.428 505.64,721.507" style="fill:none;fill-rule:nonzero;stroke:rgb(99,100,102);stroke-width:3.24px;"/>
    </g>
    <g transform="matrix(4.166667,0,0,4.166667,-1454.125,-2763.8875)">
        <path d="M489.841,715.058C489.841,715.058 506.873,710.494 522.752,724.847C522.752,724.847 510.126,726.387 510.165,735.726C510.165,735.726 507.567,734.699 503.151,735.648C500.354,736.249 497.281,739.752 497.281,739.752C497.281,739.752 487.62,731.17 481.503,731.966C481.503,731.966 493.101,724.114 489.841,715.058Z" style="fill:none;fill-rule:nonzero;stroke:white;stroke-width:1.73px;"/>
    </g>
    <g transform="matrix(4.166667,0,0,4.166667,-1454.125,-2764.866667)">
        <path d="M386.392,717.363C386.392,717.363 375.364,711.664 356.458,725.86C356.458,725.86 368.988,722.454 369.374,736.239C369.374,736.239 376.374,729.683 380.412,738.817C380.412,738.817 387.111,730.643 394.338,732.127C394.338,732.127 384.383,727.219 386.392,717.363Z" style="fill:white;fill-rule:nonzero;stroke:rgb(99,100,102);stroke-width:3.25px;stroke-linecap:butt;stroke-linejoin:miter;"/>
    </g>
    <g transform="matrix(2.825469,-3.062325,-3.062325,-2.825469,1270.373468,3465.420797)">
        <path d="M365.801,724.1C378.862,731.72 390.342,724.1 390.342,724.1" style="fill:none;fill-rule:nonzero;stroke:rgb(99,100,102);stroke-width:3.24px;"/>
    </g>
    <g transform="matrix(-1.082982,4.023464,4.023464,1.082982,-2352.000744,-2053.299492)">
        <path d="M371.842,723.356C371.842,723.356 382.05,718.434 392.968,723.356" style="fill:none;fill-rule:nonzero;stroke:rgb(99,100,102);stroke-width:3.24px;"/>
    </g>
    <g transform="matrix(4.166667,0,0,4.166667,-1454.125,-2763.8875)">
        <path d="M388.139,715.058C388.139,715.058 371.106,710.494 355.228,724.847C355.228,724.847 367.854,726.387 367.814,735.726C367.814,735.726 370.413,734.699 374.83,735.648C377.625,736.249 380.698,739.752 380.698,739.752C380.698,739.752 390.359,731.17 396.477,731.966C396.477,731.966 384.88,724.114 388.139,715.058Z" style="fill:none;fill-rule:nonzero;stroke:white;stroke-width:1.73px;"/>
    </g>
</svg>
