<?xml version="1.0" encoding="UTF-8" standalone="no"?>
<!DOCTYPE svg PUBLIC "-//W3C//DTD SVG 1.1//EN" "http://www.w3.org/Graphics/SVG/1.1/DTD/svg11.dtd">
<svg width="100%" height="100%" viewBox="0 0 750 750" version="1.1" xmlns="http://www.w3.org/2000/svg" xmlns:xlink="http://www.w3.org/1999/xlink" xml:space="preserve" xmlns:serif="http://www.serif.com/" style="fill-rule:evenodd;clip-rule:evenodd;">
    <g transform="matrix(4.166667,0,0,4.166667,-276.2,-922.629167)">
        <path d="M246.288,373.302C246.288,388.84 233.696,401.431 218.163,401.431L94.417,401.431C78.883,401.431 66.288,388.84 66.288,373.302L66.288,249.558C66.288,234.029 78.883,221.431 94.417,221.431L218.163,221.431C233.696,221.431 246.288,234.029 246.288,249.558L246.288,373.302Z" style="fill:rgb(0,174,239);fill-rule:nonzero;"/>
    </g>
    <g transform="matrix(4.166667,0,0,4.166667,-276.2,-785.566667)">
        <path d="M118.786,291.708C118.786,291.708 111.734,281.493 88.375,285.132C88.375,285.132 101.036,288.019 94.891,300.366C94.891,300.366 104.155,297.872 103.424,307.831C103.424,307.831 113.176,303.767 118.858,308.474C118.858,308.474 112.379,299.462 118.786,291.708Z" style="fill:white;fill-rule:nonzero;stroke:rgb(0,174,239);stroke-width:3.24px;"/>
    </g>
    <g transform="matrix(3.933346,-1.374735,-1.374735,-3.933346,155.617713,1750.963326)">
        <path d="M94.373,294.306C107.435,301.928 118.911,294.306 118.911,294.306" style="fill:none;fill-rule:nonzero;stroke:rgb(0,174,239);stroke-width:3.24px;stroke-linecap:round;stroke-linejoin:round;"/>
    </g>
    <g transform="matrix(-2.847445,3.041902,3.041902,2.847445,-378.042655,-700.99505)">
        <path d="M100.743,290.135C100.743,290.135 110.951,285.216 121.871,290.135" style="fill:none;fill-rule:nonzero;stroke:rgb(0,174,239);stroke-width:3.24px;stroke-linecap:round;stroke-linejoin:round;"/>
    </g>
    <g transform="matrix(4.166667,0,0,4.166667,-276.2,-792.875)">
        <path d="M121.304,292.458C121.304,292.458 108.416,280.421 87.657,285.62C87.657,285.62 98.076,292.919 93.649,301.142C93.649,301.142 96.424,301.456 99.875,304.37C102.061,306.218 103.125,310.751 103.125,310.751C103.125,310.751 115.688,307.722 120.71,311.3C120.71,311.3 114.17,298.915 121.304,292.458Z" style="fill:none;fill-rule:nonzero;stroke:white;stroke-width:1.73px;stroke-linecap:round;stroke-linejoin:round;"/>
    </g>
    <g transform="matrix(4.166667,0,0,4.166667,-276.2,-785.566667)">
        <path d="M192.507,291.708C192.507,291.708 199.559,281.493 222.918,285.132C222.918,285.132 210.257,288.019 216.402,300.366C216.402,300.366 207.138,297.872 207.869,307.831C207.869,307.831 198.117,303.767 192.435,308.474C192.435,308.474 198.914,299.462 192.507,291.708Z" style="fill:white;fill-rule:nonzero;stroke:rgb(0,174,239);stroke-width:3.24px;"/>
    </g>
    <g transform="matrix(-3.933346,-1.374735,-1.374735,3.933346,1783.7284,-443.717802)">
        <path d="M191.258,297.524C204.32,289.902 215.796,297.524 215.796,297.524" style="fill:none;fill-rule:nonzero;stroke:rgb(0,174,239);stroke-width:3.24px;stroke-linecap:round;stroke-linejoin:round;"/>
    </g>
    <g transform="matrix(2.847445,3.041902,3.041902,-2.847445,-894.936412,681.538802)">
        <path d="M189.422,290.135C189.422,290.135 199.629,295.054 210.55,290.135" style="fill:none;fill-rule:nonzero;stroke:rgb(0,174,239);stroke-width:3.24px;stroke-linecap:round;stroke-linejoin:round;"/>
    </g>
    <g transform="matrix(4.166667,0,0,4.166667,-276.2,-792.875)">
        <path d="M189.989,292.458C189.989,292.458 202.877,280.421 223.636,285.62C223.636,285.62 213.217,292.919 217.644,301.142C217.644,301.142 214.869,301.456 211.417,304.37C209.232,306.218 208.167,310.751 208.167,310.751C208.167,310.751 195.605,307.722 190.583,311.3C190.583,311.3 197.123,298.915 189.989,292.458Z" style="fill:none;fill-rule:nonzero;stroke:white;stroke-width:1.73px;stroke-linecap:round;stroke-linejoin:round;"/>
    </g>
    <g transform="matrix(0,-4.166667,-4.166667,0,1672.954167,1026.5375)">
        <path d="M156.369,279.375C138.666,279.375 124.31,293.726 124.31,311.43C124.31,329.13 138.666,343.484 156.369,343.484C174.072,343.484 188.425,329.13 188.425,311.43C188.425,293.726 174.072,279.375 156.369,279.375" style="fill:white;fill-rule:nonzero;"/>
    </g>
    <g transform="matrix(4.166667,0,0,4.166667,-276.2,-808.383333)">
        <path d="M136.618,295.327L141.553,300.116L146.489,295.327L151.424,300.116L156.361,295.327L161.295,300.116L166.234,295.327L171.176,300.116L176.118,295.327" style="fill:white;fill-rule:nonzero;stroke:rgb(0,174,239);stroke-width:2.39px;stroke-linecap:round;"/>
    </g>
    <g transform="matrix(0,-4.166667,-4.166667,0,1607.75625,947.38125)">
        <path d="M139.044,310.352C137.521,310.352 136.293,311.586 136.293,313.105C136.293,314.625 137.521,315.856 139.044,315.856C140.564,315.856 141.796,314.625 141.796,313.105C141.796,311.586 140.564,310.352 139.044,310.352" style="fill:rgb(0,174,239);fill-rule:nonzero;"/>
    </g>
    <g transform="matrix(0,-4.166667,-4.166667,0,1752.11875,1091.74375)">
        <path d="M173.692,310.353C172.168,310.353 170.94,311.585 170.94,313.107C170.94,314.627 172.168,315.857 173.692,315.857C175.212,315.857 176.443,314.627 176.443,313.107C176.443,311.585 175.212,310.353 173.692,310.353" style="fill:rgb(0,174,239);fill-rule:nonzero;"/>
    </g>
    <g transform="matrix(4.166667,0,0,4.166667,-276.2,-1192.1375)">
        <path d="M100.275,367.803C100.275,366.281 104.458,364.976 104.603,363.492C104.75,361.981 100.899,359.892 101.189,358.426C101.483,356.939 105.841,356.474 106.275,355.041C106.714,353.593 103.348,350.789 103.922,349.404C104.501,348.009 108.866,348.408 109.574,347.086C110.287,345.755 107.536,342.346 108.372,341.097C109.21,339.844 113.413,341.088 114.367,339.926C115.323,338.762 113.288,334.882 114.352,333.817C115.416,332.753 119.296,334.789 120.46,333.833C121.622,332.878 120.378,328.676 121.631,327.837C122.879,327.001 126.289,329.752 127.619,329.04C128.942,328.331 128.542,323.968 129.938,323.389C131.322,322.815 134.127,326.18 135.576,325.741C137.007,325.307 137.471,320.95 138.958,320.656C140.423,320.366 142.513,324.216 144.024,324.069C145.508,323.925 146.813,319.741 148.335,319.741" style="fill:none;fill-rule:nonzero;stroke:white;stroke-width:2px;stroke-linecap:round;"/>
    </g>
    <g transform="matrix(4.166667,0,0,4.166667,-276.2,-1192.1375)">
        <path d="M165.336,319.741C166.858,319.741 168.164,323.925 169.647,324.069C171.159,324.216 173.249,320.366 174.713,320.656C176.201,320.95 176.666,325.309 178.098,325.742C179.546,326.181 182.35,322.815 183.734,323.39C185.13,323.969 184.73,328.332 186.053,329.041C187.383,329.754 190.793,327.003 192.042,327.838C193.294,328.677 192.051,332.88 193.212,333.834C194.376,334.791 198.257,332.755 199.321,333.819C200.385,334.884 198.349,338.764 199.305,339.928C200.26,341.09 204.462,339.846 205.301,341.099C206.137,342.348 203.385,345.757 204.098,347.088C204.806,348.41 209.17,348.01 209.749,349.405C210.323,350.79 206.957,353.595 207.396,355.043C207.83,356.475 212.187,356.938 212.481,358.425C212.771,359.89 208.921,361.98 209.068,363.491C209.213,364.976 213.396,366.281 213.396,367.803" style="fill:none;fill-rule:nonzero;stroke:white;stroke-width:2px;stroke-linecap:round;"/>
    </g>
    <g transform="matrix(4.166667,0,0,4.166667,-276.2,-1263.229167)">
        <path d="M83.546,386.283C83.546,384.219 89.2,382.416 89.372,380.401C89.546,378.348 84.282,375.612 84.626,373.618C84.977,371.589 90.856,370.781 91.375,368.824C91.9,366.835 87.193,363.223 87.883,361.318C88.583,359.385 94.513,359.628 95.372,357.792C96.242,355.931 92.259,351.533 93.283,349.782C94.319,348.009 100.104,349.328 101.288,347.677C102.483,346.01 99.386,340.95 100.722,339.419C102.07,337.875 107.5,340.267 108.979,338.874C110.471,337.469 108.417,331.902 110.031,330.664C111.654,329.418 116.494,332.846 118.23,331.78C119.97,330.71 119.107,324.84 120.95,323.963C122.791,323.087 126.794,327.461 128.727,326.79C130.647,326.122 131.076,320.206 133.076,319.751C135.053,319.301 137.994,324.451 140.039,324.222C142.048,323.998 143.777,318.323 145.84,318.323" style="fill:none;fill-rule:nonzero;stroke:white;stroke-width:2px;stroke-linecap:round;"/>
    </g>
    <g transform="matrix(4.166667,0,0,4.166667,-276.2,-1263.220833)">
        <path d="M167.833,318.321C169.896,318.321 171.625,323.996 173.635,324.22C175.679,324.449 178.62,319.3 180.598,319.75C182.598,320.204 183.027,326.121 184.948,326.789C186.88,327.46 190.884,323.086 192.725,323.962C194.568,324.84 193.704,330.709 195.444,331.78C197.18,332.846 202.021,329.417 203.644,330.664C205.258,331.903 203.204,337.469 204.695,338.874C206.175,340.267 211.604,337.875 212.952,339.419C214.288,340.951 211.189,346.011 212.385,347.679C213.569,349.328 219.354,348.009 220.39,349.782C221.414,351.534 217.43,355.931 218.3,357.792C219.159,359.628 225.089,359.385 225.788,361.318C226.479,363.223 221.771,366.834 222.297,368.824C222.815,370.781 228.694,371.588 229.045,373.618C229.389,375.611 224.125,378.348 224.299,380.401C224.471,382.416 230.125,384.219 230.125,386.283" style="fill:none;fill-rule:nonzero;stroke:white;stroke-width:2px;stroke-linecap:round;"/>
    </g>
    <g transform="matrix(4.166667,0,0,4.166667,-276.2,-510.6375)">
        <path d="M191.2,255.435C190.124,256.511 186.243,254.476 185.092,255.422C183.919,256.387 185.164,260.588 183.923,261.419C182.663,262.262 179.253,259.509 177.934,260.215C176.599,260.929 176.996,265.292 175.611,265.865C174.215,266.443 171.412,263.074 169.976,263.507C168.531,263.945 168.064,268.301 166.59,268.592C165.111,268.885 163.021,265.035 161.524,265.181C160.024,265.328 158.72,269.51 157.215,269.51C155.71,269.51 154.406,265.328 152.907,265.18C151.41,265.034 149.318,268.884 147.839,268.591C146.365,268.299 145.9,263.943 144.456,263.506C143.02,263.072 140.216,266.441 138.82,265.863C137.436,265.291 137.833,260.927 136.498,260.213C135.179,259.507 131.77,262.26 130.51,261.417C129.269,260.586 130.514,256.386 129.341,255.421C128.19,254.474 124.309,256.509 123.232,255.433" style="fill:none;fill-rule:nonzero;stroke:white;stroke-width:2px;stroke-linecap:round;"/>
    </g>
    <g transform="matrix(4.166667,0,0,4.166667,-276.2,-392.2875)">
        <path d="M202.503,241.863C201.044,243.322 195.809,240.532 194.229,241.795C192.623,243.078 194.184,248.799 192.468,249.88C190.732,250.973 186.244,247.093 184.414,247.978C182.572,248.869 182.834,254.794 180.913,255.476C178.99,256.159 175.449,251.397 173.462,251.872C171.48,252.346 170.482,258.191 168.454,258.459C166.437,258.724 163.952,253.335 161.905,253.396C159.873,253.458 157.725,258.988 155.68,258.849C153.653,258.712 152.266,252.942 150.241,252.609C148.238,252.279 145.08,257.303 143.094,256.782C141.131,256.267 140.838,250.341 138.907,249.641C137.001,248.949 132.98,253.314 131.119,252.442C129.284,251.583 130.058,245.7 128.28,244.666C126.529,243.648 121.801,247.234 120.119,246.048C118.466,244.881 120.253,239.224 118.678,237.894C117.133,236.592 111.859,239.314 110.4,237.855" style="fill:none;fill-rule:nonzero;stroke:white;stroke-width:2px;stroke-linecap:round;"/>
    </g>
    <g transform="matrix(0,4.166667,4.166667,0,-950.5125,-416.175)">
        <path d="M159.906,331.574L179.572,331.574" style="fill:none;fill-rule:nonzero;stroke:rgb(0,174,239);stroke-width:2px;stroke-linecap:round;stroke-linejoin:round;"/>
    </g>
    <g transform="matrix(0,4.166667,4.166667,0,-932.454167,-434.233333)">
        <path d="M164.24,331.574L183.906,331.574" style="fill:none;fill-rule:nonzero;stroke:rgb(0,174,239);stroke-width:2px;stroke-linecap:round;stroke-linejoin:round;"/>
    </g>
    <g transform="matrix(0,4.166667,4.166667,0,-914.395833,-452.291667)">
        <path d="M168.574,331.574L188.24,331.574" style="fill:none;fill-rule:nonzero;stroke:rgb(0,174,239);stroke-width:2px;stroke-linecap:round;stroke-linejoin:round;"/>
    </g>
    <g transform="matrix(0,4.166667,4.166667,0,-896.341667,-470.345833)">
        <path d="M172.907,331.574L192.573,331.574" style="fill:none;fill-rule:nonzero;stroke:rgb(0,174,239);stroke-width:2px;stroke-linecap:round;stroke-linejoin:round;"/>
    </g>
</svg>
