<svg width="100%" height="100%" viewBox="0 0 750 750" version="1.1" xmlns="http://www.w3.org/2000/svg" style="stroke-linecap:round;stroke-linejoin:round;">
  <!-- BG -->
  <rect x="0" y="0" width="100%" height="100%" fill="rgb(35 31 32)" />
  <g transform="matrix(4.166667,0,0,4.166667,-1454.125,-1003.141667)">
    <path d="M477.922,313.215C477.922,313.215 488.949,307.516 507.855,321.713C507.855,321.713 495.325,318.307 494.941,332.092C494.941,332.092 487.939,325.536 483.903,334.67C483.903,334.67 477.202,326.497 469.976,327.98C469.976,327.98 479.931,323.072 477.922,313.215Z" style="fill:white;fill-rule:nonzero;stroke:rgb(35,31,32);stroke-width:3.25px;" />
  </g>
  <g transform="matrix(-2.825384,-3.062403,-3.062403,2.825384,2925.530962,924.579871)">
    <path d="M473.972,319.952C487.031,312.331 498.513,319.952 498.513,319.952" style="fill:none;fill-rule:nonzero;stroke:rgb(35,31,32);stroke-width:3.25px;" />
  </g>
  <g transform="matrix(1.083166,4.023414,4.023414,-1.083166,-1249.512068,-1246.708124)">
    <path d="M470.848,317.359C470.848,317.359 481.056,322.28 491.974,317.359" style="fill:none;fill-rule:nonzero;stroke:rgb(35,31,32);stroke-width:3.24px;" />
  </g>
  <g transform="matrix(4.166667,0,0,4.166667,-1454.125,-1002.158333)">
    <path d="M476.175,310.909C476.175,310.909 493.207,306.346 509.086,320.698C509.086,320.698 496.46,322.239 496.499,331.579C496.499,331.579 493.901,330.552 489.485,331.5C486.688,332.101 483.615,335.604 483.615,335.604C483.615,335.604 473.954,327.022 467.837,327.817C467.837,327.817 479.435,319.966 476.175,310.909Z" style="fill:none;fill-rule:nonzero;stroke:white;stroke-width:1.73px;" />
  </g>
  <g transform="matrix(4.166667,0,0,4.166667,-1454.125,-1003.141667)">
    <path d="M400.059,313.215C400.059,313.215 389.031,307.516 370.125,321.713C370.125,321.713 382.655,318.307 383.041,332.092C383.041,332.092 390.041,325.536 394.079,334.67C394.079,334.67 400.778,326.497 408.005,327.98C408.005,327.98 398.05,323.072 400.059,313.215Z" style="fill:white;fill-rule:nonzero;stroke:rgb(35,31,32);stroke-width:3.25px;stroke-linecap:butt;stroke-linejoin:miter;" />
  </g>
  <g transform="matrix(2.825384,-3.062403,-3.062403,-2.825384,51.1306,2443.148008)">
    <path d="M379.468,319.952C392.529,327.572 404.009,319.952 404.009,319.952" style="fill:none;fill-rule:nonzero;stroke:rgb(35,31,32);stroke-width:3.24px;" />
  </g>
  <g transform="matrix(-1.082982,4.023464,4.023464,1.082982,-654.178971,-1592.823865)">
    <path d="M385.509,319.208C385.509,319.208 395.717,314.286 406.635,319.208" style="fill:none;fill-rule:nonzero;stroke:rgb(35,31,32);stroke-width:3.24px;" />
  </g>
  <g transform="matrix(4.166667,0,0,4.166667,-1454.125,-1002.158333)">
    <path d="M401.806,310.909C401.806,310.909 384.773,306.346 368.895,320.698C368.895,320.698 381.521,322.239 381.481,331.579C381.481,331.579 384.08,330.552 388.497,331.5C391.292,332.101 394.365,335.604 394.365,335.604C394.365,335.604 404.026,327.022 410.144,327.817C410.144,327.817 398.547,319.966 401.806,310.909Z" style="fill:none;fill-rule:nonzero;stroke:white;stroke-width:1.73px;" />
  </g>
</svg>
