<svg width="100%" height="100%" viewBox="0 0 750 750" version="1.1" xmlns="http://www.w3.org/2000/svg">
  <!-- BG -->
  <rect x="0" y="0" width="100%" height="100%" fill="rgb(128 130 133)" />
  <g transform="matrix(4.166667,0,0,4.166667,-1454.125,-2496.85)">
    <path d="M490.767,682.157C490.767,682.157 503.338,680.148 517.204,700.039C517.204,700.039 506.087,692.705 501.29,706.009C501.29,706.009 496.572,697.376 489.708,704.981C489.708,704.981 485.805,694.865 478.29,693.992C478.29,693.992 489.563,692.407 490.767,682.157Z" style="fill:white;fill-rule:nonzero;stroke:rgb(128,130,133);stroke-width:3.33px;" />
  </g>
  <g transform="matrix(-1.725625,-3.792536,-3.792536,1.725625,4099.438874,1082.128185)">
    <path d="M484.499,693.255C497.896,685.44 509.674,693.255 509.674,693.255" style="fill:none;fill-rule:nonzero;stroke:rgb(128,130,133);stroke-width:3.33px;stroke-linecap:round;stroke-linejoin:round;" />
  </g>
  <g transform="matrix(-0.229794,4.160325,4.160325,0.229794,-2171.66592,-1814.631756)">
    <path d="M481.568,690.464C481.568,690.464 492.038,695.512 503.236,690.464" style="fill:none;fill-rule:nonzero;stroke:rgb(128,130,133);stroke-width:3.33px;stroke-linecap:round;stroke-linejoin:round;" />
  </g>
  <g transform="matrix(4.166667,0,0,4.166667,-1454.125,-2498.254167)">
    <path d="M489.73,679.918C489.73,679.918 507.788,680.937 518.65,700.013C518.65,700.013 505.856,697.466 502.899,706.576C502.899,706.576 500.695,704.741 496.09,704.248C493.172,703.936 489.056,706.367 489.056,706.367C489.056,706.367 482.396,694.905 476.183,693.716C476.183,693.716 489.998,689.786 489.73,679.918Z" style="fill:none;fill-rule:nonzero;stroke:white;stroke-width:1.78px;stroke-linecap:round;stroke-linejoin:round;" />
  </g>
  <g transform="matrix(4.166667,0,0,4.166667,-1454.125,-2296.070833)">
    <path d="M384.375,658.069C384.375,658.069 371.805,656.053 357.939,675.951C357.939,675.951 369.057,668.611 373.853,681.917C373.853,681.917 378.571,673.285 385.435,680.889C385.435,680.889 389.338,670.773 396.854,669.901C396.854,669.901 385.582,668.316 384.375,658.069Z" style="fill:white;fill-rule:nonzero;stroke:rgb(128,130,133);stroke-width:3.33px;" />
  </g>
  <g transform="matrix(1.725663,-3.792519,-3.792519,-1.725663,2004.59658,3082.135179)">
    <path d="M366.119,667.733C379.517,675.551 391.289,667.733 391.289,667.733" style="fill:none;fill-rule:nonzero;stroke:rgb(128,130,133);stroke-width:3.33px;stroke-linecap:round;stroke-linejoin:round;" />
  </g>
  <g transform="matrix(0.229602,4.160336,4.160336,-0.229602,-2728.358981,-946.354119)">
    <path d="M372.153,670.827C372.153,670.827 382.624,665.778 393.821,670.827" style="fill:none;fill-rule:nonzero;stroke:rgb(128,130,133);stroke-width:3.33px;stroke-linecap:round;stroke-linejoin:round;" />
  </g>
  <g transform="matrix(4.166667,0,0,4.166667,-1454.125,-2297.466667)">
    <path d="M385.413,655.824C385.413,655.824 367.355,656.841 356.493,675.919C356.493,675.919 369.287,673.369 372.244,682.481C372.244,682.481 374.448,680.649 379.054,680.155C381.97,679.846 386.088,682.273 386.088,682.273C386.088,682.273 392.747,670.807 398.961,669.622C398.961,669.622 385.146,665.693 385.413,655.824Z" style="fill:none;fill-rule:nonzero;stroke:white;stroke-width:1.78px;stroke-linecap:round;stroke-linejoin:round;" />
  </g>
  <g transform="matrix(4.166667,0,0,4.166667,-1454.125,-2809.333333)">
    <path d="M460.887,716.908C458.63,717.122 447.113,716.654 447.113,706.548C447.113,696.441 455.419,689.292 466.963,689.536C478.509,689.78 486.005,697.915 486.005,707.781C486.005,717.647 480.334,724.304 473.852,727.262C467.37,730.22 463.139,731.06 463.139,735.251C463.139,739.443 468.11,743.142 470.204,745.263C473.533,748.629 472.399,754.062 468.18,757.342C464.952,759.853 457.796,765.214 454.041,770.844C454.041,770.844 453.644,771.861 453.238,768.163C452.833,764.464 455.404,762.4 459.604,758.512C463.925,754.515 467.37,750.19 463.724,747.232C460.077,744.277 452,739.231 455.861,729.83C459.191,721.728 467.37,726.279 474.257,719.621C481.143,712.958 479.176,703.438 472.345,700.364C466.696,697.826 457.848,697.671 455.216,704.081C452.583,710.494 456.631,713.869 458.386,714.648C460.02,715.368 463.731,716.637 460.887,716.908" style="fill:white;fill-rule:nonzero;" />
  </g>
  <g transform="matrix(4.166667,0,0,4.166667,-1454.125,-2621.379167)">
    <path d="M448.8,704.459C448.8,704.459 458.988,704.568 460.615,697.336C462.649,688.29 452.671,679.249 441.468,680.342C430.263,681.438 425.984,690.755 425.984,697.333C425.984,703.91 430.453,706.108 439.225,710.761C462.89,723.323 448.394,731.86 449.818,734.329C451.245,736.795 459.001,734.311 454.911,731.314C452.857,729.807 449.098,730.427 450.524,727.686C451.95,724.949 458.502,720.278 456.466,716.442C454.428,712.602 447.986,710.761 442.688,706.924C437.393,703.087 432.625,701.039 433.898,694.524C434.646,690.709 437.597,687.745 442.078,686.922C446.56,686.1 452.882,687.703 453.91,692.715C455.802,701.926 445.249,702.561 448.8,704.459" style="fill:white;fill-rule:nonzero;" />
  </g>
  <g transform="matrix(4.166667,0,0,4.166667,-1454.125,-2798.945833)">
    <path d="M407.962,719.97C407.962,719.97 399.418,720.063 398.054,713.998C396.347,706.411 404.716,698.833 414.113,699.75C423.51,700.668 427.098,708.482 427.098,713.995C427.098,719.512 423.851,722.499 415.992,725.258C408.133,728.016 406.938,731.462 407.792,733.533C408.646,735.6 413.034,737.128 412.693,740.116C412.354,743.1 408.304,742.952 407.108,745.022C405.912,747.089 412.836,750.038 410.313,755.605C410.313,755.605 407.183,759.827 408.562,755.615C409.264,753.469 410.154,751.259 406.695,749.597C401.891,747.283 399.408,745.01 402.838,742.495C404.56,741.233 407.713,741.751 406.517,739.454C405.322,737.155 399.826,733.238 401.533,730.021C403.243,726.801 408.644,725.258 413.087,722.04C417.531,718.824 421.527,717.105 420.459,711.642C419.834,708.44 417.358,705.955 413.601,705.264C409.841,704.574 404.539,705.922 403.677,710.125C402.09,717.85 410.94,718.383 407.962,719.97" style="fill:white;fill-rule:nonzero;" />
  </g>
  <g transform="matrix(4.166667,0,0,4.166667,-1454.125,-2319.733333)">
    <path d="M459.541,650.141C460.241,656.68 455.669,660.283 446.301,663.572C436.929,666.857 435.504,670.969 436.521,673.435C437.54,675.901 442.773,677.725 442.367,681.284C441.96,684.847 437.132,684.668 435.706,687.137C434.279,689.601 442.535,693.115 439.528,699.758C439.528,699.758 435.796,704.789 437.438,699.767C438.277,697.205 439.338,694.575 435.213,692.591C429.485,689.833 426.524,687.119 430.614,684.123C432.668,682.618 436.428,683.235 435,680.497C433.575,677.757 425.461,674.874 427.497,671.034C429.534,667.197 437.538,663.572 442.836,659.732C448.133,655.897 452.9,653.847 451.627,647.332C450.879,643.517 447.927,640.553 443.447,639.731C438.965,638.905 458.332,638.86 459.541,650.141" style="fill:white;fill-rule:nonzero;" />
  </g>
  <g transform="matrix(4.166667,0,0,4.166667,-1454.125,-2163.975)">
    <path d="M454.081,643.432C454.081,643.432 446.148,643.526 444.881,637.235C443.298,629.369 451.066,621.508 459.79,622.461C468.514,623.414 471.844,631.517 471.844,637.235C471.844,642.952 468.831,646.053 461.536,648.912C454.239,651.774 453.13,655.35 453.922,657.491C454.714,659.639 458.789,661.221 458.474,664.318C458.158,667.416 454.396,667.262 453.287,669.406C452.178,671.551 458.607,673.392 456.265,679.168C456.265,679.168 453.357,684.759 454.637,680.392C455.289,678.167 456.115,675.876 452.904,674.148C448.443,671.753 446.139,669.392 449.322,666.785C450.922,665.477 453.851,666.014 452.739,663.63C451.63,661.25 446.528,657.187 448.113,653.851C449.699,650.515 454.714,648.912 458.838,645.576C462.963,642.237 466.674,640.456 465.683,634.793C465.102,631.475 462.803,628.898 459.314,628.184C455.825,627.469 450.902,628.859 450.104,633.221C448.63,641.23 456.846,641.781 454.081,643.432" style="fill:white;fill-rule:nonzero;" />
  </g>
  <g transform="matrix(4.166667,0,0,4.166667,-1454.125,-2141.629167)">
    <path d="M419.537,640.752C419.537,640.752 427.47,640.848 428.737,634.557C430.32,626.687 422.552,618.828 413.83,619.779C405.106,620.732 401.774,628.834 401.774,634.553C401.774,640.273 404.787,643.373 412.083,646.233C419.379,649.093 420.489,652.667 419.696,654.812C418.904,656.956 414.829,658.538 415.145,661.636C415.462,664.735 419.222,664.579 420.331,666.724C421.44,668.868 415.013,670.709 417.355,676.486C417.355,676.486 420.261,682.076 418.983,677.709C418.331,675.485 417.504,673.196 420.714,671.469C425.175,669.071 427.48,666.709 424.296,664.106C422.696,662.795 419.77,663.331 420.879,660.951C421.99,658.569 427.092,654.508 425.506,651.169C423.919,647.832 418.904,646.233 414.78,642.897C410.656,639.555 406.944,637.777 407.937,632.111C408.518,628.792 410.816,626.216 414.305,625.501C417.793,624.786 422.716,626.18 423.517,630.538C424.988,638.551 416.774,639.102 419.537,640.752" style="fill:white;fill-rule:nonzero;" />
  </g>
  <g transform="matrix(4.166667,0,0,4.166667,-1454.125,-2507.625)">
    <path d="M423.714,689.445C423.714,689.445 432.192,689.536 433.548,683.248C435.241,675.382 426.936,667.521 417.61,668.471C408.285,669.424 404.725,677.527 404.725,683.245C404.725,688.965 407.945,692.066 415.744,694.925C423.544,697.785 424.73,701.36 423.883,703.504C423.036,705.649 418.681,707.231 419.019,710.328C419.357,713.426 423.375,713.272 424.563,715.416C425.75,717.561 427.229,721.222 427.497,715.592C427.6,713.442 423.961,712.024 425.147,709.643C426.335,707.26 431.789,703.201 430.094,699.861C428.397,696.525 423.037,694.925 418.627,691.589C414.219,688.25 410.251,686.469 411.312,680.806C411.933,677.485 414.39,674.909 418.119,674.194C421.849,673.478 427.111,674.872 427.967,679.23C429.542,687.243 420.759,687.791 423.714,689.445" style="fill:white;fill-rule:nonzero;" />
  </g>
</svg>
