<svg width="100%" height="100%" viewBox="0 0 750 750" version="1.1" xmlns="http://www.w3.org/2000/svg">
  <!-- BG -->
  <rect x="0" y="0" width="100%" height="100%" fill="rgb(157 159 162)" />
  <g transform="matrix(4.166667,0,0,4.166667,-276.195833,-2498.975)">
    <path d="M209.336,682.417C209.336,682.417 221.906,680.401 235.771,700.296C235.771,700.296 224.656,692.962 219.859,706.266C219.859,706.266 215.141,697.63 208.279,705.235C208.279,705.235 204.373,695.123 196.857,694.25C196.857,694.25 208.131,692.662 209.336,682.417Z" style="fill:white;fill-rule:nonzero;stroke:rgb(157,159,162);stroke-width:3.33px;" />
  </g>
  <g transform="matrix(-1.725538,-3.792575,-3.792575,1.725538,3620.059877,13.379871)">
    <path d="M203.071,693.508C216.47,685.689 228.242,693.508 228.242,693.508" style="fill:none;fill-rule:nonzero;stroke:rgb(157,159,162);stroke-width:3.33px;stroke-linecap:round;stroke-linejoin:round;" />
  </g>
  <g transform="matrix(-0.22941,4.160346,4.160346,0.22941,-2232.189246,-644.642739)">
    <path d="M200.137,690.718C200.137,690.718 210.604,695.765 221.805,690.718" style="fill:none;fill-rule:nonzero;stroke:rgb(157,159,162);stroke-width:3.33px;stroke-linecap:round;stroke-linejoin:round;" />
  </g>
  <g transform="matrix(4.166667,0,0,4.166667,-276.195833,-2500.366667)">
    <path d="M208.299,680.172C208.299,680.172 226.355,681.191 237.219,700.267C237.219,700.267 224.426,697.717 221.469,706.829C221.469,706.829 219.264,704.994 214.658,704.502C211.742,704.193 207.623,706.618 207.623,706.618C207.623,706.618 200.965,695.159 194.75,693.969C194.75,693.969 208.568,690.041 208.299,680.172Z" style="fill:none;fill-rule:nonzero;stroke:white;stroke-width:1.78px;stroke-linecap:round;stroke-linejoin:round;" />
  </g>
  <g transform="matrix(4.166667,0,0,4.166667,-276.195833,-2298.179167)">
    <path d="M102.945,658.322C102.945,658.322 90.373,656.306 76.51,676.2C76.51,676.2 87.625,668.867 92.422,682.17C92.422,682.17 97.141,673.537 104.004,681.143C104.004,681.143 107.906,671.026 115.422,670.156C115.422,670.156 104.15,668.569 102.945,658.322Z" style="fill:white;fill-rule:nonzero;stroke:rgb(157,159,162);stroke-width:3.33px;" />
  </g>
  <g transform="matrix(1.7258,-3.792456,-3.792456,-1.7258,2496.457359,2014.27283)">
    <path d="M84.689,667.986C98.086,675.804 109.858,667.986 109.858,667.986" style="fill:none;fill-rule:nonzero;stroke:rgb(157,159,162);stroke-width:3.33px;stroke-linecap:round;stroke-linejoin:round;" />
  </g>
  <g transform="matrix(0.229613,4.160335,4.160335,-0.229613,-2659.493006,223.506374)">
    <path d="M90.723,671.08C90.723,671.08 101.192,666.031 112.389,671.08" style="fill:none;fill-rule:nonzero;stroke:rgb(157,159,162);stroke-width:3.33px;stroke-linecap:round;stroke-linejoin:round;" />
  </g>
  <g transform="matrix(4.166667,0,0,4.166667,-276.195833,-2299.575)">
    <path d="M103.982,656.077C103.982,656.077 85.926,657.093 75.061,676.172C75.061,676.172 87.855,673.622 90.813,682.734C90.813,682.734 93.016,680.899 97.621,680.408C100.539,680.095 104.656,682.525 104.656,682.525C104.656,682.525 111.316,671.063 117.529,669.875C117.529,669.875 103.713,665.949 103.982,656.077Z" style="fill:none;fill-rule:nonzero;stroke:white;stroke-width:1.78px;stroke-linecap:round;stroke-linejoin:round;" />
  </g>
  <g transform="matrix(4.166667,0,0,4.166667,-276.195833,-2575.145833)">
    <path d="M169.398,686.079C166.695,686.338 152.898,685.779 152.898,673.669C152.898,661.561 162.846,652.997 176.678,653.292C190.51,653.584 199.49,663.33 199.49,675.147C199.49,686.967 192.695,694.941 184.93,698.486C177.164,702.031 172.096,703.037 172.096,708.059C172.096,713.078 178.051,717.511 180.561,720.049C184.549,724.085 183.961,731.863 178.135,734.523C172.309,737.18 166.242,736.882 164.545,745.451C164.545,745.451 163.332,751.951 162.846,747.522C162.361,743.089 163.332,736.59 169.641,733.635C175.949,730.683 177.164,725.952 172.797,722.407C168.428,718.866 158.752,712.823 163.377,701.563C167.365,691.852 177.164,697.309 185.414,689.332C193.664,681.349 191.309,669.947 183.125,666.264C176.357,663.22 165.758,663.035 162.604,670.715C159.449,678.397 164.299,682.442 166.402,683.371C168.359,684.239 172.807,685.754 169.398,686.079" style="fill:white;fill-rule:nonzero;" />
  </g>
  <g transform="matrix(4.166667,0,0,4.166667,-276.195833,-2376.004167)">
    <path d="M134.326,665.213C134.326,665.213 146.531,665.344 148.482,656.679C150.92,645.839 138.965,635.011 125.541,636.322C112.117,637.636 106.992,648.794 106.992,656.673C106.992,664.552 111.631,668.823 122.855,672.764C134.082,676.702 135.791,681.626 134.57,684.581C133.352,687.535 127.08,689.719 127.568,693.985C128.055,698.253 133.84,698.039 135.547,700.993C137.256,703.948 127.363,706.487 130.967,714.443C130.967,714.443 135.441,722.143 133.471,716.126C132.467,713.061 132.861,709.2 137.256,705.92C141.648,702.638 146.531,700.999 141.648,697.383C136.768,693.774 133.594,693.443 135.303,690.16C137.012,686.88 143.113,685.567 140.672,680.971C138.232,676.371 133.352,672.764 127.006,668.165C120.66,663.569 114.947,661.114 116.477,653.31C117.369,648.737 120.906,645.187 126.273,644.2C131.643,643.218 139.217,645.139 140.449,651.145C142.715,662.178 130.072,662.937 134.326,665.213" style="fill:white;fill-rule:nonzero;" />
  </g>
</svg>
