<svg width="100%" height="100%" viewBox="0 0 750 750" version="1.1" xmlns="http://www.w3.org/2000/svg" style="stroke-linecap:round;stroke-linejoin:round;">
  <g transform="matrix(4.166667,0,0,4.166667,-1454.125,-922.633333)">
    <path d="M528.99,373.307C528.99,388.842 516.398,401.432 500.866,401.432L377.117,401.432C361.586,401.432 348.99,388.842 348.99,373.307L348.99,249.56C348.99,234.032 361.586,221.435 377.117,221.435L500.866,221.435C516.398,221.435 528.99,234.032 528.99,249.56L528.99,373.307Z" style="fill:rgb(0,84,166);fill-rule:nonzero;" />
  </g>
  <g transform="matrix(4.166667,0,0,4.166667,-1454.125,-877.8375)">
    <path d="M389.817,313.743C396.548,313.743 402.259,317.857 404.313,323.57C406.365,317.857 412.075,313.743 418.806,313.743C425.535,313.743 431.245,317.857 433.298,323.57C435.352,317.857 441.063,313.743 447.793,313.743C453.87,313.743 459.12,317.097 461.592,321.953C456.812,302.766 439.472,288.546 418.806,288.546C398.138,288.546 380.799,302.766 376.019,321.953C378.492,317.097 383.74,313.743 389.817,313.743" style="fill:white;fill-rule:nonzero;" />
  </g>
  <g transform="matrix(4.166667,0,0,4.166667,-1454.125,-877.8375)">
    <path d="M389.817,313.743C396.548,313.743 402.259,317.857 404.313,323.57C406.365,317.857 412.075,313.743 418.806,313.743C425.535,313.743 431.245,317.857 433.298,323.57C435.352,317.857 441.063,313.743 447.793,313.743C453.87,313.743 459.12,317.097 461.592,321.953C456.812,302.766 439.472,288.546 418.806,288.546C398.138,288.546 380.799,302.766 376.019,321.953C378.492,317.097 383.74,313.743 389.817,313.743Z" style="fill:none;fill-rule:nonzero;stroke:white;stroke-width:7.71px;" />
  </g>
  <g transform="matrix(1.586388,3.852854,3.852854,-1.586388,-1534.20895,-764.090028)">
    <path d="M408.608,306.21C408.608,306.21 421.646,317.093 444.964,306.21" style="fill:white;fill-rule:nonzero;stroke:white;stroke-width:7.71px;" />
  </g>
  <g transform="matrix(-1.672139,3.81642,3.81642,1.672139,-228.414947,-1686.481966)">
    <path d="M392.107,307.681C392.107,307.681 406.557,296.392 428.378,307.681" style="fill:white;fill-rule:nonzero;stroke:white;stroke-width:7.71px;" />
  </g>
  <g transform="matrix(4.166667,0,0,4.166667,-1454.125,-541.25)">
    <path d="M398.564,282.681C398.564,284.941 400.396,286.773 402.658,286.773C405.671,286.773 408.113,284.331 408.113,281.316C408.113,277.301 404.856,274.042 400.838,274.042C395.48,274.042 391.139,278.385 391.139,283.741C391.139,290.884 396.928,296.675 404.072,296.675C414.897,296.675 418.912,288.957 418.912,279.431L418.912,234.66" style="fill:none;fill-rule:nonzero;stroke:white;stroke-width:2.97px;" />
  </g>
  <g transform="matrix(4.166667,0,0,4.166667,-1454.125,-877.8375)">
    <path d="M389.817,313.743C396.548,313.743 402.259,317.857 404.313,323.57C406.365,317.857 412.075,313.743 418.806,313.743C425.535,313.743 431.245,317.857 433.298,323.57C435.352,317.857 441.063,313.743 447.793,313.743C453.87,313.743 459.12,317.097 461.592,321.953C456.812,302.766 439.472,288.546 418.806,288.546C398.138,288.546 380.799,302.766 376.019,321.953C378.492,317.097 383.74,313.743 389.817,313.743Z" style="fill:none;fill-rule:nonzero;stroke:rgb(0,84,166);stroke-width:2.97px;" />
  </g>
  <g transform="matrix(1.586388,3.852854,3.852854,-1.586388,-1534.20895,-764.090028)">
    <path d="M408.608,306.21C408.608,306.21 421.646,317.093 444.964,306.21" style="fill:none;fill-rule:nonzero;stroke:rgb(0,84,166);stroke-width:2.97px;" />
  </g>
  <g transform="matrix(-1.672139,3.81642,3.81642,1.672139,-228.414947,-1686.481966)">
    <path d="M392.107,307.681C392.107,307.681 406.557,296.392 428.378,307.681" style="fill:none;fill-rule:nonzero;stroke:rgb(0,84,166);stroke-width:2.97px;" />
  </g>
  <g transform="matrix(3.919828,-1.412819,-1.412819,-3.919828,-870.902381,2182.759169)">
    <path d="M420.353,335.45C417.318,335.267 414.859,336.869 414.861,339.033C414.86,341.195 417.318,343.098 420.353,343.283C423.386,343.466 425.845,341.864 425.846,339.701C425.846,337.539 423.386,335.636 420.353,335.45" style="fill:white;fill-rule:nonzero;" />
  </g>
  <g transform="matrix(3.919828,-1.412819,-1.412819,-3.919828,-870.902381,2182.759169)">
    <path d="M420.353,335.45C417.318,335.267 414.859,336.869 414.861,339.033C414.86,341.195 417.318,343.098 420.353,343.283C423.386,343.466 425.845,341.864 425.846,339.701C425.846,337.539 423.386,335.636 420.353,335.45Z" style="fill:none;fill-rule:nonzero;stroke:white;stroke-width:5.68px;" />
  </g>
  <g transform="matrix(-2.701982,3.171814,3.171814,2.701982,309.705452,-1895.949956)">
    <path d="M402.394,330.491C402.394,330.491 410.403,325.362 416.424,330.491" style="fill:none;fill-rule:nonzero;stroke:white;stroke-width:2.84px;" />
  </g>
  <g transform="matrix(4.043595,-1.005211,-1.005211,-4.043595,-1059.935404,2078.016898)">
    <path d="M444.617,333.773C441.599,333.635 439.153,335.287 439.154,337.463C439.154,339.637 441.599,341.511 444.617,341.648C447.634,341.785 450.079,340.134 450.078,337.959C450.079,335.784 447.632,333.909 444.617,333.773" style="fill:white;fill-rule:nonzero;" />
  </g>
  <g transform="matrix(4.043595,-1.005211,-1.005211,-4.043595,-1059.935404,2078.016898)">
    <path d="M444.617,333.773C441.599,333.635 439.153,335.287 439.154,337.463C439.154,339.637 441.599,341.511 444.617,341.648C447.634,341.785 450.079,340.134 450.078,337.959C450.079,335.784 447.632,333.909 444.617,333.773Z" style="fill:none;fill-rule:nonzero;stroke:white;stroke-width:5.68px;" />
  </g>
  <g transform="matrix(-2.564777,3.283753,3.283753,2.564777,378.79417,-1973.523362)">
    <path d="M426.708,330.529C426.708,330.529 435.084,326.058 439.631,330.529" style="fill:none;fill-rule:nonzero;stroke:white;stroke-width:2.84px;" />
  </g>
  <g transform="matrix(4.166667,0,0,4.166667,-1454.125,-611.075)">
    <path d="M385.306,267.304C385.306,267.304 375.869,262.428 359.689,274.574C359.689,274.574 370.412,271.661 370.742,283.457C370.742,283.457 376.734,277.849 380.188,285.665C380.188,285.665 385.923,278.671 392.106,279.94C392.106,279.94 383.587,275.739 385.306,267.304Z" style="fill:white;fill-rule:nonzero;stroke:rgb(0,84,166);stroke-width:2.78px;stroke-linecap:butt;stroke-linejoin:miter;" />
  </g>
  <g transform="matrix(2.82545,-3.062343,-3.062343,-2.82545,-110.65783,2464.53142)">
    <path d="M367.685,273.072C378.86,279.592 388.686,273.072 388.686,273.072" style="fill:none;fill-rule:nonzero;stroke:rgb(0,84,166);stroke-width:2.78px;" />
  </g>
  <g transform="matrix(-1.082958,4.02347,4.02347,1.082958,-541.154057,-1290.774172)">
    <path d="M372.854,272.434C372.854,272.434 381.592,268.223 390.934,272.434" style="fill:none;fill-rule:nonzero;stroke:rgb(0,84,166);stroke-width:2.78px;" />
  </g>
  <g transform="matrix(4.166667,0,0,4.166667,-1454.125,-610.2375)">
    <path d="M386.802,265.33C386.802,265.33 372.227,261.425 358.637,273.709C358.637,273.709 369.442,275.026 369.408,283.018C369.408,283.018 371.632,282.139 375.41,282.953C377.804,283.468 380.435,286.467 380.435,286.467C380.435,286.467 388.702,279.12 393.938,279.801C393.938,279.801 384.014,273.081 386.802,265.33Z" style="fill:none;fill-rule:nonzero;stroke:white;stroke-width:1.48px;" />
  </g>
  <g transform="matrix(3.919828,-1.412819,-1.412819,-3.919828,-870.902381,2182.759169)">
    <path d="M420.353,335.45C417.318,335.267 414.859,336.869 414.861,339.033C414.86,341.195 417.318,343.098 420.353,343.283C423.386,343.466 425.845,341.864 425.846,339.701C425.846,337.539 423.386,335.636 420.353,335.45" style="fill:white;fill-rule:nonzero;" />
  </g>
  <g transform="matrix(3.919828,-1.412819,-1.412819,-3.919828,-870.902381,2182.759169)">
    <path d="M420.353,335.45C417.318,335.267 414.859,336.869 414.861,339.033C414.86,341.195 417.318,343.098 420.353,343.283C423.386,343.466 425.845,341.864 425.846,339.701C425.846,337.539 423.386,335.636 420.353,335.45Z" style="fill:none;fill-rule:nonzero;stroke:rgb(0,84,166);stroke-width:2.27px;" />
  </g>
  <g transform="matrix(4.043595,-1.005211,-1.005211,-4.043595,-1059.935404,2078.016898)">
    <path d="M444.617,333.773C441.599,333.635 439.153,335.287 439.154,337.463C439.154,339.637 441.599,341.511 444.617,341.648C447.634,341.785 450.079,340.134 450.078,337.959C450.079,335.784 447.632,333.909 444.617,333.773" style="fill:white;fill-rule:nonzero;" />
  </g>
  <g transform="matrix(4.043595,-1.005211,-1.005211,-4.043595,-1059.935404,2078.016898)">
    <path d="M444.617,333.773C441.599,333.635 439.153,335.287 439.154,337.463C439.154,339.637 441.599,341.511 444.617,341.648C447.634,341.785 450.079,340.134 450.078,337.959C450.079,335.784 447.632,333.909 444.617,333.773Z" style="fill:none;fill-rule:nonzero;stroke:rgb(0,84,166);stroke-width:2.27px;" />
  </g>
  <g transform="matrix(-3.024859,2.865543,2.865543,3.024859,412.388677,-1983.908159)">
    <path d="M339.309,349.538L458.333,349.538" style="fill:none;fill-rule:nonzero;stroke:white;stroke-width:3.03px;stroke-dasharray:9.284,7.737,0,0,0;" />
  </g>
  <g transform="matrix(-3.032079,2.857903,2.857903,3.032079,690.502458,-2271.658894)">
    <path d="M417.094,371.146L473.43,371.146" style="fill:none;fill-rule:nonzero;stroke:white;stroke-width:3.03px;stroke-dasharray:9.284,7.737,0,0,0;" />
  </g>
  <g transform="matrix(-3.013605,2.877376,2.877376,3.013605,854.427837,-2358.068944)">
    <path d="M445.087,372.672L496.624,372.672" style="fill:none;fill-rule:nonzero;stroke:white;stroke-width:3.03px;stroke-dasharray:9.284,7.737,0,0,0;" />
  </g>
  <g transform="matrix(-3.029966,2.860143,2.860143,3.029966,1000.284077,-2342.734121)">
    <path d="M448.624,364.791L523.432,364.791" style="fill:none;fill-rule:nonzero;stroke:white;stroke-width:3.03px;stroke-dasharray:9.284,7.737,0,0,0;" />
  </g>
  <g transform="matrix(-3.040263,2.849195,2.849195,3.040263,1089.365582,-2224.550542)">
    <path d="M445.869,346.998L534.342,346.998" style="fill:none;fill-rule:nonzero;stroke:white;stroke-width:3.03px;stroke-dasharray:9.284,7.737,0,0,0;" />
  </g>
</svg>
