<svg width="100%" height="100%" viewBox="0 0 750 750" version="1.1" xmlns="http://www.w3.org/2000/svg" style="stroke-linecap:round;stroke-linejoin:round;">
  <g transform="matrix(4.166667,0,0,4.166667,-1454.125,-2528.804167)">
    <path d="M528.99,758.785C528.99,774.323 516.398,786.913 500.865,786.913L377.119,786.913C361.586,786.913 348.99,774.323 348.99,758.785L348.99,635.04C348.99,619.512 361.586,606.913 377.119,606.913L500.865,606.913C516.398,606.913 528.99,619.512 528.99,635.04L528.99,758.785Z" style="fill:rgb(243,111,33);fill-rule:nonzero;" />
  </g>
  <g transform="matrix(2.946278,2.946278,2.946278,-2.946278,-3077.4745,877.045713)">
    <path d="M500.999,748.1C499.808,748.1 498.841,767.124 498.841,767.124C498.84,767.941 499.808,768.607 500.999,768.607C502.194,768.606 503.161,767.941 503.161,767.125C503.161,767.125 502.194,748.1 500.999,748.1" style="fill:white;fill-rule:nonzero;" />
  </g>
  <g transform="matrix(-2.946278,-2.946278,-2.946278,2.946278,3129.703754,-149.015963)">
    <path d="M379.676,628.775C378.485,628.775 377.518,647.801 377.518,647.801C377.518,648.618 378.485,649.282 379.676,649.282C380.87,649.282 381.838,648.618 381.838,647.8C381.838,647.8 380.87,628.776 379.676,628.775" style="fill:white;fill-rule:nonzero;" />
  </g>
  <g transform="matrix(2.946278,2.946278,2.946278,-2.946278,-3077.4745,877.045713)">
    <path d="M500.999,748.1C499.808,748.1 498.841,767.124 498.841,767.124C498.84,767.941 499.808,768.607 500.999,768.607C502.194,768.606 503.161,767.941 503.161,767.125C503.161,767.125 502.194,748.1 500.999,748.1" style="fill:white;fill-rule:nonzero;" />
  </g>
  <g transform="matrix(2.946278,-2.946278,-2.946278,-2.946278,1240.947531,3464.405657)">
    <path d="M377.176,748.1C375.986,748.101 375.018,767.125 375.018,767.125C375.018,767.943 375.986,768.607 377.176,768.607C378.371,768.607 379.338,767.943 379.338,767.126C379.338,767.126 378.371,748.1 377.176,748.1" style="fill:white;fill-rule:nonzero;" />
  </g>
  <g transform="matrix(3.587416,2.119329,2.119329,-3.587416,-2799.569677,1806.879921)">
    <path d="M484.579,756.969C483.389,756.968 482.421,775.993 482.421,775.993C482.42,776.809 483.388,777.474 484.579,777.475C485.773,777.475 486.741,776.81 486.74,775.993C486.74,775.993 485.773,756.968 484.579,756.969" style="fill:white;fill-rule:nonzero;" />
  </g>
  <g transform="matrix(3.587416,-2.119329,-2.119329,-3.587416,401.501356,3673.504314)">
    <path d="M396.183,756.969C397.373,756.968 398.34,775.993 398.34,775.993C398.341,776.81 397.374,777.475 396.183,777.475C394.989,777.475 394.021,776.81 394.022,775.993C394.022,775.993 394.988,756.969 396.183,756.969" style="fill:white;fill-rule:nonzero;" />
  </g>
  <g transform="matrix(-3.98361,-1.221459,-1.221459,3.98361,2636.249396,-1295.687172)">
    <path d="M408.226,612.141C407.035,612.141 406.068,631.165 406.068,631.165C406.069,631.982 407.036,632.647 408.226,632.646C409.42,632.646 410.388,631.981 410.39,631.164C410.39,631.164 409.419,612.14 408.226,612.141" style="fill:white;fill-rule:nonzero;" />
  </g>
  <g transform="matrix(-2.946278,2.946278,2.946278,2.946278,216.881936,-2739.853736)">
    <path d="M499.684,628.775C500.875,628.775 501.842,647.8 501.842,647.8C501.842,648.618 500.875,649.281 499.684,649.281C498.489,649.282 497.521,648.618 497.521,647.8C497.521,647.8 498.489,628.776 499.684,628.775" style="fill:white;fill-rule:nonzero;" />
  </g>
  <g transform="matrix(-3.983553,1.221645,1.221645,3.983553,1622.377379,-2369.840033)">
    <path d="M471.132,612.141C472.323,612.141 473.291,631.165 473.291,631.165C473.29,631.982 472.324,632.647 471.132,632.646C469.939,632.646 468.971,631.982 468.969,631.164C468.969,631.164 469.938,612.14 471.132,612.141" style="fill:white;fill-rule:nonzero;" />
  </g>
  <g transform="matrix(4.166667,0,0,4.166667,-1454.125,-2152.995833)">
    <path d="M431.709,625.487C431.033,626.37 419.223,653.247 418.846,654.354C418.467,655.461 436.945,678.162 439.797,678.48C441.359,678.656 461.164,658.479 461.164,658.479L448.385,624.976L431.709,625.487Z" style="fill:none;fill-rule:nonzero;stroke:white;stroke-width:2.22px;" />
  </g>
  <g transform="matrix(0.571226,-4.127325,-4.127325,-0.571226,2804.835048,2718.621932)">
    <path d="M413.616,653.902L454.202,653.902" style="fill:none;fill-rule:nonzero;stroke:white;stroke-width:2.22px;" />
  </g>
  <g transform="matrix(-0.589962,-4.124689,-4.124689,0.589962,3373.026944,1996.500498)">
    <path d="M423.126,656.178L468.524,656.178" style="fill:none;fill-rule:nonzero;stroke:white;stroke-width:2.22px;" />
  </g>
  <g transform="matrix(4.166667,0,0,4.166667,-1454.125,-2364.433333)">
    <path d="M420.719,658.561C419.656,658.24 390.342,656.638 389.172,656.672C388.002,656.707 373.252,681.991 373.955,684.771C374.342,686.295 400.195,697.739 400.195,697.739L427.063,673.992L420.719,658.561Z" style="fill:none;fill-rule:nonzero;stroke:white;stroke-width:2.22px;" />
  </g>
  <g transform="matrix(4.064561,-0.916764,-0.916764,-4.064561,-785.21177,3574.443829)">
    <path d="M378.507,685.229L419.093,685.229" style="fill:none;fill-rule:nonzero;stroke:white;stroke-width:2.22px;" />
  </g>
  <g transform="matrix(3.653628,-2.003025,-2.003025,-3.653628,105.509808,3744.032847)">
    <path d="M382.42,674.876L427.82,674.876" style="fill:none;fill-rule:nonzero;stroke:white;stroke-width:2.22px;" />
  </g>
  <g transform="matrix(4.166667,0,0,4.166667,-1454.125,-2364.433333)">
    <path d="M420.719,658.561C419.656,658.24 390.342,656.638 389.172,656.672C388.002,656.707 373.252,681.991 373.955,684.771C374.342,686.295 400.195,697.739 400.195,697.739L427.063,673.992L420.719,658.561Z" style="fill:none;fill-rule:nonzero;stroke:white;stroke-width:2.22px;" />
  </g>
  <g transform="matrix(4.064561,-0.916764,-0.916764,-4.064561,-785.21177,3574.443829)">
    <path d="M378.507,685.229L419.093,685.229" style="fill:none;fill-rule:nonzero;stroke:white;stroke-width:2.22px;" />
  </g>
  <g transform="matrix(3.653628,-2.003025,-2.003025,-3.653628,105.509808,3744.032847)">
    <path d="M382.42,674.876L427.82,674.876" style="fill:none;fill-rule:nonzero;stroke:white;stroke-width:2.22px;" />
  </g>
  <g transform="matrix(4.166667,0,0,4.166667,-1454.125,-2364.433333)">
    <path d="M458.771,658.561C459.836,658.24 489.148,656.638 490.318,656.672C491.488,656.707 506.24,681.991 505.535,684.771C505.15,686.295 479.297,697.739 479.297,697.739L452.43,673.992L458.771,658.561Z" style="fill:none;fill-rule:nonzero;stroke:white;stroke-width:2.22px;" />
  </g>
  <g transform="matrix(-4.064551,-0.916808,-0.916808,4.064551,3130.770796,-1920.763308)">
    <path d="M460.399,685.229L500.983,685.229" style="fill:none;fill-rule:nonzero;stroke:white;stroke-width:2.22px;" />
  </g>
  <g transform="matrix(-3.653586,-2.003103,-2.003103,3.653586,3607.421034,-1048.678897)">
    <path d="M451.672,674.875L497.07,674.875" style="fill:none;fill-rule:nonzero;stroke:white;stroke-width:2.22px;" />
  </g>
  <g transform="matrix(4.166667,0,0,4.166667,-1454.125,-2863.3875)">
    <path d="M495.693,734.313C495.693,734.313 501.697,726.357 520.316,730.072C520.316,730.072 510.059,731.957 514.57,742.072C514.57,742.072 507.221,739.755 507.471,747.769C507.471,747.769 499.781,744.178 495.064,747.761C495.064,747.761 500.568,740.752 495.693,734.313Z" style="fill:white;fill-rule:nonzero;stroke:rgb(243,111,33);stroke-width:2.61px;" />
  </g>
  <g transform="matrix(-3.871867,-1.539402,-1.539402,3.871867,3739.144777,-1870.940965)">
    <path d="M494.575,738.372C505.065,732.254 514.282,738.372 514.282,738.372" style="fill:none;fill-rule:nonzero;stroke:rgb(243,111,33);stroke-width:2.61px;" />
  </g>
  <g transform="matrix(2.715593,3.160168,3.160168,-2.715593,-3043.06198,630.547104)">
    <path d="M492.935,733.04C492.935,733.04 501.129,736.99 509.899,733.04" style="fill:none;fill-rule:nonzero;stroke:rgb(243,111,33);stroke-width:2.6px;" />
  </g>
  <g transform="matrix(4.166667,0,0,4.166667,-1454.125,-2868.420833)">
    <path d="M493.707,734.629C493.707,734.629 504.457,725.411 520.936,730.288C520.936,730.288 512.328,735.79 515.6,742.537C515.6,742.537 513.361,742.694 510.494,744.916C508.68,746.323 507.672,749.923 507.672,749.923C507.672,749.923 497.693,747.066 493.545,749.765C493.545,749.765 499.211,740.052 493.707,734.629Z" style="fill:none;fill-rule:nonzero;stroke:white;stroke-width:1.39px;" />
  </g>
  <g transform="matrix(4.166667,0,0,4.166667,-1454.125,-2863.3875)">
    <path d="M382.287,734.313C382.287,734.313 376.283,726.357 357.662,730.072C357.662,730.072 367.922,731.957 363.41,742.072C363.41,742.072 370.76,739.755 370.51,747.769C370.51,747.769 378.199,744.178 382.914,747.761C382.914,747.761 377.412,740.752 382.287,734.313Z" style="fill:white;fill-rule:nonzero;stroke:rgb(243,111,33);stroke-width:2.61px;" />
  </g>
  <g transform="matrix(3.871838,-1.539474,-1.539474,-3.871838,-209.041682,3635.848936)">
    <path d="M362.857,736.253C373.347,742.371 382.563,736.253 382.563,736.253" style="fill:none;fill-rule:nonzero;stroke:rgb(243,111,33);stroke-width:2.61px;" />
  </g>
  <g transform="matrix(-2.715734,3.160047,3.160047,2.715734,-1178.904806,-2956.229554)">
    <path d="M368.081,733.04C368.081,733.04 376.276,729.089 385.046,733.04" style="fill:none;fill-rule:nonzero;stroke:rgb(243,111,33);stroke-width:2.61px;" />
  </g>
  <g transform="matrix(4.166667,0,0,4.166667,-1454.125,-2868.420833)">
    <path d="M384.273,734.629C384.273,734.629 373.521,725.411 357.045,730.288C357.045,730.288 365.65,735.79 362.381,742.537C362.381,742.537 364.619,742.694 367.486,744.916C369.299,746.323 370.309,749.923 370.309,749.923C370.309,749.923 380.287,747.066 384.436,749.765C384.436,749.765 378.77,740.052 384.273,734.629Z" style="fill:none;fill-rule:nonzero;stroke:white;stroke-width:1.39px;" />
  </g>
  <g transform="matrix(0,-4.166667,-4.166667,0,3264.179167,2221.379167)">
    <path d="M439.306,667.147C424.979,667.147 413.362,678.76 413.362,693.088C413.362,707.413 424.979,719.028 439.306,719.028C453.634,719.028 465.249,707.413 465.249,693.088C465.249,678.76 453.634,667.147 439.306,667.147" style="fill:white;fill-rule:nonzero;" />
  </g>
  <g transform="matrix(4.166667,0,0,4.166667,-1454.125,-2404.483333)">
    <path d="M423.322,680.057L427.316,683.932L431.311,680.057L435.305,683.932L439.298,680.057L443.292,683.932L447.287,680.057L451.288,683.932L455.289,680.057" style="fill:white;fill-rule:nonzero;stroke:rgb(243,111,33);stroke-width:1.94px;stroke-linejoin:miter;" />
  </g>
  <g transform="matrix(0,-4.166667,-4.166667,0,3211.414583,2157.327083)">
    <path d="M425.288,692.215C424.056,692.215 423.061,693.213 423.061,694.442C423.061,695.672 424.056,696.668 425.288,696.668C426.518,696.668 427.514,695.672 427.514,694.442C427.514,693.213 426.518,692.215 425.288,692.215" style="fill:rgb(243,111,33);fill-rule:nonzero;" />
  </g>
  <g transform="matrix(0,-4.166667,-4.166667,0,3328.239583,2274.152083)">
    <path d="M453.326,692.214C452.094,692.214 451.099,693.21 451.099,694.443C451.099,695.673 452.094,696.669 453.326,696.669C454.555,696.669 455.552,695.673 455.552,694.443C455.552,693.21 454.555,692.214 453.326,692.214" style="fill:rgb(243,111,33);fill-rule:nonzero;" />
  </g>
  <g transform="matrix(4.166667,0,0,4.166667,-1454.125,-2776.058333)">
    <path d="M443.559,740.674C443.559,739.563 450.473,711.033 450.842,709.921C451.211,708.811 479.674,701.972 482.133,703.448C483.482,704.257 486.99,732.312 486.99,732.312L456.508,751.195L443.559,740.674Z" style="fill:none;fill-rule:nonzero;stroke:white;stroke-width:2.22px;" />
  </g>
  <g transform="matrix(-2.049254,3.627901,3.627901,2.049254,-1244.652845,-2930.386892)">
    <path d="M439.721,730.432L480.306,730.432" style="fill:none;fill-rule:nonzero;stroke:white;stroke-width:2.22px;" />
  </g>
  <g transform="matrix(-2.970864,2.921486,2.921486,2.970864,-220.544232,-3237.737591)">
    <path d="M445.408,721.394L490.805,721.394" style="fill:none;fill-rule:nonzero;stroke:white;stroke-width:2.22px;" />
  </g>
  <g transform="matrix(4.166667,0,0,4.166667,-1454.125,-2776.058333)">
    <path d="M434.793,740.674C434.793,739.563 427.879,711.033 427.508,709.921C427.139,708.811 398.676,701.972 396.217,703.448C394.869,704.257 391.361,732.312 391.361,732.312L421.844,751.195L434.793,740.674Z" style="fill:none;fill-rule:nonzero;stroke:white;stroke-width:2.22px;" />
  </g>
  <g transform="matrix(2.049254,3.627901,3.627901,-2.049254,-3218.271448,214.498293)">
    <path d="M398.043,730.432L438.628,730.432" style="fill:none;fill-rule:nonzero;stroke:white;stroke-width:2.22px;" />
  </g>
  <g transform="matrix(2.970954,2.921394,2.921394,-2.970954,-3071.068028,1217.737967)">
    <path d="M387.545,721.395L432.944,721.395" style="fill:none;fill-rule:nonzero;stroke:white;stroke-width:2.22px;" />
  </g>
  <g transform="matrix(4.166667,0,0,4.166667,-1454.125,-3004.304167)">
    <path d="M442.818,768.674C442.818,768.674 446.447,764.682 446.447,762.988C446.447,761.293 441.973,739.272 440.035,739.272L439.189,739.272C437.252,739.272 432.775,761.293 432.775,762.988C432.775,764.682 436.406,768.674 436.406,768.674" style="fill:white;fill-rule:nonzero;stroke:white;stroke-width:5px;" />
  </g>
  <g transform="matrix(4.166667,0,0,4.166667,-1454.125,-2849.566667)">
    <path d="M435.979,741.45L433.941,733.977L439.271,729.359L444.602,733.977L442.564,741.45L435.979,741.45Z" style="fill:white;fill-rule:nonzero;stroke:white;stroke-width:5px;" />
  </g>
  <g transform="matrix(4.166667,0,0,4.166667,-1454.125,-2794.854167)">
    <path d="M435.979,734.885L433.941,727.411L439.271,722.793L444.602,727.411L442.564,734.885L435.979,734.885Z" style="fill:white;fill-rule:nonzero;stroke:white;stroke-width:5px;" />
  </g>
  <g transform="matrix(4.166667,0,0,4.166667,-1454.125,-2755.5375)">
    <path d="M439.406,728.903C437.664,728.903 436.57,729.044 436.57,729.044L434.898,723.115L439.271,719.198L443.643,723.115L441.973,729.044C441.973,729.044 441.15,728.903 439.406,728.903" style="fill:white;fill-rule:nonzero;" />
  </g>
  <g transform="matrix(4.166667,0,0,4.166667,-1454.125,-2755.5375)">
    <path d="M439.406,728.903C437.664,728.903 436.57,729.044 436.57,729.044L434.898,723.115L439.271,719.198L443.643,723.115L441.973,729.044C441.973,729.044 441.15,728.903 439.406,728.903Z" style="fill:none;fill-rule:nonzero;stroke:white;stroke-width:5px;" />
  </g>
  <g transform="matrix(4.166667,0,0,4.166667,-1454.125,-3004.304167)">
    <path d="M442.818,768.674C442.818,768.674 446.447,764.682 446.447,762.988C446.447,761.293 441.973,739.272 440.035,739.272L439.189,739.272C437.252,739.272 432.775,761.293 432.775,762.988C432.775,764.682 436.406,768.674 436.406,768.674" style="fill:white;fill-rule:nonzero;stroke:rgb(243,111,33);stroke-width:1.5px;" />
  </g>
  <g transform="matrix(4.166667,0,0,4.166667,-1454.125,-2849.566667)">
    <path d="M435.979,741.45L433.941,733.977L439.271,729.359L444.602,733.977L442.564,741.45L435.979,741.45Z" style="fill:white;fill-rule:nonzero;stroke:rgb(243,111,33);stroke-width:1.5px;" />
  </g>
  <g transform="matrix(4.166667,0,0,4.166667,-1454.125,-2794.854167)">
    <path d="M435.979,734.885L433.941,727.411L439.271,722.793L444.602,727.411L442.564,734.885L435.979,734.885Z" style="fill:white;fill-rule:nonzero;stroke:rgb(243,111,33);stroke-width:1.5px;" />
  </g>
  <g transform="matrix(4.166667,0,0,4.166667,-1454.125,-2755.5375)">
    <path d="M439.406,728.903C437.664,728.903 436.57,729.044 436.57,729.044L434.898,723.115L439.271,719.198L443.643,723.115L441.973,729.044C441.973,729.044 441.15,728.903 439.406,728.903" style="fill:white;fill-rule:nonzero;" />
  </g>
  <g transform="matrix(4.166667,0,0,4.166667,-1454.125,-2755.5375)">
    <path d="M439.406,728.903C437.664,728.903 436.57,729.044 436.57,729.044L434.898,723.115L439.271,719.198L443.643,723.115L441.973,729.044C441.973,729.044 441.15,728.903 439.406,728.903Z" style="fill:none;fill-rule:nonzero;stroke:rgb(243,111,33);stroke-width:1.5px;" />
  </g>
  <g transform="matrix(4.166667,0,0,4.166667,-1454.125,-2642.179167)">
    <path d="M484.279,716.797C484.279,716.797 489.227,718.953 490.832,718.409C492.436,717.865 511.854,706.553 511.23,704.719L510.959,703.917C510.338,702.083 488.045,704.916 486.441,705.46C484.836,706.005 482.221,710.725 482.221,710.725" style="fill:white;fill-rule:nonzero;stroke:white;stroke-width:5px;" />
  </g>
  <g transform="matrix(4.166667,0,0,4.166667,-1454.125,-2609.345833)">
    <path d="M472.695,705.623L479.119,701.295L485.203,704.859L482.543,711.39L474.811,711.861L472.695,705.623Z" style="fill:white;fill-rule:nonzero;stroke:white;stroke-width:5px;" />
  </g>
  <g transform="matrix(4.166667,0,0,4.166667,-1454.125,-2591.779167)">
    <path d="M466.479,703.516L472.902,699.188L478.986,702.751L476.326,709.281L468.594,709.752L466.479,703.516Z" style="fill:white;fill-rule:nonzero;stroke:white;stroke-width:5px;" />
  </g>
  <g transform="matrix(4.166667,0,0,4.166667,-1454.125,-2578.645833)">
    <path d="M464.309,704.72C463.748,703.069 463.262,702.079 463.262,702.079L468.342,698.592L473.455,701.474L471.15,706.873L464.998,707.196C464.998,707.196 464.867,706.371 464.309,704.72" style="fill:white;fill-rule:nonzero;" />
  </g>
  <g transform="matrix(4.166667,0,0,4.166667,-1454.125,-2578.645833)">
    <path d="M464.309,704.72C463.748,703.069 463.262,702.079 463.262,702.079L468.342,698.592L473.455,701.474L471.15,706.873L464.998,707.196C464.998,707.196 464.867,706.371 464.309,704.72Z" style="fill:none;fill-rule:nonzero;stroke:white;stroke-width:5px;" />
  </g>
  <g transform="matrix(4.166667,0,0,4.166667,-1454.125,-2642.179167)">
    <path d="M484.279,716.797C484.279,716.797 489.227,718.953 490.832,718.409C492.436,717.865 511.854,706.553 511.23,704.719L510.959,703.917C510.338,702.083 488.045,704.916 486.441,705.46C484.836,706.005 482.221,710.725 482.221,710.725" style="fill:white;fill-rule:nonzero;stroke:rgb(243,111,33);stroke-width:1.5px;" />
  </g>
  <g transform="matrix(4.166667,0,0,4.166667,-1454.125,-2609.345833)">
    <path d="M472.695,705.623L479.119,701.295L485.203,704.859L482.543,711.39L474.811,711.861L472.695,705.623Z" style="fill:white;fill-rule:nonzero;stroke:rgb(243,111,33);stroke-width:1.5px;" />
  </g>
  <g transform="matrix(4.166667,0,0,4.166667,-1454.125,-2591.779167)">
    <path d="M466.479,703.516L472.902,699.188L478.986,702.751L476.326,709.281L468.594,709.752L466.479,703.516Z" style="fill:white;fill-rule:nonzero;stroke:rgb(243,111,33);stroke-width:1.5px;" />
  </g>
  <g transform="matrix(4.166667,0,0,4.166667,-1454.125,-2578.645833)">
    <path d="M464.309,704.72C463.748,703.069 463.262,702.079 463.262,702.079L468.342,698.592L473.455,701.474L471.15,706.873L464.998,707.196C464.998,707.196 464.867,706.371 464.309,704.72" style="fill:white;fill-rule:nonzero;" />
  </g>
  <g transform="matrix(4.166667,0,0,4.166667,-1454.125,-2578.645833)">
    <path d="M464.309,704.72C463.748,703.069 463.262,702.079 463.262,702.079L468.342,698.592L473.455,701.474L471.15,706.873L464.998,707.196C464.998,707.196 464.867,706.371 464.309,704.72Z" style="fill:none;fill-rule:nonzero;stroke:rgb(243,111,33);stroke-width:1.5px;" />
  </g>
  <g transform="matrix(4.166667,0,0,4.166667,-1454.125,-2086.170833)">
    <path d="M464.721,634.091C464.721,634.091 464.156,639.457 465.158,640.824C466.16,642.188 482.797,657.297 484.357,656.151L485.041,655.65C486.602,654.504 477.184,634.1 476.184,632.736C475.18,631.369 469.891,630.297 469.891,630.297" style="fill:white;fill-rule:nonzero;stroke:white;stroke-width:5px;" />
  </g>
  <g transform="matrix(4.166667,0,0,4.166667,-1454.125,-2218.641667)">
    <path d="M464.371,653.845L470.434,658.666L468.869,665.542L461.84,664.972L459.063,657.741L464.371,653.845Z" style="fill:white;fill-rule:nonzero;stroke:white;stroke-width:5px;" />
  </g>
  <g transform="matrix(4.166667,0,0,4.166667,-1454.125,-2262.75)">
    <path d="M460.488,659.138L466.551,663.96L464.986,670.835L457.959,670.265L455.178,663.034L460.488,659.138Z" style="fill:white;fill-rule:nonzero;stroke:white;stroke-width:5px;" />
  </g>
  <g transform="matrix(4.166667,0,0,4.166667,-1454.125,-2292.991667)">
    <path d="M455.68,665.64C457.086,664.607 457.885,663.847 457.885,663.847L462.738,667.64L461.531,673.384L455.689,672.813L453.527,667.043C453.527,667.043 454.273,666.671 455.68,665.64" style="fill:white;fill-rule:nonzero;" />
  </g>
  <g transform="matrix(4.166667,0,0,4.166667,-1454.125,-2292.991667)">
    <path d="M455.68,665.64C457.086,664.607 457.885,663.847 457.885,663.847L462.738,667.64L461.531,673.384L455.689,672.813L453.527,667.043C453.527,667.043 454.273,666.671 455.68,665.64Z" style="fill:none;fill-rule:nonzero;stroke:white;stroke-width:5px;" />
  </g>
  <g transform="matrix(4.166667,0,0,4.166667,-1454.125,-2086.170833)">
    <path d="M464.721,634.091C464.721,634.091 464.156,639.457 465.158,640.824C466.16,642.188 482.797,657.297 484.357,656.151L485.041,655.65C486.602,654.504 477.184,634.1 476.184,632.736C475.18,631.369 469.891,630.297 469.891,630.297" style="fill:white;fill-rule:nonzero;stroke:rgb(243,111,33);stroke-width:1.5px;" />
  </g>
  <g transform="matrix(4.166667,0,0,4.166667,-1454.125,-2218.641667)">
    <path d="M464.371,653.845L470.434,658.666L468.869,665.542L461.84,664.972L459.063,657.741L464.371,653.845Z" style="fill:white;fill-rule:nonzero;stroke:rgb(243,111,33);stroke-width:1.5px;" />
  </g>
  <g transform="matrix(4.166667,0,0,4.166667,-1454.125,-2262.75)">
    <path d="M460.488,659.138L466.551,663.96L464.986,670.835L457.959,670.265L455.178,663.034L460.488,659.138Z" style="fill:white;fill-rule:nonzero;stroke:rgb(243,111,33);stroke-width:1.5px;" />
  </g>
  <g transform="matrix(4.166667,0,0,4.166667,-1454.125,-2292.991667)">
    <path d="M455.68,665.64C457.086,664.607 457.885,663.847 457.885,663.847L462.738,667.64L461.531,673.384L455.689,672.813L453.527,667.043C453.527,667.043 454.273,666.671 455.68,665.64" style="fill:white;fill-rule:nonzero;" />
  </g>
  <g transform="matrix(4.166667,0,0,4.166667,-1454.125,-2292.991667)">
    <path d="M455.68,665.64C457.086,664.607 457.885,663.847 457.885,663.847L462.738,667.64L461.531,673.384L455.689,672.813L453.527,667.043C453.527,667.043 454.273,666.671 455.68,665.64Z" style="fill:none;fill-rule:nonzero;stroke:rgb(243,111,33);stroke-width:1.5px;" />
  </g>
  <g transform="matrix(4.166667,0,0,4.166667,-1454.125,-2085.958333)">
    <path d="M409.373,630.178C409.373,630.178 404.102,631.328 403.119,632.71C402.139,634.088 393.023,654.629 394.602,655.752L395.291,656.243C396.869,657.365 413.281,642.012 414.262,640.633C415.244,639.251 414.6,633.893 414.6,633.893" style="fill:white;fill-rule:nonzero;stroke:white;stroke-width:5px;" />
  </g>
  <g transform="matrix(4.166667,0,0,4.166667,-1454.125,-2216.325)">
    <path d="M420.693,657.351L418.021,664.622L411.002,665.296L409.334,658.445L415.326,653.535L420.693,657.351Z" style="fill:white;fill-rule:nonzero;stroke:white;stroke-width:5px;" />
  </g>
  <g transform="matrix(4.166667,0,0,4.166667,-1454.125,-2260.904167)">
    <path d="M424.498,662.7L421.824,669.971L414.807,670.646L413.139,663.794L419.131,658.884L424.498,662.7Z" style="fill:white;fill-rule:nonzero;stroke:white;stroke-width:5px;" />
  </g>
  <g transform="matrix(4.166667,0,0,4.166667,-1454.125,-2291.520833)">
    <path d="M423.705,665.247C425.125,666.255 426.1,666.776 426.1,666.776L424.023,672.576L418.191,673.235L416.898,667.508L421.695,663.643C421.695,663.643 422.283,664.235 423.705,665.247" style="fill:white;fill-rule:nonzero;" />
  </g>
  <g transform="matrix(4.166667,0,0,4.166667,-1454.125,-2291.520833)">
    <path d="M423.705,665.247C425.125,666.255 426.1,666.776 426.1,666.776L424.023,672.576L418.191,673.235L416.898,667.508L421.695,663.643C421.695,663.643 422.283,664.235 423.705,665.247Z" style="fill:none;fill-rule:nonzero;stroke:white;stroke-width:5px;" />
  </g>
  <g transform="matrix(4.166667,0,0,4.166667,-1454.125,-2085.958333)">
    <path d="M409.373,630.178C409.373,630.178 404.102,631.328 403.119,632.71C402.139,634.088 393.023,654.629 394.602,655.752L395.291,656.243C396.869,657.365 413.281,642.012 414.262,640.633C415.244,639.251 414.6,633.893 414.6,633.893" style="fill:white;fill-rule:nonzero;stroke:rgb(243,111,33);stroke-width:1.5px;" />
  </g>
  <g transform="matrix(4.166667,0,0,4.166667,-1454.125,-2216.325)">
    <path d="M420.693,657.351L418.021,664.622L411.002,665.296L409.334,658.445L415.326,653.535L420.693,657.351Z" style="fill:white;fill-rule:nonzero;stroke:rgb(243,111,33);stroke-width:1.5px;" />
  </g>
  <g transform="matrix(4.166667,0,0,4.166667,-1454.125,-2260.904167)">
    <path d="M424.498,662.7L421.824,669.971L414.807,670.646L413.139,663.794L419.131,658.884L424.498,662.7Z" style="fill:white;fill-rule:nonzero;stroke:rgb(243,111,33);stroke-width:1.5px;" />
  </g>
  <g transform="matrix(4.166667,0,0,4.166667,-1454.125,-2291.520833)">
    <path d="M423.705,665.247C425.125,666.255 426.1,666.776 426.1,666.776L424.023,672.576L418.191,673.235L416.898,667.508L421.695,663.643C421.695,663.643 422.283,664.235 423.705,665.247" style="fill:white;fill-rule:nonzero;" />
  </g>
  <g transform="matrix(4.166667,0,0,4.166667,-1454.125,-2291.520833)">
    <path d="M423.705,665.247C425.125,666.255 426.1,666.776 426.1,666.776L424.023,672.576L418.191,673.235L416.898,667.508L421.695,663.643C421.695,663.643 422.283,664.235 423.705,665.247Z" style="fill:none;fill-rule:nonzero;stroke:rgb(243,111,33);stroke-width:1.5px;" />
  </g>
  <g transform="matrix(4.166667,0,0,4.166667,-1454.125,-2639.6125)">
    <path d="M396.523,709.852C396.523,709.852 393.76,705.218 392.137,704.726C390.518,704.235 368.146,702.119 367.582,703.972L367.336,704.782C366.773,706.636 386.545,717.318 388.164,717.809C389.787,718.301 394.662,715.989 394.662,715.989" style="fill:white;fill-rule:nonzero;stroke:white;stroke-width:5px;" />
  </g>
  <g transform="matrix(4.166667,0,0,4.166667,-1454.125,-2607.491667)">
    <path d="M404.023,711.567L396.279,711.344L393.408,704.904L399.377,701.144L405.938,705.265L404.023,711.567Z" style="fill:white;fill-rule:nonzero;stroke:white;stroke-width:5px;" />
  </g>
  <g transform="matrix(4.166667,0,0,4.166667,-1454.125,-2591.583333)">
    <path d="M410.307,709.658L402.561,709.434L399.691,702.994L405.656,699.235L412.217,703.355L410.307,709.658Z" style="fill:white;fill-rule:nonzero;stroke:white;stroke-width:5px;" />
  </g>
  <g transform="matrix(4.166667,0,0,4.166667,-1454.125,-2579.55)">
    <path d="M414.605,704.492C414.1,706.16 413.918,707.249 413.918,707.249L407.758,707.124L405.279,701.803L410.299,698.756L415.488,702.079C415.488,702.079 415.113,702.822 414.605,704.492" style="fill:white;fill-rule:nonzero;" />
  </g>
  <g transform="matrix(4.166667,0,0,4.166667,-1454.125,-2579.55)">
    <path d="M414.605,704.492C414.1,706.16 413.918,707.249 413.918,707.249L407.758,707.124L405.279,701.803L410.299,698.756L415.488,702.079C415.488,702.079 415.113,702.822 414.605,704.492Z" style="fill:none;fill-rule:nonzero;stroke:white;stroke-width:5px;" />
  </g>
  <g transform="matrix(4.166667,0,0,4.166667,-1454.125,-2639.6125)">
    <path d="M396.523,709.852C396.523,709.852 393.76,705.218 392.137,704.726C390.518,704.235 368.146,702.119 367.582,703.972L367.336,704.782C366.773,706.636 386.545,717.318 388.164,717.809C389.787,718.301 394.662,715.989 394.662,715.989" style="fill:white;fill-rule:nonzero;stroke:rgb(243,111,33);stroke-width:1.5px;" />
  </g>
  <g transform="matrix(4.166667,0,0,4.166667,-1454.125,-2607.491667)">
    <path d="M404.023,711.567L396.279,711.344L393.408,704.904L399.377,701.144L405.938,705.265L404.023,711.567Z" style="fill:white;fill-rule:nonzero;stroke:rgb(243,111,33);stroke-width:1.5px;" />
  </g>
  <g transform="matrix(4.166667,0,0,4.166667,-1454.125,-2591.583333)">
    <path d="M410.307,709.658L402.561,709.434L399.691,702.994L405.656,699.235L412.217,703.355L410.307,709.658Z" style="fill:white;fill-rule:nonzero;stroke:rgb(243,111,33);stroke-width:1.5px;" />
  </g>
  <g transform="matrix(4.166667,0,0,4.166667,-1454.125,-2579.55)">
    <path d="M414.605,704.492C414.1,706.16 413.918,707.249 413.918,707.249L407.758,707.124L405.279,701.803L410.299,698.756L415.488,702.079C415.488,702.079 415.113,702.822 414.605,704.492" style="fill:white;fill-rule:nonzero;" />
  </g>
  <g transform="matrix(4.166667,0,0,4.166667,-1454.125,-2579.55)">
    <path d="M414.605,704.492C414.1,706.16 413.918,707.249 413.918,707.249L407.758,707.124L405.279,701.803L410.299,698.756L415.488,702.079C415.488,702.079 415.113,702.822 414.605,704.492Z" style="fill:none;fill-rule:nonzero;stroke:rgb(243,111,33);stroke-width:1.5px;" />
  </g>
</svg>
