<svg width="100%" height="100%" viewBox="0 0 750 750" version="1.1" xmlns="http://www.w3.org/2000/svg" style="stroke-linecap:round;stroke-linejoin:round;">
  <g transform="matrix(4.166667,0,0,4.166667,-276.195833,-2528.804167)">
    <path d="M246.287,758.787C246.287,774.321 233.695,786.913 218.162,786.913L94.414,786.913C78.881,786.913 66.287,774.321 66.287,758.787L66.287,635.036C66.287,619.511 78.881,606.913 94.414,606.913L218.162,606.913C233.695,606.913 246.287,619.511 246.287,635.036L246.287,758.787Z" style="fill:rgb(0,37,97);fill-rule:nonzero;" />
  </g>
  <g transform="matrix(4.166667,0,0,4.166667,-276.195833,-2724.6375)">
    <path d="M195.219,702.446L151.734,706.658L157.273,715.664L128.326,719.181L134.648,728.175L104.41,737.534L154.131,738.38L148.488,728.037L177.598,724.835L171.479,714.347L195.219,702.446Z" style="fill:white;fill-rule:nonzero;" />
  </g>
  <g transform="matrix(4.166667,0,0,4.166667,-276.195833,-2474.9125)">
    <path d="M228.582,653.025L207.385,681.979L215.934,683.51L202.262,703.173L211.229,704.215L200.432,727.867L228.137,697.856L218.713,695.661L232.668,676.066L222.895,674.079L228.582,653.025Z" style="fill:white;fill-rule:nonzero;" />
  </g>
  <g transform="matrix(-3.024807,2.865599,2.865599,3.024807,-1553.954528,-2317.536773)">
    <path d="M54.754,732.659L173.78,732.659" style="fill:none;fill-rule:nonzero;stroke:white;stroke-width:3.03px;stroke-dasharray:9.284,7.737,0,0,0;" />
  </g>
  <g transform="matrix(-3.009248,2.881933,2.881933,3.009248,-1270.028953,-2651.681396)">
    <path d="M146.26,759.554L186.841,759.554" style="fill:none;fill-rule:nonzero;stroke:white;stroke-width:3.03px;stroke-dasharray:9.284,7.737,0,0,0;" />
  </g>
  <g transform="matrix(-2.915566,2.976674,2.976674,2.915566,-1170.999824,-2700.145769)">
    <path d="M178.803,762.605L209.555,762.605" style="fill:none;fill-rule:nonzero;stroke:white;stroke-width:3.03px;stroke-dasharray:9.284,7.737,0,0,0;" />
  </g>
  <g transform="matrix(-3.041209,2.848185,2.848185,3.041209,-882.073226,-2841.054779)">
    <path d="M202.159,763.112L232.812,763.112" style="fill:none;fill-rule:nonzero;stroke:white;stroke-width:3.03px;stroke-dasharray:9.284,7.737,0,0,0;" />
  </g>
  <g transform="matrix(-3.018462,2.872281,2.872281,3.018462,-887.192319,-2571.406155)">
    <path d="M165.204,731.335L249.431,731.335" style="fill:none;fill-rule:nonzero;stroke:white;stroke-width:3.03px;stroke-dasharray:9.284,7.737,0,0,0;" />
  </g>
  <g transform="matrix(4.166667,0,0,4.166667,-276.195833,-2322.995833)">
    <path d="M100.723,651.881C100.723,651.881 109.283,651.551 125.088,663.404C136.432,671.913 151.332,685.012 157.244,687.877C164.486,691.389 175.676,692.881 181.828,683.269C187.98,673.654 182.473,661.39 171.732,661.318C164.041,661.268 157.025,667.905 160.098,675.804C163.316,684.082 174.123,683.17 175.244,677.123C176.34,671.196 170.195,669.221 167.779,671.637" style="fill:none;fill-rule:nonzero;stroke:white;stroke-width:2.77px;" />
  </g>
  <g transform="matrix(4.166667,0,0,4.166667,-276.195833,-2180.595833)">
    <path d="M86.98,630.806C86.98,630.806 109.613,627.801 134.664,650.803C154.094,668.64 177.656,682.455 207.729,679.822" style="fill:none;fill-rule:nonzero;stroke:white;stroke-width:2.77px;" />
  </g>
  <g transform="matrix(4.166667,0,0,4.166667,-276.195833,-2092.3375)">
    <path d="M80.418,625.278C80.418,625.278 103.467,615.617 133.127,641.542C159.67,664.741 186.578,673.457 209.65,669.611" style="fill:none;fill-rule:nonzero;stroke:white;stroke-width:2.77px;" />
  </g>
  <g transform="matrix(-3.034136,2.855719,2.855719,3.034136,-1650.275791,-2389.34191)">
    <path d="M64.725,745.57L144.99,745.57" style="fill:none;fill-rule:nonzero;stroke:white;stroke-width:3.03px;stroke-dasharray:9.284,7.737,0,0,0;" />
  </g>
  <g transform="matrix(-3.023239,2.867252,2.867252,3.023239,-1765.209541,-2423.102473)">
    <path d="M68.618,755.485L119.744,755.485" style="fill:none;fill-rule:nonzero;stroke:white;stroke-width:3.03px;stroke-dasharray:9.284,7.737,0,0,0;" />
  </g>
</svg>
