<svg width="100%" height="100%" viewBox="0 0 750 750" version="1.1" xmlns="http://www.w3.org/2000/svg" style="stroke-linecap:round;stroke-linejoin:round;">
  <!-- BG -->
  <rect x="0" y="0" width="100%" height="100%" fill="rgb(0 84 166)" />
  <g transform="matrix(4.166667,0,0,4.166667,-276.2,-1085.608333)">
    <path d="M125.943,339.882C133.728,339.882 140.334,344.638 142.71,351.249C145.086,344.638 151.693,339.882 159.48,339.882C167.265,339.882 173.872,344.638 176.248,351.249C178.622,344.638 185.229,339.882 193.015,339.882C200.047,339.882 206.121,343.759 208.98,349.38C203.45,327.181 183.389,310.729 159.48,310.729C135.569,310.729 115.508,327.181 109.977,349.377C112.837,343.759 118.911,339.882 125.943,339.882" style="fill:white;fill-rule:nonzero;" />
  </g>
  <g transform="matrix(4.166667,0,0,4.166667,-276.2,-1085.608333)">
    <path d="M125.943,339.882C133.728,339.882 140.334,344.638 142.71,351.249C145.086,344.638 151.693,339.882 159.48,339.882C167.265,339.882 173.872,344.638 176.248,351.249C178.622,344.638 185.229,339.882 193.015,339.882C200.047,339.882 206.121,343.759 208.98,349.38C203.45,327.181 183.389,310.729 159.48,310.729C135.569,310.729 115.508,327.181 109.977,349.377C112.837,343.759 118.911,339.882 125.943,339.882Z" style="fill:none;fill-rule:nonzero;stroke:white;stroke-width:8.92px;" />
  </g>
  <g transform="matrix(1.586477,3.852817,3.852817,-1.586477,-1118.574059,165.496128)">
    <path d="M147.683,331.164C147.683,331.164 162.766,343.759 189.745,331.164" style="fill:white;fill-rule:nonzero;stroke:white;stroke-width:8.92px;" />
  </g>
  <g transform="matrix(-1.672302,3.816349,3.816349,1.672302,-667.838533,-838.296)">
    <path d="M128.592,332.867C128.592,332.867 145.305,319.804 170.555,332.867" style="fill:white;fill-rule:nonzero;stroke:white;stroke-width:8.92px;" />
  </g>
  <g transform="matrix(4.166667,0,0,4.166667,-276.2,-696.179167)">
    <path d="M136.062,303.939C136.062,306.553 138.181,308.675 140.796,308.675C144.284,308.675 147.109,305.849 147.109,302.364C147.109,297.713 143.34,293.946 138.692,293.946C132.493,293.946 127.469,298.967 127.469,305.166C127.469,313.431 134.168,320.131 142.433,320.131C154.958,320.131 159.602,311.199 159.602,300.178L159.602,248.384" style="fill:none;fill-rule:nonzero;stroke:white;stroke-width:3.43px;" />
  </g>
  <g transform="matrix(4.166667,0,0,4.166667,-276.2,-1085.608333)">
    <path d="M125.943,339.882C133.728,339.882 140.334,344.638 142.71,351.249C145.086,344.638 151.693,339.882 159.48,339.882C167.265,339.882 173.872,344.638 176.248,351.249C178.622,344.638 185.229,339.882 193.015,339.882C200.047,339.882 206.121,343.759 208.98,349.38C203.45,327.181 183.389,310.729 159.48,310.729C135.569,310.729 115.508,327.181 109.977,349.377C112.837,343.759 118.911,339.882 125.943,339.882Z" style="fill:none;fill-rule:nonzero;stroke:rgb(0,84,166);stroke-width:3.43px;" />
  </g>
  <g transform="matrix(1.586477,3.852817,3.852817,-1.586477,-1118.574059,165.496128)">
    <path d="M147.683,331.164C147.683,331.164 162.766,343.759 189.745,331.164" style="fill:none;fill-rule:nonzero;stroke:rgb(0,84,166);stroke-width:3.43px;" />
  </g>
  <g transform="matrix(-1.672302,3.816349,3.816349,1.672302,-667.838533,-838.296)">
    <path d="M128.592,332.867C128.592,332.867 145.305,319.804 170.555,332.867" style="fill:none;fill-rule:nonzero;stroke:rgb(0,84,166);stroke-width:3.43px;" />
  </g>
  <g transform="matrix(3.920083,-1.412112,-1.412112,-3.920083,285.378447,1809.243457)">
    <path d="M161.269,364.994C157.759,364.781 154.915,366.638 154.915,369.139C154.915,371.641 157.759,373.844 161.269,374.058C164.777,374.271 167.624,372.416 167.624,369.915C167.622,367.411 164.78,365.209 161.269,364.994" style="fill:white;fill-rule:nonzero;" />
  </g>
  <g transform="matrix(3.920083,-1.412112,-1.412112,-3.920083,285.378447,1809.243457)">
    <path d="M161.269,364.994C157.759,364.781 154.915,366.638 154.915,369.139C154.915,371.641 157.759,373.844 161.269,374.058C164.777,374.271 167.624,372.416 167.624,369.915C167.622,367.411 164.78,365.209 161.269,364.994Z" style="fill:none;fill-rule:nonzero;stroke:white;stroke-width:6.57px;" />
  </g>
  <g transform="matrix(-2.701745,3.172016,3.172016,2.701745,-395.06923,-1266.29052)">
    <path d="M140.493,359.259C140.493,359.259 149.758,353.325 156.724,359.258" style="fill:none;fill-rule:nonzero;stroke:white;stroke-width:3.29px;" />
  </g>
  <g transform="matrix(4.043628,-1.005077,-1.005077,-4.043628,116.571439,1817.705167)">
    <path d="M189.341,363.053C185.852,362.894 183.021,364.808 183.021,367.325C183.02,369.838 185.851,372.008 189.341,372.165C192.831,372.323 195.661,370.412 195.662,367.897C195.661,365.381 192.833,363.214 189.341,363.053" style="fill:white;fill-rule:nonzero;" />
  </g>
  <g transform="matrix(4.043628,-1.005077,-1.005077,-4.043628,116.571439,1817.705167)">
    <path d="M189.341,363.053C185.852,362.894 183.021,364.808 183.021,367.325C183.02,369.838 185.851,372.008 189.341,372.165C192.831,372.323 195.661,370.412 195.662,367.897C195.661,365.381 192.833,363.214 189.341,363.053Z" style="fill:none;fill-rule:nonzero;stroke:white;stroke-width:6.57px;" />
  </g>
  <g transform="matrix(-2.565027,3.283557,3.283557,2.565027,-267.725744,-1322.921037)">
    <path d="M168.623,359.301C168.623,359.301 178.312,354.127 183.572,359.301" style="fill:none;fill-rule:nonzero;stroke:white;stroke-width:3.29px;" />
  </g>
  <g transform="matrix(4.166667,0,0,4.166667,-276.2,-776.991667)">
    <path d="M120.722,286.153C120.722,286.153 109.803,280.512 91.084,294.568C91.084,294.568 103.49,291.196 103.873,304.845C103.873,304.845 110.804,298.354 114.801,307.398C114.801,307.398 121.436,299.305 128.59,300.773C128.59,300.773 118.734,295.915 120.722,286.153Z" style="fill:white;fill-rule:nonzero;stroke:rgb(0,84,166);stroke-width:3.21px;stroke-linecap:butt;stroke-linejoin:miter;" />
  </g>
  <g transform="matrix(2.825049,-3.062713,-3.062713,-2.825049,771.554734,1624.279792)">
    <path d="M100.335,292.827C113.267,300.372 124.634,292.827 124.634,292.827" style="fill:none;fill-rule:nonzero;stroke:rgb(0,84,166);stroke-width:3.21px;" />
  </g>
  <g transform="matrix(-1.083287,4.023382,4.023382,1.083287,-833.342037,-326.838252)">
    <path d="M106.318,292.088C106.318,292.088 116.426,287.216 127.234,292.088" style="fill:none;fill-rule:nonzero;stroke:rgb(0,84,166);stroke-width:3.21px;" />
  </g>
  <g transform="matrix(4.166667,0,0,4.166667,-276.2,-776.029167)">
    <path d="M122.453,283.874C122.453,283.874 105.588,279.354 89.866,293.566C89.866,293.566 102.367,295.091 102.328,304.34C102.328,304.34 104.902,303.323 109.273,304.263C112.043,304.857 115.084,308.325 115.084,308.325C115.084,308.325 124.651,299.827 130.708,300.615C130.708,300.615 119.225,292.84 122.453,283.874Z" style="fill:none;fill-rule:nonzero;stroke:white;stroke-width:1.72px;" />
  </g>
  <g transform="matrix(3.920083,-1.412112,-1.412112,-3.920083,285.378447,1809.243457)">
    <path d="M161.269,364.994C157.759,364.781 154.915,366.638 154.915,369.139C154.915,371.641 157.759,373.844 161.269,374.058C164.777,374.271 167.624,372.416 167.624,369.915C167.622,367.411 164.78,365.209 161.269,364.994" style="fill:white;fill-rule:nonzero;" />
  </g>
  <g transform="matrix(3.920083,-1.412112,-1.412112,-3.920083,285.378447,1809.243457)">
    <path d="M161.269,364.994C157.759,364.781 154.915,366.638 154.915,369.139C154.915,371.641 157.759,373.844 161.269,374.058C164.777,374.271 167.624,372.416 167.624,369.915C167.622,367.411 164.78,365.209 161.269,364.994Z" style="fill:none;fill-rule:nonzero;stroke:rgb(0,84,166);stroke-width:2.63px;" />
  </g>
  <g transform="matrix(4.043628,-1.005077,-1.005077,-4.043628,116.571439,1817.705167)">
    <path d="M189.341,363.053C185.852,362.894 183.021,364.808 183.021,367.325C183.02,369.838 185.851,372.008 189.341,372.165C192.831,372.323 195.661,370.412 195.662,367.897C195.661,365.381 192.833,363.214 189.341,363.053" style="fill:white;fill-rule:nonzero;" />
  </g>
  <g transform="matrix(4.043628,-1.005077,-1.005077,-4.043628,116.571439,1817.705167)">
    <path d="M189.341,363.053C185.852,362.894 183.021,364.808 183.021,367.325C183.02,369.838 185.851,372.008 189.341,372.165C192.831,372.323 195.661,370.412 195.662,367.897C195.661,365.381 192.833,363.214 189.341,363.053Z" style="fill:none;fill-rule:nonzero;stroke:rgb(0,84,166);stroke-width:2.63px;" />
  </g>
</svg>
