<?xml version="1.0" encoding="UTF-8" standalone="no"?>
<svg width="100%" height="100%" viewBox="0 0 391 379" version="1.1" xmlns="http://www.w3.org/2000/svg" fill="none" stroke="#a1032f" stroke-width="12.5px" stroke-linecap="square" stroke-linejoin="bevel">

  <!-- SYMBOL -->
  <path d="M8.839,104.672c0,0 69.792,-17.708 69.792,-83.333l0,247.567c0,52.775 45.142,100.358 124.417,100.358c123.5,0 124.542,-104.175 124.542,-118.758c0,0 7.292,-56.25 -52.083,-94.792c0,0 -5.208,-75 101.042,-146.875c0,0 -73.962,65.729 0,115.625c0,0 -54.167,41.667 5.208,72.917c0,0 -32.292,11.458 -32.292,60.417" />

  <!-- CIRCLES -->
  <g stroke-linecap="butt" stroke-width="8.33px" stroke-linejoin="miter">
    <path d="M247.206,246.339c0,25.025 -20.287,45.312 -45.312,45.312c-25.025,0 -45.312,-20.288 -45.312,-45.312c0,-25.025 20.287,-45.312 45.312,-45.312c25.025,0 45.312,20.287 45.312,45.312Zm-16.667,0c0,15.821 -12.825,28.646 -28.646,28.646c-15.821,0 -28.646,-12.825 -28.646,-28.646c0,-15.821 12.825,-28.646 28.646,-28.646c15.821,0 28.646,12.825 28.646,28.646Z" />
  </g>

  <!-- ARROWS -->
  <g fill="#a1032f" stroke-width="8.33px" stroke-linejoin="miter" stroke-miterlimit="10">
    <path d="M160.572,206.756l-19.096,-31.25l-12.154,12.15l31.25,19.1Z" />
    <path d="M243.214,206.756l19.096,-31.25l12.154,12.15l-31.25,19.1Z" />
    <path d="M160.572,285.922l-19.096,31.25l-12.154,-12.15l31.25,-19.1Z" />
    <path d="M243.214,285.922l19.096,31.25l12.154,-12.15l-31.25,-19.1Z" />
  </g>
</svg>
