<?xml version="1.0" encoding="UTF-8" standalone="no"?>
<svg width="100%" height="100%" viewBox="0 0 391 438" version="1.1" xmlns="http://www.w3.org/2000/svg" fill="none" stroke="#a1032f" stroke-width="12.5px" stroke-linecap="square" stroke-linejoin="bevel">
  <path d="M8.839,104.672c0,0 69.792,-17.708 69.792,-83.333l0,247.567c0,52.775 45.142,100.358 124.421,100.358c123.496,0 124.537,-104.175 124.537,-118.758c0,0 7.292,-56.25 -52.083,-94.792c0,0 -5.208,-75 101.042,-146.875c0,0 -73.967,65.729 0,115.625c0,0 -54.167,41.667 5.208,72.917c0,0 -32.292,11.458 -32.292,60.417" />

  <path d="M236.484,246.339c0,18.888 -15.317,34.204 -34.204,34.204c-18.888,0 -34.204,-15.317 -34.204,-34.204c0,-18.887 15.317,-34.204 34.204,-34.204c18.887,0 34.204,15.317 34.204,34.204Zm-20.704,31.25c0,0 -34.375,20.833 -61.458,1.042c-35.212,-25.733 -14.275,-65.412 14.583,-92.708c38.542,-36.458 33.792,-86.467 33.792,-101.442m-0.433,128.142c0,0 51.333,-3.196 57.267,34.758c5.208,33.333 -11.654,46.925 -37.5,77.083c-18.75,21.875 -19.333,51.033 -19.333,91.188" style="stroke-width:10.83px;stroke-linecap:butt;stroke-linejoin:miter;"/>
</svg>
