<?xml version="1.0" encoding="UTF-8" standalone="no"?>
<svg width="100%" height="100%" viewBox="0 0 391 380" version="1.1" xmlns="http://www.w3.org/2000/svg" fill="none" stroke="#a1032f" stroke-width="12.5px" stroke-linecap="square" stroke-linejoin="bevel">
  <path d="M8.839,105.583c0,0 69.792,-17.708 69.792,-83.333l0,247.567c0,52.775 45.142,100.358 124.417,100.358c123.5,0 124.542,-104.175 124.542,-118.758c0,0 7.292,-56.25 -52.083,-94.792c0,0 -5.208,-75 101.042,-146.875c0,0 -73.962,65.729 0,115.625c0,0 -54.167,41.667 5.208,72.917c0,0 -32.292,11.458 -32.292,60.417" />
  <path d="M247.206,247.249c0,-25.009 -20.304,-45.312 -45.312,-45.312c-25.009,0 -45.312,20.304 -45.312,45.312c0,25.009 20.304,45.312 45.312,45.312c25.009,0 45.312,-20.304 45.312,-45.312Z" style="stroke-width:10.83px;stroke-linecap:butt;stroke-linejoin:miter;"/>
  <path d="M200.701,197.502c0,0 -2.196,-20.746 -25.554,-31.575c-23.354,-10.817 -54.562,-30.85 -35.846,-73.658c18.7,-42.821 74.696,-82.471 77.921,-84.608m-64.471,142.55c0,0 25.487,-58.25 76.962,-90.25m-44.537,109.554c0,0 16.267,-38.704 52.667,-59.179" style="stroke-width:10.83px;"/>
</svg>
