<?xml version="1.0" encoding="UTF-8"?>
<svg xmlns="http://www.w3.org/2000/svg" viewBox="0 0 22.68 22.68">

  <g fill="var(--ryuutama-color-archetype, #87384d)">
    <rect x="0" y="0" width="100%" height="100%" />

    <g fill="#fff">
      <path class="cls-subject-attack" d="M3.78,5.11s.03-.25-.41-2.32c0,0,1.61.42,2.41.67l9.51,11.09s-.32,1.16-1.5,1.17L3.78,5.11Z"/>
      <path class="cls-subject-attack" d="M13.81,17.03c2.5-.4,2.74-1.51,3.09-2.54.34-1.03,1.77-.86,1.77-.86.16.03.25-.16,0-.3-.37-.21-.81-.31-1.11-.29-.75.05-1.1.61-1.1.61.28-1.14-.73-1.36-1.19-1.2-.33.11-.04.25-.04.25,1.1.39.05,1.24.05,1.24l.39.45c-.24,1.69-1.99,1.65-1.99,1.65l-.36-.4c-.22.19-.44.39-.75.39-.24,0-.34-.19-.41-.3-.16-.25-.01-.51-.24-.46-.07.02-.16.27-.16.25,0,0-.49,1.41,1.22,1.47,0,0,.78.04.83.04"/>
      <path class="cls-subject-attack" d="M15.43,17.29c-.13-.03-.29-.27-.29-.27,0,0,1.03-.21,1.45-1.06l.4.47s-.13.62-.92.78c-.28.06-.5.1-.64.07"/>
      <path class="cls-subject-attack" d="M16.06,17.95c-.15-.03-.47-.42-.47-.42,0,0,1.14.12,1.62-.77l.44.49s-.19.46-.95.65c-.25.06-.46.09-.65.06"/>
      <path class="cls-subject-attack" d="M16.76,18.68c-.33-.12-.48-.43-.48-.43,0,0,1.02.07,1.56-.8l.4.47s-.18.53-.92.73c-.22.06-.41.08-.56.02"/>
      <path class="cls-subject-attack" d="M17.41,19.38c-.34-.1-.49-.39-.49-.39,0,0,1.09.04,1.5-.87l.46.48s-.16.53-.91.74c-.22.06-.41.09-.57.04"/>
      <path class="cls-subject-attack" d="M13.1,16.38s-1.72.32-.99,2.37c0,0,.06.17.16.16.04,0,.08-.06.1-.12.05-.18.05-.68.26-.99.33-.47.68-.75,1.93-.96l-1.46-.46Z"/>
      <path class="cls-subject-attack" d="M16.94,19.4c-3.17.01-2.93-2.65-2.93-2.73l-.49-.14c.31,4.76,4.84,3.8,4.84,3.8,0,0,1.1-.15,1.6-1.14.5-.99-.54-1.5-1.08-.91l.26.26s-.02.42-.6.8c-.45.29-.86.3-1.13.28-.29-.03-.48-.23-.48-.23"/>
    </g>

    <line x1="3.03" y1="2.39" x2="14.86" y2="15.39" stroke="var(--ryuutama-color-archetype, #87384d)" stroke-width="0.51px" />
  </g>

</svg>
