<?xml version="1.0" encoding="UTF-8"?>
<svg xmlns="http://www.w3.org/2000/svg" viewBox="0 0 22.68 22.68">

  <g style="--color: var(--ryuutama-color-archetype, #87384d)">
    <g fill="var(--color)">
      <rect rx="20%" x="0" y="0" width="100%" height="100%" />

      <g fill="#fff">
        <!-- BOOK -->
        <path d="M7.33,4.04c-.73,0-2.03.69-2.04,2.06,0,1.37.23,12.48.23,12.48,0,0-.07.2.09.35.1.09.3.14.57.15.27.02,1.77-.13,3.38-.04,1.62.08,5.34.09,6.56,0,.71-.06.02-5.51.05-5.96.02-.45-.08-6.49-.08-6.49,0,0,.06-.37-.52-.34-.34.02-1.01-.08-1.53-.06-1.32.04-4.03-.21-5.64-.16-1.62.05-3.04.06-2.57-.76.5-.88,1.02-1,1.42-.97.64.04,9.76,0,10.06.08.31.07.1,2.11.17,2.69.07.58.06,6.8.03,7.12-.03.32.46,3.61.37,3.77-.09.16-.24.21-.24.21,0,0,.13.29.46-.06.33-.35-.39-2.97-.33-5,.05-2.03.25-8.47-.09-8.86-.34-.39-3.84-.11-5.55-.14-1.71-.03-4.79-.07-4.79-.07"/>

        <!-- PAGES -->
        <path d="M17.23,13.59c.03-.76-.06-5.4-.04-7.36,0-.22.11-.32-.06-1.53-8.99-.11-9.26-.14-9.97-.13-.27,0-.97.38-1.05.99,0,0,.25.26.71.28.45.02.33-.06,3.35-.04l6.19.15.13.34v6.33s.36,3.74.37,4.16c0,.42-.09,1.82-.09,1.82l.12-.11.15-.05.12-.13.09.03.12-.16.09-.11.15-.13-.38-4.35Z"/>
      </g>

      <!-- SPINE RIDGES -->
      <path d="M5.19,7.69s-.01.61.7.66l.03.26s-.66.09-.83-.64c-.11-.47.11-.28.11-.28"/>
      <path d="M5.24,10.58s-.01.61.7.66l.03.26s-.66.09-.83-.64c-.11-.46.11-.28.11-.28"/>
      <path d="M5.29,13.48s-.01.61.7.66l.03.26s-.66.09-.83-.64c-.11-.47.11-.28.11-.28"/>
      <path d="M5.34,16.39s-.01.61.7.66l.03.26s-.66.09-.83-.64c-.11-.47.11-.28.11-.28"/>
      <path d="M5.89,5.69s-.06,2.77-.04,3.61c.01.84.15,3.72.16,4.19,0,.47.02,2.69.03,3.35.01.66.07,2.4.07,2.4l.25.1-.21-13.5-.25-.15Z"/>

      <!-- COVER RECTANGLE -->
      <path d="M7.7,10.57c.04.43.1,4.01.17,4.56.07.55-.05,2.14.01,2.29.06.15.96.11,2.42.02,1.46-.09,3.09.21,3.68.2.58,0,.96.01,1.08-.16.11-.18-.07-.86,0-1.46.08-.61-.15-3.75-.16-4.23,0-.48.04-2.7.03-3.33-.01-.63-.22-.63-.22-.63,0,0-.58-.02-.79-.04-.2-.02-1.02-.16-1.4-.08-.38.08-1.6.07-2.01.03-.41-.05-1.37-.16-1.81-.08-.44.08-.9.16-.9.16-.14.3-.13,2.32-.1,2.75M7.49,7.4s.51-.09.98-.18c.47-.09,1.52.03,1.97.08.44.05,1.77.06,2.19-.03.41-.09,1.3.07,1.52.09.22.02.86.04.86.04,0,0,.22,0,.23.68.01.68-.04,3.1-.03,3.62,0,.52.26,3.94.18,4.6-.08.66.12,1.4,0,1.59-.12.19-.54.17-1.17.18-.63,0-2.41-.32-4-.22-1.58.1-2.56.14-2.63-.02-.07-.16.06-1.89-.01-2.49-.08-.6-.14-4.49-.18-4.96-.04-.46-.05-2.66.1-2.99"/>

      <!-- COVER LEAVES -->
      <path d="M13.41,7.65s-.65-.17-.74.57c0,0,.79.02,1.01-.57"/>
      <path d="M14.16,7.69s-.65.17-.26.83c0,0,.67-.35.49-.96"/>
      <path d="M15.03,9.21s-.04.59-.87.41c0,0,.25-.64.97-.63"/>
      <path d="M15,8.34s-.07.59-.89.38c0,0,.28-.63,1-.59"/>
      <path d="M15.08,15.91s0-.59-.84-.46c0,0,.2.66.92.68"/>
      <path d="M15.11,16.63s-.37-.5-.99.01c0,0,.58.46,1.2.14"/>
      <path d="M13.8,17.68s-.66.13-.69-.61c0,0,.79.03.97.63"/>
      <path d="M14.75,17.69s-.67.11-.67-.64c0,0,.78.05.94.66"/>
      <path d="M9.48,7.5c.44,0,.59.43.56.67,0,0-.71.18-.86-.61"/>
      <path d="M8.8,7.48c.4.17.3.62.16.82,0,0-.74-.11-.46-.88"/>
      <path d="M7.44,9.04c-.12.37.34.6.61.64,0,0,.39-.55-.46-.88"/>
      <path d="M7.69,8.38c.23.33.74.19.95.04,0,0-.2-.62-1.06-.3"/>
      <path d="M7.79,15.87c.01-.38.53-.49.8-.45,0,0,.18.63-.75.72"/>
      <path d="M7.75,16.46c.21-.34.73-.23.95-.09,0,0-.16.63-1.04.35"/>
      <path d="M9.48,17.71c.42.12.71-.26.77-.5,0,0-.62-.36-1.04.36"/>
      <path d="M8.66,17.65c.39-.19.26-.63.09-.82,0,0-.73.15-.4.9"/>

      <!-- STAR -->
      <path d="M11.63,13.43c.19,0,.21,0,.4,0,.16.7.33,1.37.37,1.53-.11-.14-.54-.67-1-1.23.11-.14.12-.15.24-.3M11.16,13.43c.14,0,.15,0,.29,0-.07.09-.08.1-.14.19-.07-.09-.08-.09-.15-.18M10.63,13.43c.17.01.19.01.36,0,.12.15.13.16.24.29-.41.54-.81,1.06-.91,1.2.04-.16.18-.82.32-1.49M12.25,12.61c.64.3,1.25.58,1.4.65-.16,0-.83.01-1.51.01-.04-.18-.04-.2-.1-.39.11-.13.11-.15.21-.27M11.93,13.03c.03.13.03.14.06.26-.12,0-.13,0-.26,0,.1-.13.1-.13.2-.26M11.94,12.47c.08.04.09.05.18.08-.05.07-.06.08-.12.16-.03-.12-.03-.12-.06-.24M13.11,11.25c-.09.12-.5.66-.91,1.18-.14-.06-.15-.06-.3-.13-.05-.2-.05-.21-.09-.4.58-.29,1.16-.58,1.3-.65M11.68,11.97c.03.12.03.13.06.26-.15-.07-.15-.07-.3-.14.12-.06.13-.06.24-.12M11.29,12.17c.25.11.26.11.5.23.06.23.05.24.1.46-.16.21-.16.22-.33.43-.25.01-.26,0-.51.02-.16-.2-.16-.2-.31-.4.05-.26.06-.26.1-.52.22-.11.22-.11.44-.21M10.71,13.08c.09.11.09.11.17.21-.11,0-.12,0-.22,0,.02-.1.02-.11.04-.22M10.7,12.46c-.03.15-.03.15-.07.31-.08-.1-.08-.11-.16-.2.11-.05.11-.06.22-.11M10.34,12.64c.11.14.12.16.25.3-.03.18-.04.19-.07.36-.69,0-1.37.02-1.54.02.15-.07.74-.37,1.36-.68M11.29,10.34c.04.16.2.81.36,1.49-.17.08-.18.09-.36.18-.16-.08-.17-.08-.32-.15.14-.69.29-1.37.32-1.52M10.94,12c.09.04.1.04.19.09-.12.06-.12.06-.24.12.02-.1.03-.11.04-.21M9.45,11.31c.15.07.74.35,1.36.63-.03.17-.03.18-.06.35-.18.09-.19.1-.35.18-.42-.51-.84-1.03-.94-1.15M10.84,11.79c-.73-.34-1.63-.72-1.61-.75,0,0-.32-.11-.3-.14.01.02.22.26.23.27-.04-.02.61.75,1.06,1.35-.67.39-1.56.79-1.55.83,0-.05-.35.14-.31.11-.04,0,.33.01.34-.01-.02,0,.99-.02,1.76-.03-.14.79-.36,1.79-.33,1.74,0,.02-.12.36-.08.38-.03-.04.2-.32.18-.27,0-.02.57-.82,1.1-1.42.5.64,1.12,1.4,1.15,1.39,0,.02.18.25.2.23.02.03-.06-.25-.11-.29.03,0-.19-.94-.38-1.74.75-.04,1.78-.03,1.76-.02-.03-.01.35-.05.31-.01.01,0-.3-.17-.29-.15-.02.04-.89-.41-1.61-.75.46-.63,1.02-1.41,1.03-1.38,0,0,.22-.28.23-.29.01.01-.31.15-.3.18.02-.03-.86.43-1.57.78-.14-.8-.41-1.8-.37-1.77-.04-.04-.09-.31-.12-.34.04-.01-.03.32-.06.34,0-.02-.2.99-.38,1.76"/>

      <g fill="none" stroke="var(--color)" stroke-width="0.15px">
        <!-- PAGES -->
        <path d="M7.86,4.78l9.04.16v.49M7.75,5.02l9.15.11v.35M7.66,5.27l9.27.19s-.02.25-.02.37c0,1.12.06,6.79.09,6.91.03.13.42,4.56.28,5.56M7.53,5.54l9.11.2s.04.2.04.31c0,1.12.03,6.87.06,6.99.03.13.41,4.56.28,5.56"/>

        <!-- STAR DETAILS -->
        <path d="M11.63,13.43c.19,0,.21,0,.4,0,.16.7.33,1.37.37,1.53-.11-.14-.54-.67-1-1.23.11-.14.12-.15.24-.3M11.16,13.43c.14,0,.15,0,.29,0-.07.09-.08.1-.14.19-.07-.09-.08-.09-.15-.18M10.63,13.43c.17.01.19.01.36,0,.12.15.13.16.24.29-.41.54-.81,1.06-.91,1.2.04-.16.18-.82.32-1.49M12.25,12.61c.64.3,1.25.58,1.4.65-.16,0-.83.01-1.51.01-.04-.18-.04-.2-.1-.39.11-.13.11-.15.21-.27M11.93,13.03c.03.13.03.14.06.26-.12,0-.13,0-.26,0,.1-.13.1-.13.2-.26M11.94,12.47c.08.04.09.05.18.08-.05.07-.06.08-.12.16-.03-.12-.03-.12-.06-.24M13.11,11.25c-.09.12-.5.66-.91,1.18-.14-.06-.15-.06-.3-.13-.05-.2-.05-.21-.09-.4.58-.29,1.16-.58,1.3-.65M11.68,11.97c.03.12.03.13.06.26-.15-.07-.15-.07-.3-.14.12-.06.13-.06.24-.12M11.29,12.17c.25.11.26.11.5.23.06.23.05.24.1.46-.16.21-.16.22-.33.43-.25.01-.26,0-.51.02-.16-.2-.16-.2-.31-.4.05-.26.06-.26.1-.52.22-.11.22-.11.44-.21M10.71,13.08c.09.11.09.11.17.21-.11,0-.12,0-.22,0,.02-.1.02-.11.04-.22M10.7,12.46c-.03.15-.03.15-.07.31-.08-.1-.08-.11-.16-.2.11-.05.11-.06.22-.11M10.34,12.64c.11.14.12.16.25.3-.03.18-.04.19-.07.36-.69,0-1.37.02-1.54.02.15-.07.74-.37,1.36-.68M11.29,10.34c.04.16.2.81.36,1.49-.17.08-.18.09-.36.18-.16-.08-.17-.08-.32-.15.14-.69.29-1.37.32-1.52M10.94,12c.09.04.1.04.19.09-.12.06-.12.06-.24.12.02-.1.03-.11.04-.21M9.45,11.31c.15.07.74.35,1.36.63-.03.17-.03.18-.06.35-.18.09-.19.1-.35.18-.42-.51-.84-1.03-.94-1.15M10.84,11.79c-.73-.34-1.63-.72-1.61-.75,0,0-.32-.11-.3-.14.01.02.22.26.23.27-.04-.02.61.75,1.06,1.35-.67.39-1.56.79-1.55.83,0-.05-.35.14-.31.11-.04,0,.33.01.34-.01-.02,0,.99-.02,1.76-.03-.14.79-.36,1.79-.33,1.74,0,.02-.12.36-.08.38-.03-.04.2-.32.18-.27,0-.02.57-.82,1.1-1.42.5.64,1.12,1.4,1.15,1.39,0,.02.18.25.2.23.02.03-.06-.25-.11-.29.03,0-.19-.94-.38-1.74.75-.04,1.78-.03,1.76-.02-.03-.01.35-.05.31-.01.01,0-.3-.17-.29-.15-.02.04-.89-.41-1.61-.75.46-.63,1.02-1.41,1.03-1.38,0,0,.22-.28.23-.29.01.01-.31.15-.3.18.02-.03-.86.43-1.57.78-.14-.8-.41-1.8-.37-1.77-.04-.04-.09-.31-.12-.34.04-.01-.03.32-.06.34,0-.02-.2.99-.38,1.76"/>
        <path d="M11.63,13.42c.19,0,.21,0,.39,0,.17.7.33,1.37.37,1.53-.11-.14-.54-.66-.99-1.23.11-.13.11-.14.23-.3ZM11.16,13.43c.14,0,.15,0,.29,0-.07.09-.08.1-.14.19-.07-.09-.08-.09-.15-.18ZM10.63,13.44c.16,0,.18,0,.36,0,.12.15.13.16.24.29-.41.54-.81,1.07-.92,1.19.04-.17.18-.81.32-1.48ZM12.25,12.61c.64.3,1.25.58,1.4.65-.17,0-.83.01-1.5.02-.04-.18-.06-.19-.11-.39.11-.13.12-.14.21-.27ZM11.94,13.03c.03.12.03.14.06.26-.12,0-.13,0-.26,0q.1-.13.2-.26ZM11.94,12.47c.08.04.09.04.18.08-.05.07-.06.08-.12.16-.03-.12-.03-.12-.06-.24ZM13.12,11.26c-.1.13-.5.65-.91,1.19-.15-.07-.16-.08-.3-.15-.05-.18-.06-.2-.09-.38.58-.29,1.16-.59,1.3-.65ZM11.68,11.97c.03.12.03.13.06.26-.15-.07-.15-.07-.3-.14.12-.06.13-.06.23-.12ZM11.29,12.17c.24.11.25.12.49.23.05.23.05.23.11.46-.16.21-.17.22-.34.43-.25,0-.25.01-.5,0-.15-.18-.15-.18-.31-.38.05-.26.05-.26.11-.52.21-.11.21-.11.43-.22ZM10.71,13.08q.09.11.17.21c-.11,0-.12,0-.22,0,.02-.1.02-.11.05-.21ZM10.7,12.47c-.03.15-.03.15-.06.31-.08-.09-.08-.11-.16-.2.11-.05.12-.06.23-.11ZM10.34,12.64c.11.14.12.16.26.3-.04.17-.05.19-.08.35-.7.01-1.36.01-1.54.02.16-.07.75-.37,1.36-.68ZM11.29,10.35c.03.15.19.81.36,1.48-.17.08-.19.1-.36.17-.15-.07-.17-.07-.32-.14.14-.69.28-1.36.32-1.51ZM10.94,12c.09.04.1.05.19.09-.12.06-.12.06-.24.12.02-.1.03-.11.05-.21ZM9.44,11.31c.15.07.75.35,1.37.63-.04.17-.03.18-.08.34-.17.1-.19.1-.35.18-.42-.52-.84-1.04-.94-1.16ZM10.87,11.8c-.73-.34-1.65-.74-1.62-.72,0,0-.29-.18-.33-.14.04,0,.23.21.23.21.03.02.63.75,1.08,1.38-.67.37-1.56.78-1.6.79.02,0-.27.15-.31.13.05.02.36-.02.38,0-.02-.01.96.01,1.8-.05-.17.8-.41,1.8-.37,1.8-.03-.02-.11.33-.08.32.02-.01.19-.29.21-.28,0-.02.55-.78,1.06-1.4.51.64,1.16,1.42,1.18,1.42-.03,0,.17.21.19.22-.01.02-.11-.3-.08-.31,0,.03-.26-.95-.45-1.76.78-.02,1.79-.02,1.76-.03.02.04.37.03.37.02,0-.01-.32-.13-.33-.13,0-.02-.88-.45-1.61-.78.46-.62,1.04-1.42,1.02-1.42.04,0,.24-.26.21-.24.03.01-.24.12-.26.17-.01-.03-.84.38-1.53.74-.23-.75-.46-1.74-.46-1.74,0-.02-.04-.35-.07-.34,0,.01-.02.31-.05.32.02.03-.19.98-.35,1.8Z"/>
      </g>
    </g>
  </g>

</svg>
