<?xml version="1.0" encoding="UTF-8"?>
<svg xmlns="http://www.w3.org/2000/svg" viewBox="0 0 22.68 22.68">

  <g style="--color: var(--ryuutama-color-archetype, #87384d)">
    <g fill="var(--color)">
      <rect rx="20%" x="0" y="0" width="100%" height="100%" />

      <!-- This one is annoying cus the elements have to alternate in color and fill for best effect. -->
      <path fill="#fff" d="M10.04,16.03s-.5,0-.6.2c-.07.15,0,.66,1.14.6,0,0-.21.46-.02.43.19-.03.08.73.08.73,0,0,1.2.06,1.48-.32l.23-1.22-2.27-.43"/>
      <path fill="none" stroke="var(--color)" stroke-width="0.42px" d="M10.04,16.03s-.5,0-.6.2c-.07.15,0,.66,1.14.6,0,0-.21.46-.02.43.19-.03.08.73.08.73,0,0,1.2.06,1.48-.32l.23-1.22-2.27-.43"/>
      <path fill="#fff" d="M9.8,15.5s-.49,0-.58.17c-.07.13,0,.56,1.11.51,0,0,.22-.03.41-.05.19-.03.18.44.18.44,0,0,.18-.17.53-.12l-.1-.74-1.51-.21"/>
      <path fill="none" stroke="var(--color)" stroke-width="0.42px" d="M9.8,15.5s-.49,0-.58.17c-.07.13,0,.56,1.11.51,0,0,.22-.03.41-.05.19-.03.18.44.18.44,0,0,.18-.17.53-.12l-.1-.74-1.51-.21"/>
      <path fill="#fff" d="M9.75,14.89s-.49,0-.59.19c-.07.14,0,.62,1.12.56,0,0,.59-.01.78-.04.19-.03.38.81.38.81,0,0,.42-.1.84.13l-.48-1.49-2.02-.16"/>
      <path fill="none" stroke="var(--color)" stroke-width="0.42px" d="M9.75,14.89s-.49,0-.59.19c-.07.14,0,.62,1.12.56,0,0,.59-.01.78-.04.19-.03.38.81.38.81,0,0,.42-.1.84.13l-.48-1.49-2.02-.16"/>
      <path fill="#fff" d="M11.36,17.86s.73-.76.72-1.5l-.4-.94-.57-.51s-.68.16-1.22.03c-.45-.1-.57-.44-.43-.65.12-.19,1.14-.24,1.29-.26,0,0,.73-.08,1,.03.27.12,1.13,1.19,1.13,1.24s.67.97.75,1.07c.08.1.17.55.02.9-.15.36-.99,3.09-.95,3.55,0,0-1.19.56-2.35,0l-.02-.29"/>
      <path fill="none" stroke="var(--color)" stroke-width="0.42px" d="M11.36,17.86s.73-.76.72-1.5l-.4-.94-.57-.51s-.68.16-1.22.03c-.45-.1-.57-.44-.43-.65.12-.19,1.14-.24,1.29-.26,0,0,.73-.08,1,.03.27.12,1.13,1.19,1.13,1.24s.67.97.75,1.07c.08.1.17.55.02.9-.15.36-.99,3.09-.95,3.55,0,0-1.19.56-2.35,0l-.02-.29"/>
      <path fill="#fff" d="M11.87,16.81c0,.07-.07.13-.15.13s-.15-.06-.15-.13.07-.13.15-.13.15.06.15.13"/>
      <path fill="#fff" d="M10.35,20.67s-.81-.46-.85-1.71c-.02-.8.1-1.02.31-2,.18-.82-.03-2.54.57-2.46.8.1.59,1.93.59,2.34s.2.85.6.85"/>
      <path fill="none" stroke="var(--color)" stroke-width="0.32px" d="M10.35,20.67s-.81-.46-.85-1.71c-.02-.8.1-1.02.31-2,.18-.82-.03-2.54.57-2.46.8.1.59,1.93.59,2.34s.2.85.6.85"/>
      <path fill="none" stroke="var(--color)" stroke-width="1.2px" d="M12.14,9.44V2.55c0-.21-.11-.62-.42-.62h-.51c-.28,0-.41.41-.41.62v.46h-.86c-.2,0-.37.17-.37.37s.16.37.37.37h0v.78h-.17c-.2,0-.36.17-.36.37s.16.37.36.37h1.02v.41h-1.32c-.2,0-.37.17-.37.37s.16.37.37.37h1.32v3.02c-1.41.2-2.35,1.17-2.35,2.35,0,1.32,1.34,2.39,3,2.39s3-1.07,3-2.39c0-1.17-.91-2.15-2.31-2.35Z"/>
      <path fill="#fff" d="M12.21,9.51V2.28c0-.22-.12-.66-.46-.66h-.56c-.31,0-.45.43-.45.66v.49s0,0,0,0h-.94c-.22,0-.4.18-.4.39s.18.39.4.39h0v.81h-.18c-.22,0-.4.17-.4.39s.18.39.4.39h1.12v.43h-1.45c-.22,0-.4.17-.4.39s.18.39.4.39h1.45v3.17c-1.54.21-2.59,1.23-2.59,2.46,0,1.38,1.48,2.51,3.3,2.51s3.3-1.12,3.3-2.51c0-1.23-1-2.25-2.54-2.46"/>
      <path d="M12.66,12.78c0,.52-.53.94-1.17.94s-1.18-.42-1.18-.94.53-.94,1.18-.94,1.17.42,1.17.94"/>
    </g>
  </g>

</svg>
