<?xml version="1.0" encoding="UTF-8"?>
<svg xmlns="http://www.w3.org/2000/svg" viewBox="0 0 25.51 25.51">
  <defs>
    <style>
      .cls-bg {
        fill: #87384d;
      }

      .cls-subject {
        fill: #fff;
      }
    </style>
    <mask id="maskpath">
      <!-- HEAD -->
      <path class="cls-subject" d="M14.72,14.19s1.48-1.7,3.67-2v.44l.48-.07s.26,2.19-.52,4.04"/>
      <path class="cls-subject" d="M10.72,14.19s-1.48-1.7-3.67-2v.44l-.48-.07s-.26,2.19.52,4.04"/>
      <path class="cls-subject" d="M12.72,22.71c-4.52,0-6.52-2.26-6.52-2.26l.33-.22-.41-.33c.07-2.45,1.56-4.26,1.56-4.26,0,0,1.7-1.82,5.04-1.82s5.04,1.82,5.04,1.82c0,0,1.48,1.82,1.56,4.26l-.41.33.33.22s-2,2.26-6.52,2.26Z"/>

      <!-- EYES -->
      <path d="M10,16.86c0,.28-.23.51-.51.51s-.51-.23-.51-.51.23-.51.51-.51.51.23.51.51Z"/>
      <path d="M15.55,16.86c0,.28-.23.51-.51.51s-.51-.23-.51-.51.23-.51.51-.51.51.23.51.51Z"/>

      <!-- EAR FILL -->
      <path d="M17.06,15.6l-1.11-1s.67-.76,1.64-.98l-.84,1.01.81.03-.65.41.15.53Z"/>
      <path d="M8.38,15.6l1.12-1s-.68-.76-1.64-.98l.84,1.01-.81.03.65.41-.15.53Z"/>

      <!-- WIND TRAILS -->
      <path class="cls-subject" d="M21.75,3.59s3.09,2.03-1.82,3.7c0,0,3.93-.72,3.58-2.43-.18-.91-1.75-1.28-1.75-1.28Z"/>
      <path class="cls-subject" d="M19.89,8.3s3.27-.45,3.75-1.63c0,0,.26,1.02-1.32,1.41-1.02.26-2.42.22-2.42.22Z"/>

      <!-- BIRD -->
      <path class="cls-subject" d="M7.44,7.35c-.64-.56-1.42-.71-1.42-.71,0,0,.72-1.19,1.9-.7.84.35,1.05,1.16,1.05,1.16,0,0-.42-2.73,3.75-2.16,4.17.56,3.99.88,3.99.88,0,0-3.68-.07-4.55,1.36-.61.99-.12,1.34-.12,1.34l6.53-.6s-4.76,1.92-4.74,2.06c.02.13,3.65,1.27,3.65,1.27,0,0-4.2.24-5.96-.4,0,0-.82.71,2.3,2.69.13.08-7.01-1.45-5.82-4.85.1-.27-.3-1.09-.58-1.33Z"/>
      <path d="M7.48,6.59c-.05.12-.18.18-.3.14-.12-.05-.18-.18-.14-.3.05-.12.18-.18.3-.14.12.04.18.18.14.3Z"/>
    </mask>
  </defs>

  <rect class="cls-bg" rx="5" x="0" y="0" width="100%" height="100%" />
  <rect class="cls-subject" rx="5" x="0" y="0" width="100%" height="100%" mask="url(#maskpath)" />
</svg>
