<?xml version="1.0" encoding="UTF-8"?>
<svg xmlns="http://www.w3.org/2000/svg" viewBox="0 0 25.51 25.51">

  <g style="--color: var(--ryuutama-color-stats, #87384d)">
    <g fill="var(--color)">
      <!-- BG -->
      <rect rx="5" x="0" y="0" width="100%" height="100%" />

      <g fill="#fff">
        <!-- HEAD -->
        <path d="M14.76,14.06s1.48-1.7,3.67-2v.44l.48-.08s.26,2.19-.52,4.04"/>
        <path d="M10.75,14.06s-1.48-1.7-3.67-2v.44l-.48-.08s-.26,2.19.52,4.04"/>
        <path d="M12.76,22.58c-4.52,0-6.52-2.26-6.52-2.26l.33-.22-.41-.33c.07-2.45,1.56-4.26,1.56-4.26,0,0,1.7-1.82,5.04-1.82s5.04,1.82,5.04,1.82c0,0,1.48,1.82,1.56,4.26l-.41.33.33.22s-2,2.26-6.52,2.26Z"/>

        <!-- BOOK -->
        <g stroke="var(--color)">
          <g stroke-width=".28px">
            <path class="cls-sw-28" d="M6.44,5.08h7.35c.26,0,.43.01.61.43.63,1.52,2.73,6.45,2.91,6.88.17.4.09.56-.14.56h-7.77l-2.96-7.87Z"/>
          </g>

          <g stroke-width=".34px">
            <path class="cls-sw-34" d="M7.34,3.48h7.35c.26,0,.43.01.61.43.63,1.52,2.73,6.45,2.91,6.88.17.4.09.56-.14.56h-7.77l-2.96-7.87Z"/>
            <path class="cls-sw-34" d="M7.34,3.57l2.94,7.82s-.83.53-.83,1.5l-2.89-7.63s-.32-1.07.79-1.69Z"/>
            <path class="cls-sw-34" d="M10.35,11.39s7.26-.02,7.19,0c-.05.02-.12.24-.12.24l-.07.18-.14.14v.15l-.09.12.05.19h-7.54s.07-.62.72-1.02Z"/>
          </g>

          <g stroke-width=".14px">
            <line x1="12.34" y1="11.76" x2="17.4" y2="11.76"/>
            <line x1="12.34" y1="12.06" x2="17.4" y2="12.06"/>
          </g>
        </g>
      </g>

      <!-- EYES -->
      <path d="M10.49,18.68c0,.28-.23.51-.51.51s-.51-.23-.51-.51.23-.51.51-.51.51.23.51.51Z"/>
      <path d="M16.04,18.68c0,.28-.23.51-.51.51s-.51-.23-.51-.51.23-.51.51-.51.51.23.51.51Z"/>

      <!-- EAR FILL -->
      <path d="M17.1,15.47l-1.12-1s.67-.76,1.64-.98l-.84,1.01.81.03-.65.41.15.53Z"/>
      <path d="M8.41,15.47l1.12-1s-.67-.76-1.64-.98l.84,1.01-.81.03.65.41-.15.53Z"/>

      <!-- BOOK COVER -->
      <polygon points="10.38 6.2 10.87 7.17 11.33 7.16 10.95 6.16 10.38 6.2"/>
      <polygon points="11.57 6.47 11.71 6.89 11.96 6.83 11.79 6.41 11.57 6.47"/>
      <polygon points="11.97 6.01 12.28 6.96 12.57 6.95 12.26 6.03 11.97 6.01"/>
      <polygon points="12.7 6.24 12.9 6.85 13.31 6.84 12.99 6.23 12.7 6.24"/>
      <polygon points="13.4 5.88 13.8 6.88 14.17 6.76 13.97 5.95 13.4 5.88"/>
      <polygon points="14.43 6.13 14.55 6.63 15.01 6.68 14.73 6.1 14.43 6.13"/>
      <g fill="#fff">
        <polyline points="10.64 6.36 10.82 6.38 11.11 6.97 10.95 6.95 10.68 6.44"/>
        <polygon points="13.63 6.12 13.85 6.66 14.01 6.65 13.89 6.19 13.63 6.12"/>
      </g>
      <path d="M14.44,10.49s-.17-.58.54-.58c0,0,.2.76-.54.58Z"/>
      <path d="M15.22,9.99s-.12-.44.39-.43c0,0,.15.57-.39.43Z"/>
      <path d="M15.6,10.1s.16-.36.63,0c0,0-.21.46-.63,0Z"/>
      <path d="M15.92,9.78s-.12-.44.39-.43c0,0,.15.57-.39.43Z"/>
      <path d="M13.05,10.07s-.07-.44-.58-.44c0,0,.1.57.58.44Z"/>
      <path d="M12.73,10.18s-.32-.36-.63-.01c0,0,.42.46.63.01Z"/>
      <path d="M12.26,9.85s-.07-.44-.58-.44c0,0,.1.57.58.44Z"/>
      <path d="M14.2,10.51s-.12-.58-.81-.56c0,0,.16.76.81.56Z"/>
      <path d="M11.45,4.95s.05.45-.55.36c0,0-.06-.59.55-.36Z"/>
      <path d="M11.03,4.77s-.26.32-.74-.11c0,0,.35-.41.74.11Z"/>
      <path d="M10.59,5.03s.05.45-.55.36c0,0-.06-.59.55-.36Z"/>
      <path d="M12.79,4.82s.13.47.69.41c0,0-.17-.6-.69-.41Z"/>
      <path d="M13.14,4.66s.39.35.7-.06c0,0-.51-.45-.7.06Z"/>
      <path d="M13.69,4.97s.13.47.69.41c0,0-.17-.6-.69-.41Z"/>
    </g>
  </g>

</svg>
