<?xml version="1.0" encoding="UTF-8"?>
<svg xmlns="http://www.w3.org/2000/svg" viewBox="0 0 25.51 25.51">

  <g fill="var(--ryuutama-color-stats, #87384d)">
    <!-- BG -->
    <rect rx="5" x="0" y="0" width="100%" height="100%" />

    <g fill="#fff">
      <!-- HEAD -->
      <path d="M14.6,13.93s1.48-1.7,3.67-2v.44l.48-.07s.26,2.19-.52,4.04"/>
      <path d="M10.6,13.93s-1.48-1.7-3.67-2v.44l-.48-.07s-.26,2.19.52,4.04"/>
      <path d="M12.6,22.46c-4.52,0-6.52-2.26-6.52-2.26l.33-.22-.41-.33c.07-2.45,1.56-4.26,1.56-4.26,0,0,1.7-1.82,5.04-1.82s5.04,1.82,5.04,1.82c0,0,1.48,1.82,1.56,4.26l-.41.33.33.22s-2,2.26-6.52,2.26Z"/>
    </g>

    <!-- EYES -->
    <path d="M10.33,18.55c0,.28-.23.51-.51.51s-.51-.23-.51-.51.23-.51.51-.51.51.23.51.51Z"/>
    <path d="M15.88,18.55c0,.28-.23.51-.51.51s-.51-.23-.51-.51.23-.51.51-.51.51.23.51.51Z"/>

    <!-- EAR FILL -->
    <path d="M16.94,15.34l-1.11-1s.67-.76,1.64-.98l-.84,1.01.81.03-.65.41.15.53Z"/>
    <path d="M8.26,15.34l1.12-1s-.67-.76-1.64-.98l.84,1.01-.81.03.65.41-.15.53Z"/>
  </g>

  <g fill="none" stroke="#fff" stroke-width=".37px">
    <polygon points="12.24 3.13 6.94 9.21 13.11 12 12.24 3.13"/>
    <polyline points="12.28 2.84 17.91 8.84 13.23 12.12"/>
    <polyline points="6.94 9.21 11.26 6.6 17.82 8.91"/>
    <line x1="12.33" y1="3.02" x2="11.24" y2="6.67"/>
  </g>

</svg>
