<?xml version="1.0" encoding="UTF-8"?>
<svg xmlns="http://www.w3.org/2000/svg" viewBox="0 0 25.51 25.51">

  <g fill="var(--ryuutama-color-stats, #87384d)">
    <!-- BG -->
    <rect rx="20%" x="0" y="0" width="100%" height="100%" />

    <g fill="#fff">
      <!-- HEAD -->
      <path d="M14.76,14.06s1.48-1.7,3.67-2v.44l.48-.08s.26,2.19-.52,4.04"/>
      <path d="M10.75,14.06s-1.48-1.7-3.67-2v.44l-.48-.08s-.26,2.19.52,4.04"/>
      <path d="M12.76,22.58c-4.52,0-6.52-2.26-6.52-2.26l.33-.22-.41-.33c.07-2.45,1.56-4.26,1.56-4.26,0,0,1.7-1.82,5.04-1.82s5.04,1.82,5.04,1.82c0,0,1.48,1.82,1.56,4.26l-.41.33.33.22s-2,2.26-6.52,2.26Z"/>

      <g transform="translate(0, -2.1)">
        <!-- BONES -->
        <path d="M21.28,4.79c.22-.73-.02-1.48-.61-1.75-.66-.31-1.51.09-1.89.9-.16.33-.21.68-.17.99l-12.69,6.4c-.23-.21-.54-.38-.9-.45-.88-.17-1.71.27-1.85.99-.12.64.34,1.28,1.06,1.53-.22.73.02,1.48.61,1.75.66.31,1.51-.09,1.89-.9.16-.33.21-.68.17-.99l12.69-6.4c.23.21.54.38.9.45.88.17,1.71-.27,1.85-.99.12-.64-.33-1.28-1.06-1.53Z"/>

        <!-- MEAT -->
        <path d="M7.45,12.39s-1.1-1.86-.58-4.5c.52-2.64,3.07-2.52,4.58-2.58,1.51-.06,3.25-2.58,5.56-.36,2.09,2,1.81,4.07,1.17,5.34-.6.96-1.7,1.57-3.67,1.51-1.7-.05-1.64,1.25-3.46,1.85-1.28.42-2.84.18-3.59-1.26Z"/>
      </g>
    </g>

    <!-- EYES -->
    <path d="M10.49,18.68c0,.28-.23.51-.51.51s-.51-.23-.51-.51.23-.51.51-.51.51.23.51.51Z"/>
    <path d="M16.04,18.68c0,.28-.23.51-.51.51s-.51-.23-.51-.51.23-.51.51-.51.51.23.51.51Z"/>

    <!-- EAR FILL -->
    <path d="M17.1,15.47l-1.12-1s.67-.76,1.64-.98l-.84,1.01.81.03-.65.41.15.53Z"/>
    <path d="M8.41,15.47l1.12-1s-.67-.76-1.64-.98l.84,1.01-.81.03.65.41-.15.53Z"/>

    <g transform="translate(0, -2.1)">
      <!-- SPECKS -->
      <path d="M8.45,11.11c0,.13-.11.24-.24.24s-.24-.11-.24-.24.11-.24.24-.24.24.11.24.24Z"/>
      <path d="M8.89,11.97c0,.13-.11.24-.24.24s-.24-.11-.24-.24.11-.24.24-.24.24.11.24.24Z"/>
      <path d="M9.72,12.53c0,.13-.11.24-.24.24s-.24-.11-.24-.24.11-.24.24-.24.24.11.24.24Z"/>
      <path d="M11.01,12.56c0,.13-.11.24-.24.24s-.24-.11-.24-.24.11-.24.24-.24.24.11.24.24Z"/>
      <path d="M11.9,11.76c0,.13-.11.24-.24.24s-.24-.11-.24-.24.11-.24.24-.24.24.11.24.24Z"/>
      <path d="M10.64,11.79c0,.13-.11.24-.24.24s-.24-.11-.24-.24.11-.24.24-.24.24.11.24.24Z"/>
      <path d="M17.02,8.39c.05.12.19.19.31.14.12-.05.18-.19.14-.31-.05-.12-.19-.18-.31-.14-.12.05-.19.19-.14.31Z"/>
      <path d="M16.86,9.56c.05.12.19.19.31.14.12-.05.18-.19.14-.31-.05-.12-.19-.18-.31-.14-.12.05-.19.19-.14.31Z"/>
      <path d="M16.17,10.56c.05.12.19.18.31.14.12-.05.19-.19.14-.31-.05-.12-.19-.19-.31-.14-.12.05-.19.19-.14.31Z"/>
      <path d="M14.91,10.83c.05.12.19.18.31.14.12-.05.18-.19.14-.31-.05-.12-.19-.18-.31-.14-.12.05-.19.19-.14.31Z"/>
      <path d="M15.57,9.88c.05.12.19.19.31.14.12-.05.18-.19.14-.31-.05-.12-.19-.19-.31-.14-.12.05-.19.19-.14.31Z"/>
    </g>
  </g>

</svg>
