<svg xmlns="http://www.w3.org/2000/svg" version="1.1" viewBox="10 4 80 92">
 <path d="m50 14.062c-0.30078 0-0.59375 0.085938-0.84766 0.25-8.6016 5.5703-18.137 8.0664-28.766 7.5664-0.42578-0.019531-0.84375 0.13281-1.1523 0.42969-0.30859 0.29297-0.48438 0.70312-0.48438 1.1289v29.688c0 9.2578 4.9375 17.82 12.949 22.461l17.516 10.141c0.48438 0.28125 1.0859 0.28125 1.5703 0l17.516-10.141c8.0117-4.6406 12.949-13.203 12.949-22.461v-29.688c0-0.42578-0.17578-0.83594-0.48438-1.1289-0.30859-0.29688-0.72656-0.44922-1.1523-0.42969-10.629 0.5-20.164-1.9961-28.766-7.5664-0.25391-0.16406-0.54688-0.25-0.84766-0.25z"/>
 <path d="m50 4.6875c-0.30078 0-0.59375 0.085938-0.84766 0.25-10.984 7.1016-23.18 10.285-36.742 9.6484-0.42969-0.023438-0.84375 0.13281-1.1523 0.42969-0.3125 0.29297-0.48437 0.70312-0.48437 1.1328v41.77c0 9.2578 4.9375 17.82 12.953 22.453l25.492 14.73c0.48438 0.28125 1.0781 0.28125 1.5625 0l25.492-14.734c8.0156-4.6328 12.953-13.195 12.953-22.453v-41.766c0-0.42969-0.17187-0.83984-0.48437-1.1328-0.30859-0.29688-0.72266-0.45312-1.1523-0.42969-13.562 0.64062-25.758-2.5469-36.742-9.6484-0.25391-0.16406-0.54688-0.25-0.84766-0.25zm0 3.3359c10.848 6.793 22.945 9.9688 36.102 9.6445v40.25c0 8.1484-4.3398 15.672-11.391 19.746l-24.711 14.281-24.711-14.281c-7.0547-4.0781-11.391-11.602-11.391-19.746v-40.25c13.156 0.32422 25.254-2.8555 36.102-9.6445z"/>
</svg>
